G04 #@! TF.GenerationSoftware,KiCad,Pcbnew,(6.0.0)*
G04 #@! TF.CreationDate,2022-11-09T00:59:33-05:00*
G04 #@! TF.ProjectId,esp8266 atmosphere sensor,65737038-3236-4362-9061-746d6f737068,rev?*
G04 #@! TF.SameCoordinates,Original*
G04 #@! TF.FileFunction,Legend,Bot*
G04 #@! TF.FilePolarity,Positive*
%FSLAX46Y46*%
G04 Gerber Fmt 4.6, Leading zero omitted, Abs format (unit mm)*
G04 Created by KiCad (PCBNEW (6.0.0)) date 2022-11-09 00:59:33*
%MOMM*%
%LPD*%
G01*
G04 APERTURE LIST*
G04 Aperture macros list*
%AMRoundRect*
0 Rectangle with rounded corners*
0 $1 Rounding radius*
0 $2 $3 $4 $5 $6 $7 $8 $9 X,Y pos of 4 corners*
0 Add a 4 corners polygon primitive as box body*
4,1,4,$2,$3,$4,$5,$6,$7,$8,$9,$2,$3,0*
0 Add four circle primitives for the rounded corners*
1,1,$1+$1,$2,$3*
1,1,$1+$1,$4,$5*
1,1,$1+$1,$6,$7*
1,1,$1+$1,$8,$9*
0 Add four rect primitives between the rounded corners*
20,1,$1+$1,$2,$3,$4,$5,0*
20,1,$1+$1,$4,$5,$6,$7,0*
20,1,$1+$1,$6,$7,$8,$9,0*
20,1,$1+$1,$8,$9,$2,$3,0*%
G04 Aperture macros list end*
%ADD10C,0.100000*%
%ADD11C,0.150000*%
%ADD12C,0.120000*%
%ADD13C,0.550000*%
%ADD14RoundRect,0.250000X-0.600000X-0.600000X0.600000X-0.600000X0.600000X0.600000X-0.600000X0.600000X0*%
%ADD15C,1.700000*%
%ADD16C,3.200000*%
%ADD17R,1.700000X1.700000*%
%ADD18O,1.700000X1.700000*%
%ADD19RoundRect,0.200000X-0.200000X-0.275000X0.200000X-0.275000X0.200000X0.275000X-0.200000X0.275000X0*%
%ADD20RoundRect,0.200000X0.275000X-0.200000X0.275000X0.200000X-0.275000X0.200000X-0.275000X-0.200000X0*%
%ADD21RoundRect,0.225000X-0.250000X0.225000X-0.250000X-0.225000X0.250000X-0.225000X0.250000X0.225000X0*%
%ADD22RoundRect,0.200000X-0.275000X0.200000X-0.275000X-0.200000X0.275000X-0.200000X0.275000X0.200000X0*%
%ADD23RoundRect,0.225000X-0.225000X-0.250000X0.225000X-0.250000X0.225000X0.250000X-0.225000X0.250000X0*%
%ADD24RoundRect,0.250000X1.500000X-0.250000X1.500000X0.250000X-1.500000X0.250000X-1.500000X-0.250000X0*%
%ADD25RoundRect,0.250001X1.449999X-0.499999X1.449999X0.499999X-1.449999X0.499999X-1.449999X-0.499999X0*%
%ADD26RoundRect,0.225000X0.225000X0.250000X-0.225000X0.250000X-0.225000X-0.250000X0.225000X-0.250000X0*%
%ADD27RoundRect,0.250000X-1.500000X0.250000X-1.500000X-0.250000X1.500000X-0.250000X1.500000X0.250000X0*%
%ADD28RoundRect,0.250001X-1.449999X0.499999X-1.449999X-0.499999X1.449999X-0.499999X1.449999X0.499999X0*%
%ADD29RoundRect,0.225000X0.250000X-0.225000X0.250000X0.225000X-0.250000X0.225000X-0.250000X-0.225000X0*%
%ADD30RoundRect,0.250000X0.250000X1.500000X-0.250000X1.500000X-0.250000X-1.500000X0.250000X-1.500000X0*%
%ADD31RoundRect,0.250001X0.499999X1.449999X-0.499999X1.449999X-0.499999X-1.449999X0.499999X-1.449999X0*%
G04 APERTURE END LIST*
D10*
X26112666Y-8698666D02*
X26112666Y-7998666D01*
X25646000Y-7998666D02*
X25512666Y-7998666D01*
X25446000Y-8032000D01*
X25379333Y-8098666D01*
X25346000Y-8232000D01*
X25346000Y-8465333D01*
X25379333Y-8598666D01*
X25446000Y-8665333D01*
X25512666Y-8698666D01*
X25646000Y-8698666D01*
X25712666Y-8665333D01*
X25779333Y-8598666D01*
X25812666Y-8465333D01*
X25812666Y-8232000D01*
X25779333Y-8098666D01*
X25712666Y-8032000D01*
X25646000Y-7998666D01*
X25212666Y-8765333D02*
X24679333Y-8765333D01*
X24579333Y-7998666D02*
X24146000Y-7998666D01*
X24379333Y-8265333D01*
X24279333Y-8265333D01*
X24212666Y-8298666D01*
X24179333Y-8332000D01*
X24146000Y-8398666D01*
X24146000Y-8565333D01*
X24179333Y-8632000D01*
X24212666Y-8665333D01*
X24279333Y-8698666D01*
X24479333Y-8698666D01*
X24546000Y-8665333D01*
X24579333Y-8632000D01*
D11*
X45092857Y-22995000D02*
X45188095Y-22947380D01*
X45330952Y-22947380D01*
X45473809Y-22995000D01*
X45569047Y-23090238D01*
X45616666Y-23185476D01*
X45664285Y-23375952D01*
X45664285Y-23518809D01*
X45616666Y-23709285D01*
X45569047Y-23804523D01*
X45473809Y-23899761D01*
X45330952Y-23947380D01*
X45235714Y-23947380D01*
X45092857Y-23899761D01*
X45045238Y-23852142D01*
X45045238Y-23518809D01*
X45235714Y-23518809D01*
X44616666Y-23280714D02*
X44616666Y-23947380D01*
X44616666Y-23375952D02*
X44569047Y-23328333D01*
X44473809Y-23280714D01*
X44330952Y-23280714D01*
X44235714Y-23328333D01*
X44188095Y-23423571D01*
X44188095Y-23947380D01*
X43283333Y-23947380D02*
X43283333Y-22947380D01*
X43283333Y-23899761D02*
X43378571Y-23947380D01*
X43569047Y-23947380D01*
X43664285Y-23899761D01*
X43711904Y-23852142D01*
X43759523Y-23756904D01*
X43759523Y-23471190D01*
X43711904Y-23375952D01*
X43664285Y-23328333D01*
X43569047Y-23280714D01*
X43378571Y-23280714D01*
X43283333Y-23328333D01*
X-1214380Y-33638952D02*
X-214380Y-33638952D01*
X-214380Y-32972285D02*
X-214380Y-32781809D01*
X-262000Y-32686571D01*
X-357238Y-32591333D01*
X-547714Y-32543714D01*
X-881047Y-32543714D01*
X-1071523Y-32591333D01*
X-1166761Y-32686571D01*
X-1214380Y-32781809D01*
X-1214380Y-32972285D01*
X-1166761Y-33067523D01*
X-1071523Y-33162761D01*
X-881047Y-33210380D01*
X-547714Y-33210380D01*
X-357238Y-33162761D01*
X-262000Y-33067523D01*
X-214380Y-32972285D01*
X-1309619Y-32353238D02*
X-1309619Y-31591333D01*
X-214380Y-30877047D02*
X-214380Y-31353238D01*
X-690571Y-31400857D01*
X-642952Y-31353238D01*
X-595333Y-31258000D01*
X-595333Y-31019904D01*
X-642952Y-30924666D01*
X-690571Y-30877047D01*
X-785809Y-30829428D01*
X-1023904Y-30829428D01*
X-1119142Y-30877047D01*
X-1166761Y-30924666D01*
X-1214380Y-31019904D01*
X-1214380Y-31258000D01*
X-1166761Y-31353238D01*
X-1119142Y-31400857D01*
D10*
X26137333Y-6474666D02*
X25737333Y-6474666D01*
X25937333Y-7174666D02*
X25937333Y-6474666D01*
X25570666Y-7174666D02*
X25204000Y-6708000D01*
X25570666Y-6708000D02*
X25204000Y-7174666D01*
D11*
X45830952Y-30297380D02*
X45830952Y-29297380D01*
X45164285Y-29297380D02*
X44973809Y-29297380D01*
X44878571Y-29345000D01*
X44783333Y-29440238D01*
X44735714Y-29630714D01*
X44735714Y-29964047D01*
X44783333Y-30154523D01*
X44878571Y-30249761D01*
X44973809Y-30297380D01*
X45164285Y-30297380D01*
X45259523Y-30249761D01*
X45354761Y-30154523D01*
X45402380Y-29964047D01*
X45402380Y-29630714D01*
X45354761Y-29440238D01*
X45259523Y-29345000D01*
X45164285Y-29297380D01*
X44545238Y-30392619D02*
X43783333Y-30392619D01*
X43116666Y-29630714D02*
X43116666Y-30297380D01*
X43354761Y-29249761D02*
X43592857Y-29964047D01*
X42973809Y-29964047D01*
D10*
X32200000Y-6000000D02*
X32266666Y-5966666D01*
X32366666Y-5966666D01*
X32466666Y-6000000D01*
X32533333Y-6066666D01*
X32566666Y-6133333D01*
X32600000Y-6266666D01*
X32600000Y-6366666D01*
X32566666Y-6500000D01*
X32533333Y-6566666D01*
X32466666Y-6633333D01*
X32366666Y-6666666D01*
X32300000Y-6666666D01*
X32200000Y-6633333D01*
X32166666Y-6600000D01*
X32166666Y-6366666D01*
X32300000Y-6366666D01*
X31866666Y-6200000D02*
X31866666Y-6666666D01*
X31866666Y-6266666D02*
X31833333Y-6233333D01*
X31766666Y-6200000D01*
X31666666Y-6200000D01*
X31600000Y-6233333D01*
X31566666Y-6300000D01*
X31566666Y-6666666D01*
X30933333Y-6666666D02*
X30933333Y-5966666D01*
X30933333Y-6633333D02*
X31000000Y-6666666D01*
X31133333Y-6666666D01*
X31200000Y-6633333D01*
X31233333Y-6600000D01*
X31266666Y-6533333D01*
X31266666Y-6333333D01*
X31233333Y-6266666D01*
X31200000Y-6233333D01*
X31133333Y-6200000D01*
X31000000Y-6200000D01*
X30933333Y-6233333D01*
D11*
X47442380Y-15383047D02*
X46442380Y-15383047D01*
X46442380Y-16049714D02*
X46442380Y-16240190D01*
X46490000Y-16335428D01*
X46585238Y-16430666D01*
X46775714Y-16478285D01*
X47109047Y-16478285D01*
X47299523Y-16430666D01*
X47394761Y-16335428D01*
X47442380Y-16240190D01*
X47442380Y-16049714D01*
X47394761Y-15954476D01*
X47299523Y-15859238D01*
X47109047Y-15811619D01*
X46775714Y-15811619D01*
X46585238Y-15859238D01*
X46490000Y-15954476D01*
X46442380Y-16049714D01*
X47537619Y-16668761D02*
X47537619Y-17430666D01*
X46775714Y-18097333D02*
X47442380Y-18097333D01*
X46394761Y-17859238D02*
X47109047Y-17621142D01*
X47109047Y-18240190D01*
D10*
X31596000Y-3426666D02*
X31929333Y-3426666D01*
X31962666Y-3760000D01*
X31929333Y-3726666D01*
X31862666Y-3693333D01*
X31696000Y-3693333D01*
X31629333Y-3726666D01*
X31596000Y-3760000D01*
X31562666Y-3826666D01*
X31562666Y-3993333D01*
X31596000Y-4060000D01*
X31629333Y-4093333D01*
X31696000Y-4126666D01*
X31862666Y-4126666D01*
X31929333Y-4093333D01*
X31962666Y-4060000D01*
X31329333Y-3660000D02*
X31162666Y-4126666D01*
X30996000Y-3660000D01*
D11*
X40584380Y-15668857D02*
X39584380Y-15668857D01*
X39584380Y-16335523D02*
X39584380Y-16526000D01*
X39632000Y-16621238D01*
X39727238Y-16716476D01*
X39917714Y-16764095D01*
X40251047Y-16764095D01*
X40441523Y-16716476D01*
X40536761Y-16621238D01*
X40584380Y-16526000D01*
X40584380Y-16335523D01*
X40536761Y-16240285D01*
X40441523Y-16145047D01*
X40251047Y-16097428D01*
X39917714Y-16097428D01*
X39727238Y-16145047D01*
X39632000Y-16240285D01*
X39584380Y-16335523D01*
X40679619Y-16954571D02*
X40679619Y-17716476D01*
X40584380Y-18478380D02*
X40584380Y-17906952D01*
X40584380Y-18192666D02*
X39584380Y-18192666D01*
X39727238Y-18097428D01*
X39822476Y-18002190D01*
X39870095Y-17906952D01*
X39584380Y-18811714D02*
X39584380Y-19430761D01*
X39965333Y-19097428D01*
X39965333Y-19240285D01*
X40012952Y-19335523D01*
X40060571Y-19383142D01*
X40155809Y-19430761D01*
X40393904Y-19430761D01*
X40489142Y-19383142D01*
X40536761Y-19335523D01*
X40584380Y-19240285D01*
X40584380Y-18954571D01*
X40536761Y-18859333D01*
X40489142Y-18811714D01*
X28978476Y2119333D02*
X28502285Y2119333D01*
X29073714Y1833619D02*
X28740380Y2833619D01*
X28407047Y1833619D01*
X28216571Y2500285D02*
X27835619Y2500285D01*
X28073714Y2833619D02*
X28073714Y1976476D01*
X28026095Y1881238D01*
X27930857Y1833619D01*
X27835619Y1833619D01*
X27502285Y1833619D02*
X27502285Y2500285D01*
X27502285Y2405047D02*
X27454666Y2452666D01*
X27359428Y2500285D01*
X27216571Y2500285D01*
X27121333Y2452666D01*
X27073714Y2357428D01*
X27073714Y1833619D01*
X27073714Y2357428D02*
X27026095Y2452666D01*
X26930857Y2500285D01*
X26788000Y2500285D01*
X26692761Y2452666D01*
X26645142Y2357428D01*
X26645142Y1833619D01*
X26026095Y1833619D02*
X26121333Y1881238D01*
X26168952Y1928857D01*
X26216571Y2024095D01*
X26216571Y2309809D01*
X26168952Y2405047D01*
X26121333Y2452666D01*
X26026095Y2500285D01*
X25883238Y2500285D01*
X25788000Y2452666D01*
X25740380Y2405047D01*
X25692761Y2309809D01*
X25692761Y2024095D01*
X25740380Y1928857D01*
X25788000Y1881238D01*
X25883238Y1833619D01*
X26026095Y1833619D01*
X25311809Y1881238D02*
X25216571Y1833619D01*
X25026095Y1833619D01*
X24930857Y1881238D01*
X24883238Y1976476D01*
X24883238Y2024095D01*
X24930857Y2119333D01*
X25026095Y2166952D01*
X25168952Y2166952D01*
X25264190Y2214571D01*
X25311809Y2309809D01*
X25311809Y2357428D01*
X25264190Y2452666D01*
X25168952Y2500285D01*
X25026095Y2500285D01*
X24930857Y2452666D01*
X24454666Y2500285D02*
X24454666Y1500285D01*
X24454666Y2452666D02*
X24359428Y2500285D01*
X24168952Y2500285D01*
X24073714Y2452666D01*
X24026095Y2405047D01*
X23978476Y2309809D01*
X23978476Y2024095D01*
X24026095Y1928857D01*
X24073714Y1881238D01*
X24168952Y1833619D01*
X24359428Y1833619D01*
X24454666Y1881238D01*
X23549904Y1833619D02*
X23549904Y2833619D01*
X23121333Y1833619D02*
X23121333Y2357428D01*
X23168952Y2452666D01*
X23264190Y2500285D01*
X23407047Y2500285D01*
X23502285Y2452666D01*
X23549904Y2405047D01*
X22264190Y1881238D02*
X22359428Y1833619D01*
X22549904Y1833619D01*
X22645142Y1881238D01*
X22692761Y1976476D01*
X22692761Y2357428D01*
X22645142Y2452666D01*
X22549904Y2500285D01*
X22359428Y2500285D01*
X22264190Y2452666D01*
X22216571Y2357428D01*
X22216571Y2262190D01*
X22692761Y2166952D01*
X21788000Y1833619D02*
X21788000Y2500285D01*
X21788000Y2309809D02*
X21740380Y2405047D01*
X21692761Y2452666D01*
X21597523Y2500285D01*
X21502285Y2500285D01*
X20788000Y1881238D02*
X20883238Y1833619D01*
X21073714Y1833619D01*
X21168952Y1881238D01*
X21216571Y1976476D01*
X21216571Y2357428D01*
X21168952Y2452666D01*
X21073714Y2500285D01*
X20883238Y2500285D01*
X20788000Y2452666D01*
X20740380Y2357428D01*
X20740380Y2262190D01*
X21216571Y2166952D01*
X19597523Y1881238D02*
X19502285Y1833619D01*
X19311809Y1833619D01*
X19216571Y1881238D01*
X19168952Y1976476D01*
X19168952Y2024095D01*
X19216571Y2119333D01*
X19311809Y2166952D01*
X19454666Y2166952D01*
X19549904Y2214571D01*
X19597523Y2309809D01*
X19597523Y2357428D01*
X19549904Y2452666D01*
X19454666Y2500285D01*
X19311809Y2500285D01*
X19216571Y2452666D01*
X18359428Y1881238D02*
X18454666Y1833619D01*
X18645142Y1833619D01*
X18740380Y1881238D01*
X18788000Y1976476D01*
X18788000Y2357428D01*
X18740380Y2452666D01*
X18645142Y2500285D01*
X18454666Y2500285D01*
X18359428Y2452666D01*
X18311809Y2357428D01*
X18311809Y2262190D01*
X18788000Y2166952D01*
X17883238Y2500285D02*
X17883238Y1833619D01*
X17883238Y2405047D02*
X17835619Y2452666D01*
X17740380Y2500285D01*
X17597523Y2500285D01*
X17502285Y2452666D01*
X17454666Y2357428D01*
X17454666Y1833619D01*
X17026095Y1881238D02*
X16930857Y1833619D01*
X16740380Y1833619D01*
X16645142Y1881238D01*
X16597523Y1976476D01*
X16597523Y2024095D01*
X16645142Y2119333D01*
X16740380Y2166952D01*
X16883238Y2166952D01*
X16978476Y2214571D01*
X17026095Y2309809D01*
X17026095Y2357428D01*
X16978476Y2452666D01*
X16883238Y2500285D01*
X16740380Y2500285D01*
X16645142Y2452666D01*
X16026095Y1833619D02*
X16121333Y1881238D01*
X16168952Y1928857D01*
X16216571Y2024095D01*
X16216571Y2309809D01*
X16168952Y2405047D01*
X16121333Y2452666D01*
X16026095Y2500285D01*
X15883238Y2500285D01*
X15788000Y2452666D01*
X15740380Y2405047D01*
X15692761Y2309809D01*
X15692761Y2024095D01*
X15740380Y1928857D01*
X15788000Y1881238D01*
X15883238Y1833619D01*
X16026095Y1833619D01*
X15264190Y1833619D02*
X15264190Y2500285D01*
X15264190Y2309809D02*
X15216571Y2405047D01*
X15168952Y2452666D01*
X15073714Y2500285D01*
X14978476Y2500285D01*
X13883238Y1833619D02*
X13883238Y2833619D01*
X13883238Y2452666D02*
X13788000Y2500285D01*
X13597523Y2500285D01*
X13502285Y2452666D01*
X13454666Y2405047D01*
X13407047Y2309809D01*
X13407047Y2024095D01*
X13454666Y1928857D01*
X13502285Y1881238D01*
X13597523Y1833619D01*
X13788000Y1833619D01*
X13883238Y1881238D01*
X12835619Y1833619D02*
X12930857Y1881238D01*
X12978476Y1928857D01*
X13026095Y2024095D01*
X13026095Y2309809D01*
X12978476Y2405047D01*
X12930857Y2452666D01*
X12835619Y2500285D01*
X12692761Y2500285D01*
X12597523Y2452666D01*
X12549904Y2405047D01*
X12502285Y2309809D01*
X12502285Y2024095D01*
X12549904Y1928857D01*
X12597523Y1881238D01*
X12692761Y1833619D01*
X12835619Y1833619D01*
X11645142Y1833619D02*
X11645142Y2357428D01*
X11692761Y2452666D01*
X11788000Y2500285D01*
X11978476Y2500285D01*
X12073714Y2452666D01*
X11645142Y1881238D02*
X11740380Y1833619D01*
X11978476Y1833619D01*
X12073714Y1881238D01*
X12121333Y1976476D01*
X12121333Y2071714D01*
X12073714Y2166952D01*
X11978476Y2214571D01*
X11740380Y2214571D01*
X11645142Y2262190D01*
X11168952Y1833619D02*
X11168952Y2500285D01*
X11168952Y2309809D02*
X11121333Y2405047D01*
X11073714Y2452666D01*
X10978476Y2500285D01*
X10883238Y2500285D01*
X10121333Y1833619D02*
X10121333Y2833619D01*
X10121333Y1881238D02*
X10216571Y1833619D01*
X10407047Y1833619D01*
X10502285Y1881238D01*
X10549904Y1928857D01*
X10597523Y2024095D01*
X10597523Y2309809D01*
X10549904Y2405047D01*
X10502285Y2452666D01*
X10407047Y2500285D01*
X10216571Y2500285D01*
X10121333Y2452666D01*
X8978476Y2500285D02*
X8740380Y1833619D01*
X8502285Y2500285D01*
X8216571Y2833619D02*
X7597523Y2833619D01*
X7930857Y2452666D01*
X7788000Y2452666D01*
X7692761Y2405047D01*
X7645142Y2357428D01*
X7597523Y2262190D01*
X7597523Y2024095D01*
X7645142Y1928857D01*
X7692761Y1881238D01*
X7788000Y1833619D01*
X8073714Y1833619D01*
X8168952Y1881238D01*
X8216571Y1928857D01*
D10*
X25720666Y-9714666D02*
X25954000Y-9381333D01*
X26120666Y-9714666D02*
X26120666Y-9014666D01*
X25854000Y-9014666D01*
X25787333Y-9048000D01*
X25754000Y-9081333D01*
X25720666Y-9148000D01*
X25720666Y-9248000D01*
X25754000Y-9314666D01*
X25787333Y-9348000D01*
X25854000Y-9381333D01*
X26120666Y-9381333D01*
X25487333Y-9714666D02*
X25120666Y-9248000D01*
X25487333Y-9248000D02*
X25120666Y-9714666D01*
D11*
X-1468380Y-14080952D02*
X-468380Y-14080952D01*
X-468380Y-13414285D02*
X-468380Y-13223809D01*
X-516000Y-13128571D01*
X-611238Y-13033333D01*
X-801714Y-12985714D01*
X-1135047Y-12985714D01*
X-1325523Y-13033333D01*
X-1420761Y-13128571D01*
X-1468380Y-13223809D01*
X-1468380Y-13414285D01*
X-1420761Y-13509523D01*
X-1325523Y-13604761D01*
X-1135047Y-13652380D01*
X-801714Y-13652380D01*
X-611238Y-13604761D01*
X-516000Y-13509523D01*
X-468380Y-13414285D01*
X-1563619Y-12795238D02*
X-1563619Y-12033333D01*
X-563619Y-11842857D02*
X-515999Y-11795238D01*
X-468380Y-11700000D01*
X-468380Y-11461904D01*
X-515999Y-11366666D01*
X-563619Y-11319047D01*
X-658857Y-11271428D01*
X-754095Y-11271428D01*
X-896952Y-11319047D01*
X-1468380Y-11890476D01*
X-1468380Y-11271428D01*
D10*
X30938666Y-10730666D02*
X30938666Y-10030666D01*
X30472000Y-10030666D02*
X30338666Y-10030666D01*
X30272000Y-10064000D01*
X30205333Y-10130666D01*
X30172000Y-10264000D01*
X30172000Y-10497333D01*
X30205333Y-10630666D01*
X30272000Y-10697333D01*
X30338666Y-10730666D01*
X30472000Y-10730666D01*
X30538666Y-10697333D01*
X30605333Y-10630666D01*
X30638666Y-10497333D01*
X30638666Y-10264000D01*
X30605333Y-10130666D01*
X30538666Y-10064000D01*
X30472000Y-10030666D01*
X30038666Y-10797333D02*
X29505333Y-10797333D01*
X29205333Y-10030666D02*
X29138666Y-10030666D01*
X29072000Y-10064000D01*
X29038666Y-10097333D01*
X29005333Y-10164000D01*
X28972000Y-10297333D01*
X28972000Y-10464000D01*
X29005333Y-10597333D01*
X29038666Y-10664000D01*
X29072000Y-10697333D01*
X29138666Y-10730666D01*
X29205333Y-10730666D01*
X29272000Y-10697333D01*
X29305333Y-10664000D01*
X29338666Y-10597333D01*
X29372000Y-10464000D01*
X29372000Y-10297333D01*
X29338666Y-10164000D01*
X29305333Y-10097333D01*
X29272000Y-10064000D01*
X29205333Y-10030666D01*
D11*
X-1722380Y-25002952D02*
X-722380Y-25002952D01*
X-722380Y-24336285D02*
X-722380Y-24145809D01*
X-770000Y-24050571D01*
X-865238Y-23955333D01*
X-1055714Y-23907714D01*
X-1389047Y-23907714D01*
X-1579523Y-23955333D01*
X-1674761Y-24050571D01*
X-1722380Y-24145809D01*
X-1722380Y-24336285D01*
X-1674761Y-24431523D01*
X-1579523Y-24526761D01*
X-1389047Y-24574380D01*
X-1055714Y-24574380D01*
X-865238Y-24526761D01*
X-770000Y-24431523D01*
X-722380Y-24336285D01*
X-1817619Y-23717238D02*
X-1817619Y-22955333D01*
X-1055714Y-22288666D02*
X-1722380Y-22288666D01*
X-674761Y-22526761D02*
X-1389047Y-22764857D01*
X-1389047Y-22145809D01*
X34257142Y-960380D02*
X34257142Y-436571D01*
X34304761Y-341333D01*
X34400000Y-293714D01*
X34590476Y-293714D01*
X34685714Y-341333D01*
X34257142Y-912761D02*
X34352380Y-960380D01*
X34590476Y-960380D01*
X34685714Y-912761D01*
X34733333Y-817523D01*
X34733333Y-722285D01*
X34685714Y-627047D01*
X34590476Y-579428D01*
X34352380Y-579428D01*
X34257142Y-531809D01*
X33780952Y-960380D02*
X33780952Y39619D01*
X33780952Y-341333D02*
X33685714Y-293714D01*
X33495238Y-293714D01*
X33400000Y-341333D01*
X33352380Y-388952D01*
X33304761Y-484190D01*
X33304761Y-769904D01*
X33352380Y-865142D01*
X33400000Y-912761D01*
X33495238Y-960380D01*
X33685714Y-960380D01*
X33780952Y-912761D01*
X32971428Y-293714D02*
X32447619Y-293714D01*
X32971428Y-960380D01*
X32447619Y-960380D01*
X32066666Y-960380D02*
X32066666Y-293714D01*
X32066666Y-388952D02*
X32019047Y-341333D01*
X31923809Y-293714D01*
X31780952Y-293714D01*
X31685714Y-341333D01*
X31638095Y-436571D01*
X31638095Y-960380D01*
X31638095Y-436571D02*
X31590476Y-341333D01*
X31495238Y-293714D01*
X31352380Y-293714D01*
X31257142Y-341333D01*
X31209523Y-436571D01*
X31209523Y-960380D01*
X30304761Y-960380D02*
X30304761Y-436571D01*
X30352380Y-341333D01*
X30447619Y-293714D01*
X30638095Y-293714D01*
X30733333Y-341333D01*
X30304761Y-912761D02*
X30400000Y-960380D01*
X30638095Y-960380D01*
X30733333Y-912761D01*
X30780952Y-817523D01*
X30780952Y-722285D01*
X30733333Y-627047D01*
X30638095Y-579428D01*
X30400000Y-579428D01*
X30304761Y-531809D01*
X29828571Y-293714D02*
X29828571Y-960380D01*
X29828571Y-388952D02*
X29780952Y-341333D01*
X29685714Y-293714D01*
X29542857Y-293714D01*
X29447619Y-341333D01*
X29400000Y-436571D01*
X29400000Y-960380D01*
X28971428Y-55619D02*
X28923809Y-8000D01*
X28828571Y39619D01*
X28590476Y39619D01*
X28495238Y-8000D01*
X28447619Y-55619D01*
X28400000Y-150857D01*
X28400000Y-246095D01*
X28447619Y-388952D01*
X29019047Y-960380D01*
X28400000Y-960380D01*
X27971428Y-960380D02*
X27971428Y39619D01*
X27876190Y-579428D02*
X27590476Y-960380D01*
X27590476Y-293714D02*
X27971428Y-674666D01*
X27161904Y-865142D02*
X27114285Y-912761D01*
X27161904Y-960380D01*
X27209523Y-912761D01*
X27161904Y-865142D01*
X27161904Y-960380D01*
X26780952Y-293714D02*
X26590476Y-960380D01*
X26400000Y-484190D01*
X26209523Y-960380D01*
X26019047Y-293714D01*
X25495238Y-960380D02*
X25590476Y-912761D01*
X25638095Y-865142D01*
X25685714Y-769904D01*
X25685714Y-484190D01*
X25638095Y-388952D01*
X25590476Y-341333D01*
X25495238Y-293714D01*
X25352380Y-293714D01*
X25257142Y-341333D01*
X25209523Y-388952D01*
X25161904Y-484190D01*
X25161904Y-769904D01*
X25209523Y-865142D01*
X25257142Y-912761D01*
X25352380Y-960380D01*
X25495238Y-960380D01*
X24733333Y-960380D02*
X24733333Y-293714D01*
X24733333Y-484190D02*
X24685714Y-388952D01*
X24638095Y-341333D01*
X24542857Y-293714D01*
X24447619Y-293714D01*
X23685714Y-960380D02*
X23685714Y39619D01*
X23685714Y-912761D02*
X23780952Y-960380D01*
X23971428Y-960380D01*
X24066666Y-912761D01*
X24114285Y-865142D01*
X24161904Y-769904D01*
X24161904Y-484190D01*
X24114285Y-388952D01*
X24066666Y-341333D01*
X23971428Y-293714D01*
X23780952Y-293714D01*
X23685714Y-341333D01*
X23209523Y-293714D02*
X23209523Y-1293714D01*
X23209523Y-341333D02*
X23114285Y-293714D01*
X22923809Y-293714D01*
X22828571Y-341333D01*
X22780952Y-388952D01*
X22733333Y-484190D01*
X22733333Y-769904D01*
X22780952Y-865142D01*
X22828571Y-912761D01*
X22923809Y-960380D01*
X23114285Y-960380D01*
X23209523Y-912761D01*
X22304761Y-960380D02*
X22304761Y-293714D01*
X22304761Y-484190D02*
X22257142Y-388952D01*
X22209523Y-341333D01*
X22114285Y-293714D01*
X22019047Y-293714D01*
X21304761Y-912761D02*
X21400000Y-960380D01*
X21590476Y-960380D01*
X21685714Y-912761D01*
X21733333Y-817523D01*
X21733333Y-436571D01*
X21685714Y-341333D01*
X21590476Y-293714D01*
X21400000Y-293714D01*
X21304761Y-341333D01*
X21257142Y-436571D01*
X21257142Y-531809D01*
X21733333Y-627047D01*
X20876190Y-912761D02*
X20780952Y-960380D01*
X20590476Y-960380D01*
X20495238Y-912761D01*
X20447619Y-817523D01*
X20447619Y-769904D01*
X20495238Y-674666D01*
X20590476Y-627047D01*
X20733333Y-627047D01*
X20828571Y-579428D01*
X20876190Y-484190D01*
X20876190Y-436571D01*
X20828571Y-341333D01*
X20733333Y-293714D01*
X20590476Y-293714D01*
X20495238Y-341333D01*
X20066666Y-912761D02*
X19971428Y-960380D01*
X19780952Y-960380D01*
X19685714Y-912761D01*
X19638095Y-817523D01*
X19638095Y-769904D01*
X19685714Y-674666D01*
X19780952Y-627047D01*
X19923809Y-627047D01*
X20019047Y-579428D01*
X20066666Y-484190D01*
X20066666Y-436571D01*
X20019047Y-341333D01*
X19923809Y-293714D01*
X19780952Y-293714D01*
X19685714Y-341333D01*
X19209523Y-865142D02*
X19161904Y-912761D01*
X19209523Y-960380D01*
X19257142Y-912761D01*
X19209523Y-865142D01*
X19209523Y-960380D01*
X18304761Y-912761D02*
X18400000Y-960380D01*
X18590476Y-960380D01*
X18685714Y-912761D01*
X18733333Y-865142D01*
X18780952Y-769904D01*
X18780952Y-484190D01*
X18733333Y-388952D01*
X18685714Y-341333D01*
X18590476Y-293714D01*
X18400000Y-293714D01*
X18304761Y-341333D01*
X17733333Y-960380D02*
X17828571Y-912761D01*
X17876190Y-865142D01*
X17923809Y-769904D01*
X17923809Y-484190D01*
X17876190Y-388952D01*
X17828571Y-341333D01*
X17733333Y-293714D01*
X17590476Y-293714D01*
X17495238Y-341333D01*
X17447619Y-388952D01*
X17400000Y-484190D01*
X17400000Y-769904D01*
X17447619Y-865142D01*
X17495238Y-912761D01*
X17590476Y-960380D01*
X17733333Y-960380D01*
X16971428Y-960380D02*
X16971428Y-293714D01*
X16971428Y-388952D02*
X16923809Y-341333D01*
X16828571Y-293714D01*
X16685714Y-293714D01*
X16590476Y-341333D01*
X16542857Y-436571D01*
X16542857Y-960380D01*
X16542857Y-436571D02*
X16495238Y-341333D01*
X16400000Y-293714D01*
X16257142Y-293714D01*
X16161904Y-341333D01*
X16114285Y-436571D01*
X16114285Y-960380D01*
X45830952Y-27122380D02*
X45830952Y-26122380D01*
X45164285Y-26122380D02*
X44973809Y-26122380D01*
X44878571Y-26170000D01*
X44783333Y-26265238D01*
X44735714Y-26455714D01*
X44735714Y-26789047D01*
X44783333Y-26979523D01*
X44878571Y-27074761D01*
X44973809Y-27122380D01*
X45164285Y-27122380D01*
X45259523Y-27074761D01*
X45354761Y-26979523D01*
X45402380Y-26789047D01*
X45402380Y-26455714D01*
X45354761Y-26265238D01*
X45259523Y-26170000D01*
X45164285Y-26122380D01*
X44545238Y-27217619D02*
X43783333Y-27217619D01*
X43069047Y-26122380D02*
X43545238Y-26122380D01*
X43592857Y-26598571D01*
X43545238Y-26550952D01*
X43450000Y-26503333D01*
X43211904Y-26503333D01*
X43116666Y-26550952D01*
X43069047Y-26598571D01*
X43021428Y-26693809D01*
X43021428Y-26931904D01*
X43069047Y-27027142D01*
X43116666Y-27074761D01*
X43211904Y-27122380D01*
X43450000Y-27122380D01*
X43545238Y-27074761D01*
X43592857Y-27027142D01*
D10*
X26112666Y-6158666D02*
X26112666Y-5458666D01*
X25646000Y-5458666D02*
X25512666Y-5458666D01*
X25446000Y-5492000D01*
X25379333Y-5558666D01*
X25346000Y-5692000D01*
X25346000Y-5925333D01*
X25379333Y-6058666D01*
X25446000Y-6125333D01*
X25512666Y-6158666D01*
X25646000Y-6158666D01*
X25712666Y-6125333D01*
X25779333Y-6058666D01*
X25812666Y-5925333D01*
X25812666Y-5692000D01*
X25779333Y-5558666D01*
X25712666Y-5492000D01*
X25646000Y-5458666D01*
X25212666Y-6225333D02*
X24679333Y-6225333D01*
X24146000Y-6158666D02*
X24546000Y-6158666D01*
X24346000Y-6158666D02*
X24346000Y-5458666D01*
X24412666Y-5558666D01*
X24479333Y-5625333D01*
X24546000Y-5658666D01*
D11*
X45664285Y-28979761D02*
X45521428Y-29027380D01*
X45283333Y-29027380D01*
X45188095Y-28979761D01*
X45140476Y-28932142D01*
X45092857Y-28836904D01*
X45092857Y-28741666D01*
X45140476Y-28646428D01*
X45188095Y-28598809D01*
X45283333Y-28551190D01*
X45473809Y-28503571D01*
X45569047Y-28455952D01*
X45616666Y-28408333D01*
X45664285Y-28313095D01*
X45664285Y-28217857D01*
X45616666Y-28122619D01*
X45569047Y-28075000D01*
X45473809Y-28027380D01*
X45235714Y-28027380D01*
X45092857Y-28075000D01*
X44664285Y-29027380D02*
X44664285Y-28027380D01*
X44426190Y-28027380D01*
X44283333Y-28075000D01*
X44188095Y-28170238D01*
X44140476Y-28265476D01*
X44092857Y-28455952D01*
X44092857Y-28598809D01*
X44140476Y-28789285D01*
X44188095Y-28884523D01*
X44283333Y-28979761D01*
X44426190Y-29027380D01*
X44664285Y-29027380D01*
X43711904Y-28741666D02*
X43235714Y-28741666D01*
X43807142Y-29027380D02*
X43473809Y-28027380D01*
X43140476Y-29027380D01*
X36147142Y-42108380D02*
X36147142Y-41108380D01*
X35480476Y-41108380D02*
X35290000Y-41108380D01*
X35194761Y-41156000D01*
X35099523Y-41251238D01*
X35051904Y-41441714D01*
X35051904Y-41775047D01*
X35099523Y-41965523D01*
X35194761Y-42060761D01*
X35290000Y-42108380D01*
X35480476Y-42108380D01*
X35575714Y-42060761D01*
X35670952Y-41965523D01*
X35718571Y-41775047D01*
X35718571Y-41441714D01*
X35670952Y-41251238D01*
X35575714Y-41156000D01*
X35480476Y-41108380D01*
X34861428Y-42203619D02*
X34099523Y-42203619D01*
X33337619Y-42108380D02*
X33909047Y-42108380D01*
X33623333Y-42108380D02*
X33623333Y-41108380D01*
X33718571Y-41251238D01*
X33813809Y-41346476D01*
X33909047Y-41394095D01*
X32956666Y-41203619D02*
X32909047Y-41156000D01*
X32813809Y-41108380D01*
X32575714Y-41108380D01*
X32480476Y-41156000D01*
X32432857Y-41203619D01*
X32385238Y-41298857D01*
X32385238Y-41394095D01*
X32432857Y-41536952D01*
X33004285Y-42108380D01*
X32385238Y-42108380D01*
X45640476Y-25804761D02*
X45497619Y-25852380D01*
X45259523Y-25852380D01*
X45164285Y-25804761D01*
X45116666Y-25757142D01*
X45069047Y-25661904D01*
X45069047Y-25566666D01*
X45116666Y-25471428D01*
X45164285Y-25423809D01*
X45259523Y-25376190D01*
X45450000Y-25328571D01*
X45545238Y-25280952D01*
X45592857Y-25233333D01*
X45640476Y-25138095D01*
X45640476Y-25042857D01*
X45592857Y-24947619D01*
X45545238Y-24900000D01*
X45450000Y-24852380D01*
X45211904Y-24852380D01*
X45069047Y-24900000D01*
X44069047Y-25757142D02*
X44116666Y-25804761D01*
X44259523Y-25852380D01*
X44354761Y-25852380D01*
X44497619Y-25804761D01*
X44592857Y-25709523D01*
X44640476Y-25614285D01*
X44688095Y-25423809D01*
X44688095Y-25280952D01*
X44640476Y-25090476D01*
X44592857Y-24995238D01*
X44497619Y-24900000D01*
X44354761Y-24852380D01*
X44259523Y-24852380D01*
X44116666Y-24900000D01*
X44069047Y-24947619D01*
X43164285Y-25852380D02*
X43640476Y-25852380D01*
X43640476Y-24852380D01*
D10*
X25666666Y-4126666D02*
X25900000Y-3793333D01*
X26066666Y-4126666D02*
X26066666Y-3426666D01*
X25800000Y-3426666D01*
X25733333Y-3460000D01*
X25700000Y-3493333D01*
X25666666Y-3560000D01*
X25666666Y-3660000D01*
X25700000Y-3726666D01*
X25733333Y-3760000D01*
X25800000Y-3793333D01*
X26066666Y-3793333D01*
X25400000Y-4093333D02*
X25333333Y-4126666D01*
X25200000Y-4126666D01*
X25133333Y-4093333D01*
X25100000Y-4026666D01*
X25100000Y-3993333D01*
X25133333Y-3926666D01*
X25200000Y-3893333D01*
X25300000Y-3893333D01*
X25366666Y-3860000D01*
X25400000Y-3793333D01*
X25400000Y-3760000D01*
X25366666Y-3693333D01*
X25300000Y-3660000D01*
X25200000Y-3660000D01*
X25133333Y-3693333D01*
X24900000Y-3660000D02*
X24633333Y-3660000D01*
X24800000Y-3426666D02*
X24800000Y-4026666D01*
X24766666Y-4093333D01*
X24700000Y-4126666D01*
X24633333Y-4126666D01*
D11*
X45878571Y-20407380D02*
X45259523Y-20407380D01*
X45592857Y-20788333D01*
X45450000Y-20788333D01*
X45354761Y-20835952D01*
X45307142Y-20883571D01*
X45259523Y-20978809D01*
X45259523Y-21216904D01*
X45307142Y-21312142D01*
X45354761Y-21359761D01*
X45450000Y-21407380D01*
X45735714Y-21407380D01*
X45830952Y-21359761D01*
X45878571Y-21312142D01*
X44830952Y-21312142D02*
X44783333Y-21359761D01*
X44830952Y-21407380D01*
X44878571Y-21359761D01*
X44830952Y-21312142D01*
X44830952Y-21407380D01*
X44450000Y-20407380D02*
X43830952Y-20407380D01*
X44164285Y-20788333D01*
X44021428Y-20788333D01*
X43926190Y-20835952D01*
X43878571Y-20883571D01*
X43830952Y-20978809D01*
X43830952Y-21216904D01*
X43878571Y-21312142D01*
X43926190Y-21359761D01*
X44021428Y-21407380D01*
X44307142Y-21407380D01*
X44402380Y-21359761D01*
X44450000Y-21312142D01*
X43497619Y-20740714D02*
X43259523Y-21407380D01*
X43021428Y-20740714D01*
D10*
X5971333Y-40424666D02*
X6204666Y-40091333D01*
X6371333Y-40424666D02*
X6371333Y-39724666D01*
X6104666Y-39724666D01*
X6038000Y-39758000D01*
X6004666Y-39791333D01*
X5971333Y-39858000D01*
X5971333Y-39958000D01*
X6004666Y-40024666D01*
X6038000Y-40058000D01*
X6104666Y-40091333D01*
X6371333Y-40091333D01*
X5338000Y-39724666D02*
X5671333Y-39724666D01*
X5704666Y-40058000D01*
X5671333Y-40024666D01*
X5604666Y-39991333D01*
X5438000Y-39991333D01*
X5371333Y-40024666D01*
X5338000Y-40058000D01*
X5304666Y-40124666D01*
X5304666Y-40291333D01*
X5338000Y-40358000D01*
X5371333Y-40391333D01*
X5438000Y-40424666D01*
X5604666Y-40424666D01*
X5671333Y-40391333D01*
X5704666Y-40358000D01*
X5071333Y-39958000D02*
X4904666Y-40424666D01*
X4738000Y-39958000D01*
X34332666Y-33136000D02*
X33999333Y-32902666D01*
X34332666Y-32736000D02*
X33632666Y-32736000D01*
X33632666Y-33002666D01*
X33666000Y-33069333D01*
X33699333Y-33102666D01*
X33766000Y-33136000D01*
X33866000Y-33136000D01*
X33932666Y-33102666D01*
X33966000Y-33069333D01*
X33999333Y-33002666D01*
X33999333Y-32736000D01*
X33866000Y-33736000D02*
X34432666Y-33736000D01*
X34499333Y-33702666D01*
X34532666Y-33669333D01*
X34566000Y-33602666D01*
X34566000Y-33502666D01*
X34532666Y-33436000D01*
X34299333Y-33736000D02*
X34332666Y-33669333D01*
X34332666Y-33536000D01*
X34299333Y-33469333D01*
X34266000Y-33436000D01*
X34199333Y-33402666D01*
X33999333Y-33402666D01*
X33932666Y-33436000D01*
X33899333Y-33469333D01*
X33866000Y-33536000D01*
X33866000Y-33669333D01*
X33899333Y-33736000D01*
X33866000Y-34069333D02*
X34566000Y-34069333D01*
X33899333Y-34069333D02*
X33866000Y-34136000D01*
X33866000Y-34269333D01*
X33899333Y-34336000D01*
X33932666Y-34369333D01*
X33999333Y-34402666D01*
X34199333Y-34402666D01*
X34266000Y-34369333D01*
X34299333Y-34336000D01*
X34332666Y-34269333D01*
X34332666Y-34136000D01*
X34299333Y-34069333D01*
X34332666Y-34702666D02*
X33866000Y-34702666D01*
X33632666Y-34702666D02*
X33666000Y-34669333D01*
X33699333Y-34702666D01*
X33666000Y-34736000D01*
X33632666Y-34702666D01*
X33699333Y-34702666D01*
X34332666Y-35136000D02*
X34299333Y-35069333D01*
X34266000Y-35036000D01*
X34199333Y-35002666D01*
X33999333Y-35002666D01*
X33932666Y-35036000D01*
X33899333Y-35069333D01*
X33866000Y-35136000D01*
X33866000Y-35236000D01*
X33899333Y-35302666D01*
X33932666Y-35336000D01*
X33999333Y-35369333D01*
X34199333Y-35369333D01*
X34266000Y-35336000D01*
X34299333Y-35302666D01*
X34332666Y-35236000D01*
X34332666Y-35136000D01*
X34860666Y-14848000D02*
X34527333Y-14614666D01*
X34860666Y-14448000D02*
X34160666Y-14448000D01*
X34160666Y-14714666D01*
X34194000Y-14781333D01*
X34227333Y-14814666D01*
X34294000Y-14848000D01*
X34394000Y-14848000D01*
X34460666Y-14814666D01*
X34494000Y-14781333D01*
X34527333Y-14714666D01*
X34527333Y-14448000D01*
X34394000Y-15448000D02*
X34960666Y-15448000D01*
X35027333Y-15414666D01*
X35060666Y-15381333D01*
X35094000Y-15314666D01*
X35094000Y-15214666D01*
X35060666Y-15148000D01*
X34827333Y-15448000D02*
X34860666Y-15381333D01*
X34860666Y-15248000D01*
X34827333Y-15181333D01*
X34794000Y-15148000D01*
X34727333Y-15114666D01*
X34527333Y-15114666D01*
X34460666Y-15148000D01*
X34427333Y-15181333D01*
X34394000Y-15248000D01*
X34394000Y-15381333D01*
X34427333Y-15448000D01*
X34394000Y-15781333D02*
X35094000Y-15781333D01*
X34427333Y-15781333D02*
X34394000Y-15848000D01*
X34394000Y-15981333D01*
X34427333Y-16048000D01*
X34460666Y-16081333D01*
X34527333Y-16114666D01*
X34727333Y-16114666D01*
X34794000Y-16081333D01*
X34827333Y-16048000D01*
X34860666Y-15981333D01*
X34860666Y-15848000D01*
X34827333Y-15781333D01*
X34860666Y-16414666D02*
X34394000Y-16414666D01*
X34160666Y-16414666D02*
X34194000Y-16381333D01*
X34227333Y-16414666D01*
X34194000Y-16448000D01*
X34160666Y-16414666D01*
X34227333Y-16414666D01*
X34860666Y-16848000D02*
X34827333Y-16781333D01*
X34794000Y-16748000D01*
X34727333Y-16714666D01*
X34527333Y-16714666D01*
X34460666Y-16748000D01*
X34427333Y-16781333D01*
X34394000Y-16848000D01*
X34394000Y-16948000D01*
X34427333Y-17014666D01*
X34460666Y-17048000D01*
X34527333Y-17081333D01*
X34727333Y-17081333D01*
X34794000Y-17048000D01*
X34827333Y-17014666D01*
X34860666Y-16948000D01*
X34860666Y-16848000D01*
X12696000Y-19270000D02*
X12729333Y-19236666D01*
X12762666Y-19136666D01*
X12762666Y-19070000D01*
X12729333Y-18970000D01*
X12662666Y-18903333D01*
X12596000Y-18870000D01*
X12462666Y-18836666D01*
X12362666Y-18836666D01*
X12229333Y-18870000D01*
X12162666Y-18903333D01*
X12096000Y-18970000D01*
X12062666Y-19070000D01*
X12062666Y-19136666D01*
X12096000Y-19236666D01*
X12129333Y-19270000D01*
X12296000Y-19470000D02*
X12296000Y-19736666D01*
X12762666Y-19570000D02*
X12162666Y-19570000D01*
X12096000Y-19603333D01*
X12062666Y-19670000D01*
X12062666Y-19736666D01*
X12762666Y-19970000D02*
X12296000Y-19970000D01*
X12062666Y-19970000D02*
X12096000Y-19936666D01*
X12129333Y-19970000D01*
X12096000Y-20003333D01*
X12062666Y-19970000D01*
X12129333Y-19970000D01*
X12762666Y-20403333D02*
X12729333Y-20336666D01*
X12662666Y-20303333D01*
X12062666Y-20303333D01*
X12296000Y-20570000D02*
X12296000Y-20836666D01*
X12062666Y-20670000D02*
X12662666Y-20670000D01*
X12729333Y-20703333D01*
X12762666Y-20770000D01*
X12762666Y-20836666D01*
X12729333Y-21336666D02*
X12762666Y-21270000D01*
X12762666Y-21136666D01*
X12729333Y-21070000D01*
X12662666Y-21036666D01*
X12396000Y-21036666D01*
X12329333Y-21070000D01*
X12296000Y-21136666D01*
X12296000Y-21270000D01*
X12329333Y-21336666D01*
X12396000Y-21370000D01*
X12462666Y-21370000D01*
X12529333Y-21036666D01*
X12762666Y-21670000D02*
X12296000Y-21670000D01*
X12429333Y-21670000D02*
X12362666Y-21703333D01*
X12329333Y-21736666D01*
X12296000Y-21803333D01*
X12296000Y-21870000D01*
X12762666Y-26386000D02*
X12429333Y-26152666D01*
X12762666Y-25986000D02*
X12062666Y-25986000D01*
X12062666Y-26252666D01*
X12096000Y-26319333D01*
X12129333Y-26352666D01*
X12196000Y-26386000D01*
X12296000Y-26386000D01*
X12362666Y-26352666D01*
X12396000Y-26319333D01*
X12429333Y-26252666D01*
X12429333Y-25986000D01*
X12296000Y-26586000D02*
X12296000Y-26852666D01*
X12762666Y-26686000D02*
X12162666Y-26686000D01*
X12096000Y-26719333D01*
X12062666Y-26786000D01*
X12062666Y-26852666D01*
X12762666Y-27086000D02*
X12296000Y-27086000D01*
X12062666Y-27086000D02*
X12096000Y-27052666D01*
X12129333Y-27086000D01*
X12096000Y-27119333D01*
X12062666Y-27086000D01*
X12129333Y-27086000D01*
X12762666Y-27519333D02*
X12729333Y-27452666D01*
X12662666Y-27419333D01*
X12062666Y-27419333D01*
X12296000Y-27686000D02*
X12296000Y-27952666D01*
X12062666Y-27786000D02*
X12662666Y-27786000D01*
X12729333Y-27819333D01*
X12762666Y-27886000D01*
X12762666Y-27952666D01*
X12729333Y-28452666D02*
X12762666Y-28386000D01*
X12762666Y-28252666D01*
X12729333Y-28186000D01*
X12662666Y-28152666D01*
X12396000Y-28152666D01*
X12329333Y-28186000D01*
X12296000Y-28252666D01*
X12296000Y-28386000D01*
X12329333Y-28452666D01*
X12396000Y-28486000D01*
X12462666Y-28486000D01*
X12529333Y-28152666D01*
X12762666Y-28786000D02*
X12296000Y-28786000D01*
X12429333Y-28786000D02*
X12362666Y-28819333D01*
X12329333Y-28852666D01*
X12296000Y-28919333D01*
X12296000Y-28986000D01*
X20544000Y-36224666D02*
X20777333Y-35891333D01*
X20944000Y-36224666D02*
X20944000Y-35524666D01*
X20677333Y-35524666D01*
X20610666Y-35558000D01*
X20577333Y-35591333D01*
X20544000Y-35658000D01*
X20544000Y-35758000D01*
X20577333Y-35824666D01*
X20610666Y-35858000D01*
X20677333Y-35891333D01*
X20944000Y-35891333D01*
X20344000Y-35758000D02*
X20077333Y-35758000D01*
X20244000Y-36224666D02*
X20244000Y-35624666D01*
X20210666Y-35558000D01*
X20144000Y-35524666D01*
X20077333Y-35524666D01*
X19844000Y-36224666D02*
X19844000Y-35758000D01*
X19844000Y-35524666D02*
X19877333Y-35558000D01*
X19844000Y-35591333D01*
X19810666Y-35558000D01*
X19844000Y-35524666D01*
X19844000Y-35591333D01*
X19410666Y-36224666D02*
X19477333Y-36191333D01*
X19510666Y-36124666D01*
X19510666Y-35524666D01*
X19244000Y-35758000D02*
X18977333Y-35758000D01*
X19144000Y-35524666D02*
X19144000Y-36124666D01*
X19110666Y-36191333D01*
X19044000Y-36224666D01*
X18977333Y-36224666D01*
X18477333Y-36191333D02*
X18544000Y-36224666D01*
X18677333Y-36224666D01*
X18744000Y-36191333D01*
X18777333Y-36124666D01*
X18777333Y-35858000D01*
X18744000Y-35791333D01*
X18677333Y-35758000D01*
X18544000Y-35758000D01*
X18477333Y-35791333D01*
X18444000Y-35858000D01*
X18444000Y-35924666D01*
X18777333Y-35991333D01*
X18144000Y-36224666D02*
X18144000Y-35758000D01*
X18144000Y-35891333D02*
X18110666Y-35824666D01*
X18077333Y-35791333D01*
X18010666Y-35758000D01*
X17944000Y-35758000D01*
X33590666Y-9014666D02*
X33257333Y-8781333D01*
X33590666Y-8614666D02*
X32890666Y-8614666D01*
X32890666Y-8881333D01*
X32924000Y-8948000D01*
X32957333Y-8981333D01*
X33024000Y-9014666D01*
X33124000Y-9014666D01*
X33190666Y-8981333D01*
X33224000Y-8948000D01*
X33257333Y-8881333D01*
X33257333Y-8614666D01*
X32890666Y-9648000D02*
X32890666Y-9314666D01*
X33224000Y-9281333D01*
X33190666Y-9314666D01*
X33157333Y-9381333D01*
X33157333Y-9548000D01*
X33190666Y-9614666D01*
X33224000Y-9648000D01*
X33290666Y-9681333D01*
X33457333Y-9681333D01*
X33524000Y-9648000D01*
X33557333Y-9614666D01*
X33590666Y-9548000D01*
X33590666Y-9381333D01*
X33557333Y-9314666D01*
X33524000Y-9281333D01*
X33124000Y-9914666D02*
X33590666Y-10081333D01*
X33124000Y-10248000D01*
X15020000Y-6092000D02*
X15053333Y-6125333D01*
X15153333Y-6158666D01*
X15220000Y-6158666D01*
X15320000Y-6125333D01*
X15386666Y-6058666D01*
X15420000Y-5992000D01*
X15453333Y-5858666D01*
X15453333Y-5758666D01*
X15420000Y-5625333D01*
X15386666Y-5558666D01*
X15320000Y-5492000D01*
X15220000Y-5458666D01*
X15153333Y-5458666D01*
X15053333Y-5492000D01*
X15020000Y-5525333D01*
X14820000Y-5692000D02*
X14553333Y-5692000D01*
X14720000Y-6158666D02*
X14720000Y-5558666D01*
X14686666Y-5492000D01*
X14620000Y-5458666D01*
X14553333Y-5458666D01*
X14320000Y-6158666D02*
X14320000Y-5692000D01*
X14320000Y-5458666D02*
X14353333Y-5492000D01*
X14320000Y-5525333D01*
X14286666Y-5492000D01*
X14320000Y-5458666D01*
X14320000Y-5525333D01*
X13886666Y-6158666D02*
X13953333Y-6125333D01*
X13986666Y-6058666D01*
X13986666Y-5458666D01*
X13720000Y-5692000D02*
X13453333Y-5692000D01*
X13620000Y-5458666D02*
X13620000Y-6058666D01*
X13586666Y-6125333D01*
X13520000Y-6158666D01*
X13453333Y-6158666D01*
X12953333Y-6125333D02*
X13020000Y-6158666D01*
X13153333Y-6158666D01*
X13220000Y-6125333D01*
X13253333Y-6058666D01*
X13253333Y-5792000D01*
X13220000Y-5725333D01*
X13153333Y-5692000D01*
X13020000Y-5692000D01*
X12953333Y-5725333D01*
X12920000Y-5792000D01*
X12920000Y-5858666D01*
X13253333Y-5925333D01*
X12620000Y-6158666D02*
X12620000Y-5692000D01*
X12620000Y-5825333D02*
X12586666Y-5758666D01*
X12553333Y-5725333D01*
X12486666Y-5692000D01*
X12420000Y-5692000D01*
X33590666Y-11546000D02*
X33257333Y-11312666D01*
X33590666Y-11146000D02*
X32890666Y-11146000D01*
X32890666Y-11412666D01*
X32924000Y-11479333D01*
X32957333Y-11512666D01*
X33024000Y-11546000D01*
X33124000Y-11546000D01*
X33190666Y-11512666D01*
X33224000Y-11479333D01*
X33257333Y-11412666D01*
X33257333Y-11146000D01*
X33124000Y-12146000D02*
X33690666Y-12146000D01*
X33757333Y-12112666D01*
X33790666Y-12079333D01*
X33824000Y-12012666D01*
X33824000Y-11912666D01*
X33790666Y-11846000D01*
X33557333Y-12146000D02*
X33590666Y-12079333D01*
X33590666Y-11946000D01*
X33557333Y-11879333D01*
X33524000Y-11846000D01*
X33457333Y-11812666D01*
X33257333Y-11812666D01*
X33190666Y-11846000D01*
X33157333Y-11879333D01*
X33124000Y-11946000D01*
X33124000Y-12079333D01*
X33157333Y-12146000D01*
X33124000Y-12479333D02*
X33824000Y-12479333D01*
X33157333Y-12479333D02*
X33124000Y-12546000D01*
X33124000Y-12679333D01*
X33157333Y-12746000D01*
X33190666Y-12779333D01*
X33257333Y-12812666D01*
X33457333Y-12812666D01*
X33524000Y-12779333D01*
X33557333Y-12746000D01*
X33590666Y-12679333D01*
X33590666Y-12546000D01*
X33557333Y-12479333D01*
X33590666Y-13112666D02*
X33124000Y-13112666D01*
X32890666Y-13112666D02*
X32924000Y-13079333D01*
X32957333Y-13112666D01*
X32924000Y-13146000D01*
X32890666Y-13112666D01*
X32957333Y-13112666D01*
X33590666Y-13546000D02*
X33557333Y-13479333D01*
X33524000Y-13446000D01*
X33457333Y-13412666D01*
X33257333Y-13412666D01*
X33190666Y-13446000D01*
X33157333Y-13479333D01*
X33124000Y-13546000D01*
X33124000Y-13646000D01*
X33157333Y-13712666D01*
X33190666Y-13746000D01*
X33257333Y-13779333D01*
X33457333Y-13779333D01*
X33524000Y-13746000D01*
X33557333Y-13712666D01*
X33590666Y-13646000D01*
X33590666Y-13546000D01*
X9536000Y-40194666D02*
X9769333Y-39861333D01*
X9936000Y-40194666D02*
X9936000Y-39494666D01*
X9669333Y-39494666D01*
X9602666Y-39528000D01*
X9569333Y-39561333D01*
X9536000Y-39628000D01*
X9536000Y-39728000D01*
X9569333Y-39794666D01*
X9602666Y-39828000D01*
X9669333Y-39861333D01*
X9936000Y-39861333D01*
X8936000Y-39728000D02*
X8936000Y-40294666D01*
X8969333Y-40361333D01*
X9002666Y-40394666D01*
X9069333Y-40428000D01*
X9169333Y-40428000D01*
X9236000Y-40394666D01*
X8936000Y-40161333D02*
X9002666Y-40194666D01*
X9136000Y-40194666D01*
X9202666Y-40161333D01*
X9236000Y-40128000D01*
X9269333Y-40061333D01*
X9269333Y-39861333D01*
X9236000Y-39794666D01*
X9202666Y-39761333D01*
X9136000Y-39728000D01*
X9002666Y-39728000D01*
X8936000Y-39761333D01*
X8602666Y-39728000D02*
X8602666Y-40428000D01*
X8602666Y-39761333D02*
X8536000Y-39728000D01*
X8402666Y-39728000D01*
X8336000Y-39761333D01*
X8302666Y-39794666D01*
X8269333Y-39861333D01*
X8269333Y-40061333D01*
X8302666Y-40128000D01*
X8336000Y-40161333D01*
X8402666Y-40194666D01*
X8536000Y-40194666D01*
X8602666Y-40161333D01*
X7969333Y-40194666D02*
X7969333Y-39728000D01*
X7969333Y-39494666D02*
X8002666Y-39528000D01*
X7969333Y-39561333D01*
X7936000Y-39528000D01*
X7969333Y-39494666D01*
X7969333Y-39561333D01*
X7536000Y-40194666D02*
X7602666Y-40161333D01*
X7636000Y-40128000D01*
X7669333Y-40061333D01*
X7669333Y-39861333D01*
X7636000Y-39794666D01*
X7602666Y-39761333D01*
X7536000Y-39728000D01*
X7436000Y-39728000D01*
X7369333Y-39761333D01*
X7336000Y-39794666D01*
X7302666Y-39861333D01*
X7302666Y-40061333D01*
X7336000Y-40128000D01*
X7369333Y-40161333D01*
X7436000Y-40194666D01*
X7536000Y-40194666D01*
X28595420Y-21840000D02*
X28628753Y-21873333D01*
X28728753Y-21906666D01*
X28795420Y-21906666D01*
X28895420Y-21873333D01*
X28962086Y-21806666D01*
X28995420Y-21740000D01*
X29028753Y-21606666D01*
X29028753Y-21506666D01*
X28995420Y-21373333D01*
X28962086Y-21306666D01*
X28895420Y-21240000D01*
X28795420Y-21206666D01*
X28728753Y-21206666D01*
X28628753Y-21240000D01*
X28595420Y-21273333D01*
X28395420Y-21440000D02*
X28128753Y-21440000D01*
X28295420Y-21906666D02*
X28295420Y-21306666D01*
X28262086Y-21240000D01*
X28195420Y-21206666D01*
X28128753Y-21206666D01*
X27895420Y-21906666D02*
X27895420Y-21440000D01*
X27895420Y-21206666D02*
X27928753Y-21240000D01*
X27895420Y-21273333D01*
X27862086Y-21240000D01*
X27895420Y-21206666D01*
X27895420Y-21273333D01*
X27462086Y-21906666D02*
X27528753Y-21873333D01*
X27562086Y-21806666D01*
X27562086Y-21206666D01*
X27295420Y-21440000D02*
X27028753Y-21440000D01*
X27195420Y-21206666D02*
X27195420Y-21806666D01*
X27162086Y-21873333D01*
X27095420Y-21906666D01*
X27028753Y-21906666D01*
X26528753Y-21873333D02*
X26595420Y-21906666D01*
X26728753Y-21906666D01*
X26795420Y-21873333D01*
X26828753Y-21806666D01*
X26828753Y-21540000D01*
X26795420Y-21473333D01*
X26728753Y-21440000D01*
X26595420Y-21440000D01*
X26528753Y-21473333D01*
X26495420Y-21540000D01*
X26495420Y-21606666D01*
X26828753Y-21673333D01*
X26195420Y-21906666D02*
X26195420Y-21440000D01*
X26195420Y-21573333D02*
X26162086Y-21506666D01*
X26128753Y-21473333D01*
X26062086Y-21440000D01*
X25995420Y-21440000D01*
X12762666Y-12824666D02*
X12429333Y-12591333D01*
X12762666Y-12424666D02*
X12062666Y-12424666D01*
X12062666Y-12691333D01*
X12096000Y-12758000D01*
X12129333Y-12791333D01*
X12196000Y-12824666D01*
X12296000Y-12824666D01*
X12362666Y-12791333D01*
X12396000Y-12758000D01*
X12429333Y-12691333D01*
X12429333Y-12424666D01*
X12062666Y-13458000D02*
X12062666Y-13124666D01*
X12396000Y-13091333D01*
X12362666Y-13124666D01*
X12329333Y-13191333D01*
X12329333Y-13358000D01*
X12362666Y-13424666D01*
X12396000Y-13458000D01*
X12462666Y-13491333D01*
X12629333Y-13491333D01*
X12696000Y-13458000D01*
X12729333Y-13424666D01*
X12762666Y-13358000D01*
X12762666Y-13191333D01*
X12729333Y-13124666D01*
X12696000Y-13091333D01*
X12296000Y-13724666D02*
X12762666Y-13891333D01*
X12296000Y-14058000D01*
X20354000Y-40542000D02*
X20387333Y-40575333D01*
X20487333Y-40608666D01*
X20554000Y-40608666D01*
X20654000Y-40575333D01*
X20720666Y-40508666D01*
X20754000Y-40442000D01*
X20787333Y-40308666D01*
X20787333Y-40208666D01*
X20754000Y-40075333D01*
X20720666Y-40008666D01*
X20654000Y-39942000D01*
X20554000Y-39908666D01*
X20487333Y-39908666D01*
X20387333Y-39942000D01*
X20354000Y-39975333D01*
X20154000Y-40142000D02*
X19887333Y-40142000D01*
X20054000Y-40608666D02*
X20054000Y-40008666D01*
X20020666Y-39942000D01*
X19954000Y-39908666D01*
X19887333Y-39908666D01*
X19654000Y-40608666D02*
X19654000Y-40142000D01*
X19654000Y-39908666D02*
X19687333Y-39942000D01*
X19654000Y-39975333D01*
X19620666Y-39942000D01*
X19654000Y-39908666D01*
X19654000Y-39975333D01*
X19220666Y-40608666D02*
X19287333Y-40575333D01*
X19320666Y-40508666D01*
X19320666Y-39908666D01*
X19054000Y-40142000D02*
X18787333Y-40142000D01*
X18954000Y-39908666D02*
X18954000Y-40508666D01*
X18920666Y-40575333D01*
X18854000Y-40608666D01*
X18787333Y-40608666D01*
X18287333Y-40575333D02*
X18354000Y-40608666D01*
X18487333Y-40608666D01*
X18554000Y-40575333D01*
X18587333Y-40508666D01*
X18587333Y-40242000D01*
X18554000Y-40175333D01*
X18487333Y-40142000D01*
X18354000Y-40142000D01*
X18287333Y-40175333D01*
X18254000Y-40242000D01*
X18254000Y-40308666D01*
X18587333Y-40375333D01*
X17954000Y-40608666D02*
X17954000Y-40142000D01*
X17954000Y-40275333D02*
X17920666Y-40208666D01*
X17887333Y-40175333D01*
X17820666Y-40142000D01*
X17754000Y-40142000D01*
X11492666Y-25016666D02*
X11159333Y-24783333D01*
X11492666Y-24616666D02*
X10792666Y-24616666D01*
X10792666Y-24883333D01*
X10826000Y-24950000D01*
X10859333Y-24983333D01*
X10926000Y-25016666D01*
X11026000Y-25016666D01*
X11092666Y-24983333D01*
X11126000Y-24950000D01*
X11159333Y-24883333D01*
X11159333Y-24616666D01*
X10792666Y-25650000D02*
X10792666Y-25316666D01*
X11126000Y-25283333D01*
X11092666Y-25316666D01*
X11059333Y-25383333D01*
X11059333Y-25550000D01*
X11092666Y-25616666D01*
X11126000Y-25650000D01*
X11192666Y-25683333D01*
X11359333Y-25683333D01*
X11426000Y-25650000D01*
X11459333Y-25616666D01*
X11492666Y-25550000D01*
X11492666Y-25383333D01*
X11459333Y-25316666D01*
X11426000Y-25283333D01*
X11026000Y-25916666D02*
X11492666Y-26083333D01*
X11026000Y-26250000D01*
X36384666Y-12412000D02*
X36051333Y-12178666D01*
X36384666Y-12012000D02*
X35684666Y-12012000D01*
X35684666Y-12278666D01*
X35718000Y-12345333D01*
X35751333Y-12378666D01*
X35818000Y-12412000D01*
X35918000Y-12412000D01*
X35984666Y-12378666D01*
X36018000Y-12345333D01*
X36051333Y-12278666D01*
X36051333Y-12012000D01*
X35918000Y-12612000D02*
X35918000Y-12878666D01*
X36384666Y-12712000D02*
X35784666Y-12712000D01*
X35718000Y-12745333D01*
X35684666Y-12812000D01*
X35684666Y-12878666D01*
X36384666Y-13112000D02*
X35918000Y-13112000D01*
X35684666Y-13112000D02*
X35718000Y-13078666D01*
X35751333Y-13112000D01*
X35718000Y-13145333D01*
X35684666Y-13112000D01*
X35751333Y-13112000D01*
X36384666Y-13545333D02*
X36351333Y-13478666D01*
X36284666Y-13445333D01*
X35684666Y-13445333D01*
X35918000Y-13712000D02*
X35918000Y-13978666D01*
X35684666Y-13812000D02*
X36284666Y-13812000D01*
X36351333Y-13845333D01*
X36384666Y-13912000D01*
X36384666Y-13978666D01*
X36351333Y-14478666D02*
X36384666Y-14412000D01*
X36384666Y-14278666D01*
X36351333Y-14212000D01*
X36284666Y-14178666D01*
X36018000Y-14178666D01*
X35951333Y-14212000D01*
X35918000Y-14278666D01*
X35918000Y-14412000D01*
X35951333Y-14478666D01*
X36018000Y-14512000D01*
X36084666Y-14512000D01*
X36151333Y-14178666D01*
X36384666Y-14812000D02*
X35918000Y-14812000D01*
X36051333Y-14812000D02*
X35984666Y-14845333D01*
X35951333Y-14878666D01*
X35918000Y-14945333D01*
X35918000Y-15012000D01*
X14286666Y-22214000D02*
X13953333Y-21980666D01*
X14286666Y-21814000D02*
X13586666Y-21814000D01*
X13586666Y-22080666D01*
X13620000Y-22147333D01*
X13653333Y-22180666D01*
X13720000Y-22214000D01*
X13820000Y-22214000D01*
X13886666Y-22180666D01*
X13920000Y-22147333D01*
X13953333Y-22080666D01*
X13953333Y-21814000D01*
X13820000Y-22814000D02*
X14386666Y-22814000D01*
X14453333Y-22780666D01*
X14486666Y-22747333D01*
X14520000Y-22680666D01*
X14520000Y-22580666D01*
X14486666Y-22514000D01*
X14253333Y-22814000D02*
X14286666Y-22747333D01*
X14286666Y-22614000D01*
X14253333Y-22547333D01*
X14220000Y-22514000D01*
X14153333Y-22480666D01*
X13953333Y-22480666D01*
X13886666Y-22514000D01*
X13853333Y-22547333D01*
X13820000Y-22614000D01*
X13820000Y-22747333D01*
X13853333Y-22814000D01*
X13820000Y-23147333D02*
X14520000Y-23147333D01*
X13853333Y-23147333D02*
X13820000Y-23214000D01*
X13820000Y-23347333D01*
X13853333Y-23414000D01*
X13886666Y-23447333D01*
X13953333Y-23480666D01*
X14153333Y-23480666D01*
X14220000Y-23447333D01*
X14253333Y-23414000D01*
X14286666Y-23347333D01*
X14286666Y-23214000D01*
X14253333Y-23147333D01*
X14286666Y-23780666D02*
X13820000Y-23780666D01*
X13586666Y-23780666D02*
X13620000Y-23747333D01*
X13653333Y-23780666D01*
X13620000Y-23814000D01*
X13586666Y-23780666D01*
X13653333Y-23780666D01*
X14286666Y-24214000D02*
X14253333Y-24147333D01*
X14220000Y-24114000D01*
X14153333Y-24080666D01*
X13953333Y-24080666D01*
X13886666Y-24114000D01*
X13853333Y-24147333D01*
X13820000Y-24214000D01*
X13820000Y-24314000D01*
X13853333Y-24380666D01*
X13886666Y-24414000D01*
X13953333Y-24447333D01*
X14153333Y-24447333D01*
X14220000Y-24414000D01*
X14253333Y-24380666D01*
X14286666Y-24314000D01*
X14286666Y-24214000D01*
X34352666Y-36700666D02*
X34019333Y-36467333D01*
X34352666Y-36300666D02*
X33652666Y-36300666D01*
X33652666Y-36567333D01*
X33686000Y-36634000D01*
X33719333Y-36667333D01*
X33786000Y-36700666D01*
X33886000Y-36700666D01*
X33952666Y-36667333D01*
X33986000Y-36634000D01*
X34019333Y-36567333D01*
X34019333Y-36300666D01*
X33652666Y-37334000D02*
X33652666Y-37000666D01*
X33986000Y-36967333D01*
X33952666Y-37000666D01*
X33919333Y-37067333D01*
X33919333Y-37234000D01*
X33952666Y-37300666D01*
X33986000Y-37334000D01*
X34052666Y-37367333D01*
X34219333Y-37367333D01*
X34286000Y-37334000D01*
X34319333Y-37300666D01*
X34352666Y-37234000D01*
X34352666Y-37067333D01*
X34319333Y-37000666D01*
X34286000Y-36967333D01*
X33886000Y-37600666D02*
X34352666Y-37767333D01*
X33886000Y-37934000D01*
X36318000Y-8856000D02*
X36351333Y-8822666D01*
X36384666Y-8722666D01*
X36384666Y-8656000D01*
X36351333Y-8556000D01*
X36284666Y-8489333D01*
X36218000Y-8456000D01*
X36084666Y-8422666D01*
X35984666Y-8422666D01*
X35851333Y-8456000D01*
X35784666Y-8489333D01*
X35718000Y-8556000D01*
X35684666Y-8656000D01*
X35684666Y-8722666D01*
X35718000Y-8822666D01*
X35751333Y-8856000D01*
X35918000Y-9056000D02*
X35918000Y-9322666D01*
X36384666Y-9156000D02*
X35784666Y-9156000D01*
X35718000Y-9189333D01*
X35684666Y-9256000D01*
X35684666Y-9322666D01*
X36384666Y-9556000D02*
X35918000Y-9556000D01*
X35684666Y-9556000D02*
X35718000Y-9522666D01*
X35751333Y-9556000D01*
X35718000Y-9589333D01*
X35684666Y-9556000D01*
X35751333Y-9556000D01*
X36384666Y-9989333D02*
X36351333Y-9922666D01*
X36284666Y-9889333D01*
X35684666Y-9889333D01*
X35918000Y-10156000D02*
X35918000Y-10422666D01*
X35684666Y-10256000D02*
X36284666Y-10256000D01*
X36351333Y-10289333D01*
X36384666Y-10356000D01*
X36384666Y-10422666D01*
X36351333Y-10922666D02*
X36384666Y-10856000D01*
X36384666Y-10722666D01*
X36351333Y-10656000D01*
X36284666Y-10622666D01*
X36018000Y-10622666D01*
X35951333Y-10656000D01*
X35918000Y-10722666D01*
X35918000Y-10856000D01*
X35951333Y-10922666D01*
X36018000Y-10956000D01*
X36084666Y-10956000D01*
X36151333Y-10622666D01*
X36384666Y-11256000D02*
X35918000Y-11256000D01*
X36051333Y-11256000D02*
X35984666Y-11289333D01*
X35951333Y-11322666D01*
X35918000Y-11389333D01*
X35918000Y-11456000D01*
X31371333Y-15302666D02*
X31604666Y-14969333D01*
X31771333Y-15302666D02*
X31771333Y-14602666D01*
X31504666Y-14602666D01*
X31438000Y-14636000D01*
X31404666Y-14669333D01*
X31371333Y-14736000D01*
X31371333Y-14836000D01*
X31404666Y-14902666D01*
X31438000Y-14936000D01*
X31504666Y-14969333D01*
X31771333Y-14969333D01*
X30738000Y-14602666D02*
X31071333Y-14602666D01*
X31104666Y-14936000D01*
X31071333Y-14902666D01*
X31004666Y-14869333D01*
X30838000Y-14869333D01*
X30771333Y-14902666D01*
X30738000Y-14936000D01*
X30704666Y-15002666D01*
X30704666Y-15169333D01*
X30738000Y-15236000D01*
X30771333Y-15269333D01*
X30838000Y-15302666D01*
X31004666Y-15302666D01*
X31071333Y-15269333D01*
X31104666Y-15236000D01*
X30471333Y-14836000D02*
X30304666Y-15302666D01*
X30138000Y-14836000D01*
X12762666Y-15968000D02*
X12429333Y-15734666D01*
X12762666Y-15568000D02*
X12062666Y-15568000D01*
X12062666Y-15834666D01*
X12096000Y-15901333D01*
X12129333Y-15934666D01*
X12196000Y-15968000D01*
X12296000Y-15968000D01*
X12362666Y-15934666D01*
X12396000Y-15901333D01*
X12429333Y-15834666D01*
X12429333Y-15568000D01*
X12296000Y-16168000D02*
X12296000Y-16434666D01*
X12762666Y-16268000D02*
X12162666Y-16268000D01*
X12096000Y-16301333D01*
X12062666Y-16368000D01*
X12062666Y-16434666D01*
X12762666Y-16668000D02*
X12296000Y-16668000D01*
X12062666Y-16668000D02*
X12096000Y-16634666D01*
X12129333Y-16668000D01*
X12096000Y-16701333D01*
X12062666Y-16668000D01*
X12129333Y-16668000D01*
X12762666Y-17101333D02*
X12729333Y-17034666D01*
X12662666Y-17001333D01*
X12062666Y-17001333D01*
X12296000Y-17268000D02*
X12296000Y-17534666D01*
X12062666Y-17368000D02*
X12662666Y-17368000D01*
X12729333Y-17401333D01*
X12762666Y-17468000D01*
X12762666Y-17534666D01*
X12729333Y-18034666D02*
X12762666Y-17968000D01*
X12762666Y-17834666D01*
X12729333Y-17768000D01*
X12662666Y-17734666D01*
X12396000Y-17734666D01*
X12329333Y-17768000D01*
X12296000Y-17834666D01*
X12296000Y-17968000D01*
X12329333Y-18034666D01*
X12396000Y-18068000D01*
X12462666Y-18068000D01*
X12529333Y-17734666D01*
X12762666Y-18368000D02*
X12296000Y-18368000D01*
X12429333Y-18368000D02*
X12362666Y-18401333D01*
X12329333Y-18434666D01*
X12296000Y-18501333D01*
X12296000Y-18568000D01*
X27334666Y-24350000D02*
X27001333Y-24116666D01*
X27334666Y-23950000D02*
X26634666Y-23950000D01*
X26634666Y-24216666D01*
X26668000Y-24283333D01*
X26701333Y-24316666D01*
X26768000Y-24350000D01*
X26868000Y-24350000D01*
X26934666Y-24316666D01*
X26968000Y-24283333D01*
X27001333Y-24216666D01*
X27001333Y-23950000D01*
X26868000Y-24550000D02*
X26868000Y-24816666D01*
X27334666Y-24650000D02*
X26734666Y-24650000D01*
X26668000Y-24683333D01*
X26634666Y-24750000D01*
X26634666Y-24816666D01*
X27334666Y-25050000D02*
X26868000Y-25050000D01*
X26634666Y-25050000D02*
X26668000Y-25016666D01*
X26701333Y-25050000D01*
X26668000Y-25083333D01*
X26634666Y-25050000D01*
X26701333Y-25050000D01*
X27334666Y-25483333D02*
X27301333Y-25416666D01*
X27234666Y-25383333D01*
X26634666Y-25383333D01*
X26868000Y-25650000D02*
X26868000Y-25916666D01*
X26634666Y-25750000D02*
X27234666Y-25750000D01*
X27301333Y-25783333D01*
X27334666Y-25850000D01*
X27334666Y-25916666D01*
X27301333Y-26416666D02*
X27334666Y-26350000D01*
X27334666Y-26216666D01*
X27301333Y-26150000D01*
X27234666Y-26116666D01*
X26968000Y-26116666D01*
X26901333Y-26150000D01*
X26868000Y-26216666D01*
X26868000Y-26350000D01*
X26901333Y-26416666D01*
X26968000Y-26450000D01*
X27034666Y-26450000D01*
X27101333Y-26116666D01*
X27334666Y-26750000D02*
X26868000Y-26750000D01*
X27001333Y-26750000D02*
X26934666Y-26783333D01*
X26901333Y-26816666D01*
X26868000Y-26883333D01*
X26868000Y-26950000D01*
X12838000Y-10222666D02*
X13071333Y-9889333D01*
X13238000Y-10222666D02*
X13238000Y-9522666D01*
X12971333Y-9522666D01*
X12904666Y-9556000D01*
X12871333Y-9589333D01*
X12838000Y-9656000D01*
X12838000Y-9756000D01*
X12871333Y-9822666D01*
X12904666Y-9856000D01*
X12971333Y-9889333D01*
X13238000Y-9889333D01*
X12238000Y-9756000D02*
X12238000Y-10322666D01*
X12271333Y-10389333D01*
X12304666Y-10422666D01*
X12371333Y-10456000D01*
X12471333Y-10456000D01*
X12538000Y-10422666D01*
X12238000Y-10189333D02*
X12304666Y-10222666D01*
X12438000Y-10222666D01*
X12504666Y-10189333D01*
X12538000Y-10156000D01*
X12571333Y-10089333D01*
X12571333Y-9889333D01*
X12538000Y-9822666D01*
X12504666Y-9789333D01*
X12438000Y-9756000D01*
X12304666Y-9756000D01*
X12238000Y-9789333D01*
X11904666Y-9756000D02*
X11904666Y-10456000D01*
X11904666Y-9789333D02*
X11838000Y-9756000D01*
X11704666Y-9756000D01*
X11638000Y-9789333D01*
X11604666Y-9822666D01*
X11571333Y-9889333D01*
X11571333Y-10089333D01*
X11604666Y-10156000D01*
X11638000Y-10189333D01*
X11704666Y-10222666D01*
X11838000Y-10222666D01*
X11904666Y-10189333D01*
X11271333Y-10222666D02*
X11271333Y-9756000D01*
X11271333Y-9522666D02*
X11304666Y-9556000D01*
X11271333Y-9589333D01*
X11238000Y-9556000D01*
X11271333Y-9522666D01*
X11271333Y-9589333D01*
X10838000Y-10222666D02*
X10904666Y-10189333D01*
X10938000Y-10156000D01*
X10971333Y-10089333D01*
X10971333Y-9889333D01*
X10938000Y-9822666D01*
X10904666Y-9789333D01*
X10838000Y-9756000D01*
X10738000Y-9756000D01*
X10671333Y-9789333D01*
X10638000Y-9822666D01*
X10604666Y-9889333D01*
X10604666Y-10089333D01*
X10638000Y-10156000D01*
X10671333Y-10189333D01*
X10738000Y-10222666D01*
X10838000Y-10222666D01*
X11746666Y-2252000D02*
X11413333Y-2018666D01*
X11746666Y-1852000D02*
X11046666Y-1852000D01*
X11046666Y-2118666D01*
X11080000Y-2185333D01*
X11113333Y-2218666D01*
X11180000Y-2252000D01*
X11280000Y-2252000D01*
X11346666Y-2218666D01*
X11380000Y-2185333D01*
X11413333Y-2118666D01*
X11413333Y-1852000D01*
X11280000Y-2452000D02*
X11280000Y-2718666D01*
X11746666Y-2552000D02*
X11146666Y-2552000D01*
X11080000Y-2585333D01*
X11046666Y-2652000D01*
X11046666Y-2718666D01*
X11746666Y-2952000D02*
X11280000Y-2952000D01*
X11046666Y-2952000D02*
X11080000Y-2918666D01*
X11113333Y-2952000D01*
X11080000Y-2985333D01*
X11046666Y-2952000D01*
X11113333Y-2952000D01*
X11746666Y-3385333D02*
X11713333Y-3318666D01*
X11646666Y-3285333D01*
X11046666Y-3285333D01*
X11280000Y-3552000D02*
X11280000Y-3818666D01*
X11046666Y-3652000D02*
X11646666Y-3652000D01*
X11713333Y-3685333D01*
X11746666Y-3752000D01*
X11746666Y-3818666D01*
X11713333Y-4318666D02*
X11746666Y-4252000D01*
X11746666Y-4118666D01*
X11713333Y-4052000D01*
X11646666Y-4018666D01*
X11380000Y-4018666D01*
X11313333Y-4052000D01*
X11280000Y-4118666D01*
X11280000Y-4252000D01*
X11313333Y-4318666D01*
X11380000Y-4352000D01*
X11446666Y-4352000D01*
X11513333Y-4018666D01*
X11746666Y-4652000D02*
X11280000Y-4652000D01*
X11413333Y-4652000D02*
X11346666Y-4685333D01*
X11313333Y-4718666D01*
X11280000Y-4785333D01*
X11280000Y-4852000D01*
X12696000Y-29824580D02*
X12729333Y-29791246D01*
X12762666Y-29691246D01*
X12762666Y-29624580D01*
X12729333Y-29524580D01*
X12662666Y-29457913D01*
X12596000Y-29424580D01*
X12462666Y-29391246D01*
X12362666Y-29391246D01*
X12229333Y-29424580D01*
X12162666Y-29457913D01*
X12096000Y-29524580D01*
X12062666Y-29624580D01*
X12062666Y-29691246D01*
X12096000Y-29791246D01*
X12129333Y-29824580D01*
X12296000Y-30024580D02*
X12296000Y-30291246D01*
X12762666Y-30124580D02*
X12162666Y-30124580D01*
X12096000Y-30157913D01*
X12062666Y-30224580D01*
X12062666Y-30291246D01*
X12762666Y-30524580D02*
X12296000Y-30524580D01*
X12062666Y-30524580D02*
X12096000Y-30491246D01*
X12129333Y-30524580D01*
X12096000Y-30557913D01*
X12062666Y-30524580D01*
X12129333Y-30524580D01*
X12762666Y-30957913D02*
X12729333Y-30891246D01*
X12662666Y-30857913D01*
X12062666Y-30857913D01*
X12296000Y-31124580D02*
X12296000Y-31391246D01*
X12062666Y-31224580D02*
X12662666Y-31224580D01*
X12729333Y-31257913D01*
X12762666Y-31324580D01*
X12762666Y-31391246D01*
X12729333Y-31891246D02*
X12762666Y-31824580D01*
X12762666Y-31691246D01*
X12729333Y-31624580D01*
X12662666Y-31591246D01*
X12396000Y-31591246D01*
X12329333Y-31624580D01*
X12296000Y-31691246D01*
X12296000Y-31824580D01*
X12329333Y-31891246D01*
X12396000Y-31924580D01*
X12462666Y-31924580D01*
X12529333Y-31591246D01*
X12762666Y-32224580D02*
X12296000Y-32224580D01*
X12429333Y-32224580D02*
X12362666Y-32257913D01*
X12329333Y-32291246D01*
X12296000Y-32357913D01*
X12296000Y-32424580D01*
G36*
X37753104Y-39999519D02*
G01*
X37732170Y-40033522D01*
X37701454Y-40061309D01*
X37661723Y-40081415D01*
X37661225Y-40081592D01*
X37630950Y-40088670D01*
X37594665Y-40091914D01*
X37558211Y-40091122D01*
X37527428Y-40086088D01*
X37525948Y-40085657D01*
X37504574Y-40076380D01*
X37485230Y-40063687D01*
X37466282Y-40047743D01*
X37466282Y-40086364D01*
X37366257Y-40086364D01*
X37366290Y-39910914D01*
X37466282Y-39910914D01*
X37466292Y-39913370D01*
X37469254Y-39945220D01*
X37477993Y-39967765D01*
X37493273Y-39983041D01*
X37494103Y-39983552D01*
X37509408Y-39989004D01*
X37532263Y-39993400D01*
X37558125Y-39996227D01*
X37582449Y-39996973D01*
X37600690Y-39995129D01*
X37609981Y-39992948D01*
X37627418Y-39989062D01*
X37646570Y-39980436D01*
X37661057Y-39962406D01*
X37666132Y-39937890D01*
X37666006Y-39932813D01*
X37663113Y-39913719D01*
X37655296Y-39899699D01*
X37641058Y-39890037D01*
X37618900Y-39884020D01*
X37587326Y-39880933D01*
X37544837Y-39880063D01*
X37466282Y-39880063D01*
X37466282Y-39910914D01*
X37366290Y-39910914D01*
X37366292Y-39900380D01*
X37366382Y-39865627D01*
X37366913Y-39811609D01*
X37367890Y-39765939D01*
X37369281Y-39729654D01*
X37371052Y-39703792D01*
X37373168Y-39689391D01*
X37374314Y-39685610D01*
X37389105Y-39657853D01*
X37413012Y-39632037D01*
X37443090Y-39610802D01*
X37476397Y-39596788D01*
X37496901Y-39592206D01*
X37536569Y-39587574D01*
X37579106Y-39586642D01*
X37619581Y-39589434D01*
X37653066Y-39595971D01*
X37657677Y-39597500D01*
X37677408Y-39606593D01*
X37698069Y-39619137D01*
X37716605Y-39632921D01*
X37729966Y-39645735D01*
X37735098Y-39655369D01*
X37734993Y-39655840D01*
X37729122Y-39662775D01*
X37716043Y-39674545D01*
X37698241Y-39688889D01*
X37692737Y-39693106D01*
X37675575Y-39705615D01*
X37664906Y-39711431D01*
X37658197Y-39711568D01*
X37652917Y-39707041D01*
X37642209Y-39697698D01*
X37617983Y-39686890D01*
X37587858Y-39680970D01*
X37555278Y-39679950D01*
X37523683Y-39683843D01*
X37496517Y-39692661D01*
X37477222Y-39706416D01*
X37473920Y-39710986D01*
X37468094Y-39728354D01*
X37466282Y-39755151D01*
X37466282Y-39791395D01*
X37558492Y-39793639D01*
X37568728Y-39793901D01*
X37604375Y-39795178D01*
X37630670Y-39796992D01*
X37650151Y-39799665D01*
X37665359Y-39803518D01*
X37678834Y-39808873D01*
X37713530Y-39830461D01*
X37740796Y-39860661D01*
X37757840Y-39897731D01*
X37762558Y-39918733D01*
X37762982Y-39937890D01*
X37763489Y-39960767D01*
X37753104Y-39999519D01*
G37*
G36*
X37051677Y-39587800D02*
G01*
X37093860Y-39598756D01*
X37131837Y-39620210D01*
X37153705Y-39636889D01*
X37153705Y-39592492D01*
X37253729Y-39592492D01*
X37253729Y-40086364D01*
X37153705Y-40086364D01*
X37153695Y-39922261D01*
X37153662Y-39889446D01*
X37153441Y-39845757D01*
X37152930Y-39812000D01*
X37152036Y-39786591D01*
X37150665Y-39767944D01*
X37148723Y-39754474D01*
X37146118Y-39744595D01*
X37142755Y-39736722D01*
X37132847Y-39721290D01*
X37109113Y-39700292D01*
X37080121Y-39688753D01*
X37048599Y-39687525D01*
X37017272Y-39697462D01*
X36992794Y-39710221D01*
X36956699Y-39666346D01*
X36955920Y-39665397D01*
X36938951Y-39643992D01*
X36929510Y-39629879D01*
X36926623Y-39621283D01*
X36929315Y-39616426D01*
X36965343Y-39597579D01*
X37007950Y-39587391D01*
X37051677Y-39587800D01*
G37*
G36*
X39060188Y-39587965D02*
G01*
X39100323Y-39599909D01*
X39135490Y-39622115D01*
X39160448Y-39643479D01*
X39160448Y-39592492D01*
X39260473Y-39592492D01*
X39260473Y-40086364D01*
X39160448Y-40086364D01*
X39160448Y-39925148D01*
X39160443Y-39903833D01*
X39160343Y-39859135D01*
X39160020Y-39824579D01*
X39159349Y-39798483D01*
X39158203Y-39779165D01*
X39156459Y-39764943D01*
X39153991Y-39754136D01*
X39150674Y-39745062D01*
X39146382Y-39736039D01*
X39132404Y-39715807D01*
X39107789Y-39696808D01*
X39078661Y-39687030D01*
X39047927Y-39687323D01*
X39018490Y-39698539D01*
X38998436Y-39710766D01*
X38963789Y-39669025D01*
X38957301Y-39661116D01*
X38942896Y-39642800D01*
X38932890Y-39628956D01*
X38929141Y-39622103D01*
X38932363Y-39618371D01*
X38944279Y-39610697D01*
X38961962Y-39601643D01*
X38975396Y-39596084D01*
X39017680Y-39586588D01*
X39060188Y-39587965D01*
G37*
G36*
X36379054Y-39047519D02*
G01*
X36378451Y-39085025D01*
X36375988Y-39119379D01*
X36371700Y-39145969D01*
X36359097Y-39184741D01*
X36334702Y-39228724D01*
X36301952Y-39263624D01*
X36261212Y-39289074D01*
X36212848Y-39304708D01*
X36209870Y-39305295D01*
X36155895Y-39309426D01*
X36102548Y-39301787D01*
X36052082Y-39282941D01*
X36006750Y-39253447D01*
X36000269Y-39247882D01*
X35989090Y-39236868D01*
X35984667Y-39230207D01*
X35984698Y-39229966D01*
X35989789Y-39223179D01*
X36001907Y-39211098D01*
X36018612Y-39196170D01*
X36052557Y-39167169D01*
X36075184Y-39182524D01*
X36078735Y-39184850D01*
X36099897Y-39196624D01*
X36120045Y-39205217D01*
X36129905Y-39207786D01*
X36157319Y-39210513D01*
X36186851Y-39208956D01*
X36213746Y-39203555D01*
X36233250Y-39194748D01*
X36248816Y-39178790D01*
X36263510Y-39155823D01*
X36274297Y-39131144D01*
X36278489Y-39109799D01*
X36278489Y-39092369D01*
X35970814Y-39092369D01*
X35973378Y-39022039D01*
X35974152Y-39011099D01*
X36070797Y-39011099D01*
X36278489Y-39011099D01*
X36278489Y-38993328D01*
X36275450Y-38974786D01*
X36264235Y-38949124D01*
X36247563Y-38925933D01*
X36228419Y-38910170D01*
X36227520Y-38909698D01*
X36203303Y-38901620D01*
X36174798Y-38898571D01*
X36167949Y-38898768D01*
X36134333Y-38906359D01*
X36106972Y-38924311D01*
X36086886Y-38951713D01*
X36075091Y-38987656D01*
X36070797Y-39011099D01*
X35974152Y-39011099D01*
X35976583Y-38976718D01*
X35983361Y-38939731D01*
X35994730Y-38909451D01*
X36011751Y-38883071D01*
X36035484Y-38857789D01*
X36073084Y-38829394D01*
X36117904Y-38809477D01*
X36165608Y-38801200D01*
X36214733Y-38804995D01*
X36257329Y-38818291D01*
X36297831Y-38842633D01*
X36330761Y-38876780D01*
X36355894Y-38920495D01*
X36373006Y-38973537D01*
X36374540Y-38981494D01*
X36377722Y-39011099D01*
X36377762Y-39011472D01*
X36379054Y-39047519D01*
G37*
G36*
X36617871Y-38804238D02*
G01*
X36655992Y-38813047D01*
X36702834Y-38833097D01*
X36741027Y-38862091D01*
X36770702Y-38900168D01*
X36791990Y-38947468D01*
X36805022Y-39004132D01*
X36808813Y-39058952D01*
X36804257Y-39113558D01*
X36791680Y-39164106D01*
X36771645Y-39208354D01*
X36744717Y-39244062D01*
X36738313Y-39250200D01*
X36705202Y-39274577D01*
X36666916Y-39293771D01*
X36629003Y-39304867D01*
X36605022Y-39308394D01*
X36577330Y-39309908D01*
X36552099Y-39307074D01*
X36523799Y-39299619D01*
X36511987Y-39295538D01*
X36476908Y-39279273D01*
X36444545Y-39258747D01*
X36419743Y-39236882D01*
X36412316Y-39227808D01*
X36411768Y-39220513D01*
X36419743Y-39210459D01*
X36423378Y-39206658D01*
X36437995Y-39193044D01*
X36454962Y-39178782D01*
X36478272Y-39160296D01*
X36500727Y-39177423D01*
X36505668Y-39181027D01*
X36539678Y-39198417D01*
X36575569Y-39205831D01*
X36611033Y-39203672D01*
X36643765Y-39192349D01*
X36671459Y-39172264D01*
X36691808Y-39143825D01*
X36692576Y-39142244D01*
X36699531Y-39125391D01*
X36703699Y-39107822D01*
X36705716Y-39085618D01*
X36706216Y-39054860D01*
X36706177Y-39045915D01*
X36705349Y-39018334D01*
X36702925Y-38998228D01*
X36698215Y-38981631D01*
X36690532Y-38964574D01*
X36673896Y-38939155D01*
X36649032Y-38918800D01*
X36617211Y-38907986D01*
X36577239Y-38906096D01*
X36565983Y-38906829D01*
X36543422Y-38910086D01*
X36525471Y-38916754D01*
X36506473Y-38928636D01*
X36477664Y-38948942D01*
X36454658Y-38930697D01*
X36448917Y-38926039D01*
X36432153Y-38911426D01*
X36419684Y-38899195D01*
X36417840Y-38897144D01*
X36411560Y-38888479D01*
X36412929Y-38881261D01*
X36422449Y-38870254D01*
X36425187Y-38867425D01*
X36455986Y-38842751D01*
X36494070Y-38821886D01*
X36534764Y-38807443D01*
X36544832Y-38804973D01*
X36568491Y-38800847D01*
X36590570Y-38800690D01*
X36617871Y-38804238D01*
G37*
G36*
X39771203Y-39071975D02*
G01*
X39765932Y-39123625D01*
X39753793Y-39172000D01*
X39734756Y-39214730D01*
X39708791Y-39249443D01*
X39685627Y-39268949D01*
X39646548Y-39290874D01*
X39603484Y-39304715D01*
X39575693Y-39307811D01*
X39537059Y-39306766D01*
X39497420Y-39301114D01*
X39462299Y-39291376D01*
X39448327Y-39285062D01*
X39423128Y-39270007D01*
X39401143Y-39252966D01*
X39372651Y-39226777D01*
X39408512Y-39197185D01*
X39416670Y-39190494D01*
X39432416Y-39178362D01*
X39442562Y-39172842D01*
X39449879Y-39172788D01*
X39457136Y-39177052D01*
X39460204Y-39179275D01*
X39497821Y-39199592D01*
X39537693Y-39209834D01*
X39577191Y-39209639D01*
X39613686Y-39198645D01*
X39638884Y-39180031D01*
X39658138Y-39151670D01*
X39669468Y-39115812D01*
X39673641Y-39092369D01*
X39360498Y-39092369D01*
X39360545Y-39053297D01*
X39361040Y-39028930D01*
X39362854Y-39011099D01*
X39466774Y-39011099D01*
X39672762Y-39011099D01*
X39669094Y-38990781D01*
X39662204Y-38965361D01*
X39645984Y-38934597D01*
X39623701Y-38912720D01*
X39607629Y-38904794D01*
X39577501Y-38898741D01*
X39545586Y-38900494D01*
X39516844Y-38910170D01*
X39501805Y-38921653D01*
X39484333Y-38943635D01*
X39471661Y-38969179D01*
X39466774Y-38993328D01*
X39466774Y-39011099D01*
X39362854Y-39011099D01*
X39366486Y-38975407D01*
X39378400Y-38930594D01*
X39397352Y-38892759D01*
X39423910Y-38860165D01*
X39451283Y-38837489D01*
X39492213Y-38816044D01*
X39536552Y-38804312D01*
X39582093Y-38802332D01*
X39626628Y-38810143D01*
X39667948Y-38827782D01*
X39703848Y-38855288D01*
X39724202Y-38880073D01*
X39746106Y-38921101D01*
X39761260Y-38968342D01*
X39768271Y-39011099D01*
X39769636Y-39019424D01*
X39771203Y-39071975D01*
G37*
G36*
X39095162Y-38807800D02*
G01*
X39128466Y-38820183D01*
X39154345Y-38839339D01*
X39163651Y-38848500D01*
X39173149Y-38853696D01*
X39177904Y-38847629D01*
X39179203Y-38829804D01*
X39179203Y-38804798D01*
X39279228Y-38804798D01*
X39279228Y-39304921D01*
X39180110Y-39304921D01*
X39178094Y-39137693D01*
X39177639Y-39101193D01*
X39177001Y-39058886D01*
X39176245Y-39026355D01*
X39175232Y-39002000D01*
X39173821Y-38984222D01*
X39171873Y-38971420D01*
X39169248Y-38961994D01*
X39165807Y-38954343D01*
X39161408Y-38946869D01*
X39158596Y-38942537D01*
X39138343Y-38920786D01*
X39112559Y-38908614D01*
X39078891Y-38904823D01*
X39046499Y-38908765D01*
X39020129Y-38921841D01*
X39000319Y-38944742D01*
X38996962Y-38951182D01*
X38994067Y-38959755D01*
X38991791Y-38971551D01*
X38990011Y-38988116D01*
X38988606Y-39010997D01*
X38987451Y-39041741D01*
X38986425Y-39081895D01*
X38985405Y-39133004D01*
X38982280Y-39301796D01*
X38930213Y-39303619D01*
X38878147Y-39305443D01*
X38880201Y-39119199D01*
X38880230Y-39116587D01*
X38880854Y-39063735D01*
X38881503Y-39021759D01*
X38882296Y-38989104D01*
X38883349Y-38964211D01*
X38884782Y-38945524D01*
X38886711Y-38931486D01*
X38889255Y-38920541D01*
X38892530Y-38911130D01*
X38896656Y-38901697D01*
X38915194Y-38869025D01*
X38941145Y-38841184D01*
X38976028Y-38818819D01*
X38983898Y-38815112D01*
X39019558Y-38804882D01*
X39057753Y-38802572D01*
X39095162Y-38807800D01*
G37*
G36*
X36959005Y-38810593D02*
G01*
X36991825Y-38825131D01*
X37017031Y-38846542D01*
X37017815Y-38847481D01*
X37023088Y-38851819D01*
X37026196Y-38847413D01*
X37028674Y-38832400D01*
X37031800Y-38807924D01*
X37083375Y-38806108D01*
X37134950Y-38804293D01*
X37134950Y-39305427D01*
X37083375Y-39303611D01*
X37031800Y-39301796D01*
X37028674Y-39129878D01*
X37028187Y-39103424D01*
X37027170Y-39055364D01*
X37025942Y-39017612D01*
X37024209Y-38988674D01*
X37021680Y-38967055D01*
X37018060Y-38951263D01*
X37013057Y-38939801D01*
X37006378Y-38931178D01*
X36997730Y-38923898D01*
X36986820Y-38916468D01*
X36970225Y-38909232D01*
X36943115Y-38905181D01*
X36914425Y-38907096D01*
X36889488Y-38915054D01*
X36869703Y-38925286D01*
X36845691Y-38897863D01*
X36835917Y-38886505D01*
X36820626Y-38868055D01*
X36809480Y-38853784D01*
X36797280Y-38837129D01*
X36817842Y-38824421D01*
X36845317Y-38811594D01*
X36882705Y-38803486D01*
X36921616Y-38803265D01*
X36959005Y-38810593D01*
G37*
G36*
X38126346Y-39128582D02*
G01*
X38120019Y-39166055D01*
X38110937Y-39194669D01*
X38087952Y-39232762D01*
X38054511Y-39266331D01*
X38013831Y-39290832D01*
X37967744Y-39304858D01*
X37957955Y-39306265D01*
X37918030Y-39307441D01*
X37877786Y-39302546D01*
X37843142Y-39292182D01*
X37817385Y-39277797D01*
X37785608Y-39251539D01*
X37758630Y-39220013D01*
X37740189Y-39187035D01*
X37736326Y-39176799D01*
X37731857Y-39161735D01*
X37728882Y-39145039D01*
X37727102Y-39123993D01*
X37726216Y-39095881D01*
X37725924Y-39057986D01*
X37725927Y-39054860D01*
X37825745Y-39054860D01*
X37825952Y-39077778D01*
X37827744Y-39112510D01*
X37831992Y-39138462D01*
X37839436Y-39158017D01*
X37850813Y-39173558D01*
X37866864Y-39187466D01*
X37885824Y-39198316D01*
X37918867Y-39205735D01*
X37955407Y-39201881D01*
X37955645Y-39201820D01*
X37981325Y-39192895D01*
X38000516Y-39179919D01*
X38014038Y-39161248D01*
X38022710Y-39135237D01*
X38027352Y-39100243D01*
X38028783Y-39054622D01*
X38028607Y-39025170D01*
X38027570Y-39000809D01*
X38025222Y-38983081D01*
X38021129Y-38968870D01*
X38014854Y-38955059D01*
X38010791Y-38947788D01*
X37989656Y-38923670D01*
X37961357Y-38909473D01*
X37925229Y-38904823D01*
X37924513Y-38904825D01*
X37889830Y-38910568D01*
X37861112Y-38927289D01*
X37838586Y-38954856D01*
X37837985Y-38955891D01*
X37832655Y-38966874D01*
X37829112Y-38979566D01*
X37827011Y-38996662D01*
X37826004Y-39020861D01*
X37825745Y-39054860D01*
X37725927Y-39054860D01*
X37725939Y-39044509D01*
X37727012Y-38999476D01*
X37730176Y-38963867D01*
X37736068Y-38935289D01*
X37745324Y-38911350D01*
X37758579Y-38889655D01*
X37776471Y-38867813D01*
X37808808Y-38838796D01*
X37849034Y-38816438D01*
X37892285Y-38803922D01*
X37936743Y-38800968D01*
X37980586Y-38807294D01*
X38021998Y-38822621D01*
X38059157Y-38846667D01*
X38090246Y-38879152D01*
X38113445Y-38919796D01*
X38115595Y-38925404D01*
X38123498Y-38957000D01*
X38128494Y-38996460D01*
X38130614Y-39040440D01*
X38130386Y-39054622D01*
X38129888Y-39085596D01*
X38126346Y-39128582D01*
G37*
G36*
X38124161Y-39593764D02*
G01*
X38162541Y-39595618D01*
X38216073Y-39762724D01*
X38218243Y-39769491D01*
X38232064Y-39812207D01*
X38244670Y-39850542D01*
X38255551Y-39882989D01*
X38264195Y-39908040D01*
X38270092Y-39924185D01*
X38272730Y-39929917D01*
X38274299Y-39926573D01*
X38278835Y-39912741D01*
X38285742Y-39889694D01*
X38294544Y-39859062D01*
X38304767Y-39822475D01*
X38315935Y-39781565D01*
X38323697Y-39752819D01*
X38334638Y-39712316D01*
X38344418Y-39676124D01*
X38352514Y-39646182D01*
X38358400Y-39624430D01*
X38361552Y-39612810D01*
X38367091Y-39592492D01*
X38419935Y-39592492D01*
X38429474Y-39592550D01*
X38451613Y-39593203D01*
X38467008Y-39594426D01*
X38472779Y-39596029D01*
X38472748Y-39596205D01*
X38470472Y-39603929D01*
X38464944Y-39621824D01*
X38456652Y-39648349D01*
X38446086Y-39681962D01*
X38433735Y-39721123D01*
X38420087Y-39764290D01*
X38405631Y-39809923D01*
X38390857Y-39856480D01*
X38376253Y-39902421D01*
X38362308Y-39946204D01*
X38349512Y-39986289D01*
X38338352Y-40021135D01*
X38329319Y-40049200D01*
X38322901Y-40068944D01*
X38319587Y-40078825D01*
X38319417Y-40079237D01*
X38312905Y-40083492D01*
X38297421Y-40085366D01*
X38271274Y-40085076D01*
X38225877Y-40083238D01*
X38176357Y-39916291D01*
X38174537Y-39910166D01*
X38161663Y-39867454D01*
X38149845Y-39829276D01*
X38139569Y-39797128D01*
X38131321Y-39772504D01*
X38125588Y-39756899D01*
X38122855Y-39751806D01*
X38122726Y-39751938D01*
X38119634Y-39759492D01*
X38113564Y-39777325D01*
X38105008Y-39803880D01*
X38094463Y-39837601D01*
X38082420Y-39876932D01*
X38069375Y-39920315D01*
X38019876Y-40086364D01*
X37929728Y-40086364D01*
X37889176Y-39959770D01*
X37877145Y-39922180D01*
X37860415Y-39869832D01*
X37843160Y-39815767D01*
X37826827Y-39764526D01*
X37812867Y-39720649D01*
X37812752Y-39720288D01*
X37801362Y-39684513D01*
X37791164Y-39652618D01*
X37782806Y-39626612D01*
X37776932Y-39608505D01*
X37774190Y-39600306D01*
X37774443Y-39597595D01*
X37781278Y-39594595D01*
X37797403Y-39592977D01*
X37824407Y-39592492D01*
X37826737Y-39592495D01*
X37855858Y-39593390D01*
X37873500Y-39595953D01*
X37880537Y-39600306D01*
X37882478Y-39606707D01*
X37887336Y-39623867D01*
X37894566Y-39649913D01*
X37903700Y-39683149D01*
X37914270Y-39721880D01*
X37925808Y-39764409D01*
X37936133Y-39802260D01*
X37946930Y-39841124D01*
X37956419Y-39874524D01*
X37964121Y-39900806D01*
X37969559Y-39918314D01*
X37972256Y-39925395D01*
X37972566Y-39925400D01*
X37976187Y-39918638D01*
X37982952Y-39901696D01*
X37992342Y-39876018D01*
X38003842Y-39843047D01*
X38016934Y-39804228D01*
X38031103Y-39761002D01*
X38085781Y-39591911D01*
X38124161Y-39593764D01*
G37*
G36*
X39763277Y-39987740D02*
G01*
X39754922Y-40007757D01*
X39731580Y-40039802D01*
X39698911Y-40065586D01*
X39658545Y-40083616D01*
X39633158Y-40089020D01*
X39598418Y-40091812D01*
X39563401Y-40090875D01*
X39534172Y-40086088D01*
X39532691Y-40085657D01*
X39511317Y-40076380D01*
X39491974Y-40063687D01*
X39473025Y-40047743D01*
X39473025Y-40086364D01*
X39365651Y-40086364D01*
X39367978Y-39914272D01*
X39473025Y-39914272D01*
X39473604Y-39928452D01*
X39478725Y-39956494D01*
X39488335Y-39977439D01*
X39501451Y-39988712D01*
X39504155Y-39989600D01*
X39522169Y-39992827D01*
X39547171Y-39994946D01*
X39574707Y-39995796D01*
X39600328Y-39995214D01*
X39619582Y-39993036D01*
X39627641Y-39990911D01*
X39650465Y-39978711D01*
X39665844Y-39960733D01*
X39672743Y-39939599D01*
X39670127Y-39917929D01*
X39656961Y-39898344D01*
X39650341Y-39892676D01*
X39642387Y-39888213D01*
X39631449Y-39885238D01*
X39615148Y-39883340D01*
X39591103Y-39882111D01*
X39556937Y-39881141D01*
X39473025Y-39879094D01*
X39473025Y-39914272D01*
X39367978Y-39914272D01*
X39368208Y-39897255D01*
X39368247Y-39894355D01*
X39369275Y-39833620D01*
X39370548Y-39784473D01*
X39372113Y-39746040D01*
X39374012Y-39717444D01*
X39376292Y-39697811D01*
X39378998Y-39686265D01*
X39392443Y-39658681D01*
X39417282Y-39629763D01*
X39451901Y-39607477D01*
X39461053Y-39603171D01*
X39478787Y-39596373D01*
X39497670Y-39591986D01*
X39521486Y-39589268D01*
X39554020Y-39587479D01*
X39580432Y-39586870D01*
X39624015Y-39589008D01*
X39659425Y-39596034D01*
X39689091Y-39608543D01*
X39715440Y-39627132D01*
X39726170Y-39636729D01*
X39737461Y-39648123D01*
X39741841Y-39654491D01*
X39741693Y-39655031D01*
X39735611Y-39661955D01*
X39722396Y-39673767D01*
X39704504Y-39688248D01*
X39667166Y-39717244D01*
X39651277Y-39702518D01*
X39642270Y-39695351D01*
X39623153Y-39686342D01*
X39597587Y-39681474D01*
X39562690Y-39680014D01*
X39547294Y-39680657D01*
X39517148Y-39686125D01*
X39493732Y-39696349D01*
X39479780Y-39710331D01*
X39477340Y-39717205D01*
X39474238Y-39735354D01*
X39473025Y-39757065D01*
X39473025Y-39791179D01*
X39565235Y-39793805D01*
X39608004Y-39795565D01*
X39642830Y-39798623D01*
X39669680Y-39803508D01*
X39690863Y-39810814D01*
X39708688Y-39821137D01*
X39725462Y-39835071D01*
X39736949Y-39847966D01*
X39754503Y-39879197D01*
X39765417Y-39915625D01*
X39767499Y-39939599D01*
X39768678Y-39953167D01*
X39763277Y-39987740D01*
G37*
G36*
X36917331Y-39804044D02*
G01*
X36918412Y-39859588D01*
X36912479Y-39912463D01*
X36900012Y-39959828D01*
X36881494Y-39998842D01*
X36866636Y-40020242D01*
X36840727Y-40047475D01*
X36809432Y-40067912D01*
X36769235Y-40084229D01*
X36747192Y-40089181D01*
X36711098Y-40091604D01*
X36671906Y-40089480D01*
X36634380Y-40083135D01*
X36603284Y-40072895D01*
X36597193Y-40069955D01*
X36576075Y-40057974D01*
X36555587Y-40044124D01*
X36538302Y-40030394D01*
X36526791Y-40018774D01*
X36523626Y-40011256D01*
X36523699Y-40011097D01*
X36529529Y-40004625D01*
X36542223Y-39992762D01*
X36559172Y-39977952D01*
X36592920Y-39949278D01*
X36611163Y-39964629D01*
X36632700Y-39978108D01*
X36662946Y-39989553D01*
X36694689Y-39995929D01*
X36722433Y-39995702D01*
X36755551Y-39984814D01*
X36783754Y-39964784D01*
X36804044Y-39937845D01*
X36814277Y-39906091D01*
X36817768Y-39880063D01*
X36508223Y-39880063D01*
X36510949Y-39808836D01*
X36511147Y-39803763D01*
X36511719Y-39792541D01*
X36610133Y-39792541D01*
X36817768Y-39792541D01*
X36814277Y-39766513D01*
X36805081Y-39735679D01*
X36785720Y-39709012D01*
X36758121Y-39690467D01*
X36723917Y-39681577D01*
X36705192Y-39681240D01*
X36672592Y-39689018D01*
X36645900Y-39707292D01*
X36626057Y-39735287D01*
X36614005Y-39772224D01*
X36610133Y-39792541D01*
X36511719Y-39792541D01*
X36512720Y-39772901D01*
X36515051Y-39750369D01*
X36518895Y-39732495D01*
X36525006Y-39715609D01*
X36534140Y-39696040D01*
X36556066Y-39660225D01*
X36589135Y-39626336D01*
X36629076Y-39602766D01*
X36675448Y-39589762D01*
X36727808Y-39587572D01*
X36734076Y-39588027D01*
X36782579Y-39597742D01*
X36824299Y-39617773D01*
X36858883Y-39647736D01*
X36885977Y-39687243D01*
X36905229Y-39735909D01*
X36916129Y-39792541D01*
X36916285Y-39793349D01*
X36917331Y-39804044D01*
G37*
G36*
X38383369Y-35091388D02*
G01*
X38439570Y-35091442D01*
X38485038Y-35091603D01*
X38520952Y-35091928D01*
X38548490Y-35092476D01*
X38568834Y-35093302D01*
X38583163Y-35094464D01*
X38592655Y-35096019D01*
X38598491Y-35098024D01*
X38601851Y-35100535D01*
X38603913Y-35103610D01*
X38604182Y-35104217D01*
X38607094Y-35114783D01*
X38611909Y-35136002D01*
X38618341Y-35166450D01*
X38626099Y-35204706D01*
X38634894Y-35249349D01*
X38644438Y-35298957D01*
X38654441Y-35352108D01*
X38656182Y-35361436D01*
X38666164Y-35413856D01*
X38675712Y-35462320D01*
X38684530Y-35505436D01*
X38692320Y-35541812D01*
X38698787Y-35570058D01*
X38703633Y-35588782D01*
X38706563Y-35596591D01*
X38708658Y-35598118D01*
X38721227Y-35604716D01*
X38742847Y-35614748D01*
X38771660Y-35627451D01*
X38805810Y-35642066D01*
X38843439Y-35657832D01*
X38882689Y-35673987D01*
X38921702Y-35689772D01*
X38958621Y-35704425D01*
X38991588Y-35717186D01*
X39018746Y-35727293D01*
X39038236Y-35733986D01*
X39048203Y-35736505D01*
X39051560Y-35735922D01*
X39064228Y-35730311D01*
X39084948Y-35718554D01*
X39114122Y-35700396D01*
X39152152Y-35675582D01*
X39199442Y-35643858D01*
X39256394Y-35604970D01*
X39273748Y-35593042D01*
X39323170Y-35559091D01*
X39363576Y-35531409D01*
X39395953Y-35509381D01*
X39421288Y-35492393D01*
X39440566Y-35479831D01*
X39454776Y-35471079D01*
X39464904Y-35465523D01*
X39471935Y-35462549D01*
X39476857Y-35461541D01*
X39480656Y-35461885D01*
X39484318Y-35462967D01*
X39489804Y-35466512D01*
X39503480Y-35478125D01*
X39523484Y-35496557D01*
X39548641Y-35520611D01*
X39577776Y-35549093D01*
X39609713Y-35580804D01*
X39643278Y-35614550D01*
X39677294Y-35649134D01*
X39710588Y-35683359D01*
X39741984Y-35716030D01*
X39770307Y-35745950D01*
X39794381Y-35771924D01*
X39813032Y-35792754D01*
X39825084Y-35807244D01*
X39829363Y-35814199D01*
X39829303Y-35814667D01*
X39824995Y-35823787D01*
X39814427Y-35841805D01*
X39798378Y-35867510D01*
X39777628Y-35899693D01*
X39752955Y-35937143D01*
X39725137Y-35978652D01*
X39694955Y-36023009D01*
X39692078Y-36027208D01*
X39652190Y-36085896D01*
X39619392Y-36135116D01*
X39593756Y-36174756D01*
X39575355Y-36204699D01*
X39564261Y-36224831D01*
X39560547Y-36235039D01*
X39561603Y-36241070D01*
X39567022Y-36258357D01*
X39576352Y-36283753D01*
X39588817Y-36315465D01*
X39603640Y-36351699D01*
X39620045Y-36390663D01*
X39637256Y-36430564D01*
X39654496Y-36469609D01*
X39670988Y-36506004D01*
X39685956Y-36537958D01*
X39698623Y-36563676D01*
X39708213Y-36581366D01*
X39713949Y-36589235D01*
X39721881Y-36592017D01*
X39740930Y-36596846D01*
X39769433Y-36603271D01*
X39805910Y-36610982D01*
X39848880Y-36619665D01*
X39896864Y-36629008D01*
X39948382Y-36638699D01*
X39996241Y-36647626D01*
X40044653Y-36656820D01*
X40088213Y-36665264D01*
X40125432Y-36672660D01*
X40154819Y-36678713D01*
X40174884Y-36683125D01*
X40184138Y-36685600D01*
X40198204Y-36691510D01*
X40198204Y-36941037D01*
X40198203Y-36949380D01*
X40198163Y-37010530D01*
X40198021Y-37060474D01*
X40197728Y-37100368D01*
X40197234Y-37131366D01*
X40196489Y-37154623D01*
X40195444Y-37171295D01*
X40194048Y-37182537D01*
X40192253Y-37189504D01*
X40190008Y-37193351D01*
X40187264Y-37195233D01*
X40178961Y-37197385D01*
X40159765Y-37201547D01*
X40131157Y-37207416D01*
X40094589Y-37214702D01*
X40051512Y-37223116D01*
X40003377Y-37232369D01*
X39951634Y-37242173D01*
X39922245Y-37247726D01*
X39864864Y-37258767D01*
X39818477Y-37268034D01*
X39782161Y-37275736D01*
X39754993Y-37282085D01*
X39736050Y-37287289D01*
X39724409Y-37291560D01*
X39719147Y-37295108D01*
X39718256Y-37296600D01*
X39712683Y-37308358D01*
X39703362Y-37329708D01*
X39690938Y-37359110D01*
X39676058Y-37395027D01*
X39659365Y-37435920D01*
X39641505Y-37480250D01*
X39625714Y-37520008D01*
X39606031Y-37570836D01*
X39591214Y-37610990D01*
X39581111Y-37640911D01*
X39575565Y-37661039D01*
X39574424Y-37671813D01*
X39577652Y-37679173D01*
X39587347Y-37696078D01*
X39602649Y-37720802D01*
X39622726Y-37752050D01*
X39646744Y-37788529D01*
X39673871Y-37828944D01*
X39703274Y-37872001D01*
X39729617Y-37910495D01*
X39756734Y-37950662D01*
X39780729Y-37986781D01*
X39800796Y-38017609D01*
X39816129Y-38041907D01*
X39825920Y-38058434D01*
X39829363Y-38065948D01*
X39829066Y-38066879D01*
X39822614Y-38075668D01*
X39808451Y-38091950D01*
X39787532Y-38114715D01*
X39760814Y-38142948D01*
X39729250Y-38175639D01*
X39693795Y-38211775D01*
X39655405Y-38250343D01*
X39627224Y-38278412D01*
X39586831Y-38318395D01*
X39553910Y-38350566D01*
X39527679Y-38375638D01*
X39507353Y-38394324D01*
X39492148Y-38407336D01*
X39481280Y-38415387D01*
X39473966Y-38419190D01*
X39469422Y-38419458D01*
X39463536Y-38416169D01*
X39448082Y-38406400D01*
X39424667Y-38391073D01*
X39394557Y-38371033D01*
X39359020Y-38347125D01*
X39319323Y-38320193D01*
X39276733Y-38291082D01*
X39240698Y-38266526D01*
X39200497Y-38239542D01*
X39164239Y-38215644D01*
X39133187Y-38195642D01*
X39108604Y-38180350D01*
X39091754Y-38170579D01*
X39083900Y-38167141D01*
X39080969Y-38167687D01*
X39067341Y-38172812D01*
X39046033Y-38182468D01*
X39019324Y-38195594D01*
X38989496Y-38211128D01*
X38976227Y-38218123D01*
X38947606Y-38232502D01*
X38923150Y-38243838D01*
X38905112Y-38251117D01*
X38895744Y-38253325D01*
X38893848Y-38252138D01*
X38889288Y-38245986D01*
X38882617Y-38234039D01*
X38873550Y-38215651D01*
X38861803Y-38190179D01*
X38847093Y-38156977D01*
X38829134Y-38115400D01*
X38807643Y-38064804D01*
X38782336Y-38004543D01*
X38752929Y-37933973D01*
X38719138Y-37852449D01*
X38701557Y-37809880D01*
X38674740Y-37744673D01*
X38649624Y-37683273D01*
X38626597Y-37626647D01*
X38606047Y-37575760D01*
X38588363Y-37531580D01*
X38573933Y-37495075D01*
X38563145Y-37467210D01*
X38556388Y-37448954D01*
X38554049Y-37441273D01*
X38554602Y-37438090D01*
X38563234Y-37425750D01*
X38580618Y-37412067D01*
X38584212Y-37409721D01*
X38603778Y-37396425D01*
X38627886Y-37379478D01*
X38652140Y-37361960D01*
X38689171Y-37332131D01*
X38744147Y-37275696D01*
X38789472Y-37212520D01*
X38824672Y-37143825D01*
X38849274Y-37070831D01*
X38862806Y-36994763D01*
X38864795Y-36916841D01*
X38854767Y-36838288D01*
X38850093Y-36817870D01*
X38825475Y-36744745D01*
X38790150Y-36676523D01*
X38745131Y-36614286D01*
X38691433Y-36559119D01*
X38630070Y-36512104D01*
X38562057Y-36474327D01*
X38488408Y-36446870D01*
X38468525Y-36441961D01*
X38419764Y-36434619D01*
X38365556Y-36431439D01*
X38310210Y-36432421D01*
X38258035Y-36437565D01*
X38213340Y-36446870D01*
X38167361Y-36462173D01*
X38104513Y-36491533D01*
X38046811Y-36529993D01*
X37991411Y-36579248D01*
X37983356Y-36587386D01*
X37946607Y-36627485D01*
X37917888Y-36665186D01*
X37894897Y-36703811D01*
X37875331Y-36746684D01*
X37853609Y-36812314D01*
X37839542Y-36889516D01*
X37837158Y-36966636D01*
X37846126Y-37042501D01*
X37866114Y-37115939D01*
X37896787Y-37185777D01*
X37937816Y-37250842D01*
X37988867Y-37309961D01*
X38049608Y-37361960D01*
X38055316Y-37366131D01*
X38079940Y-37383793D01*
X38103344Y-37400132D01*
X38121130Y-37412067D01*
X38127343Y-37416321D01*
X38142241Y-37429847D01*
X38147699Y-37441273D01*
X38146763Y-37444824D01*
X38141597Y-37459276D01*
X38132257Y-37483694D01*
X38119131Y-37517111D01*
X38102607Y-37558561D01*
X38083073Y-37607076D01*
X38060919Y-37661689D01*
X38036531Y-37721434D01*
X38010299Y-37785343D01*
X37982610Y-37852449D01*
X37961065Y-37904472D01*
X37930033Y-37979107D01*
X37903210Y-38043190D01*
X37880309Y-38097365D01*
X37861049Y-38142276D01*
X37845143Y-38178569D01*
X37832309Y-38206888D01*
X37822262Y-38227879D01*
X37814719Y-38242185D01*
X37809394Y-38250452D01*
X37806004Y-38253325D01*
X37803113Y-38253047D01*
X37789671Y-38248494D01*
X37768546Y-38239313D01*
X37741989Y-38226520D01*
X37712253Y-38211128D01*
X37699186Y-38204219D01*
X37670421Y-38189591D01*
X37645755Y-38177827D01*
X37627471Y-38169990D01*
X37617848Y-38167141D01*
X37611851Y-38169601D01*
X37596327Y-38178434D01*
X37572872Y-38192915D01*
X37542750Y-38212232D01*
X37507224Y-38235574D01*
X37467558Y-38262128D01*
X37425015Y-38291082D01*
X37389292Y-38315514D01*
X37349030Y-38342865D01*
X37312719Y-38367330D01*
X37281625Y-38388066D01*
X37257017Y-38404229D01*
X37240162Y-38414975D01*
X37232327Y-38419458D01*
X37229885Y-38419681D01*
X37223771Y-38417376D01*
X37214417Y-38411106D01*
X37201038Y-38400161D01*
X37182851Y-38383827D01*
X37159072Y-38361390D01*
X37128917Y-38332140D01*
X37091602Y-38295362D01*
X37046344Y-38250343D01*
X37036160Y-38240165D01*
X36998439Y-38202130D01*
X36963902Y-38166790D01*
X36933502Y-38135158D01*
X36908196Y-38108246D01*
X36888938Y-38087065D01*
X36876683Y-38072628D01*
X36872385Y-38065948D01*
X36875172Y-38059635D01*
X36884352Y-38043972D01*
X36899156Y-38020411D01*
X36918777Y-37990192D01*
X36942408Y-37954557D01*
X36969243Y-37914746D01*
X36998474Y-37872001D01*
X37024296Y-37834226D01*
X37051755Y-37793409D01*
X37076209Y-37756366D01*
X37096825Y-37724391D01*
X37112772Y-37698777D01*
X37123216Y-37680820D01*
X37127325Y-37671813D01*
X37127053Y-37665701D01*
X37123012Y-37648780D01*
X37114465Y-37622215D01*
X37101257Y-37585565D01*
X37083234Y-37538390D01*
X37060243Y-37480250D01*
X37054400Y-37465684D01*
X37036846Y-37422294D01*
X37020667Y-37382836D01*
X37006507Y-37348850D01*
X36995013Y-37321875D01*
X36986829Y-37303448D01*
X36982601Y-37295108D01*
X36980983Y-37293601D01*
X36972989Y-37289757D01*
X36958204Y-37285095D01*
X36935706Y-37279406D01*
X36904571Y-37272480D01*
X36863876Y-37264106D01*
X36812698Y-37254073D01*
X36750114Y-37242173D01*
X36699036Y-37232496D01*
X36650844Y-37223233D01*
X36607690Y-37214806D01*
X36571027Y-37207504D01*
X36542304Y-37201615D01*
X36522973Y-37197428D01*
X36514485Y-37195233D01*
X36514119Y-37195069D01*
X36511439Y-37193007D01*
X36509252Y-37188839D01*
X36507508Y-37181409D01*
X36506158Y-37169563D01*
X36505152Y-37152144D01*
X36504441Y-37127997D01*
X36503974Y-37095969D01*
X36503702Y-37054903D01*
X36503576Y-37003644D01*
X36503545Y-36941037D01*
X36503545Y-36691510D01*
X36517611Y-36685600D01*
X36525791Y-36683378D01*
X36545108Y-36679099D01*
X36573856Y-36673158D01*
X36610547Y-36665851D01*
X36653689Y-36657474D01*
X36701792Y-36648325D01*
X36753367Y-36638699D01*
X36801324Y-36629689D01*
X36849608Y-36620311D01*
X36892983Y-36611570D01*
X36929969Y-36603780D01*
X36959088Y-36597253D01*
X36978858Y-36592301D01*
X36987800Y-36589235D01*
X36991040Y-36585343D01*
X36999364Y-36570900D01*
X37011038Y-36547799D01*
X37025286Y-36517833D01*
X37041331Y-36482794D01*
X37058396Y-36444476D01*
X37075706Y-36404672D01*
X37092483Y-36365174D01*
X37107951Y-36327776D01*
X37121333Y-36294271D01*
X37131853Y-36266451D01*
X37138735Y-36246109D01*
X37141202Y-36235039D01*
X37141185Y-36234674D01*
X37136982Y-36223809D01*
X37125405Y-36203026D01*
X37106524Y-36172440D01*
X37080414Y-36132165D01*
X37047146Y-36082317D01*
X37006793Y-36023009D01*
X37002773Y-36017138D01*
X36972853Y-35973082D01*
X36945400Y-35932031D01*
X36921191Y-35895195D01*
X36901007Y-35863784D01*
X36885625Y-35839008D01*
X36875825Y-35822076D01*
X36872385Y-35814199D01*
X36874960Y-35809539D01*
X36885341Y-35796664D01*
X36902589Y-35777176D01*
X36925528Y-35752271D01*
X36952985Y-35723147D01*
X36983782Y-35690999D01*
X37016746Y-35657023D01*
X37050702Y-35622415D01*
X37084473Y-35588373D01*
X37116885Y-35556092D01*
X37146763Y-35526767D01*
X37172932Y-35501596D01*
X37194216Y-35481775D01*
X37209440Y-35468500D01*
X37217430Y-35462967D01*
X37218880Y-35462499D01*
X37222361Y-35461597D01*
X37226291Y-35461616D01*
X37231658Y-35463169D01*
X37239448Y-35466870D01*
X37250647Y-35473336D01*
X37266241Y-35483181D01*
X37287218Y-35497019D01*
X37314563Y-35515465D01*
X37349262Y-35539134D01*
X37392303Y-35568641D01*
X37444671Y-35604601D01*
X37474897Y-35625294D01*
X37526936Y-35660517D01*
X37569523Y-35688719D01*
X37603069Y-35710158D01*
X37627982Y-35725093D01*
X37644673Y-35733783D01*
X37653551Y-35736485D01*
X37656454Y-35735981D01*
X37670626Y-35731611D01*
X37693537Y-35723387D01*
X37723331Y-35712071D01*
X37758154Y-35698422D01*
X37796152Y-35683200D01*
X37835470Y-35667166D01*
X37874254Y-35651079D01*
X37910648Y-35635700D01*
X37942798Y-35621788D01*
X37968851Y-35610103D01*
X37986950Y-35601406D01*
X37995241Y-35596457D01*
X37995593Y-35595946D01*
X37998835Y-35586161D01*
X38003950Y-35565705D01*
X38010645Y-35535968D01*
X38018621Y-35498339D01*
X38027584Y-35454209D01*
X38037237Y-35404967D01*
X38047285Y-35352004D01*
X38048932Y-35343196D01*
X38058905Y-35290520D01*
X38068367Y-35241621D01*
X38077029Y-35197921D01*
X38084602Y-35160839D01*
X38090796Y-35131795D01*
X38095322Y-35112210D01*
X38097892Y-35103505D01*
X38098765Y-35102010D01*
X38101314Y-35099228D01*
X38105754Y-35096980D01*
X38113266Y-35095207D01*
X38125028Y-35093854D01*
X38142219Y-35092864D01*
X38166018Y-35092181D01*
X38197604Y-35091748D01*
X38238156Y-35091508D01*
X38288853Y-35091406D01*
X38350874Y-35091385D01*
X38383369Y-35091388D01*
G37*
G36*
X38425034Y-38801672D02*
G01*
X38452052Y-38806969D01*
X38497806Y-38822908D01*
X38533404Y-38846083D01*
X38558811Y-38876461D01*
X38573994Y-38914007D01*
X38578918Y-38958686D01*
X38578589Y-38966215D01*
X38574491Y-38991819D01*
X38567240Y-39014225D01*
X38561293Y-39025849D01*
X38543563Y-39049793D01*
X38519917Y-39068253D01*
X38488764Y-39082022D01*
X38448509Y-39091892D01*
X38397561Y-39098656D01*
X38379634Y-39100527D01*
X38345289Y-39105525D01*
X38321082Y-39111940D01*
X38305351Y-39120542D01*
X38296435Y-39132105D01*
X38292673Y-39147399D01*
X38292821Y-39163094D01*
X38301321Y-39184300D01*
X38320313Y-39199297D01*
X38349985Y-39208206D01*
X38390522Y-39211148D01*
X38392223Y-39211144D01*
X38436636Y-39207304D01*
X38475468Y-39195264D01*
X38513541Y-39173552D01*
X38541662Y-39154204D01*
X38575908Y-39184239D01*
X38577980Y-39186063D01*
X38594281Y-39200995D01*
X38605828Y-39212578D01*
X38610234Y-39218437D01*
X38609980Y-39219685D01*
X38602841Y-39228242D01*
X38587832Y-39240355D01*
X38567578Y-39254200D01*
X38544705Y-39267956D01*
X38521836Y-39279800D01*
X38500866Y-39288572D01*
X38472345Y-39298252D01*
X38447773Y-39304356D01*
X38435179Y-39306276D01*
X38384867Y-39308589D01*
X38336437Y-39302800D01*
X38291848Y-39289634D01*
X38253057Y-39269812D01*
X38222021Y-39244060D01*
X38200698Y-39213098D01*
X38192237Y-39185604D01*
X38189599Y-39149819D01*
X38193934Y-39113406D01*
X38205076Y-39081383D01*
X38206275Y-39079092D01*
X38221337Y-39056241D01*
X38240404Y-39038351D01*
X38265162Y-39024699D01*
X38297295Y-39014565D01*
X38338489Y-39007225D01*
X38390428Y-39001958D01*
X38390530Y-39001950D01*
X38416059Y-38998876D01*
X38439007Y-38994231D01*
X38454415Y-38989017D01*
X38467646Y-38979077D01*
X38477031Y-38961409D01*
X38476530Y-38941678D01*
X38466407Y-38922755D01*
X38446926Y-38907511D01*
X38427901Y-38901058D01*
X38396701Y-38898109D01*
X38361712Y-38900912D01*
X38326846Y-38909083D01*
X38296016Y-38922241D01*
X38261313Y-38941826D01*
X38232638Y-38908261D01*
X38231762Y-38907233D01*
X38217730Y-38890032D01*
X38207776Y-38876483D01*
X38204006Y-38869442D01*
X38204502Y-38867712D01*
X38212643Y-38859151D01*
X38228678Y-38847807D01*
X38249883Y-38835462D01*
X38273536Y-38823902D01*
X38296332Y-38815958D01*
X38329363Y-38808275D01*
X38365007Y-38802866D01*
X38398489Y-38800432D01*
X38425034Y-38801672D01*
G37*
G36*
X38919114Y-39929442D02*
G01*
X38918103Y-39951143D01*
X38916385Y-39967095D01*
X38913777Y-39979291D01*
X38910093Y-39989724D01*
X38905149Y-40000388D01*
X38901195Y-40007791D01*
X38877698Y-40039005D01*
X38847343Y-40065135D01*
X38814205Y-40082505D01*
X38808798Y-40084243D01*
X38783846Y-40089683D01*
X38759022Y-40092122D01*
X38747513Y-40091651D01*
X38719922Y-40086859D01*
X38691695Y-40078148D01*
X38667205Y-40067019D01*
X38650829Y-40054975D01*
X38646352Y-40050290D01*
X38636225Y-40043470D01*
X38630726Y-40048086D01*
X38629068Y-40064483D01*
X38629068Y-40086364D01*
X38529043Y-40086364D01*
X38529043Y-39839428D01*
X38632195Y-39839428D01*
X38632196Y-39841233D01*
X38633024Y-39883573D01*
X38635879Y-39915550D01*
X38641463Y-39939164D01*
X38650481Y-39956413D01*
X38663637Y-39969296D01*
X38681635Y-39979811D01*
X38701996Y-39987832D01*
X38732773Y-39991449D01*
X38765549Y-39984097D01*
X38771719Y-39981566D01*
X38792569Y-39966740D01*
X38807700Y-39943685D01*
X38817397Y-39911552D01*
X38821944Y-39869486D01*
X38821628Y-39816638D01*
X38819138Y-39781000D01*
X38814555Y-39750902D01*
X38807972Y-39731312D01*
X38797224Y-39715578D01*
X38774335Y-39697411D01*
X38746788Y-39687724D01*
X38717338Y-39686486D01*
X38688741Y-39693665D01*
X38663751Y-39709231D01*
X38645125Y-39733152D01*
X38644206Y-39734958D01*
X38638997Y-39747206D01*
X38635524Y-39761052D01*
X38633453Y-39779222D01*
X38632454Y-39804439D01*
X38632195Y-39839428D01*
X38529043Y-39839428D01*
X38529043Y-39385665D01*
X38577492Y-39387491D01*
X38625942Y-39389317D01*
X38627637Y-39512785D01*
X38627732Y-39519201D01*
X38628580Y-39556317D01*
X38629807Y-39588464D01*
X38631305Y-39613758D01*
X38632967Y-39630315D01*
X38634686Y-39636253D01*
X38639460Y-39634273D01*
X38648620Y-39625881D01*
X38651474Y-39622796D01*
X38670595Y-39609342D01*
X38696867Y-39597674D01*
X38725917Y-39589443D01*
X38753373Y-39586302D01*
X38762717Y-39586433D01*
X38801895Y-39591481D01*
X38835270Y-39604925D01*
X38866812Y-39628230D01*
X38882726Y-39643443D01*
X38895296Y-39658465D01*
X38904678Y-39674877D01*
X38911329Y-39694528D01*
X38915705Y-39719270D01*
X38918265Y-39750955D01*
X38919466Y-39791432D01*
X38919764Y-39842554D01*
X38919756Y-39860820D01*
X38919722Y-39869486D01*
X38919604Y-39899999D01*
X38919114Y-39929442D01*
G37*
G36*
X37586908Y-38806113D02*
G01*
X37638199Y-38807924D01*
X37638167Y-38992344D01*
X37638165Y-38998771D01*
X37638114Y-39050487D01*
X37637920Y-39091436D01*
X37637477Y-39123183D01*
X37636682Y-39147292D01*
X37635431Y-39165328D01*
X37633617Y-39178855D01*
X37631138Y-39189436D01*
X37627889Y-39198638D01*
X37623765Y-39208022D01*
X37614605Y-39225573D01*
X37586353Y-39261845D01*
X37550198Y-39288638D01*
X37506917Y-39305307D01*
X37497313Y-39307289D01*
X37455678Y-39308291D01*
X37413252Y-39297917D01*
X37372301Y-39276650D01*
X37341251Y-39255754D01*
X37341251Y-39304921D01*
X37241226Y-39304921D01*
X37241226Y-38804798D01*
X37341251Y-38804798D01*
X37341251Y-38966014D01*
X37341256Y-38987468D01*
X37341356Y-39032131D01*
X37341679Y-39066655D01*
X37342351Y-39092721D01*
X37343496Y-39112008D01*
X37345241Y-39126197D01*
X37347709Y-39136969D01*
X37351026Y-39146003D01*
X37355317Y-39154980D01*
X37359968Y-39163387D01*
X37380686Y-39187627D01*
X37407805Y-39201554D01*
X37442485Y-39205845D01*
X37447369Y-39205738D01*
X37475247Y-39201097D01*
X37497879Y-39188186D01*
X37519033Y-39164994D01*
X37521169Y-39161993D01*
X37524555Y-39155882D01*
X37527186Y-39147918D01*
X37529181Y-39136580D01*
X37530658Y-39120346D01*
X37531737Y-39097694D01*
X37532537Y-39067104D01*
X37533174Y-39027054D01*
X37533770Y-38976023D01*
X37535616Y-38804302D01*
X37586908Y-38806113D01*
G37*
G36*
X40136434Y-40086364D02*
G01*
X40134498Y-39919135D01*
X40134145Y-39889512D01*
X40133519Y-39845597D01*
X40132783Y-39811697D01*
X40131805Y-39786222D01*
X40130451Y-39767577D01*
X40128587Y-39754172D01*
X40126080Y-39744412D01*
X40122797Y-39736706D01*
X40118603Y-39729461D01*
X40117992Y-39728494D01*
X40097149Y-39706799D01*
X40069512Y-39692771D01*
X40038521Y-39687062D01*
X40007620Y-39690325D01*
X39980249Y-39703214D01*
X39969982Y-39711294D01*
X39961244Y-39720344D01*
X39954528Y-39731322D01*
X39949571Y-39745738D01*
X39946107Y-39765103D01*
X39943873Y-39790927D01*
X39942603Y-39824721D01*
X39942034Y-39867995D01*
X39941900Y-39922261D01*
X39941891Y-40086364D01*
X39841354Y-40086364D01*
X39843173Y-39894129D01*
X39843271Y-39883827D01*
X39843871Y-39828085D01*
X39844686Y-39783100D01*
X39845998Y-39747373D01*
X39848088Y-39719404D01*
X39851240Y-39697694D01*
X39855735Y-39680744D01*
X39861855Y-39667054D01*
X39869884Y-39655126D01*
X39880103Y-39643460D01*
X39892794Y-39630557D01*
X39907956Y-39617508D01*
X39943671Y-39597927D01*
X39983792Y-39587566D01*
X40025391Y-39586657D01*
X40065538Y-39595430D01*
X40101305Y-39614116D01*
X40103334Y-39615586D01*
X40117775Y-39625746D01*
X40127874Y-39632376D01*
X40128701Y-39632602D01*
X40130820Y-39629698D01*
X40132492Y-39620631D01*
X40133761Y-39604346D01*
X40134671Y-39579785D01*
X40135266Y-39545893D01*
X40135590Y-39501612D01*
X40135688Y-39445886D01*
X40135688Y-39254781D01*
X40102868Y-39276443D01*
X40087662Y-39285433D01*
X40062440Y-39297327D01*
X40040229Y-39304693D01*
X40009194Y-39308451D01*
X39967136Y-39303887D01*
X39928242Y-39288972D01*
X39894504Y-39264870D01*
X39867914Y-39232746D01*
X39850464Y-39193763D01*
X39849652Y-39190742D01*
X39845495Y-39166146D01*
X39842559Y-39132661D01*
X39840844Y-39093333D01*
X39840429Y-39057986D01*
X39945016Y-39057986D01*
X39945498Y-39096380D01*
X39947482Y-39128556D01*
X39951532Y-39152193D01*
X39958210Y-39169347D01*
X39968076Y-39182073D01*
X39981691Y-39192429D01*
X39998756Y-39200480D01*
X40028223Y-39206127D01*
X40058651Y-39204293D01*
X40086119Y-39195372D01*
X40106704Y-39179764D01*
X40112699Y-39171379D01*
X40124967Y-39143046D01*
X40132757Y-39107414D01*
X40136088Y-39067623D01*
X40134979Y-39026815D01*
X40129449Y-38988130D01*
X40119516Y-38954709D01*
X40105200Y-38929694D01*
X40096345Y-38919959D01*
X40085478Y-38912372D01*
X40070875Y-38908336D01*
X40048153Y-38906032D01*
X40025858Y-38905596D01*
X39995395Y-38911064D01*
X39972702Y-38924914D01*
X39956286Y-38947828D01*
X39951575Y-38959489D01*
X39948331Y-38973916D01*
X39946323Y-38993514D01*
X39945301Y-39020724D01*
X39945016Y-39057986D01*
X39840429Y-39057986D01*
X39840349Y-39051209D01*
X39841072Y-39009334D01*
X39843014Y-38970754D01*
X39846173Y-38938517D01*
X39850548Y-38915668D01*
X39857244Y-38896939D01*
X39878648Y-38861125D01*
X39907730Y-38833222D01*
X39942672Y-38813821D01*
X39981654Y-38803514D01*
X40022855Y-38802892D01*
X40064457Y-38812547D01*
X40104638Y-38833070D01*
X40135688Y-38853965D01*
X40135688Y-38804798D01*
X40235713Y-38804798D01*
X40235713Y-40086364D01*
X40136434Y-40086364D01*
G37*
G36*
X40727389Y-39112644D02*
G01*
X40720887Y-39156692D01*
X40709432Y-39193065D01*
X40692383Y-39223840D01*
X40669101Y-39251091D01*
X40653543Y-39265032D01*
X40612530Y-39290863D01*
X40567542Y-39305036D01*
X40532314Y-39307788D01*
X40491745Y-39305121D01*
X40454517Y-39297277D01*
X40428930Y-39286783D01*
X40391903Y-39261732D01*
X40360822Y-39228289D01*
X40338305Y-39188896D01*
X40333959Y-39175802D01*
X40327969Y-39144798D01*
X40324166Y-39106595D01*
X40322555Y-39064443D01*
X40322688Y-39054622D01*
X40423396Y-39054622D01*
X40424009Y-39083827D01*
X40427610Y-39123015D01*
X40434818Y-39152494D01*
X40446071Y-39173791D01*
X40461807Y-39188431D01*
X40461842Y-39188454D01*
X40491699Y-39201496D01*
X40524910Y-39205697D01*
X40557383Y-39201083D01*
X40585031Y-39187678D01*
X40594491Y-39180094D01*
X40607977Y-39165574D01*
X40617170Y-39148180D01*
X40622813Y-39125524D01*
X40625653Y-39095214D01*
X40626434Y-39054860D01*
X40626432Y-39051198D01*
X40626118Y-39018228D01*
X40625024Y-38994807D01*
X40622802Y-38978236D01*
X40619107Y-38965818D01*
X40613593Y-38954856D01*
X40598118Y-38934609D01*
X40572291Y-38915528D01*
X40542772Y-38905446D01*
X40512039Y-38904361D01*
X40482569Y-38912271D01*
X40456838Y-38929171D01*
X40437325Y-38955059D01*
X40431672Y-38967271D01*
X40427343Y-38981273D01*
X40424811Y-38998421D01*
X40423641Y-39021832D01*
X40423396Y-39054622D01*
X40322688Y-39054622D01*
X40323137Y-39021595D01*
X40325916Y-38981300D01*
X40330894Y-38946811D01*
X40338074Y-38921377D01*
X40347503Y-38901878D01*
X40374757Y-38864228D01*
X40409129Y-38834967D01*
X40448824Y-38814456D01*
X40492045Y-38803056D01*
X40536997Y-38801129D01*
X40581884Y-38809034D01*
X40624911Y-38827134D01*
X40664281Y-38855789D01*
X40673752Y-38864975D01*
X40695751Y-38891849D01*
X40711622Y-38922103D01*
X40722076Y-38957908D01*
X40727826Y-39001437D01*
X40729584Y-39054860D01*
X40729576Y-39058846D01*
X40727389Y-39112644D01*
G37*
D12*
X5350742Y-38085500D02*
X5825258Y-38085500D01*
X5350742Y-39130500D02*
X5825258Y-39130500D01*
X33288500Y-34273258D02*
X33288500Y-33798742D01*
X32243500Y-34273258D02*
X32243500Y-33798742D01*
X33796500Y-15731258D02*
X33796500Y-15256742D01*
X32751500Y-15731258D02*
X32751500Y-15256742D01*
X11686000Y-19925420D02*
X11686000Y-20206580D01*
X10666000Y-19925420D02*
X10666000Y-20206580D01*
X10653500Y-27448742D02*
X10653500Y-27923258D01*
X11698500Y-27448742D02*
X11698500Y-27923258D01*
X19066742Y-37860500D02*
X19541258Y-37860500D01*
X19066742Y-36815500D02*
X19541258Y-36815500D01*
X35066500Y-9160742D02*
X35066500Y-9635258D01*
X34021500Y-9160742D02*
X34021500Y-9635258D01*
X13575420Y-7622000D02*
X13856580Y-7622000D01*
X13575420Y-6602000D02*
X13856580Y-6602000D01*
X4394000Y-14204000D02*
X8644000Y-14204000D01*
X7044000Y-5104000D02*
X7044000Y-6384000D01*
X7044000Y-13184000D02*
X7044000Y-11904000D01*
X8644000Y-4084000D02*
X8644000Y-5104000D01*
X8644000Y-13184000D02*
X7044000Y-13184000D01*
X824000Y-12484000D02*
X824000Y-5804000D01*
X8644000Y-14204000D02*
X8644000Y-13184000D01*
X4394000Y-4084000D02*
X8644000Y-4084000D01*
X7044000Y-11904000D02*
X9934000Y-11904000D01*
X8644000Y-5104000D02*
X7044000Y-5104000D01*
X35066500Y-12208742D02*
X35066500Y-12683258D01*
X34021500Y-12208742D02*
X34021500Y-12683258D01*
X8398742Y-38085500D02*
X8873258Y-38085500D01*
X8398742Y-39130500D02*
X8873258Y-39130500D01*
X27545420Y-23370000D02*
X27826580Y-23370000D01*
X27545420Y-22350000D02*
X27826580Y-22350000D01*
X8644000Y-16534000D02*
X7044000Y-16534000D01*
X7044000Y-23334000D02*
X9934000Y-23334000D01*
X8644000Y-25634000D02*
X8644000Y-24614000D01*
X8644000Y-15514000D02*
X8644000Y-16534000D01*
X7044000Y-24614000D02*
X7044000Y-23334000D01*
X4394000Y-15514000D02*
X8644000Y-15514000D01*
X4394000Y-25634000D02*
X8644000Y-25634000D01*
X7044000Y-16534000D02*
X7044000Y-17814000D01*
X8644000Y-24614000D02*
X7044000Y-24614000D01*
X824000Y-23914000D02*
X824000Y-17234000D01*
X10653500Y-13699258D02*
X10653500Y-13224742D01*
X11698500Y-13699258D02*
X11698500Y-13224742D01*
X19444580Y-39372000D02*
X19163420Y-39372000D01*
X19444580Y-38352000D02*
X19163420Y-38352000D01*
X824000Y-35344000D02*
X824000Y-28664000D01*
X8644000Y-36044000D02*
X7044000Y-36044000D01*
X8644000Y-37064000D02*
X8644000Y-36044000D01*
X8644000Y-27964000D02*
X7044000Y-27964000D01*
X8644000Y-26944000D02*
X8644000Y-27964000D01*
X4394000Y-37064000D02*
X8644000Y-37064000D01*
X4394000Y-26944000D02*
X8644000Y-26944000D01*
X7044000Y-27964000D02*
X7044000Y-29244000D01*
X7044000Y-34764000D02*
X9934000Y-34764000D01*
X7044000Y-36044000D02*
X7044000Y-34764000D01*
X11698500Y-23351258D02*
X11698500Y-22876742D01*
X10653500Y-23351258D02*
X10653500Y-22876742D01*
X37860500Y-13445258D02*
X37860500Y-12970742D01*
X36815500Y-13445258D02*
X36815500Y-12970742D01*
X13222500Y-22876742D02*
X13222500Y-23351258D01*
X12177500Y-22876742D02*
X12177500Y-23351258D01*
X32580000Y-19846000D02*
X29690000Y-19846000D01*
X32580000Y-26646000D02*
X32580000Y-25366000D01*
X30980000Y-18566000D02*
X32580000Y-18566000D01*
X38800000Y-19266000D02*
X38800000Y-25946000D01*
X35230000Y-27666000D02*
X30980000Y-27666000D01*
X30980000Y-27666000D02*
X30980000Y-26646000D01*
X35230000Y-17546000D02*
X30980000Y-17546000D01*
X30980000Y-26646000D02*
X32580000Y-26646000D01*
X32580000Y-18566000D02*
X32580000Y-19846000D01*
X30980000Y-17546000D02*
X30980000Y-18566000D01*
X33288500Y-37321258D02*
X33288500Y-36846742D01*
X32243500Y-37321258D02*
X32243500Y-36846742D01*
G36*
X37985848Y1794580D02*
G01*
X37987735Y1780185D01*
X37991397Y1748837D01*
X37995713Y1709204D01*
X38000100Y1666538D01*
X38003075Y1637295D01*
X38009082Y1580379D01*
X38015604Y1520589D01*
X38021673Y1466880D01*
X38026132Y1428268D01*
X38031246Y1383768D01*
X38035603Y1345623D01*
X38038581Y1319278D01*
X38043431Y1275846D01*
X37720056Y953641D01*
X37396682Y631437D01*
X37331576Y616352D01*
X37311007Y611392D01*
X37178294Y569725D01*
X37052690Y513325D01*
X36936600Y443245D01*
X36917730Y430224D01*
X36891208Y412119D01*
X36872565Y399653D01*
X36864983Y394970D01*
X36864736Y397310D01*
X36864290Y414070D01*
X36863883Y445454D01*
X36863527Y489671D01*
X36863230Y544926D01*
X36863006Y609426D01*
X36862863Y681378D01*
X36862813Y758989D01*
X36862813Y1123176D01*
X36899706Y1139469D01*
X36909956Y1143685D01*
X36938261Y1154326D01*
X36975603Y1167682D01*
X37017206Y1182105D01*
X37058292Y1195951D01*
X37094087Y1207572D01*
X37119812Y1215323D01*
X37121582Y1216864D01*
X37126736Y1231565D01*
X37131562Y1258711D01*
X37135352Y1294680D01*
X37137378Y1318723D01*
X37142072Y1367688D01*
X37147727Y1421162D01*
X37153525Y1471220D01*
X37156631Y1497071D01*
X37163295Y1554982D01*
X37169851Y1614631D01*
X37175243Y1666538D01*
X37178346Y1697046D01*
X37182734Y1738086D01*
X37186636Y1772349D01*
X37189471Y1794580D01*
X37194209Y1827133D01*
X37981109Y1827133D01*
X37985848Y1794580D01*
G37*
G36*
X39239469Y175612D02*
G01*
X39243685Y165363D01*
X39254326Y137058D01*
X39267682Y99716D01*
X39282105Y58113D01*
X39295951Y17026D01*
X39307572Y-18768D01*
X39315323Y-44493D01*
X39316864Y-46264D01*
X39331565Y-51417D01*
X39358711Y-56244D01*
X39394680Y-60034D01*
X39418723Y-62060D01*
X39467688Y-66754D01*
X39521162Y-72408D01*
X39571220Y-78207D01*
X39597071Y-81313D01*
X39654982Y-87977D01*
X39714631Y-94532D01*
X39766538Y-99925D01*
X39797046Y-103027D01*
X39838086Y-107415D01*
X39872349Y-111318D01*
X39894580Y-114152D01*
X39927133Y-118891D01*
X39927133Y-905791D01*
X39894580Y-910529D01*
X39880184Y-912419D01*
X39848835Y-916088D01*
X39809203Y-920417D01*
X39766538Y-924820D01*
X39738284Y-927678D01*
X39703136Y-931340D01*
X39665221Y-935427D01*
X39621643Y-940261D01*
X39569508Y-946164D01*
X39505921Y-953458D01*
X39427987Y-962464D01*
X39406226Y-964805D01*
X39384627Y-966782D01*
X39381841Y-965666D01*
X39367515Y-954807D01*
X39343126Y-933534D01*
X39310086Y-903246D01*
X39269804Y-865343D01*
X39223693Y-821225D01*
X39173162Y-772292D01*
X39119623Y-719943D01*
X39064487Y-665578D01*
X39009164Y-610597D01*
X38955066Y-556400D01*
X38903604Y-504385D01*
X38856187Y-455954D01*
X38814228Y-412505D01*
X38779138Y-375439D01*
X38752326Y-346154D01*
X38735204Y-326052D01*
X38729184Y-316532D01*
X38729156Y-315311D01*
X38726100Y-295073D01*
X38718820Y-263119D01*
X38708496Y-223759D01*
X38696308Y-181303D01*
X38683437Y-140061D01*
X38671064Y-104343D01*
X38663745Y-85436D01*
X38629139Y-8439D01*
X38587642Y69057D01*
X38543892Y138204D01*
X38542157Y140689D01*
X38523437Y167679D01*
X38508507Y189508D01*
X38500462Y201654D01*
X38500629Y203454D01*
X38506883Y205890D01*
X38521584Y207877D01*
X38546004Y209452D01*
X38581418Y210654D01*
X38629099Y211522D01*
X38690320Y212094D01*
X38766355Y212409D01*
X38858477Y212505D01*
X39223176Y212505D01*
X39239469Y175612D01*
G37*
G36*
X38303454Y-1425310D02*
G01*
X38305890Y-1431565D01*
X38307877Y-1446265D01*
X38309452Y-1470686D01*
X38310654Y-1506100D01*
X38311522Y-1553781D01*
X38312094Y-1615002D01*
X38312409Y-1691036D01*
X38312505Y-1783158D01*
X38312505Y-2147858D01*
X38275612Y-2164151D01*
X38265363Y-2168367D01*
X38237058Y-2179008D01*
X38199716Y-2192363D01*
X38158113Y-2206787D01*
X38117026Y-2220632D01*
X38081232Y-2232254D01*
X38055507Y-2240004D01*
X38053736Y-2241545D01*
X38048583Y-2256247D01*
X38043756Y-2283393D01*
X38039966Y-2319362D01*
X38037940Y-2343404D01*
X38033246Y-2392369D01*
X38027592Y-2445843D01*
X38021793Y-2495902D01*
X38018687Y-2521753D01*
X38012023Y-2579664D01*
X38005468Y-2639312D01*
X38000075Y-2691220D01*
X37996973Y-2721727D01*
X37992585Y-2762768D01*
X37988682Y-2797030D01*
X37985848Y-2819261D01*
X37981109Y-2851814D01*
X37194209Y-2851814D01*
X37189471Y-2819261D01*
X37187583Y-2804867D01*
X37183922Y-2773518D01*
X37179606Y-2733885D01*
X37175218Y-2691220D01*
X37172244Y-2661977D01*
X37166236Y-2605060D01*
X37159715Y-2545271D01*
X37153646Y-2491562D01*
X37149228Y-2453338D01*
X37143982Y-2407812D01*
X37139435Y-2368214D01*
X37136239Y-2340204D01*
X37130892Y-2293016D01*
X37450380Y-1973441D01*
X37473120Y-1950728D01*
X37533745Y-1890520D01*
X37590523Y-1834618D01*
X37642260Y-1784168D01*
X37687760Y-1740318D01*
X37725826Y-1704216D01*
X37755264Y-1677008D01*
X37774876Y-1659842D01*
X37783468Y-1653865D01*
X37784689Y-1653837D01*
X37804927Y-1650782D01*
X37836881Y-1643502D01*
X37876241Y-1633177D01*
X37918697Y-1620990D01*
X37959939Y-1608119D01*
X37995657Y-1595745D01*
X38014564Y-1588426D01*
X38091561Y-1553821D01*
X38169057Y-1512323D01*
X38238204Y-1468574D01*
X38240689Y-1466838D01*
X38267679Y-1448119D01*
X38289508Y-1433189D01*
X38301654Y-1425143D01*
X38303454Y-1425310D01*
G37*
G36*
X38172080Y-462859D02*
G01*
X38172399Y-571477D01*
X38159785Y-675408D01*
X38134796Y-773020D01*
X38097991Y-862683D01*
X38049929Y-942762D01*
X37991169Y-1011628D01*
X37922268Y-1067647D01*
X37915495Y-1072074D01*
X37846598Y-1110187D01*
X37773017Y-1140088D01*
X37702052Y-1158755D01*
X37680559Y-1161331D01*
X37643299Y-1163520D01*
X37598899Y-1164519D01*
X37552936Y-1164126D01*
X37533075Y-1163533D01*
X37486504Y-1160992D01*
X37449324Y-1156480D01*
X37415664Y-1149109D01*
X37379651Y-1137994D01*
X37375035Y-1136405D01*
X37287265Y-1096702D01*
X37207979Y-1042289D01*
X37138504Y-974246D01*
X37080164Y-893656D01*
X37050112Y-843979D01*
X37087791Y-810542D01*
X37112981Y-790277D01*
X37135626Y-779219D01*
X37154147Y-781128D01*
X37171806Y-795417D01*
X37190582Y-814027D01*
X37226548Y-844290D01*
X37268253Y-875265D01*
X37309971Y-902771D01*
X37345977Y-922626D01*
X37354758Y-926676D01*
X37376668Y-935626D01*
X37397726Y-941375D01*
X37422486Y-944620D01*
X37455498Y-946056D01*
X37501315Y-946380D01*
X37543034Y-946233D01*
X37575698Y-945181D01*
X37600174Y-942312D01*
X37621222Y-936715D01*
X37643604Y-927478D01*
X37672080Y-913690D01*
X37708383Y-893049D01*
X37768803Y-844123D01*
X37818083Y-783660D01*
X37854999Y-713712D01*
X37878327Y-636333D01*
X37886842Y-553575D01*
X37887147Y-516681D01*
X37088914Y-516681D01*
X37074645Y-494905D01*
X37069364Y-483497D01*
X37062124Y-452590D01*
X37057367Y-411038D01*
X37055225Y-362999D01*
X37055834Y-312630D01*
X37059327Y-264089D01*
X37062518Y-243236D01*
X37319443Y-243236D01*
X37320771Y-272768D01*
X37330602Y-310702D01*
X37350810Y-336391D01*
X37382383Y-351536D01*
X37396613Y-353656D01*
X37427057Y-355846D01*
X37470191Y-357695D01*
X37523517Y-359122D01*
X37584539Y-360044D01*
X37650760Y-360378D01*
X37887477Y-360427D01*
X37883038Y-340895D01*
X37881227Y-332802D01*
X37875720Y-307636D01*
X37869389Y-278233D01*
X37861859Y-248827D01*
X37833522Y-178999D01*
X37793287Y-116330D01*
X37743433Y-63970D01*
X37686236Y-25067D01*
X37668922Y-17245D01*
X37617614Y-3451D01*
X37562236Y695D01*
X37508870Y-4932D01*
X37463598Y-20458D01*
X37443218Y-32184D01*
X37391868Y-73575D01*
X37353079Y-124158D01*
X37328417Y-181517D01*
X37319443Y-243236D01*
X37062518Y-243236D01*
X37065838Y-221534D01*
X37075140Y-184304D01*
X37107034Y-101253D01*
X37151696Y-26467D01*
X37207535Y37673D01*
X37272964Y88786D01*
X37275833Y90581D01*
X37335995Y123551D01*
X37395820Y146138D01*
X37460920Y159998D01*
X37536906Y166791D01*
X37576920Y168264D01*
X37613102Y168039D01*
X37643721Y165081D01*
X37675112Y158724D01*
X37713607Y148309D01*
X37743918Y138892D01*
X37831009Y102028D01*
X37909373Y52207D01*
X37982635Y-12742D01*
X38001297Y-32349D01*
X38061085Y-106627D01*
X38106521Y-185170D01*
X38139370Y-271491D01*
X38159436Y-360427D01*
X38161395Y-369108D01*
X38172080Y-462859D01*
G37*
G36*
X39518063Y860398D02*
G01*
X39499626Y834506D01*
X39498815Y833373D01*
X39483473Y812922D01*
X39461856Y785173D01*
X39438373Y755792D01*
X39433147Y749338D01*
X39409298Y719786D01*
X39378936Y682063D01*
X39345419Y640343D01*
X39312105Y598801D01*
X39297172Y580197D01*
X39268617Y544845D01*
X39244276Y514994D01*
X39226351Y493335D01*
X39217043Y482562D01*
X39206403Y469960D01*
X39192010Y450009D01*
X39178588Y429525D01*
X38257877Y429525D01*
X38213575Y458917D01*
X38168961Y486239D01*
X38112849Y516802D01*
X38055103Y545177D01*
X38003360Y567422D01*
X37983235Y574684D01*
X37939298Y588613D01*
X37888721Y602970D01*
X37837266Y616228D01*
X37790693Y626859D01*
X37754765Y633336D01*
X37741017Y635547D01*
X37721284Y640399D01*
X37713531Y644962D01*
X37714975Y647047D01*
X37726467Y659784D01*
X37748368Y682815D01*
X37779397Y714832D01*
X37818277Y754526D01*
X37863729Y800589D01*
X37914475Y851713D01*
X37969235Y906589D01*
X38224938Y1162183D01*
X38292594Y1133102D01*
X38293006Y1132925D01*
X38335376Y1113776D01*
X38381437Y1091556D01*
X38421290Y1071040D01*
X38482330Y1038058D01*
X38521119Y1068546D01*
X38536750Y1080901D01*
X38560623Y1100008D01*
X38577340Y1113682D01*
X38580391Y1116234D01*
X38603611Y1135343D01*
X38636926Y1162439D01*
X38677397Y1195163D01*
X38722085Y1231155D01*
X38768053Y1268057D01*
X38812363Y1303507D01*
X38852076Y1335148D01*
X38884255Y1360620D01*
X38905961Y1377564D01*
X38959225Y1418460D01*
X39518063Y860398D01*
G37*
G36*
X36130621Y-370442D02*
G01*
X36142959Y-382783D01*
X36223702Y-463950D01*
X36291882Y-533258D01*
X36347550Y-590761D01*
X36390758Y-636513D01*
X36421557Y-670569D01*
X36439999Y-692983D01*
X36446135Y-703809D01*
X36448097Y-721149D01*
X36454663Y-752955D01*
X36464726Y-793114D01*
X36477121Y-837289D01*
X36490686Y-881143D01*
X36504255Y-920338D01*
X36508980Y-932711D01*
X36544134Y-1012100D01*
X36587095Y-1092605D01*
X36633258Y-1165471D01*
X36637526Y-1171602D01*
X36654968Y-1197212D01*
X36667214Y-1216113D01*
X36671836Y-1224582D01*
X36669613Y-1225016D01*
X36653060Y-1225825D01*
X36621863Y-1226563D01*
X36577817Y-1227211D01*
X36522722Y-1227748D01*
X36458375Y-1228156D01*
X36386573Y-1228415D01*
X36309116Y-1228506D01*
X35946397Y-1228506D01*
X35923844Y-1169911D01*
X35914083Y-1143666D01*
X35898946Y-1100770D01*
X35883457Y-1054966D01*
X35869764Y-1012643D01*
X35860017Y-980188D01*
X35858464Y-978413D01*
X35843741Y-973262D01*
X35816589Y-968436D01*
X35780638Y-964648D01*
X35756596Y-962622D01*
X35707631Y-957928D01*
X35654157Y-952273D01*
X35604098Y-946475D01*
X35578247Y-943369D01*
X35520336Y-936705D01*
X35460688Y-930149D01*
X35408780Y-924757D01*
X35378273Y-921654D01*
X35337232Y-917266D01*
X35302970Y-913364D01*
X35280739Y-910529D01*
X35248186Y-905791D01*
X35248186Y-118891D01*
X35280739Y-114152D01*
X35295133Y-112265D01*
X35326482Y-108603D01*
X35366115Y-104287D01*
X35408780Y-99900D01*
X35438031Y-96922D01*
X35494945Y-90902D01*
X35554732Y-84358D01*
X35608438Y-78261D01*
X35646230Y-73885D01*
X35692859Y-68542D01*
X35734032Y-63882D01*
X35763857Y-60576D01*
X35815106Y-55016D01*
X36130621Y-370442D01*
G37*
G36*
X36966115Y-1487601D02*
G01*
X37010967Y-1514905D01*
X37134822Y-1577530D01*
X37262007Y-1623751D01*
X37391321Y-1653102D01*
X37418489Y-1657860D01*
X37440713Y-1662624D01*
X37450731Y-1665957D01*
X37449598Y-1667976D01*
X37438703Y-1680503D01*
X37417370Y-1703304D01*
X37386854Y-1735090D01*
X37348405Y-1774568D01*
X37303278Y-1820451D01*
X37252723Y-1871448D01*
X37197993Y-1926269D01*
X36941249Y-2182575D01*
X36891180Y-2160591D01*
X36881399Y-2156220D01*
X36846420Y-2139928D01*
X36805486Y-2120184D01*
X36765556Y-2100326D01*
X36690000Y-2062045D01*
X36622353Y-2116208D01*
X36604752Y-2130318D01*
X36575288Y-2154016D01*
X36551492Y-2173249D01*
X36537314Y-2184832D01*
X36533769Y-2187745D01*
X36516906Y-2201456D01*
X36489694Y-2223486D01*
X36454347Y-2252046D01*
X36413078Y-2285347D01*
X36368102Y-2321599D01*
X36216283Y-2443908D01*
X35936614Y-2164337D01*
X35914947Y-2142643D01*
X35851303Y-2078463D01*
X35795680Y-2021655D01*
X35748821Y-1973004D01*
X35711466Y-1933294D01*
X35684357Y-1903309D01*
X35668236Y-1883835D01*
X35663843Y-1875656D01*
X35669254Y-1868794D01*
X35684117Y-1850160D01*
X35706304Y-1822434D01*
X35733879Y-1788025D01*
X35764907Y-1749344D01*
X35797453Y-1708801D01*
X35829582Y-1668806D01*
X35859360Y-1631769D01*
X35884852Y-1600100D01*
X35904123Y-1576210D01*
X35915237Y-1562508D01*
X35927833Y-1546910D01*
X35947039Y-1522886D01*
X35968691Y-1495643D01*
X36007755Y-1446347D01*
X36453949Y-1445937D01*
X36900142Y-1445526D01*
X36966115Y-1487601D01*
G37*
G36*
X36368102Y1296770D02*
G01*
X36385267Y1282927D01*
X36430919Y1246130D01*
X36473166Y1212104D01*
X36509483Y1182881D01*
X36537342Y1160496D01*
X36554217Y1146982D01*
X36563154Y1139803D01*
X36591888Y1116221D01*
X36617153Y1094877D01*
X36645793Y1070105D01*
X36645793Y160962D01*
X36608012Y102096D01*
X36568476Y36429D01*
X36534901Y-30207D01*
X36504471Y-104343D01*
X36493580Y-135113D01*
X36479619Y-179092D01*
X36466725Y-224170D01*
X36456066Y-265975D01*
X36448813Y-300138D01*
X36446135Y-322288D01*
X36445242Y-335365D01*
X36440866Y-355376D01*
X36437482Y-362224D01*
X36429959Y-369108D01*
X36428326Y-368003D01*
X36416348Y-357202D01*
X36394007Y-335931D01*
X36362619Y-305478D01*
X36323504Y-267133D01*
X36277977Y-222185D01*
X36227357Y-171923D01*
X36172962Y-117637D01*
X35921603Y133834D01*
X35933190Y166659D01*
X35940259Y184196D01*
X35953983Y214897D01*
X35971689Y252524D01*
X35991272Y292519D01*
X36037766Y385553D01*
X35983697Y453083D01*
X35969678Y470574D01*
X35946004Y500026D01*
X35926795Y523821D01*
X35915237Y538005D01*
X35906944Y548179D01*
X35889405Y569872D01*
X35865143Y599971D01*
X35836115Y636038D01*
X35804277Y675637D01*
X35771587Y716332D01*
X35740001Y755687D01*
X35711477Y791265D01*
X35687971Y820629D01*
X35671441Y841345D01*
X35663843Y850974D01*
X35663919Y852291D01*
X35672099Y864125D01*
X35691774Y887007D01*
X35722202Y920150D01*
X35762641Y962772D01*
X35812350Y1014086D01*
X35870588Y1073309D01*
X35936614Y1139656D01*
X36216283Y1419226D01*
X36368102Y1296770D01*
G37*
G36*
X38746776Y-648216D02*
G01*
X38759313Y-659474D01*
X38782164Y-681163D01*
X38814015Y-711999D01*
X38853555Y-750702D01*
X38899469Y-795987D01*
X38950446Y-846573D01*
X39005171Y-901178D01*
X39259347Y-1155463D01*
X39236636Y-1207176D01*
X39232254Y-1216989D01*
X39215644Y-1252696D01*
X39195639Y-1294217D01*
X39175645Y-1334444D01*
X39137363Y-1410000D01*
X39191527Y-1477647D01*
X39205637Y-1495248D01*
X39229334Y-1524712D01*
X39248567Y-1548508D01*
X39260150Y-1562686D01*
X39263064Y-1566231D01*
X39276774Y-1583094D01*
X39298804Y-1610306D01*
X39327364Y-1645653D01*
X39360665Y-1686922D01*
X39396918Y-1731898D01*
X39519226Y-1883717D01*
X39239656Y-2163386D01*
X39217962Y-2185053D01*
X39153782Y-2248697D01*
X39096974Y-2304320D01*
X39048322Y-2351179D01*
X39008612Y-2388534D01*
X38978628Y-2415643D01*
X38959153Y-2431764D01*
X38950974Y-2436157D01*
X38949461Y-2434981D01*
X38936471Y-2424657D01*
X38912755Y-2405690D01*
X38880452Y-2379793D01*
X38841697Y-2348679D01*
X38798630Y-2314060D01*
X38789407Y-2306643D01*
X38744576Y-2270607D01*
X38702683Y-2236961D01*
X38666375Y-2207827D01*
X38638299Y-2185331D01*
X38621102Y-2171595D01*
X38612196Y-2164459D01*
X38583448Y-2140902D01*
X38558166Y-2119558D01*
X38529525Y-2094787D01*
X38529525Y-1185644D01*
X38567810Y-1126462D01*
X38609745Y-1055138D01*
X38663769Y-937660D01*
X38705410Y-811415D01*
X38733542Y-679446D01*
X38734586Y-673466D01*
X38739665Y-654527D01*
X38744823Y-646893D01*
X38746776Y-648216D01*
G37*
X36828000Y-10300580D02*
X36828000Y-10019420D01*
X37848000Y-10300580D02*
X37848000Y-10019420D01*
X44120000Y-4338000D02*
X39870000Y-4338000D01*
X44120000Y-14458000D02*
X39870000Y-14458000D01*
X39870000Y-13438000D02*
X41470000Y-13438000D01*
X41470000Y-6638000D02*
X38580000Y-6638000D01*
X39870000Y-14458000D02*
X39870000Y-13438000D01*
X39870000Y-4338000D02*
X39870000Y-5358000D01*
X47690000Y-6058000D02*
X47690000Y-12738000D01*
X39870000Y-5358000D02*
X41470000Y-5358000D01*
X41470000Y-5358000D02*
X41470000Y-6638000D01*
X41470000Y-13438000D02*
X41470000Y-12158000D01*
X30750742Y-16778500D02*
X31225258Y-16778500D01*
X30750742Y-15733500D02*
X31225258Y-15733500D01*
X11698500Y-16780742D02*
X11698500Y-17255258D01*
X10653500Y-16780742D02*
X10653500Y-17255258D01*
X21356000Y-35298000D02*
X22376000Y-35298000D01*
X22376000Y-35298000D02*
X22376000Y-36898000D01*
X30456000Y-36898000D02*
X29176000Y-36898000D01*
X22376000Y-36898000D02*
X23656000Y-36898000D01*
X31476000Y-35298000D02*
X30456000Y-35298000D01*
X21356000Y-39548000D02*
X21356000Y-35298000D01*
X29756000Y-43118000D02*
X23076000Y-43118000D01*
X29176000Y-36898000D02*
X29176000Y-34008000D01*
X31476000Y-39548000D02*
X31476000Y-35298000D01*
X30456000Y-35298000D02*
X30456000Y-36898000D01*
X27925500Y-25637258D02*
X27925500Y-25162742D01*
X28970500Y-25637258D02*
X28970500Y-25162742D01*
X11700742Y-10653500D02*
X12175258Y-10653500D01*
X11700742Y-11698500D02*
X12175258Y-11698500D01*
X10907500Y-5921742D02*
X10907500Y-6396258D01*
X11952500Y-5921742D02*
X11952500Y-6396258D01*
X10666000Y-30593420D02*
X10666000Y-30874580D01*
X11686000Y-30593420D02*
X11686000Y-30874580D01*
%LPC*%
D13*
X16605000Y-37890000D03*
X12605000Y-37890000D03*
D14*
X27305000Y-3810000D03*
D15*
X29845000Y-3810000D03*
X27305000Y-6350000D03*
X29845000Y-6350000D03*
X27305000Y-8890000D03*
X29845000Y-8890000D03*
D16*
X0Y-40005000D03*
D17*
X35560000Y-33345000D03*
D18*
X38100000Y-33345000D03*
X40640000Y-33345000D03*
X43180000Y-33345000D03*
X45720000Y-33345000D03*
D17*
X17145000Y-31130000D03*
D18*
X17145000Y-28590000D03*
X17145000Y-26050000D03*
D17*
X31115000Y-31115000D03*
D18*
X28575000Y-31115000D03*
X26035000Y-31115000D03*
X23495000Y-31115000D03*
D16*
X45085000Y0D03*
D17*
X41275000Y-20955000D03*
D18*
X41275000Y-23495000D03*
X41275000Y-26035000D03*
X41275000Y-28575000D03*
D16*
X0Y0D03*
D17*
X-1270000Y-20955000D03*
D18*
X-1270000Y-18415000D03*
X-1270000Y-15875000D03*
D16*
X45085000Y-40005000D03*
D17*
X-1270000Y-9530000D03*
D18*
X-1270000Y-6990000D03*
D19*
X4763000Y-38608000D03*
X6413000Y-38608000D03*
D20*
X32766000Y-34861000D03*
X32766000Y-33211000D03*
X33274000Y-16319000D03*
X33274000Y-14669000D03*
D21*
X11176000Y-19291000D03*
X11176000Y-20841000D03*
D22*
X11176000Y-26861000D03*
X11176000Y-28511000D03*
D19*
X18479000Y-37338000D03*
X20129000Y-37338000D03*
D22*
X34544000Y-8573000D03*
X34544000Y-10223000D03*
D23*
X12941000Y-7112000D03*
X14491000Y-7112000D03*
D24*
X8184000Y-11144000D03*
X8184000Y-9144000D03*
X8184000Y-7144000D03*
D25*
X2434000Y-4794000D03*
X2434000Y-13494000D03*
D22*
X34544000Y-11621000D03*
X34544000Y-13271000D03*
D19*
X7811000Y-38608000D03*
X9461000Y-38608000D03*
D23*
X26911000Y-22860000D03*
X28461000Y-22860000D03*
D24*
X8184000Y-22574000D03*
X8184000Y-20574000D03*
X8184000Y-18574000D03*
D25*
X2434000Y-24924000D03*
X2434000Y-16224000D03*
D20*
X11176000Y-14287000D03*
X11176000Y-12637000D03*
D26*
X20079000Y-38862000D03*
X18529000Y-38862000D03*
D24*
X8184000Y-34004000D03*
X8184000Y-32004000D03*
X8184000Y-30004000D03*
D25*
X2434000Y-36354000D03*
X2434000Y-27654000D03*
D20*
X11176000Y-23939000D03*
X11176000Y-22289000D03*
X37338000Y-14033000D03*
X37338000Y-12383000D03*
D22*
X12700000Y-22289000D03*
X12700000Y-23939000D03*
D27*
X31440000Y-20606000D03*
X31440000Y-22606000D03*
X31440000Y-24606000D03*
D28*
X37190000Y-26956000D03*
X37190000Y-18256000D03*
D20*
X32766000Y-37909000D03*
X32766000Y-36259000D03*
D29*
X37338000Y-10935000D03*
X37338000Y-9385000D03*
D27*
X40330000Y-7398000D03*
X40330000Y-9398000D03*
X40330000Y-11398000D03*
D28*
X46080000Y-5048000D03*
X46080000Y-13748000D03*
D19*
X30163000Y-16256000D03*
X31813000Y-16256000D03*
D22*
X11176000Y-16193000D03*
X11176000Y-17843000D03*
D30*
X28416000Y-35758000D03*
X26416000Y-35758000D03*
X24416000Y-35758000D03*
D31*
X22066000Y-41508000D03*
X30766000Y-41508000D03*
D20*
X28448000Y-26225000D03*
X28448000Y-24575000D03*
D19*
X11113000Y-11176000D03*
X12763000Y-11176000D03*
D22*
X11430000Y-5334000D03*
X11430000Y-6984000D03*
D21*
X11176000Y-29959000D03*
X11176000Y-31509000D03*
M02*
