G04 #@! TF.GenerationSoftware,KiCad,Pcbnew,(6.0.0)*
G04 #@! TF.CreationDate,2022-11-09T00:59:33-05:00*
G04 #@! TF.ProjectId,esp8266 atmosphere sensor,65737038-3236-4362-9061-746d6f737068,rev?*
G04 #@! TF.SameCoordinates,Original*
G04 #@! TF.FileFunction,Copper,L4,Bot*
G04 #@! TF.FilePolarity,Positive*
%FSLAX46Y46*%
G04 Gerber Fmt 4.6, Leading zero omitted, Abs format (unit mm)*
G04 Created by KiCad (PCBNEW (6.0.0)) date 2022-11-09 00:59:33*
%MOMM*%
%LPD*%
G01*
G04 APERTURE LIST*
G04 Aperture macros list*
%AMRoundRect*
0 Rectangle with rounded corners*
0 $1 Rounding radius*
0 $2 $3 $4 $5 $6 $7 $8 $9 X,Y pos of 4 corners*
0 Add a 4 corners polygon primitive as box body*
4,1,4,$2,$3,$4,$5,$6,$7,$8,$9,$2,$3,0*
0 Add four circle primitives for the rounded corners*
1,1,$1+$1,$2,$3*
1,1,$1+$1,$4,$5*
1,1,$1+$1,$6,$7*
1,1,$1+$1,$8,$9*
0 Add four rect primitives between the rounded corners*
20,1,$1+$1,$2,$3,$4,$5,0*
20,1,$1+$1,$4,$5,$6,$7,0*
20,1,$1+$1,$6,$7,$8,$9,0*
20,1,$1+$1,$8,$9,$2,$3,0*%
G04 Aperture macros list end*
G04 #@! TA.AperFunction,ComponentPad*
%ADD10RoundRect,0.250000X-0.600000X-0.600000X0.600000X-0.600000X0.600000X0.600000X-0.600000X0.600000X0*%
G04 #@! TD*
G04 #@! TA.AperFunction,ComponentPad*
%ADD11C,1.700000*%
G04 #@! TD*
G04 #@! TA.AperFunction,ComponentPad*
%ADD12R,1.700000X1.700000*%
G04 #@! TD*
G04 #@! TA.AperFunction,ComponentPad*
%ADD13O,1.700000X1.700000*%
G04 #@! TD*
G04 #@! TA.AperFunction,SMDPad,CuDef*
%ADD14RoundRect,0.200000X-0.200000X-0.275000X0.200000X-0.275000X0.200000X0.275000X-0.200000X0.275000X0*%
G04 #@! TD*
G04 #@! TA.AperFunction,SMDPad,CuDef*
%ADD15RoundRect,0.200000X0.275000X-0.200000X0.275000X0.200000X-0.275000X0.200000X-0.275000X-0.200000X0*%
G04 #@! TD*
G04 #@! TA.AperFunction,SMDPad,CuDef*
%ADD16RoundRect,0.225000X-0.250000X0.225000X-0.250000X-0.225000X0.250000X-0.225000X0.250000X0.225000X0*%
G04 #@! TD*
G04 #@! TA.AperFunction,SMDPad,CuDef*
%ADD17RoundRect,0.200000X-0.275000X0.200000X-0.275000X-0.200000X0.275000X-0.200000X0.275000X0.200000X0*%
G04 #@! TD*
G04 #@! TA.AperFunction,SMDPad,CuDef*
%ADD18RoundRect,0.225000X-0.225000X-0.250000X0.225000X-0.250000X0.225000X0.250000X-0.225000X0.250000X0*%
G04 #@! TD*
G04 #@! TA.AperFunction,SMDPad,CuDef*
%ADD19RoundRect,0.250000X1.500000X-0.250000X1.500000X0.250000X-1.500000X0.250000X-1.500000X-0.250000X0*%
G04 #@! TD*
G04 #@! TA.AperFunction,SMDPad,CuDef*
%ADD20RoundRect,0.250001X1.449999X-0.499999X1.449999X0.499999X-1.449999X0.499999X-1.449999X-0.499999X0*%
G04 #@! TD*
G04 #@! TA.AperFunction,SMDPad,CuDef*
%ADD21RoundRect,0.225000X0.225000X0.250000X-0.225000X0.250000X-0.225000X-0.250000X0.225000X-0.250000X0*%
G04 #@! TD*
G04 #@! TA.AperFunction,SMDPad,CuDef*
%ADD22RoundRect,0.250000X-1.500000X0.250000X-1.500000X-0.250000X1.500000X-0.250000X1.500000X0.250000X0*%
G04 #@! TD*
G04 #@! TA.AperFunction,SMDPad,CuDef*
%ADD23RoundRect,0.250001X-1.449999X0.499999X-1.449999X-0.499999X1.449999X-0.499999X1.449999X0.499999X0*%
G04 #@! TD*
G04 #@! TA.AperFunction,SMDPad,CuDef*
%ADD24RoundRect,0.225000X0.250000X-0.225000X0.250000X0.225000X-0.250000X0.225000X-0.250000X-0.225000X0*%
G04 #@! TD*
G04 #@! TA.AperFunction,SMDPad,CuDef*
%ADD25RoundRect,0.250000X0.250000X1.500000X-0.250000X1.500000X-0.250000X-1.500000X0.250000X-1.500000X0*%
G04 #@! TD*
G04 #@! TA.AperFunction,SMDPad,CuDef*
%ADD26RoundRect,0.250001X0.499999X1.449999X-0.499999X1.449999X-0.499999X-1.449999X0.499999X-1.449999X0*%
G04 #@! TD*
G04 #@! TA.AperFunction,ViaPad*
%ADD27C,0.800000*%
G04 #@! TD*
G04 #@! TA.AperFunction,Conductor*
%ADD28C,0.300000*%
G04 #@! TD*
G04 #@! TA.AperFunction,Conductor*
%ADD29C,0.500000*%
G04 #@! TD*
G04 APERTURE END LIST*
D10*
X27305000Y-3810000D03*
D11*
X29845000Y-3810000D03*
X27305000Y-6350000D03*
X29845000Y-6350000D03*
X27305000Y-8890000D03*
X29845000Y-8890000D03*
D12*
X35560000Y-33345000D03*
D13*
X38100000Y-33345000D03*
X40640000Y-33345000D03*
X43180000Y-33345000D03*
X45720000Y-33345000D03*
D12*
X17145000Y-31130000D03*
D13*
X17145000Y-28590000D03*
X17145000Y-26050000D03*
D12*
X31115000Y-31115000D03*
D13*
X28575000Y-31115000D03*
X26035000Y-31115000D03*
X23495000Y-31115000D03*
D12*
X41275000Y-20955000D03*
D13*
X41275000Y-23495000D03*
X41275000Y-26035000D03*
X41275000Y-28575000D03*
D12*
X-1270000Y-20955000D03*
D13*
X-1270000Y-18415000D03*
X-1270000Y-15875000D03*
D12*
X-1270000Y-9530000D03*
D13*
X-1270000Y-6990000D03*
D14*
X4763000Y-38608000D03*
X6413000Y-38608000D03*
D15*
X32766000Y-34861000D03*
X32766000Y-33211000D03*
X33274000Y-16319000D03*
X33274000Y-14669000D03*
D16*
X11176000Y-19291000D03*
X11176000Y-20841000D03*
D17*
X11176000Y-26861000D03*
X11176000Y-28511000D03*
D14*
X18479000Y-37338000D03*
X20129000Y-37338000D03*
D17*
X34544000Y-8573000D03*
X34544000Y-10223000D03*
D18*
X12941000Y-7112000D03*
X14491000Y-7112000D03*
D19*
X8184000Y-11144000D03*
X8184000Y-9144000D03*
X8184000Y-7144000D03*
D20*
X2434000Y-4794000D03*
X2434000Y-13494000D03*
D17*
X34544000Y-11621000D03*
X34544000Y-13271000D03*
D14*
X7811000Y-38608000D03*
X9461000Y-38608000D03*
D18*
X26911000Y-22860000D03*
X28461000Y-22860000D03*
D19*
X8184000Y-22574000D03*
X8184000Y-20574000D03*
X8184000Y-18574000D03*
D20*
X2434000Y-24924000D03*
X2434000Y-16224000D03*
D15*
X11176000Y-14287000D03*
X11176000Y-12637000D03*
D21*
X20079000Y-38862000D03*
X18529000Y-38862000D03*
D19*
X8184000Y-34004000D03*
X8184000Y-32004000D03*
X8184000Y-30004000D03*
D20*
X2434000Y-36354000D03*
X2434000Y-27654000D03*
D15*
X11176000Y-23939000D03*
X11176000Y-22289000D03*
X37338000Y-14033000D03*
X37338000Y-12383000D03*
D17*
X12700000Y-22289000D03*
X12700000Y-23939000D03*
D22*
X31440000Y-20606000D03*
X31440000Y-22606000D03*
X31440000Y-24606000D03*
D23*
X37190000Y-26956000D03*
X37190000Y-18256000D03*
D15*
X32766000Y-37909000D03*
X32766000Y-36259000D03*
D24*
X37338000Y-10935000D03*
X37338000Y-9385000D03*
D22*
X40330000Y-7398000D03*
X40330000Y-9398000D03*
X40330000Y-11398000D03*
D23*
X46080000Y-5048000D03*
X46080000Y-13748000D03*
D14*
X30163000Y-16256000D03*
X31813000Y-16256000D03*
D17*
X11176000Y-16193000D03*
X11176000Y-17843000D03*
D25*
X28416000Y-35758000D03*
X26416000Y-35758000D03*
X24416000Y-35758000D03*
D26*
X22066000Y-41508000D03*
X30766000Y-41508000D03*
D15*
X28448000Y-26225000D03*
X28448000Y-24575000D03*
D14*
X11113000Y-11176000D03*
X12763000Y-11176000D03*
D17*
X11430000Y-5334000D03*
X11430000Y-6984000D03*
D16*
X11176000Y-29959000D03*
X11176000Y-31509000D03*
D27*
X25654000Y1016000D03*
X45212000Y-8890000D03*
X40386000Y-5334000D03*
X40640000Y2032000D03*
X33274000Y-39624000D03*
X3556000Y-40132000D03*
X-2794000Y-28448000D03*
X35560000Y-7620000D03*
X8699000Y-23939000D03*
X29972000Y-17780000D03*
X9398000Y-14986000D03*
X29909480Y-13145480D03*
X1270000Y-7112000D03*
X4613000Y-20025000D03*
X10414000Y-6096000D03*
X25463000Y-14923000D03*
X762000Y-11938000D03*
X17272000Y-36322000D03*
X9398000Y-25146000D03*
X-508000Y-28702000D03*
X27940000Y-27686000D03*
X37338000Y-15240000D03*
X-508000Y-25908000D03*
X9652000Y-16764000D03*
X9207000Y-26861000D03*
X4801500Y-24408500D03*
X33070031Y-12395969D03*
X20320000Y-22860000D03*
X16002000Y-18034000D03*
X26797000Y-24511000D03*
X36513480Y-16826520D03*
X13616511Y-15902511D03*
X12867000Y-12025000D03*
X23368000Y-12192000D03*
X13264511Y-29915489D03*
X23622000Y-10160000D03*
D28*
X32766000Y-39116000D02*
X33274000Y-39624000D01*
D29*
X-2794000Y-19939000D02*
X-1270000Y-18415000D01*
D28*
X11176000Y-23939000D02*
X8699000Y-23939000D01*
X4763000Y-38608000D02*
X4763000Y-38925000D01*
X11176000Y-14287000D02*
X10097000Y-14287000D01*
X30163000Y-16256000D02*
X30163000Y-17589000D01*
X30163000Y-17589000D02*
X29972000Y-17780000D01*
X34544000Y-8573000D02*
X34607000Y-8573000D01*
X32766000Y-37909000D02*
X32766000Y-39116000D01*
X34607000Y-8573000D02*
X35560000Y-7620000D01*
X4763000Y-38925000D02*
X3556000Y-40132000D01*
D29*
X-2794000Y-28448000D02*
X-2794000Y-19939000D01*
D28*
X10097000Y-14287000D02*
X9398000Y-14986000D01*
X29909480Y-13145480D02*
X29845000Y-13081000D01*
X29845000Y-13081000D02*
X29845000Y-8890000D01*
X10223000Y-16193000D02*
X9652000Y-16764000D01*
X18288000Y-37338000D02*
X17272000Y-36322000D01*
X28448000Y-26225000D02*
X28448000Y-27178000D01*
X28448000Y-27178000D02*
X27940000Y-27686000D01*
X37338000Y-14033000D02*
X37338000Y-15240000D01*
X10668000Y-6096000D02*
X10414000Y-6096000D01*
X18479000Y-37338000D02*
X18288000Y-37338000D01*
D29*
X-508000Y-25908000D02*
X-508000Y-28702000D01*
D28*
X11176000Y-16193000D02*
X10223000Y-16193000D01*
X11176000Y-26861000D02*
X9207000Y-26861000D01*
X11430000Y-5334000D02*
X10668000Y-6096000D01*
X33274000Y-13970000D02*
X33274000Y-14669000D01*
X33083000Y-12383000D02*
X33070031Y-12395969D01*
X37624000Y-11398000D02*
X37338000Y-11684000D01*
X37338000Y-11684000D02*
X37338000Y-10935000D01*
X40330000Y-11398000D02*
X37624000Y-11398000D01*
X37338000Y-12383000D02*
X33083000Y-12383000D01*
X33274000Y-12599938D02*
X33070031Y-12395969D01*
X33274000Y-13970000D02*
X33274000Y-12599938D01*
X37338000Y-12383000D02*
X37338000Y-11684000D01*
X19254480Y-39686520D02*
X10539520Y-39686520D01*
X20320000Y-22860000D02*
X20320000Y-37147000D01*
X20079000Y-38862000D02*
X20079000Y-37388000D01*
X20079000Y-37388000D02*
X20129000Y-37338000D01*
X20129000Y-37338000D02*
X22836000Y-37338000D01*
X10539520Y-39686520D02*
X9461000Y-38608000D01*
X20079000Y-38862000D02*
X19254480Y-39686520D01*
X22836000Y-37338000D02*
X24416000Y-35758000D01*
X20320000Y-37147000D02*
X20129000Y-37338000D01*
X28448000Y-24575000D02*
X31409000Y-24575000D01*
X32766000Y-33211000D02*
X32766000Y-25932000D01*
X26911000Y-23038000D02*
X28448000Y-24575000D01*
X26797000Y-24511000D02*
X28384000Y-24511000D01*
X26911000Y-22860000D02*
X26911000Y-23038000D01*
X32766000Y-25932000D02*
X31440000Y-24606000D01*
X17145000Y-28590000D02*
X15945489Y-27390489D01*
X28384000Y-24511000D02*
X28448000Y-24575000D01*
X31409000Y-24575000D02*
X31440000Y-24606000D01*
X15945489Y-18090511D02*
X16002000Y-18034000D01*
X15945489Y-27390489D02*
X15945489Y-18090511D01*
X34544000Y-14857040D02*
X36513480Y-16826520D01*
X12941000Y-7112000D02*
X13616511Y-7787511D01*
X11270000Y-7144000D02*
X11430000Y-6984000D01*
X8184000Y-7144000D02*
X11270000Y-7144000D01*
X34544000Y-13271000D02*
X34544000Y-14857040D01*
X13616511Y-7787511D02*
X13616511Y-15902511D01*
X11430000Y-6984000D02*
X12813000Y-6984000D01*
X12813000Y-6984000D02*
X12941000Y-7112000D01*
X23495000Y-31115000D02*
X23495000Y-12319000D01*
X8184000Y-18574000D02*
X11144000Y-18574000D01*
X12867000Y-12025000D02*
X12867000Y-11280000D01*
X40640000Y-33345000D02*
X40640000Y-29210000D01*
X23495000Y-12319000D02*
X23368000Y-12192000D01*
X12867000Y-16152000D02*
X11176000Y-17843000D01*
X11144000Y-18574000D02*
X11176000Y-18542000D01*
X11176000Y-18542000D02*
X11176000Y-17843000D01*
X12867000Y-11280000D02*
X12763000Y-11176000D01*
X12867000Y-12025000D02*
X12867000Y-16152000D01*
X11144000Y-18574000D02*
X11144000Y-19259000D01*
X11144000Y-19259000D02*
X11176000Y-19291000D01*
X40640000Y-29210000D02*
X41275000Y-28575000D01*
X23622000Y-10160000D02*
X24117511Y-10655511D01*
X13221000Y-29959000D02*
X13264511Y-29915489D01*
X41275000Y-26035000D02*
X43180000Y-27940000D01*
X11176000Y-28511000D02*
X11176000Y-29959000D01*
X24117511Y-10655511D02*
X24117511Y-29197511D01*
X12700000Y-26987000D02*
X12700000Y-23939000D01*
X11131000Y-30004000D02*
X11176000Y-29959000D01*
X43180000Y-27940000D02*
X43180000Y-33345000D01*
X24117511Y-29197511D02*
X26035000Y-31115000D01*
X11176000Y-28511000D02*
X12700000Y-26987000D01*
X11176000Y-29959000D02*
X13221000Y-29959000D01*
X8184000Y-30004000D02*
X11131000Y-30004000D01*
X11144000Y-11144000D02*
X11176000Y-11176000D01*
X11176000Y-11176000D02*
X11176000Y-12637000D01*
X8184000Y-11144000D02*
X11144000Y-11144000D01*
X7811000Y-34377000D02*
X8184000Y-34004000D01*
X7811000Y-38608000D02*
X7811000Y-34377000D01*
X6413000Y-38608000D02*
X7811000Y-38608000D01*
X32766000Y-35560000D02*
X28614000Y-35560000D01*
X32766000Y-35560000D02*
X32766000Y-34861000D01*
X32766000Y-36259000D02*
X32766000Y-35560000D01*
X28614000Y-35560000D02*
X28416000Y-35758000D01*
X31813000Y-16256000D02*
X33211000Y-16256000D01*
X31440000Y-20606000D02*
X31440000Y-16629000D01*
X31440000Y-16629000D02*
X31813000Y-16256000D01*
X33211000Y-16256000D02*
X33274000Y-16319000D01*
X34544000Y-10223000D02*
X37369000Y-7398000D01*
X37369000Y-7398000D02*
X40330000Y-7398000D01*
X34544000Y-11621000D02*
X34544000Y-10223000D01*
X11176000Y-22289000D02*
X12700000Y-22289000D01*
X10891000Y-22574000D02*
X11176000Y-22289000D01*
X8184000Y-22574000D02*
X10891000Y-22574000D01*
G04 #@! TA.AperFunction,Conductor*
G36*
X45055057Y3300500D02*
G01*
X45069858Y3298195D01*
X45069861Y3298195D01*
X45078730Y3296814D01*
X45097411Y3299257D01*
X45120342Y3300148D01*
X45423557Y3284257D01*
X45436665Y3282880D01*
X45676285Y3244928D01*
X45765002Y3230877D01*
X45777902Y3228135D01*
X46099000Y3142097D01*
X46111536Y3138023D01*
X46384358Y3033297D01*
X46421876Y3018895D01*
X46433924Y3013531D01*
X46730120Y2862612D01*
X46741536Y2856021D01*
X47020334Y2674967D01*
X47030996Y2667221D01*
X47289344Y2458016D01*
X47299145Y2449190D01*
X47534190Y2214145D01*
X47543015Y2204345D01*
X47685787Y2028036D01*
X47752221Y1945996D01*
X47759967Y1935334D01*
X47941018Y1656541D01*
X47947612Y1645120D01*
X48098531Y1348924D01*
X48103895Y1336876D01*
X48223021Y1026544D01*
X48227097Y1014000D01*
X48313135Y692902D01*
X48315877Y680002D01*
X48356760Y421876D01*
X48367879Y351671D01*
X48369257Y338557D01*
X48379823Y136951D01*
X48384764Y42670D01*
X48383436Y16688D01*
X48383195Y15144D01*
X48383195Y15140D01*
X48381814Y6270D01*
X48382978Y-2632D01*
X48382978Y-2635D01*
X48385936Y-25251D01*
X48387000Y-41589D01*
X48387000Y-4048359D01*
X48366998Y-4116480D01*
X48313342Y-4162973D01*
X48243068Y-4173077D01*
X48178488Y-4143583D01*
X48153856Y-4114662D01*
X48132332Y-4079880D01*
X48128478Y-4073652D01*
X48003303Y-3948695D01*
X47997072Y-3944854D01*
X47858968Y-3859725D01*
X47858966Y-3859724D01*
X47852738Y-3855885D01*
X47746649Y-3820697D01*
X47691389Y-3802368D01*
X47691387Y-3802368D01*
X47684861Y-3800203D01*
X47678025Y-3799503D01*
X47678022Y-3799502D01*
X47634969Y-3795091D01*
X47580400Y-3789500D01*
X44579600Y-3789500D01*
X44576354Y-3789837D01*
X44576350Y-3789837D01*
X44480693Y-3799762D01*
X44480689Y-3799763D01*
X44473835Y-3800474D01*
X44467299Y-3802655D01*
X44467297Y-3802655D01*
X44413219Y-3820697D01*
X44306055Y-3856450D01*
X44155652Y-3949522D01*
X44030695Y-4074697D01*
X44026855Y-4080927D01*
X44026854Y-4080928D01*
X43976281Y-4162973D01*
X43937885Y-4225262D01*
X43882203Y-4393139D01*
X43871500Y-4497600D01*
X43871500Y-5598400D01*
X43871837Y-5601646D01*
X43871837Y-5601650D01*
X43881531Y-5695075D01*
X43882474Y-5704165D01*
X43884655Y-5710701D01*
X43884655Y-5710703D01*
X43903887Y-5768348D01*
X43938450Y-5871945D01*
X44031522Y-6022348D01*
X44156697Y-6147305D01*
X44162927Y-6151145D01*
X44162928Y-6151146D01*
X44300090Y-6235694D01*
X44307262Y-6240115D01*
X44372140Y-6261634D01*
X44468611Y-6293632D01*
X44468613Y-6293632D01*
X44475139Y-6295797D01*
X44481975Y-6296497D01*
X44481978Y-6296498D01*
X44523031Y-6300704D01*
X44579600Y-6306500D01*
X47580400Y-6306500D01*
X47583646Y-6306163D01*
X47583650Y-6306163D01*
X47679307Y-6296238D01*
X47679311Y-6296237D01*
X47686165Y-6295526D01*
X47692701Y-6293345D01*
X47692703Y-6293345D01*
X47842987Y-6243206D01*
X47853945Y-6239550D01*
X48004348Y-6146478D01*
X48009801Y-6141016D01*
X48124134Y-6026483D01*
X48129305Y-6021303D01*
X48153740Y-5981662D01*
X48206512Y-5934169D01*
X48276584Y-5922745D01*
X48341708Y-5951019D01*
X48381207Y-6010013D01*
X48387000Y-6047778D01*
X48387000Y-12748359D01*
X48366998Y-12816480D01*
X48313342Y-12862973D01*
X48243068Y-12873077D01*
X48178488Y-12843583D01*
X48153856Y-12814662D01*
X48132332Y-12779880D01*
X48128478Y-12773652D01*
X48123018Y-12768201D01*
X48008483Y-12653866D01*
X48003303Y-12648695D01*
X47943703Y-12611957D01*
X47858968Y-12559725D01*
X47858966Y-12559724D01*
X47852738Y-12555885D01*
X47762275Y-12525880D01*
X47691389Y-12502368D01*
X47691387Y-12502368D01*
X47684861Y-12500203D01*
X47678025Y-12499503D01*
X47678022Y-12499502D01*
X47634969Y-12495091D01*
X47580400Y-12489500D01*
X44579600Y-12489500D01*
X44576354Y-12489837D01*
X44576350Y-12489837D01*
X44480693Y-12499762D01*
X44480689Y-12499763D01*
X44473835Y-12500474D01*
X44467299Y-12502655D01*
X44467297Y-12502655D01*
X44397684Y-12525880D01*
X44306055Y-12556450D01*
X44155652Y-12649522D01*
X44030695Y-12774697D01*
X44026855Y-12780927D01*
X44026854Y-12780928D01*
X43955614Y-12896501D01*
X43937885Y-12925262D01*
X43882203Y-13093139D01*
X43871500Y-13197600D01*
X43871500Y-14298400D01*
X43871837Y-14301646D01*
X43871837Y-14301650D01*
X43880086Y-14381148D01*
X43882474Y-14404165D01*
X43884655Y-14410701D01*
X43884655Y-14410703D01*
X43903887Y-14468348D01*
X43938450Y-14571945D01*
X44031522Y-14722348D01*
X44156697Y-14847305D01*
X44162927Y-14851145D01*
X44162928Y-14851146D01*
X44300090Y-14935694D01*
X44307262Y-14940115D01*
X44342009Y-14951640D01*
X44468611Y-14993632D01*
X44468613Y-14993632D01*
X44475139Y-14995797D01*
X44481975Y-14996497D01*
X44481978Y-14996498D01*
X44525031Y-15000909D01*
X44579600Y-15006500D01*
X47580400Y-15006500D01*
X47583646Y-15006163D01*
X47583650Y-15006163D01*
X47679307Y-14996238D01*
X47679311Y-14996237D01*
X47686165Y-14995526D01*
X47692701Y-14993345D01*
X47692703Y-14993345D01*
X47832769Y-14946615D01*
X47853945Y-14939550D01*
X48004348Y-14846478D01*
X48129305Y-14721303D01*
X48153740Y-14681662D01*
X48206512Y-14634169D01*
X48276584Y-14622745D01*
X48341708Y-14651019D01*
X48381207Y-14710013D01*
X48387000Y-14747778D01*
X48387000Y-39955672D01*
X48385500Y-39975057D01*
X48383287Y-39989271D01*
X48381814Y-39998730D01*
X48384257Y-40017410D01*
X48385148Y-40040342D01*
X48369284Y-40343048D01*
X48369257Y-40343554D01*
X48367880Y-40356665D01*
X48340248Y-40531128D01*
X48315877Y-40685002D01*
X48313135Y-40697902D01*
X48227097Y-41019000D01*
X48223023Y-41031536D01*
X48219583Y-41040500D01*
X48103895Y-41341876D01*
X48098531Y-41353924D01*
X47947612Y-41650120D01*
X47941021Y-41661536D01*
X47759967Y-41940334D01*
X47752224Y-41950992D01*
X47543016Y-42209344D01*
X47534190Y-42219145D01*
X47299145Y-42454190D01*
X47289344Y-42463016D01*
X47030996Y-42672221D01*
X47020334Y-42679967D01*
X46741536Y-42861021D01*
X46730120Y-42867612D01*
X46433924Y-43018531D01*
X46421875Y-43023895D01*
X46111536Y-43143023D01*
X46099000Y-43147097D01*
X45777902Y-43233135D01*
X45765002Y-43235877D01*
X45676285Y-43249928D01*
X45436665Y-43287880D01*
X45423557Y-43289257D01*
X45127666Y-43304764D01*
X45101688Y-43303436D01*
X45100144Y-43303195D01*
X45100140Y-43303195D01*
X45091270Y-43301814D01*
X45082368Y-43302978D01*
X45082365Y-43302978D01*
X45059749Y-43305936D01*
X45043411Y-43307000D01*
X32123946Y-43307000D01*
X32055825Y-43286998D01*
X32009332Y-43233342D01*
X31999228Y-43163068D01*
X32004351Y-43141339D01*
X32013797Y-43112861D01*
X32024500Y-43008400D01*
X32024500Y-40007600D01*
X32023580Y-39998730D01*
X32014238Y-39908693D01*
X32014237Y-39908689D01*
X32013526Y-39901835D01*
X32003672Y-39872297D01*
X31959868Y-39741003D01*
X31957550Y-39734055D01*
X31864478Y-39583652D01*
X31846389Y-39565594D01*
X31744483Y-39463866D01*
X31739303Y-39458695D01*
X31733072Y-39454854D01*
X31594968Y-39369725D01*
X31594966Y-39369724D01*
X31588738Y-39365885D01*
X31479167Y-39329542D01*
X31427389Y-39312368D01*
X31427387Y-39312368D01*
X31420861Y-39310203D01*
X31414025Y-39309503D01*
X31414022Y-39309502D01*
X31370969Y-39305091D01*
X31316400Y-39299500D01*
X30215600Y-39299500D01*
X30212354Y-39299837D01*
X30212350Y-39299837D01*
X30116693Y-39309762D01*
X30116689Y-39309763D01*
X30109835Y-39310474D01*
X30103299Y-39312655D01*
X30103297Y-39312655D01*
X29994014Y-39349115D01*
X29942055Y-39366450D01*
X29791652Y-39459522D01*
X29666695Y-39584697D01*
X29662855Y-39590927D01*
X29662854Y-39590928D01*
X29611277Y-39674602D01*
X29573885Y-39735262D01*
X29571581Y-39742209D01*
X29542287Y-39830529D01*
X29518203Y-39903139D01*
X29517503Y-39909975D01*
X29517502Y-39909978D01*
X29513091Y-39953031D01*
X29507500Y-40007600D01*
X29507500Y-43008400D01*
X29507837Y-43011646D01*
X29507837Y-43011650D01*
X29509108Y-43023895D01*
X29518474Y-43114165D01*
X29520655Y-43120702D01*
X29520656Y-43120707D01*
X29527468Y-43141125D01*
X29530052Y-43212074D01*
X29493868Y-43273158D01*
X29430403Y-43304982D01*
X29407944Y-43307000D01*
X23423946Y-43307000D01*
X23355825Y-43286998D01*
X23309332Y-43233342D01*
X23299228Y-43163068D01*
X23304351Y-43141339D01*
X23313797Y-43112861D01*
X23324500Y-43008400D01*
X23324500Y-40007600D01*
X23323580Y-39998730D01*
X23314238Y-39908693D01*
X23314237Y-39908689D01*
X23313526Y-39901835D01*
X23303672Y-39872297D01*
X23259868Y-39741003D01*
X23257550Y-39734055D01*
X23164478Y-39583652D01*
X23146389Y-39565594D01*
X23044483Y-39463866D01*
X23039303Y-39458695D01*
X23033072Y-39454854D01*
X22894968Y-39369725D01*
X22894966Y-39369724D01*
X22888738Y-39365885D01*
X22779167Y-39329542D01*
X22727389Y-39312368D01*
X22727387Y-39312368D01*
X22720861Y-39310203D01*
X22714025Y-39309503D01*
X22714022Y-39309502D01*
X22670969Y-39305091D01*
X22616400Y-39299500D01*
X21515600Y-39299500D01*
X21512354Y-39299837D01*
X21512350Y-39299837D01*
X21416693Y-39309762D01*
X21416689Y-39309763D01*
X21409835Y-39310474D01*
X21403299Y-39312655D01*
X21403297Y-39312655D01*
X21294014Y-39349115D01*
X21242055Y-39366450D01*
X21235827Y-39370304D01*
X21235825Y-39370305D01*
X21218895Y-39380782D01*
X21150444Y-39399620D01*
X21082674Y-39378459D01*
X21037103Y-39324018D01*
X21027248Y-39260796D01*
X21037172Y-39163933D01*
X21037500Y-39160732D01*
X21037500Y-38563268D01*
X21037144Y-38559832D01*
X21030518Y-38495974D01*
X21026887Y-38460981D01*
X20999712Y-38379527D01*
X20975073Y-38305676D01*
X20975072Y-38305674D01*
X20972756Y-38298732D01*
X20950937Y-38263472D01*
X20904730Y-38188803D01*
X20885892Y-38120351D01*
X20907053Y-38052581D01*
X20961494Y-38007010D01*
X21011874Y-37996500D01*
X22753944Y-37996500D01*
X22765800Y-37997059D01*
X22765803Y-37997059D01*
X22773537Y-37998788D01*
X22844369Y-37996562D01*
X22848327Y-37996500D01*
X22877432Y-37996500D01*
X22881832Y-37995944D01*
X22893664Y-37995012D01*
X22939831Y-37993562D01*
X22960421Y-37987580D01*
X22979782Y-37983570D01*
X22986770Y-37982688D01*
X22993204Y-37981875D01*
X22993205Y-37981875D01*
X23001064Y-37980882D01*
X23008429Y-37977966D01*
X23008433Y-37977965D01*
X23044021Y-37963874D01*
X23055231Y-37960035D01*
X23099600Y-37947145D01*
X23118065Y-37936225D01*
X23135805Y-37927534D01*
X23155756Y-37919635D01*
X23193129Y-37892482D01*
X23203048Y-37885967D01*
X23235977Y-37866493D01*
X23235981Y-37866490D01*
X23242807Y-37862453D01*
X23257971Y-37847289D01*
X23273005Y-37834448D01*
X23283943Y-37826501D01*
X23290357Y-37821841D01*
X23319803Y-37786247D01*
X23327792Y-37777468D01*
X23382081Y-37723179D01*
X23444393Y-37689153D01*
X23515208Y-37694218D01*
X23567431Y-37732200D01*
X23567522Y-37732348D01*
X23692697Y-37857305D01*
X23698927Y-37861145D01*
X23698928Y-37861146D01*
X23836288Y-37945816D01*
X23843262Y-37950115D01*
X23898863Y-37968557D01*
X24004611Y-38003632D01*
X24004613Y-38003632D01*
X24011139Y-38005797D01*
X24017975Y-38006497D01*
X24017978Y-38006498D01*
X24061031Y-38010909D01*
X24115600Y-38016500D01*
X24716400Y-38016500D01*
X24719646Y-38016163D01*
X24719650Y-38016163D01*
X24815308Y-38006238D01*
X24815312Y-38006237D01*
X24822166Y-38005526D01*
X24828702Y-38003345D01*
X24828704Y-38003345D01*
X24960806Y-37959272D01*
X24989946Y-37949550D01*
X25140348Y-37856478D01*
X25265305Y-37731303D01*
X25309040Y-37660352D01*
X25361811Y-37612860D01*
X25431883Y-37601436D01*
X25497006Y-37629710D01*
X25523443Y-37660166D01*
X25564063Y-37725807D01*
X25573099Y-37737208D01*
X25687829Y-37851739D01*
X25699240Y-37860751D01*
X25837243Y-37945816D01*
X25850424Y-37951963D01*
X26004710Y-38003138D01*
X26018086Y-38006005D01*
X26112438Y-38015672D01*
X26118854Y-38016000D01*
X26143885Y-38016000D01*
X26159124Y-38011525D01*
X26160329Y-38010135D01*
X26162000Y-38002452D01*
X26162000Y-33518116D01*
X26157525Y-33502877D01*
X26156135Y-33501672D01*
X26148452Y-33500001D01*
X26118905Y-33500001D01*
X26112386Y-33500338D01*
X26016794Y-33510257D01*
X26003400Y-33513149D01*
X25849216Y-33564588D01*
X25836038Y-33570761D01*
X25698193Y-33656063D01*
X25686792Y-33665099D01*
X25572261Y-33779829D01*
X25563249Y-33791240D01*
X25523549Y-33855646D01*
X25470777Y-33903139D01*
X25400706Y-33914563D01*
X25335582Y-33886289D01*
X25309145Y-33855833D01*
X25300497Y-33841857D01*
X25264478Y-33783652D01*
X25139303Y-33658695D01*
X25051975Y-33604865D01*
X24994968Y-33569725D01*
X24994966Y-33569724D01*
X24988738Y-33565885D01*
X24893810Y-33534399D01*
X24827389Y-33512368D01*
X24827387Y-33512368D01*
X24820861Y-33510203D01*
X24814025Y-33509503D01*
X24814022Y-33509502D01*
X24770969Y-33505091D01*
X24716400Y-33499500D01*
X24115600Y-33499500D01*
X24112354Y-33499837D01*
X24112350Y-33499837D01*
X24016692Y-33509762D01*
X24016688Y-33509763D01*
X24009834Y-33510474D01*
X24003298Y-33512655D01*
X24003296Y-33512655D01*
X23986928Y-33518116D01*
X23842054Y-33566450D01*
X23691652Y-33659522D01*
X23566695Y-33784697D01*
X23562855Y-33790927D01*
X23562854Y-33790928D01*
X23504073Y-33886289D01*
X23473885Y-33935262D01*
X23449355Y-34009217D01*
X23438337Y-34042438D01*
X23418203Y-34103139D01*
X23407500Y-34207600D01*
X23407500Y-35783050D01*
X23387498Y-35851171D01*
X23370595Y-35872146D01*
X22600144Y-36642596D01*
X22537832Y-36676621D01*
X22511049Y-36679500D01*
X21104500Y-36679500D01*
X21036379Y-36659498D01*
X20989886Y-36605842D01*
X20978500Y-36553500D01*
X20978500Y-31081695D01*
X22132251Y-31081695D01*
X22132548Y-31086848D01*
X22132548Y-31086851D01*
X22142900Y-31266386D01*
X22145110Y-31304715D01*
X22146247Y-31309761D01*
X22146248Y-31309767D01*
X22162302Y-31381000D01*
X22194222Y-31522639D01*
X22278266Y-31729616D01*
X22329942Y-31813944D01*
X22392291Y-31915688D01*
X22394987Y-31920088D01*
X22541250Y-32088938D01*
X22713126Y-32231632D01*
X22906000Y-32344338D01*
X23114692Y-32424030D01*
X23119760Y-32425061D01*
X23119763Y-32425062D01*
X23210458Y-32443514D01*
X23333597Y-32468567D01*
X23338772Y-32468757D01*
X23338774Y-32468757D01*
X23551673Y-32476564D01*
X23551677Y-32476564D01*
X23556837Y-32476753D01*
X23561957Y-32476097D01*
X23561959Y-32476097D01*
X23773288Y-32449025D01*
X23773289Y-32449025D01*
X23778416Y-32448368D01*
X23784926Y-32446415D01*
X23987429Y-32385661D01*
X23987434Y-32385659D01*
X23992384Y-32384174D01*
X24192994Y-32285896D01*
X24374860Y-32156173D01*
X24533096Y-31998489D01*
X24541087Y-31987369D01*
X24663453Y-31817077D01*
X24664776Y-31818028D01*
X24711645Y-31774857D01*
X24781580Y-31762625D01*
X24847026Y-31790144D01*
X24874875Y-31821994D01*
X24934987Y-31920088D01*
X25081250Y-32088938D01*
X25253126Y-32231632D01*
X25446000Y-32344338D01*
X25654692Y-32424030D01*
X25659760Y-32425061D01*
X25659763Y-32425062D01*
X25750458Y-32443514D01*
X25873597Y-32468567D01*
X25878772Y-32468757D01*
X25878774Y-32468757D01*
X26091673Y-32476564D01*
X26091677Y-32476564D01*
X26096837Y-32476753D01*
X26101957Y-32476097D01*
X26101959Y-32476097D01*
X26313288Y-32449025D01*
X26313289Y-32449025D01*
X26318416Y-32448368D01*
X26324926Y-32446415D01*
X26527429Y-32385661D01*
X26527434Y-32385659D01*
X26532384Y-32384174D01*
X26732994Y-32285896D01*
X26914860Y-32156173D01*
X27073096Y-31998489D01*
X27081087Y-31987369D01*
X27203453Y-31817077D01*
X27204640Y-31817930D01*
X27251960Y-31774362D01*
X27321897Y-31762145D01*
X27387338Y-31789678D01*
X27415166Y-31821511D01*
X27472694Y-31915388D01*
X27478777Y-31923699D01*
X27618213Y-32084667D01*
X27625580Y-32091883D01*
X27789434Y-32227916D01*
X27797881Y-32233831D01*
X27981756Y-32341279D01*
X27991042Y-32345729D01*
X28190001Y-32421703D01*
X28199899Y-32424579D01*
X28303250Y-32445606D01*
X28317299Y-32444410D01*
X28321000Y-32434065D01*
X28321000Y-29798102D01*
X28317082Y-29784758D01*
X28302806Y-29782771D01*
X28264324Y-29788660D01*
X28254288Y-29791051D01*
X28051868Y-29857212D01*
X28042359Y-29861209D01*
X27853463Y-29959542D01*
X27844738Y-29965036D01*
X27674433Y-30092905D01*
X27666726Y-30099748D01*
X27519590Y-30253717D01*
X27513109Y-30261722D01*
X27408498Y-30415074D01*
X27353587Y-30460076D01*
X27283062Y-30468247D01*
X27219315Y-30436993D01*
X27198618Y-30412509D01*
X27117822Y-30287617D01*
X27117820Y-30287614D01*
X27115014Y-30283277D01*
X26964670Y-30118051D01*
X26960619Y-30114852D01*
X26960615Y-30114848D01*
X26793414Y-29982800D01*
X26793410Y-29982798D01*
X26789359Y-29979598D01*
X26753028Y-29959542D01*
X26737136Y-29950769D01*
X26593789Y-29871638D01*
X26588920Y-29869914D01*
X26588916Y-29869912D01*
X26388087Y-29798795D01*
X26388083Y-29798794D01*
X26383212Y-29797069D01*
X26378119Y-29796162D01*
X26378116Y-29796161D01*
X26168373Y-29758800D01*
X26168367Y-29758799D01*
X26163284Y-29757894D01*
X26089452Y-29756992D01*
X25945081Y-29755228D01*
X25945079Y-29755228D01*
X25939911Y-29755165D01*
X25719091Y-29788955D01*
X25718928Y-29787891D01*
X25653329Y-29784488D01*
X25605948Y-29754688D01*
X24812916Y-28961656D01*
X24778890Y-28899344D01*
X24776011Y-28872561D01*
X24776011Y-24511000D01*
X25883496Y-24511000D01*
X25884186Y-24517565D01*
X25902336Y-24690248D01*
X25903458Y-24700928D01*
X25962473Y-24882556D01*
X25965776Y-24888278D01*
X25965777Y-24888279D01*
X25972312Y-24899598D01*
X26057960Y-25047944D01*
X26062378Y-25052851D01*
X26062379Y-25052852D01*
X26140339Y-25139435D01*
X26185747Y-25189866D01*
X26340248Y-25302118D01*
X26346276Y-25304802D01*
X26346278Y-25304803D01*
X26507929Y-25376774D01*
X26514712Y-25379794D01*
X26589026Y-25395590D01*
X26695056Y-25418128D01*
X26695061Y-25418128D01*
X26701513Y-25419500D01*
X26892487Y-25419500D01*
X26898939Y-25418128D01*
X26898944Y-25418128D01*
X27004974Y-25395590D01*
X27079288Y-25379794D01*
X27086071Y-25376774D01*
X27247722Y-25304803D01*
X27247724Y-25304802D01*
X27253752Y-25302118D01*
X27403163Y-25193564D01*
X27470031Y-25169706D01*
X27477224Y-25169500D01*
X27515228Y-25169500D01*
X27583349Y-25189502D01*
X27610852Y-25214540D01*
X27611361Y-25215381D01*
X27706885Y-25310905D01*
X27740911Y-25373217D01*
X27735846Y-25444032D01*
X27706885Y-25489095D01*
X27611361Y-25584619D01*
X27522528Y-25731301D01*
X27520257Y-25738548D01*
X27520256Y-25738550D01*
X27503154Y-25793124D01*
X27471247Y-25894938D01*
X27464500Y-25968365D01*
X27464501Y-26481634D01*
X27464764Y-26484492D01*
X27464764Y-26484501D01*
X27465796Y-26495729D01*
X27471247Y-26555062D01*
X27473246Y-26561440D01*
X27473246Y-26561441D01*
X27507603Y-26671072D01*
X27522528Y-26718699D01*
X27526463Y-26725196D01*
X27529589Y-26732120D01*
X27527757Y-26732947D01*
X27543293Y-26791598D01*
X27521483Y-26859162D01*
X27483151Y-26894748D01*
X27483248Y-26894882D01*
X27328747Y-27007134D01*
X27324326Y-27012044D01*
X27324325Y-27012045D01*
X27221223Y-27126552D01*
X27200960Y-27149056D01*
X27154132Y-27230165D01*
X27127082Y-27277017D01*
X27105473Y-27314444D01*
X27046458Y-27496072D01*
X27045768Y-27502633D01*
X27045768Y-27502635D01*
X27030649Y-27646483D01*
X27026496Y-27686000D01*
X27027186Y-27692565D01*
X27040525Y-27819474D01*
X27046458Y-27875928D01*
X27105473Y-28057556D01*
X27200960Y-28222944D01*
X27205378Y-28227851D01*
X27205379Y-28227852D01*
X27284198Y-28315389D01*
X27328747Y-28364866D01*
X27339285Y-28372522D01*
X27452207Y-28454565D01*
X27483248Y-28477118D01*
X27489276Y-28479802D01*
X27489278Y-28479803D01*
X27651681Y-28552109D01*
X27657712Y-28554794D01*
X27751113Y-28574647D01*
X27838056Y-28593128D01*
X27838061Y-28593128D01*
X27844513Y-28594500D01*
X28035487Y-28594500D01*
X28041939Y-28593128D01*
X28041944Y-28593128D01*
X28128887Y-28574647D01*
X28222288Y-28554794D01*
X28228319Y-28552109D01*
X28390722Y-28479803D01*
X28390724Y-28479802D01*
X28396752Y-28477118D01*
X28427794Y-28454565D01*
X28540715Y-28372522D01*
X28551253Y-28364866D01*
X28595802Y-28315389D01*
X28674621Y-28227852D01*
X28674622Y-28227851D01*
X28679040Y-28222944D01*
X28774527Y-28057556D01*
X28833542Y-27875928D01*
X28839476Y-27819474D01*
X28846453Y-27753092D01*
X28873467Y-27687435D01*
X28879913Y-27680011D01*
X28919619Y-27637728D01*
X28922374Y-27634885D01*
X28942926Y-27614333D01*
X28945638Y-27610837D01*
X28953349Y-27601808D01*
X28979544Y-27573913D01*
X28984972Y-27568133D01*
X28989788Y-27559373D01*
X28995301Y-27549345D01*
X29006158Y-27532816D01*
X29014447Y-27522131D01*
X29014448Y-27522129D01*
X29019304Y-27515869D01*
X29037657Y-27473456D01*
X29042868Y-27462819D01*
X29065124Y-27422337D01*
X29070457Y-27401566D01*
X29076859Y-27382864D01*
X29085379Y-27363177D01*
X29089692Y-27335948D01*
X29092605Y-27317552D01*
X29095013Y-27305926D01*
X29104529Y-27268865D01*
X29104529Y-27268864D01*
X29106500Y-27261188D01*
X29106500Y-27239742D01*
X29108051Y-27220031D01*
X29110166Y-27206678D01*
X29111406Y-27198849D01*
X29107059Y-27152864D01*
X29106500Y-27141006D01*
X29106500Y-27091398D01*
X29126502Y-27023277D01*
X29154751Y-26992246D01*
X29156882Y-26990575D01*
X29163381Y-26986639D01*
X29284639Y-26865381D01*
X29373472Y-26718699D01*
X29388398Y-26671072D01*
X29400123Y-26633657D01*
X29424753Y-26555062D01*
X29431500Y-26481635D01*
X29431499Y-25968366D01*
X29431234Y-25965474D01*
X29425364Y-25901592D01*
X29424753Y-25894938D01*
X29418295Y-25874330D01*
X29375744Y-25738550D01*
X29375743Y-25738548D01*
X29373472Y-25731301D01*
X29321537Y-25645545D01*
X29303359Y-25576919D01*
X29325169Y-25509355D01*
X29380045Y-25464309D01*
X29450563Y-25456082D01*
X29495430Y-25473017D01*
X29598328Y-25536444D01*
X29617262Y-25548115D01*
X29651919Y-25559610D01*
X29778611Y-25601632D01*
X29778613Y-25601632D01*
X29785139Y-25603797D01*
X29791975Y-25604497D01*
X29791978Y-25604498D01*
X29835031Y-25608909D01*
X29889600Y-25614500D01*
X31465050Y-25614500D01*
X31533171Y-25634502D01*
X31554145Y-25651405D01*
X32070595Y-26167855D01*
X32104621Y-26230167D01*
X32107500Y-26256950D01*
X32107500Y-29630500D01*
X32087498Y-29698621D01*
X32033842Y-29745114D01*
X31981500Y-29756500D01*
X30216866Y-29756500D01*
X30154684Y-29763255D01*
X30018295Y-29814385D01*
X29901739Y-29901739D01*
X29814385Y-30018295D01*
X29811233Y-30026704D01*
X29811232Y-30026705D01*
X29769722Y-30137433D01*
X29727081Y-30194198D01*
X29660519Y-30218898D01*
X29591170Y-30203691D01*
X29558546Y-30178004D01*
X29507799Y-30122234D01*
X29500273Y-30115215D01*
X29333139Y-29983222D01*
X29324552Y-29977517D01*
X29138117Y-29874599D01*
X29128705Y-29870369D01*
X28927959Y-29799280D01*
X28917988Y-29796646D01*
X28846837Y-29783972D01*
X28833540Y-29785432D01*
X28829000Y-29799989D01*
X28829000Y-32433517D01*
X28833064Y-32447359D01*
X28846478Y-32449393D01*
X28853184Y-32448534D01*
X28863262Y-32446392D01*
X29067255Y-32385191D01*
X29076842Y-32381433D01*
X29268095Y-32287739D01*
X29276945Y-32282464D01*
X29450328Y-32158792D01*
X29458193Y-32152145D01*
X29562897Y-32047805D01*
X29625268Y-32013889D01*
X29696075Y-32019077D01*
X29752837Y-32061723D01*
X29769819Y-32092826D01*
X29806076Y-32189542D01*
X29814385Y-32211705D01*
X29901739Y-32328261D01*
X30018295Y-32415615D01*
X30154684Y-32466745D01*
X30216866Y-32473500D01*
X31764565Y-32473500D01*
X31832686Y-32493502D01*
X31879179Y-32547158D01*
X31889283Y-32617432D01*
X31872341Y-32664771D01*
X31840528Y-32717301D01*
X31789247Y-32880938D01*
X31782500Y-32954365D01*
X31782501Y-33467634D01*
X31782764Y-33470492D01*
X31782764Y-33470501D01*
X31785475Y-33500001D01*
X31789247Y-33541062D01*
X31791246Y-33547440D01*
X31791246Y-33547441D01*
X31827732Y-33663866D01*
X31840528Y-33704699D01*
X31929361Y-33851381D01*
X32024885Y-33946905D01*
X32058911Y-34009217D01*
X32053846Y-34080032D01*
X32024885Y-34125095D01*
X31929361Y-34220619D01*
X31840528Y-34367301D01*
X31789247Y-34530938D01*
X31782500Y-34604365D01*
X31782501Y-34733521D01*
X31782501Y-34775499D01*
X31762499Y-34843620D01*
X31708844Y-34890113D01*
X31656501Y-34901500D01*
X29550500Y-34901500D01*
X29482379Y-34881498D01*
X29435886Y-34827842D01*
X29424500Y-34775500D01*
X29424500Y-34207600D01*
X29418533Y-34150088D01*
X29414238Y-34108692D01*
X29414237Y-34108688D01*
X29413526Y-34101834D01*
X29395172Y-34046819D01*
X29359868Y-33941002D01*
X29357550Y-33934054D01*
X29264478Y-33783652D01*
X29139303Y-33658695D01*
X29051975Y-33604865D01*
X28994968Y-33569725D01*
X28994966Y-33569724D01*
X28988738Y-33565885D01*
X28893810Y-33534399D01*
X28827389Y-33512368D01*
X28827387Y-33512368D01*
X28820861Y-33510203D01*
X28814025Y-33509503D01*
X28814022Y-33509502D01*
X28770969Y-33505091D01*
X28716400Y-33499500D01*
X28115600Y-33499500D01*
X28112354Y-33499837D01*
X28112350Y-33499837D01*
X28016692Y-33509762D01*
X28016688Y-33509763D01*
X28009834Y-33510474D01*
X28003298Y-33512655D01*
X28003296Y-33512655D01*
X27986928Y-33518116D01*
X27842054Y-33566450D01*
X27691652Y-33659522D01*
X27566695Y-33784697D01*
X27522962Y-33855646D01*
X27522961Y-33855647D01*
X27470189Y-33903140D01*
X27400117Y-33914564D01*
X27334994Y-33886290D01*
X27308557Y-33855834D01*
X27267937Y-33790193D01*
X27258901Y-33778792D01*
X27144171Y-33664261D01*
X27132760Y-33655249D01*
X26994757Y-33570184D01*
X26981576Y-33564037D01*
X26827290Y-33512862D01*
X26813914Y-33509995D01*
X26719562Y-33500328D01*
X26713145Y-33500000D01*
X26688115Y-33500000D01*
X26672876Y-33504475D01*
X26671671Y-33505865D01*
X26670000Y-33513548D01*
X26670000Y-37997884D01*
X26674475Y-38013123D01*
X26675865Y-38014328D01*
X26683548Y-38015999D01*
X26713095Y-38015999D01*
X26719614Y-38015662D01*
X26815206Y-38005743D01*
X26828600Y-38002851D01*
X26982784Y-37951412D01*
X26995962Y-37945239D01*
X27133807Y-37859937D01*
X27145208Y-37850901D01*
X27259739Y-37736171D01*
X27268751Y-37724760D01*
X27308451Y-37660354D01*
X27361223Y-37612861D01*
X27431294Y-37601437D01*
X27496418Y-37629711D01*
X27522854Y-37660166D01*
X27567522Y-37732348D01*
X27692697Y-37857305D01*
X27698927Y-37861145D01*
X27698928Y-37861146D01*
X27836288Y-37945816D01*
X27843262Y-37950115D01*
X27898863Y-37968557D01*
X28004611Y-38003632D01*
X28004613Y-38003632D01*
X28011139Y-38005797D01*
X28017975Y-38006497D01*
X28017978Y-38006498D01*
X28061031Y-38010909D01*
X28115600Y-38016500D01*
X28716400Y-38016500D01*
X28719646Y-38016163D01*
X28719650Y-38016163D01*
X28815308Y-38006238D01*
X28815312Y-38006237D01*
X28822166Y-38005526D01*
X28828702Y-38003345D01*
X28828704Y-38003345D01*
X28960806Y-37959272D01*
X28989946Y-37949550D01*
X29140348Y-37856478D01*
X29265305Y-37731303D01*
X29278464Y-37709955D01*
X29354275Y-37586968D01*
X29354276Y-37586966D01*
X29358115Y-37580738D01*
X29387190Y-37493078D01*
X29411632Y-37419389D01*
X29411632Y-37419387D01*
X29413797Y-37412861D01*
X29414921Y-37401897D01*
X29423094Y-37322120D01*
X29424500Y-37308400D01*
X29424500Y-36344499D01*
X29444502Y-36276379D01*
X29498158Y-36229886D01*
X29550500Y-36218500D01*
X31656500Y-36218500D01*
X31724621Y-36238502D01*
X31771114Y-36292158D01*
X31782500Y-36344499D01*
X31782501Y-36433440D01*
X31782501Y-36515634D01*
X31782764Y-36518492D01*
X31782764Y-36518501D01*
X31785980Y-36553500D01*
X31789247Y-36589062D01*
X31791246Y-36595440D01*
X31791246Y-36595441D01*
X31821994Y-36693556D01*
X31840528Y-36752699D01*
X31929361Y-36899381D01*
X32024885Y-36994905D01*
X32058911Y-37057217D01*
X32053846Y-37128032D01*
X32024885Y-37173095D01*
X31929361Y-37268619D01*
X31840528Y-37415301D01*
X31838257Y-37422548D01*
X31838256Y-37422550D01*
X31817483Y-37488836D01*
X31789247Y-37578938D01*
X31782500Y-37652365D01*
X31782501Y-38165634D01*
X31782764Y-38168492D01*
X31782764Y-38168501D01*
X31785225Y-38195285D01*
X31789247Y-38239062D01*
X31791246Y-38245440D01*
X31791246Y-38245441D01*
X31828864Y-38365478D01*
X31840528Y-38402699D01*
X31929361Y-38549381D01*
X32050619Y-38670639D01*
X32057118Y-38674575D01*
X32059249Y-38676246D01*
X32100512Y-38734020D01*
X32107500Y-38775398D01*
X32107500Y-39033944D01*
X32106941Y-39045800D01*
X32105212Y-39053537D01*
X32105461Y-39061459D01*
X32107438Y-39124369D01*
X32107500Y-39128327D01*
X32107500Y-39157432D01*
X32108056Y-39161832D01*
X32108988Y-39173664D01*
X32110438Y-39219831D01*
X32112650Y-39227444D01*
X32112650Y-39227445D01*
X32116419Y-39240416D01*
X32120430Y-39259782D01*
X32123118Y-39281064D01*
X32126034Y-39288429D01*
X32126035Y-39288433D01*
X32140126Y-39324021D01*
X32143965Y-39335231D01*
X32156855Y-39379600D01*
X32167775Y-39398065D01*
X32176466Y-39415805D01*
X32184365Y-39435756D01*
X32198832Y-39455668D01*
X32211516Y-39473126D01*
X32218033Y-39483048D01*
X32237507Y-39515977D01*
X32237510Y-39515981D01*
X32241547Y-39522807D01*
X32256711Y-39537971D01*
X32269551Y-39553004D01*
X32282159Y-39570357D01*
X32307743Y-39591522D01*
X32317759Y-39599808D01*
X32326538Y-39607798D01*
X32331030Y-39612290D01*
X32365056Y-39674602D01*
X32367244Y-39688211D01*
X32380458Y-39813928D01*
X32439473Y-39995556D01*
X32442776Y-40001278D01*
X32442777Y-40001279D01*
X32448569Y-40011311D01*
X32534960Y-40160944D01*
X32539378Y-40165851D01*
X32539379Y-40165852D01*
X32627295Y-40263493D01*
X32662747Y-40302866D01*
X32817248Y-40415118D01*
X32823276Y-40417802D01*
X32823278Y-40417803D01*
X32985681Y-40490109D01*
X32991712Y-40492794D01*
X33085112Y-40512647D01*
X33172056Y-40531128D01*
X33172061Y-40531128D01*
X33178513Y-40532500D01*
X33369487Y-40532500D01*
X33375939Y-40531128D01*
X33375944Y-40531128D01*
X33462888Y-40512647D01*
X33556288Y-40492794D01*
X33562319Y-40490109D01*
X33724722Y-40417803D01*
X33724724Y-40417802D01*
X33730752Y-40415118D01*
X33885253Y-40302866D01*
X33920705Y-40263493D01*
X34008621Y-40165852D01*
X34008622Y-40165851D01*
X34013040Y-40160944D01*
X34026458Y-40137703D01*
X42975743Y-40137703D01*
X42976302Y-40141947D01*
X42976302Y-40141951D01*
X42991557Y-40257824D01*
X43013268Y-40422734D01*
X43089129Y-40700036D01*
X43090813Y-40703984D01*
X43138059Y-40814749D01*
X43201923Y-40964476D01*
X43349561Y-41211161D01*
X43529313Y-41435528D01*
X43737851Y-41633423D01*
X43971317Y-41801186D01*
X43975112Y-41803195D01*
X43975113Y-41803196D01*
X43996869Y-41814715D01*
X44225392Y-41935712D01*
X44495373Y-42034511D01*
X44776264Y-42095755D01*
X44804841Y-42098004D01*
X44999282Y-42113307D01*
X44999291Y-42113307D01*
X45001739Y-42113500D01*
X45157271Y-42113500D01*
X45159407Y-42113354D01*
X45159418Y-42113354D01*
X45367548Y-42099165D01*
X45367554Y-42099164D01*
X45371825Y-42098873D01*
X45376020Y-42098004D01*
X45376022Y-42098004D01*
X45512584Y-42069723D01*
X45653342Y-42040574D01*
X45924343Y-41944607D01*
X46179812Y-41812750D01*
X46183313Y-41810289D01*
X46183317Y-41810287D01*
X46297417Y-41730096D01*
X46415023Y-41647441D01*
X46625622Y-41451740D01*
X46807713Y-41229268D01*
X46957927Y-40984142D01*
X47073483Y-40720898D01*
X47086885Y-40673852D01*
X47127150Y-40532500D01*
X47152244Y-40444406D01*
X47189322Y-40183876D01*
X47192146Y-40164036D01*
X47192146Y-40164034D01*
X47192751Y-40159784D01*
X47192845Y-40141951D01*
X47194235Y-39876583D01*
X47194235Y-39876576D01*
X47194257Y-39872297D01*
X47189426Y-39835598D01*
X47161568Y-39624000D01*
X47156732Y-39587266D01*
X47155498Y-39582753D01*
X47113268Y-39428387D01*
X47080871Y-39309964D01*
X47059017Y-39258729D01*
X46969763Y-39049476D01*
X46969761Y-39049472D01*
X46968077Y-39045524D01*
X46843136Y-38836763D01*
X46822643Y-38802521D01*
X46822640Y-38802517D01*
X46820439Y-38798839D01*
X46640687Y-38574472D01*
X46432149Y-38376577D01*
X46198683Y-38208814D01*
X46176843Y-38197250D01*
X46093811Y-38153287D01*
X45944608Y-38074288D01*
X45756707Y-38005526D01*
X45678658Y-37976964D01*
X45678656Y-37976963D01*
X45674627Y-37975489D01*
X45393736Y-37914245D01*
X45362685Y-37911801D01*
X45170718Y-37896693D01*
X45170709Y-37896693D01*
X45168261Y-37896500D01*
X45012729Y-37896500D01*
X45010593Y-37896646D01*
X45010582Y-37896646D01*
X44802452Y-37910835D01*
X44802446Y-37910836D01*
X44798175Y-37911127D01*
X44793980Y-37911996D01*
X44793978Y-37911996D01*
X44757091Y-37919635D01*
X44516658Y-37969426D01*
X44245657Y-38065393D01*
X43990188Y-38197250D01*
X43986687Y-38199711D01*
X43986683Y-38199713D01*
X43881732Y-38273474D01*
X43754977Y-38362559D01*
X43741134Y-38375423D01*
X43548148Y-38554757D01*
X43544378Y-38558260D01*
X43362287Y-38780732D01*
X43212073Y-39025858D01*
X43210347Y-39029791D01*
X43210346Y-39029792D01*
X43117889Y-39240416D01*
X43096517Y-39289102D01*
X43095342Y-39293229D01*
X43095341Y-39293230D01*
X43071063Y-39378459D01*
X43017756Y-39565594D01*
X43006620Y-39643841D01*
X42979431Y-39834887D01*
X42977249Y-39850216D01*
X42977227Y-39854505D01*
X42977226Y-39854512D01*
X42975765Y-40133417D01*
X42975743Y-40137703D01*
X34026458Y-40137703D01*
X34099431Y-40011311D01*
X34105223Y-40001279D01*
X34105224Y-40001278D01*
X34108527Y-39995556D01*
X34167542Y-39813928D01*
X34171029Y-39780756D01*
X34186814Y-39630565D01*
X34187504Y-39624000D01*
X34181192Y-39563944D01*
X34168232Y-39440635D01*
X34168232Y-39440633D01*
X34167542Y-39434072D01*
X34108527Y-39252444D01*
X34013040Y-39087056D01*
X33989993Y-39061459D01*
X33889675Y-38950045D01*
X33889674Y-38950044D01*
X33885253Y-38945134D01*
X33730752Y-38832882D01*
X33724724Y-38830198D01*
X33724722Y-38830197D01*
X33613424Y-38780644D01*
X33559328Y-38734664D01*
X33538679Y-38666736D01*
X33558031Y-38598428D01*
X33575578Y-38576442D01*
X33602639Y-38549381D01*
X33691472Y-38402699D01*
X33703137Y-38365478D01*
X33726004Y-38292507D01*
X33742753Y-38239062D01*
X33749500Y-38165635D01*
X33749499Y-37652366D01*
X33749234Y-37649474D01*
X33745805Y-37612163D01*
X33742753Y-37578938D01*
X33737487Y-37562133D01*
X33693744Y-37422550D01*
X33693743Y-37422548D01*
X33691472Y-37415301D01*
X33602639Y-37268619D01*
X33507115Y-37173095D01*
X33473089Y-37110783D01*
X33478154Y-37039968D01*
X33507115Y-36994905D01*
X33602639Y-36899381D01*
X33691472Y-36752699D01*
X33742753Y-36589062D01*
X33749500Y-36515635D01*
X33749499Y-36002366D01*
X33742753Y-35928938D01*
X33740754Y-35922559D01*
X33693744Y-35772550D01*
X33693743Y-35772548D01*
X33691472Y-35765301D01*
X33654767Y-35704693D01*
X33606668Y-35625271D01*
X33588489Y-35556641D01*
X33606668Y-35494729D01*
X33687537Y-35361197D01*
X33687538Y-35361195D01*
X33691472Y-35354699D01*
X33742753Y-35191062D01*
X33749500Y-35117635D01*
X33749499Y-34604366D01*
X33749234Y-34601474D01*
X33743364Y-34537592D01*
X33742753Y-34530938D01*
X33691472Y-34367301D01*
X33614176Y-34239669D01*
X34202001Y-34239669D01*
X34202371Y-34246490D01*
X34207895Y-34297352D01*
X34211521Y-34312604D01*
X34256676Y-34433054D01*
X34265214Y-34448649D01*
X34341715Y-34550724D01*
X34354276Y-34563285D01*
X34456351Y-34639786D01*
X34471946Y-34648324D01*
X34592394Y-34693478D01*
X34607649Y-34697105D01*
X34658514Y-34702631D01*
X34665328Y-34703000D01*
X35287885Y-34703000D01*
X35303124Y-34698525D01*
X35304329Y-34697135D01*
X35306000Y-34689452D01*
X35306000Y-34684884D01*
X35814000Y-34684884D01*
X35818475Y-34700123D01*
X35819865Y-34701328D01*
X35827548Y-34702999D01*
X36454669Y-34702999D01*
X36461490Y-34702629D01*
X36512352Y-34697105D01*
X36527604Y-34693479D01*
X36648054Y-34648324D01*
X36663649Y-34639786D01*
X36765724Y-34563285D01*
X36778285Y-34550724D01*
X36854786Y-34448649D01*
X36863325Y-34433052D01*
X36904425Y-34323418D01*
X36947066Y-34266653D01*
X37013628Y-34241953D01*
X37082977Y-34257160D01*
X37117645Y-34285150D01*
X37143219Y-34314674D01*
X37150580Y-34321883D01*
X37314434Y-34457916D01*
X37322881Y-34463831D01*
X37506756Y-34571279D01*
X37516042Y-34575729D01*
X37715001Y-34651703D01*
X37724899Y-34654579D01*
X37828250Y-34675606D01*
X37842299Y-34674410D01*
X37846000Y-34664065D01*
X37846000Y-34663517D01*
X38354000Y-34663517D01*
X38358064Y-34677359D01*
X38371478Y-34679393D01*
X38378184Y-34678534D01*
X38388262Y-34676392D01*
X38592255Y-34615191D01*
X38601842Y-34611433D01*
X38793095Y-34517739D01*
X38801945Y-34512464D01*
X38975328Y-34388792D01*
X38983200Y-34382139D01*
X39134052Y-34231812D01*
X39140730Y-34223965D01*
X39268022Y-34046819D01*
X39269279Y-34047722D01*
X39316373Y-34004362D01*
X39386311Y-33992145D01*
X39451751Y-34019678D01*
X39479579Y-34051511D01*
X39539987Y-34150088D01*
X39686250Y-34318938D01*
X39858126Y-34461632D01*
X40051000Y-34574338D01*
X40055825Y-34576180D01*
X40055826Y-34576181D01*
X40076763Y-34584176D01*
X40259692Y-34654030D01*
X40264760Y-34655061D01*
X40264763Y-34655062D01*
X40359862Y-34674410D01*
X40478597Y-34698567D01*
X40483772Y-34698757D01*
X40483774Y-34698757D01*
X40696673Y-34706564D01*
X40696677Y-34706564D01*
X40701837Y-34706753D01*
X40706957Y-34706097D01*
X40706959Y-34706097D01*
X40918288Y-34679025D01*
X40918289Y-34679025D01*
X40923416Y-34678368D01*
X40928366Y-34676883D01*
X41132429Y-34615661D01*
X41132434Y-34615659D01*
X41137384Y-34614174D01*
X41337994Y-34515896D01*
X41519860Y-34386173D01*
X41678096Y-34228489D01*
X41808453Y-34047077D01*
X41809776Y-34048028D01*
X41856645Y-34004857D01*
X41926580Y-33992625D01*
X41992026Y-34020144D01*
X42019875Y-34051994D01*
X42079987Y-34150088D01*
X42226250Y-34318938D01*
X42398126Y-34461632D01*
X42591000Y-34574338D01*
X42595825Y-34576180D01*
X42595826Y-34576181D01*
X42616763Y-34584176D01*
X42799692Y-34654030D01*
X42804760Y-34655061D01*
X42804763Y-34655062D01*
X42899862Y-34674410D01*
X43018597Y-34698567D01*
X43023772Y-34698757D01*
X43023774Y-34698757D01*
X43236673Y-34706564D01*
X43236677Y-34706564D01*
X43241837Y-34706753D01*
X43246957Y-34706097D01*
X43246959Y-34706097D01*
X43458288Y-34679025D01*
X43458289Y-34679025D01*
X43463416Y-34678368D01*
X43468366Y-34676883D01*
X43672429Y-34615661D01*
X43672434Y-34615659D01*
X43677384Y-34614174D01*
X43877994Y-34515896D01*
X44059860Y-34386173D01*
X44218096Y-34228489D01*
X44348453Y-34047077D01*
X44349776Y-34048028D01*
X44396645Y-34004857D01*
X44466580Y-33992625D01*
X44532026Y-34020144D01*
X44559875Y-34051994D01*
X44619987Y-34150088D01*
X44766250Y-34318938D01*
X44938126Y-34461632D01*
X45131000Y-34574338D01*
X45135825Y-34576180D01*
X45135826Y-34576181D01*
X45156763Y-34584176D01*
X45339692Y-34654030D01*
X45344760Y-34655061D01*
X45344763Y-34655062D01*
X45439862Y-34674410D01*
X45558597Y-34698567D01*
X45563772Y-34698757D01*
X45563774Y-34698757D01*
X45776673Y-34706564D01*
X45776677Y-34706564D01*
X45781837Y-34706753D01*
X45786957Y-34706097D01*
X45786959Y-34706097D01*
X45998288Y-34679025D01*
X45998289Y-34679025D01*
X46003416Y-34678368D01*
X46008366Y-34676883D01*
X46212429Y-34615661D01*
X46212434Y-34615659D01*
X46217384Y-34614174D01*
X46417994Y-34515896D01*
X46599860Y-34386173D01*
X46758096Y-34228489D01*
X46888453Y-34047077D01*
X46901995Y-34019678D01*
X46985136Y-33851453D01*
X46985137Y-33851451D01*
X46987430Y-33846811D01*
X47031928Y-33700350D01*
X47050865Y-33638023D01*
X47050865Y-33638021D01*
X47052370Y-33633069D01*
X47081529Y-33411590D01*
X47083156Y-33345000D01*
X47064852Y-33122361D01*
X47010431Y-32905702D01*
X46921354Y-32700840D01*
X46837110Y-32570619D01*
X46802822Y-32517617D01*
X46802820Y-32517614D01*
X46800014Y-32513277D01*
X46649670Y-32348051D01*
X46645619Y-32344852D01*
X46645615Y-32344848D01*
X46478414Y-32212800D01*
X46478410Y-32212798D01*
X46474359Y-32209598D01*
X46457192Y-32200121D01*
X46383010Y-32159171D01*
X46278789Y-32101638D01*
X46273920Y-32099914D01*
X46273916Y-32099912D01*
X46073087Y-32028795D01*
X46073083Y-32028794D01*
X46068212Y-32027069D01*
X46063119Y-32026162D01*
X46063116Y-32026161D01*
X45853373Y-31988800D01*
X45853367Y-31988799D01*
X45848284Y-31987894D01*
X45774452Y-31986992D01*
X45630081Y-31985228D01*
X45630079Y-31985228D01*
X45624911Y-31985165D01*
X45404091Y-32018955D01*
X45191756Y-32088357D01*
X45118071Y-32126715D01*
X45003487Y-32186364D01*
X44993607Y-32191507D01*
X44989474Y-32194610D01*
X44989471Y-32194612D01*
X44827515Y-32316212D01*
X44814965Y-32325635D01*
X44811393Y-32329373D01*
X44664968Y-32482598D01*
X44660629Y-32487138D01*
X44553201Y-32644621D01*
X44498293Y-32689621D01*
X44427768Y-32697792D01*
X44364021Y-32666538D01*
X44343324Y-32642054D01*
X44262822Y-32517617D01*
X44262820Y-32517614D01*
X44260014Y-32513277D01*
X44109670Y-32348051D01*
X44105619Y-32344852D01*
X44105615Y-32344848D01*
X43938412Y-32212799D01*
X43934359Y-32209598D01*
X43929841Y-32207104D01*
X43929835Y-32207100D01*
X43903605Y-32192620D01*
X43853635Y-32142187D01*
X43838500Y-32082312D01*
X43838500Y-28022059D01*
X43839059Y-28010203D01*
X43840789Y-28002463D01*
X43838562Y-27931611D01*
X43838500Y-27927653D01*
X43838500Y-27898568D01*
X43837946Y-27894179D01*
X43837013Y-27882337D01*
X43837012Y-27882281D01*
X43835562Y-27836169D01*
X43829580Y-27815579D01*
X43825570Y-27796216D01*
X43823875Y-27782796D01*
X43823875Y-27782795D01*
X43822882Y-27774936D01*
X43819966Y-27767571D01*
X43819965Y-27767567D01*
X43805874Y-27731979D01*
X43802035Y-27720769D01*
X43789145Y-27676400D01*
X43778225Y-27657935D01*
X43769534Y-27640195D01*
X43761635Y-27620244D01*
X43734482Y-27582871D01*
X43727967Y-27572952D01*
X43708493Y-27540023D01*
X43708490Y-27540019D01*
X43704453Y-27533193D01*
X43689289Y-27518029D01*
X43676448Y-27502995D01*
X43676212Y-27502670D01*
X43663841Y-27485643D01*
X43628247Y-27456197D01*
X43619468Y-27448208D01*
X42634457Y-26463197D01*
X42600431Y-26400885D01*
X42602994Y-26337473D01*
X42607370Y-26323069D01*
X42636529Y-26101590D01*
X42636611Y-26098240D01*
X42638074Y-26038365D01*
X42638074Y-26038361D01*
X42638156Y-26035000D01*
X42619852Y-25812361D01*
X42565431Y-25595702D01*
X42476354Y-25390840D01*
X42364380Y-25217754D01*
X42357822Y-25207617D01*
X42357820Y-25207614D01*
X42355014Y-25203277D01*
X42204670Y-25038051D01*
X42200619Y-25034852D01*
X42200615Y-25034848D01*
X42033414Y-24902800D01*
X42033410Y-24902798D01*
X42029359Y-24899598D01*
X41987569Y-24876529D01*
X41937598Y-24826097D01*
X41922826Y-24756654D01*
X41947942Y-24690248D01*
X41975294Y-24663641D01*
X42150328Y-24538792D01*
X42158200Y-24532139D01*
X42309052Y-24381812D01*
X42315730Y-24373965D01*
X42440003Y-24201020D01*
X42445313Y-24192183D01*
X42539670Y-24001267D01*
X42543469Y-23991672D01*
X42605377Y-23787910D01*
X42607555Y-23777837D01*
X42608986Y-23766962D01*
X42606775Y-23752778D01*
X42593617Y-23749000D01*
X39958225Y-23749000D01*
X39944694Y-23752973D01*
X39943257Y-23762966D01*
X39973565Y-23897446D01*
X39976645Y-23907275D01*
X40056770Y-24104603D01*
X40061413Y-24113794D01*
X40172694Y-24295388D01*
X40178777Y-24303699D01*
X40318213Y-24464667D01*
X40325580Y-24471883D01*
X40489434Y-24607916D01*
X40497881Y-24613831D01*
X40566969Y-24654203D01*
X40615693Y-24705842D01*
X40628764Y-24775625D01*
X40602033Y-24841396D01*
X40561584Y-24874752D01*
X40548607Y-24881507D01*
X40544474Y-24884610D01*
X40544471Y-24884612D01*
X40385432Y-25004022D01*
X40369965Y-25015635D01*
X40366393Y-25019373D01*
X40219967Y-25172599D01*
X40215629Y-25177138D01*
X40212715Y-25181410D01*
X40212714Y-25181411D01*
X40180160Y-25229134D01*
X40089743Y-25361680D01*
X40066936Y-25410814D01*
X40002134Y-25550419D01*
X39995688Y-25564305D01*
X39935989Y-25779570D01*
X39912251Y-26001695D01*
X39912548Y-26006848D01*
X39912548Y-26006851D01*
X39921873Y-26168568D01*
X39925110Y-26224715D01*
X39926247Y-26229761D01*
X39926248Y-26229767D01*
X39936053Y-26273274D01*
X39974222Y-26442639D01*
X40058266Y-26649616D01*
X40174987Y-26840088D01*
X40321250Y-27008938D01*
X40493126Y-27151632D01*
X40498503Y-27154774D01*
X40566445Y-27194476D01*
X40615169Y-27246114D01*
X40628240Y-27315897D01*
X40601509Y-27381669D01*
X40561055Y-27415027D01*
X40548607Y-27421507D01*
X40544474Y-27424610D01*
X40544471Y-27424612D01*
X40374100Y-27552530D01*
X40369965Y-27555635D01*
X40343935Y-27582874D01*
X40226426Y-27705840D01*
X40215629Y-27717138D01*
X40212715Y-27721410D01*
X40212714Y-27721411D01*
X40128513Y-27844846D01*
X40089743Y-27901680D01*
X40074035Y-27935521D01*
X40008621Y-28076444D01*
X39995688Y-28104305D01*
X39935989Y-28319570D01*
X39912251Y-28541695D01*
X39912548Y-28546848D01*
X39912548Y-28546851D01*
X39918876Y-28656590D01*
X39925110Y-28764715D01*
X39926247Y-28769761D01*
X39926248Y-28769767D01*
X39943974Y-28848419D01*
X39974222Y-28982639D01*
X39976164Y-28987422D01*
X39976167Y-28987431D01*
X39985726Y-29010971D01*
X39992823Y-29081612D01*
X39991025Y-29089711D01*
X39983472Y-29119127D01*
X39983471Y-29119136D01*
X39981500Y-29126812D01*
X39981500Y-29148259D01*
X39979949Y-29167969D01*
X39976594Y-29189152D01*
X39977340Y-29197043D01*
X39980941Y-29235138D01*
X39981500Y-29246996D01*
X39981500Y-32079705D01*
X39961498Y-32147826D01*
X39921441Y-32184572D01*
X39922570Y-32186364D01*
X39918200Y-32189116D01*
X39913607Y-32191507D01*
X39902134Y-32200121D01*
X39758967Y-32307614D01*
X39734965Y-32325635D01*
X39731393Y-32329373D01*
X39584968Y-32482598D01*
X39580629Y-32487138D01*
X39473204Y-32644618D01*
X39472898Y-32645066D01*
X39417987Y-32690069D01*
X39347462Y-32698240D01*
X39283715Y-32666986D01*
X39263018Y-32642502D01*
X39182426Y-32517926D01*
X39176136Y-32509757D01*
X39032806Y-32352240D01*
X39025273Y-32345215D01*
X38858139Y-32213222D01*
X38849552Y-32207517D01*
X38663117Y-32104599D01*
X38653705Y-32100369D01*
X38452959Y-32029280D01*
X38442988Y-32026646D01*
X38371837Y-32013972D01*
X38358540Y-32015432D01*
X38354000Y-32029989D01*
X38354000Y-34663517D01*
X37846000Y-34663517D01*
X37846000Y-33617115D01*
X37841525Y-33601876D01*
X37840135Y-33600671D01*
X37832452Y-33599000D01*
X35832115Y-33599000D01*
X35816876Y-33603475D01*
X35815671Y-33604865D01*
X35814000Y-33612548D01*
X35814000Y-34684884D01*
X35306000Y-34684884D01*
X35306000Y-33617115D01*
X35301525Y-33601876D01*
X35300135Y-33600671D01*
X35292452Y-33599000D01*
X34220116Y-33599000D01*
X34204877Y-33603475D01*
X34203672Y-33604865D01*
X34202001Y-33612548D01*
X34202001Y-34239669D01*
X33614176Y-34239669D01*
X33602639Y-34220619D01*
X33507115Y-34125095D01*
X33473089Y-34062783D01*
X33478154Y-33991968D01*
X33507115Y-33946905D01*
X33602639Y-33851381D01*
X33691472Y-33704699D01*
X33706838Y-33655668D01*
X33718919Y-33617115D01*
X33742753Y-33541062D01*
X33749500Y-33467635D01*
X33749499Y-33072885D01*
X34202000Y-33072885D01*
X34206475Y-33088124D01*
X34207865Y-33089329D01*
X34215548Y-33091000D01*
X35287885Y-33091000D01*
X35303124Y-33086525D01*
X35304329Y-33085135D01*
X35306000Y-33077452D01*
X35306000Y-33072885D01*
X35814000Y-33072885D01*
X35818475Y-33088124D01*
X35819865Y-33089329D01*
X35827548Y-33091000D01*
X37827885Y-33091000D01*
X37843124Y-33086525D01*
X37844329Y-33085135D01*
X37846000Y-33077452D01*
X37846000Y-32028102D01*
X37842082Y-32014758D01*
X37827806Y-32012771D01*
X37789324Y-32018660D01*
X37779288Y-32021051D01*
X37576868Y-32087212D01*
X37567359Y-32091209D01*
X37378463Y-32189542D01*
X37369738Y-32195036D01*
X37199433Y-32322905D01*
X37191726Y-32329748D01*
X37114094Y-32410985D01*
X37052570Y-32446415D01*
X36981657Y-32442958D01*
X36923871Y-32401712D01*
X36905018Y-32368164D01*
X36863324Y-32256946D01*
X36854786Y-32241351D01*
X36778285Y-32139276D01*
X36765724Y-32126715D01*
X36663649Y-32050214D01*
X36648054Y-32041676D01*
X36527606Y-31996522D01*
X36512351Y-31992895D01*
X36461486Y-31987369D01*
X36454672Y-31987000D01*
X35832115Y-31987000D01*
X35816876Y-31991475D01*
X35815671Y-31992865D01*
X35814000Y-32000548D01*
X35814000Y-33072885D01*
X35306000Y-33072885D01*
X35306000Y-32005116D01*
X35301525Y-31989877D01*
X35300135Y-31988672D01*
X35292452Y-31987001D01*
X34665331Y-31987001D01*
X34658510Y-31987371D01*
X34607648Y-31992895D01*
X34592396Y-31996521D01*
X34471946Y-32041676D01*
X34456351Y-32050214D01*
X34354276Y-32126715D01*
X34341715Y-32139276D01*
X34265214Y-32241351D01*
X34256676Y-32256946D01*
X34211522Y-32377394D01*
X34207895Y-32392649D01*
X34202369Y-32443514D01*
X34202000Y-32450328D01*
X34202000Y-33072885D01*
X33749499Y-33072885D01*
X33749499Y-32954366D01*
X33749234Y-32951474D01*
X33743364Y-32887592D01*
X33742753Y-32880938D01*
X33732349Y-32847739D01*
X33693744Y-32724550D01*
X33693743Y-32724548D01*
X33691472Y-32717301D01*
X33602639Y-32570619D01*
X33481381Y-32449361D01*
X33474882Y-32445425D01*
X33472751Y-32443754D01*
X33431488Y-32385980D01*
X33424500Y-32344602D01*
X33424500Y-27506400D01*
X34981500Y-27506400D01*
X34981837Y-27509646D01*
X34981837Y-27509650D01*
X34990891Y-27596905D01*
X34992474Y-27612165D01*
X34994655Y-27618701D01*
X34994655Y-27618703D01*
X35025196Y-27710245D01*
X35048450Y-27779945D01*
X35141522Y-27930348D01*
X35266697Y-28055305D01*
X35272927Y-28059145D01*
X35272928Y-28059146D01*
X35410090Y-28143694D01*
X35417262Y-28148115D01*
X35463228Y-28163361D01*
X35578611Y-28201632D01*
X35578613Y-28201632D01*
X35585139Y-28203797D01*
X35591975Y-28204497D01*
X35591978Y-28204498D01*
X35635031Y-28208909D01*
X35689600Y-28214500D01*
X38690400Y-28214500D01*
X38693646Y-28214163D01*
X38693650Y-28214163D01*
X38789307Y-28204238D01*
X38789311Y-28204237D01*
X38796165Y-28203526D01*
X38802701Y-28201345D01*
X38802703Y-28201345D01*
X38954497Y-28150702D01*
X38963945Y-28147550D01*
X39114348Y-28054478D01*
X39239305Y-27929303D01*
X39256332Y-27901680D01*
X39328275Y-27784968D01*
X39328276Y-27784966D01*
X39332115Y-27778738D01*
X39375982Y-27646483D01*
X39385632Y-27617389D01*
X39385632Y-27617387D01*
X39387797Y-27610861D01*
X39389063Y-27598510D01*
X39393072Y-27559373D01*
X39398500Y-27506400D01*
X39398500Y-26405600D01*
X39396051Y-26381999D01*
X39388238Y-26306693D01*
X39388237Y-26306689D01*
X39387526Y-26299835D01*
X39382243Y-26283998D01*
X39333868Y-26139003D01*
X39331550Y-26132055D01*
X39238478Y-25981652D01*
X39113303Y-25856695D01*
X39079882Y-25836094D01*
X38968968Y-25767725D01*
X38968966Y-25767724D01*
X38962738Y-25763885D01*
X38844912Y-25724804D01*
X38801389Y-25710368D01*
X38801387Y-25710368D01*
X38794861Y-25708203D01*
X38788025Y-25707503D01*
X38788022Y-25707502D01*
X38744969Y-25703091D01*
X38690400Y-25697500D01*
X35689600Y-25697500D01*
X35686354Y-25697837D01*
X35686350Y-25697837D01*
X35590693Y-25707762D01*
X35590689Y-25707763D01*
X35583835Y-25708474D01*
X35577299Y-25710655D01*
X35577297Y-25710655D01*
X35489967Y-25739791D01*
X35416055Y-25764450D01*
X35265652Y-25857522D01*
X35140695Y-25982697D01*
X35136855Y-25988927D01*
X35136854Y-25988928D01*
X35058455Y-26116115D01*
X35047885Y-26133262D01*
X34992203Y-26301139D01*
X34991503Y-26307975D01*
X34991502Y-26307978D01*
X34987923Y-26342910D01*
X34981500Y-26405600D01*
X34981500Y-27506400D01*
X33424500Y-27506400D01*
X33424500Y-26014056D01*
X33425059Y-26002200D01*
X33425059Y-26002197D01*
X33426788Y-25994463D01*
X33424562Y-25923631D01*
X33424500Y-25919673D01*
X33424500Y-25890568D01*
X33423944Y-25886168D01*
X33423012Y-25874330D01*
X33422338Y-25852854D01*
X33421562Y-25828169D01*
X33415580Y-25807579D01*
X33411570Y-25788216D01*
X33409875Y-25774796D01*
X33409875Y-25774795D01*
X33408882Y-25766936D01*
X33405966Y-25759571D01*
X33405965Y-25759567D01*
X33391874Y-25723979D01*
X33388035Y-25712769D01*
X33375145Y-25668400D01*
X33364229Y-25649943D01*
X33355531Y-25632186D01*
X33349409Y-25616723D01*
X33342930Y-25546023D01*
X33375703Y-25483043D01*
X33400256Y-25463198D01*
X33414348Y-25454478D01*
X33539305Y-25329303D01*
X33546889Y-25317000D01*
X33628275Y-25184968D01*
X33628276Y-25184966D01*
X33632115Y-25178738D01*
X33662422Y-25087366D01*
X33685632Y-25017389D01*
X33685632Y-25017387D01*
X33687797Y-25010861D01*
X33688821Y-25000872D01*
X33694054Y-24949794D01*
X33698500Y-24906400D01*
X33698500Y-24305600D01*
X33698163Y-24302350D01*
X33688238Y-24206692D01*
X33688237Y-24206688D01*
X33687526Y-24199834D01*
X33685159Y-24192737D01*
X33633868Y-24039002D01*
X33631550Y-24032054D01*
X33538478Y-23881652D01*
X33413303Y-23756695D01*
X33406949Y-23752778D01*
X33380226Y-23736306D01*
X33342352Y-23712960D01*
X33294860Y-23660189D01*
X33283436Y-23590117D01*
X33311710Y-23524994D01*
X33342166Y-23498557D01*
X33407807Y-23457937D01*
X33419208Y-23448901D01*
X33533739Y-23334171D01*
X33542751Y-23322760D01*
X33627816Y-23184757D01*
X33633963Y-23171576D01*
X33685138Y-23017290D01*
X33688005Y-23003914D01*
X33697672Y-22909562D01*
X33698000Y-22903146D01*
X33698000Y-22878115D01*
X33693525Y-22862876D01*
X33692135Y-22861671D01*
X33684452Y-22860000D01*
X29268000Y-22860000D01*
X29199879Y-22839998D01*
X29153386Y-22786342D01*
X29142000Y-22734000D01*
X29142000Y-22478000D01*
X29162002Y-22409879D01*
X29215658Y-22363386D01*
X29268000Y-22352000D01*
X33679884Y-22352000D01*
X33695123Y-22347525D01*
X33696328Y-22346135D01*
X33697999Y-22338452D01*
X33697999Y-22308905D01*
X33697662Y-22302386D01*
X33687743Y-22206794D01*
X33684851Y-22193400D01*
X33633412Y-22039216D01*
X33627239Y-22026038D01*
X33541937Y-21888193D01*
X33532901Y-21876792D01*
X33509202Y-21853134D01*
X39916500Y-21853134D01*
X39923255Y-21915316D01*
X39974385Y-22051705D01*
X40061739Y-22168261D01*
X40178295Y-22255615D01*
X40186704Y-22258767D01*
X40186705Y-22258768D01*
X40295960Y-22299726D01*
X40352725Y-22342367D01*
X40377425Y-22408929D01*
X40362218Y-22478278D01*
X40342825Y-22504759D01*
X40219590Y-22633717D01*
X40213104Y-22641727D01*
X40093098Y-22817649D01*
X40088000Y-22826623D01*
X39998338Y-23019783D01*
X39994775Y-23029470D01*
X39939389Y-23229183D01*
X39940912Y-23237607D01*
X39953292Y-23241000D01*
X42593344Y-23241000D01*
X42606875Y-23237027D01*
X42608180Y-23227947D01*
X42566214Y-23060875D01*
X42562894Y-23051124D01*
X42477972Y-22855814D01*
X42473105Y-22846739D01*
X42357426Y-22667926D01*
X42351136Y-22659757D01*
X42207293Y-22501677D01*
X42176241Y-22437831D01*
X42184635Y-22367333D01*
X42229812Y-22312564D01*
X42256256Y-22298895D01*
X42363297Y-22258767D01*
X42371705Y-22255615D01*
X42488261Y-22168261D01*
X42575615Y-22051705D01*
X42626745Y-21915316D01*
X42633500Y-21853134D01*
X42633500Y-20056866D01*
X42626745Y-19994684D01*
X42575615Y-19858295D01*
X42488261Y-19741739D01*
X42371705Y-19654385D01*
X42235316Y-19603255D01*
X42173134Y-19596500D01*
X40376866Y-19596500D01*
X40314684Y-19603255D01*
X40178295Y-19654385D01*
X40061739Y-19741739D01*
X39974385Y-19858295D01*
X39923255Y-19994684D01*
X39916500Y-20056866D01*
X39916500Y-21853134D01*
X33509202Y-21853134D01*
X33418171Y-21762261D01*
X33406760Y-21753249D01*
X33342354Y-21713549D01*
X33294861Y-21660777D01*
X33283437Y-21590706D01*
X33311711Y-21525582D01*
X33342167Y-21499145D01*
X33342339Y-21499039D01*
X33414348Y-21454478D01*
X33539305Y-21329303D01*
X33632115Y-21178738D01*
X33659335Y-21096671D01*
X33685632Y-21017389D01*
X33685632Y-21017387D01*
X33687797Y-21010861D01*
X33698500Y-20906400D01*
X33698500Y-20305600D01*
X33697578Y-20296714D01*
X33688238Y-20206692D01*
X33688237Y-20206688D01*
X33687526Y-20199834D01*
X33675141Y-20162710D01*
X33633868Y-20039002D01*
X33631550Y-20032054D01*
X33538478Y-19881652D01*
X33413303Y-19756695D01*
X33389040Y-19741739D01*
X33268968Y-19667725D01*
X33268966Y-19667724D01*
X33262738Y-19663885D01*
X33102254Y-19610655D01*
X33101389Y-19610368D01*
X33101387Y-19610368D01*
X33094861Y-19608203D01*
X33088025Y-19607503D01*
X33088022Y-19607502D01*
X33038243Y-19602402D01*
X32990400Y-19597500D01*
X32224500Y-19597500D01*
X32156379Y-19577498D01*
X32109886Y-19523842D01*
X32098500Y-19471500D01*
X32098500Y-17339274D01*
X32118502Y-17271153D01*
X32172158Y-17224660D01*
X32186820Y-17219040D01*
X32272721Y-17192120D01*
X32306699Y-17181472D01*
X32450637Y-17094301D01*
X32519265Y-17076122D01*
X32581178Y-17094301D01*
X32705301Y-17169472D01*
X32712548Y-17171743D01*
X32712550Y-17171744D01*
X32774226Y-17191072D01*
X32868938Y-17220753D01*
X32942365Y-17227500D01*
X32945263Y-17227500D01*
X33274860Y-17227499D01*
X33605634Y-17227499D01*
X33608492Y-17227236D01*
X33608501Y-17227236D01*
X33644004Y-17223974D01*
X33679062Y-17220753D01*
X33685447Y-17218752D01*
X33835450Y-17171744D01*
X33835452Y-17171743D01*
X33842699Y-17169472D01*
X33989381Y-17080639D01*
X34110639Y-16959381D01*
X34199472Y-16812699D01*
X34212483Y-16771183D01*
X34236786Y-16693629D01*
X34250753Y-16649062D01*
X34257500Y-16575635D01*
X34257499Y-16062366D01*
X34256354Y-16049897D01*
X34251364Y-15995592D01*
X34250753Y-15988938D01*
X34239509Y-15953058D01*
X34201744Y-15832550D01*
X34201743Y-15832548D01*
X34199472Y-15825301D01*
X34180595Y-15794130D01*
X34152956Y-15748493D01*
X34134777Y-15679863D01*
X34156588Y-15612300D01*
X34211464Y-15567254D01*
X34281982Y-15559027D01*
X34349827Y-15594127D01*
X35570510Y-16814810D01*
X35604536Y-16877122D01*
X35606725Y-16890740D01*
X35607325Y-16896451D01*
X35594550Y-16966289D01*
X35546046Y-17018133D01*
X35521892Y-17029139D01*
X35423008Y-17062130D01*
X35423006Y-17062131D01*
X35416055Y-17064450D01*
X35265652Y-17157522D01*
X35140695Y-17282697D01*
X35136855Y-17288927D01*
X35136854Y-17288928D01*
X35058455Y-17416115D01*
X35047885Y-17433262D01*
X35026726Y-17497056D01*
X34998128Y-17583277D01*
X34992203Y-17601139D01*
X34981500Y-17705600D01*
X34981500Y-18806400D01*
X34981837Y-18809646D01*
X34981837Y-18809650D01*
X34988893Y-18877650D01*
X34992474Y-18912165D01*
X34994655Y-18918701D01*
X34994655Y-18918703D01*
X34995701Y-18921837D01*
X35048450Y-19079945D01*
X35141522Y-19230348D01*
X35266697Y-19355305D01*
X35272927Y-19359145D01*
X35272928Y-19359146D01*
X35410090Y-19443694D01*
X35417262Y-19448115D01*
X35487766Y-19471500D01*
X35578611Y-19501632D01*
X35578613Y-19501632D01*
X35585139Y-19503797D01*
X35591975Y-19504497D01*
X35591978Y-19504498D01*
X35635031Y-19508909D01*
X35689600Y-19514500D01*
X38690400Y-19514500D01*
X38693646Y-19514163D01*
X38693650Y-19514163D01*
X38789307Y-19504238D01*
X38789311Y-19504237D01*
X38796165Y-19503526D01*
X38802701Y-19501345D01*
X38802703Y-19501345D01*
X38938099Y-19456173D01*
X38963945Y-19447550D01*
X39114348Y-19354478D01*
X39239305Y-19229303D01*
X39243146Y-19223072D01*
X39328275Y-19084968D01*
X39328276Y-19084966D01*
X39332115Y-19078738D01*
X39367084Y-18973308D01*
X39385632Y-18917389D01*
X39385632Y-18917387D01*
X39387797Y-18910861D01*
X39398500Y-18806400D01*
X39398500Y-17705600D01*
X39398163Y-17702350D01*
X39388238Y-17606693D01*
X39388237Y-17606689D01*
X39387526Y-17599835D01*
X39382175Y-17583794D01*
X39333868Y-17439003D01*
X39331550Y-17432055D01*
X39238478Y-17281652D01*
X39113303Y-17156695D01*
X39080791Y-17136654D01*
X38968968Y-17067725D01*
X38968966Y-17067724D01*
X38962738Y-17063885D01*
X38858895Y-17029442D01*
X38801389Y-17010368D01*
X38801387Y-17010368D01*
X38794861Y-17008203D01*
X38788025Y-17007503D01*
X38788022Y-17007502D01*
X38744969Y-17003091D01*
X38690400Y-16997500D01*
X37548951Y-16997500D01*
X37480830Y-16977498D01*
X37434337Y-16923842D01*
X37423641Y-16858330D01*
X37426294Y-16833086D01*
X37426294Y-16833085D01*
X37426984Y-16826520D01*
X37411100Y-16675388D01*
X37407712Y-16643155D01*
X37407712Y-16643153D01*
X37407022Y-16636592D01*
X37348007Y-16454964D01*
X37341887Y-16444363D01*
X37280189Y-16337500D01*
X37263451Y-16268505D01*
X37286671Y-16201413D01*
X37342478Y-16157526D01*
X37389308Y-16148500D01*
X37433487Y-16148500D01*
X37439939Y-16147128D01*
X37439944Y-16147128D01*
X37526887Y-16128647D01*
X37620288Y-16108794D01*
X37626319Y-16106109D01*
X37788722Y-16033803D01*
X37788724Y-16033802D01*
X37794752Y-16031118D01*
X37816842Y-16015069D01*
X37935408Y-15928925D01*
X37949253Y-15918866D01*
X37971192Y-15894500D01*
X38072621Y-15781852D01*
X38072622Y-15781851D01*
X38077040Y-15776944D01*
X38153079Y-15645241D01*
X38169223Y-15617279D01*
X38169224Y-15617278D01*
X38172527Y-15611556D01*
X38231542Y-15429928D01*
X38233067Y-15415424D01*
X38250814Y-15246565D01*
X38251504Y-15240000D01*
X38244080Y-15169364D01*
X38232232Y-15056635D01*
X38232232Y-15056633D01*
X38231542Y-15050072D01*
X38172527Y-14868444D01*
X38167507Y-14859748D01*
X38150244Y-14829849D01*
X38133505Y-14760854D01*
X38156725Y-14693762D01*
X38167299Y-14681261D01*
X38169261Y-14678759D01*
X38174639Y-14673381D01*
X38263472Y-14526699D01*
X38314753Y-14363062D01*
X38321500Y-14289635D01*
X38321499Y-13776366D01*
X38321234Y-13773474D01*
X38315364Y-13709592D01*
X38314753Y-13702938D01*
X38308157Y-13681889D01*
X38265744Y-13546550D01*
X38265743Y-13546548D01*
X38263472Y-13539301D01*
X38174639Y-13392619D01*
X38079115Y-13297095D01*
X38045089Y-13234783D01*
X38050154Y-13163968D01*
X38079115Y-13118905D01*
X38174639Y-13023381D01*
X38263472Y-12876699D01*
X38267774Y-12862973D01*
X38299655Y-12761240D01*
X38314753Y-12713062D01*
X38321500Y-12639635D01*
X38321500Y-12450338D01*
X38341502Y-12382217D01*
X38395158Y-12335724D01*
X38465432Y-12325620D01*
X38500748Y-12336142D01*
X38501030Y-12336273D01*
X38507262Y-12340115D01*
X38514210Y-12342419D01*
X38514213Y-12342421D01*
X38668611Y-12393632D01*
X38668613Y-12393632D01*
X38675139Y-12395797D01*
X38681975Y-12396497D01*
X38681978Y-12396498D01*
X38714852Y-12399866D01*
X38779600Y-12406500D01*
X41880400Y-12406500D01*
X41883646Y-12406163D01*
X41883650Y-12406163D01*
X41979308Y-12396238D01*
X41979312Y-12396237D01*
X41986166Y-12395526D01*
X41992702Y-12393345D01*
X41992704Y-12393345D01*
X42124806Y-12349272D01*
X42153946Y-12339550D01*
X42304348Y-12246478D01*
X42429305Y-12121303D01*
X42498755Y-12008635D01*
X42518275Y-11976968D01*
X42518276Y-11976966D01*
X42522115Y-11970738D01*
X42554360Y-11873521D01*
X42575632Y-11809389D01*
X42575632Y-11809387D01*
X42577797Y-11802861D01*
X42588500Y-11698400D01*
X42588500Y-11097600D01*
X42585412Y-11067834D01*
X42578238Y-10998692D01*
X42578237Y-10998688D01*
X42577526Y-10991834D01*
X42573785Y-10980619D01*
X42523868Y-10831002D01*
X42521550Y-10824054D01*
X42428478Y-10673652D01*
X42303303Y-10548695D01*
X42295794Y-10544066D01*
X42280217Y-10534464D01*
X42232352Y-10504960D01*
X42184860Y-10452189D01*
X42173436Y-10382117D01*
X42201710Y-10316994D01*
X42232166Y-10290557D01*
X42297807Y-10249937D01*
X42309208Y-10240901D01*
X42423739Y-10126171D01*
X42432751Y-10114760D01*
X42517816Y-9976757D01*
X42523963Y-9963576D01*
X42575138Y-9809290D01*
X42578005Y-9795914D01*
X42587672Y-9701562D01*
X42588000Y-9695146D01*
X42588000Y-9670115D01*
X42583525Y-9654876D01*
X42582135Y-9653671D01*
X42574452Y-9652000D01*
X38086205Y-9652000D01*
X38058360Y-9643824D01*
X38057559Y-9647507D01*
X38018452Y-9639000D01*
X37210000Y-9639000D01*
X37141879Y-9618998D01*
X37095386Y-9565342D01*
X37084000Y-9513000D01*
X37084000Y-9257000D01*
X37104002Y-9188879D01*
X37157658Y-9142386D01*
X37210000Y-9131000D01*
X38306795Y-9131000D01*
X38334640Y-9139176D01*
X38335441Y-9135493D01*
X38374548Y-9144000D01*
X42569884Y-9144000D01*
X42585123Y-9139525D01*
X42586328Y-9138135D01*
X42587999Y-9130452D01*
X42587999Y-9100905D01*
X42587662Y-9094386D01*
X42577743Y-8998794D01*
X42574851Y-8985400D01*
X42523412Y-8831216D01*
X42517239Y-8818038D01*
X42431937Y-8680193D01*
X42422901Y-8668792D01*
X42308171Y-8554261D01*
X42296760Y-8545249D01*
X42232354Y-8505549D01*
X42184861Y-8452777D01*
X42173437Y-8382706D01*
X42201711Y-8317582D01*
X42232167Y-8291145D01*
X42232339Y-8291039D01*
X42304348Y-8246478D01*
X42329283Y-8221500D01*
X42424134Y-8126483D01*
X42429305Y-8121303D01*
X42436033Y-8110388D01*
X42518275Y-7976968D01*
X42518276Y-7976966D01*
X42522115Y-7970738D01*
X42554705Y-7872483D01*
X42575632Y-7809389D01*
X42575632Y-7809387D01*
X42577797Y-7802861D01*
X42578594Y-7795088D01*
X42584018Y-7742141D01*
X42588500Y-7698400D01*
X42588500Y-7097600D01*
X42584186Y-7056019D01*
X42578238Y-6998692D01*
X42578237Y-6998688D01*
X42577526Y-6991834D01*
X42568446Y-6964616D01*
X42523868Y-6831002D01*
X42521550Y-6824054D01*
X42428478Y-6673652D01*
X42303303Y-6548695D01*
X42280351Y-6534547D01*
X42158968Y-6459725D01*
X42158966Y-6459724D01*
X42152738Y-6455885D01*
X42031032Y-6415517D01*
X41991389Y-6402368D01*
X41991387Y-6402368D01*
X41984861Y-6400203D01*
X41978025Y-6399503D01*
X41978022Y-6399502D01*
X41934969Y-6395091D01*
X41880400Y-6389500D01*
X38779600Y-6389500D01*
X38776354Y-6389837D01*
X38776350Y-6389837D01*
X38680692Y-6399762D01*
X38680688Y-6399763D01*
X38673834Y-6400474D01*
X38667298Y-6402655D01*
X38667296Y-6402655D01*
X38615646Y-6419887D01*
X38506054Y-6456450D01*
X38355652Y-6549522D01*
X38230695Y-6674697D01*
X38226854Y-6680928D01*
X38222317Y-6686673D01*
X38220987Y-6685623D01*
X38174893Y-6727108D01*
X38120403Y-6739500D01*
X37451056Y-6739500D01*
X37439200Y-6738941D01*
X37439197Y-6738941D01*
X37431463Y-6737212D01*
X37376446Y-6738941D01*
X37360631Y-6739438D01*
X37356673Y-6739500D01*
X37327568Y-6739500D01*
X37323168Y-6740056D01*
X37311336Y-6740988D01*
X37265169Y-6742438D01*
X37244579Y-6748420D01*
X37225218Y-6752430D01*
X37218230Y-6753312D01*
X37211796Y-6754125D01*
X37211795Y-6754125D01*
X37203936Y-6755118D01*
X37196571Y-6758034D01*
X37196567Y-6758035D01*
X37160979Y-6772126D01*
X37149769Y-6775965D01*
X37105400Y-6788855D01*
X37086943Y-6799771D01*
X37069193Y-6808466D01*
X37049244Y-6816365D01*
X37042833Y-6821023D01*
X37042831Y-6821024D01*
X37011864Y-6843523D01*
X37001946Y-6850038D01*
X36962193Y-6873548D01*
X36947032Y-6888709D01*
X36932000Y-6901548D01*
X36914643Y-6914159D01*
X36888265Y-6946045D01*
X36885193Y-6949758D01*
X36877203Y-6958538D01*
X36581197Y-7254544D01*
X36518885Y-7288570D01*
X36448070Y-7283505D01*
X36391234Y-7240958D01*
X36382983Y-7228449D01*
X36315751Y-7112000D01*
X36299040Y-7083056D01*
X36278198Y-7059908D01*
X36175675Y-6946045D01*
X36175674Y-6946044D01*
X36171253Y-6941134D01*
X36056829Y-6858000D01*
X36022094Y-6832763D01*
X36022093Y-6832762D01*
X36016752Y-6828882D01*
X36010724Y-6826198D01*
X36010722Y-6826197D01*
X35848319Y-6753891D01*
X35848318Y-6753891D01*
X35842288Y-6751206D01*
X35740584Y-6729588D01*
X35661944Y-6712872D01*
X35661939Y-6712872D01*
X35655487Y-6711500D01*
X35464513Y-6711500D01*
X35458061Y-6712872D01*
X35458056Y-6712872D01*
X35379416Y-6729588D01*
X35277712Y-6751206D01*
X35271682Y-6753891D01*
X35271681Y-6753891D01*
X35109278Y-6826197D01*
X35109276Y-6826198D01*
X35103248Y-6828882D01*
X35097907Y-6832762D01*
X35097906Y-6832763D01*
X35063171Y-6858000D01*
X34948747Y-6941134D01*
X34944326Y-6946044D01*
X34944325Y-6946045D01*
X34841803Y-7059908D01*
X34820960Y-7083056D01*
X34725473Y-7248444D01*
X34666458Y-7430072D01*
X34665768Y-7436635D01*
X34665768Y-7436636D01*
X34653677Y-7551671D01*
X34626663Y-7617328D01*
X34568442Y-7657957D01*
X34528367Y-7664500D01*
X34230613Y-7664501D01*
X34212366Y-7664501D01*
X34209508Y-7664764D01*
X34209499Y-7664764D01*
X34173996Y-7668026D01*
X34138938Y-7671247D01*
X34132560Y-7673246D01*
X34132559Y-7673246D01*
X33982550Y-7720256D01*
X33982548Y-7720257D01*
X33975301Y-7722528D01*
X33828619Y-7811361D01*
X33707361Y-7932619D01*
X33618528Y-8079301D01*
X33616257Y-8086548D01*
X33616256Y-8086550D01*
X33609963Y-8106632D01*
X33567247Y-8242938D01*
X33560500Y-8316365D01*
X33560501Y-8829634D01*
X33560764Y-8832492D01*
X33560764Y-8832501D01*
X33562987Y-8856695D01*
X33567247Y-8903062D01*
X33569246Y-8909440D01*
X33569246Y-8909441D01*
X33585062Y-8959908D01*
X33618528Y-9066699D01*
X33707361Y-9213381D01*
X33802885Y-9308905D01*
X33836911Y-9371217D01*
X33831846Y-9442032D01*
X33802885Y-9487095D01*
X33707361Y-9582619D01*
X33618528Y-9729301D01*
X33616257Y-9736548D01*
X33616256Y-9736550D01*
X33604680Y-9773489D01*
X33567247Y-9892938D01*
X33560500Y-9966365D01*
X33560501Y-10479634D01*
X33560764Y-10482492D01*
X33560764Y-10482501D01*
X33562828Y-10504961D01*
X33567247Y-10553062D01*
X33569246Y-10559440D01*
X33569246Y-10559441D01*
X33606990Y-10679880D01*
X33618528Y-10716699D01*
X33622462Y-10723195D01*
X33622463Y-10723197D01*
X33703332Y-10856729D01*
X33721511Y-10925359D01*
X33703332Y-10987271D01*
X33636515Y-11097600D01*
X33618528Y-11127301D01*
X33616257Y-11134548D01*
X33616256Y-11134550D01*
X33611175Y-11150763D01*
X33567247Y-11290938D01*
X33560500Y-11364365D01*
X33560500Y-11425840D01*
X33540498Y-11493961D01*
X33486842Y-11540454D01*
X33416568Y-11550558D01*
X33383251Y-11540946D01*
X33358358Y-11529863D01*
X33358352Y-11529861D01*
X33352319Y-11527175D01*
X33258918Y-11507322D01*
X33171975Y-11488841D01*
X33171970Y-11488841D01*
X33165518Y-11487469D01*
X32974544Y-11487469D01*
X32968092Y-11488841D01*
X32968087Y-11488841D01*
X32881143Y-11507322D01*
X32787743Y-11527175D01*
X32781713Y-11529860D01*
X32781712Y-11529860D01*
X32619309Y-11602166D01*
X32619307Y-11602167D01*
X32613279Y-11604851D01*
X32607938Y-11608731D01*
X32607937Y-11608732D01*
X32579562Y-11629348D01*
X32458778Y-11717103D01*
X32454357Y-11722013D01*
X32454356Y-11722014D01*
X32396060Y-11786759D01*
X32330991Y-11859025D01*
X32312310Y-11891381D01*
X32248403Y-12002072D01*
X32235504Y-12024413D01*
X32176489Y-12206041D01*
X32175799Y-12212602D01*
X32175799Y-12212604D01*
X32166270Y-12303271D01*
X32156527Y-12395969D01*
X32157217Y-12402534D01*
X32173335Y-12555885D01*
X32176489Y-12585897D01*
X32235504Y-12767525D01*
X32238807Y-12773247D01*
X32238808Y-12773248D01*
X32252815Y-12797509D01*
X32330991Y-12932913D01*
X32335409Y-12937820D01*
X32335410Y-12937821D01*
X32406595Y-13016880D01*
X32458778Y-13074835D01*
X32492561Y-13099380D01*
X32563561Y-13150965D01*
X32606915Y-13207188D01*
X32615500Y-13252901D01*
X32615500Y-13802602D01*
X32595498Y-13870723D01*
X32567249Y-13901754D01*
X32565118Y-13903425D01*
X32558619Y-13907361D01*
X32437361Y-14028619D01*
X32348528Y-14175301D01*
X32346257Y-14182548D01*
X32346256Y-14182550D01*
X32341175Y-14198763D01*
X32297247Y-14338938D01*
X32290500Y-14412365D01*
X32290501Y-14925634D01*
X32290764Y-14928492D01*
X32290764Y-14928501D01*
X32292890Y-14951640D01*
X32297247Y-14999062D01*
X32338502Y-15130704D01*
X32339332Y-15133354D01*
X32340616Y-15204338D01*
X32303320Y-15264749D01*
X32239283Y-15295406D01*
X32181421Y-15291268D01*
X32143062Y-15279247D01*
X32069635Y-15272500D01*
X32066737Y-15272500D01*
X31812335Y-15272501D01*
X31556366Y-15272501D01*
X31553508Y-15272764D01*
X31553499Y-15272764D01*
X31517996Y-15276026D01*
X31482938Y-15279247D01*
X31476560Y-15281246D01*
X31476559Y-15281246D01*
X31326550Y-15328256D01*
X31326548Y-15328257D01*
X31319301Y-15330528D01*
X31172619Y-15419361D01*
X31077095Y-15514885D01*
X31014783Y-15548911D01*
X30943968Y-15543846D01*
X30898905Y-15514885D01*
X30803381Y-15419361D01*
X30656699Y-15330528D01*
X30649452Y-15328257D01*
X30649450Y-15328256D01*
X30583164Y-15307483D01*
X30493062Y-15279247D01*
X30419635Y-15272500D01*
X30416737Y-15272500D01*
X30162335Y-15272501D01*
X29906366Y-15272501D01*
X29903508Y-15272764D01*
X29903499Y-15272764D01*
X29867996Y-15276026D01*
X29832938Y-15279247D01*
X29826560Y-15281246D01*
X29826559Y-15281246D01*
X29676550Y-15328256D01*
X29676548Y-15328257D01*
X29669301Y-15330528D01*
X29522619Y-15419361D01*
X29401361Y-15540619D01*
X29312528Y-15687301D01*
X29310257Y-15694548D01*
X29310256Y-15694550D01*
X29293351Y-15748493D01*
X29261247Y-15850938D01*
X29254500Y-15924365D01*
X29254501Y-16587634D01*
X29261247Y-16661062D01*
X29263246Y-16667440D01*
X29263246Y-16667441D01*
X29306496Y-16805450D01*
X29312528Y-16824699D01*
X29316462Y-16831195D01*
X29316463Y-16831197D01*
X29384248Y-16943124D01*
X29402427Y-17011754D01*
X29380616Y-17079317D01*
X29362988Y-17099506D01*
X29360747Y-17101134D01*
X29356326Y-17106044D01*
X29356325Y-17106045D01*
X29238551Y-17236847D01*
X29232960Y-17243056D01*
X29137473Y-17408444D01*
X29078458Y-17590072D01*
X29077768Y-17596633D01*
X29077768Y-17596635D01*
X29065972Y-17708866D01*
X29058496Y-17780000D01*
X29059186Y-17786565D01*
X29076290Y-17949297D01*
X29078458Y-17969928D01*
X29137473Y-18151556D01*
X29140776Y-18157278D01*
X29140777Y-18157279D01*
X29174686Y-18216010D01*
X29232960Y-18316944D01*
X29237378Y-18321851D01*
X29237379Y-18321852D01*
X29318230Y-18411646D01*
X29360747Y-18458866D01*
X29459843Y-18530864D01*
X29507132Y-18565221D01*
X29515248Y-18571118D01*
X29521276Y-18573802D01*
X29521278Y-18573803D01*
X29683681Y-18646109D01*
X29689712Y-18648794D01*
X29783112Y-18668647D01*
X29870056Y-18687128D01*
X29870061Y-18687128D01*
X29876513Y-18688500D01*
X30067487Y-18688500D01*
X30073939Y-18687128D01*
X30073944Y-18687128D01*
X30160888Y-18668647D01*
X30254288Y-18648794D01*
X30260319Y-18646109D01*
X30422722Y-18573803D01*
X30422724Y-18573802D01*
X30428752Y-18571118D01*
X30436869Y-18565221D01*
X30581439Y-18460184D01*
X30648307Y-18436326D01*
X30717458Y-18452406D01*
X30766938Y-18503320D01*
X30781500Y-18562120D01*
X30781500Y-19471500D01*
X30761498Y-19539621D01*
X30707842Y-19586114D01*
X30655500Y-19597500D01*
X29889600Y-19597500D01*
X29886354Y-19597837D01*
X29886350Y-19597837D01*
X29790692Y-19607762D01*
X29790688Y-19607763D01*
X29783834Y-19608474D01*
X29777298Y-19610655D01*
X29777296Y-19610655D01*
X29666197Y-19647721D01*
X29616054Y-19664450D01*
X29465652Y-19757522D01*
X29340695Y-19882697D01*
X29336855Y-19888927D01*
X29336854Y-19888928D01*
X29257025Y-20018435D01*
X29247885Y-20033262D01*
X29245581Y-20040209D01*
X29200513Y-20176086D01*
X29192203Y-20201139D01*
X29191503Y-20207975D01*
X29191502Y-20207978D01*
X29187248Y-20249500D01*
X29181500Y-20305600D01*
X29181500Y-20906400D01*
X29181837Y-20909646D01*
X29181837Y-20909650D01*
X29188432Y-20973206D01*
X29192474Y-21012166D01*
X29248450Y-21179946D01*
X29341522Y-21330348D01*
X29466697Y-21455305D01*
X29537648Y-21499040D01*
X29585140Y-21551811D01*
X29596564Y-21621883D01*
X29568290Y-21687006D01*
X29537834Y-21713443D01*
X29472193Y-21754063D01*
X29460792Y-21763099D01*
X29346261Y-21877829D01*
X29337249Y-21889240D01*
X29286736Y-21971188D01*
X29233964Y-22018681D01*
X29163893Y-22030105D01*
X29113360Y-22012332D01*
X29004120Y-21944996D01*
X28990939Y-21938849D01*
X28842186Y-21889509D01*
X28828810Y-21886642D01*
X28737903Y-21877328D01*
X28732874Y-21877071D01*
X28717876Y-21881475D01*
X28716671Y-21882865D01*
X28715000Y-21890548D01*
X28715000Y-22988000D01*
X28694998Y-23056121D01*
X28641342Y-23102614D01*
X28589000Y-23114000D01*
X28333000Y-23114000D01*
X28264879Y-23093998D01*
X28218386Y-23040342D01*
X28207000Y-22988000D01*
X28207000Y-21895115D01*
X28202525Y-21879876D01*
X28201135Y-21878671D01*
X28193452Y-21877000D01*
X28190562Y-21877000D01*
X28184047Y-21877337D01*
X28091943Y-21886894D01*
X28078544Y-21889788D01*
X27929893Y-21939381D01*
X27916714Y-21945555D01*
X27783827Y-22027788D01*
X27766689Y-22041371D01*
X27765159Y-22039441D01*
X27713120Y-22067903D01*
X27642301Y-22062887D01*
X27605383Y-22039201D01*
X27604628Y-22040157D01*
X27598882Y-22035619D01*
X27593702Y-22030448D01*
X27586548Y-22026038D01*
X27454331Y-21944538D01*
X27454329Y-21944537D01*
X27448101Y-21940698D01*
X27285757Y-21886851D01*
X27278920Y-21886151D01*
X27278918Y-21886150D01*
X27237599Y-21881917D01*
X27184732Y-21876500D01*
X26637268Y-21876500D01*
X26634022Y-21876837D01*
X26634018Y-21876837D01*
X26604730Y-21879876D01*
X26534981Y-21887113D01*
X26526963Y-21889788D01*
X26379676Y-21938927D01*
X26379674Y-21938928D01*
X26372732Y-21941244D01*
X26227287Y-22031248D01*
X26222114Y-22036430D01*
X26217182Y-22041371D01*
X26106448Y-22152298D01*
X26016698Y-22297899D01*
X25962851Y-22460243D01*
X25962151Y-22467080D01*
X25962150Y-22467082D01*
X25958606Y-22501677D01*
X25952500Y-22561268D01*
X25952500Y-23158732D01*
X25963113Y-23261019D01*
X25965295Y-23267559D01*
X26008462Y-23396944D01*
X26017244Y-23423268D01*
X26107248Y-23568713D01*
X26147079Y-23608474D01*
X26189654Y-23650975D01*
X26223733Y-23713257D01*
X26218730Y-23784077D01*
X26186382Y-23831673D01*
X26185747Y-23832134D01*
X26181325Y-23837045D01*
X26181324Y-23837046D01*
X26073382Y-23956928D01*
X26057960Y-23974056D01*
X26042250Y-24001267D01*
X25972334Y-24122365D01*
X25962473Y-24139444D01*
X25903458Y-24321072D01*
X25902768Y-24327633D01*
X25902768Y-24327635D01*
X25891726Y-24432699D01*
X25883496Y-24511000D01*
X24776011Y-24511000D01*
X24776011Y-15794130D01*
X24796013Y-15726009D01*
X24849669Y-15679516D01*
X24919943Y-15669412D01*
X24976073Y-15692194D01*
X25006248Y-15714118D01*
X25012276Y-15716802D01*
X25012278Y-15716803D01*
X25174681Y-15789109D01*
X25180712Y-15791794D01*
X25274112Y-15811647D01*
X25361056Y-15830128D01*
X25361061Y-15830128D01*
X25367513Y-15831500D01*
X25558487Y-15831500D01*
X25564939Y-15830128D01*
X25564944Y-15830128D01*
X25651888Y-15811647D01*
X25745288Y-15791794D01*
X25751319Y-15789109D01*
X25913722Y-15716803D01*
X25913724Y-15716802D01*
X25919752Y-15714118D01*
X26074253Y-15601866D01*
X26098720Y-15574693D01*
X26197621Y-15464852D01*
X26197622Y-15464851D01*
X26202040Y-15459944D01*
X26288968Y-15309381D01*
X26294223Y-15300279D01*
X26294224Y-15300278D01*
X26297527Y-15294556D01*
X26356542Y-15112928D01*
X26364233Y-15039757D01*
X26375814Y-14929565D01*
X26376504Y-14923000D01*
X26371431Y-14874729D01*
X26357232Y-14739635D01*
X26357232Y-14739633D01*
X26356542Y-14733072D01*
X26297527Y-14551444D01*
X26293019Y-14543635D01*
X26235579Y-14444148D01*
X26202040Y-14386056D01*
X26145236Y-14322968D01*
X26078675Y-14249045D01*
X26078674Y-14249044D01*
X26074253Y-14244134D01*
X25953915Y-14156703D01*
X25925094Y-14135763D01*
X25925093Y-14135762D01*
X25919752Y-14131882D01*
X25913724Y-14129198D01*
X25913722Y-14129197D01*
X25751319Y-14056891D01*
X25751318Y-14056891D01*
X25745288Y-14054206D01*
X25643824Y-14032639D01*
X25564944Y-14015872D01*
X25564939Y-14015872D01*
X25558487Y-14014500D01*
X25367513Y-14014500D01*
X25361061Y-14015872D01*
X25361056Y-14015872D01*
X25282176Y-14032639D01*
X25180712Y-14054206D01*
X25174682Y-14056891D01*
X25174681Y-14056891D01*
X25012278Y-14129197D01*
X25012276Y-14129198D01*
X25006248Y-14131882D01*
X25000907Y-14135762D01*
X25000906Y-14135763D01*
X24976072Y-14153806D01*
X24909204Y-14177665D01*
X24840052Y-14161584D01*
X24790572Y-14110670D01*
X24776011Y-14051870D01*
X24776011Y-10737567D01*
X24776570Y-10725711D01*
X24776570Y-10725708D01*
X24778299Y-10717974D01*
X24776073Y-10647142D01*
X24776011Y-10643184D01*
X24776011Y-10614079D01*
X24775455Y-10609679D01*
X24774523Y-10597841D01*
X24773322Y-10559605D01*
X24773073Y-10551680D01*
X24767091Y-10531090D01*
X24763081Y-10511727D01*
X24761386Y-10498307D01*
X24761386Y-10498306D01*
X24760393Y-10490447D01*
X24757477Y-10483082D01*
X24757476Y-10483078D01*
X24743385Y-10447490D01*
X24739546Y-10436280D01*
X24726656Y-10391911D01*
X24715740Y-10373454D01*
X24707045Y-10355704D01*
X24699146Y-10335755D01*
X24694487Y-10329342D01*
X24671988Y-10298375D01*
X24665471Y-10288454D01*
X24641963Y-10248704D01*
X24626802Y-10233543D01*
X24613960Y-10218508D01*
X24601352Y-10201154D01*
X24591210Y-10192764D01*
X24573590Y-10178187D01*
X24533852Y-10119354D01*
X24528596Y-10094273D01*
X24527122Y-10080244D01*
X24515542Y-9970072D01*
X24456527Y-9788444D01*
X24361040Y-9623056D01*
X24333147Y-9592077D01*
X24237675Y-9486045D01*
X24237674Y-9486044D01*
X24233253Y-9481134D01*
X24110311Y-9391811D01*
X24084094Y-9372763D01*
X24084093Y-9372762D01*
X24078752Y-9368882D01*
X24072724Y-9366198D01*
X24072722Y-9366197D01*
X23910319Y-9293891D01*
X23910318Y-9293891D01*
X23904288Y-9291206D01*
X23805157Y-9270135D01*
X23723944Y-9252872D01*
X23723939Y-9252872D01*
X23717487Y-9251500D01*
X23526513Y-9251500D01*
X23520061Y-9252872D01*
X23520056Y-9252872D01*
X23438843Y-9270135D01*
X23339712Y-9291206D01*
X23333682Y-9293891D01*
X23333681Y-9293891D01*
X23171278Y-9366197D01*
X23171276Y-9366198D01*
X23165248Y-9368882D01*
X23159907Y-9372762D01*
X23159906Y-9372763D01*
X23133689Y-9391811D01*
X23010747Y-9481134D01*
X23006326Y-9486044D01*
X23006325Y-9486045D01*
X22910854Y-9592077D01*
X22882960Y-9623056D01*
X22787473Y-9788444D01*
X22728458Y-9970072D01*
X22727768Y-9976633D01*
X22727768Y-9976635D01*
X22711847Y-10128117D01*
X22708496Y-10160000D01*
X22709186Y-10166565D01*
X22727743Y-10343121D01*
X22728458Y-10349928D01*
X22787473Y-10531556D01*
X22790776Y-10537278D01*
X22790777Y-10537279D01*
X22800267Y-10553716D01*
X22882960Y-10696944D01*
X22887378Y-10701851D01*
X22887379Y-10701852D01*
X22991801Y-10817824D01*
X23010747Y-10838866D01*
X23165248Y-10951118D01*
X23171276Y-10953802D01*
X23171278Y-10953803D01*
X23242013Y-10985296D01*
X23339712Y-11028794D01*
X23359208Y-11032938D01*
X23421681Y-11066666D01*
X23456003Y-11128816D01*
X23459011Y-11156185D01*
X23459011Y-11157500D01*
X23439009Y-11225621D01*
X23385353Y-11272114D01*
X23333011Y-11283500D01*
X23272513Y-11283500D01*
X23266061Y-11284872D01*
X23266056Y-11284872D01*
X23206173Y-11297601D01*
X23085712Y-11323206D01*
X23079682Y-11325891D01*
X23079681Y-11325891D01*
X22917278Y-11398197D01*
X22917276Y-11398198D01*
X22911248Y-11400882D01*
X22756747Y-11513134D01*
X22752326Y-11518044D01*
X22752325Y-11518045D01*
X22652108Y-11629348D01*
X22628960Y-11655056D01*
X22578882Y-11741794D01*
X22539856Y-11809389D01*
X22533473Y-11820444D01*
X22474458Y-12002072D01*
X22473768Y-12008633D01*
X22473768Y-12008635D01*
X22465383Y-12088419D01*
X22454496Y-12192000D01*
X22455186Y-12198565D01*
X22470248Y-12341868D01*
X22474458Y-12381928D01*
X22533473Y-12563556D01*
X22536776Y-12569278D01*
X22536777Y-12569279D01*
X22559442Y-12608536D01*
X22628960Y-12728944D01*
X22633378Y-12733851D01*
X22633379Y-12733852D01*
X22690696Y-12797509D01*
X22756747Y-12870866D01*
X22762089Y-12874747D01*
X22762091Y-12874749D01*
X22784561Y-12891074D01*
X22827915Y-12947296D01*
X22836500Y-12993010D01*
X22836500Y-29849705D01*
X22816498Y-29917826D01*
X22776441Y-29954572D01*
X22777570Y-29956364D01*
X22773200Y-29959116D01*
X22768607Y-29961507D01*
X22589965Y-30095635D01*
X22586393Y-30099373D01*
X22459780Y-30231866D01*
X22435629Y-30257138D01*
X22309743Y-30441680D01*
X22262716Y-30542992D01*
X22220184Y-30634620D01*
X22215688Y-30644305D01*
X22155989Y-30859570D01*
X22132251Y-31081695D01*
X20978500Y-31081695D01*
X20978500Y-23534759D01*
X20998502Y-23466638D01*
X21010864Y-23450449D01*
X21054621Y-23401852D01*
X21054622Y-23401851D01*
X21059040Y-23396944D01*
X21133741Y-23267559D01*
X21151223Y-23237279D01*
X21151224Y-23237278D01*
X21154527Y-23231556D01*
X21213542Y-23049928D01*
X21216711Y-23019783D01*
X21232814Y-22866565D01*
X21233504Y-22860000D01*
X21225762Y-22786342D01*
X21214232Y-22676635D01*
X21214232Y-22676633D01*
X21213542Y-22670072D01*
X21154527Y-22488444D01*
X21137517Y-22458981D01*
X21084603Y-22367333D01*
X21059040Y-22323056D01*
X21050104Y-22313131D01*
X20935675Y-22186045D01*
X20935674Y-22186044D01*
X20931253Y-22181134D01*
X20776752Y-22068882D01*
X20770724Y-22066198D01*
X20770722Y-22066197D01*
X20608319Y-21993891D01*
X20608318Y-21993891D01*
X20602288Y-21991206D01*
X20508111Y-21971188D01*
X20421944Y-21952872D01*
X20421939Y-21952872D01*
X20415487Y-21951500D01*
X20224513Y-21951500D01*
X20218061Y-21952872D01*
X20218056Y-21952872D01*
X20131889Y-21971188D01*
X20037712Y-21991206D01*
X20031682Y-21993891D01*
X20031681Y-21993891D01*
X19869278Y-22066197D01*
X19869276Y-22066198D01*
X19863248Y-22068882D01*
X19708747Y-22181134D01*
X19704326Y-22186044D01*
X19704325Y-22186045D01*
X19589897Y-22313131D01*
X19580960Y-22323056D01*
X19555397Y-22367333D01*
X19502484Y-22458981D01*
X19485473Y-22488444D01*
X19426458Y-22670072D01*
X19425768Y-22676633D01*
X19425768Y-22676635D01*
X19414238Y-22786342D01*
X19406496Y-22860000D01*
X19407186Y-22866565D01*
X19423290Y-23019783D01*
X19426458Y-23049928D01*
X19485473Y-23231556D01*
X19488776Y-23237278D01*
X19488777Y-23237279D01*
X19506259Y-23267559D01*
X19580960Y-23396944D01*
X19585378Y-23401851D01*
X19585379Y-23401852D01*
X19629136Y-23450449D01*
X19659854Y-23514456D01*
X19661500Y-23534759D01*
X19661500Y-36325664D01*
X19641498Y-36393785D01*
X19600771Y-36433440D01*
X19488619Y-36501361D01*
X19393095Y-36596885D01*
X19330783Y-36630911D01*
X19259968Y-36625846D01*
X19214905Y-36596885D01*
X19119381Y-36501361D01*
X18972699Y-36412528D01*
X18965452Y-36410257D01*
X18965450Y-36410256D01*
X18899164Y-36389483D01*
X18809062Y-36361247D01*
X18735635Y-36354500D01*
X18714794Y-36354500D01*
X18302371Y-36354501D01*
X18234251Y-36334499D01*
X18187757Y-36280844D01*
X18177061Y-36241671D01*
X18175823Y-36229886D01*
X18165542Y-36132072D01*
X18106527Y-35950444D01*
X18094111Y-35928938D01*
X18069314Y-35885990D01*
X18011040Y-35785056D01*
X17883253Y-35643134D01*
X17728752Y-35530882D01*
X17722724Y-35528198D01*
X17722722Y-35528197D01*
X17560319Y-35455891D01*
X17560318Y-35455891D01*
X17554288Y-35453206D01*
X17460888Y-35433353D01*
X17373944Y-35414872D01*
X17373939Y-35414872D01*
X17367487Y-35413500D01*
X17176513Y-35413500D01*
X17170061Y-35414872D01*
X17170056Y-35414872D01*
X17083112Y-35433353D01*
X16989712Y-35453206D01*
X16983682Y-35455891D01*
X16983681Y-35455891D01*
X16821278Y-35528197D01*
X16821276Y-35528198D01*
X16815248Y-35530882D01*
X16660747Y-35643134D01*
X16532960Y-35785056D01*
X16474686Y-35885990D01*
X16449890Y-35928938D01*
X16437473Y-35950444D01*
X16378458Y-36132072D01*
X16358496Y-36322000D01*
X16359186Y-36328565D01*
X16376934Y-36497424D01*
X16378458Y-36511928D01*
X16437473Y-36693556D01*
X16532960Y-36858944D01*
X16573918Y-36904433D01*
X16604634Y-36968438D01*
X16595871Y-37038891D01*
X16550408Y-37093423D01*
X16494327Y-37113956D01*
X16437316Y-37120351D01*
X16430318Y-37121136D01*
X16423665Y-37123453D01*
X16423664Y-37123453D01*
X16416178Y-37126060D01*
X16264319Y-37178943D01*
X16115251Y-37272091D01*
X16110253Y-37277054D01*
X16110252Y-37277055D01*
X16075467Y-37311598D01*
X15990525Y-37395949D01*
X15986751Y-37401895D01*
X15986750Y-37401897D01*
X15954651Y-37452478D01*
X15896339Y-37544363D01*
X15893974Y-37551005D01*
X15842978Y-37694218D01*
X15837374Y-37709955D01*
X15836541Y-37716943D01*
X15836540Y-37716946D01*
X15827891Y-37789480D01*
X15816561Y-37884496D01*
X15817297Y-37891499D01*
X15817297Y-37891500D01*
X15817415Y-37892619D01*
X15834935Y-38059310D01*
X15837204Y-38065976D01*
X15837205Y-38065979D01*
X15881894Y-38197250D01*
X15891582Y-38225709D01*
X15895272Y-38231707D01*
X15895273Y-38231709D01*
X15979994Y-38369421D01*
X15979997Y-38369424D01*
X15983687Y-38375423D01*
X16106671Y-38501011D01*
X16254424Y-38596231D01*
X16261047Y-38598642D01*
X16261050Y-38598643D01*
X16412977Y-38653940D01*
X16412982Y-38653941D01*
X16419600Y-38656350D01*
X16555354Y-38673500D01*
X16649201Y-38673500D01*
X16779682Y-38658864D01*
X16786902Y-38656350D01*
X16853772Y-38633063D01*
X16945681Y-38601057D01*
X17094749Y-38507909D01*
X17101696Y-38501011D01*
X17214478Y-38389013D01*
X17219475Y-38384051D01*
X17224951Y-38375423D01*
X17285984Y-38279249D01*
X17313661Y-38235637D01*
X17372626Y-38070045D01*
X17374709Y-38052581D01*
X17388093Y-37940339D01*
X17416021Y-37875066D01*
X17474804Y-37835253D01*
X17545780Y-37833541D01*
X17606414Y-37870474D01*
X17626998Y-37901816D01*
X17628528Y-37906699D01*
X17708834Y-38039301D01*
X17712112Y-38044713D01*
X17730291Y-38113342D01*
X17711596Y-38176100D01*
X17638996Y-38293880D01*
X17632849Y-38307061D01*
X17583509Y-38455814D01*
X17580642Y-38469190D01*
X17571328Y-38560097D01*
X17571000Y-38566514D01*
X17571000Y-38589885D01*
X17575475Y-38605124D01*
X17576865Y-38606329D01*
X17584548Y-38608000D01*
X18657000Y-38608000D01*
X18725121Y-38628002D01*
X18771614Y-38681658D01*
X18783000Y-38734000D01*
X18783000Y-38902020D01*
X18762998Y-38970141D01*
X18709342Y-39016634D01*
X18657000Y-39028020D01*
X10864470Y-39028020D01*
X10796349Y-39008018D01*
X10775375Y-38991115D01*
X10406404Y-38622144D01*
X10372378Y-38559832D01*
X10369499Y-38533049D01*
X10369499Y-38276366D01*
X10369234Y-38273474D01*
X10363364Y-38209592D01*
X10362753Y-38202938D01*
X10358323Y-38188803D01*
X10313744Y-38046550D01*
X10313743Y-38046548D01*
X10311472Y-38039301D01*
X10222639Y-37892619D01*
X10214516Y-37884496D01*
X11816561Y-37884496D01*
X11817297Y-37891499D01*
X11817297Y-37891500D01*
X11817415Y-37892619D01*
X11834935Y-38059310D01*
X11837204Y-38065976D01*
X11837205Y-38065979D01*
X11881894Y-38197250D01*
X11891582Y-38225709D01*
X11895272Y-38231707D01*
X11895273Y-38231709D01*
X11979994Y-38369421D01*
X11979997Y-38369424D01*
X11983687Y-38375423D01*
X12106671Y-38501011D01*
X12254424Y-38596231D01*
X12261047Y-38598642D01*
X12261050Y-38598643D01*
X12412977Y-38653940D01*
X12412982Y-38653941D01*
X12419600Y-38656350D01*
X12555354Y-38673500D01*
X12649201Y-38673500D01*
X12779682Y-38658864D01*
X12786902Y-38656350D01*
X12853772Y-38633063D01*
X12945681Y-38601057D01*
X13094749Y-38507909D01*
X13101696Y-38501011D01*
X13214478Y-38389013D01*
X13219475Y-38384051D01*
X13224951Y-38375423D01*
X13285984Y-38279249D01*
X13313661Y-38235637D01*
X13372626Y-38070045D01*
X13374709Y-38052581D01*
X13390214Y-37922551D01*
X13393439Y-37895504D01*
X13388793Y-37851296D01*
X13382295Y-37789480D01*
X13375065Y-37720690D01*
X13372795Y-37714021D01*
X13320687Y-37560955D01*
X13320686Y-37560952D01*
X13318418Y-37554291D01*
X13313388Y-37546115D01*
X13230006Y-37410579D01*
X13230003Y-37410576D01*
X13226313Y-37404577D01*
X13103329Y-37278989D01*
X12955576Y-37183769D01*
X12948953Y-37181358D01*
X12948950Y-37181357D01*
X12797023Y-37126060D01*
X12797018Y-37126059D01*
X12790400Y-37123650D01*
X12654646Y-37106500D01*
X12560799Y-37106500D01*
X12430318Y-37121136D01*
X12423665Y-37123453D01*
X12423664Y-37123453D01*
X12416178Y-37126060D01*
X12264319Y-37178943D01*
X12115251Y-37272091D01*
X12110253Y-37277054D01*
X12110252Y-37277055D01*
X12075467Y-37311598D01*
X11990525Y-37395949D01*
X11986751Y-37401895D01*
X11986750Y-37401897D01*
X11954651Y-37452478D01*
X11896339Y-37544363D01*
X11893974Y-37551005D01*
X11842978Y-37694218D01*
X11837374Y-37709955D01*
X11836541Y-37716943D01*
X11836540Y-37716946D01*
X11827891Y-37789480D01*
X11816561Y-37884496D01*
X10214516Y-37884496D01*
X10101381Y-37771361D01*
X9954699Y-37682528D01*
X9947452Y-37680257D01*
X9947450Y-37680256D01*
X9858449Y-37652365D01*
X9791062Y-37631247D01*
X9717635Y-37624500D01*
X9714737Y-37624500D01*
X9460335Y-37624501D01*
X9204366Y-37624501D01*
X9201508Y-37624764D01*
X9201499Y-37624764D01*
X9165996Y-37628026D01*
X9130938Y-37631247D01*
X9124560Y-37633246D01*
X9124559Y-37633246D01*
X8974550Y-37680256D01*
X8974548Y-37680257D01*
X8967301Y-37682528D01*
X8820619Y-37771361D01*
X8725095Y-37866885D01*
X8662783Y-37900911D01*
X8591968Y-37895846D01*
X8546905Y-37866885D01*
X8506405Y-37826385D01*
X8472379Y-37764073D01*
X8469500Y-37737290D01*
X8469500Y-35138500D01*
X8489502Y-35070379D01*
X8543158Y-35023886D01*
X8595500Y-35012500D01*
X9734400Y-35012500D01*
X9737646Y-35012163D01*
X9737650Y-35012163D01*
X9833308Y-35002238D01*
X9833312Y-35002237D01*
X9840166Y-35001526D01*
X9846702Y-34999345D01*
X9846704Y-34999345D01*
X9978806Y-34955272D01*
X10007946Y-34945550D01*
X10158348Y-34852478D01*
X10283305Y-34727303D01*
X10301901Y-34697135D01*
X10372275Y-34582968D01*
X10372276Y-34582966D01*
X10376115Y-34576738D01*
X10431797Y-34408861D01*
X10433815Y-34389171D01*
X10440672Y-34322240D01*
X10442500Y-34304400D01*
X10442500Y-33703600D01*
X10441862Y-33697450D01*
X10432238Y-33604692D01*
X10432237Y-33604688D01*
X10431526Y-33597834D01*
X10421056Y-33566450D01*
X10377868Y-33437002D01*
X10375550Y-33430054D01*
X10282478Y-33279652D01*
X10157303Y-33154695D01*
X10086352Y-33110960D01*
X10038860Y-33058189D01*
X10027436Y-32988117D01*
X10055710Y-32922994D01*
X10086166Y-32896557D01*
X10151807Y-32855937D01*
X10163208Y-32846901D01*
X10277739Y-32732171D01*
X10286751Y-32720760D01*
X10371816Y-32582757D01*
X10377963Y-32569576D01*
X10413826Y-32461453D01*
X10454257Y-32403094D01*
X10519821Y-32375857D01*
X10589703Y-32388391D01*
X10599533Y-32393860D01*
X10607877Y-32399003D01*
X10621061Y-32405151D01*
X10769814Y-32454491D01*
X10783190Y-32457358D01*
X10874097Y-32466672D01*
X10880513Y-32467000D01*
X10903885Y-32467000D01*
X10919124Y-32462525D01*
X10920329Y-32461135D01*
X10922000Y-32453452D01*
X10922000Y-32448885D01*
X11430000Y-32448885D01*
X11434475Y-32464124D01*
X11435865Y-32465329D01*
X11443548Y-32467000D01*
X11471438Y-32467000D01*
X11477953Y-32466663D01*
X11570057Y-32457106D01*
X11583456Y-32454212D01*
X11732107Y-32404619D01*
X11745286Y-32398445D01*
X11878173Y-32316212D01*
X11889574Y-32307176D01*
X11999986Y-32196571D01*
X12008998Y-32185160D01*
X12091004Y-32052120D01*
X12097151Y-32038939D01*
X12146491Y-31890186D01*
X12149358Y-31876810D01*
X12158672Y-31785903D01*
X12158929Y-31780874D01*
X12154525Y-31765876D01*
X12153135Y-31764671D01*
X12145452Y-31763000D01*
X11448115Y-31763000D01*
X11432876Y-31767475D01*
X11431671Y-31768865D01*
X11430000Y-31776548D01*
X11430000Y-32448885D01*
X10922000Y-32448885D01*
X10922000Y-31381000D01*
X10942002Y-31312879D01*
X10995658Y-31266386D01*
X11048000Y-31255000D01*
X12140885Y-31255000D01*
X12156124Y-31250525D01*
X12157329Y-31249135D01*
X12159000Y-31241452D01*
X12159000Y-31238562D01*
X12158663Y-31232047D01*
X12149106Y-31139943D01*
X12146212Y-31126544D01*
X12096619Y-30977893D01*
X12090445Y-30964714D01*
X12008212Y-30831827D01*
X12000235Y-30821762D01*
X11973600Y-30755951D01*
X11986772Y-30686187D01*
X12035571Y-30634620D01*
X12098983Y-30617500D01*
X12644174Y-30617500D01*
X12712295Y-30637502D01*
X12718235Y-30641564D01*
X12807759Y-30706607D01*
X12813787Y-30709291D01*
X12813789Y-30709292D01*
X12854243Y-30727303D01*
X12982223Y-30784283D01*
X13075623Y-30804136D01*
X13162567Y-30822617D01*
X13162572Y-30822617D01*
X13169024Y-30823989D01*
X13359998Y-30823989D01*
X13366450Y-30822617D01*
X13366455Y-30822617D01*
X13453399Y-30804136D01*
X13546799Y-30784283D01*
X13674779Y-30727303D01*
X13715233Y-30709292D01*
X13715235Y-30709291D01*
X13721263Y-30706607D01*
X13875764Y-30594355D01*
X14003551Y-30452433D01*
X14099038Y-30287045D01*
X14158053Y-30105417D01*
X14159408Y-30092530D01*
X14177325Y-29922054D01*
X14178015Y-29915489D01*
X14164275Y-29784758D01*
X14158743Y-29732124D01*
X14158743Y-29732122D01*
X14158053Y-29725561D01*
X14099038Y-29543933D01*
X14003551Y-29378545D01*
X13919869Y-29285606D01*
X13880186Y-29241534D01*
X13880185Y-29241533D01*
X13875764Y-29236623D01*
X13721263Y-29124371D01*
X13715235Y-29121687D01*
X13715233Y-29121686D01*
X13552830Y-29049380D01*
X13552829Y-29049380D01*
X13546799Y-29046695D01*
X13453398Y-29026842D01*
X13366455Y-29008361D01*
X13366450Y-29008361D01*
X13359998Y-29006989D01*
X13169024Y-29006989D01*
X13162572Y-29008361D01*
X13162567Y-29008361D01*
X13075624Y-29026842D01*
X12982223Y-29046695D01*
X12976193Y-29049380D01*
X12976192Y-29049380D01*
X12813789Y-29121686D01*
X12813787Y-29121687D01*
X12807759Y-29124371D01*
X12653258Y-29236623D01*
X12633279Y-29258812D01*
X12572836Y-29296050D01*
X12539645Y-29300500D01*
X12145943Y-29300500D01*
X12077822Y-29280498D01*
X12031329Y-29226842D01*
X12021225Y-29156568D01*
X12038167Y-29109229D01*
X12067901Y-29060132D01*
X12101472Y-29004699D01*
X12106884Y-28987431D01*
X12126526Y-28924751D01*
X12152753Y-28841062D01*
X12159500Y-28767635D01*
X12159499Y-28510949D01*
X12179501Y-28442830D01*
X12196404Y-28421855D01*
X13107599Y-27510660D01*
X13116380Y-27502670D01*
X13116391Y-27502661D01*
X13123080Y-27498416D01*
X13171621Y-27446726D01*
X13174343Y-27443917D01*
X13194926Y-27423333D01*
X13197638Y-27419837D01*
X13205349Y-27410808D01*
X13222799Y-27392226D01*
X13236972Y-27377133D01*
X13240794Y-27370181D01*
X13247301Y-27358345D01*
X13258158Y-27341816D01*
X13266447Y-27331131D01*
X13266448Y-27331129D01*
X13271304Y-27324869D01*
X13289657Y-27282456D01*
X13294868Y-27271819D01*
X13317124Y-27231337D01*
X13322457Y-27210566D01*
X13328859Y-27191864D01*
X13337379Y-27172177D01*
X13340220Y-27154242D01*
X13344605Y-27126552D01*
X13347013Y-27114926D01*
X13356529Y-27077865D01*
X13356529Y-27077864D01*
X13358500Y-27070188D01*
X13358500Y-27048742D01*
X13360051Y-27029031D01*
X13362166Y-27015678D01*
X13363406Y-27007849D01*
X13359059Y-26961864D01*
X13358500Y-26950006D01*
X13358500Y-24805398D01*
X13378502Y-24737277D01*
X13406751Y-24706246D01*
X13408882Y-24704575D01*
X13415381Y-24700639D01*
X13536639Y-24579381D01*
X13625472Y-24432699D01*
X13642985Y-24376817D01*
X13664279Y-24308866D01*
X13676753Y-24269062D01*
X13683500Y-24195635D01*
X13683500Y-23939000D01*
X13683499Y-23685249D01*
X13683499Y-23682366D01*
X13682893Y-23675762D01*
X13677885Y-23621263D01*
X13676753Y-23608938D01*
X13664147Y-23568713D01*
X13627744Y-23452550D01*
X13627743Y-23452548D01*
X13625472Y-23445301D01*
X13536639Y-23298619D01*
X13441115Y-23203095D01*
X13407089Y-23140783D01*
X13412154Y-23069968D01*
X13441115Y-23024905D01*
X13536639Y-22929381D01*
X13625472Y-22782699D01*
X13640734Y-22734000D01*
X13648517Y-22709164D01*
X13676753Y-22619062D01*
X13683500Y-22545635D01*
X13683499Y-22032366D01*
X13683079Y-22027788D01*
X13677364Y-21965592D01*
X13676753Y-21958938D01*
X13670482Y-21938927D01*
X13627744Y-21802550D01*
X13627743Y-21802548D01*
X13625472Y-21795301D01*
X13536639Y-21648619D01*
X13415381Y-21527361D01*
X13268699Y-21438528D01*
X13261452Y-21436257D01*
X13261450Y-21436256D01*
X13195164Y-21415483D01*
X13105062Y-21387247D01*
X13031635Y-21380500D01*
X13028737Y-21380500D01*
X12699140Y-21380501D01*
X12368366Y-21380501D01*
X12365508Y-21380764D01*
X12365499Y-21380764D01*
X12301597Y-21386635D01*
X12301595Y-21386635D01*
X12294938Y-21387247D01*
X12289324Y-21389006D01*
X12218903Y-21382799D01*
X12162778Y-21339320D01*
X12139069Y-21272399D01*
X12145285Y-21225822D01*
X12146490Y-21222188D01*
X12149358Y-21208810D01*
X12158672Y-21117903D01*
X12158929Y-21112874D01*
X12154525Y-21097876D01*
X12153135Y-21096671D01*
X12145452Y-21095000D01*
X11048000Y-21095000D01*
X10979879Y-21074998D01*
X10933386Y-21021342D01*
X10922000Y-20969000D01*
X10922000Y-20713000D01*
X10942002Y-20644879D01*
X10995658Y-20598386D01*
X11048000Y-20587000D01*
X12140885Y-20587000D01*
X12156124Y-20582525D01*
X12157329Y-20581135D01*
X12159000Y-20573452D01*
X12159000Y-20570562D01*
X12158663Y-20564047D01*
X12149106Y-20471943D01*
X12146212Y-20458544D01*
X12096619Y-20309893D01*
X12090445Y-20296714D01*
X12008212Y-20163827D01*
X11994629Y-20146689D01*
X11996559Y-20145159D01*
X11968097Y-20093120D01*
X11973113Y-20022301D01*
X11996799Y-19985383D01*
X11995843Y-19984628D01*
X12000381Y-19978882D01*
X12005552Y-19973702D01*
X12058454Y-19887880D01*
X12091462Y-19834331D01*
X12091463Y-19834329D01*
X12095302Y-19828101D01*
X12149149Y-19665757D01*
X12159500Y-19564732D01*
X12159500Y-19017268D01*
X12148887Y-18914981D01*
X12094756Y-18752732D01*
X12011160Y-18617643D01*
X11992324Y-18549193D01*
X12012836Y-18483500D01*
X12012639Y-18483381D01*
X12013123Y-18482581D01*
X12101472Y-18336699D01*
X12152753Y-18173062D01*
X12159500Y-18099635D01*
X12159500Y-18034000D01*
X15088496Y-18034000D01*
X15089186Y-18040565D01*
X15105683Y-18197522D01*
X15108458Y-18223928D01*
X15167473Y-18405556D01*
X15170776Y-18411278D01*
X15170777Y-18411279D01*
X15200493Y-18462749D01*
X15262960Y-18570944D01*
X15263624Y-18571682D01*
X15286783Y-18636587D01*
X15286989Y-18643782D01*
X15286989Y-27308433D01*
X15286430Y-27320289D01*
X15284701Y-27328026D01*
X15284950Y-27335948D01*
X15286927Y-27398858D01*
X15286989Y-27402816D01*
X15286989Y-27431921D01*
X15287545Y-27436321D01*
X15288477Y-27448153D01*
X15289927Y-27494320D01*
X15294778Y-27511015D01*
X15295908Y-27514905D01*
X15299919Y-27534273D01*
X15301093Y-27543564D01*
X15302607Y-27555553D01*
X15305523Y-27562918D01*
X15305524Y-27562922D01*
X15319615Y-27598510D01*
X15323454Y-27609720D01*
X15336344Y-27654089D01*
X15347264Y-27672554D01*
X15355955Y-27690294D01*
X15363854Y-27710245D01*
X15378230Y-27730032D01*
X15391005Y-27747615D01*
X15397522Y-27757537D01*
X15416996Y-27790466D01*
X15416999Y-27790470D01*
X15421036Y-27797296D01*
X15436200Y-27812460D01*
X15449040Y-27827493D01*
X15461648Y-27844846D01*
X15492802Y-27870619D01*
X15497241Y-27874291D01*
X15506021Y-27882281D01*
X15787101Y-28163361D01*
X15821127Y-28225673D01*
X15819424Y-28286125D01*
X15805989Y-28334570D01*
X15782251Y-28556695D01*
X15782548Y-28561848D01*
X15782548Y-28561851D01*
X15793241Y-28747296D01*
X15795110Y-28779715D01*
X15796247Y-28784761D01*
X15796248Y-28784767D01*
X15808935Y-28841062D01*
X15844222Y-28997639D01*
X15928266Y-29204616D01*
X15961476Y-29258810D01*
X16020500Y-29355128D01*
X16044987Y-29395088D01*
X16191250Y-29563938D01*
X16195230Y-29567242D01*
X16199981Y-29571187D01*
X16239616Y-29630090D01*
X16241113Y-29701071D01*
X16203997Y-29761593D01*
X16163725Y-29786112D01*
X16104312Y-29808385D01*
X16048295Y-29829385D01*
X15931739Y-29916739D01*
X15844385Y-30033295D01*
X15793255Y-30169684D01*
X15786500Y-30231866D01*
X15786500Y-32028134D01*
X15793255Y-32090316D01*
X15844385Y-32226705D01*
X15931739Y-32343261D01*
X16048295Y-32430615D01*
X16184684Y-32481745D01*
X16246866Y-32488500D01*
X18043134Y-32488500D01*
X18105316Y-32481745D01*
X18241705Y-32430615D01*
X18358261Y-32343261D01*
X18445615Y-32226705D01*
X18496745Y-32090316D01*
X18503500Y-32028134D01*
X18503500Y-30231866D01*
X18496745Y-30169684D01*
X18445615Y-30033295D01*
X18358261Y-29916739D01*
X18241705Y-29829385D01*
X18185688Y-29808385D01*
X18123203Y-29784960D01*
X18066439Y-29742318D01*
X18041739Y-29675756D01*
X18056947Y-29606408D01*
X18078493Y-29577727D01*
X18183096Y-29473489D01*
X18189195Y-29465002D01*
X18310435Y-29296277D01*
X18313453Y-29292077D01*
X18319078Y-29280697D01*
X18410136Y-29096453D01*
X18410137Y-29096451D01*
X18412430Y-29091811D01*
X18467009Y-28912172D01*
X18475865Y-28883023D01*
X18475865Y-28883021D01*
X18477370Y-28878069D01*
X18506529Y-28656590D01*
X18506832Y-28644206D01*
X18508074Y-28593365D01*
X18508074Y-28593361D01*
X18508156Y-28590000D01*
X18489852Y-28367361D01*
X18435431Y-28150702D01*
X18346354Y-27945840D01*
X18255923Y-27806055D01*
X18227822Y-27762617D01*
X18227820Y-27762614D01*
X18225014Y-27758277D01*
X18074670Y-27593051D01*
X18070619Y-27589852D01*
X18070615Y-27589848D01*
X17903414Y-27457800D01*
X17903410Y-27457798D01*
X17899359Y-27454598D01*
X17887784Y-27448208D01*
X17876929Y-27442216D01*
X17857569Y-27431529D01*
X17807598Y-27381097D01*
X17792826Y-27311654D01*
X17817942Y-27245248D01*
X17845294Y-27218641D01*
X18020328Y-27093792D01*
X18028200Y-27087139D01*
X18179052Y-26936812D01*
X18185730Y-26928965D01*
X18310003Y-26756020D01*
X18315313Y-26747183D01*
X18409670Y-26556267D01*
X18413469Y-26546672D01*
X18475377Y-26342910D01*
X18477555Y-26332837D01*
X18478986Y-26321962D01*
X18476775Y-26307778D01*
X18463617Y-26304000D01*
X17017000Y-26304000D01*
X16948879Y-26283998D01*
X16902386Y-26230342D01*
X16891000Y-26178000D01*
X16891000Y-25777885D01*
X17399000Y-25777885D01*
X17403475Y-25793124D01*
X17404865Y-25794329D01*
X17412548Y-25796000D01*
X18463344Y-25796000D01*
X18476875Y-25792027D01*
X18478180Y-25782947D01*
X18436214Y-25615875D01*
X18432894Y-25606124D01*
X18347972Y-25410814D01*
X18343105Y-25401739D01*
X18227426Y-25222926D01*
X18221136Y-25214757D01*
X18077806Y-25057240D01*
X18070273Y-25050215D01*
X17903139Y-24918222D01*
X17894552Y-24912517D01*
X17708117Y-24809599D01*
X17698705Y-24805369D01*
X17497959Y-24734280D01*
X17487988Y-24731646D01*
X17416837Y-24718972D01*
X17403540Y-24720432D01*
X17399000Y-24734989D01*
X17399000Y-25777885D01*
X16891000Y-25777885D01*
X16891000Y-24733102D01*
X16887082Y-24719758D01*
X16872806Y-24717771D01*
X16834324Y-24723660D01*
X16824288Y-24726051D01*
X16769134Y-24744078D01*
X16698170Y-24746229D01*
X16637308Y-24709673D01*
X16605872Y-24646015D01*
X16603989Y-24624313D01*
X16603989Y-18771521D01*
X16623991Y-18703400D01*
X16636353Y-18687211D01*
X16736621Y-18575852D01*
X16736622Y-18575851D01*
X16741040Y-18570944D01*
X16829132Y-18418365D01*
X16833223Y-18411279D01*
X16833224Y-18411278D01*
X16836527Y-18405556D01*
X16895542Y-18223928D01*
X16898318Y-18197522D01*
X16914814Y-18040565D01*
X16915504Y-18034000D01*
X16908080Y-17963365D01*
X16896232Y-17850635D01*
X16896232Y-17850633D01*
X16895542Y-17844072D01*
X16836527Y-17662444D01*
X16741040Y-17497056D01*
X16727639Y-17482172D01*
X16617675Y-17360045D01*
X16617674Y-17360044D01*
X16613253Y-17355134D01*
X16481107Y-17259124D01*
X16464094Y-17246763D01*
X16464093Y-17246762D01*
X16458752Y-17242882D01*
X16452724Y-17240198D01*
X16452722Y-17240197D01*
X16290319Y-17167891D01*
X16290318Y-17167891D01*
X16284288Y-17165206D01*
X16171721Y-17141279D01*
X16103944Y-17126872D01*
X16103939Y-17126872D01*
X16097487Y-17125500D01*
X15906513Y-17125500D01*
X15900061Y-17126872D01*
X15900056Y-17126872D01*
X15832279Y-17141279D01*
X15719712Y-17165206D01*
X15713682Y-17167891D01*
X15713681Y-17167891D01*
X15551278Y-17240197D01*
X15551276Y-17240198D01*
X15545248Y-17242882D01*
X15539907Y-17246762D01*
X15539906Y-17246763D01*
X15522893Y-17259124D01*
X15390747Y-17355134D01*
X15386326Y-17360044D01*
X15386325Y-17360045D01*
X15276362Y-17482172D01*
X15262960Y-17497056D01*
X15167473Y-17662444D01*
X15108458Y-17844072D01*
X15107768Y-17850633D01*
X15107768Y-17850635D01*
X15095920Y-17963365D01*
X15088496Y-18034000D01*
X12159500Y-18034000D01*
X12159499Y-17842950D01*
X12179501Y-17774831D01*
X12196404Y-17753856D01*
X13165554Y-16784706D01*
X13227866Y-16750680D01*
X13298681Y-16755745D01*
X13305897Y-16758694D01*
X13328188Y-16768619D01*
X13328196Y-16768622D01*
X13334223Y-16771305D01*
X13427623Y-16791158D01*
X13514567Y-16809639D01*
X13514572Y-16809639D01*
X13521024Y-16811011D01*
X13711998Y-16811011D01*
X13718450Y-16809639D01*
X13718455Y-16809639D01*
X13805399Y-16791158D01*
X13898799Y-16771305D01*
X13904832Y-16768619D01*
X14067233Y-16696314D01*
X14067235Y-16696313D01*
X14073263Y-16693629D01*
X14086931Y-16683699D01*
X14160408Y-16630314D01*
X14227764Y-16581377D01*
X14232934Y-16575635D01*
X14351132Y-16444363D01*
X14351133Y-16444362D01*
X14355551Y-16439455D01*
X14442084Y-16289576D01*
X14447734Y-16279790D01*
X14447735Y-16279789D01*
X14451038Y-16274067D01*
X14510053Y-16092439D01*
X14511229Y-16081255D01*
X14529325Y-15909076D01*
X14530015Y-15902511D01*
X14518096Y-15789109D01*
X14510743Y-15719146D01*
X14510743Y-15719144D01*
X14510053Y-15712583D01*
X14451038Y-15530955D01*
X14355551Y-15365567D01*
X14307375Y-15312062D01*
X14276657Y-15248055D01*
X14275011Y-15227752D01*
X14275011Y-8856695D01*
X25942251Y-8856695D01*
X25942548Y-8861848D01*
X25942548Y-8861851D01*
X25954734Y-9073196D01*
X25955110Y-9079715D01*
X25956247Y-9084761D01*
X25956248Y-9084767D01*
X25969597Y-9144000D01*
X26004222Y-9297639D01*
X26042461Y-9391811D01*
X26081152Y-9487095D01*
X26088266Y-9504616D01*
X26125479Y-9565342D01*
X26202291Y-9690688D01*
X26204987Y-9695088D01*
X26351250Y-9863938D01*
X26523126Y-10006632D01*
X26716000Y-10119338D01*
X26924692Y-10199030D01*
X26929760Y-10200061D01*
X26929763Y-10200062D01*
X27020429Y-10218508D01*
X27143597Y-10243567D01*
X27148772Y-10243757D01*
X27148774Y-10243757D01*
X27361673Y-10251564D01*
X27361677Y-10251564D01*
X27366837Y-10251753D01*
X27371957Y-10251097D01*
X27371959Y-10251097D01*
X27583288Y-10224025D01*
X27583289Y-10224025D01*
X27588416Y-10223368D01*
X27604615Y-10218508D01*
X27797429Y-10160661D01*
X27797434Y-10160659D01*
X27802384Y-10159174D01*
X28002994Y-10060896D01*
X28184860Y-9931173D01*
X28255520Y-9860760D01*
X28320592Y-9795914D01*
X28343096Y-9773489D01*
X28379551Y-9722757D01*
X28473453Y-9592077D01*
X28474776Y-9593028D01*
X28521645Y-9549857D01*
X28591580Y-9537625D01*
X28657026Y-9565144D01*
X28684875Y-9596994D01*
X28744987Y-9695088D01*
X28891250Y-9863938D01*
X29063126Y-10006632D01*
X29067583Y-10009236D01*
X29067588Y-10009240D01*
X29124070Y-10042245D01*
X29172794Y-10093883D01*
X29186500Y-10151033D01*
X29186500Y-12546958D01*
X29169619Y-12609958D01*
X29098089Y-12733852D01*
X29074953Y-12773924D01*
X29015938Y-12955552D01*
X29015248Y-12962113D01*
X29015248Y-12962115D01*
X29005708Y-13052887D01*
X28995976Y-13145480D01*
X28996666Y-13152045D01*
X29013289Y-13310201D01*
X29015938Y-13335408D01*
X29074953Y-13517036D01*
X29170440Y-13682424D01*
X29174858Y-13687331D01*
X29174859Y-13687332D01*
X29257634Y-13779263D01*
X29298227Y-13824346D01*
X29397323Y-13896344D01*
X29404770Y-13901754D01*
X29452728Y-13936598D01*
X29458756Y-13939282D01*
X29458758Y-13939283D01*
X29621161Y-14011589D01*
X29627192Y-14014274D01*
X29713592Y-14032639D01*
X29807536Y-14052608D01*
X29807541Y-14052608D01*
X29813993Y-14053980D01*
X30004967Y-14053980D01*
X30011419Y-14052608D01*
X30011424Y-14052608D01*
X30105368Y-14032639D01*
X30191768Y-14014274D01*
X30197799Y-14011589D01*
X30360202Y-13939283D01*
X30360204Y-13939282D01*
X30366232Y-13936598D01*
X30414191Y-13901754D01*
X30421637Y-13896344D01*
X30520733Y-13824346D01*
X30561326Y-13779263D01*
X30644101Y-13687332D01*
X30644102Y-13687331D01*
X30648520Y-13682424D01*
X30744007Y-13517036D01*
X30803022Y-13335408D01*
X30805672Y-13310201D01*
X30822294Y-13152045D01*
X30822984Y-13145480D01*
X30813252Y-13052887D01*
X30803712Y-12962115D01*
X30803712Y-12962113D01*
X30803022Y-12955552D01*
X30744007Y-12773924D01*
X30648520Y-12608536D01*
X30535863Y-12483417D01*
X30505147Y-12419412D01*
X30503500Y-12399109D01*
X30503500Y-10153961D01*
X30523502Y-10085840D01*
X30556332Y-10051382D01*
X30570545Y-10041244D01*
X30724860Y-9931173D01*
X30795520Y-9860760D01*
X30860592Y-9795914D01*
X30883096Y-9773489D01*
X30919551Y-9722757D01*
X31010435Y-9596277D01*
X31013453Y-9592077D01*
X31018128Y-9582619D01*
X31110136Y-9396453D01*
X31110137Y-9396451D01*
X31112430Y-9391811D01*
X31177370Y-9178069D01*
X31206529Y-8956590D01*
X31207837Y-8903062D01*
X31208074Y-8893365D01*
X31208074Y-8893361D01*
X31208156Y-8890000D01*
X31189852Y-8667361D01*
X31135431Y-8450702D01*
X31046354Y-8245840D01*
X30969810Y-8127521D01*
X30927822Y-8062617D01*
X30927820Y-8062614D01*
X30925014Y-8058277D01*
X30774670Y-7893051D01*
X30770619Y-7889852D01*
X30770615Y-7889848D01*
X30603414Y-7757800D01*
X30603410Y-7757798D01*
X30599359Y-7754598D01*
X30557569Y-7731529D01*
X30507598Y-7681097D01*
X30492826Y-7611654D01*
X30517942Y-7545248D01*
X30545293Y-7518642D01*
X30594247Y-7483723D01*
X30602648Y-7473023D01*
X30595660Y-7459870D01*
X29857812Y-6722022D01*
X29843868Y-6714408D01*
X29842035Y-6714539D01*
X29835420Y-6718790D01*
X29091737Y-7462473D01*
X29084977Y-7474853D01*
X29090258Y-7481907D01*
X29136969Y-7509203D01*
X29185693Y-7560841D01*
X29198764Y-7630624D01*
X29172033Y-7696396D01*
X29131584Y-7729752D01*
X29118607Y-7736507D01*
X29114474Y-7739610D01*
X29114471Y-7739612D01*
X28944100Y-7867530D01*
X28939965Y-7870635D01*
X28906358Y-7905803D01*
X28796751Y-8020500D01*
X28785629Y-8032138D01*
X28678201Y-8189621D01*
X28623293Y-8234621D01*
X28552768Y-8242792D01*
X28489021Y-8211538D01*
X28468324Y-8187054D01*
X28387822Y-8062617D01*
X28387820Y-8062614D01*
X28385014Y-8058277D01*
X28234670Y-7893051D01*
X28230619Y-7889852D01*
X28230615Y-7889848D01*
X28063414Y-7757800D01*
X28063410Y-7757798D01*
X28059359Y-7754598D01*
X28018053Y-7731796D01*
X27968084Y-7681364D01*
X27953312Y-7611921D01*
X27978428Y-7545516D01*
X28005780Y-7518909D01*
X28070110Y-7473023D01*
X28184860Y-7391173D01*
X28205631Y-7370475D01*
X28303508Y-7272939D01*
X28343096Y-7233489D01*
X28402594Y-7150689D01*
X28473453Y-7052077D01*
X28474640Y-7052930D01*
X28521960Y-7009362D01*
X28591897Y-6997145D01*
X28657338Y-7024678D01*
X28685166Y-7056512D01*
X28711459Y-7099419D01*
X28721916Y-7108880D01*
X28730694Y-7105096D01*
X29472978Y-6362812D01*
X29479356Y-6351132D01*
X30209408Y-6351132D01*
X30209539Y-6352965D01*
X30213790Y-6359580D01*
X30955474Y-7101264D01*
X30967484Y-7107823D01*
X30979223Y-7098855D01*
X31010004Y-7056019D01*
X31015315Y-7047180D01*
X31109670Y-6856267D01*
X31113469Y-6846672D01*
X31175376Y-6642915D01*
X31177555Y-6632834D01*
X31205590Y-6419887D01*
X31206109Y-6413212D01*
X31207572Y-6353364D01*
X31207378Y-6346646D01*
X31189781Y-6132604D01*
X31188096Y-6122424D01*
X31136214Y-5915875D01*
X31132894Y-5906124D01*
X31047972Y-5710814D01*
X31043105Y-5701739D01*
X30978063Y-5601197D01*
X30967377Y-5591995D01*
X30957812Y-5596398D01*
X30217022Y-6337188D01*
X30209408Y-6351132D01*
X29479356Y-6351132D01*
X29480592Y-6348868D01*
X29480461Y-6347035D01*
X29476210Y-6340420D01*
X28734849Y-5599059D01*
X28723313Y-5592759D01*
X28711031Y-5602382D01*
X28678499Y-5650072D01*
X28623587Y-5695075D01*
X28553063Y-5703246D01*
X28489316Y-5671992D01*
X28468618Y-5647508D01*
X28387822Y-5522617D01*
X28387820Y-5522614D01*
X28385014Y-5518277D01*
X28234670Y-5353051D01*
X28192006Y-5319357D01*
X28150944Y-5261441D01*
X28147712Y-5190518D01*
X28183337Y-5129107D01*
X28216647Y-5106376D01*
X28222007Y-5103865D01*
X28228946Y-5101550D01*
X28379348Y-5008478D01*
X28504305Y-4883303D01*
X28597115Y-4732738D01*
X28599418Y-4725795D01*
X28601763Y-4720766D01*
X28648680Y-4667481D01*
X28716958Y-4648021D01*
X28784918Y-4668564D01*
X28811194Y-4691520D01*
X28887860Y-4780025D01*
X28891250Y-4783938D01*
X29063126Y-4926632D01*
X29136955Y-4969774D01*
X29185679Y-5021412D01*
X29198750Y-5091195D01*
X29172019Y-5156967D01*
X29131562Y-5190327D01*
X29123460Y-5194544D01*
X29114734Y-5200039D01*
X29094677Y-5215099D01*
X29086223Y-5226427D01*
X29092968Y-5238758D01*
X29832188Y-5977978D01*
X29846132Y-5985592D01*
X29847965Y-5985461D01*
X29854580Y-5981210D01*
X30598389Y-5237401D01*
X30605410Y-5224544D01*
X30598611Y-5215213D01*
X30594559Y-5212521D01*
X30557602Y-5192120D01*
X30507631Y-5141687D01*
X30492859Y-5072245D01*
X30517975Y-5005839D01*
X30545327Y-4979232D01*
X30568797Y-4962491D01*
X30724860Y-4851173D01*
X30883096Y-4693489D01*
X30891248Y-4682145D01*
X31010435Y-4516277D01*
X31013453Y-4512077D01*
X31022189Y-4494402D01*
X31110136Y-4316453D01*
X31110137Y-4316451D01*
X31112430Y-4311811D01*
X31177370Y-4098069D01*
X31206529Y-3876590D01*
X31207091Y-3853581D01*
X31208074Y-3813365D01*
X31208074Y-3813361D01*
X31208156Y-3810000D01*
X31189852Y-3587361D01*
X31135431Y-3370702D01*
X31046354Y-3165840D01*
X30925014Y-2978277D01*
X30774670Y-2813051D01*
X30770619Y-2809852D01*
X30770615Y-2809848D01*
X30603414Y-2677800D01*
X30603410Y-2677798D01*
X30599359Y-2674598D01*
X30403789Y-2566638D01*
X30398920Y-2564914D01*
X30398916Y-2564912D01*
X30198087Y-2493795D01*
X30198083Y-2493794D01*
X30193212Y-2492069D01*
X30188119Y-2491162D01*
X30188116Y-2491161D01*
X29978373Y-2453800D01*
X29978367Y-2453799D01*
X29973284Y-2452894D01*
X29899452Y-2451992D01*
X29755081Y-2450228D01*
X29755079Y-2450228D01*
X29749911Y-2450165D01*
X29529091Y-2483955D01*
X29316756Y-2553357D01*
X29286443Y-2569137D01*
X29196678Y-2615866D01*
X29118607Y-2656507D01*
X29114474Y-2659610D01*
X29114471Y-2659612D01*
X28944100Y-2787530D01*
X28939965Y-2790635D01*
X28848781Y-2886054D01*
X28806027Y-2930793D01*
X28744503Y-2966223D01*
X28673590Y-2962766D01*
X28615804Y-2921520D01*
X28600833Y-2897194D01*
X28598865Y-2892994D01*
X28596550Y-2886054D01*
X28503478Y-2735652D01*
X28378303Y-2610695D01*
X28304030Y-2564912D01*
X28233968Y-2521725D01*
X28233966Y-2521724D01*
X28227738Y-2517885D01*
X28067254Y-2464655D01*
X28066389Y-2464368D01*
X28066387Y-2464368D01*
X28059861Y-2462203D01*
X28053025Y-2461503D01*
X28053022Y-2461502D01*
X28009969Y-2457091D01*
X27955400Y-2451500D01*
X26654600Y-2451500D01*
X26651354Y-2451837D01*
X26651350Y-2451837D01*
X26555692Y-2461762D01*
X26555688Y-2461763D01*
X26548834Y-2462474D01*
X26542298Y-2464655D01*
X26542296Y-2464655D01*
X26479631Y-2485562D01*
X26381054Y-2518450D01*
X26230652Y-2611522D01*
X26225479Y-2616704D01*
X26167686Y-2674598D01*
X26105695Y-2736697D01*
X26101855Y-2742927D01*
X26101854Y-2742928D01*
X26017466Y-2879831D01*
X26012885Y-2887262D01*
X25957203Y-3055139D01*
X25946500Y-3159600D01*
X25946500Y-4460400D01*
X25946837Y-4463646D01*
X25946837Y-4463650D01*
X25956674Y-4558452D01*
X25957474Y-4566166D01*
X25959655Y-4572702D01*
X25959655Y-4572704D01*
X26003728Y-4704806D01*
X26013450Y-4733946D01*
X26106522Y-4884348D01*
X26231697Y-5009305D01*
X26237927Y-5013145D01*
X26237928Y-5013146D01*
X26364547Y-5091195D01*
X26382262Y-5102115D01*
X26389209Y-5104419D01*
X26391276Y-5105383D01*
X26444561Y-5152299D01*
X26464023Y-5220576D01*
X26443482Y-5288536D01*
X26413681Y-5320337D01*
X26399965Y-5330635D01*
X26396393Y-5334373D01*
X26279492Y-5456703D01*
X26245629Y-5492138D01*
X26119743Y-5676680D01*
X26093435Y-5733357D01*
X26029665Y-5870738D01*
X26025688Y-5879305D01*
X25965989Y-6094570D01*
X25942251Y-6316695D01*
X25942548Y-6321848D01*
X25942548Y-6321851D01*
X25948607Y-6426928D01*
X25955110Y-6539715D01*
X25956247Y-6544761D01*
X25956248Y-6544767D01*
X25977275Y-6638069D01*
X26004222Y-6757639D01*
X26053565Y-6879157D01*
X26085050Y-6956695D01*
X26088266Y-6964616D01*
X26204987Y-7155088D01*
X26351250Y-7323938D01*
X26523126Y-7466632D01*
X26588460Y-7504810D01*
X26596445Y-7509476D01*
X26645169Y-7561114D01*
X26658240Y-7630897D01*
X26631509Y-7696669D01*
X26591055Y-7730027D01*
X26578607Y-7736507D01*
X26574474Y-7739610D01*
X26574471Y-7739612D01*
X26404100Y-7867530D01*
X26399965Y-7870635D01*
X26366358Y-7905803D01*
X26256751Y-8020500D01*
X26245629Y-8032138D01*
X26242720Y-8036403D01*
X26242714Y-8036411D01*
X26211471Y-8082212D01*
X26119743Y-8216680D01*
X26100018Y-8259174D01*
X26028205Y-8413883D01*
X26025688Y-8419305D01*
X25965989Y-8634570D01*
X25942251Y-8856695D01*
X14275011Y-8856695D01*
X14275011Y-8076885D01*
X14745000Y-8076885D01*
X14749475Y-8092124D01*
X14750865Y-8093329D01*
X14758548Y-8095000D01*
X14761438Y-8095000D01*
X14767953Y-8094663D01*
X14860057Y-8085106D01*
X14873456Y-8082212D01*
X15022107Y-8032619D01*
X15035286Y-8026445D01*
X15168173Y-7944212D01*
X15179574Y-7935176D01*
X15289986Y-7824571D01*
X15298998Y-7813160D01*
X15381004Y-7680120D01*
X15387151Y-7666939D01*
X15436491Y-7518186D01*
X15439358Y-7504810D01*
X15448672Y-7413903D01*
X15449000Y-7407487D01*
X15449000Y-7384115D01*
X15444525Y-7368876D01*
X15443135Y-7367671D01*
X15435452Y-7366000D01*
X14763115Y-7366000D01*
X14747876Y-7370475D01*
X14746671Y-7371865D01*
X14745000Y-7379548D01*
X14745000Y-8076885D01*
X14275011Y-8076885D01*
X14275011Y-7869570D01*
X14275570Y-7857714D01*
X14277300Y-7849974D01*
X14275698Y-7798990D01*
X14275073Y-7779122D01*
X14275011Y-7775164D01*
X14275011Y-7746079D01*
X14274457Y-7741690D01*
X14273524Y-7729848D01*
X14272435Y-7695183D01*
X14272073Y-7683680D01*
X14266091Y-7663090D01*
X14262081Y-7643727D01*
X14260386Y-7630307D01*
X14260386Y-7630306D01*
X14259393Y-7622447D01*
X14256477Y-7615082D01*
X14256476Y-7615078D01*
X14245849Y-7588238D01*
X14237000Y-7541853D01*
X14237000Y-6839885D01*
X14745000Y-6839885D01*
X14749475Y-6855124D01*
X14750865Y-6856329D01*
X14758548Y-6858000D01*
X15430885Y-6858000D01*
X15446124Y-6853525D01*
X15447329Y-6852135D01*
X15449000Y-6844452D01*
X15449000Y-6816562D01*
X15448663Y-6810047D01*
X15439106Y-6717943D01*
X15436212Y-6704544D01*
X15386619Y-6555893D01*
X15380445Y-6542714D01*
X15298212Y-6409827D01*
X15289176Y-6398426D01*
X15178571Y-6288014D01*
X15167160Y-6279002D01*
X15034120Y-6196996D01*
X15020939Y-6190849D01*
X14872186Y-6141509D01*
X14858810Y-6138642D01*
X14767903Y-6129328D01*
X14762874Y-6129071D01*
X14747876Y-6133475D01*
X14746671Y-6134865D01*
X14745000Y-6142548D01*
X14745000Y-6839885D01*
X14237000Y-6839885D01*
X14237000Y-6147115D01*
X14232525Y-6131876D01*
X14231135Y-6130671D01*
X14223452Y-6129000D01*
X14220562Y-6129000D01*
X14214047Y-6129337D01*
X14121943Y-6138894D01*
X14108544Y-6141788D01*
X13959893Y-6191381D01*
X13946714Y-6197555D01*
X13813827Y-6279788D01*
X13796689Y-6293371D01*
X13795159Y-6291441D01*
X13743120Y-6319903D01*
X13672301Y-6314887D01*
X13635383Y-6291201D01*
X13634628Y-6292157D01*
X13628882Y-6287619D01*
X13623702Y-6282448D01*
X13558763Y-6242419D01*
X13484331Y-6196538D01*
X13484329Y-6196537D01*
X13478101Y-6192698D01*
X13315757Y-6138851D01*
X13308920Y-6138151D01*
X13308918Y-6138150D01*
X13267599Y-6133917D01*
X13214732Y-6128500D01*
X12667268Y-6128500D01*
X12664022Y-6128837D01*
X12664018Y-6128837D01*
X12634730Y-6131876D01*
X12564981Y-6139113D01*
X12555926Y-6142134D01*
X12409676Y-6190927D01*
X12409674Y-6190928D01*
X12402732Y-6193244D01*
X12394023Y-6198633D01*
X12392090Y-6199165D01*
X12389879Y-6200201D01*
X12389702Y-6199822D01*
X12325572Y-6217470D01*
X12257803Y-6196308D01*
X12212232Y-6141867D01*
X12203329Y-6071431D01*
X12238627Y-6002393D01*
X12266639Y-5974381D01*
X12355472Y-5827699D01*
X12372451Y-5773521D01*
X12392102Y-5710814D01*
X12406753Y-5664062D01*
X12413500Y-5590635D01*
X12413499Y-5077366D01*
X12406753Y-5003938D01*
X12370897Y-4889521D01*
X12357744Y-4847550D01*
X12357743Y-4847548D01*
X12355472Y-4840301D01*
X12308821Y-4763270D01*
X12290642Y-4694642D01*
X12312452Y-4627078D01*
X12367328Y-4582032D01*
X12416597Y-4572000D01*
X23114000Y-4572000D01*
X23114000Y-132703D01*
X42975743Y-132703D01*
X43013268Y-417734D01*
X43089129Y-695036D01*
X43201923Y-959476D01*
X43349561Y-1206161D01*
X43529313Y-1430528D01*
X43737851Y-1628423D01*
X43971317Y-1796186D01*
X43975112Y-1798195D01*
X43975113Y-1798196D01*
X43996869Y-1809715D01*
X44225392Y-1930712D01*
X44495373Y-2029511D01*
X44776264Y-2090755D01*
X44804841Y-2093004D01*
X44999282Y-2108307D01*
X44999291Y-2108307D01*
X45001739Y-2108500D01*
X45157271Y-2108500D01*
X45159407Y-2108354D01*
X45159418Y-2108354D01*
X45367548Y-2094165D01*
X45367554Y-2094164D01*
X45371825Y-2093873D01*
X45376020Y-2093004D01*
X45376022Y-2093004D01*
X45512583Y-2064724D01*
X45653342Y-2035574D01*
X45924343Y-1939607D01*
X46179812Y-1807750D01*
X46183313Y-1805289D01*
X46183317Y-1805287D01*
X46297417Y-1725096D01*
X46415023Y-1642441D01*
X46625622Y-1446740D01*
X46807713Y-1224268D01*
X46957927Y-979142D01*
X47073483Y-715898D01*
X47152244Y-439406D01*
X47192751Y-154784D01*
X47192845Y-136951D01*
X47194235Y128417D01*
X47194235Y128424D01*
X47194257Y132703D01*
X47156732Y417734D01*
X47080871Y695036D01*
X47070295Y719830D01*
X46969763Y955524D01*
X46969761Y955528D01*
X46968077Y959476D01*
X46820439Y1206161D01*
X46640687Y1430528D01*
X46432149Y1628423D01*
X46198683Y1796186D01*
X46176843Y1807750D01*
X46153654Y1820028D01*
X45944608Y1930712D01*
X45674627Y2029511D01*
X45393736Y2090755D01*
X45362685Y2093199D01*
X45170718Y2108307D01*
X45170709Y2108307D01*
X45168261Y2108500D01*
X45012729Y2108500D01*
X45010593Y2108354D01*
X45010582Y2108354D01*
X44802452Y2094165D01*
X44802446Y2094164D01*
X44798175Y2093873D01*
X44793980Y2093004D01*
X44793978Y2093004D01*
X44657417Y2064724D01*
X44516658Y2035574D01*
X44245657Y1939607D01*
X43990188Y1807750D01*
X43986687Y1805289D01*
X43986683Y1805287D01*
X43976594Y1798196D01*
X43754977Y1642441D01*
X43544378Y1446740D01*
X43362287Y1224268D01*
X43212073Y979142D01*
X43096517Y715898D01*
X43017756Y439406D01*
X42977249Y154784D01*
X42977227Y150495D01*
X42977226Y150488D01*
X42975765Y-128417D01*
X42975743Y-132703D01*
X23114000Y-132703D01*
X23114000Y3176000D01*
X23134002Y3244121D01*
X23187658Y3290614D01*
X23240000Y3302000D01*
X45035672Y3302000D01*
X45055057Y3300500D01*
G37*
G04 #@! TD.AperFunction*
G04 #@! TA.AperFunction,Conductor*
G36*
X4768121Y3281998D02*
G01*
X4814614Y3228342D01*
X4826000Y3176000D01*
X4826000Y-3944944D01*
X4805998Y-4013065D01*
X4752342Y-4059558D01*
X4682068Y-4069662D01*
X4617488Y-4040168D01*
X4580476Y-3984820D01*
X4577868Y-3977003D01*
X4575550Y-3970055D01*
X4482478Y-3819652D01*
X4357303Y-3694695D01*
X4351072Y-3690854D01*
X4212968Y-3605725D01*
X4212966Y-3605724D01*
X4206738Y-3601885D01*
X4046254Y-3548655D01*
X4045389Y-3548368D01*
X4045387Y-3548368D01*
X4038861Y-3546203D01*
X4032025Y-3545503D01*
X4032022Y-3545502D01*
X3988969Y-3541091D01*
X3934400Y-3535500D01*
X933600Y-3535500D01*
X930354Y-3535837D01*
X930350Y-3535837D01*
X834693Y-3545762D01*
X834689Y-3545763D01*
X827835Y-3546474D01*
X821299Y-3548655D01*
X821297Y-3548655D01*
X720326Y-3582342D01*
X660055Y-3602450D01*
X509652Y-3695522D01*
X384695Y-3820697D01*
X380855Y-3826927D01*
X380854Y-3826928D01*
X302092Y-3954704D01*
X291885Y-3971262D01*
X289581Y-3978209D01*
X243719Y-4116480D01*
X236203Y-4139139D01*
X225500Y-4243600D01*
X225500Y-5344400D01*
X225837Y-5347646D01*
X225837Y-5347650D01*
X233047Y-5417134D01*
X236474Y-5450165D01*
X238655Y-5456701D01*
X238655Y-5456703D01*
X259198Y-5518277D01*
X292450Y-5617945D01*
X385522Y-5768348D01*
X510697Y-5893305D01*
X516927Y-5897145D01*
X516928Y-5897146D01*
X654090Y-5981694D01*
X661262Y-5986115D01*
X672517Y-5989848D01*
X822611Y-6039632D01*
X822613Y-6039632D01*
X829139Y-6041797D01*
X835975Y-6042497D01*
X835978Y-6042498D01*
X855540Y-6044502D01*
X921267Y-6071343D01*
X962049Y-6129458D01*
X964937Y-6200396D01*
X929015Y-6261634D01*
X893946Y-6284953D01*
X819278Y-6318197D01*
X819276Y-6318198D01*
X813248Y-6320882D01*
X807907Y-6324762D01*
X807906Y-6324763D01*
X759985Y-6359580D01*
X658747Y-6433134D01*
X654326Y-6438044D01*
X654325Y-6438045D01*
X539986Y-6565032D01*
X530960Y-6575056D01*
X527659Y-6580774D01*
X443173Y-6727108D01*
X435473Y-6740444D01*
X376458Y-6922072D01*
X375768Y-6928633D01*
X375768Y-6928635D01*
X365674Y-7024678D01*
X356496Y-7112000D01*
X357186Y-7118565D01*
X374522Y-7283505D01*
X376458Y-7301928D01*
X435473Y-7483556D01*
X438776Y-7489278D01*
X438777Y-7489279D01*
X447744Y-7504810D01*
X530960Y-7648944D01*
X535378Y-7653851D01*
X535379Y-7653852D01*
X626091Y-7754598D01*
X658747Y-7790866D01*
X729191Y-7842047D01*
X798634Y-7892500D01*
X813248Y-7903118D01*
X819276Y-7905802D01*
X819278Y-7905803D01*
X981681Y-7978109D01*
X987712Y-7980794D01*
X1064642Y-7997146D01*
X1168056Y-8019128D01*
X1168061Y-8019128D01*
X1174513Y-8020500D01*
X1365487Y-8020500D01*
X1371939Y-8019128D01*
X1371944Y-8019128D01*
X1475358Y-7997146D01*
X1552288Y-7980794D01*
X1558319Y-7978109D01*
X1720722Y-7905803D01*
X1720724Y-7905802D01*
X1726752Y-7903118D01*
X1741367Y-7892500D01*
X1810809Y-7842047D01*
X1881253Y-7790866D01*
X1913909Y-7754598D01*
X2004621Y-7653852D01*
X2004622Y-7653851D01*
X2009040Y-7648944D01*
X2092256Y-7504810D01*
X2101223Y-7489279D01*
X2101224Y-7489278D01*
X2104527Y-7483556D01*
X2163542Y-7301928D01*
X2165479Y-7283505D01*
X2182814Y-7118565D01*
X2183504Y-7112000D01*
X2174326Y-7024678D01*
X2164232Y-6928635D01*
X2164232Y-6928633D01*
X2163542Y-6922072D01*
X2104527Y-6740444D01*
X2096828Y-6727108D01*
X2012341Y-6580774D01*
X2009040Y-6575056D01*
X2000015Y-6565032D01*
X1885675Y-6438045D01*
X1885674Y-6438044D01*
X1881253Y-6433134D01*
X1780015Y-6359580D01*
X1732094Y-6324763D01*
X1732093Y-6324762D01*
X1726752Y-6320882D01*
X1720724Y-6318198D01*
X1720722Y-6318197D01*
X1665491Y-6293607D01*
X1611396Y-6247627D01*
X1590746Y-6179700D01*
X1610098Y-6111392D01*
X1663309Y-6064390D01*
X1716740Y-6052500D01*
X3934400Y-6052500D01*
X3937646Y-6052163D01*
X3937650Y-6052163D01*
X4033307Y-6042238D01*
X4033311Y-6042237D01*
X4040165Y-6041526D01*
X4046701Y-6039345D01*
X4046703Y-6039345D01*
X4195062Y-5989848D01*
X4207945Y-5985550D01*
X4358348Y-5892478D01*
X4416529Y-5834196D01*
X4478134Y-5772483D01*
X4483305Y-5767303D01*
X4497107Y-5744912D01*
X4572275Y-5622968D01*
X4572276Y-5622966D01*
X4576115Y-5616738D01*
X4610040Y-5514457D01*
X4629632Y-5455389D01*
X4629632Y-5455387D01*
X4631797Y-5448861D01*
X4642500Y-5344400D01*
X4642500Y-4682145D01*
X4662502Y-4614024D01*
X4716158Y-4567531D01*
X4786432Y-4557427D01*
X4800375Y-4563795D01*
X4800441Y-4563493D01*
X4826000Y-4569053D01*
X4826000Y-4572000D01*
X10443403Y-4572000D01*
X10511524Y-4592002D01*
X10558017Y-4645658D01*
X10568121Y-4715932D01*
X10551180Y-4763269D01*
X10504528Y-4840301D01*
X10502257Y-4847548D01*
X10502256Y-4847550D01*
X10489103Y-4889521D01*
X10453247Y-5003938D01*
X10450199Y-5037114D01*
X10446898Y-5073030D01*
X10420747Y-5139035D01*
X10363062Y-5180422D01*
X10331573Y-5185775D01*
X10331682Y-5186810D01*
X10325115Y-5187500D01*
X10318513Y-5187500D01*
X10312061Y-5188872D01*
X10312056Y-5188872D01*
X10225112Y-5207353D01*
X10131712Y-5227206D01*
X10125682Y-5229891D01*
X10125681Y-5229891D01*
X9963278Y-5302197D01*
X9963276Y-5302198D01*
X9957248Y-5304882D01*
X9951907Y-5308762D01*
X9951906Y-5308763D01*
X9935972Y-5320340D01*
X9802747Y-5417134D01*
X9798326Y-5422044D01*
X9798325Y-5422045D01*
X9711678Y-5518277D01*
X9674960Y-5559056D01*
X9623892Y-5647508D01*
X9595141Y-5697307D01*
X9579473Y-5724444D01*
X9520458Y-5906072D01*
X9519769Y-5912631D01*
X9519768Y-5912634D01*
X9508203Y-6022671D01*
X9481190Y-6088327D01*
X9422968Y-6128957D01*
X9382893Y-6135500D01*
X6633600Y-6135500D01*
X6630354Y-6135837D01*
X6630350Y-6135837D01*
X6534692Y-6145762D01*
X6534688Y-6145763D01*
X6527834Y-6146474D01*
X6521298Y-6148655D01*
X6521296Y-6148655D01*
X6428244Y-6179700D01*
X6360054Y-6202450D01*
X6209652Y-6295522D01*
X6084695Y-6420697D01*
X6080855Y-6426927D01*
X6080854Y-6426928D01*
X6001359Y-6555893D01*
X5991885Y-6571262D01*
X5989581Y-6578209D01*
X5945543Y-6710981D01*
X5936203Y-6739139D01*
X5935503Y-6745975D01*
X5935502Y-6745978D01*
X5932599Y-6774312D01*
X5925500Y-6843600D01*
X5925500Y-7444400D01*
X5925837Y-7447646D01*
X5925837Y-7447650D01*
X5934682Y-7532894D01*
X5936474Y-7550166D01*
X5938655Y-7556702D01*
X5938655Y-7556704D01*
X5968660Y-7646638D01*
X5992450Y-7717946D01*
X6085522Y-7868348D01*
X6090704Y-7873521D01*
X6109450Y-7892234D01*
X6210697Y-7993305D01*
X6281648Y-8037040D01*
X6329140Y-8089811D01*
X6340564Y-8159883D01*
X6312290Y-8225006D01*
X6281834Y-8251443D01*
X6216193Y-8292063D01*
X6204792Y-8301099D01*
X6090261Y-8415829D01*
X6081249Y-8427240D01*
X5996184Y-8565243D01*
X5990037Y-8578424D01*
X5938862Y-8732710D01*
X5935995Y-8746086D01*
X5926328Y-8840438D01*
X5926000Y-8846855D01*
X5926000Y-8871885D01*
X5930475Y-8887124D01*
X5931865Y-8888329D01*
X5939548Y-8890000D01*
X10423884Y-8890000D01*
X10439123Y-8885525D01*
X10440328Y-8884135D01*
X10441999Y-8876452D01*
X10441999Y-8846905D01*
X10441662Y-8840386D01*
X10431743Y-8744794D01*
X10428851Y-8731400D01*
X10377412Y-8577216D01*
X10371239Y-8564038D01*
X10285937Y-8426193D01*
X10276901Y-8414792D01*
X10162171Y-8300261D01*
X10150760Y-8291249D01*
X10086354Y-8251549D01*
X10038861Y-8198777D01*
X10027437Y-8128706D01*
X10055711Y-8063582D01*
X10086167Y-8037145D01*
X10086339Y-8037039D01*
X10158348Y-7992478D01*
X10190739Y-7960031D01*
X10278134Y-7872483D01*
X10283305Y-7867303D01*
X10287146Y-7861072D01*
X10291683Y-7855327D01*
X10293013Y-7856377D01*
X10339107Y-7814892D01*
X10393597Y-7802500D01*
X10773329Y-7802500D01*
X10838600Y-7820724D01*
X10850920Y-7828185D01*
X10861301Y-7834472D01*
X10868548Y-7836743D01*
X10868550Y-7836744D01*
X10927849Y-7855327D01*
X11024938Y-7885753D01*
X11098365Y-7892500D01*
X11101263Y-7892500D01*
X11430860Y-7892499D01*
X11761634Y-7892499D01*
X11764492Y-7892236D01*
X11764501Y-7892236D01*
X11800004Y-7888974D01*
X11835062Y-7885753D01*
X11841447Y-7883752D01*
X11991450Y-7836744D01*
X11991452Y-7836743D01*
X11998699Y-7834472D01*
X12009081Y-7828184D01*
X12077709Y-7810006D01*
X12145272Y-7831816D01*
X12163366Y-7846786D01*
X12258298Y-7941552D01*
X12264528Y-7945392D01*
X12264529Y-7945393D01*
X12396020Y-8026445D01*
X12403899Y-8031302D01*
X12566243Y-8085149D01*
X12573080Y-8085849D01*
X12573082Y-8085850D01*
X12611744Y-8089811D01*
X12667268Y-8095500D01*
X12832011Y-8095500D01*
X12900132Y-8115502D01*
X12946625Y-8169158D01*
X12958011Y-8221500D01*
X12958011Y-10066500D01*
X12938009Y-10134621D01*
X12884353Y-10181114D01*
X12832011Y-10192500D01*
X12516469Y-10192501D01*
X12506366Y-10192501D01*
X12503508Y-10192764D01*
X12503499Y-10192764D01*
X12467996Y-10196026D01*
X12432938Y-10199247D01*
X12426560Y-10201246D01*
X12426559Y-10201246D01*
X12276550Y-10248256D01*
X12276548Y-10248257D01*
X12269301Y-10250528D01*
X12122619Y-10339361D01*
X12027095Y-10434885D01*
X11964783Y-10468911D01*
X11893968Y-10463846D01*
X11848905Y-10434885D01*
X11753381Y-10339361D01*
X11606699Y-10250528D01*
X11599452Y-10248257D01*
X11599450Y-10248256D01*
X11533164Y-10227483D01*
X11443062Y-10199247D01*
X11369635Y-10192500D01*
X11366737Y-10192500D01*
X11112335Y-10192501D01*
X10856366Y-10192501D01*
X10853508Y-10192764D01*
X10853499Y-10192764D01*
X10817996Y-10196026D01*
X10782938Y-10199247D01*
X10776560Y-10201246D01*
X10776559Y-10201246D01*
X10626550Y-10248256D01*
X10626548Y-10248257D01*
X10619301Y-10250528D01*
X10472619Y-10339361D01*
X10426469Y-10385511D01*
X10364157Y-10419537D01*
X10293342Y-10414472D01*
X10248356Y-10385589D01*
X10162484Y-10299866D01*
X10162479Y-10299862D01*
X10157303Y-10294695D01*
X10086352Y-10250960D01*
X10038860Y-10198189D01*
X10027436Y-10128117D01*
X10055710Y-10062994D01*
X10086166Y-10036557D01*
X10151807Y-9995937D01*
X10163208Y-9986901D01*
X10277739Y-9872171D01*
X10286751Y-9860760D01*
X10371816Y-9722757D01*
X10377963Y-9709576D01*
X10429138Y-9555290D01*
X10432005Y-9541914D01*
X10441672Y-9447562D01*
X10442000Y-9441146D01*
X10442000Y-9416115D01*
X10437525Y-9400876D01*
X10436135Y-9399671D01*
X10428452Y-9398000D01*
X5944116Y-9398000D01*
X5928877Y-9402475D01*
X5927672Y-9403865D01*
X5926001Y-9411548D01*
X5926001Y-9441095D01*
X5926338Y-9447614D01*
X5936257Y-9543206D01*
X5939149Y-9556600D01*
X5990588Y-9710784D01*
X5996761Y-9723962D01*
X6082063Y-9861807D01*
X6091099Y-9873208D01*
X6205829Y-9987739D01*
X6217240Y-9996751D01*
X6281646Y-10036451D01*
X6329139Y-10089223D01*
X6340563Y-10159294D01*
X6312289Y-10224418D01*
X6281834Y-10250854D01*
X6209652Y-10295522D01*
X6084695Y-10420697D01*
X6080855Y-10426927D01*
X6080854Y-10426928D01*
X5999071Y-10559605D01*
X5991885Y-10571262D01*
X5978982Y-10610165D01*
X5941491Y-10723197D01*
X5936203Y-10739139D01*
X5925500Y-10843600D01*
X5925500Y-11444400D01*
X5925837Y-11447646D01*
X5925837Y-11447650D01*
X5934610Y-11532198D01*
X5936474Y-11550166D01*
X5938655Y-11556702D01*
X5938655Y-11556704D01*
X5954718Y-11604851D01*
X5992450Y-11717946D01*
X6085522Y-11868348D01*
X6210697Y-11993305D01*
X6216927Y-11997145D01*
X6216928Y-11997146D01*
X6354095Y-12081697D01*
X6361262Y-12086115D01*
X6441005Y-12112564D01*
X6522611Y-12139632D01*
X6522613Y-12139632D01*
X6529139Y-12141797D01*
X6535975Y-12142497D01*
X6535978Y-12142498D01*
X6579031Y-12146909D01*
X6633600Y-12152500D01*
X9734400Y-12152500D01*
X9737646Y-12152163D01*
X9737650Y-12152163D01*
X9833308Y-12142238D01*
X9833312Y-12142237D01*
X9840166Y-12141526D01*
X9846702Y-12139345D01*
X9846704Y-12139345D01*
X9978806Y-12095272D01*
X10007946Y-12085550D01*
X10043625Y-12063471D01*
X10112074Y-12044634D01*
X10179844Y-12065795D01*
X10225415Y-12120235D01*
X10234320Y-12190671D01*
X10230160Y-12208295D01*
X10199247Y-12306938D01*
X10192500Y-12380365D01*
X10192501Y-12893634D01*
X10199247Y-12967062D01*
X10201246Y-12973440D01*
X10201246Y-12973441D01*
X10240901Y-13099978D01*
X10250528Y-13130699D01*
X10339361Y-13277381D01*
X10434885Y-13372905D01*
X10468911Y-13435217D01*
X10463846Y-13506032D01*
X10434885Y-13551095D01*
X10394385Y-13591595D01*
X10332073Y-13625621D01*
X10305290Y-13628500D01*
X10179056Y-13628500D01*
X10167200Y-13627941D01*
X10167197Y-13627941D01*
X10159463Y-13626212D01*
X10122138Y-13627385D01*
X10088631Y-13628438D01*
X10084673Y-13628500D01*
X10055568Y-13628500D01*
X10051168Y-13629056D01*
X10039336Y-13629988D01*
X9993169Y-13631438D01*
X9972579Y-13637420D01*
X9953218Y-13641430D01*
X9946230Y-13642312D01*
X9939796Y-13643125D01*
X9939795Y-13643125D01*
X9931936Y-13644118D01*
X9924571Y-13647034D01*
X9924567Y-13647035D01*
X9888979Y-13661126D01*
X9877769Y-13664965D01*
X9833400Y-13677855D01*
X9814943Y-13688771D01*
X9797193Y-13697466D01*
X9777244Y-13705365D01*
X9770833Y-13710023D01*
X9770831Y-13710024D01*
X9739864Y-13732523D01*
X9729946Y-13739038D01*
X9690193Y-13762548D01*
X9675032Y-13777709D01*
X9660000Y-13790548D01*
X9642643Y-13803159D01*
X9637590Y-13809267D01*
X9613194Y-13838757D01*
X9605204Y-13847537D01*
X9412146Y-14040595D01*
X9349834Y-14074621D01*
X9323051Y-14077500D01*
X9302513Y-14077500D01*
X9296061Y-14078872D01*
X9296056Y-14078872D01*
X9209112Y-14097353D01*
X9115712Y-14117206D01*
X9109682Y-14119891D01*
X9109681Y-14119891D01*
X8947278Y-14192197D01*
X8947276Y-14192198D01*
X8941248Y-14194882D01*
X8786747Y-14307134D01*
X8782326Y-14312044D01*
X8782325Y-14312045D01*
X8720105Y-14381148D01*
X8658960Y-14449056D01*
X8644835Y-14473521D01*
X8575678Y-14593305D01*
X8563473Y-14614444D01*
X8504458Y-14796072D01*
X8503768Y-14802633D01*
X8503768Y-14802635D01*
X8498485Y-14852905D01*
X8484496Y-14986000D01*
X8485186Y-14992565D01*
X8503068Y-15162699D01*
X8504458Y-15175928D01*
X8563473Y-15357556D01*
X8658960Y-15522944D01*
X8663378Y-15527851D01*
X8663379Y-15527852D01*
X8769649Y-15645877D01*
X8786747Y-15664866D01*
X8941248Y-15777118D01*
X8947276Y-15779802D01*
X8947278Y-15779803D01*
X9029535Y-15816426D01*
X9034875Y-15818803D01*
X9066434Y-15832854D01*
X9120529Y-15878834D01*
X9141179Y-15946761D01*
X9121827Y-16015069D01*
X9089248Y-16049896D01*
X9040747Y-16085134D01*
X9036326Y-16090044D01*
X9036325Y-16090045D01*
X8997673Y-16132973D01*
X8912960Y-16227056D01*
X8817473Y-16392444D01*
X8758458Y-16574072D01*
X8757768Y-16580633D01*
X8757768Y-16580635D01*
X8751197Y-16643155D01*
X8738496Y-16764000D01*
X8739186Y-16770565D01*
X8742853Y-16805450D01*
X8758458Y-16953928D01*
X8817473Y-17135556D01*
X8820776Y-17141278D01*
X8820777Y-17141279D01*
X8836142Y-17167891D01*
X8912960Y-17300944D01*
X8961805Y-17355192D01*
X8992521Y-17419198D01*
X8983756Y-17489651D01*
X8938293Y-17544182D01*
X8868167Y-17565500D01*
X6633600Y-17565500D01*
X6630354Y-17565837D01*
X6630350Y-17565837D01*
X6534692Y-17575762D01*
X6534688Y-17575763D01*
X6527834Y-17576474D01*
X6521298Y-17578655D01*
X6521296Y-17578655D01*
X6453904Y-17601139D01*
X6360054Y-17632450D01*
X6209652Y-17725522D01*
X6084695Y-17850697D01*
X6080855Y-17856927D01*
X6080854Y-17856928D01*
X6011200Y-17969928D01*
X5991885Y-18001262D01*
X5989581Y-18008209D01*
X5944120Y-18145271D01*
X5936203Y-18169139D01*
X5925500Y-18273600D01*
X5925500Y-18874400D01*
X5925837Y-18877646D01*
X5925837Y-18877650D01*
X5930097Y-18918703D01*
X5936474Y-18980166D01*
X5992450Y-19147946D01*
X6085522Y-19298348D01*
X6210697Y-19423305D01*
X6281648Y-19467040D01*
X6329140Y-19519811D01*
X6340564Y-19589883D01*
X6312290Y-19655006D01*
X6281834Y-19681443D01*
X6216193Y-19722063D01*
X6204792Y-19731099D01*
X6090261Y-19845829D01*
X6081249Y-19857240D01*
X5996184Y-19995243D01*
X5990037Y-20008424D01*
X5938862Y-20162710D01*
X5935995Y-20176086D01*
X5926328Y-20270438D01*
X5926000Y-20276854D01*
X5926000Y-20301885D01*
X5930475Y-20317124D01*
X5931865Y-20318329D01*
X5939548Y-20320000D01*
X8312000Y-20320000D01*
X8380121Y-20340002D01*
X8426614Y-20393658D01*
X8438000Y-20446000D01*
X8438000Y-20702000D01*
X8417998Y-20770121D01*
X8364342Y-20816614D01*
X8312000Y-20828000D01*
X5944116Y-20828000D01*
X5928877Y-20832475D01*
X5927672Y-20833865D01*
X5926001Y-20841548D01*
X5926001Y-20871095D01*
X5926338Y-20877614D01*
X5936257Y-20973206D01*
X5939149Y-20986600D01*
X5990588Y-21140784D01*
X5996761Y-21153962D01*
X6082063Y-21291807D01*
X6091099Y-21303208D01*
X6205829Y-21417739D01*
X6217240Y-21426751D01*
X6281646Y-21466451D01*
X6329139Y-21519223D01*
X6340563Y-21589294D01*
X6312289Y-21654418D01*
X6281834Y-21680854D01*
X6209652Y-21725522D01*
X6084695Y-21850697D01*
X6080855Y-21856927D01*
X6080854Y-21856928D01*
X5996429Y-21993891D01*
X5991885Y-22001262D01*
X5981939Y-22031248D01*
X5938876Y-22161081D01*
X5936203Y-22169139D01*
X5925500Y-22273600D01*
X5925500Y-22874400D01*
X5925837Y-22877646D01*
X5925837Y-22877650D01*
X5931205Y-22929381D01*
X5936474Y-22980166D01*
X5938655Y-22986702D01*
X5938655Y-22986704D01*
X5961815Y-23056121D01*
X5992450Y-23147946D01*
X6085522Y-23298348D01*
X6210697Y-23423305D01*
X6216927Y-23427145D01*
X6216928Y-23427146D01*
X6339947Y-23502976D01*
X6361262Y-23516115D01*
X6388032Y-23524994D01*
X6522611Y-23569632D01*
X6522613Y-23569632D01*
X6529139Y-23571797D01*
X6535975Y-23572497D01*
X6535978Y-23572498D01*
X6579031Y-23576909D01*
X6633600Y-23582500D01*
X7686157Y-23582500D01*
X7754278Y-23602502D01*
X7800771Y-23656158D01*
X7810875Y-23726432D01*
X7808585Y-23736273D01*
X7808871Y-23736334D01*
X7807497Y-23742795D01*
X7805458Y-23749072D01*
X7804768Y-23755633D01*
X7804768Y-23755635D01*
X7792067Y-23876479D01*
X7785496Y-23939000D01*
X7786186Y-23945565D01*
X7796007Y-24039002D01*
X7805458Y-24128928D01*
X7864473Y-24310556D01*
X7867776Y-24316278D01*
X7867777Y-24316279D01*
X7899025Y-24370402D01*
X7959960Y-24475944D01*
X7964378Y-24480851D01*
X7964379Y-24480852D01*
X8069409Y-24597500D01*
X8087747Y-24617866D01*
X8150269Y-24663291D01*
X8224288Y-24717069D01*
X8242248Y-24730118D01*
X8248276Y-24732802D01*
X8248278Y-24732803D01*
X8278434Y-24746229D01*
X8416712Y-24807794D01*
X8421650Y-24808844D01*
X8479781Y-24848590D01*
X8507419Y-24913986D01*
X8505579Y-24952622D01*
X8504458Y-24956072D01*
X8484496Y-25146000D01*
X8485186Y-25152565D01*
X8503762Y-25329303D01*
X8504458Y-25335928D01*
X8563473Y-25517556D01*
X8566776Y-25523278D01*
X8566777Y-25523279D01*
X8587753Y-25559610D01*
X8658960Y-25682944D01*
X8663378Y-25687851D01*
X8663379Y-25687852D01*
X8741664Y-25774796D01*
X8786747Y-25824866D01*
X8792089Y-25828747D01*
X8792091Y-25828749D01*
X8805419Y-25838432D01*
X8848773Y-25894654D01*
X8854848Y-25965390D01*
X8821717Y-26028182D01*
X8782606Y-26055475D01*
X8756281Y-26067195D01*
X8756274Y-26067199D01*
X8750248Y-26069882D01*
X8744907Y-26073762D01*
X8744906Y-26073763D01*
X8711646Y-26097928D01*
X8595747Y-26182134D01*
X8591326Y-26187044D01*
X8591325Y-26187045D01*
X8488595Y-26301139D01*
X8467960Y-26324056D01*
X8417625Y-26411238D01*
X8376982Y-26481635D01*
X8372473Y-26489444D01*
X8313458Y-26671072D01*
X8312768Y-26677633D01*
X8312768Y-26677635D01*
X8304530Y-26756020D01*
X8293496Y-26861000D01*
X8294186Y-26867565D01*
X8311157Y-27029031D01*
X8313458Y-27050928D01*
X8372473Y-27232556D01*
X8467960Y-27397944D01*
X8472378Y-27402851D01*
X8472379Y-27402852D01*
X8590711Y-27534273D01*
X8595747Y-27539866D01*
X8750248Y-27652118D01*
X8756276Y-27654802D01*
X8756278Y-27654803D01*
X8905883Y-27721411D01*
X8924712Y-27729794D01*
X9008553Y-27747615D01*
X9105056Y-27768128D01*
X9105061Y-27768128D01*
X9111513Y-27769500D01*
X9302487Y-27769500D01*
X9308939Y-27768128D01*
X9308944Y-27768128D01*
X9405447Y-27747615D01*
X9489288Y-27729794D01*
X9508117Y-27721411D01*
X9657722Y-27654803D01*
X9657724Y-27654802D01*
X9663752Y-27652118D01*
X9715759Y-27614333D01*
X9765675Y-27578066D01*
X9813163Y-27543564D01*
X9880031Y-27519706D01*
X9887224Y-27519500D01*
X10305290Y-27519500D01*
X10373411Y-27539502D01*
X10394385Y-27556405D01*
X10434885Y-27596905D01*
X10468911Y-27659217D01*
X10463846Y-27730032D01*
X10434885Y-27775095D01*
X10339361Y-27870619D01*
X10250528Y-28017301D01*
X10248257Y-28024548D01*
X10248256Y-28024550D01*
X10236119Y-28063279D01*
X10199247Y-28180938D01*
X10192500Y-28254365D01*
X10192501Y-28767634D01*
X10192764Y-28770492D01*
X10192764Y-28770501D01*
X10193611Y-28779715D01*
X10199247Y-28841062D01*
X10201246Y-28847440D01*
X10201246Y-28847441D01*
X10230196Y-28939820D01*
X10231480Y-29010805D01*
X10194183Y-29071215D01*
X10130147Y-29101872D01*
X10059701Y-29093041D01*
X10043845Y-29084758D01*
X10012970Y-29065726D01*
X10012967Y-29065725D01*
X10006738Y-29061885D01*
X9853915Y-29011196D01*
X9845389Y-29008368D01*
X9845387Y-29008368D01*
X9838861Y-29006203D01*
X9832025Y-29005503D01*
X9832022Y-29005502D01*
X9788969Y-29001091D01*
X9734400Y-28995500D01*
X6633600Y-28995500D01*
X6630354Y-28995837D01*
X6630350Y-28995837D01*
X6534692Y-29005762D01*
X6534688Y-29005763D01*
X6527834Y-29006474D01*
X6521298Y-29008655D01*
X6521296Y-29008655D01*
X6513680Y-29011196D01*
X6360054Y-29062450D01*
X6209652Y-29155522D01*
X6204479Y-29160704D01*
X6156247Y-29209020D01*
X6084695Y-29280697D01*
X6080855Y-29286927D01*
X6080854Y-29286928D01*
X6016895Y-29390689D01*
X5991885Y-29431262D01*
X5989581Y-29438209D01*
X5945605Y-29570794D01*
X5936203Y-29599139D01*
X5935503Y-29605975D01*
X5935502Y-29605978D01*
X5933032Y-29630090D01*
X5925500Y-29703600D01*
X5925500Y-30304400D01*
X5936474Y-30410166D01*
X5938655Y-30416702D01*
X5938655Y-30416704D01*
X5982728Y-30548806D01*
X5992450Y-30577946D01*
X6085522Y-30728348D01*
X6210697Y-30853305D01*
X6216927Y-30857145D01*
X6216928Y-30857146D01*
X6229194Y-30864707D01*
X6281648Y-30897040D01*
X6329140Y-30949811D01*
X6340564Y-31019883D01*
X6312290Y-31085006D01*
X6281834Y-31111443D01*
X6216193Y-31152063D01*
X6204792Y-31161099D01*
X6090261Y-31275829D01*
X6081249Y-31287240D01*
X5996184Y-31425243D01*
X5990037Y-31438424D01*
X5938862Y-31592710D01*
X5935995Y-31606086D01*
X5926328Y-31700438D01*
X5926000Y-31706854D01*
X5926000Y-31731885D01*
X5930475Y-31747124D01*
X5931865Y-31748329D01*
X5939548Y-31750000D01*
X8312000Y-31750000D01*
X8380121Y-31770002D01*
X8426614Y-31823658D01*
X8438000Y-31876000D01*
X8438000Y-32132000D01*
X8417998Y-32200121D01*
X8364342Y-32246614D01*
X8312000Y-32258000D01*
X5944116Y-32258000D01*
X5928877Y-32262475D01*
X5927672Y-32263865D01*
X5926001Y-32271548D01*
X5926001Y-32301095D01*
X5926338Y-32307614D01*
X5936257Y-32403206D01*
X5939149Y-32416600D01*
X5990588Y-32570784D01*
X5996761Y-32583962D01*
X6082063Y-32721807D01*
X6091099Y-32733208D01*
X6205829Y-32847739D01*
X6217240Y-32856751D01*
X6281646Y-32896451D01*
X6329139Y-32949223D01*
X6340563Y-33019294D01*
X6312289Y-33084418D01*
X6281834Y-33110854D01*
X6209652Y-33155522D01*
X6084695Y-33280697D01*
X6080855Y-33286927D01*
X6080854Y-33286928D01*
X6042984Y-33348365D01*
X5991885Y-33431262D01*
X5967601Y-33504475D01*
X5945616Y-33570761D01*
X5936203Y-33599139D01*
X5935503Y-33605975D01*
X5935502Y-33605978D01*
X5932219Y-33638023D01*
X5925500Y-33703600D01*
X5925500Y-34304400D01*
X5925837Y-34307646D01*
X5925837Y-34307650D01*
X5934296Y-34389171D01*
X5936474Y-34410166D01*
X5992450Y-34577946D01*
X6085522Y-34728348D01*
X6210697Y-34853305D01*
X6216927Y-34857145D01*
X6216928Y-34857146D01*
X6354090Y-34941694D01*
X6361262Y-34946115D01*
X6441005Y-34972564D01*
X6522611Y-34999632D01*
X6522613Y-34999632D01*
X6529139Y-35001797D01*
X6535975Y-35002497D01*
X6535978Y-35002498D01*
X6579031Y-35006909D01*
X6633600Y-35012500D01*
X7026500Y-35012500D01*
X7094621Y-35032502D01*
X7141114Y-35086158D01*
X7152500Y-35138500D01*
X7152500Y-37607776D01*
X7132498Y-37675897D01*
X7078842Y-37722390D01*
X7008568Y-37732494D01*
X6961229Y-37715552D01*
X6913197Y-37686463D01*
X6913195Y-37686462D01*
X6906699Y-37682528D01*
X6899452Y-37680257D01*
X6899450Y-37680256D01*
X6810449Y-37652365D01*
X6743062Y-37631247D01*
X6669635Y-37624500D01*
X6666737Y-37624500D01*
X6412335Y-37624501D01*
X6156366Y-37624501D01*
X6153508Y-37624764D01*
X6153499Y-37624764D01*
X6117996Y-37628026D01*
X6082938Y-37631247D01*
X6076560Y-37633246D01*
X6076559Y-37633246D01*
X5926550Y-37680256D01*
X5926548Y-37680257D01*
X5919301Y-37682528D01*
X5772619Y-37771361D01*
X5677095Y-37866885D01*
X5614783Y-37900911D01*
X5543968Y-37895846D01*
X5498905Y-37866885D01*
X5403381Y-37771361D01*
X5256699Y-37682528D01*
X5249452Y-37680257D01*
X5249450Y-37680256D01*
X5160449Y-37652365D01*
X5093062Y-37631247D01*
X5019635Y-37624500D01*
X5016737Y-37624500D01*
X4762335Y-37624501D01*
X4506366Y-37624501D01*
X4503493Y-37624765D01*
X4503492Y-37624765D01*
X4500941Y-37624999D01*
X4431277Y-37611311D01*
X4380071Y-37562133D01*
X4363582Y-37493078D01*
X4387045Y-37426070D01*
X4400244Y-37410509D01*
X4478134Y-37332483D01*
X4483305Y-37327303D01*
X4496940Y-37305183D01*
X4572275Y-37182968D01*
X4572276Y-37182966D01*
X4576115Y-37176738D01*
X4621837Y-37038891D01*
X4629632Y-37015389D01*
X4629632Y-37015387D01*
X4631797Y-37008861D01*
X4642500Y-36904400D01*
X4642500Y-35803600D01*
X4640067Y-35780148D01*
X4632238Y-35704693D01*
X4632237Y-35704689D01*
X4631526Y-35697835D01*
X4575550Y-35530055D01*
X4482478Y-35379652D01*
X4357303Y-35254695D01*
X4351072Y-35250854D01*
X4212968Y-35165725D01*
X4212966Y-35165724D01*
X4206738Y-35161885D01*
X4073328Y-35117635D01*
X4045389Y-35108368D01*
X4045387Y-35108368D01*
X4038861Y-35106203D01*
X4032025Y-35105503D01*
X4032022Y-35105502D01*
X3988969Y-35101091D01*
X3934400Y-35095500D01*
X933600Y-35095500D01*
X930354Y-35095837D01*
X930350Y-35095837D01*
X834693Y-35105762D01*
X834689Y-35105763D01*
X827835Y-35106474D01*
X821299Y-35108655D01*
X821297Y-35108655D01*
X689195Y-35152728D01*
X660055Y-35162450D01*
X509652Y-35255522D01*
X384695Y-35380697D01*
X380855Y-35386927D01*
X380854Y-35386928D01*
X338345Y-35455891D01*
X291885Y-35531262D01*
X236203Y-35699139D01*
X225500Y-35803600D01*
X225500Y-36904400D01*
X225837Y-36907646D01*
X225837Y-36907650D01*
X234891Y-36994905D01*
X236474Y-37010165D01*
X238655Y-37016701D01*
X238655Y-37016703D01*
X273235Y-37120351D01*
X292450Y-37177945D01*
X385522Y-37328348D01*
X510697Y-37453305D01*
X516927Y-37457145D01*
X516928Y-37457146D01*
X648761Y-37538409D01*
X661262Y-37546115D01*
X709555Y-37562133D01*
X822611Y-37599632D01*
X822613Y-37599632D01*
X829139Y-37601797D01*
X835975Y-37602497D01*
X835978Y-37602498D01*
X879031Y-37606909D01*
X933600Y-37612500D01*
X3934400Y-37612500D01*
X3937646Y-37612163D01*
X3937650Y-37612163D01*
X3955699Y-37610290D01*
X3968498Y-37608962D01*
X4038318Y-37621826D01*
X4090100Y-37670397D01*
X4107403Y-37739253D01*
X4084733Y-37806533D01*
X4070596Y-37823384D01*
X4001361Y-37892619D01*
X3912528Y-38039301D01*
X3910257Y-38046548D01*
X3910256Y-38046550D01*
X3903735Y-38067359D01*
X3861247Y-38202938D01*
X3854500Y-38276365D01*
X3854501Y-38585239D01*
X3854501Y-38850049D01*
X3834499Y-38918170D01*
X3817596Y-38939144D01*
X3570145Y-39186595D01*
X3507833Y-39220621D01*
X3481050Y-39223500D01*
X3460513Y-39223500D01*
X3454061Y-39224872D01*
X3454056Y-39224872D01*
X3380930Y-39240416D01*
X3273712Y-39263206D01*
X3267682Y-39265891D01*
X3267681Y-39265891D01*
X3105278Y-39338197D01*
X3105276Y-39338198D01*
X3099248Y-39340882D01*
X3093907Y-39344762D01*
X3093906Y-39344763D01*
X3056426Y-39371994D01*
X2944747Y-39453134D01*
X2940326Y-39458044D01*
X2940325Y-39458045D01*
X2827704Y-39583124D01*
X2816960Y-39595056D01*
X2721473Y-39760444D01*
X2662458Y-39942072D01*
X2661768Y-39948633D01*
X2661768Y-39948635D01*
X2655185Y-40011270D01*
X2642496Y-40132000D01*
X2643186Y-40138565D01*
X2661052Y-40308547D01*
X2662458Y-40321928D01*
X2721473Y-40503556D01*
X2816960Y-40668944D01*
X2821378Y-40673851D01*
X2821379Y-40673852D01*
X2867280Y-40724830D01*
X2944747Y-40810866D01*
X3099248Y-40923118D01*
X3105276Y-40925802D01*
X3105278Y-40925803D01*
X3267681Y-40998109D01*
X3273712Y-41000794D01*
X3359364Y-41019000D01*
X3454056Y-41039128D01*
X3454061Y-41039128D01*
X3460513Y-41040500D01*
X3651487Y-41040500D01*
X3657939Y-41039128D01*
X3657944Y-41039128D01*
X3752636Y-41019000D01*
X3838288Y-41000794D01*
X3844319Y-40998109D01*
X4006722Y-40925803D01*
X4006724Y-40925802D01*
X4012752Y-40923118D01*
X4167253Y-40810866D01*
X4244720Y-40724830D01*
X4290621Y-40673852D01*
X4290622Y-40673851D01*
X4295040Y-40668944D01*
X4390527Y-40503556D01*
X4418390Y-40417803D01*
X4447502Y-40328207D01*
X4447502Y-40328205D01*
X4449542Y-40321928D01*
X4462755Y-40196213D01*
X4489768Y-40130558D01*
X4498970Y-40120290D01*
X4996373Y-39622887D01*
X5058685Y-39588861D01*
X5073939Y-39586511D01*
X5086398Y-39585366D01*
X5086405Y-39585365D01*
X5093062Y-39584753D01*
X5176486Y-39558609D01*
X5249450Y-39535744D01*
X5249452Y-39535743D01*
X5256699Y-39533472D01*
X5403381Y-39444639D01*
X5498905Y-39349115D01*
X5561217Y-39315089D01*
X5632032Y-39320154D01*
X5677095Y-39349115D01*
X5772619Y-39444639D01*
X5919301Y-39533472D01*
X5926548Y-39535743D01*
X5926550Y-39535744D01*
X5992836Y-39556517D01*
X6082938Y-39584753D01*
X6156365Y-39591500D01*
X6159263Y-39591500D01*
X6413665Y-39591499D01*
X6669634Y-39591499D01*
X6672492Y-39591236D01*
X6672501Y-39591236D01*
X6708004Y-39587974D01*
X6743062Y-39584753D01*
X6759770Y-39579517D01*
X6899450Y-39535744D01*
X6899452Y-39535743D01*
X6906699Y-39533472D01*
X6913197Y-39529537D01*
X7046729Y-39448668D01*
X7115359Y-39430489D01*
X7177271Y-39448668D01*
X7310803Y-39529537D01*
X7317301Y-39533472D01*
X7324548Y-39535743D01*
X7324550Y-39535744D01*
X7390836Y-39556517D01*
X7480938Y-39584753D01*
X7554365Y-39591500D01*
X7557263Y-39591500D01*
X7811665Y-39591499D01*
X8067634Y-39591499D01*
X8070492Y-39591236D01*
X8070501Y-39591236D01*
X8106004Y-39587974D01*
X8141062Y-39584753D01*
X8157770Y-39579517D01*
X8297450Y-39535744D01*
X8297452Y-39535743D01*
X8304699Y-39533472D01*
X8451381Y-39444639D01*
X8546905Y-39349115D01*
X8609217Y-39315089D01*
X8680032Y-39320154D01*
X8725095Y-39349115D01*
X8820619Y-39444639D01*
X8967301Y-39533472D01*
X8974548Y-39535743D01*
X8974550Y-39535744D01*
X9040836Y-39556517D01*
X9130938Y-39584753D01*
X9204365Y-39591500D01*
X9220614Y-39591500D01*
X9461050Y-39591499D01*
X9529169Y-39611501D01*
X9550144Y-39628404D01*
X10015865Y-40094125D01*
X10023855Y-40102905D01*
X10028104Y-40109600D01*
X10033882Y-40115026D01*
X10033883Y-40115027D01*
X10079777Y-40158124D01*
X10082619Y-40160879D01*
X10103187Y-40181447D01*
X10106690Y-40184164D01*
X10115715Y-40191872D01*
X10149387Y-40223492D01*
X10156338Y-40227313D01*
X10156339Y-40227314D01*
X10168178Y-40233823D01*
X10184702Y-40244677D01*
X10194791Y-40252502D01*
X10201652Y-40257824D01*
X10208924Y-40260971D01*
X10208926Y-40260972D01*
X10244055Y-40276174D01*
X10254715Y-40281396D01*
X10284688Y-40297874D01*
X10295183Y-40303644D01*
X10315961Y-40308979D01*
X10334651Y-40315378D01*
X10354344Y-40323900D01*
X10389083Y-40329402D01*
X10399968Y-40331126D01*
X10411591Y-40333533D01*
X10436274Y-40339870D01*
X10456332Y-40345020D01*
X10477779Y-40345020D01*
X10497489Y-40346571D01*
X10518672Y-40349926D01*
X10564661Y-40345579D01*
X10576516Y-40345020D01*
X19172424Y-40345020D01*
X19184280Y-40345579D01*
X19184283Y-40345579D01*
X19192017Y-40347308D01*
X19262849Y-40345082D01*
X19266807Y-40345020D01*
X19295912Y-40345020D01*
X19300312Y-40344464D01*
X19312144Y-40343532D01*
X19358311Y-40342082D01*
X19378901Y-40336100D01*
X19398262Y-40332090D01*
X19405896Y-40331126D01*
X19411684Y-40330395D01*
X19411685Y-40330395D01*
X19419544Y-40329402D01*
X19426909Y-40326486D01*
X19426913Y-40326485D01*
X19462501Y-40312394D01*
X19473711Y-40308555D01*
X19518080Y-40295665D01*
X19536545Y-40284745D01*
X19554285Y-40276054D01*
X19574236Y-40268155D01*
X19611609Y-40241002D01*
X19621528Y-40234487D01*
X19654457Y-40215013D01*
X19654461Y-40215010D01*
X19661287Y-40210973D01*
X19676451Y-40195809D01*
X19691485Y-40182968D01*
X19708837Y-40170361D01*
X19738283Y-40134767D01*
X19746272Y-40125988D01*
X19989855Y-39882405D01*
X20052167Y-39848379D01*
X20078950Y-39845500D01*
X20352732Y-39845500D01*
X20355978Y-39845163D01*
X20355982Y-39845163D01*
X20390083Y-39841625D01*
X20455019Y-39834887D01*
X20537515Y-39807364D01*
X20610324Y-39783073D01*
X20610326Y-39783072D01*
X20617268Y-39780756D01*
X20628572Y-39773761D01*
X20697023Y-39754925D01*
X20764793Y-39776088D01*
X20810363Y-39830529D01*
X20817646Y-39903082D01*
X20818203Y-39903139D01*
X20807500Y-40007600D01*
X20807500Y-43008400D01*
X20807837Y-43011646D01*
X20807837Y-43011650D01*
X20809108Y-43023895D01*
X20818474Y-43114165D01*
X20820655Y-43120702D01*
X20820656Y-43120707D01*
X20827468Y-43141125D01*
X20830052Y-43212074D01*
X20793868Y-43273158D01*
X20730403Y-43304982D01*
X20707944Y-43307000D01*
X49328Y-43307000D01*
X29943Y-43305500D01*
X15142Y-43303195D01*
X15139Y-43303195D01*
X6270Y-43301814D01*
X-12411Y-43304257D01*
X-35342Y-43305148D01*
X-338557Y-43289257D01*
X-351665Y-43287880D01*
X-591285Y-43249928D01*
X-680002Y-43235877D01*
X-692902Y-43233135D01*
X-1014000Y-43147097D01*
X-1026536Y-43143023D01*
X-1336875Y-43023895D01*
X-1348924Y-43018531D01*
X-1645120Y-42867612D01*
X-1656536Y-42861021D01*
X-1935334Y-42679967D01*
X-1945996Y-42672221D01*
X-2204344Y-42463016D01*
X-2214145Y-42454190D01*
X-2449190Y-42219145D01*
X-2458016Y-42209344D01*
X-2667224Y-41950992D01*
X-2674967Y-41940334D01*
X-2856021Y-41661536D01*
X-2862612Y-41650120D01*
X-3013531Y-41353924D01*
X-3018895Y-41341876D01*
X-3134583Y-41040500D01*
X-3138023Y-41031536D01*
X-3142097Y-41019000D01*
X-3228135Y-40697902D01*
X-3230877Y-40685002D01*
X-3255248Y-40531128D01*
X-3282880Y-40356665D01*
X-3284257Y-40343554D01*
X-3284258Y-40343532D01*
X-3295045Y-40137703D01*
X-2109257Y-40137703D01*
X-2108698Y-40141947D01*
X-2108698Y-40141951D01*
X-2093443Y-40257824D01*
X-2071732Y-40422734D01*
X-1995871Y-40700036D01*
X-1994187Y-40703984D01*
X-1946941Y-40814749D01*
X-1883077Y-40964476D01*
X-1735439Y-41211161D01*
X-1555687Y-41435528D01*
X-1347149Y-41633423D01*
X-1113683Y-41801186D01*
X-1109888Y-41803195D01*
X-1109887Y-41803196D01*
X-1088131Y-41814715D01*
X-859608Y-41935712D01*
X-589627Y-42034511D01*
X-308736Y-42095755D01*
X-280159Y-42098004D01*
X-85718Y-42113307D01*
X-85709Y-42113307D01*
X-83261Y-42113500D01*
X72271Y-42113500D01*
X74407Y-42113354D01*
X74418Y-42113354D01*
X282548Y-42099165D01*
X282554Y-42099164D01*
X286825Y-42098873D01*
X291020Y-42098004D01*
X291022Y-42098004D01*
X427584Y-42069723D01*
X568342Y-42040574D01*
X839343Y-41944607D01*
X1094812Y-41812750D01*
X1098313Y-41810289D01*
X1098317Y-41810287D01*
X1212417Y-41730096D01*
X1330023Y-41647441D01*
X1540622Y-41451740D01*
X1722713Y-41229268D01*
X1872927Y-40984142D01*
X1988483Y-40720898D01*
X2001885Y-40673852D01*
X2042150Y-40532500D01*
X2067244Y-40444406D01*
X2104322Y-40183876D01*
X2107146Y-40164036D01*
X2107146Y-40164034D01*
X2107751Y-40159784D01*
X2107845Y-40141951D01*
X2109235Y-39876583D01*
X2109235Y-39876576D01*
X2109257Y-39872297D01*
X2104426Y-39835598D01*
X2076568Y-39624000D01*
X2071732Y-39587266D01*
X2070498Y-39582753D01*
X2028268Y-39428387D01*
X1995871Y-39309964D01*
X1974017Y-39258729D01*
X1884763Y-39049476D01*
X1884761Y-39049472D01*
X1883077Y-39045524D01*
X1758136Y-38836763D01*
X1737643Y-38802521D01*
X1737640Y-38802517D01*
X1735439Y-38798839D01*
X1555687Y-38574472D01*
X1347149Y-38376577D01*
X1113683Y-38208814D01*
X1091843Y-38197250D01*
X1008811Y-38153287D01*
X859608Y-38074288D01*
X671707Y-38005526D01*
X593658Y-37976964D01*
X593656Y-37976963D01*
X589627Y-37975489D01*
X308736Y-37914245D01*
X277685Y-37911801D01*
X85718Y-37896693D01*
X85709Y-37896693D01*
X83261Y-37896500D01*
X-72271Y-37896500D01*
X-74407Y-37896646D01*
X-74418Y-37896646D01*
X-282548Y-37910835D01*
X-282554Y-37910836D01*
X-286825Y-37911127D01*
X-291020Y-37911996D01*
X-291022Y-37911996D01*
X-327909Y-37919635D01*
X-568342Y-37969426D01*
X-839343Y-38065393D01*
X-1094812Y-38197250D01*
X-1098313Y-38199711D01*
X-1098317Y-38199713D01*
X-1203268Y-38273474D01*
X-1330023Y-38362559D01*
X-1343866Y-38375423D01*
X-1536852Y-38554757D01*
X-1540622Y-38558260D01*
X-1722713Y-38780732D01*
X-1872927Y-39025858D01*
X-1874653Y-39029791D01*
X-1874654Y-39029792D01*
X-1967111Y-39240416D01*
X-1988483Y-39289102D01*
X-1989658Y-39293229D01*
X-1989659Y-39293230D01*
X-2013937Y-39378459D01*
X-2067244Y-39565594D01*
X-2078380Y-39643841D01*
X-2105569Y-39834887D01*
X-2107751Y-39850216D01*
X-2107773Y-39854505D01*
X-2107774Y-39854512D01*
X-2109235Y-40133417D01*
X-2109257Y-40137703D01*
X-3295045Y-40137703D01*
X-3299764Y-40047666D01*
X-3298436Y-40021688D01*
X-3298195Y-40020144D01*
X-3298195Y-40020140D01*
X-3296814Y-40011270D01*
X-3298120Y-40001279D01*
X-3300936Y-39979749D01*
X-3302000Y-39963411D01*
X-3302000Y-29410324D01*
X-3281998Y-29342203D01*
X-3228342Y-29295710D01*
X-3158068Y-29285606D01*
X-3124751Y-29295217D01*
X-3076288Y-29316794D01*
X-2982887Y-29336647D01*
X-2895944Y-29355128D01*
X-2895939Y-29355128D01*
X-2889487Y-29356500D01*
X-2698513Y-29356500D01*
X-2692061Y-29355128D01*
X-2692056Y-29355128D01*
X-2605113Y-29336647D01*
X-2511712Y-29316794D01*
X-2505681Y-29314109D01*
X-2343278Y-29241803D01*
X-2343276Y-29241802D01*
X-2337248Y-29239118D01*
X-2320351Y-29226842D01*
X-2229321Y-29160704D01*
X-2182747Y-29126866D01*
X-2175779Y-29119127D01*
X-2059379Y-28989852D01*
X-2059378Y-28989851D01*
X-2054960Y-28984944D01*
X-1990294Y-28872939D01*
X-1962777Y-28825279D01*
X-1962776Y-28825278D01*
X-1959473Y-28819556D01*
X-1921276Y-28702000D01*
X-1421504Y-28702000D01*
X-1420814Y-28708565D01*
X-1402865Y-28879337D01*
X-1401542Y-28891928D01*
X-1342527Y-29073556D01*
X-1339224Y-29079278D01*
X-1339223Y-29079279D01*
X-1314739Y-29121686D01*
X-1247040Y-29238944D01*
X-1242622Y-29243851D01*
X-1242621Y-29243852D01*
X-1203835Y-29286928D01*
X-1119253Y-29380866D01*
X-964752Y-29493118D01*
X-958724Y-29495802D01*
X-958722Y-29495803D01*
X-805687Y-29563938D01*
X-790288Y-29570794D01*
X-696887Y-29590647D01*
X-609944Y-29609128D01*
X-609939Y-29609128D01*
X-603487Y-29610500D01*
X-412513Y-29610500D01*
X-406061Y-29609128D01*
X-406056Y-29609128D01*
X-319113Y-29590647D01*
X-225712Y-29570794D01*
X-210313Y-29563938D01*
X-57278Y-29495803D01*
X-57276Y-29495802D01*
X-51248Y-29493118D01*
X103253Y-29380866D01*
X187835Y-29286928D01*
X226621Y-29243852D01*
X226622Y-29243851D01*
X231040Y-29238944D01*
X298739Y-29121686D01*
X323223Y-29079279D01*
X323224Y-29079278D01*
X326527Y-29073556D01*
X385542Y-28891928D01*
X386232Y-28885364D01*
X387606Y-28878900D01*
X389660Y-28879337D01*
X412929Y-28822799D01*
X471156Y-28782177D01*
X542101Y-28779483D01*
X577333Y-28794380D01*
X655030Y-28842274D01*
X655033Y-28842275D01*
X661262Y-28846115D01*
X740995Y-28872561D01*
X822611Y-28899632D01*
X822613Y-28899632D01*
X829139Y-28901797D01*
X835975Y-28902497D01*
X835978Y-28902498D01*
X879031Y-28906909D01*
X933600Y-28912500D01*
X3934400Y-28912500D01*
X3937646Y-28912163D01*
X3937650Y-28912163D01*
X4033307Y-28902238D01*
X4033311Y-28902237D01*
X4040165Y-28901526D01*
X4046701Y-28899345D01*
X4046703Y-28899345D01*
X4178805Y-28855272D01*
X4207945Y-28845550D01*
X4358348Y-28752478D01*
X4483305Y-28627303D01*
X4506299Y-28590000D01*
X4572275Y-28482968D01*
X4572276Y-28482966D01*
X4576115Y-28476738D01*
X4631797Y-28308861D01*
X4642500Y-28204400D01*
X4642500Y-27103600D01*
X4642163Y-27100350D01*
X4632238Y-27004693D01*
X4632237Y-27004689D01*
X4631526Y-26997835D01*
X4625998Y-26981264D01*
X4577868Y-26837003D01*
X4575550Y-26830055D01*
X4482478Y-26679652D01*
X4357303Y-26554695D01*
X4347089Y-26548399D01*
X4212968Y-26465725D01*
X4212966Y-26465724D01*
X4206738Y-26461885D01*
X4046293Y-26408668D01*
X3987933Y-26368238D01*
X3960696Y-26302673D01*
X3973229Y-26232792D01*
X4021554Y-26180780D01*
X4046082Y-26169552D01*
X4207945Y-26115550D01*
X4358348Y-26022478D01*
X4483305Y-25897303D01*
X4490161Y-25886181D01*
X4572275Y-25752968D01*
X4572276Y-25752966D01*
X4576115Y-25746738D01*
X4620085Y-25614172D01*
X4629632Y-25585389D01*
X4629632Y-25585387D01*
X4631797Y-25578861D01*
X4633289Y-25564305D01*
X4638722Y-25511271D01*
X4642500Y-25474400D01*
X4642500Y-25443000D01*
X4662502Y-25374879D01*
X4716158Y-25328386D01*
X4768500Y-25317000D01*
X4896987Y-25317000D01*
X4903439Y-25315628D01*
X4903444Y-25315628D01*
X4990387Y-25297147D01*
X5083788Y-25277294D01*
X5089819Y-25274609D01*
X5252222Y-25202303D01*
X5252224Y-25202302D01*
X5258252Y-25199618D01*
X5271675Y-25189866D01*
X5323015Y-25152565D01*
X5412753Y-25087366D01*
X5417175Y-25082455D01*
X5536121Y-24950352D01*
X5536122Y-24950351D01*
X5540540Y-24945444D01*
X5600631Y-24841364D01*
X5632723Y-24785779D01*
X5632724Y-24785778D01*
X5636027Y-24780056D01*
X5695042Y-24598428D01*
X5707916Y-24475944D01*
X5714314Y-24415065D01*
X5715004Y-24408500D01*
X5699671Y-24262611D01*
X5695732Y-24225135D01*
X5695732Y-24225133D01*
X5695042Y-24218572D01*
X5636027Y-24036944D01*
X5540540Y-23871556D01*
X5437864Y-23757522D01*
X5417175Y-23734545D01*
X5417174Y-23734544D01*
X5412753Y-23729634D01*
X5258252Y-23617382D01*
X5252224Y-23614698D01*
X5252222Y-23614697D01*
X5089819Y-23542391D01*
X5089818Y-23542391D01*
X5083788Y-23539706D01*
X4964997Y-23514456D01*
X4903444Y-23501372D01*
X4903439Y-23501372D01*
X4896987Y-23500000D01*
X4706013Y-23500000D01*
X4699561Y-23501372D01*
X4699556Y-23501372D01*
X4638003Y-23514456D01*
X4519212Y-23539706D01*
X4513182Y-23542391D01*
X4513181Y-23542391D01*
X4350778Y-23614697D01*
X4350776Y-23614698D01*
X4344748Y-23617382D01*
X4339407Y-23621262D01*
X4339406Y-23621263D01*
X4245620Y-23689403D01*
X4178752Y-23713261D01*
X4131893Y-23707060D01*
X4038861Y-23676203D01*
X4032025Y-23675503D01*
X4032022Y-23675502D01*
X3988969Y-23671091D01*
X3934400Y-23665500D01*
X933600Y-23665500D01*
X930354Y-23665837D01*
X930350Y-23665837D01*
X834693Y-23675762D01*
X834689Y-23675763D01*
X827835Y-23676474D01*
X821299Y-23678655D01*
X821297Y-23678655D01*
X765391Y-23697307D01*
X660055Y-23732450D01*
X509652Y-23825522D01*
X504479Y-23830704D01*
X501404Y-23833784D01*
X384695Y-23950697D01*
X380855Y-23956927D01*
X380854Y-23956928D01*
X334546Y-24032054D01*
X291885Y-24101262D01*
X282709Y-24128928D01*
X238439Y-24262399D01*
X236203Y-24269139D01*
X235503Y-24275975D01*
X235502Y-24275978D01*
X232800Y-24302350D01*
X225500Y-24373600D01*
X225500Y-25070663D01*
X205498Y-25138784D01*
X151842Y-25185277D01*
X81568Y-25195381D01*
X25440Y-25172600D01*
X-51248Y-25116882D01*
X-57276Y-25114198D01*
X-57278Y-25114197D01*
X-219681Y-25041891D01*
X-219682Y-25041891D01*
X-225712Y-25039206D01*
X-336604Y-25015635D01*
X-406056Y-25000872D01*
X-406061Y-25000872D01*
X-412513Y-24999500D01*
X-603487Y-24999500D01*
X-609939Y-25000872D01*
X-609944Y-25000872D01*
X-679396Y-25015635D01*
X-790288Y-25039206D01*
X-796318Y-25041891D01*
X-796319Y-25041891D01*
X-958722Y-25114197D01*
X-958724Y-25114198D01*
X-964752Y-25116882D01*
X-970093Y-25120762D01*
X-970094Y-25120763D01*
X-1004829Y-25146000D01*
X-1119253Y-25229134D01*
X-1123674Y-25234044D01*
X-1123675Y-25234045D01*
X-1221063Y-25342206D01*
X-1247040Y-25371056D01*
X-1342527Y-25536444D01*
X-1401542Y-25718072D01*
X-1402232Y-25724633D01*
X-1402232Y-25724635D01*
X-1414192Y-25838432D01*
X-1421504Y-25908000D01*
X-1420814Y-25914565D01*
X-1408508Y-26031646D01*
X-1401542Y-26097928D01*
X-1342527Y-26279556D01*
X-1339224Y-26285278D01*
X-1339223Y-26285279D01*
X-1283381Y-26381999D01*
X-1266500Y-26444999D01*
X-1266500Y-28165001D01*
X-1283381Y-28228000D01*
X-1300276Y-28257263D01*
X-1333372Y-28314588D01*
X-1342527Y-28330444D01*
X-1401542Y-28512072D01*
X-1402232Y-28518633D01*
X-1402232Y-28518635D01*
X-1412998Y-28621072D01*
X-1421504Y-28702000D01*
X-1921276Y-28702000D01*
X-1900458Y-28637928D01*
X-1895893Y-28594500D01*
X-1881186Y-28454565D01*
X-1880496Y-28448000D01*
X-1888429Y-28372522D01*
X-1899768Y-28264635D01*
X-1899768Y-28264633D01*
X-1900458Y-28258072D01*
X-1959473Y-28076444D01*
X-2018619Y-27974000D01*
X-2035500Y-27911001D01*
X-2035500Y-22439500D01*
X-2015498Y-22371379D01*
X-1961842Y-22324886D01*
X-1909500Y-22313500D01*
X-371866Y-22313500D01*
X-309684Y-22306745D01*
X-173295Y-22255615D01*
X-56739Y-22168261D01*
X30615Y-22051705D01*
X81745Y-21915316D01*
X88500Y-21853134D01*
X88500Y-20056866D01*
X85038Y-20025000D01*
X3699496Y-20025000D01*
X3700186Y-20031565D01*
X3718728Y-20207978D01*
X3719458Y-20214928D01*
X3778473Y-20396556D01*
X3873960Y-20561944D01*
X3878378Y-20566851D01*
X3878379Y-20566852D01*
X3892491Y-20582525D01*
X4001747Y-20703866D01*
X4156248Y-20816118D01*
X4162276Y-20818802D01*
X4162278Y-20818803D01*
X4279729Y-20871095D01*
X4330712Y-20893794D01*
X4424113Y-20913647D01*
X4511056Y-20932128D01*
X4511061Y-20932128D01*
X4517513Y-20933500D01*
X4708487Y-20933500D01*
X4714939Y-20932128D01*
X4714944Y-20932128D01*
X4801887Y-20913647D01*
X4895288Y-20893794D01*
X4946271Y-20871095D01*
X5063722Y-20818803D01*
X5063724Y-20818802D01*
X5069752Y-20816118D01*
X5224253Y-20703866D01*
X5333509Y-20582525D01*
X5347621Y-20566852D01*
X5347622Y-20566851D01*
X5352040Y-20561944D01*
X5447527Y-20396556D01*
X5506542Y-20214928D01*
X5507273Y-20207978D01*
X5525814Y-20031565D01*
X5526504Y-20025000D01*
X5520458Y-19967471D01*
X5507232Y-19841635D01*
X5507232Y-19841633D01*
X5506542Y-19835072D01*
X5447527Y-19653444D01*
X5422422Y-19609960D01*
X5400388Y-19571797D01*
X5352040Y-19488056D01*
X5333116Y-19467039D01*
X5228675Y-19351045D01*
X5228674Y-19351044D01*
X5224253Y-19346134D01*
X5069752Y-19233882D01*
X5063724Y-19231198D01*
X5063722Y-19231197D01*
X4901319Y-19158891D01*
X4901318Y-19158891D01*
X4895288Y-19156206D01*
X4801888Y-19136353D01*
X4714944Y-19117872D01*
X4714939Y-19117872D01*
X4708487Y-19116500D01*
X4517513Y-19116500D01*
X4511061Y-19117872D01*
X4511056Y-19117872D01*
X4424112Y-19136353D01*
X4330712Y-19156206D01*
X4324682Y-19158891D01*
X4324681Y-19158891D01*
X4162278Y-19231197D01*
X4162276Y-19231198D01*
X4156248Y-19233882D01*
X4001747Y-19346134D01*
X3997326Y-19351044D01*
X3997325Y-19351045D01*
X3892884Y-19467039D01*
X3873960Y-19488056D01*
X3825612Y-19571797D01*
X3803579Y-19609960D01*
X3778473Y-19653444D01*
X3719458Y-19835072D01*
X3718768Y-19841633D01*
X3718768Y-19841635D01*
X3705542Y-19967471D01*
X3699496Y-20025000D01*
X85038Y-20025000D01*
X81745Y-19994684D01*
X30615Y-19858295D01*
X-56739Y-19741739D01*
X-173295Y-19654385D01*
X-191071Y-19647721D01*
X-291797Y-19609960D01*
X-348561Y-19567318D01*
X-373261Y-19500756D01*
X-358053Y-19431408D01*
X-336507Y-19402727D01*
X-292773Y-19359146D01*
X-231904Y-19298489D01*
X-156282Y-19193250D01*
X-104565Y-19121277D01*
X-101547Y-19117077D01*
X-82786Y-19079118D01*
X-4864Y-18921453D01*
X-4863Y-18921451D01*
X-2570Y-18916811D01*
X55646Y-18725200D01*
X60865Y-18708023D01*
X60865Y-18708021D01*
X62370Y-18703069D01*
X91529Y-18481590D01*
X91611Y-18478240D01*
X93074Y-18418365D01*
X93074Y-18418361D01*
X93156Y-18415000D01*
X74852Y-18192361D01*
X20431Y-17975702D01*
X-68646Y-17770840D01*
X-112954Y-17702350D01*
X-187178Y-17587617D01*
X-187180Y-17587614D01*
X-189986Y-17583277D01*
X-340330Y-17418051D01*
X-344381Y-17414852D01*
X-344385Y-17414848D01*
X-511586Y-17282800D01*
X-511590Y-17282798D01*
X-515641Y-17279598D01*
X-557431Y-17256529D01*
X-607402Y-17206097D01*
X-622174Y-17136654D01*
X-597058Y-17070248D01*
X-569706Y-17043641D01*
X-394672Y-16918792D01*
X-386800Y-16912139D01*
X-235948Y-16761812D01*
X-229270Y-16753965D01*
X-104997Y-16581020D01*
X-99687Y-16572183D01*
X-13457Y-16397711D01*
X34657Y-16345504D01*
X103358Y-16327597D01*
X170834Y-16349676D01*
X215663Y-16404730D01*
X225500Y-16453538D01*
X225500Y-16774400D01*
X225837Y-16777646D01*
X225837Y-16777650D01*
X233540Y-16851883D01*
X236474Y-16880165D01*
X292450Y-17047945D01*
X385522Y-17198348D01*
X390704Y-17203521D01*
X446404Y-17259124D01*
X510697Y-17323305D01*
X516927Y-17327145D01*
X516928Y-17327146D01*
X654090Y-17411694D01*
X661262Y-17416115D01*
X678613Y-17421870D01*
X822611Y-17469632D01*
X822613Y-17469632D01*
X829139Y-17471797D01*
X835975Y-17472497D01*
X835978Y-17472498D01*
X879031Y-17476909D01*
X933600Y-17482500D01*
X3934400Y-17482500D01*
X3937646Y-17482163D01*
X3937650Y-17482163D01*
X4033307Y-17472238D01*
X4033311Y-17472237D01*
X4040165Y-17471526D01*
X4046701Y-17469345D01*
X4046703Y-17469345D01*
X4197011Y-17419198D01*
X4207945Y-17415550D01*
X4358348Y-17322478D01*
X4379845Y-17300944D01*
X4478134Y-17202483D01*
X4483305Y-17197303D01*
X4491664Y-17183743D01*
X4572275Y-17052968D01*
X4572276Y-17052966D01*
X4576115Y-17046738D01*
X4631797Y-16878861D01*
X4635301Y-16844667D01*
X4638889Y-16809639D01*
X4642500Y-16774400D01*
X4642500Y-15673600D01*
X4642163Y-15670350D01*
X4632238Y-15574693D01*
X4632237Y-15574689D01*
X4631526Y-15567835D01*
X4628588Y-15559027D01*
X4581991Y-15419361D01*
X4575550Y-15400055D01*
X4482478Y-15249652D01*
X4357303Y-15124695D01*
X4348398Y-15119206D01*
X4212968Y-15035725D01*
X4212966Y-15035724D01*
X4206738Y-15031885D01*
X4046293Y-14978668D01*
X3987933Y-14938238D01*
X3960696Y-14872673D01*
X3973229Y-14802792D01*
X4021554Y-14750780D01*
X4046082Y-14739552D01*
X4207945Y-14685550D01*
X4358348Y-14592478D01*
X4483305Y-14467303D01*
X4515383Y-14415263D01*
X4572275Y-14322968D01*
X4572276Y-14322966D01*
X4576115Y-14316738D01*
X4631797Y-14148861D01*
X4632972Y-14137398D01*
X4638968Y-14078872D01*
X4642500Y-14044400D01*
X4642500Y-12943600D01*
X4642163Y-12940350D01*
X4632238Y-12844693D01*
X4632237Y-12844689D01*
X4631526Y-12837835D01*
X4624402Y-12816480D01*
X4577868Y-12677003D01*
X4575550Y-12670055D01*
X4482478Y-12519652D01*
X4357303Y-12394695D01*
X4351072Y-12390854D01*
X4212968Y-12305725D01*
X4212966Y-12305724D01*
X4206738Y-12301885D01*
X4051310Y-12250332D01*
X4045389Y-12248368D01*
X4045387Y-12248368D01*
X4038861Y-12246203D01*
X4032025Y-12245503D01*
X4032022Y-12245502D01*
X3988969Y-12241091D01*
X3934400Y-12235500D01*
X1784173Y-12235500D01*
X1716052Y-12215498D01*
X1669559Y-12161842D01*
X1658863Y-12096330D01*
X1659695Y-12088419D01*
X1675504Y-11938000D01*
X1670604Y-11891381D01*
X1656232Y-11754635D01*
X1656232Y-11754633D01*
X1655542Y-11748072D01*
X1596527Y-11566444D01*
X1583170Y-11543308D01*
X1550931Y-11487469D01*
X1501040Y-11401056D01*
X1419971Y-11311019D01*
X1377675Y-11264045D01*
X1377674Y-11264044D01*
X1373253Y-11259134D01*
X1274157Y-11187136D01*
X1224094Y-11150763D01*
X1224093Y-11150762D01*
X1218752Y-11146882D01*
X1212724Y-11144198D01*
X1212722Y-11144197D01*
X1050319Y-11071891D01*
X1050318Y-11071891D01*
X1044288Y-11069206D01*
X950888Y-11049353D01*
X863944Y-11030872D01*
X863939Y-11030872D01*
X857487Y-11029500D01*
X666513Y-11029500D01*
X660061Y-11030872D01*
X660056Y-11030872D01*
X573112Y-11049353D01*
X479712Y-11069206D01*
X473682Y-11071891D01*
X473681Y-11071891D01*
X311278Y-11144197D01*
X311276Y-11144198D01*
X305248Y-11146882D01*
X299907Y-11150762D01*
X299906Y-11150763D01*
X249843Y-11187136D01*
X150747Y-11259134D01*
X146326Y-11264044D01*
X146325Y-11264045D01*
X104030Y-11311019D01*
X22960Y-11401056D01*
X-26931Y-11487469D01*
X-59169Y-11543308D01*
X-72527Y-11566444D01*
X-131542Y-11748072D01*
X-132232Y-11754633D01*
X-132232Y-11754635D01*
X-146604Y-11891381D01*
X-151504Y-11938000D01*
X-150814Y-11944565D01*
X-132238Y-12121303D01*
X-131542Y-12127928D01*
X-72527Y-12309556D01*
X-69224Y-12315278D01*
X-69223Y-12315279D01*
X-57436Y-12335694D01*
X22960Y-12474944D01*
X27378Y-12479851D01*
X27379Y-12479852D01*
X107900Y-12569279D01*
X150747Y-12616866D01*
X156086Y-12620745D01*
X156087Y-12620746D01*
X204480Y-12655906D01*
X247833Y-12712129D01*
X253908Y-12782865D01*
X250011Y-12797509D01*
X243719Y-12816480D01*
X236203Y-12839139D01*
X225500Y-12943600D01*
X225500Y-14044400D01*
X225837Y-14047646D01*
X225837Y-14047650D01*
X234980Y-14135763D01*
X236474Y-14150165D01*
X238655Y-14156701D01*
X238655Y-14156703D01*
X266529Y-14240251D01*
X292450Y-14317945D01*
X385522Y-14468348D01*
X510697Y-14593305D01*
X516927Y-14597145D01*
X516928Y-14597146D01*
X654090Y-14681694D01*
X661262Y-14686115D01*
X733313Y-14710013D01*
X821707Y-14739332D01*
X880067Y-14779762D01*
X907304Y-14845327D01*
X894771Y-14915208D01*
X846446Y-14967220D01*
X821918Y-14978448D01*
X660055Y-15032450D01*
X509652Y-15125522D01*
X384695Y-15250697D01*
X380855Y-15256927D01*
X380854Y-15256928D01*
X321300Y-15353543D01*
X291885Y-15401262D01*
X289580Y-15408212D01*
X268510Y-15471736D01*
X228080Y-15530097D01*
X162516Y-15557334D01*
X92634Y-15544801D01*
X40622Y-15496477D01*
X26714Y-15462767D01*
X21217Y-15440884D01*
X17894Y-15431124D01*
X-67028Y-15235814D01*
X-71895Y-15226739D01*
X-187574Y-15047926D01*
X-193864Y-15039757D01*
X-337194Y-14882240D01*
X-344727Y-14875215D01*
X-511861Y-14743222D01*
X-520448Y-14737517D01*
X-706883Y-14634599D01*
X-716295Y-14630369D01*
X-917041Y-14559280D01*
X-927012Y-14556646D01*
X-998163Y-14543972D01*
X-1011460Y-14545432D01*
X-1016000Y-14559989D01*
X-1016000Y-16003000D01*
X-1036002Y-16071121D01*
X-1089658Y-16117614D01*
X-1142000Y-16129000D01*
X-2586775Y-16129000D01*
X-2600306Y-16132973D01*
X-2601743Y-16142966D01*
X-2571435Y-16277446D01*
X-2568355Y-16287275D01*
X-2488230Y-16484603D01*
X-2483587Y-16493794D01*
X-2372306Y-16675388D01*
X-2366223Y-16683699D01*
X-2226787Y-16844667D01*
X-2219420Y-16851883D01*
X-2055566Y-16987916D01*
X-2047119Y-16993831D01*
X-1978031Y-17034203D01*
X-1929307Y-17085842D01*
X-1916236Y-17155625D01*
X-1942967Y-17221396D01*
X-1983416Y-17254752D01*
X-1996393Y-17261507D01*
X-2000526Y-17264610D01*
X-2000529Y-17264612D01*
X-2170900Y-17392530D01*
X-2175035Y-17395635D01*
X-2193282Y-17414729D01*
X-2287132Y-17512938D01*
X-2329371Y-17557138D01*
X-2332285Y-17561410D01*
X-2332286Y-17561411D01*
X-2363175Y-17606693D01*
X-2455257Y-17741680D01*
X-2549312Y-17944305D01*
X-2609011Y-18159570D01*
X-2632749Y-18381695D01*
X-2619890Y-18604715D01*
X-2618753Y-18609760D01*
X-2618034Y-18614877D01*
X-2619482Y-18615081D01*
X-2623602Y-18679274D01*
X-2652881Y-18725200D01*
X-3086905Y-19159224D01*
X-3149217Y-19193250D01*
X-3220032Y-19188185D01*
X-3276868Y-19145638D01*
X-3301679Y-19079118D01*
X-3302000Y-19070129D01*
X-3302000Y-15609183D01*
X-2605611Y-15609183D01*
X-2604088Y-15617607D01*
X-2591708Y-15621000D01*
X-1542115Y-15621000D01*
X-1526876Y-15616525D01*
X-1525671Y-15615135D01*
X-1524000Y-15607452D01*
X-1524000Y-14558102D01*
X-1527918Y-14544758D01*
X-1542194Y-14542771D01*
X-1580676Y-14548660D01*
X-1590712Y-14551051D01*
X-1793132Y-14617212D01*
X-1802641Y-14621209D01*
X-1991537Y-14719542D01*
X-2000262Y-14725036D01*
X-2170567Y-14852905D01*
X-2178274Y-14859748D01*
X-2325410Y-15013717D01*
X-2331896Y-15021727D01*
X-2451902Y-15197649D01*
X-2457000Y-15206623D01*
X-2546662Y-15399783D01*
X-2550225Y-15409470D01*
X-2605611Y-15609183D01*
X-3302000Y-15609183D01*
X-3302000Y-10424669D01*
X-2627999Y-10424669D01*
X-2627629Y-10431490D01*
X-2622105Y-10482352D01*
X-2618479Y-10497604D01*
X-2573324Y-10618054D01*
X-2564786Y-10633649D01*
X-2488285Y-10735724D01*
X-2475724Y-10748285D01*
X-2373649Y-10824786D01*
X-2358054Y-10833324D01*
X-2237606Y-10878478D01*
X-2222351Y-10882105D01*
X-2171486Y-10887631D01*
X-2164672Y-10888000D01*
X-1542115Y-10888000D01*
X-1526876Y-10883525D01*
X-1525671Y-10882135D01*
X-1524000Y-10874452D01*
X-1524000Y-10869884D01*
X-1016000Y-10869884D01*
X-1011525Y-10885123D01*
X-1010135Y-10886328D01*
X-1002452Y-10887999D01*
X-375331Y-10887999D01*
X-368510Y-10887629D01*
X-317648Y-10882105D01*
X-302396Y-10878479D01*
X-181946Y-10833324D01*
X-166351Y-10824786D01*
X-64276Y-10748285D01*
X-51715Y-10735724D01*
X24786Y-10633649D01*
X33324Y-10618054D01*
X78478Y-10497606D01*
X82105Y-10482351D01*
X87631Y-10431486D01*
X88000Y-10424672D01*
X88000Y-9802115D01*
X83525Y-9786876D01*
X82135Y-9785671D01*
X74452Y-9784000D01*
X-997885Y-9784000D01*
X-1013124Y-9788475D01*
X-1014329Y-9789865D01*
X-1016000Y-9797548D01*
X-1016000Y-10869884D01*
X-1524000Y-10869884D01*
X-1524000Y-9802115D01*
X-1528475Y-9786876D01*
X-1529865Y-9785671D01*
X-1537548Y-9784000D01*
X-2609884Y-9784000D01*
X-2625123Y-9788475D01*
X-2626328Y-9789865D01*
X-2627999Y-9797548D01*
X-2627999Y-10424669D01*
X-3302000Y-10424669D01*
X-3302000Y-6956695D01*
X-2632749Y-6956695D01*
X-2632452Y-6961848D01*
X-2632452Y-6961851D01*
X-2624173Y-7105435D01*
X-2619890Y-7179715D01*
X-2618753Y-7184761D01*
X-2618752Y-7184767D01*
X-2606949Y-7237137D01*
X-2570778Y-7397639D01*
X-2533567Y-7489279D01*
X-2493384Y-7588238D01*
X-2486734Y-7604616D01*
X-2440465Y-7680120D01*
X-2382222Y-7775164D01*
X-2370013Y-7795088D01*
X-2223750Y-7963938D01*
X-2219775Y-7967238D01*
X-2219769Y-7967244D01*
X-2214575Y-7971556D01*
X-2174941Y-8030460D01*
X-2173445Y-8101441D01*
X-2210561Y-8161962D01*
X-2250832Y-8186480D01*
X-2358054Y-8226676D01*
X-2373649Y-8235214D01*
X-2475724Y-8311715D01*
X-2488285Y-8324276D01*
X-2564786Y-8426351D01*
X-2573324Y-8441946D01*
X-2618478Y-8562394D01*
X-2622105Y-8577649D01*
X-2627631Y-8628514D01*
X-2628000Y-8635328D01*
X-2628000Y-9257885D01*
X-2623525Y-9273124D01*
X-2622135Y-9274329D01*
X-2614452Y-9276000D01*
X69884Y-9276000D01*
X85123Y-9271525D01*
X86328Y-9270135D01*
X87999Y-9262452D01*
X87999Y-8635331D01*
X87629Y-8628510D01*
X82105Y-8577648D01*
X78479Y-8562396D01*
X33324Y-8441946D01*
X24786Y-8426351D01*
X-51715Y-8324276D01*
X-64276Y-8311715D01*
X-166351Y-8235214D01*
X-181946Y-8226676D01*
X-292187Y-8185348D01*
X-348951Y-8142706D01*
X-373651Y-8076145D01*
X-358443Y-8006796D01*
X-336896Y-7978115D01*
X-235570Y-7877144D01*
X-235560Y-7877132D01*
X-231904Y-7873489D01*
X-223734Y-7862120D01*
X-104847Y-7696669D01*
X-101547Y-7692077D01*
X-95637Y-7680120D01*
X-4864Y-7496453D01*
X-4863Y-7496451D01*
X-2570Y-7491811D01*
X59180Y-7288570D01*
X60865Y-7283023D01*
X60865Y-7283021D01*
X62370Y-7278069D01*
X91529Y-7056590D01*
X91611Y-7053240D01*
X93074Y-6993365D01*
X93074Y-6993361D01*
X93156Y-6990000D01*
X74852Y-6767361D01*
X20431Y-6550702D01*
X-68646Y-6345840D01*
X-135552Y-6242419D01*
X-187178Y-6162617D01*
X-187180Y-6162614D01*
X-189986Y-6158277D01*
X-340330Y-5993051D01*
X-344381Y-5989852D01*
X-344385Y-5989848D01*
X-511586Y-5857800D01*
X-511590Y-5857798D01*
X-515641Y-5854598D01*
X-711211Y-5746638D01*
X-716080Y-5744914D01*
X-716084Y-5744912D01*
X-916913Y-5673795D01*
X-916917Y-5673794D01*
X-921788Y-5672069D01*
X-926881Y-5671162D01*
X-926884Y-5671161D01*
X-1136627Y-5633800D01*
X-1136633Y-5633799D01*
X-1141716Y-5632894D01*
X-1215548Y-5631992D01*
X-1359919Y-5630228D01*
X-1359921Y-5630228D01*
X-1365089Y-5630165D01*
X-1585909Y-5663955D01*
X-1798244Y-5733357D01*
X-1996393Y-5836507D01*
X-2000526Y-5839610D01*
X-2000529Y-5839612D01*
X-2126467Y-5934169D01*
X-2175035Y-5970635D01*
X-2329371Y-6132138D01*
X-2332285Y-6136410D01*
X-2332286Y-6136411D01*
X-2403028Y-6240115D01*
X-2455257Y-6316680D01*
X-2493822Y-6399762D01*
X-2507510Y-6429251D01*
X-2549312Y-6519305D01*
X-2609011Y-6734570D01*
X-2632749Y-6956695D01*
X-3302000Y-6956695D01*
X-3302000Y-132703D01*
X-2109257Y-132703D01*
X-2071732Y-417734D01*
X-1995871Y-695036D01*
X-1883077Y-959476D01*
X-1735439Y-1206161D01*
X-1555687Y-1430528D01*
X-1347149Y-1628423D01*
X-1113683Y-1796186D01*
X-1109888Y-1798195D01*
X-1109887Y-1798196D01*
X-1088131Y-1809715D01*
X-859608Y-1930712D01*
X-589627Y-2029511D01*
X-308736Y-2090755D01*
X-280159Y-2093004D01*
X-85718Y-2108307D01*
X-85709Y-2108307D01*
X-83261Y-2108500D01*
X72271Y-2108500D01*
X74407Y-2108354D01*
X74418Y-2108354D01*
X282548Y-2094165D01*
X282554Y-2094164D01*
X286825Y-2093873D01*
X291020Y-2093004D01*
X291022Y-2093004D01*
X427584Y-2064723D01*
X568342Y-2035574D01*
X839343Y-1939607D01*
X1094812Y-1807750D01*
X1098313Y-1805289D01*
X1098317Y-1805287D01*
X1212417Y-1725096D01*
X1330023Y-1642441D01*
X1540622Y-1446740D01*
X1722713Y-1224268D01*
X1872927Y-979142D01*
X1988483Y-715898D01*
X2067244Y-439406D01*
X2107751Y-154784D01*
X2107845Y-136951D01*
X2109235Y128417D01*
X2109235Y128424D01*
X2109257Y132703D01*
X2071732Y417734D01*
X1995871Y695036D01*
X1985295Y719830D01*
X1884763Y955524D01*
X1884761Y955528D01*
X1883077Y959476D01*
X1735439Y1206161D01*
X1555687Y1430528D01*
X1347149Y1628423D01*
X1113683Y1796186D01*
X1091843Y1807750D01*
X1068654Y1820028D01*
X859608Y1930712D01*
X589627Y2029511D01*
X308736Y2090755D01*
X277685Y2093199D01*
X85718Y2108307D01*
X85709Y2108307D01*
X83261Y2108500D01*
X-72271Y2108500D01*
X-74407Y2108354D01*
X-74418Y2108354D01*
X-282548Y2094165D01*
X-282554Y2094164D01*
X-286825Y2093873D01*
X-291020Y2093004D01*
X-291022Y2093004D01*
X-427584Y2064723D01*
X-568342Y2035574D01*
X-839343Y1939607D01*
X-1094812Y1807750D01*
X-1098313Y1805289D01*
X-1098317Y1805287D01*
X-1108406Y1798196D01*
X-1330023Y1642441D01*
X-1540622Y1446740D01*
X-1722713Y1224268D01*
X-1872927Y979142D01*
X-1988483Y715898D01*
X-2067244Y439406D01*
X-2107751Y154784D01*
X-2107773Y150495D01*
X-2107774Y150488D01*
X-2109235Y-128417D01*
X-2109257Y-132703D01*
X-3302000Y-132703D01*
X-3302000Y-49328D01*
X-3300500Y-29943D01*
X-3298195Y-15142D01*
X-3298195Y-15139D01*
X-3296814Y-6270D01*
X-3299257Y12411D01*
X-3300148Y35343D01*
X-3284257Y338554D01*
X-3282879Y351671D01*
X-3271759Y421876D01*
X-3230877Y680002D01*
X-3228135Y692902D01*
X-3142097Y1014000D01*
X-3138021Y1026544D01*
X-3018895Y1336876D01*
X-3013531Y1348924D01*
X-2862612Y1645120D01*
X-2856018Y1656541D01*
X-2674967Y1935334D01*
X-2667221Y1945996D01*
X-2600786Y2028036D01*
X-2458015Y2204345D01*
X-2449190Y2214145D01*
X-2214145Y2449190D01*
X-2204344Y2458016D01*
X-1945996Y2667221D01*
X-1935334Y2674967D01*
X-1656536Y2856021D01*
X-1645120Y2862612D01*
X-1348924Y3013531D01*
X-1336876Y3018895D01*
X-1299358Y3033297D01*
X-1026536Y3138023D01*
X-1014000Y3142097D01*
X-692902Y3228135D01*
X-680002Y3230877D01*
X-591285Y3244928D01*
X-351665Y3282880D01*
X-338557Y3284257D01*
X-42666Y3299764D01*
X-16688Y3298436D01*
X-15144Y3298195D01*
X-15140Y3298195D01*
X-6270Y3296814D01*
X2632Y3297978D01*
X2635Y3297978D01*
X25251Y3300936D01*
X41589Y3302000D01*
X4700000Y3302000D01*
X4768121Y3281998D01*
G37*
G04 #@! TD.AperFunction*
M02*
