G04 #@! TF.GenerationSoftware,KiCad,Pcbnew,(6.0.0)*
G04 #@! TF.CreationDate,2022-11-09T00:59:33-05:00*
G04 #@! TF.ProjectId,esp8266 atmosphere sensor,65737038-3236-4362-9061-746d6f737068,rev?*
G04 #@! TF.SameCoordinates,Original*
G04 #@! TF.FileFunction,Copper,L1,Top*
G04 #@! TF.FilePolarity,Positive*
%FSLAX46Y46*%
G04 Gerber Fmt 4.6, Leading zero omitted, Abs format (unit mm)*
G04 Created by KiCad (PCBNEW (6.0.0)) date 2022-11-09 00:59:33*
%MOMM*%
%LPD*%
G01*
G04 APERTURE LIST*
G04 Aperture macros list*
%AMRoundRect*
0 Rectangle with rounded corners*
0 $1 Rounding radius*
0 $2 $3 $4 $5 $6 $7 $8 $9 X,Y pos of 4 corners*
0 Add a 4 corners polygon primitive as box body*
4,1,4,$2,$3,$4,$5,$6,$7,$8,$9,$2,$3,0*
0 Add four circle primitives for the rounded corners*
1,1,$1+$1,$2,$3*
1,1,$1+$1,$4,$5*
1,1,$1+$1,$6,$7*
1,1,$1+$1,$8,$9*
0 Add four rect primitives between the rounded corners*
20,1,$1+$1,$2,$3,$4,$5,0*
20,1,$1+$1,$4,$5,$6,$7,0*
20,1,$1+$1,$6,$7,$8,$9,0*
20,1,$1+$1,$8,$9,$2,$3,0*%
G04 Aperture macros list end*
G04 #@! TA.AperFunction,SMDPad,CuDef*
%ADD10R,0.400000X1.350000*%
G04 #@! TD*
G04 #@! TA.AperFunction,SMDPad,CuDef*
%ADD11R,1.900000X1.900000*%
G04 #@! TD*
G04 #@! TA.AperFunction,ComponentPad*
%ADD12RoundRect,0.250000X-0.600000X-0.600000X0.600000X-0.600000X0.600000X0.600000X-0.600000X0.600000X0*%
G04 #@! TD*
G04 #@! TA.AperFunction,ComponentPad*
%ADD13C,1.700000*%
G04 #@! TD*
G04 #@! TA.AperFunction,SMDPad,CuDef*
%ADD14RoundRect,0.218750X-0.218750X-0.256250X0.218750X-0.256250X0.218750X0.256250X-0.218750X0.256250X0*%
G04 #@! TD*
G04 #@! TA.AperFunction,SMDPad,CuDef*
%ADD15R,2.500000X1.000000*%
G04 #@! TD*
G04 #@! TA.AperFunction,SMDPad,CuDef*
%ADD16R,1.000000X1.800000*%
G04 #@! TD*
G04 #@! TA.AperFunction,ComponentPad*
%ADD17R,1.700000X1.700000*%
G04 #@! TD*
G04 #@! TA.AperFunction,ComponentPad*
%ADD18O,1.700000X1.700000*%
G04 #@! TD*
G04 #@! TA.AperFunction,SMDPad,CuDef*
%ADD19RoundRect,0.200000X0.200000X0.275000X-0.200000X0.275000X-0.200000X-0.275000X0.200000X-0.275000X0*%
G04 #@! TD*
G04 #@! TA.AperFunction,SMDPad,CuDef*
%ADD20RoundRect,0.200000X-0.200000X-0.275000X0.200000X-0.275000X0.200000X0.275000X-0.200000X0.275000X0*%
G04 #@! TD*
G04 #@! TA.AperFunction,SMDPad,CuDef*
%ADD21R,1.500000X2.000000*%
G04 #@! TD*
G04 #@! TA.AperFunction,SMDPad,CuDef*
%ADD22R,3.800000X2.000000*%
G04 #@! TD*
G04 #@! TA.AperFunction,SMDPad,CuDef*
%ADD23RoundRect,0.225000X0.225000X0.250000X-0.225000X0.250000X-0.225000X-0.250000X0.225000X-0.250000X0*%
G04 #@! TD*
G04 #@! TA.AperFunction,SMDPad,CuDef*
%ADD24RoundRect,0.250000X0.325000X0.650000X-0.325000X0.650000X-0.325000X-0.650000X0.325000X-0.650000X0*%
G04 #@! TD*
G04 #@! TA.AperFunction,SMDPad,CuDef*
%ADD25R,1.600000X1.400000*%
G04 #@! TD*
G04 #@! TA.AperFunction,SMDPad,CuDef*
%ADD26RoundRect,0.250000X-0.650000X0.325000X-0.650000X-0.325000X0.650000X-0.325000X0.650000X0.325000X0*%
G04 #@! TD*
G04 #@! TA.AperFunction,SMDPad,CuDef*
%ADD27RoundRect,0.225000X-0.225000X-0.250000X0.225000X-0.250000X0.225000X0.250000X-0.225000X0.250000X0*%
G04 #@! TD*
G04 #@! TA.AperFunction,ViaPad*
%ADD28C,0.800000*%
G04 #@! TD*
G04 #@! TA.AperFunction,Conductor*
%ADD29C,0.300000*%
G04 #@! TD*
G04 #@! TA.AperFunction,Conductor*
%ADD30C,0.500000*%
G04 #@! TD*
G04 #@! TA.AperFunction,Conductor*
%ADD31C,1.000000*%
G04 #@! TD*
G04 APERTURE END LIST*
D10*
X13305000Y-37365000D03*
X15905000Y-37365000D03*
X13955000Y-37365000D03*
X14605000Y-37365000D03*
X15255000Y-37365000D03*
D11*
X10655000Y-40040000D03*
X13405000Y-40040000D03*
X15805000Y-40040000D03*
X18555000Y-40040000D03*
D12*
X27305000Y-3810000D03*
D13*
X29845000Y-3810000D03*
X27305000Y-6350000D03*
X29845000Y-6350000D03*
X27305000Y-8890000D03*
X29845000Y-8890000D03*
D14*
X10642500Y-26670000D03*
X12217500Y-26670000D03*
D15*
X6370000Y-6025000D03*
X6370000Y-8025000D03*
X6370000Y-10025000D03*
X6370000Y-12025000D03*
X6370000Y-14025000D03*
X6370000Y-16025000D03*
X6370000Y-18025000D03*
X6370000Y-20025000D03*
D16*
X8970000Y-21525000D03*
X10970000Y-21525000D03*
X12970000Y-21525000D03*
X14970000Y-21525000D03*
X16970000Y-21525000D03*
X18970000Y-21525000D03*
D15*
X21570000Y-20025000D03*
X21570000Y-18025000D03*
X21570000Y-16025000D03*
X21570000Y-14025000D03*
X21570000Y-12025000D03*
X21570000Y-10025000D03*
X21570000Y-8025000D03*
X21570000Y-6025000D03*
D17*
X35560000Y-33345000D03*
D18*
X38100000Y-33345000D03*
X40640000Y-33345000D03*
X43180000Y-33345000D03*
X45720000Y-33345000D03*
D17*
X17145000Y-31130000D03*
D18*
X17145000Y-28590000D03*
X17145000Y-26050000D03*
D17*
X31115000Y-31115000D03*
D18*
X28575000Y-31115000D03*
X26035000Y-31115000D03*
X23495000Y-31115000D03*
D17*
X41275000Y-20955000D03*
D18*
X41275000Y-23495000D03*
X41275000Y-26035000D03*
X41275000Y-28575000D03*
D19*
X25463000Y-13970000D03*
X23813000Y-13970000D03*
D20*
X10605000Y-25146000D03*
X12255000Y-25146000D03*
D19*
X25463000Y-18034000D03*
X23813000Y-18034000D03*
D17*
X-1270000Y-20955000D03*
D18*
X-1270000Y-18415000D03*
X-1270000Y-15875000D03*
D19*
X25463000Y-16002000D03*
X23813000Y-16002000D03*
D21*
X-1030000Y-30455000D03*
X1270000Y-30455000D03*
D22*
X1270000Y-24155000D03*
D21*
X3570000Y-30455000D03*
D23*
X3823000Y-35052000D03*
X2273000Y-35052000D03*
D20*
X2477000Y-8636000D03*
X4127000Y-8636000D03*
D17*
X-1270000Y-9530000D03*
D18*
X-1270000Y-6990000D03*
D24*
X3761000Y-33020000D03*
X811000Y-33020000D03*
D23*
X4077000Y-4572000D03*
X2527000Y-4572000D03*
D20*
X2477000Y-13462000D03*
X4127000Y-13462000D03*
D25*
X39434000Y-11085000D03*
X47434000Y-11085000D03*
X39434000Y-15585000D03*
X47434000Y-15585000D03*
D20*
X2477000Y-6096000D03*
X4127000Y-6096000D03*
D26*
X6096000Y-25703000D03*
X6096000Y-28653000D03*
D19*
X4127000Y-10160000D03*
X2477000Y-10160000D03*
D27*
X39611000Y-9144000D03*
X41161000Y-9144000D03*
D28*
X25654000Y1016000D03*
X45212000Y-8890000D03*
X40386000Y-5334000D03*
X40640000Y2032000D03*
X33274000Y-39624000D03*
X3556000Y-40132000D03*
X-2794000Y-28448000D03*
X35560000Y-7620000D03*
X8699000Y-23939000D03*
X29972000Y-17780000D03*
X9398000Y-14986000D03*
X29909480Y-13145480D03*
X1270000Y-7112000D03*
X4613000Y-20025000D03*
X10414000Y-6096000D03*
X25463000Y-14923000D03*
X762000Y-11938000D03*
X17272000Y-36322000D03*
X9398000Y-25146000D03*
X-508000Y-28702000D03*
X27940000Y-27686000D03*
X37338000Y-15240000D03*
X-508000Y-25908000D03*
X9652000Y-16764000D03*
X9207000Y-26861000D03*
X4801500Y-24408500D03*
X33070031Y-12395969D03*
X20320000Y-22860000D03*
X16002000Y-18034000D03*
X26797000Y-24511000D03*
X36513480Y-16826520D03*
X13616511Y-15902511D03*
X12867000Y-12025000D03*
X23368000Y-12192000D03*
X13264511Y-29915489D03*
X23622000Y-10160000D03*
D29*
X4127000Y-13462000D02*
X4127000Y-11818978D01*
X4127000Y-11818978D02*
X5920978Y-10025000D01*
X5920978Y-10025000D02*
X6370000Y-10025000D01*
X15905000Y-37365000D02*
X15905000Y-39940000D01*
X15905000Y-39940000D02*
X15805000Y-40040000D01*
X15905000Y-37365000D02*
X15905000Y-36165000D01*
X15905000Y-36165000D02*
X16002000Y-36068000D01*
D30*
X13208000Y-35052000D02*
X13305000Y-35149000D01*
D31*
X3570000Y-30455000D02*
X3570000Y-32829000D01*
D30*
X13305000Y-37365000D02*
X13305000Y-35149000D01*
X3823000Y-35052000D02*
X3823000Y-33082000D01*
X3823000Y-33082000D02*
X3761000Y-33020000D01*
X3823000Y-35052000D02*
X13208000Y-35052000D01*
D31*
X3570000Y-32829000D02*
X3761000Y-33020000D01*
D30*
X3570000Y-30240000D02*
X3570000Y-30455000D01*
X-1944489Y-27598489D02*
X928489Y-27598489D01*
X928489Y-27598489D02*
X3570000Y-30240000D01*
X-2794000Y-28448000D02*
X-1944489Y-27598489D01*
D29*
X21570000Y-6025000D02*
X26980000Y-6025000D01*
X26980000Y-6025000D02*
X27305000Y-6350000D01*
X26440000Y-8025000D02*
X27305000Y-8890000D01*
X21570000Y-8025000D02*
X26440000Y-8025000D01*
X24637520Y-13145480D02*
X25208520Y-13145480D01*
X23758000Y-14025000D02*
X23813000Y-13970000D01*
X25208520Y-13145480D02*
X29909480Y-13145480D01*
X21570000Y-14025000D02*
X23758000Y-14025000D01*
X23813000Y-13970000D02*
X24637520Y-13145480D01*
X10605000Y-25146000D02*
X9398000Y-25146000D01*
X2286000Y-13462000D02*
X762000Y-11938000D01*
X6370000Y-20025000D02*
X4613000Y-20025000D01*
D30*
X1270000Y-24155000D02*
X4548000Y-24155000D01*
X-508000Y-25146000D02*
X-508000Y-25908000D01*
X4548000Y-24155000D02*
X4801500Y-24408500D01*
X-508000Y-28702000D02*
X254000Y-28702000D01*
D29*
X44520489Y-34544511D02*
X45720000Y-33345000D01*
D30*
X1270000Y-24155000D02*
X483000Y-24155000D01*
X254000Y-28702000D02*
X1016000Y-29464000D01*
D29*
X2286000Y-6096000D02*
X1270000Y-7112000D01*
X34544511Y-34544511D02*
X44520489Y-34544511D01*
D30*
X483000Y-24155000D02*
X-508000Y-25146000D01*
D29*
X31115000Y-31115000D02*
X34544511Y-34544511D01*
X25463000Y-16002000D02*
X25463000Y-14923000D01*
X2477000Y-6096000D02*
X2286000Y-6096000D01*
X25463000Y-14923000D02*
X25463000Y-13970000D01*
D30*
X4801500Y-24408500D02*
X6096000Y-25703000D01*
D29*
X2477000Y-13462000D02*
X2286000Y-13462000D01*
X7249520Y-13145480D02*
X23684520Y-13145480D01*
X28752031Y-12395969D02*
X33070031Y-12395969D01*
X6370000Y-14025000D02*
X7249520Y-13145480D01*
X28502040Y-12645960D02*
X28752031Y-12395969D01*
X24184040Y-12645960D02*
X28502040Y-12645960D01*
X23684520Y-13145480D02*
X24184040Y-12645960D01*
X15481511Y-17284489D02*
X16522489Y-17284489D01*
X16522489Y-17284489D02*
X18120489Y-18882489D01*
X15252489Y-17513511D02*
X15481511Y-17284489D01*
X18120489Y-22774511D02*
X18205978Y-22860000D01*
X18120489Y-18882489D02*
X18120489Y-22774511D01*
X6370000Y-16025000D02*
X7853030Y-16025000D01*
X18205978Y-22860000D02*
X20320000Y-22860000D01*
X9341541Y-17513511D02*
X15252489Y-17513511D01*
X7853030Y-16025000D02*
X9341541Y-17513511D01*
X15993000Y-18025000D02*
X6370000Y-18025000D01*
X22718000Y-28590000D02*
X26797000Y-24511000D01*
X16002000Y-18034000D02*
X15993000Y-18025000D01*
X17145000Y-28590000D02*
X22718000Y-28590000D01*
X23813000Y-18034000D02*
X21579000Y-18034000D01*
X21579000Y-18034000D02*
X21570000Y-18025000D01*
X24637520Y-16826520D02*
X36513480Y-16826520D01*
X13739000Y-16025000D02*
X21570000Y-16025000D01*
X13616511Y-15902511D02*
X13739000Y-16025000D01*
X23790000Y-16025000D02*
X23813000Y-16002000D01*
X21570000Y-16025000D02*
X23790000Y-16025000D01*
X23813000Y-16002000D02*
X24637520Y-16826520D01*
X23495000Y-31115000D02*
X24694511Y-32314511D01*
X26531855Y-32314511D02*
X27234511Y-31611855D01*
X28078145Y-29915489D02*
X39934511Y-29915489D01*
X24694511Y-32314511D02*
X26531855Y-32314511D01*
X39934511Y-29915489D02*
X41275000Y-28575000D01*
X21570000Y-12025000D02*
X12867000Y-12025000D01*
X27234511Y-30759123D02*
X28078145Y-29915489D01*
X23368000Y-12192000D02*
X21737000Y-12192000D01*
X27234511Y-31611855D02*
X27234511Y-30759123D01*
X21737000Y-12192000D02*
X21570000Y-12025000D01*
X40032786Y-27277214D02*
X40075489Y-27319917D01*
X40075489Y-29068083D02*
X39727603Y-29415969D01*
X39727603Y-29415969D02*
X27734030Y-29415970D01*
X26035000Y-31115000D02*
X24835489Y-29915489D01*
X27734030Y-29415970D02*
X26035000Y-31115000D01*
X23622000Y-10160000D02*
X21705000Y-10160000D01*
X41275000Y-26035000D02*
X40032786Y-27277214D01*
X40075489Y-27319917D02*
X40075489Y-29068083D01*
X24835489Y-29915489D02*
X13264511Y-29915489D01*
X21705000Y-10160000D02*
X21570000Y-10025000D01*
X27305000Y-3810000D02*
X28645489Y-5150489D01*
X6370000Y-6025000D02*
X7219511Y-5175489D01*
X4127000Y-6096000D02*
X4127000Y-4622000D01*
X4127000Y-6096000D02*
X6299000Y-6096000D01*
X6299000Y-6096000D02*
X6370000Y-6025000D01*
X39611000Y-9144000D02*
X39611000Y-10908000D01*
X47434000Y-11085000D02*
X39434000Y-11085000D01*
X28645489Y-5150489D02*
X35617489Y-5150489D01*
X7219511Y-5175489D02*
X25939511Y-5175489D01*
X4127000Y-4622000D02*
X4077000Y-4572000D01*
X35617489Y-5150489D02*
X39611000Y-9144000D01*
X39611000Y-10908000D02*
X39434000Y-11085000D01*
X25939511Y-5175489D02*
X27305000Y-3810000D01*
X12217500Y-25183500D02*
X12255000Y-25146000D01*
X12217500Y-26670000D02*
X12217500Y-25183500D01*
X2477000Y-8636000D02*
X376000Y-8636000D01*
X376000Y-8636000D02*
X-1270000Y-6990000D01*
X4127000Y-10160000D02*
X4127000Y-8636000D01*
X5759000Y-8636000D02*
X6370000Y-8025000D01*
X4127000Y-8636000D02*
X5759000Y-8636000D01*
G04 #@! TA.AperFunction,Conductor*
G36*
X4768121Y3281998D02*
G01*
X4814614Y3228342D01*
X4826000Y3176000D01*
X4826000Y-3557632D01*
X4805998Y-3625753D01*
X4752342Y-3672246D01*
X4682068Y-3682350D01*
X4633886Y-3664893D01*
X4620333Y-3656539D01*
X4620330Y-3656538D01*
X4614101Y-3652698D01*
X4451757Y-3598851D01*
X4444920Y-3598151D01*
X4444918Y-3598150D01*
X4403599Y-3593917D01*
X4350732Y-3588500D01*
X3803268Y-3588500D01*
X3800022Y-3588837D01*
X3800018Y-3588837D01*
X3770730Y-3591876D01*
X3700981Y-3599113D01*
X3692963Y-3601788D01*
X3545676Y-3650927D01*
X3545674Y-3650928D01*
X3538732Y-3653244D01*
X3393287Y-3743248D01*
X3388114Y-3748430D01*
X3382377Y-3752977D01*
X3380945Y-3751170D01*
X3328425Y-3779902D01*
X3257605Y-3774892D01*
X3221147Y-3751501D01*
X3220317Y-3752552D01*
X3203160Y-3739002D01*
X3070120Y-3656996D01*
X3056939Y-3650849D01*
X2908186Y-3601509D01*
X2894810Y-3598642D01*
X2803903Y-3589328D01*
X2798874Y-3589071D01*
X2783876Y-3593475D01*
X2782671Y-3594865D01*
X2781000Y-3602548D01*
X2781000Y-4700000D01*
X2760998Y-4768121D01*
X2707342Y-4814614D01*
X2655000Y-4826000D01*
X1587115Y-4826000D01*
X1571876Y-4830475D01*
X1570671Y-4831865D01*
X1569000Y-4839548D01*
X1569000Y-4867438D01*
X1569337Y-4873953D01*
X1578894Y-4966057D01*
X1581788Y-4979456D01*
X1631381Y-5128107D01*
X1637555Y-5141286D01*
X1709540Y-5257613D01*
X1728378Y-5326065D01*
X1710172Y-5389187D01*
X1626528Y-5527301D01*
X1575247Y-5690938D01*
X1568500Y-5764365D01*
X1568500Y-5830050D01*
X1548498Y-5898171D01*
X1531595Y-5919145D01*
X1284145Y-6166595D01*
X1221833Y-6200621D01*
X1195050Y-6203500D01*
X1174513Y-6203500D01*
X1168061Y-6204872D01*
X1168056Y-6204872D01*
X1081113Y-6223353D01*
X987712Y-6243206D01*
X981682Y-6245891D01*
X981681Y-6245891D01*
X819278Y-6318197D01*
X819276Y-6318198D01*
X813248Y-6320882D01*
X807907Y-6324762D01*
X807906Y-6324763D01*
X757843Y-6361136D01*
X658747Y-6433134D01*
X654326Y-6438044D01*
X654325Y-6438045D01*
X557164Y-6545954D01*
X530960Y-6575056D01*
X499688Y-6629220D01*
X456802Y-6703502D01*
X435473Y-6740444D01*
X376458Y-6922072D01*
X375768Y-6928633D01*
X375768Y-6928635D01*
X366424Y-7017537D01*
X356496Y-7112000D01*
X357186Y-7118565D01*
X366799Y-7210023D01*
X376458Y-7301928D01*
X378498Y-7308206D01*
X408374Y-7400155D01*
X410402Y-7471122D01*
X373739Y-7531920D01*
X310027Y-7563246D01*
X239493Y-7555153D01*
X199446Y-7528186D01*
X89457Y-7418197D01*
X55431Y-7355885D01*
X57994Y-7292473D01*
X62370Y-7278069D01*
X91529Y-7056590D01*
X91611Y-7053240D01*
X93074Y-6993365D01*
X93074Y-6993361D01*
X93156Y-6990000D01*
X74852Y-6767361D01*
X20431Y-6550702D01*
X-68646Y-6345840D01*
X-135043Y-6243206D01*
X-187178Y-6162617D01*
X-187180Y-6162614D01*
X-189986Y-6158277D01*
X-340330Y-5993051D01*
X-344381Y-5989852D01*
X-344385Y-5989848D01*
X-511586Y-5857800D01*
X-511590Y-5857798D01*
X-515641Y-5854598D01*
X-532348Y-5845375D01*
X-598262Y-5808989D01*
X-711211Y-5746638D01*
X-716080Y-5744914D01*
X-716084Y-5744912D01*
X-916913Y-5673795D01*
X-916917Y-5673794D01*
X-921788Y-5672069D01*
X-926881Y-5671162D01*
X-926884Y-5671161D01*
X-1136627Y-5633800D01*
X-1136633Y-5633799D01*
X-1141716Y-5632894D01*
X-1215548Y-5631992D01*
X-1359919Y-5630228D01*
X-1359921Y-5630228D01*
X-1365089Y-5630165D01*
X-1585909Y-5663955D01*
X-1798244Y-5733357D01*
X-1828557Y-5749137D01*
X-1944822Y-5809661D01*
X-1996393Y-5836507D01*
X-2000526Y-5839610D01*
X-2000529Y-5839612D01*
X-2170900Y-5967530D01*
X-2175035Y-5970635D01*
X-2329371Y-6132138D01*
X-2455257Y-6316680D01*
X-2470997Y-6350590D01*
X-2507510Y-6429251D01*
X-2549312Y-6519305D01*
X-2609011Y-6734570D01*
X-2632749Y-6956695D01*
X-2632452Y-6961848D01*
X-2632452Y-6961851D01*
X-2620188Y-7174547D01*
X-2619890Y-7179715D01*
X-2618753Y-7184761D01*
X-2618752Y-7184767D01*
X-2607357Y-7235327D01*
X-2570778Y-7397639D01*
X-2515857Y-7532894D01*
X-2503532Y-7563246D01*
X-2486734Y-7604616D01*
X-2460983Y-7646638D01*
X-2396355Y-7752101D01*
X-2370013Y-7795088D01*
X-2223750Y-7963938D01*
X-2219775Y-7967238D01*
X-2219769Y-7967244D01*
X-2214575Y-7971556D01*
X-2174941Y-8030460D01*
X-2173445Y-8101441D01*
X-2210561Y-8161962D01*
X-2250832Y-8186480D01*
X-2358054Y-8226676D01*
X-2373649Y-8235214D01*
X-2475724Y-8311715D01*
X-2488285Y-8324276D01*
X-2564786Y-8426351D01*
X-2573324Y-8441946D01*
X-2618478Y-8562394D01*
X-2622105Y-8577649D01*
X-2627631Y-8628514D01*
X-2628000Y-8635328D01*
X-2628000Y-9257885D01*
X-2623525Y-9273124D01*
X-2622135Y-9274329D01*
X-2614452Y-9276000D01*
X69884Y-9276000D01*
X101822Y-9266622D01*
X172818Y-9266622D01*
X179738Y-9269124D01*
X183546Y-9270231D01*
X190824Y-9273380D01*
X198647Y-9274619D01*
X198650Y-9274620D01*
X236457Y-9280608D01*
X248079Y-9283015D01*
X285133Y-9292529D01*
X285137Y-9292530D01*
X292812Y-9294500D01*
X314253Y-9294500D01*
X333962Y-9296051D01*
X355152Y-9299407D01*
X363044Y-9298661D01*
X401148Y-9295059D01*
X413006Y-9294500D01*
X1583247Y-9294500D01*
X1651368Y-9314502D01*
X1697861Y-9368158D01*
X1707965Y-9438432D01*
X1691023Y-9485771D01*
X1630923Y-9585008D01*
X1624715Y-9598757D01*
X1577744Y-9748644D01*
X1575131Y-9761694D01*
X1569266Y-9825521D01*
X1569000Y-9831309D01*
X1569000Y-9887885D01*
X1573475Y-9903124D01*
X1574865Y-9904329D01*
X1582548Y-9906000D01*
X2605000Y-9906000D01*
X2673121Y-9926002D01*
X2719614Y-9979658D01*
X2731000Y-10032000D01*
X2731000Y-11124884D01*
X2735475Y-11140123D01*
X2736865Y-11141328D01*
X2741294Y-11142291D01*
X2800315Y-11136868D01*
X2813351Y-11134257D01*
X2963243Y-11087285D01*
X2976988Y-11081079D01*
X3110574Y-11000176D01*
X3122443Y-10990869D01*
X3212551Y-10900761D01*
X3274863Y-10866735D01*
X3345678Y-10871800D01*
X3390741Y-10900761D01*
X3486619Y-10996639D01*
X3633301Y-11085472D01*
X3640548Y-11087743D01*
X3640550Y-11087744D01*
X3658909Y-11093497D01*
X3717931Y-11132954D01*
X3746251Y-11198058D01*
X3734878Y-11268137D01*
X3704252Y-11307351D01*
X3703920Y-11307562D01*
X3698492Y-11313342D01*
X3698491Y-11313343D01*
X3655396Y-11359235D01*
X3652641Y-11362077D01*
X3632073Y-11382645D01*
X3629356Y-11386148D01*
X3621648Y-11395173D01*
X3590028Y-11428845D01*
X3586207Y-11435796D01*
X3586206Y-11435797D01*
X3579697Y-11447636D01*
X3568843Y-11464160D01*
X3561623Y-11473469D01*
X3555696Y-11481110D01*
X3552549Y-11488382D01*
X3552548Y-11488384D01*
X3537346Y-11523513D01*
X3532124Y-11534173D01*
X3509876Y-11574641D01*
X3504541Y-11595419D01*
X3498142Y-11614109D01*
X3489620Y-11633802D01*
X3487031Y-11650148D01*
X3482394Y-11679426D01*
X3479987Y-11691049D01*
X3468500Y-11735790D01*
X3468500Y-11757237D01*
X3466949Y-11776947D01*
X3463594Y-11798130D01*
X3464340Y-11806021D01*
X3467941Y-11844116D01*
X3468500Y-11855974D01*
X3468500Y-12591290D01*
X3448498Y-12659411D01*
X3431595Y-12680385D01*
X3391095Y-12720885D01*
X3328783Y-12754911D01*
X3257968Y-12749846D01*
X3212905Y-12720885D01*
X3117381Y-12625361D01*
X2970699Y-12536528D01*
X2963452Y-12534257D01*
X2963450Y-12534256D01*
X2897164Y-12513483D01*
X2807062Y-12485247D01*
X2733635Y-12478500D01*
X2707339Y-12478500D01*
X2285951Y-12478501D01*
X2217830Y-12458499D01*
X2196855Y-12441596D01*
X1704969Y-11949709D01*
X1670944Y-11887397D01*
X1668755Y-11873785D01*
X1656232Y-11754636D01*
X1656232Y-11754635D01*
X1655542Y-11748072D01*
X1653052Y-11740407D01*
X1598569Y-11572729D01*
X1596527Y-11566444D01*
X1501040Y-11401056D01*
X1481935Y-11379837D01*
X1377675Y-11264045D01*
X1377674Y-11264044D01*
X1373253Y-11259134D01*
X1231800Y-11156362D01*
X1224094Y-11150763D01*
X1224093Y-11150762D01*
X1218752Y-11146882D01*
X1212724Y-11144198D01*
X1212722Y-11144197D01*
X1050319Y-11071891D01*
X1050318Y-11071891D01*
X1044288Y-11069206D01*
X950888Y-11049353D01*
X863944Y-11030872D01*
X863939Y-11030872D01*
X857487Y-11029500D01*
X666513Y-11029500D01*
X660061Y-11030872D01*
X660056Y-11030872D01*
X573112Y-11049353D01*
X479712Y-11069206D01*
X473682Y-11071891D01*
X473681Y-11071891D01*
X311278Y-11144197D01*
X311276Y-11144198D01*
X305248Y-11146882D01*
X299907Y-11150762D01*
X299906Y-11150763D01*
X292200Y-11156362D01*
X150747Y-11259134D01*
X146326Y-11264044D01*
X146325Y-11264045D01*
X42066Y-11379837D01*
X22960Y-11401056D01*
X-72527Y-11566444D01*
X-131542Y-11748072D01*
X-132232Y-11754633D01*
X-132232Y-11754635D01*
X-146192Y-11887460D01*
X-151504Y-11938000D01*
X-131542Y-12127928D01*
X-72527Y-12309556D01*
X22960Y-12474944D01*
X27378Y-12479851D01*
X27379Y-12479852D01*
X116953Y-12579334D01*
X150747Y-12616866D01*
X305248Y-12729118D01*
X311276Y-12731802D01*
X311278Y-12731803D01*
X404366Y-12773248D01*
X479712Y-12806794D01*
X573113Y-12826647D01*
X660056Y-12845128D01*
X660061Y-12845128D01*
X666513Y-12846500D01*
X687049Y-12846500D01*
X755170Y-12866502D01*
X776144Y-12883404D01*
X1531596Y-13638855D01*
X1565621Y-13701168D01*
X1568501Y-13727951D01*
X1568501Y-13793634D01*
X1568764Y-13796492D01*
X1568764Y-13796501D01*
X1571662Y-13828044D01*
X1575247Y-13867062D01*
X1577246Y-13873440D01*
X1577246Y-13873441D01*
X1621811Y-14015646D01*
X1626528Y-14030699D01*
X1715361Y-14177381D01*
X1836619Y-14298639D01*
X1983301Y-14387472D01*
X1990548Y-14389743D01*
X1990550Y-14389744D01*
X2056836Y-14410517D01*
X2146938Y-14438753D01*
X2220365Y-14445500D01*
X2223263Y-14445500D01*
X2477665Y-14445499D01*
X2733634Y-14445499D01*
X2736492Y-14445236D01*
X2736501Y-14445236D01*
X2772004Y-14441974D01*
X2807062Y-14438753D01*
X2829645Y-14431676D01*
X2963450Y-14389744D01*
X2963452Y-14389743D01*
X2970699Y-14387472D01*
X3117381Y-14298639D01*
X3212905Y-14203115D01*
X3275217Y-14169089D01*
X3346032Y-14174154D01*
X3391095Y-14203115D01*
X3486619Y-14298639D01*
X3633301Y-14387472D01*
X3640548Y-14389743D01*
X3640550Y-14389744D01*
X3706836Y-14410517D01*
X3796938Y-14438753D01*
X3870365Y-14445500D01*
X3873263Y-14445500D01*
X4127665Y-14445499D01*
X4383634Y-14445499D01*
X4386492Y-14445236D01*
X4386501Y-14445236D01*
X4441159Y-14440214D01*
X4457062Y-14438753D01*
X4461512Y-14437359D01*
X4531478Y-14443526D01*
X4587603Y-14487007D01*
X4611500Y-14560838D01*
X4611500Y-14573134D01*
X4618255Y-14635316D01*
X4669385Y-14771705D01*
X4756739Y-14888261D01*
X4804660Y-14924176D01*
X4847173Y-14981033D01*
X4852199Y-15051851D01*
X4818139Y-15114145D01*
X4804670Y-15125817D01*
X4756739Y-15161739D01*
X4669385Y-15278295D01*
X4618255Y-15414684D01*
X4611500Y-15476866D01*
X4611500Y-16573134D01*
X4618255Y-16635316D01*
X4669385Y-16771705D01*
X4756739Y-16888261D01*
X4804660Y-16924176D01*
X4847173Y-16981033D01*
X4852199Y-17051851D01*
X4818139Y-17114145D01*
X4804670Y-17125817D01*
X4756739Y-17161739D01*
X4669385Y-17278295D01*
X4618255Y-17414684D01*
X4611500Y-17476866D01*
X4611500Y-18573134D01*
X4618255Y-18635316D01*
X4669385Y-18771705D01*
X4756739Y-18888261D01*
X4763919Y-18893642D01*
X4770269Y-18899992D01*
X4768022Y-18902239D01*
X4801143Y-18946544D01*
X4806162Y-19017363D01*
X4772097Y-19079653D01*
X4709762Y-19113638D01*
X4683059Y-19116500D01*
X4517513Y-19116500D01*
X4511061Y-19117872D01*
X4511056Y-19117872D01*
X4432896Y-19134486D01*
X4330712Y-19156206D01*
X4324682Y-19158891D01*
X4324681Y-19158891D01*
X4162278Y-19231197D01*
X4162276Y-19231198D01*
X4156248Y-19233882D01*
X4001747Y-19346134D01*
X3997326Y-19351044D01*
X3997325Y-19351045D01*
X3880916Y-19480331D01*
X3873960Y-19488056D01*
X3828198Y-19567318D01*
X3803579Y-19609960D01*
X3778473Y-19653444D01*
X3719458Y-19835072D01*
X3699496Y-20025000D01*
X3700186Y-20031565D01*
X3714866Y-20171233D01*
X3719458Y-20214928D01*
X3778473Y-20396556D01*
X3873960Y-20561944D01*
X3878378Y-20566851D01*
X3878379Y-20566852D01*
X3887396Y-20576866D01*
X4001747Y-20703866D01*
X4156248Y-20816118D01*
X4162276Y-20818802D01*
X4162278Y-20818803D01*
X4301356Y-20880724D01*
X4330712Y-20893794D01*
X4424113Y-20913647D01*
X4511056Y-20932128D01*
X4511061Y-20932128D01*
X4517513Y-20933500D01*
X4708487Y-20933500D01*
X4714945Y-20932127D01*
X4714948Y-20932127D01*
X4737129Y-20927412D01*
X4807920Y-20932812D01*
X4838893Y-20949832D01*
X4873295Y-20975615D01*
X5009684Y-21026745D01*
X5071866Y-21033500D01*
X7668134Y-21033500D01*
X7730316Y-21026745D01*
X7791271Y-21003894D01*
X7862077Y-20998711D01*
X7924446Y-21032631D01*
X7958575Y-21094887D01*
X7961500Y-21121876D01*
X7961500Y-22473134D01*
X7968255Y-22535316D01*
X8019385Y-22671705D01*
X8106739Y-22788261D01*
X8223295Y-22875615D01*
X8258702Y-22888888D01*
X8277546Y-22895953D01*
X8334310Y-22938595D01*
X8359009Y-23005157D01*
X8343801Y-23074506D01*
X8293515Y-23124624D01*
X8284563Y-23129042D01*
X8248281Y-23145195D01*
X8248274Y-23145199D01*
X8242248Y-23147882D01*
X8236907Y-23151762D01*
X8236906Y-23151763D01*
X8205628Y-23174488D01*
X8087747Y-23260134D01*
X8083326Y-23265044D01*
X8083325Y-23265045D01*
X7964538Y-23396972D01*
X7959960Y-23402056D01*
X7956659Y-23407774D01*
X7878838Y-23542564D01*
X7864473Y-23567444D01*
X7805458Y-23749072D01*
X7804768Y-23755633D01*
X7804768Y-23755635D01*
X7791984Y-23877274D01*
X7785496Y-23939000D01*
X7805458Y-24128928D01*
X7864473Y-24310556D01*
X7867776Y-24316278D01*
X7867777Y-24316279D01*
X7874334Y-24327636D01*
X7959960Y-24475944D01*
X7964378Y-24480851D01*
X7964379Y-24480852D01*
X8045372Y-24570804D01*
X8087747Y-24617866D01*
X8150751Y-24663641D01*
X8224288Y-24717069D01*
X8242248Y-24730118D01*
X8248276Y-24732802D01*
X8248278Y-24732803D01*
X8277068Y-24745621D01*
X8416712Y-24807794D01*
X8421650Y-24808844D01*
X8479781Y-24848590D01*
X8507419Y-24913986D01*
X8505579Y-24952622D01*
X8504458Y-24956072D01*
X8484496Y-25146000D01*
X8485186Y-25152565D01*
X8503583Y-25327600D01*
X8504458Y-25335928D01*
X8563473Y-25517556D01*
X8566776Y-25523278D01*
X8566777Y-25523279D01*
X8587753Y-25559610D01*
X8658960Y-25682944D01*
X8663378Y-25687851D01*
X8663379Y-25687852D01*
X8744445Y-25777885D01*
X8786747Y-25824866D01*
X8792089Y-25828747D01*
X8792091Y-25828749D01*
X8805419Y-25838432D01*
X8848773Y-25894654D01*
X8854848Y-25965390D01*
X8821717Y-26028182D01*
X8782606Y-26055475D01*
X8756281Y-26067195D01*
X8756274Y-26067199D01*
X8750248Y-26069882D01*
X8595747Y-26182134D01*
X8591326Y-26187044D01*
X8591325Y-26187045D01*
X8588031Y-26190704D01*
X8467960Y-26324056D01*
X8372473Y-26489444D01*
X8313458Y-26671072D01*
X8312768Y-26677633D01*
X8312768Y-26677635D01*
X8302451Y-26775797D01*
X8293496Y-26861000D01*
X8294186Y-26867565D01*
X8312325Y-27040145D01*
X8313458Y-27050928D01*
X8372473Y-27232556D01*
X8375776Y-27238278D01*
X8375777Y-27238279D01*
X8381700Y-27248537D01*
X8467960Y-27397944D01*
X8472378Y-27402851D01*
X8472379Y-27402852D01*
X8556315Y-27496072D01*
X8595747Y-27539866D01*
X8667086Y-27591697D01*
X8743390Y-27647135D01*
X8750248Y-27652118D01*
X8756276Y-27654802D01*
X8756278Y-27654803D01*
X8916332Y-27726063D01*
X8924712Y-27729794D01*
X9008562Y-27747617D01*
X9105056Y-27768128D01*
X9105061Y-27768128D01*
X9111513Y-27769500D01*
X9302487Y-27769500D01*
X9308939Y-27768128D01*
X9308944Y-27768128D01*
X9405438Y-27747617D01*
X9489288Y-27729794D01*
X9497668Y-27726063D01*
X9657722Y-27654803D01*
X9657724Y-27654802D01*
X9663752Y-27652118D01*
X9670611Y-27647135D01*
X9796671Y-27555546D01*
X9818253Y-27539866D01*
X9822668Y-27534962D01*
X9822672Y-27534959D01*
X9825017Y-27532355D01*
X9826750Y-27531288D01*
X9827580Y-27530540D01*
X9827717Y-27530692D01*
X9885465Y-27495118D01*
X9956448Y-27496473D01*
X9984765Y-27509410D01*
X10108291Y-27585553D01*
X10121468Y-27591697D01*
X10268843Y-27640579D01*
X10282210Y-27643445D01*
X10371700Y-27652614D01*
X10385624Y-27648525D01*
X10386829Y-27647135D01*
X10388500Y-27639452D01*
X10388500Y-26542000D01*
X10408502Y-26473879D01*
X10462158Y-26427386D01*
X10514500Y-26416000D01*
X10770500Y-26416000D01*
X10838621Y-26436002D01*
X10885114Y-26489658D01*
X10896500Y-26542000D01*
X10896500Y-27634885D01*
X10900975Y-27650124D01*
X10902365Y-27651329D01*
X10909321Y-27652842D01*
X10912782Y-27652663D01*
X11004021Y-27643196D01*
X11017417Y-27640303D01*
X11164687Y-27591170D01*
X11177866Y-27584996D01*
X11309514Y-27503530D01*
X11320915Y-27494494D01*
X11340533Y-27474842D01*
X11402816Y-27440763D01*
X11473636Y-27445766D01*
X11518723Y-27474686D01*
X11533858Y-27489794D01*
X11544947Y-27500864D01*
X11689308Y-27589849D01*
X11696256Y-27592154D01*
X11696257Y-27592154D01*
X11843738Y-27641072D01*
X11843740Y-27641072D01*
X11850269Y-27643238D01*
X11950428Y-27653500D01*
X12484572Y-27653500D01*
X12487818Y-27653163D01*
X12487822Y-27653163D01*
X12521603Y-27649658D01*
X12585982Y-27642978D01*
X12746849Y-27589308D01*
X12891055Y-27500071D01*
X13010864Y-27380053D01*
X13099849Y-27235692D01*
X13146916Y-27093792D01*
X13151072Y-27081262D01*
X13151072Y-27081260D01*
X13153238Y-27074731D01*
X13163500Y-26974572D01*
X13163500Y-26365428D01*
X13161258Y-26343815D01*
X13153689Y-26270874D01*
X13152978Y-26264018D01*
X13099308Y-26103151D01*
X13039716Y-26006851D01*
X13024119Y-25981646D01*
X13005282Y-25913194D01*
X13023488Y-25850072D01*
X13057247Y-25794329D01*
X13063392Y-25784183D01*
X15809389Y-25784183D01*
X15810912Y-25792607D01*
X15823292Y-25796000D01*
X16872885Y-25796000D01*
X16888124Y-25791525D01*
X16889329Y-25790135D01*
X16891000Y-25782452D01*
X16891000Y-25777885D01*
X17399000Y-25777885D01*
X17403475Y-25793124D01*
X17404865Y-25794329D01*
X17412548Y-25796000D01*
X18463344Y-25796000D01*
X18476875Y-25792027D01*
X18478180Y-25782947D01*
X18436214Y-25615875D01*
X18432894Y-25606124D01*
X18347972Y-25410814D01*
X18343105Y-25401739D01*
X18227426Y-25222926D01*
X18221136Y-25214757D01*
X18077806Y-25057240D01*
X18070273Y-25050215D01*
X17903139Y-24918222D01*
X17894552Y-24912517D01*
X17708117Y-24809599D01*
X17698705Y-24805369D01*
X17497959Y-24734280D01*
X17487988Y-24731646D01*
X17416837Y-24718972D01*
X17403540Y-24720432D01*
X17399000Y-24734989D01*
X17399000Y-25777885D01*
X16891000Y-25777885D01*
X16891000Y-24733102D01*
X16887082Y-24719758D01*
X16872806Y-24717771D01*
X16834324Y-24723660D01*
X16824288Y-24726051D01*
X16621868Y-24792212D01*
X16612359Y-24796209D01*
X16423463Y-24894542D01*
X16414738Y-24900036D01*
X16244433Y-25027905D01*
X16236726Y-25034748D01*
X16089590Y-25188717D01*
X16083104Y-25196727D01*
X15963098Y-25372649D01*
X15958000Y-25381623D01*
X15868338Y-25574783D01*
X15864775Y-25584470D01*
X15809389Y-25784183D01*
X13063392Y-25784183D01*
X13105472Y-25714699D01*
X13113886Y-25687852D01*
X13138669Y-25608767D01*
X13156753Y-25551062D01*
X13163500Y-25477635D01*
X13163500Y-25146000D01*
X13163499Y-24817249D01*
X13163499Y-24814366D01*
X13163174Y-24810823D01*
X13158197Y-24756654D01*
X13156753Y-24740938D01*
X13154754Y-24734559D01*
X13107744Y-24584550D01*
X13107743Y-24584548D01*
X13105472Y-24577301D01*
X13016639Y-24430619D01*
X12895381Y-24309361D01*
X12748699Y-24220528D01*
X12741452Y-24218257D01*
X12741450Y-24218256D01*
X12658250Y-24192183D01*
X12585062Y-24169247D01*
X12511635Y-24162500D01*
X12508737Y-24162500D01*
X12254335Y-24162501D01*
X11998366Y-24162501D01*
X11995508Y-24162764D01*
X11995499Y-24162764D01*
X11959996Y-24166026D01*
X11924938Y-24169247D01*
X11918560Y-24171246D01*
X11918559Y-24171246D01*
X11768550Y-24218256D01*
X11768548Y-24218257D01*
X11761301Y-24220528D01*
X11614619Y-24309361D01*
X11519095Y-24404885D01*
X11456783Y-24438911D01*
X11385968Y-24433846D01*
X11340905Y-24404885D01*
X11245381Y-24309361D01*
X11098699Y-24220528D01*
X11091452Y-24218257D01*
X11091450Y-24218256D01*
X11008250Y-24192183D01*
X10935062Y-24169247D01*
X10861635Y-24162500D01*
X10858737Y-24162500D01*
X10604335Y-24162501D01*
X10348366Y-24162501D01*
X10345508Y-24162764D01*
X10345499Y-24162764D01*
X10309996Y-24166026D01*
X10274938Y-24169247D01*
X10268560Y-24171246D01*
X10268559Y-24171246D01*
X10118550Y-24218256D01*
X10118548Y-24218257D01*
X10111301Y-24220528D01*
X9964619Y-24309361D01*
X9959243Y-24314737D01*
X9953272Y-24319419D01*
X9952176Y-24318021D01*
X9898197Y-24347497D01*
X9827382Y-24342432D01*
X9820165Y-24339483D01*
X9764584Y-24314737D01*
X9680288Y-24277206D01*
X9675350Y-24276156D01*
X9617219Y-24236410D01*
X9589581Y-24171014D01*
X9591421Y-24132378D01*
X9592542Y-24128928D01*
X9612504Y-23939000D01*
X9606016Y-23877274D01*
X9593232Y-23755635D01*
X9593232Y-23755633D01*
X9592542Y-23749072D01*
X9533527Y-23567444D01*
X9519163Y-23542564D01*
X9441341Y-23407774D01*
X9438040Y-23402056D01*
X9433463Y-23396972D01*
X9314675Y-23265045D01*
X9314674Y-23265044D01*
X9310253Y-23260134D01*
X9283918Y-23241000D01*
X9209495Y-23186929D01*
X9174406Y-23161435D01*
X9131053Y-23105214D01*
X9124978Y-23034478D01*
X9158109Y-22971686D01*
X9219929Y-22936774D01*
X9248468Y-22933500D01*
X9518134Y-22933500D01*
X9580316Y-22926745D01*
X9716705Y-22875615D01*
X9833261Y-22788261D01*
X9869176Y-22740340D01*
X9926033Y-22697827D01*
X9996851Y-22692801D01*
X10059145Y-22726861D01*
X10070817Y-22740330D01*
X10106739Y-22788261D01*
X10223295Y-22875615D01*
X10359684Y-22926745D01*
X10421866Y-22933500D01*
X11518134Y-22933500D01*
X11580316Y-22926745D01*
X11716705Y-22875615D01*
X11833261Y-22788261D01*
X11869176Y-22740340D01*
X11926033Y-22697827D01*
X11996851Y-22692801D01*
X12059145Y-22726861D01*
X12070817Y-22740330D01*
X12106739Y-22788261D01*
X12223295Y-22875615D01*
X12359684Y-22926745D01*
X12421866Y-22933500D01*
X13518134Y-22933500D01*
X13580316Y-22926745D01*
X13716705Y-22875615D01*
X13833261Y-22788261D01*
X13869176Y-22740340D01*
X13926033Y-22697827D01*
X13996851Y-22692801D01*
X14059145Y-22726861D01*
X14070817Y-22740330D01*
X14106739Y-22788261D01*
X14223295Y-22875615D01*
X14359684Y-22926745D01*
X14421866Y-22933500D01*
X15518134Y-22933500D01*
X15580316Y-22926745D01*
X15716705Y-22875615D01*
X15833261Y-22788261D01*
X15869176Y-22740340D01*
X15926033Y-22697827D01*
X15996851Y-22692801D01*
X16059145Y-22726861D01*
X16070817Y-22740330D01*
X16106739Y-22788261D01*
X16223295Y-22875615D01*
X16359684Y-22926745D01*
X16421866Y-22933500D01*
X17386349Y-22933500D01*
X17454470Y-22953502D01*
X17500963Y-23007158D01*
X17507344Y-23024344D01*
X17511344Y-23038111D01*
X17522264Y-23056576D01*
X17530955Y-23074316D01*
X17538854Y-23094267D01*
X17566005Y-23131637D01*
X17572522Y-23141559D01*
X17591996Y-23174488D01*
X17591999Y-23174492D01*
X17596036Y-23181318D01*
X17611200Y-23196482D01*
X17624040Y-23211515D01*
X17636648Y-23228868D01*
X17672241Y-23258313D01*
X17681021Y-23266303D01*
X17682323Y-23267605D01*
X17690313Y-23276385D01*
X17694562Y-23283080D01*
X17700340Y-23288506D01*
X17700341Y-23288507D01*
X17746235Y-23331604D01*
X17749077Y-23334359D01*
X17769645Y-23354927D01*
X17773148Y-23357644D01*
X17782173Y-23365352D01*
X17815845Y-23396972D01*
X17822796Y-23400793D01*
X17822797Y-23400794D01*
X17834636Y-23407303D01*
X17851160Y-23418157D01*
X17861249Y-23425982D01*
X17868110Y-23431304D01*
X17875382Y-23434451D01*
X17875384Y-23434452D01*
X17910513Y-23449654D01*
X17921174Y-23454876D01*
X17961641Y-23477124D01*
X17982419Y-23482459D01*
X18001109Y-23488858D01*
X18020802Y-23497380D01*
X18064574Y-23504313D01*
X18066426Y-23504606D01*
X18078049Y-23507013D01*
X18102401Y-23513265D01*
X18122790Y-23518500D01*
X18144237Y-23518500D01*
X18163947Y-23520051D01*
X18185130Y-23523406D01*
X18231119Y-23519059D01*
X18242974Y-23518500D01*
X19639776Y-23518500D01*
X19707897Y-23538502D01*
X19713834Y-23542562D01*
X19740204Y-23561721D01*
X19850982Y-23642206D01*
X19863248Y-23651118D01*
X19869276Y-23653802D01*
X19869278Y-23653803D01*
X20017695Y-23719882D01*
X20037712Y-23728794D01*
X20131112Y-23748647D01*
X20218056Y-23767128D01*
X20218061Y-23767128D01*
X20224513Y-23768500D01*
X20415487Y-23768500D01*
X20421939Y-23767128D01*
X20421944Y-23767128D01*
X20508888Y-23748647D01*
X20602288Y-23728794D01*
X20622305Y-23719882D01*
X20770722Y-23653803D01*
X20770724Y-23653802D01*
X20776752Y-23651118D01*
X20789019Y-23642206D01*
X20899796Y-23561721D01*
X20931253Y-23538866D01*
X20959934Y-23507013D01*
X21054621Y-23401852D01*
X21054622Y-23401851D01*
X21059040Y-23396944D01*
X21136894Y-23262097D01*
X21151223Y-23237279D01*
X21151224Y-23237278D01*
X21154527Y-23231556D01*
X21213542Y-23049928D01*
X21216711Y-23019783D01*
X21232814Y-22866565D01*
X21233504Y-22860000D01*
X21219511Y-22726861D01*
X21214232Y-22676635D01*
X21214232Y-22676633D01*
X21213542Y-22670072D01*
X21154527Y-22488444D01*
X21059040Y-22323056D01*
X21050104Y-22313131D01*
X20935675Y-22186045D01*
X20935674Y-22186044D01*
X20931253Y-22181134D01*
X20776752Y-22068882D01*
X20770724Y-22066198D01*
X20770722Y-22066197D01*
X20608319Y-21993891D01*
X20608318Y-21993891D01*
X20602288Y-21991206D01*
X20508887Y-21971353D01*
X20421944Y-21952872D01*
X20421939Y-21952872D01*
X20415487Y-21951500D01*
X20224513Y-21951500D01*
X20218061Y-21952872D01*
X20218056Y-21952872D01*
X20130697Y-21971441D01*
X20059906Y-21966039D01*
X20003273Y-21923222D01*
X19978780Y-21856584D01*
X19978665Y-21853134D01*
X39916500Y-21853134D01*
X39923255Y-21915316D01*
X39974385Y-22051705D01*
X40061739Y-22168261D01*
X40178295Y-22255615D01*
X40186704Y-22258767D01*
X40186705Y-22258768D01*
X40295960Y-22299726D01*
X40352725Y-22342367D01*
X40377425Y-22408929D01*
X40362218Y-22478278D01*
X40342825Y-22504759D01*
X40219590Y-22633717D01*
X40213104Y-22641727D01*
X40093098Y-22817649D01*
X40088000Y-22826623D01*
X39998338Y-23019783D01*
X39994775Y-23029470D01*
X39939389Y-23229183D01*
X39940912Y-23237607D01*
X39953292Y-23241000D01*
X42593344Y-23241000D01*
X42606875Y-23237027D01*
X42608180Y-23227947D01*
X42566214Y-23060875D01*
X42562894Y-23051124D01*
X42477972Y-22855814D01*
X42473105Y-22846739D01*
X42357426Y-22667926D01*
X42351136Y-22659757D01*
X42207293Y-22501677D01*
X42176241Y-22437831D01*
X42184635Y-22367333D01*
X42229812Y-22312564D01*
X42256256Y-22298895D01*
X42363297Y-22258767D01*
X42371705Y-22255615D01*
X42488261Y-22168261D01*
X42575615Y-22051705D01*
X42626745Y-21915316D01*
X42633500Y-21853134D01*
X42633500Y-20056866D01*
X42626745Y-19994684D01*
X42575615Y-19858295D01*
X42488261Y-19741739D01*
X42371705Y-19654385D01*
X42235316Y-19603255D01*
X42173134Y-19596500D01*
X40376866Y-19596500D01*
X40314684Y-19603255D01*
X40178295Y-19654385D01*
X40061739Y-19741739D01*
X39974385Y-19858295D01*
X39923255Y-19994684D01*
X39916500Y-20056866D01*
X39916500Y-21853134D01*
X19978665Y-21853134D01*
X19978500Y-21848194D01*
X19978500Y-21121342D01*
X19998502Y-21053221D01*
X20052158Y-21006728D01*
X20122432Y-20996624D01*
X20148730Y-21003360D01*
X20202395Y-21023478D01*
X20217649Y-21027105D01*
X20268514Y-21032631D01*
X20275328Y-21033000D01*
X21297885Y-21033000D01*
X21313124Y-21028525D01*
X21314329Y-21027135D01*
X21316000Y-21019452D01*
X21316000Y-21014884D01*
X21824000Y-21014884D01*
X21828475Y-21030123D01*
X21829865Y-21031328D01*
X21837548Y-21032999D01*
X22864669Y-21032999D01*
X22871490Y-21032629D01*
X22922352Y-21027105D01*
X22937604Y-21023479D01*
X23058054Y-20978324D01*
X23073649Y-20969786D01*
X23175724Y-20893285D01*
X23188285Y-20880724D01*
X23264786Y-20778649D01*
X23273324Y-20763054D01*
X23318478Y-20642606D01*
X23322105Y-20627351D01*
X23327631Y-20576486D01*
X23328000Y-20569672D01*
X23328000Y-20297115D01*
X23323525Y-20281876D01*
X23322135Y-20280671D01*
X23314452Y-20279000D01*
X21842115Y-20279000D01*
X21826876Y-20283475D01*
X21825671Y-20284865D01*
X21824000Y-20292548D01*
X21824000Y-21014884D01*
X21316000Y-21014884D01*
X21316000Y-20297115D01*
X21311525Y-20281876D01*
X21310135Y-20280671D01*
X21302452Y-20279000D01*
X19898268Y-20279000D01*
X19830147Y-20258998D01*
X19822703Y-20253826D01*
X19762044Y-20208365D01*
X19716705Y-20174385D01*
X19580316Y-20123255D01*
X19518134Y-20116500D01*
X18904989Y-20116500D01*
X18836868Y-20096498D01*
X18790375Y-20042842D01*
X18778989Y-19990500D01*
X18778989Y-18964545D01*
X18779548Y-18952689D01*
X18779548Y-18952686D01*
X18781277Y-18944952D01*
X18779051Y-18874120D01*
X18778989Y-18870162D01*
X18778989Y-18841057D01*
X18778433Y-18836657D01*
X18777501Y-18824819D01*
X18777389Y-18821237D01*
X18776051Y-18778658D01*
X18770069Y-18758068D01*
X18766059Y-18738705D01*
X18764364Y-18725285D01*
X18764364Y-18725284D01*
X18763371Y-18717425D01*
X18760455Y-18710060D01*
X18760454Y-18710056D01*
X18746363Y-18674468D01*
X18742524Y-18663258D01*
X18729634Y-18618889D01*
X18718718Y-18600432D01*
X18710023Y-18582682D01*
X18702124Y-18562733D01*
X18674966Y-18525353D01*
X18668449Y-18515432D01*
X18650397Y-18484908D01*
X18644941Y-18475682D01*
X18629780Y-18460521D01*
X18616938Y-18445486D01*
X18612271Y-18439062D01*
X18604330Y-18428132D01*
X18598226Y-18423082D01*
X18598224Y-18423080D01*
X18568726Y-18398677D01*
X18559948Y-18390688D01*
X17067854Y-16898595D01*
X17033829Y-16836283D01*
X17038893Y-16765468D01*
X17081440Y-16708632D01*
X17147960Y-16683821D01*
X17156949Y-16683500D01*
X19748991Y-16683500D01*
X19817112Y-16703502D01*
X19863605Y-16757158D01*
X19865903Y-16762694D01*
X19866232Y-16763296D01*
X19869385Y-16771705D01*
X19956739Y-16888261D01*
X20004660Y-16924176D01*
X20047173Y-16981033D01*
X20052199Y-17051851D01*
X20018139Y-17114145D01*
X20004670Y-17125817D01*
X19956739Y-17161739D01*
X19869385Y-17278295D01*
X19818255Y-17414684D01*
X19811500Y-17476866D01*
X19811500Y-18573134D01*
X19818255Y-18635316D01*
X19869385Y-18771705D01*
X19956739Y-18888261D01*
X19963919Y-18893642D01*
X20005074Y-18924486D01*
X20047589Y-18981345D01*
X20052615Y-19052164D01*
X20018555Y-19114457D01*
X20005075Y-19126138D01*
X19964274Y-19156717D01*
X19951715Y-19169276D01*
X19875214Y-19271351D01*
X19866676Y-19286946D01*
X19821522Y-19407394D01*
X19817895Y-19422649D01*
X19812369Y-19473514D01*
X19812000Y-19480328D01*
X19812000Y-19752885D01*
X19816475Y-19768124D01*
X19817865Y-19769329D01*
X19825548Y-19771000D01*
X23309884Y-19771000D01*
X23325123Y-19766525D01*
X23326328Y-19765135D01*
X23327999Y-19757452D01*
X23327999Y-19480331D01*
X23327629Y-19473510D01*
X23322105Y-19422648D01*
X23318479Y-19407396D01*
X23273324Y-19286946D01*
X23264786Y-19271351D01*
X23188285Y-19169276D01*
X23183927Y-19164918D01*
X23149901Y-19102606D01*
X23154966Y-19031791D01*
X23197513Y-18974955D01*
X23264033Y-18950144D01*
X23319146Y-18959966D01*
X23319301Y-18959472D01*
X23482938Y-19010753D01*
X23556365Y-19017500D01*
X23559263Y-19017500D01*
X23813665Y-19017499D01*
X24069634Y-19017499D01*
X24072492Y-19017236D01*
X24072501Y-19017236D01*
X24108004Y-19013974D01*
X24143062Y-19010753D01*
X24151030Y-19008256D01*
X24299450Y-18961744D01*
X24299452Y-18961743D01*
X24306699Y-18959472D01*
X24453381Y-18870639D01*
X24549259Y-18774761D01*
X24611571Y-18740735D01*
X24682386Y-18745800D01*
X24727449Y-18774761D01*
X24817557Y-18864869D01*
X24829426Y-18874176D01*
X24963012Y-18955079D01*
X24976757Y-18961285D01*
X25126644Y-19008256D01*
X25139694Y-19010869D01*
X25194586Y-19015913D01*
X25206124Y-19012525D01*
X25207329Y-19011135D01*
X25209000Y-19003452D01*
X25209000Y-18998884D01*
X25717000Y-18998884D01*
X25721475Y-19014123D01*
X25722865Y-19015328D01*
X25727294Y-19016291D01*
X25786315Y-19010868D01*
X25799351Y-19008257D01*
X25949243Y-18961285D01*
X25962988Y-18955079D01*
X26096574Y-18874176D01*
X26108443Y-18864869D01*
X26218869Y-18754443D01*
X26228176Y-18742574D01*
X26309079Y-18608988D01*
X26315285Y-18595243D01*
X26362256Y-18445356D01*
X26364869Y-18432306D01*
X26370734Y-18368479D01*
X26371000Y-18362691D01*
X26371000Y-18306115D01*
X26366525Y-18290876D01*
X26365135Y-18289671D01*
X26357452Y-18288000D01*
X25735115Y-18288000D01*
X25719876Y-18292475D01*
X25718671Y-18293865D01*
X25717000Y-18301548D01*
X25717000Y-18998884D01*
X25209000Y-18998884D01*
X25209000Y-17906000D01*
X25229002Y-17837879D01*
X25282658Y-17791386D01*
X25335000Y-17780000D01*
X26352884Y-17780000D01*
X26368123Y-17775525D01*
X26369328Y-17774135D01*
X26370999Y-17766452D01*
X26370999Y-17705295D01*
X26370736Y-17699546D01*
X26364257Y-17629030D01*
X26365487Y-17628917D01*
X26371121Y-17565038D01*
X26414603Y-17508915D01*
X26488431Y-17485020D01*
X28949562Y-17485020D01*
X29017683Y-17505022D01*
X29064176Y-17558678D01*
X29074872Y-17624190D01*
X29058496Y-17780000D01*
X29059186Y-17786565D01*
X29076290Y-17949297D01*
X29078458Y-17969928D01*
X29137473Y-18151556D01*
X29140776Y-18157278D01*
X29140777Y-18157279D01*
X29174686Y-18216010D01*
X29232960Y-18316944D01*
X29237378Y-18321851D01*
X29237379Y-18321852D01*
X29355922Y-18453507D01*
X29360747Y-18458866D01*
X29515248Y-18571118D01*
X29521276Y-18573802D01*
X29521278Y-18573803D01*
X29676058Y-18642715D01*
X29689712Y-18648794D01*
X29783112Y-18668647D01*
X29870056Y-18687128D01*
X29870061Y-18687128D01*
X29876513Y-18688500D01*
X30067487Y-18688500D01*
X30073939Y-18687128D01*
X30073944Y-18687128D01*
X30160888Y-18668647D01*
X30254288Y-18648794D01*
X30267942Y-18642715D01*
X30422722Y-18573803D01*
X30422724Y-18573802D01*
X30428752Y-18571118D01*
X30583253Y-18458866D01*
X30588078Y-18453507D01*
X30706621Y-18321852D01*
X30706622Y-18321851D01*
X30711040Y-18316944D01*
X30769314Y-18216010D01*
X30803223Y-18157279D01*
X30803224Y-18157278D01*
X30806527Y-18151556D01*
X30865542Y-17969928D01*
X30867711Y-17949297D01*
X30884814Y-17786565D01*
X30885504Y-17780000D01*
X30869128Y-17624190D01*
X30881900Y-17554352D01*
X30930402Y-17502505D01*
X30994438Y-17485020D01*
X35833256Y-17485020D01*
X35901377Y-17505022D01*
X35907314Y-17509082D01*
X35959354Y-17546891D01*
X36004177Y-17579457D01*
X36056728Y-17617638D01*
X36062756Y-17620322D01*
X36062758Y-17620323D01*
X36225161Y-17692629D01*
X36231192Y-17695314D01*
X36324593Y-17715167D01*
X36411536Y-17733648D01*
X36411541Y-17733648D01*
X36417993Y-17735020D01*
X36608967Y-17735020D01*
X36615419Y-17733648D01*
X36615424Y-17733648D01*
X36702367Y-17715167D01*
X36795768Y-17695314D01*
X36801799Y-17692629D01*
X36964202Y-17620323D01*
X36964204Y-17620322D01*
X36970232Y-17617638D01*
X37124733Y-17505386D01*
X37147336Y-17480283D01*
X37248101Y-17368372D01*
X37248102Y-17368371D01*
X37252520Y-17363464D01*
X37348007Y-17198076D01*
X37407022Y-17016448D01*
X37408943Y-16998177D01*
X37426294Y-16833085D01*
X37426984Y-16826520D01*
X37414594Y-16708632D01*
X37407712Y-16643155D01*
X37407712Y-16643153D01*
X37407022Y-16636592D01*
X37348007Y-16454964D01*
X37341887Y-16444363D01*
X37280189Y-16337500D01*
X37263451Y-16268505D01*
X37286671Y-16201413D01*
X37342478Y-16157526D01*
X37389308Y-16148500D01*
X37433487Y-16148500D01*
X37439939Y-16147128D01*
X37439944Y-16147128D01*
X37534608Y-16127006D01*
X37620288Y-16108794D01*
X37626319Y-16106109D01*
X37788722Y-16033803D01*
X37788724Y-16033802D01*
X37794752Y-16031118D01*
X37816842Y-16015069D01*
X37925940Y-15935804D01*
X37992808Y-15911946D01*
X38061959Y-15928026D01*
X38111439Y-15978940D01*
X38126001Y-16037740D01*
X38126001Y-16329669D01*
X38126371Y-16336490D01*
X38131895Y-16387352D01*
X38135521Y-16402604D01*
X38180676Y-16523054D01*
X38189214Y-16538649D01*
X38265715Y-16640724D01*
X38278276Y-16653285D01*
X38380351Y-16729786D01*
X38395946Y-16738324D01*
X38516394Y-16783478D01*
X38531649Y-16787105D01*
X38582514Y-16792631D01*
X38589328Y-16793000D01*
X39161885Y-16793000D01*
X39177124Y-16788525D01*
X39178329Y-16787135D01*
X39180000Y-16779452D01*
X39180000Y-16774884D01*
X39688000Y-16774884D01*
X39692475Y-16790123D01*
X39693865Y-16791328D01*
X39701548Y-16792999D01*
X40278669Y-16792999D01*
X40285490Y-16792629D01*
X40336352Y-16787105D01*
X40351604Y-16783479D01*
X40472054Y-16738324D01*
X40487649Y-16729786D01*
X40589724Y-16653285D01*
X40602285Y-16640724D01*
X40678786Y-16538649D01*
X40687324Y-16523054D01*
X40732478Y-16402606D01*
X40736105Y-16387351D01*
X40741631Y-16336486D01*
X40742000Y-16329672D01*
X40742000Y-16329669D01*
X46126001Y-16329669D01*
X46126371Y-16336490D01*
X46131895Y-16387352D01*
X46135521Y-16402604D01*
X46180676Y-16523054D01*
X46189214Y-16538649D01*
X46265715Y-16640724D01*
X46278276Y-16653285D01*
X46380351Y-16729786D01*
X46395946Y-16738324D01*
X46516394Y-16783478D01*
X46531649Y-16787105D01*
X46582514Y-16792631D01*
X46589328Y-16793000D01*
X47161885Y-16793000D01*
X47177124Y-16788525D01*
X47178329Y-16787135D01*
X47180000Y-16779452D01*
X47180000Y-15857115D01*
X47175525Y-15841876D01*
X47174135Y-15840671D01*
X47166452Y-15839000D01*
X46144116Y-15839000D01*
X46128877Y-15843475D01*
X46127672Y-15844865D01*
X46126001Y-15852548D01*
X46126001Y-16329669D01*
X40742000Y-16329669D01*
X40742000Y-15857115D01*
X40737525Y-15841876D01*
X40736135Y-15840671D01*
X40728452Y-15839000D01*
X39706115Y-15839000D01*
X39690876Y-15843475D01*
X39689671Y-15844865D01*
X39688000Y-15852548D01*
X39688000Y-16774884D01*
X39180000Y-16774884D01*
X39180000Y-15312885D01*
X39688000Y-15312885D01*
X39692475Y-15328124D01*
X39693865Y-15329329D01*
X39701548Y-15331000D01*
X40723884Y-15331000D01*
X40739123Y-15326525D01*
X40740328Y-15325135D01*
X40741999Y-15317452D01*
X40741999Y-15312885D01*
X46126000Y-15312885D01*
X46130475Y-15328124D01*
X46131865Y-15329329D01*
X46139548Y-15331000D01*
X47161885Y-15331000D01*
X47177124Y-15326525D01*
X47178329Y-15325135D01*
X47180000Y-15317452D01*
X47180000Y-14395116D01*
X47175525Y-14379877D01*
X47174135Y-14378672D01*
X47166452Y-14377001D01*
X46589331Y-14377001D01*
X46582510Y-14377371D01*
X46531648Y-14382895D01*
X46516396Y-14386521D01*
X46395946Y-14431676D01*
X46380351Y-14440214D01*
X46278276Y-14516715D01*
X46265715Y-14529276D01*
X46189214Y-14631351D01*
X46180676Y-14646946D01*
X46135522Y-14767394D01*
X46131895Y-14782649D01*
X46126369Y-14833514D01*
X46126000Y-14840328D01*
X46126000Y-15312885D01*
X40741999Y-15312885D01*
X40741999Y-14840331D01*
X40741629Y-14833510D01*
X40736105Y-14782648D01*
X40732479Y-14767396D01*
X40687324Y-14646946D01*
X40678786Y-14631351D01*
X40602285Y-14529276D01*
X40589724Y-14516715D01*
X40487649Y-14440214D01*
X40472054Y-14431676D01*
X40351606Y-14386522D01*
X40336351Y-14382895D01*
X40285486Y-14377369D01*
X40278672Y-14377000D01*
X39706115Y-14377000D01*
X39690876Y-14381475D01*
X39689671Y-14382865D01*
X39688000Y-14390548D01*
X39688000Y-15312885D01*
X39180000Y-15312885D01*
X39180000Y-14395116D01*
X39175525Y-14379877D01*
X39174135Y-14378672D01*
X39166452Y-14377001D01*
X38589331Y-14377001D01*
X38582510Y-14377371D01*
X38531648Y-14382895D01*
X38516396Y-14386521D01*
X38395946Y-14431676D01*
X38380351Y-14440214D01*
X38278276Y-14516715D01*
X38265715Y-14529276D01*
X38200842Y-14615836D01*
X38143983Y-14658351D01*
X38073165Y-14663377D01*
X38006383Y-14624583D01*
X37949253Y-14561134D01*
X37794752Y-14448882D01*
X37788724Y-14446198D01*
X37788722Y-14446197D01*
X37626319Y-14373891D01*
X37626318Y-14373891D01*
X37620288Y-14371206D01*
X37526887Y-14351353D01*
X37439944Y-14332872D01*
X37439939Y-14332872D01*
X37433487Y-14331500D01*
X37242513Y-14331500D01*
X37236061Y-14332872D01*
X37236056Y-14332872D01*
X37149113Y-14351353D01*
X37055712Y-14371206D01*
X37049682Y-14373891D01*
X37049681Y-14373891D01*
X36887278Y-14446197D01*
X36887276Y-14446198D01*
X36881248Y-14448882D01*
X36726747Y-14561134D01*
X36722326Y-14566044D01*
X36722325Y-14566045D01*
X36614875Y-14685381D01*
X36598960Y-14703056D01*
X36553007Y-14782649D01*
X36508494Y-14859748D01*
X36503473Y-14868444D01*
X36444458Y-15050072D01*
X36443768Y-15056633D01*
X36443768Y-15056635D01*
X36432721Y-15161739D01*
X36424496Y-15240000D01*
X36425186Y-15246565D01*
X36441459Y-15401390D01*
X36444458Y-15429928D01*
X36503473Y-15611556D01*
X36506776Y-15617278D01*
X36506777Y-15617279D01*
X36571291Y-15729020D01*
X36588029Y-15798015D01*
X36564809Y-15865107D01*
X36509002Y-15908994D01*
X36462172Y-15918020D01*
X36417993Y-15918020D01*
X36411541Y-15919392D01*
X36411536Y-15919392D01*
X36334326Y-15935804D01*
X36231192Y-15957726D01*
X36225162Y-15960411D01*
X36225161Y-15960411D01*
X36062758Y-16032717D01*
X36062756Y-16032718D01*
X36056728Y-16035402D01*
X36051387Y-16039282D01*
X36051386Y-16039283D01*
X35993617Y-16081255D01*
X35908680Y-16142966D01*
X35907317Y-16143956D01*
X35840449Y-16167814D01*
X35833256Y-16168020D01*
X26497500Y-16168020D01*
X26429379Y-16148018D01*
X26382886Y-16094362D01*
X26371500Y-16042020D01*
X26371499Y-15673249D01*
X26371499Y-15670366D01*
X26364753Y-15596938D01*
X26362754Y-15590559D01*
X26315744Y-15440550D01*
X26315743Y-15440548D01*
X26313472Y-15433301D01*
X26302368Y-15414966D01*
X26284190Y-15346339D01*
X26294882Y-15299138D01*
X26297527Y-15294556D01*
X26356542Y-15112928D01*
X26361163Y-15068967D01*
X26375814Y-14929565D01*
X26376504Y-14923000D01*
X26370446Y-14865357D01*
X26357233Y-14739642D01*
X26357232Y-14739638D01*
X26356542Y-14733072D01*
X26348647Y-14708774D01*
X26316037Y-14608410D01*
X26315636Y-14531795D01*
X26341619Y-14448882D01*
X26364753Y-14375062D01*
X26371500Y-14301635D01*
X26371499Y-13929979D01*
X26391501Y-13861860D01*
X26445156Y-13815367D01*
X26497499Y-13803980D01*
X29229256Y-13803980D01*
X29297377Y-13823982D01*
X29303314Y-13828042D01*
X29452728Y-13936598D01*
X29458756Y-13939282D01*
X29458758Y-13939283D01*
X29621161Y-14011589D01*
X29627192Y-14014274D01*
X29720593Y-14034127D01*
X29807536Y-14052608D01*
X29807541Y-14052608D01*
X29813993Y-14053980D01*
X30004967Y-14053980D01*
X30011419Y-14052608D01*
X30011424Y-14052608D01*
X30098367Y-14034127D01*
X30191768Y-14014274D01*
X30197799Y-14011589D01*
X30360202Y-13939283D01*
X30360204Y-13939282D01*
X30366232Y-13936598D01*
X30520733Y-13824346D01*
X30550982Y-13790751D01*
X30644101Y-13687332D01*
X30644102Y-13687331D01*
X30648520Y-13682424D01*
X30744007Y-13517036D01*
X30803022Y-13335408D01*
X30820691Y-13167298D01*
X30847704Y-13101642D01*
X30905926Y-13061012D01*
X30946001Y-13054469D01*
X32389807Y-13054469D01*
X32457928Y-13074471D01*
X32463865Y-13078531D01*
X32613279Y-13187087D01*
X32619307Y-13189771D01*
X32619309Y-13189772D01*
X32781712Y-13262078D01*
X32787743Y-13264763D01*
X32881143Y-13284616D01*
X32968087Y-13303097D01*
X32968092Y-13303097D01*
X32974544Y-13304469D01*
X33165518Y-13304469D01*
X33171970Y-13303097D01*
X33171975Y-13303097D01*
X33258919Y-13284616D01*
X33352319Y-13264763D01*
X33358350Y-13262078D01*
X33520753Y-13189772D01*
X33520755Y-13189771D01*
X33526783Y-13187087D01*
X33681284Y-13074835D01*
X33809071Y-12932913D01*
X33904558Y-12767525D01*
X33963573Y-12585897D01*
X33973970Y-12486980D01*
X33982845Y-12402534D01*
X33983535Y-12395969D01*
X33975054Y-12315279D01*
X33964263Y-12212604D01*
X33964263Y-12212602D01*
X33963573Y-12206041D01*
X33904558Y-12024413D01*
X33809071Y-11859025D01*
X33788818Y-11836531D01*
X33685706Y-11722014D01*
X33685705Y-11722013D01*
X33681284Y-11717103D01*
X33577409Y-11641633D01*
X33532125Y-11608732D01*
X33532124Y-11608731D01*
X33526783Y-11604851D01*
X33520755Y-11602167D01*
X33520753Y-11602166D01*
X33358350Y-11529860D01*
X33358349Y-11529860D01*
X33352319Y-11527175D01*
X33258918Y-11507322D01*
X33171975Y-11488841D01*
X33171970Y-11488841D01*
X33165518Y-11487469D01*
X32974544Y-11487469D01*
X32968092Y-11488841D01*
X32968087Y-11488841D01*
X32881143Y-11507322D01*
X32787743Y-11527175D01*
X32781713Y-11529860D01*
X32781712Y-11529860D01*
X32619309Y-11602166D01*
X32619307Y-11602167D01*
X32613279Y-11604851D01*
X32607938Y-11608731D01*
X32607937Y-11608732D01*
X32562653Y-11641633D01*
X32464123Y-11713220D01*
X32463868Y-11713405D01*
X32397000Y-11737263D01*
X32389807Y-11737469D01*
X28834090Y-11737469D01*
X28822234Y-11736910D01*
X28814494Y-11735180D01*
X28806568Y-11735429D01*
X28806567Y-11735429D01*
X28743642Y-11737407D01*
X28739684Y-11737469D01*
X28710599Y-11737469D01*
X28706668Y-11737966D01*
X28706661Y-11737966D01*
X28706210Y-11738023D01*
X28694374Y-11738955D01*
X28648200Y-11740407D01*
X28627610Y-11746389D01*
X28608249Y-11750399D01*
X28601261Y-11751281D01*
X28594827Y-11752094D01*
X28594826Y-11752094D01*
X28586967Y-11753087D01*
X28579602Y-11756003D01*
X28579598Y-11756004D01*
X28544010Y-11770095D01*
X28532800Y-11773934D01*
X28488431Y-11786824D01*
X28469966Y-11797744D01*
X28452226Y-11806435D01*
X28432275Y-11814334D01*
X28394905Y-11841485D01*
X28384983Y-11848002D01*
X28352054Y-11867476D01*
X28352050Y-11867479D01*
X28345224Y-11871516D01*
X28330060Y-11886680D01*
X28315027Y-11899520D01*
X28297674Y-11912128D01*
X28292621Y-11918236D01*
X28273148Y-11941775D01*
X28214314Y-11981513D01*
X28176063Y-11987460D01*
X24348338Y-11987460D01*
X24280217Y-11967458D01*
X24233724Y-11913802D01*
X24228505Y-11900396D01*
X24211481Y-11848002D01*
X24202527Y-11820444D01*
X24199000Y-11814334D01*
X24157118Y-11741793D01*
X24107040Y-11655056D01*
X24070179Y-11614117D01*
X23983675Y-11518045D01*
X23983674Y-11518044D01*
X23979253Y-11513134D01*
X23824752Y-11400882D01*
X23818724Y-11398198D01*
X23818722Y-11398197D01*
X23656319Y-11325891D01*
X23656318Y-11325891D01*
X23650288Y-11323206D01*
X23643827Y-11321833D01*
X23643822Y-11321831D01*
X23624606Y-11317746D01*
X23562132Y-11284018D01*
X23527811Y-11221868D01*
X23532539Y-11151029D01*
X23574815Y-11093992D01*
X23641217Y-11068865D01*
X23650803Y-11068500D01*
X23717487Y-11068500D01*
X23723939Y-11067128D01*
X23723944Y-11067128D01*
X23820541Y-11046595D01*
X23904288Y-11028794D01*
X23967667Y-11000576D01*
X24072722Y-10953803D01*
X24072724Y-10953802D01*
X24078752Y-10951118D01*
X24115839Y-10924173D01*
X24171785Y-10883525D01*
X24233253Y-10838866D01*
X24301296Y-10763297D01*
X24356621Y-10701852D01*
X24356622Y-10701851D01*
X24361040Y-10696944D01*
X24456527Y-10531556D01*
X24515542Y-10349928D01*
X24525861Y-10251753D01*
X24534814Y-10166565D01*
X24535504Y-10160000D01*
X24521727Y-10028919D01*
X24516232Y-9976635D01*
X24516232Y-9976633D01*
X24515542Y-9970072D01*
X24456527Y-9788444D01*
X24361040Y-9623056D01*
X24333147Y-9592077D01*
X24237675Y-9486045D01*
X24237674Y-9486044D01*
X24233253Y-9481134D01*
X24110311Y-9391811D01*
X24084094Y-9372763D01*
X24084093Y-9372762D01*
X24078752Y-9368882D01*
X24072724Y-9366198D01*
X24072722Y-9366197D01*
X23910319Y-9293891D01*
X23910318Y-9293891D01*
X23904288Y-9291206D01*
X23800401Y-9269124D01*
X23723944Y-9252872D01*
X23723939Y-9252872D01*
X23717487Y-9251500D01*
X23526513Y-9251500D01*
X23520061Y-9252872D01*
X23520056Y-9252872D01*
X23367200Y-9285363D01*
X23296409Y-9279961D01*
X23240177Y-9237682D01*
X23217410Y-9207304D01*
X23183261Y-9161739D01*
X23135340Y-9125824D01*
X23092827Y-9068967D01*
X23087801Y-8998149D01*
X23121861Y-8935855D01*
X23135330Y-8924183D01*
X23183261Y-8888261D01*
X23270615Y-8771705D01*
X23273767Y-8763296D01*
X23278077Y-8755425D01*
X23279741Y-8756336D01*
X23315663Y-8708510D01*
X23382224Y-8683807D01*
X23391009Y-8683500D01*
X25820577Y-8683500D01*
X25888698Y-8703502D01*
X25935191Y-8757158D01*
X25945864Y-8822889D01*
X25942251Y-8856695D01*
X25942548Y-8861847D01*
X25942548Y-8861851D01*
X25948011Y-8956590D01*
X25955110Y-9079715D01*
X25956247Y-9084761D01*
X25956248Y-9084767D01*
X25969184Y-9142166D01*
X26004222Y-9297639D01*
X26042461Y-9391811D01*
X26075282Y-9472639D01*
X26088266Y-9504616D01*
X26137530Y-9585008D01*
X26202291Y-9690688D01*
X26204987Y-9695088D01*
X26351250Y-9863938D01*
X26523126Y-10006632D01*
X26716000Y-10119338D01*
X26720825Y-10121180D01*
X26720826Y-10121181D01*
X26746825Y-10131109D01*
X26924692Y-10199030D01*
X26929760Y-10200061D01*
X26929763Y-10200062D01*
X27037017Y-10221883D01*
X27143597Y-10243567D01*
X27148772Y-10243757D01*
X27148774Y-10243757D01*
X27361673Y-10251564D01*
X27361677Y-10251564D01*
X27366837Y-10251753D01*
X27371957Y-10251097D01*
X27371959Y-10251097D01*
X27583288Y-10224025D01*
X27583289Y-10224025D01*
X27588416Y-10223368D01*
X27636430Y-10208963D01*
X27797429Y-10160661D01*
X27797434Y-10160659D01*
X27802384Y-10159174D01*
X28002994Y-10060896D01*
X28184860Y-9931173D01*
X28245201Y-9871043D01*
X28318953Y-9797548D01*
X28343096Y-9773489D01*
X28402594Y-9690689D01*
X28473453Y-9592077D01*
X28474776Y-9593028D01*
X28521645Y-9549857D01*
X28591580Y-9537625D01*
X28657026Y-9565144D01*
X28684875Y-9596994D01*
X28744987Y-9695088D01*
X28891250Y-9863938D01*
X29063126Y-10006632D01*
X29256000Y-10119338D01*
X29260825Y-10121180D01*
X29260826Y-10121181D01*
X29286825Y-10131109D01*
X29464692Y-10199030D01*
X29469760Y-10200061D01*
X29469763Y-10200062D01*
X29577017Y-10221883D01*
X29683597Y-10243567D01*
X29688772Y-10243757D01*
X29688774Y-10243757D01*
X29901673Y-10251564D01*
X29901677Y-10251564D01*
X29906837Y-10251753D01*
X29911957Y-10251097D01*
X29911959Y-10251097D01*
X30123288Y-10224025D01*
X30123289Y-10224025D01*
X30128416Y-10223368D01*
X30176430Y-10208963D01*
X30337429Y-10160661D01*
X30337434Y-10160659D01*
X30342384Y-10159174D01*
X30542994Y-10060896D01*
X30724860Y-9931173D01*
X30785201Y-9871043D01*
X30858953Y-9797548D01*
X30883096Y-9773489D01*
X30942594Y-9690689D01*
X31010435Y-9596277D01*
X31013453Y-9592077D01*
X31034320Y-9549857D01*
X31110136Y-9396453D01*
X31110137Y-9396451D01*
X31112430Y-9391811D01*
X31153120Y-9257885D01*
X31175865Y-9183023D01*
X31175865Y-9183021D01*
X31177370Y-9178069D01*
X31206529Y-8956590D01*
X31208156Y-8890000D01*
X31189852Y-8667361D01*
X31135431Y-8450702D01*
X31046354Y-8245840D01*
X30991681Y-8161328D01*
X30927822Y-8062617D01*
X30927820Y-8062614D01*
X30925014Y-8058277D01*
X30774670Y-7893051D01*
X30770619Y-7889852D01*
X30770615Y-7889848D01*
X30603414Y-7757800D01*
X30603410Y-7757798D01*
X30599359Y-7754598D01*
X30557569Y-7731529D01*
X30507598Y-7681097D01*
X30492826Y-7611654D01*
X30517942Y-7545248D01*
X30545293Y-7518642D01*
X30594247Y-7483723D01*
X30602648Y-7473023D01*
X30595660Y-7459870D01*
X29857812Y-6722022D01*
X29843868Y-6714408D01*
X29842035Y-6714539D01*
X29835420Y-6718790D01*
X29091737Y-7462473D01*
X29084977Y-7474853D01*
X29090258Y-7481907D01*
X29136969Y-7509203D01*
X29185693Y-7560841D01*
X29198764Y-7630624D01*
X29172033Y-7696396D01*
X29131584Y-7729752D01*
X29118607Y-7736507D01*
X29114474Y-7739610D01*
X29114471Y-7739612D01*
X28944100Y-7867530D01*
X28939965Y-7870635D01*
X28785629Y-8032138D01*
X28678201Y-8189621D01*
X28623293Y-8234621D01*
X28552768Y-8242792D01*
X28489021Y-8211538D01*
X28468324Y-8187054D01*
X28387822Y-8062617D01*
X28387820Y-8062614D01*
X28385014Y-8058277D01*
X28234670Y-7893051D01*
X28230619Y-7889852D01*
X28230615Y-7889848D01*
X28063414Y-7757800D01*
X28063410Y-7757798D01*
X28059359Y-7754598D01*
X28018053Y-7731796D01*
X27968084Y-7681364D01*
X27953312Y-7611921D01*
X27978428Y-7545516D01*
X28005780Y-7518909D01*
X28067544Y-7474853D01*
X28184860Y-7391173D01*
X28209620Y-7366500D01*
X28283535Y-7292842D01*
X28343096Y-7233489D01*
X28393627Y-7163168D01*
X28473453Y-7052077D01*
X28474640Y-7052930D01*
X28521960Y-7009362D01*
X28591897Y-6997145D01*
X28657338Y-7024678D01*
X28685166Y-7056512D01*
X28711459Y-7099419D01*
X28721916Y-7108880D01*
X28730694Y-7105096D01*
X29755905Y-6079885D01*
X29818217Y-6045859D01*
X29889032Y-6050924D01*
X29934095Y-6079885D01*
X30955474Y-7101264D01*
X30967484Y-7107823D01*
X30979223Y-7098855D01*
X31010004Y-7056019D01*
X31015315Y-7047180D01*
X31109670Y-6856267D01*
X31113469Y-6846672D01*
X31175376Y-6642915D01*
X31177555Y-6632834D01*
X31205590Y-6419887D01*
X31206109Y-6413212D01*
X31207572Y-6353364D01*
X31207378Y-6346646D01*
X31189781Y-6132604D01*
X31188096Y-6122424D01*
X31148726Y-5965685D01*
X31151530Y-5894743D01*
X31192243Y-5836580D01*
X31257938Y-5809661D01*
X31270930Y-5808989D01*
X35292539Y-5808989D01*
X35360660Y-5828991D01*
X35381629Y-5845889D01*
X36164964Y-6629224D01*
X36198987Y-6691533D01*
X36193923Y-6762348D01*
X36151376Y-6819184D01*
X36084856Y-6843995D01*
X36016975Y-6828382D01*
X36016752Y-6828882D01*
X36014189Y-6827741D01*
X36014190Y-6827741D01*
X36010726Y-6826199D01*
X35848319Y-6753891D01*
X35848318Y-6753891D01*
X35842288Y-6751206D01*
X35740584Y-6729588D01*
X35661944Y-6712872D01*
X35661939Y-6712872D01*
X35655487Y-6711500D01*
X35464513Y-6711500D01*
X35458061Y-6712872D01*
X35458056Y-6712872D01*
X35379416Y-6729588D01*
X35277712Y-6751206D01*
X35271682Y-6753891D01*
X35271681Y-6753891D01*
X35109278Y-6826197D01*
X35109276Y-6826198D01*
X35103248Y-6828882D01*
X34948747Y-6941134D01*
X34944326Y-6946044D01*
X34944325Y-6946045D01*
X34827727Y-7075541D01*
X34820960Y-7083056D01*
X34725473Y-7248444D01*
X34666458Y-7430072D01*
X34665768Y-7436633D01*
X34665768Y-7436635D01*
X34654353Y-7545248D01*
X34646496Y-7620000D01*
X34647186Y-7626565D01*
X34664934Y-7795424D01*
X34666458Y-7809928D01*
X34725473Y-7991556D01*
X34728776Y-7997278D01*
X34728777Y-7997279D01*
X34747934Y-8030460D01*
X34820960Y-8156944D01*
X34825378Y-8161851D01*
X34825379Y-8161852D01*
X34897087Y-8241492D01*
X34948747Y-8298866D01*
X35021746Y-8351903D01*
X35089881Y-8401406D01*
X35103248Y-8411118D01*
X35109276Y-8413802D01*
X35109278Y-8413803D01*
X35203426Y-8455720D01*
X35277712Y-8488794D01*
X35371113Y-8508647D01*
X35458056Y-8527128D01*
X35458061Y-8527128D01*
X35464513Y-8528500D01*
X35655487Y-8528500D01*
X35661939Y-8527128D01*
X35661944Y-8527128D01*
X35748887Y-8508647D01*
X35842288Y-8488794D01*
X35916574Y-8455720D01*
X36010722Y-8413803D01*
X36010724Y-8413802D01*
X36016752Y-8411118D01*
X36030120Y-8401406D01*
X36098254Y-8351903D01*
X36171253Y-8298866D01*
X36222913Y-8241492D01*
X36294621Y-8161852D01*
X36294622Y-8161851D01*
X36299040Y-8156944D01*
X36372066Y-8030460D01*
X36391223Y-7997279D01*
X36391224Y-7997278D01*
X36394527Y-7991556D01*
X36453542Y-7809928D01*
X36455067Y-7795424D01*
X36472814Y-7626565D01*
X36473504Y-7620000D01*
X36465647Y-7545248D01*
X36454232Y-7436635D01*
X36454232Y-7436633D01*
X36453542Y-7430072D01*
X36394527Y-7248444D01*
X36340776Y-7155345D01*
X36324038Y-7086350D01*
X36347258Y-7019258D01*
X36403065Y-6975371D01*
X36473740Y-6968622D01*
X36538990Y-7003250D01*
X38615595Y-9079854D01*
X38649620Y-9142166D01*
X38652500Y-9168949D01*
X38652500Y-9442732D01*
X38663113Y-9545019D01*
X38677265Y-9587438D01*
X38717244Y-9707268D01*
X38715073Y-9707992D01*
X38724180Y-9767211D01*
X38695320Y-9832077D01*
X38635972Y-9871043D01*
X38599293Y-9876500D01*
X38585866Y-9876500D01*
X38523684Y-9883255D01*
X38387295Y-9934385D01*
X38270739Y-10021739D01*
X38183385Y-10138295D01*
X38132255Y-10274684D01*
X38125500Y-10336866D01*
X38125500Y-11833134D01*
X38132255Y-11895316D01*
X38183385Y-12031705D01*
X38270739Y-12148261D01*
X38387295Y-12235615D01*
X38523684Y-12286745D01*
X38585866Y-12293500D01*
X40282134Y-12293500D01*
X40344316Y-12286745D01*
X40480705Y-12235615D01*
X40597261Y-12148261D01*
X40684615Y-12031705D01*
X40735745Y-11895316D01*
X40739066Y-11864743D01*
X40740028Y-11855892D01*
X40767270Y-11790330D01*
X40825634Y-11749904D01*
X40865291Y-11743500D01*
X46002709Y-11743500D01*
X46070830Y-11763502D01*
X46117323Y-11817158D01*
X46127972Y-11855892D01*
X46128934Y-11864743D01*
X46132255Y-11895316D01*
X46183385Y-12031705D01*
X46270739Y-12148261D01*
X46387295Y-12235615D01*
X46523684Y-12286745D01*
X46585866Y-12293500D01*
X48261000Y-12293500D01*
X48329121Y-12313502D01*
X48375614Y-12367158D01*
X48387000Y-12419500D01*
X48387000Y-14251000D01*
X48366998Y-14319121D01*
X48313342Y-14365614D01*
X48261000Y-14377000D01*
X47706115Y-14377000D01*
X47690876Y-14381475D01*
X47689671Y-14382865D01*
X47688000Y-14390548D01*
X47688000Y-16774884D01*
X47692475Y-16790123D01*
X47693865Y-16791328D01*
X47701548Y-16792999D01*
X48261000Y-16792999D01*
X48329121Y-16813001D01*
X48375614Y-16866657D01*
X48387000Y-16918999D01*
X48387000Y-39955672D01*
X48385500Y-39975057D01*
X48383287Y-39989271D01*
X48381814Y-39998730D01*
X48384257Y-40017410D01*
X48385148Y-40040342D01*
X48371620Y-40298475D01*
X48369257Y-40343554D01*
X48367880Y-40356665D01*
X48340248Y-40531128D01*
X48315877Y-40685002D01*
X48313135Y-40697902D01*
X48227097Y-41019000D01*
X48223023Y-41031536D01*
X48219203Y-41041490D01*
X48103895Y-41341876D01*
X48098531Y-41353924D01*
X47947612Y-41650120D01*
X47941021Y-41661536D01*
X47759967Y-41940334D01*
X47752224Y-41950992D01*
X47543016Y-42209344D01*
X47534190Y-42219145D01*
X47299145Y-42454190D01*
X47289344Y-42463016D01*
X47030996Y-42672221D01*
X47020334Y-42679967D01*
X46741536Y-42861021D01*
X46730120Y-42867612D01*
X46433924Y-43018531D01*
X46421875Y-43023895D01*
X46111536Y-43143023D01*
X46099000Y-43147097D01*
X45777902Y-43233135D01*
X45765002Y-43235877D01*
X45676285Y-43249928D01*
X45436665Y-43287880D01*
X45423557Y-43289257D01*
X45127666Y-43304764D01*
X45101688Y-43303436D01*
X45100144Y-43303195D01*
X45100140Y-43303195D01*
X45091270Y-43301814D01*
X45082368Y-43302978D01*
X45082365Y-43302978D01*
X45059749Y-43305936D01*
X45043411Y-43307000D01*
X49328Y-43307000D01*
X29943Y-43305500D01*
X15142Y-43303195D01*
X15139Y-43303195D01*
X6270Y-43301814D01*
X-12411Y-43304257D01*
X-35342Y-43305148D01*
X-338557Y-43289257D01*
X-351665Y-43287880D01*
X-591285Y-43249928D01*
X-680002Y-43235877D01*
X-692902Y-43233135D01*
X-1014000Y-43147097D01*
X-1026536Y-43143023D01*
X-1336875Y-43023895D01*
X-1348924Y-43018531D01*
X-1645120Y-42867612D01*
X-1656536Y-42861021D01*
X-1935334Y-42679967D01*
X-1945996Y-42672221D01*
X-2204344Y-42463016D01*
X-2214145Y-42454190D01*
X-2449190Y-42219145D01*
X-2458016Y-42209344D01*
X-2667224Y-41950992D01*
X-2674967Y-41940334D01*
X-2856021Y-41661536D01*
X-2862612Y-41650120D01*
X-3013531Y-41353924D01*
X-3018895Y-41341876D01*
X-3134203Y-41041490D01*
X-3138023Y-41031536D01*
X-3142097Y-41019000D01*
X-3228135Y-40697902D01*
X-3230877Y-40685002D01*
X-3255248Y-40531128D01*
X-3282880Y-40356665D01*
X-3284257Y-40343554D01*
X-3286547Y-40299865D01*
X-3295045Y-40137703D01*
X-2109257Y-40137703D01*
X-2071732Y-40422734D01*
X-1995871Y-40700036D01*
X-1994187Y-40703984D01*
X-1946941Y-40814749D01*
X-1883077Y-40964476D01*
X-1735439Y-41211161D01*
X-1555687Y-41435528D01*
X-1347149Y-41633423D01*
X-1113683Y-41801186D01*
X-1109888Y-41803195D01*
X-1109887Y-41803196D01*
X-1088131Y-41814715D01*
X-859608Y-41935712D01*
X-589627Y-42034511D01*
X-308736Y-42095755D01*
X-280159Y-42098004D01*
X-85718Y-42113307D01*
X-85709Y-42113307D01*
X-83261Y-42113500D01*
X72271Y-42113500D01*
X74407Y-42113354D01*
X74418Y-42113354D01*
X282548Y-42099165D01*
X282554Y-42099164D01*
X286825Y-42098873D01*
X291020Y-42098004D01*
X291022Y-42098004D01*
X427584Y-42069723D01*
X568342Y-42040574D01*
X839343Y-41944607D01*
X1094812Y-41812750D01*
X1098313Y-41810289D01*
X1098317Y-41810287D01*
X1212417Y-41730096D01*
X1330023Y-41647441D01*
X1417117Y-41566508D01*
X1537479Y-41454661D01*
X1537481Y-41454658D01*
X1540622Y-41451740D01*
X1722713Y-41229268D01*
X1872927Y-40984142D01*
X1988483Y-40720898D01*
X2001885Y-40673852D01*
X2042150Y-40532500D01*
X2067244Y-40444406D01*
X2097515Y-40231704D01*
X2107146Y-40164036D01*
X2107146Y-40164034D01*
X2107751Y-40159784D01*
X2107845Y-40141951D01*
X2107897Y-40132000D01*
X2642496Y-40132000D01*
X2643186Y-40138565D01*
X2661427Y-40312115D01*
X2662458Y-40321928D01*
X2721473Y-40503556D01*
X2816960Y-40668944D01*
X2821378Y-40673851D01*
X2821379Y-40673852D01*
X2867280Y-40724830D01*
X2944747Y-40810866D01*
X3099248Y-40923118D01*
X3105276Y-40925802D01*
X3105278Y-40925803D01*
X3267681Y-40998109D01*
X3273712Y-41000794D01*
X3359364Y-41019000D01*
X3454056Y-41039128D01*
X3454061Y-41039128D01*
X3460513Y-41040500D01*
X3651487Y-41040500D01*
X3657939Y-41039128D01*
X3657944Y-41039128D01*
X3678921Y-41034669D01*
X9197001Y-41034669D01*
X9197371Y-41041490D01*
X9202895Y-41092352D01*
X9206521Y-41107604D01*
X9251676Y-41228054D01*
X9260214Y-41243649D01*
X9336715Y-41345724D01*
X9349276Y-41358285D01*
X9451351Y-41434786D01*
X9466946Y-41443324D01*
X9587394Y-41488478D01*
X9602649Y-41492105D01*
X9653514Y-41497631D01*
X9660328Y-41498000D01*
X10382885Y-41498000D01*
X10398124Y-41493525D01*
X10399329Y-41492135D01*
X10401000Y-41484452D01*
X10401000Y-41479884D01*
X10909000Y-41479884D01*
X10913475Y-41495123D01*
X10914865Y-41496328D01*
X10922548Y-41497999D01*
X11649669Y-41497999D01*
X11656490Y-41497629D01*
X11707352Y-41492105D01*
X11722604Y-41488479D01*
X11843054Y-41443324D01*
X11858648Y-41434786D01*
X11954435Y-41362998D01*
X12020941Y-41338150D01*
X12090324Y-41353203D01*
X12105565Y-41362998D01*
X12201352Y-41434786D01*
X12216946Y-41443324D01*
X12337394Y-41488478D01*
X12352649Y-41492105D01*
X12403514Y-41497631D01*
X12410328Y-41498000D01*
X13132885Y-41498000D01*
X13148124Y-41493525D01*
X13149329Y-41492135D01*
X13151000Y-41484452D01*
X13151000Y-41479884D01*
X13659000Y-41479884D01*
X13663475Y-41495123D01*
X13664865Y-41496328D01*
X13672548Y-41497999D01*
X14399669Y-41497999D01*
X14406490Y-41497629D01*
X14457352Y-41492105D01*
X14472604Y-41488479D01*
X14560770Y-41455427D01*
X14631578Y-41450244D01*
X14649230Y-41455427D01*
X14737394Y-41488478D01*
X14752649Y-41492105D01*
X14803514Y-41497631D01*
X14810328Y-41498000D01*
X15532885Y-41498000D01*
X15548124Y-41493525D01*
X15549329Y-41492135D01*
X15551000Y-41484452D01*
X15551000Y-41479884D01*
X16059000Y-41479884D01*
X16063475Y-41495123D01*
X16064865Y-41496328D01*
X16072548Y-41497999D01*
X16799669Y-41497999D01*
X16806490Y-41497629D01*
X16857352Y-41492105D01*
X16872604Y-41488479D01*
X16993054Y-41443324D01*
X17008648Y-41434786D01*
X17104435Y-41362998D01*
X17170941Y-41338150D01*
X17240324Y-41353203D01*
X17255565Y-41362998D01*
X17351352Y-41434786D01*
X17366946Y-41443324D01*
X17487394Y-41488478D01*
X17502649Y-41492105D01*
X17553514Y-41497631D01*
X17560328Y-41498000D01*
X18282885Y-41498000D01*
X18298124Y-41493525D01*
X18299329Y-41492135D01*
X18301000Y-41484452D01*
X18301000Y-41479884D01*
X18809000Y-41479884D01*
X18813475Y-41495123D01*
X18814865Y-41496328D01*
X18822548Y-41497999D01*
X19549669Y-41497999D01*
X19556490Y-41497629D01*
X19607352Y-41492105D01*
X19622604Y-41488479D01*
X19743054Y-41443324D01*
X19758649Y-41434786D01*
X19860724Y-41358285D01*
X19873285Y-41345724D01*
X19949786Y-41243649D01*
X19958324Y-41228054D01*
X20003478Y-41107606D01*
X20007105Y-41092351D01*
X20012631Y-41041486D01*
X20013000Y-41034672D01*
X20013000Y-40312115D01*
X20008525Y-40296876D01*
X20007135Y-40295671D01*
X19999452Y-40294000D01*
X18827115Y-40294000D01*
X18811876Y-40298475D01*
X18810671Y-40299865D01*
X18809000Y-40307548D01*
X18809000Y-41479884D01*
X18301000Y-41479884D01*
X18301000Y-40312115D01*
X18296525Y-40296876D01*
X18295135Y-40295671D01*
X18287452Y-40294000D01*
X16077115Y-40294000D01*
X16061876Y-40298475D01*
X16060671Y-40299865D01*
X16059000Y-40307548D01*
X16059000Y-41479884D01*
X15551000Y-41479884D01*
X15551000Y-40312115D01*
X15546525Y-40296876D01*
X15545135Y-40295671D01*
X15537452Y-40294000D01*
X13677115Y-40294000D01*
X13661876Y-40298475D01*
X13660671Y-40299865D01*
X13659000Y-40307548D01*
X13659000Y-41479884D01*
X13151000Y-41479884D01*
X13151000Y-40312115D01*
X13146525Y-40296876D01*
X13145135Y-40295671D01*
X13137452Y-40294000D01*
X10927115Y-40294000D01*
X10911876Y-40298475D01*
X10910671Y-40299865D01*
X10909000Y-40307548D01*
X10909000Y-41479884D01*
X10401000Y-41479884D01*
X10401000Y-40312115D01*
X10396525Y-40296876D01*
X10395135Y-40295671D01*
X10387452Y-40294000D01*
X9215116Y-40294000D01*
X9199877Y-40298475D01*
X9198672Y-40299865D01*
X9197001Y-40307548D01*
X9197001Y-41034669D01*
X3678921Y-41034669D01*
X3752636Y-41019000D01*
X3838288Y-41000794D01*
X3844319Y-40998109D01*
X4006722Y-40925803D01*
X4006724Y-40925802D01*
X4012752Y-40923118D01*
X4167253Y-40810866D01*
X4244720Y-40724830D01*
X4290621Y-40673852D01*
X4290622Y-40673851D01*
X4295040Y-40668944D01*
X4390527Y-40503556D01*
X4449542Y-40321928D01*
X4450574Y-40312115D01*
X4468814Y-40138565D01*
X4469504Y-40132000D01*
X4454838Y-39992461D01*
X4450232Y-39948635D01*
X4450232Y-39948633D01*
X4449542Y-39942072D01*
X4392945Y-39767885D01*
X9197000Y-39767885D01*
X9201475Y-39783124D01*
X9202865Y-39784329D01*
X9210548Y-39786000D01*
X10382885Y-39786000D01*
X10398124Y-39781525D01*
X10399329Y-39780135D01*
X10401000Y-39772452D01*
X10401000Y-38600116D01*
X10396525Y-38584877D01*
X10395135Y-38583672D01*
X10387452Y-38582001D01*
X9660331Y-38582001D01*
X9653510Y-38582371D01*
X9602648Y-38587895D01*
X9587396Y-38591521D01*
X9466946Y-38636676D01*
X9451351Y-38645214D01*
X9349276Y-38721715D01*
X9336715Y-38734276D01*
X9260214Y-38836351D01*
X9251676Y-38851946D01*
X9206522Y-38972394D01*
X9202895Y-38987649D01*
X9197369Y-39038514D01*
X9197000Y-39045328D01*
X9197000Y-39767885D01*
X4392945Y-39767885D01*
X4390527Y-39760444D01*
X4295040Y-39595056D01*
X4284297Y-39583124D01*
X4171675Y-39458045D01*
X4171674Y-39458044D01*
X4167253Y-39453134D01*
X4012752Y-39340882D01*
X4006724Y-39338198D01*
X4006722Y-39338197D01*
X3844319Y-39265891D01*
X3844318Y-39265891D01*
X3838288Y-39263206D01*
X3744888Y-39243353D01*
X3657944Y-39224872D01*
X3657939Y-39224872D01*
X3651487Y-39223500D01*
X3460513Y-39223500D01*
X3454061Y-39224872D01*
X3454056Y-39224872D01*
X3367112Y-39243353D01*
X3273712Y-39263206D01*
X3267682Y-39265891D01*
X3267681Y-39265891D01*
X3105278Y-39338197D01*
X3105276Y-39338198D01*
X3099248Y-39340882D01*
X2944747Y-39453134D01*
X2940326Y-39458044D01*
X2940325Y-39458045D01*
X2827704Y-39583124D01*
X2816960Y-39595056D01*
X2721473Y-39760444D01*
X2662458Y-39942072D01*
X2661768Y-39948633D01*
X2661768Y-39948635D01*
X2657162Y-39992461D01*
X2642496Y-40132000D01*
X2107897Y-40132000D01*
X2109235Y-39876583D01*
X2109235Y-39876576D01*
X2109257Y-39872297D01*
X2071732Y-39587266D01*
X1995871Y-39309964D01*
X1974017Y-39258729D01*
X1884763Y-39049476D01*
X1884761Y-39049472D01*
X1883077Y-39045524D01*
X1758136Y-38836763D01*
X1737643Y-38802521D01*
X1737640Y-38802517D01*
X1735439Y-38798839D01*
X1555687Y-38574472D01*
X1410549Y-38436741D01*
X1350258Y-38379527D01*
X1350255Y-38379525D01*
X1347149Y-38376577D01*
X1113683Y-38208814D01*
X1091843Y-38197250D01*
X1068654Y-38184972D01*
X859608Y-38074288D01*
X589627Y-37975489D01*
X308736Y-37914245D01*
X277685Y-37911801D01*
X85718Y-37896693D01*
X85709Y-37896693D01*
X83261Y-37896500D01*
X-72271Y-37896500D01*
X-74407Y-37896646D01*
X-74418Y-37896646D01*
X-282548Y-37910835D01*
X-282554Y-37910836D01*
X-286825Y-37911127D01*
X-291020Y-37911996D01*
X-291022Y-37911996D01*
X-427583Y-37940276D01*
X-568342Y-37969426D01*
X-839343Y-38065393D01*
X-1094812Y-38197250D01*
X-1098313Y-38199711D01*
X-1098317Y-38199713D01*
X-1149431Y-38235637D01*
X-1330023Y-38362559D01*
X-1373823Y-38403261D01*
X-1527422Y-38545994D01*
X-1540622Y-38558260D01*
X-1722713Y-38780732D01*
X-1872927Y-39025858D01*
X-1988483Y-39289102D01*
X-1989658Y-39293229D01*
X-1989659Y-39293230D01*
X-2027863Y-39427348D01*
X-2067244Y-39565594D01*
X-2107751Y-39850216D01*
X-2107773Y-39854505D01*
X-2107774Y-39854512D01*
X-2109235Y-40133417D01*
X-2109257Y-40137703D01*
X-3295045Y-40137703D01*
X-3299764Y-40047666D01*
X-3298436Y-40021688D01*
X-3298195Y-40020144D01*
X-3298195Y-40020140D01*
X-3296814Y-40011270D01*
X-3298120Y-40001279D01*
X-3300936Y-39979749D01*
X-3302000Y-39963411D01*
X-3302000Y-35347438D01*
X1315000Y-35347438D01*
X1315337Y-35353953D01*
X1324894Y-35446057D01*
X1327788Y-35459456D01*
X1377381Y-35608107D01*
X1383555Y-35621286D01*
X1465788Y-35754173D01*
X1474824Y-35765574D01*
X1585429Y-35875986D01*
X1596840Y-35884998D01*
X1729880Y-35967004D01*
X1743061Y-35973151D01*
X1891814Y-36022491D01*
X1905190Y-36025358D01*
X1996097Y-36034672D01*
X2001126Y-36034929D01*
X2016124Y-36030525D01*
X2017329Y-36029135D01*
X2019000Y-36021452D01*
X2019000Y-35324115D01*
X2014525Y-35308876D01*
X2013135Y-35307671D01*
X2005452Y-35306000D01*
X1333115Y-35306000D01*
X1317876Y-35310475D01*
X1316671Y-35311865D01*
X1315000Y-35319548D01*
X1315000Y-35347438D01*
X-3302000Y-35347438D01*
X-3302000Y-33717095D01*
X-271999Y-33717095D01*
X-271662Y-33723614D01*
X-261743Y-33819206D01*
X-258851Y-33832600D01*
X-207412Y-33986784D01*
X-201239Y-33999962D01*
X-115937Y-34137807D01*
X-106901Y-34149208D01*
X7829Y-34263739D01*
X19240Y-34272751D01*
X157243Y-34357816D01*
X170424Y-34363963D01*
X324710Y-34415138D01*
X338086Y-34418005D01*
X432438Y-34427672D01*
X438854Y-34428000D01*
X538885Y-34428000D01*
X554124Y-34423525D01*
X555329Y-34422135D01*
X557000Y-34414452D01*
X557000Y-34409884D01*
X1065000Y-34409884D01*
X1069475Y-34425123D01*
X1070865Y-34426328D01*
X1078548Y-34427999D01*
X1183095Y-34427999D01*
X1189617Y-34427661D01*
X1213363Y-34425198D01*
X1283185Y-34438064D01*
X1334966Y-34486635D01*
X1352267Y-34555492D01*
X1345958Y-34590192D01*
X1327510Y-34645811D01*
X1324642Y-34659190D01*
X1315328Y-34750097D01*
X1315000Y-34756514D01*
X1315000Y-34779885D01*
X1319475Y-34795124D01*
X1320865Y-34796329D01*
X1328548Y-34798000D01*
X2000885Y-34798000D01*
X2016124Y-34793525D01*
X2017329Y-34792135D01*
X2019000Y-34784452D01*
X2019000Y-34087115D01*
X2014525Y-34071876D01*
X2013135Y-34070671D01*
X2005452Y-34069000D01*
X2002562Y-34069000D01*
X1996042Y-34069337D01*
X1989270Y-34070040D01*
X1919449Y-34057175D01*
X1867667Y-34008604D01*
X1850365Y-33939748D01*
X1856674Y-33905045D01*
X1881138Y-33831290D01*
X1884005Y-33817914D01*
X1893672Y-33723562D01*
X1894000Y-33717146D01*
X1894000Y-33292115D01*
X1889525Y-33276876D01*
X1888135Y-33275671D01*
X1880452Y-33274000D01*
X1083115Y-33274000D01*
X1067876Y-33278475D01*
X1066671Y-33279865D01*
X1065000Y-33287548D01*
X1065000Y-34409884D01*
X557000Y-34409884D01*
X557000Y-33292115D01*
X552525Y-33276876D01*
X551135Y-33275671D01*
X543452Y-33274000D01*
X-253884Y-33274000D01*
X-269123Y-33278475D01*
X-270328Y-33279865D01*
X-271999Y-33287548D01*
X-271999Y-33717095D01*
X-3302000Y-33717095D01*
X-3302000Y-31499669D01*
X-2287999Y-31499669D01*
X-2287629Y-31506490D01*
X-2282105Y-31557352D01*
X-2278479Y-31572604D01*
X-2233324Y-31693054D01*
X-2224786Y-31708649D01*
X-2148285Y-31810724D01*
X-2135724Y-31823285D01*
X-2033649Y-31899786D01*
X-2018054Y-31908324D01*
X-1897606Y-31953478D01*
X-1882351Y-31957105D01*
X-1831486Y-31962631D01*
X-1824672Y-31963000D01*
X-1302115Y-31963000D01*
X-1286876Y-31958525D01*
X-1285671Y-31957135D01*
X-1284000Y-31949452D01*
X-1284000Y-30727115D01*
X-1288475Y-30711876D01*
X-1289865Y-30710671D01*
X-1297548Y-30709000D01*
X-2269884Y-30709000D01*
X-2285123Y-30713475D01*
X-2286328Y-30714865D01*
X-2287999Y-30722548D01*
X-2287999Y-31499669D01*
X-3302000Y-31499669D01*
X-3302000Y-29410324D01*
X-3281998Y-29342203D01*
X-3228342Y-29295710D01*
X-3158068Y-29285606D01*
X-3124751Y-29295217D01*
X-3076288Y-29316794D01*
X-2982887Y-29336647D01*
X-2895944Y-29355128D01*
X-2895939Y-29355128D01*
X-2889487Y-29356500D01*
X-2698513Y-29356500D01*
X-2692061Y-29355128D01*
X-2692056Y-29355128D01*
X-2605113Y-29336647D01*
X-2511712Y-29316794D01*
X-2505685Y-29314111D01*
X-2505677Y-29314108D01*
X-2465250Y-29296108D01*
X-2394883Y-29286673D01*
X-2330585Y-29316779D01*
X-2292772Y-29376867D01*
X-2288000Y-29411214D01*
X-2288000Y-30182885D01*
X-2283525Y-30198124D01*
X-2282135Y-30199329D01*
X-2274452Y-30201000D01*
X-902000Y-30201000D01*
X-833879Y-30221002D01*
X-787386Y-30274658D01*
X-776000Y-30327000D01*
X-776000Y-31944884D01*
X-771525Y-31960123D01*
X-770135Y-31961328D01*
X-762452Y-31962999D01*
X-352181Y-31962999D01*
X-284060Y-31983001D01*
X-237567Y-32036657D01*
X-227463Y-32106931D01*
X-232588Y-32128667D01*
X-259138Y-32208710D01*
X-262005Y-32222086D01*
X-271672Y-32316438D01*
X-272000Y-32322855D01*
X-272000Y-32747885D01*
X-267525Y-32763124D01*
X-266135Y-32764329D01*
X-258452Y-32766000D01*
X1875884Y-32766000D01*
X1891123Y-32761525D01*
X1892328Y-32760135D01*
X1893999Y-32752452D01*
X1893999Y-32322905D01*
X1893662Y-32316386D01*
X1883743Y-32220794D01*
X1880850Y-32207397D01*
X1854821Y-32129375D01*
X1852237Y-32058426D01*
X1888421Y-31997342D01*
X1951886Y-31965518D01*
X1974345Y-31963500D01*
X2068134Y-31963500D01*
X2130316Y-31956745D01*
X2266705Y-31905615D01*
X2344437Y-31847358D01*
X2410941Y-31822511D01*
X2480323Y-31837564D01*
X2495558Y-31847354D01*
X2511068Y-31858978D01*
X2553581Y-31915837D01*
X2561500Y-31959802D01*
X2561500Y-32767157D01*
X2560763Y-32780764D01*
X2558853Y-32798352D01*
X2556676Y-32818388D01*
X2557213Y-32824523D01*
X2561050Y-32868388D01*
X2561379Y-32873214D01*
X2561500Y-32875686D01*
X2561500Y-32878769D01*
X2561801Y-32881837D01*
X2565690Y-32921506D01*
X2565812Y-32922819D01*
X2569423Y-32964092D01*
X2573913Y-33015413D01*
X2575400Y-33020532D01*
X2575920Y-33025833D01*
X2602791Y-33114834D01*
X2603126Y-33115967D01*
X2603526Y-33117342D01*
X2629091Y-33205336D01*
X2631544Y-33210068D01*
X2633084Y-33215169D01*
X2635978Y-33220612D01*
X2662752Y-33270968D01*
X2677500Y-33330120D01*
X2677500Y-33720400D01*
X2677837Y-33723646D01*
X2677837Y-33723650D01*
X2687752Y-33819206D01*
X2688474Y-33826166D01*
X2690655Y-33832702D01*
X2690655Y-33832704D01*
X2715617Y-33907524D01*
X2718201Y-33978474D01*
X2682017Y-34039557D01*
X2618553Y-34071382D01*
X2583252Y-34072744D01*
X2549906Y-34069328D01*
X2544874Y-34069071D01*
X2529876Y-34073475D01*
X2528671Y-34074865D01*
X2527000Y-34082548D01*
X2527000Y-36016885D01*
X2531475Y-36032124D01*
X2532865Y-36033329D01*
X2540548Y-36035000D01*
X2543438Y-36035000D01*
X2549953Y-36034663D01*
X2642057Y-36025106D01*
X2655456Y-36022212D01*
X2804107Y-35972619D01*
X2817286Y-35966445D01*
X2950173Y-35884212D01*
X2967311Y-35870629D01*
X2968841Y-35872559D01*
X3020880Y-35844097D01*
X3091699Y-35849113D01*
X3128617Y-35872799D01*
X3129372Y-35871843D01*
X3135118Y-35876381D01*
X3140298Y-35881552D01*
X3146528Y-35885392D01*
X3146529Y-35885393D01*
X3278020Y-35966445D01*
X3285899Y-35971302D01*
X3448243Y-36025149D01*
X3455080Y-36025849D01*
X3455082Y-36025850D01*
X3496401Y-36030083D01*
X3549268Y-36035500D01*
X4096732Y-36035500D01*
X4099978Y-36035163D01*
X4099982Y-36035163D01*
X4134083Y-36031625D01*
X4199019Y-36024887D01*
X4352726Y-35973606D01*
X4354324Y-35973073D01*
X4354326Y-35973072D01*
X4361268Y-35970756D01*
X4383936Y-35956729D01*
X4500485Y-35884606D01*
X4506713Y-35880752D01*
X4539925Y-35847482D01*
X4602207Y-35813403D01*
X4629098Y-35810500D01*
X12420500Y-35810500D01*
X12488621Y-35830502D01*
X12535114Y-35884158D01*
X12546500Y-35936500D01*
X12546500Y-36995447D01*
X12526498Y-37063568D01*
X12472842Y-37110061D01*
X12444020Y-37118038D01*
X12444191Y-37118789D01*
X12437316Y-37120351D01*
X12430318Y-37121136D01*
X12423665Y-37123453D01*
X12423664Y-37123453D01*
X12356228Y-37146937D01*
X12264319Y-37178943D01*
X12115251Y-37272091D01*
X12110253Y-37277054D01*
X12110252Y-37277055D01*
X12100935Y-37286307D01*
X11990525Y-37395949D01*
X11986751Y-37401895D01*
X11986750Y-37401897D01*
X11973661Y-37422522D01*
X11896339Y-37544363D01*
X11837374Y-37709955D01*
X11816561Y-37884496D01*
X11834935Y-38059310D01*
X11837204Y-38065976D01*
X11837205Y-38065979D01*
X11881894Y-38197250D01*
X11891582Y-38225709D01*
X11895272Y-38231707D01*
X11895273Y-38231709D01*
X11979994Y-38369421D01*
X11979997Y-38369424D01*
X11983687Y-38375423D01*
X12106671Y-38501011D01*
X12112599Y-38504831D01*
X12118051Y-38509278D01*
X12116448Y-38511243D01*
X12155203Y-38556073D01*
X12165227Y-38626358D01*
X12135660Y-38690905D01*
X12116096Y-38709109D01*
X12105566Y-38717001D01*
X12039060Y-38741850D01*
X11969677Y-38726798D01*
X11954435Y-38717002D01*
X11858648Y-38645214D01*
X11843054Y-38636676D01*
X11722606Y-38591522D01*
X11707351Y-38587895D01*
X11656486Y-38582369D01*
X11649672Y-38582000D01*
X10927115Y-38582000D01*
X10911876Y-38586475D01*
X10910671Y-38587865D01*
X10909000Y-38595548D01*
X10909000Y-39767885D01*
X10913475Y-39783124D01*
X10914865Y-39784329D01*
X10922548Y-39786000D01*
X15532885Y-39786000D01*
X15548124Y-39781525D01*
X15549329Y-39780135D01*
X15551000Y-39772452D01*
X15551000Y-38668000D01*
X15571002Y-38599879D01*
X15624658Y-38553386D01*
X15677000Y-38542000D01*
X15686885Y-38542000D01*
X15702124Y-38537525D01*
X15703329Y-38536135D01*
X15705495Y-38526177D01*
X15739520Y-38463865D01*
X15753050Y-38452134D01*
X15773589Y-38436741D01*
X15818261Y-38403261D01*
X15823642Y-38396081D01*
X15824690Y-38395033D01*
X15887002Y-38361007D01*
X15957817Y-38366072D01*
X16003807Y-38395969D01*
X16043734Y-38436741D01*
X16077104Y-38499407D01*
X16071297Y-38570166D01*
X16062719Y-38584452D01*
X16059000Y-38601548D01*
X16059000Y-39767885D01*
X16063475Y-39783124D01*
X16064865Y-39784329D01*
X16072548Y-39786000D01*
X18282885Y-39786000D01*
X18298124Y-39781525D01*
X18299329Y-39780135D01*
X18301000Y-39772452D01*
X18301000Y-39767885D01*
X18809000Y-39767885D01*
X18813475Y-39783124D01*
X18814865Y-39784329D01*
X18822548Y-39786000D01*
X19994884Y-39786000D01*
X20010123Y-39781525D01*
X20011328Y-39780135D01*
X20012999Y-39772452D01*
X20012999Y-39624000D01*
X32360496Y-39624000D01*
X32361186Y-39630565D01*
X32377523Y-39786000D01*
X32380458Y-39813928D01*
X32439473Y-39995556D01*
X32442776Y-40001278D01*
X32442777Y-40001279D01*
X32448569Y-40011311D01*
X32534960Y-40160944D01*
X32539378Y-40165851D01*
X32539379Y-40165852D01*
X32658325Y-40297955D01*
X32662747Y-40302866D01*
X32817248Y-40415118D01*
X32823276Y-40417802D01*
X32823278Y-40417803D01*
X32985681Y-40490109D01*
X32991712Y-40492794D01*
X33085112Y-40512647D01*
X33172056Y-40531128D01*
X33172061Y-40531128D01*
X33178513Y-40532500D01*
X33369487Y-40532500D01*
X33375939Y-40531128D01*
X33375944Y-40531128D01*
X33462888Y-40512647D01*
X33556288Y-40492794D01*
X33562319Y-40490109D01*
X33724722Y-40417803D01*
X33724724Y-40417802D01*
X33730752Y-40415118D01*
X33885253Y-40302866D01*
X33889675Y-40297955D01*
X34008621Y-40165852D01*
X34008622Y-40165851D01*
X34013040Y-40160944D01*
X34026458Y-40137703D01*
X42975743Y-40137703D01*
X43013268Y-40422734D01*
X43089129Y-40700036D01*
X43090813Y-40703984D01*
X43138059Y-40814749D01*
X43201923Y-40964476D01*
X43349561Y-41211161D01*
X43529313Y-41435528D01*
X43737851Y-41633423D01*
X43971317Y-41801186D01*
X43975112Y-41803195D01*
X43975113Y-41803196D01*
X43996869Y-41814715D01*
X44225392Y-41935712D01*
X44495373Y-42034511D01*
X44776264Y-42095755D01*
X44804841Y-42098004D01*
X44999282Y-42113307D01*
X44999291Y-42113307D01*
X45001739Y-42113500D01*
X45157271Y-42113500D01*
X45159407Y-42113354D01*
X45159418Y-42113354D01*
X45367548Y-42099165D01*
X45367554Y-42099164D01*
X45371825Y-42098873D01*
X45376020Y-42098004D01*
X45376022Y-42098004D01*
X45512584Y-42069723D01*
X45653342Y-42040574D01*
X45924343Y-41944607D01*
X46179812Y-41812750D01*
X46183313Y-41810289D01*
X46183317Y-41810287D01*
X46297417Y-41730096D01*
X46415023Y-41647441D01*
X46502117Y-41566508D01*
X46622479Y-41454661D01*
X46622481Y-41454658D01*
X46625622Y-41451740D01*
X46807713Y-41229268D01*
X46957927Y-40984142D01*
X47073483Y-40720898D01*
X47086885Y-40673852D01*
X47127150Y-40532500D01*
X47152244Y-40444406D01*
X47182515Y-40231704D01*
X47192146Y-40164036D01*
X47192146Y-40164034D01*
X47192751Y-40159784D01*
X47192845Y-40141951D01*
X47194235Y-39876583D01*
X47194235Y-39876576D01*
X47194257Y-39872297D01*
X47156732Y-39587266D01*
X47080871Y-39309964D01*
X47059017Y-39258729D01*
X46969763Y-39049476D01*
X46969761Y-39049472D01*
X46968077Y-39045524D01*
X46843136Y-38836763D01*
X46822643Y-38802521D01*
X46822640Y-38802517D01*
X46820439Y-38798839D01*
X46640687Y-38574472D01*
X46495549Y-38436741D01*
X46435258Y-38379527D01*
X46435255Y-38379525D01*
X46432149Y-38376577D01*
X46198683Y-38208814D01*
X46176843Y-38197250D01*
X46153654Y-38184972D01*
X45944608Y-38074288D01*
X45674627Y-37975489D01*
X45393736Y-37914245D01*
X45362685Y-37911801D01*
X45170718Y-37896693D01*
X45170709Y-37896693D01*
X45168261Y-37896500D01*
X45012729Y-37896500D01*
X45010593Y-37896646D01*
X45010582Y-37896646D01*
X44802452Y-37910835D01*
X44802446Y-37910836D01*
X44798175Y-37911127D01*
X44793980Y-37911996D01*
X44793978Y-37911996D01*
X44657417Y-37940276D01*
X44516658Y-37969426D01*
X44245657Y-38065393D01*
X43990188Y-38197250D01*
X43986687Y-38199711D01*
X43986683Y-38199713D01*
X43935569Y-38235637D01*
X43754977Y-38362559D01*
X43711177Y-38403261D01*
X43557578Y-38545994D01*
X43544378Y-38558260D01*
X43362287Y-38780732D01*
X43212073Y-39025858D01*
X43096517Y-39289102D01*
X43095342Y-39293229D01*
X43095341Y-39293230D01*
X43057136Y-39427348D01*
X43017756Y-39565594D01*
X42977249Y-39850216D01*
X42977227Y-39854505D01*
X42977226Y-39854512D01*
X42975765Y-40133417D01*
X42975743Y-40137703D01*
X34026458Y-40137703D01*
X34099431Y-40011311D01*
X34105223Y-40001279D01*
X34105224Y-40001278D01*
X34108527Y-39995556D01*
X34167542Y-39813928D01*
X34170478Y-39786000D01*
X34186814Y-39630565D01*
X34187504Y-39624000D01*
X34181365Y-39565594D01*
X34168232Y-39440635D01*
X34168232Y-39440633D01*
X34167542Y-39434072D01*
X34108527Y-39252444D01*
X34013040Y-39087056D01*
X33975645Y-39045524D01*
X33889675Y-38950045D01*
X33889674Y-38950044D01*
X33885253Y-38945134D01*
X33730752Y-38832882D01*
X33724724Y-38830198D01*
X33724722Y-38830197D01*
X33562319Y-38757891D01*
X33562318Y-38757891D01*
X33556288Y-38755206D01*
X33457821Y-38734276D01*
X33375944Y-38716872D01*
X33375939Y-38716872D01*
X33369487Y-38715500D01*
X33178513Y-38715500D01*
X33172061Y-38716872D01*
X33172056Y-38716872D01*
X33090179Y-38734276D01*
X32991712Y-38755206D01*
X32985682Y-38757891D01*
X32985681Y-38757891D01*
X32823278Y-38830197D01*
X32823276Y-38830198D01*
X32817248Y-38832882D01*
X32662747Y-38945134D01*
X32658326Y-38950044D01*
X32658325Y-38950045D01*
X32572356Y-39045524D01*
X32534960Y-39087056D01*
X32439473Y-39252444D01*
X32380458Y-39434072D01*
X32379768Y-39440633D01*
X32379768Y-39440635D01*
X32366635Y-39565594D01*
X32360496Y-39624000D01*
X20012999Y-39624000D01*
X20012999Y-39045331D01*
X20012629Y-39038510D01*
X20007105Y-38987648D01*
X20003479Y-38972396D01*
X19958324Y-38851946D01*
X19949786Y-38836351D01*
X19873285Y-38734276D01*
X19860724Y-38721715D01*
X19758649Y-38645214D01*
X19743054Y-38636676D01*
X19622606Y-38591522D01*
X19607351Y-38587895D01*
X19556486Y-38582369D01*
X19549672Y-38582000D01*
X18827115Y-38582000D01*
X18811876Y-38586475D01*
X18810671Y-38587865D01*
X18809000Y-38595548D01*
X18809000Y-39767885D01*
X18301000Y-39767885D01*
X18301000Y-38600116D01*
X18296525Y-38584877D01*
X18295135Y-38583672D01*
X18287452Y-38582001D01*
X17560331Y-38582001D01*
X17553510Y-38582371D01*
X17502648Y-38587895D01*
X17487396Y-38591521D01*
X17366946Y-38636676D01*
X17351352Y-38645214D01*
X17255565Y-38717002D01*
X17189059Y-38741850D01*
X17119676Y-38726797D01*
X17104433Y-38717000D01*
X17094018Y-38709194D01*
X17051504Y-38652334D01*
X17046480Y-38581515D01*
X17080541Y-38519223D01*
X17089713Y-38511056D01*
X17094749Y-38507909D01*
X17101696Y-38501011D01*
X17214478Y-38389013D01*
X17219475Y-38384051D01*
X17224951Y-38375423D01*
X17309882Y-38241591D01*
X17313661Y-38235637D01*
X17372626Y-38070045D01*
X17393439Y-37895504D01*
X17375065Y-37720690D01*
X17372795Y-37714021D01*
X17320687Y-37560955D01*
X17320686Y-37560952D01*
X17318418Y-37554291D01*
X17237351Y-37422519D01*
X17218694Y-37354021D01*
X17240033Y-37286307D01*
X17294593Y-37240879D01*
X17344670Y-37230500D01*
X17367487Y-37230500D01*
X17373939Y-37229128D01*
X17373944Y-37229128D01*
X17460887Y-37210647D01*
X17554288Y-37190794D01*
X17560319Y-37188109D01*
X17722722Y-37115803D01*
X17722724Y-37115802D01*
X17728752Y-37113118D01*
X17883253Y-37000866D01*
X18011040Y-36858944D01*
X18106527Y-36693556D01*
X18165542Y-36511928D01*
X18185504Y-36322000D01*
X18172026Y-36193760D01*
X18166232Y-36138635D01*
X18166232Y-36138633D01*
X18165542Y-36132072D01*
X18106527Y-35950444D01*
X18098477Y-35936500D01*
X18014341Y-35790774D01*
X18011040Y-35785056D01*
X17993499Y-35765574D01*
X17887675Y-35648045D01*
X17887674Y-35648044D01*
X17883253Y-35643134D01*
X17728752Y-35530882D01*
X17722724Y-35528198D01*
X17722722Y-35528197D01*
X17560319Y-35455891D01*
X17560318Y-35455891D01*
X17554288Y-35453206D01*
X17460888Y-35433353D01*
X17373944Y-35414872D01*
X17373939Y-35414872D01*
X17367487Y-35413500D01*
X17176513Y-35413500D01*
X17170061Y-35414872D01*
X17170056Y-35414872D01*
X17083112Y-35433353D01*
X16989712Y-35453206D01*
X16983682Y-35455891D01*
X16983681Y-35455891D01*
X16821278Y-35528197D01*
X16821276Y-35528198D01*
X16815248Y-35530882D01*
X16660747Y-35643134D01*
X16656326Y-35648044D01*
X16656325Y-35648045D01*
X16550502Y-35765574D01*
X16532960Y-35785056D01*
X16529659Y-35790774D01*
X16445524Y-35936500D01*
X16437473Y-35950444D01*
X16410022Y-36034929D01*
X16385025Y-36111861D01*
X16344951Y-36170466D01*
X16279554Y-36198103D01*
X16230591Y-36192086D01*
X16230291Y-36193349D01*
X16207351Y-36187895D01*
X16156486Y-36182369D01*
X16149672Y-36182000D01*
X16123115Y-36182000D01*
X16107876Y-36186475D01*
X16106671Y-36187865D01*
X16105000Y-36195548D01*
X16105000Y-36331116D01*
X16084998Y-36399237D01*
X16031342Y-36445730D01*
X15961068Y-36455834D01*
X15896488Y-36426340D01*
X15878174Y-36406681D01*
X15823642Y-36333919D01*
X15818261Y-36326739D01*
X15754240Y-36278758D01*
X15711725Y-36221899D01*
X15708909Y-36213430D01*
X15700525Y-36184877D01*
X15699135Y-36183672D01*
X15691452Y-36182001D01*
X15660331Y-36182001D01*
X15653510Y-36182371D01*
X15594793Y-36188748D01*
X15594495Y-36186002D01*
X15565554Y-36186060D01*
X15565316Y-36188255D01*
X15506531Y-36181869D01*
X15503134Y-36181500D01*
X15006866Y-36181500D01*
X15003469Y-36181869D01*
X14967044Y-36185826D01*
X14944684Y-36188255D01*
X14944420Y-36185826D01*
X14915580Y-36185826D01*
X14915316Y-36188255D01*
X14856531Y-36181869D01*
X14853134Y-36181500D01*
X14356866Y-36181500D01*
X14353469Y-36181869D01*
X14317044Y-36185826D01*
X14294684Y-36188255D01*
X14294420Y-36185826D01*
X14265580Y-36185826D01*
X14265316Y-36188255D01*
X14206531Y-36181869D01*
X14203134Y-36181500D01*
X14189500Y-36181500D01*
X14121379Y-36161498D01*
X14074886Y-36107842D01*
X14063500Y-36055500D01*
X14063500Y-35216070D01*
X14064933Y-35197120D01*
X14067099Y-35182885D01*
X14067099Y-35182881D01*
X14068199Y-35175651D01*
X14067220Y-35163606D01*
X14063915Y-35122982D01*
X14063500Y-35112767D01*
X14063500Y-35104707D01*
X14060209Y-35076480D01*
X14059778Y-35072121D01*
X14058288Y-35053800D01*
X14053860Y-34999364D01*
X14051605Y-34992403D01*
X14050418Y-34986463D01*
X14049029Y-34980588D01*
X14048182Y-34973319D01*
X14023264Y-34904670D01*
X14021847Y-34900542D01*
X14001607Y-34838064D01*
X14001606Y-34838062D01*
X13999351Y-34831101D01*
X13995555Y-34824846D01*
X13993049Y-34819372D01*
X13990330Y-34813942D01*
X13987833Y-34807063D01*
X13981891Y-34798000D01*
X13947814Y-34746024D01*
X13945467Y-34742305D01*
X13907595Y-34679893D01*
X13900197Y-34671516D01*
X13900224Y-34671492D01*
X13897571Y-34668500D01*
X13894868Y-34665267D01*
X13890856Y-34659148D01*
X13834617Y-34605872D01*
X13832175Y-34603494D01*
X13791770Y-34563089D01*
X13779384Y-34548677D01*
X13770851Y-34537082D01*
X13770846Y-34537077D01*
X13766508Y-34531182D01*
X13760930Y-34526443D01*
X13760927Y-34526440D01*
X13726232Y-34496965D01*
X13718716Y-34490035D01*
X13713021Y-34484340D01*
X13706880Y-34479482D01*
X13690749Y-34466719D01*
X13687345Y-34463928D01*
X13637297Y-34421409D01*
X13637295Y-34421408D01*
X13631715Y-34416667D01*
X13625199Y-34413339D01*
X13620150Y-34409972D01*
X13615021Y-34406805D01*
X13609284Y-34402266D01*
X13543125Y-34371345D01*
X13539225Y-34369439D01*
X13516463Y-34357816D01*
X13474192Y-34336231D01*
X13467084Y-34334492D01*
X13461441Y-34332393D01*
X13455678Y-34330476D01*
X13449050Y-34327378D01*
X13377583Y-34312513D01*
X13373299Y-34311543D01*
X13302390Y-34294192D01*
X13296788Y-34293844D01*
X13296785Y-34293844D01*
X13291236Y-34293500D01*
X13291238Y-34293464D01*
X13287245Y-34293225D01*
X13283053Y-34292851D01*
X13275885Y-34291360D01*
X13209675Y-34293151D01*
X13198479Y-34293454D01*
X13195072Y-34293500D01*
X4818404Y-34293500D01*
X4750283Y-34273498D01*
X4703790Y-34219842D01*
X4693686Y-34149568D01*
X4711144Y-34101384D01*
X4774275Y-33998968D01*
X4774276Y-33998966D01*
X4778115Y-33992738D01*
X4833797Y-33824861D01*
X4844500Y-33720400D01*
X4844500Y-32319600D01*
X4840647Y-32282464D01*
X4834238Y-32220692D01*
X4834237Y-32220688D01*
X4833526Y-32213834D01*
X4827255Y-32195036D01*
X4779868Y-32053002D01*
X4777550Y-32046054D01*
X4702925Y-31925462D01*
X4684087Y-31857010D01*
X4709243Y-31783594D01*
X4765229Y-31708892D01*
X4765230Y-31708890D01*
X4770615Y-31701705D01*
X4821745Y-31565316D01*
X4828500Y-31503134D01*
X4828500Y-29915489D01*
X12351007Y-29915489D01*
X12351697Y-29922054D01*
X12352402Y-29928757D01*
X12370969Y-30105417D01*
X12429984Y-30287045D01*
X12525471Y-30452433D01*
X12529889Y-30457340D01*
X12529890Y-30457341D01*
X12645172Y-30585375D01*
X12653258Y-30594355D01*
X12807759Y-30706607D01*
X12813787Y-30709291D01*
X12813789Y-30709292D01*
X12976192Y-30781598D01*
X12982223Y-30784283D01*
X13075623Y-30804136D01*
X13162567Y-30822617D01*
X13162572Y-30822617D01*
X13169024Y-30823989D01*
X13359998Y-30823989D01*
X13366450Y-30822617D01*
X13366455Y-30822617D01*
X13453399Y-30804136D01*
X13546799Y-30784283D01*
X13552830Y-30781598D01*
X13715233Y-30709292D01*
X13715235Y-30709291D01*
X13721263Y-30706607D01*
X13870674Y-30598053D01*
X13937542Y-30574195D01*
X13944735Y-30573989D01*
X15660500Y-30573989D01*
X15728621Y-30593991D01*
X15775114Y-30647647D01*
X15786500Y-30699989D01*
X15786500Y-32028134D01*
X15793255Y-32090316D01*
X15844385Y-32226705D01*
X15931739Y-32343261D01*
X16048295Y-32430615D01*
X16184684Y-32481745D01*
X16246866Y-32488500D01*
X18043134Y-32488500D01*
X18105316Y-32481745D01*
X18241705Y-32430615D01*
X18358261Y-32343261D01*
X18445615Y-32226705D01*
X18496745Y-32090316D01*
X18503500Y-32028134D01*
X18503500Y-30699989D01*
X18523502Y-30631868D01*
X18577158Y-30585375D01*
X18629500Y-30573989D01*
X22069490Y-30573989D01*
X22137611Y-30593991D01*
X22184104Y-30647647D01*
X22194208Y-30717921D01*
X22190907Y-30733661D01*
X22155989Y-30859570D01*
X22132251Y-31081695D01*
X22145110Y-31304715D01*
X22146247Y-31309761D01*
X22146248Y-31309767D01*
X22170304Y-31416508D01*
X22194222Y-31522639D01*
X22238914Y-31632703D01*
X22266933Y-31701705D01*
X22278266Y-31729616D01*
X22280965Y-31734020D01*
X22388050Y-31908767D01*
X22394987Y-31920088D01*
X22541250Y-32088938D01*
X22661918Y-32189118D01*
X22700072Y-32220794D01*
X22713126Y-32231632D01*
X22906000Y-32344338D01*
X23114692Y-32424030D01*
X23119760Y-32425061D01*
X23119763Y-32425062D01*
X23210458Y-32443514D01*
X23333597Y-32468567D01*
X23338772Y-32468757D01*
X23338774Y-32468757D01*
X23551673Y-32476564D01*
X23551677Y-32476564D01*
X23556837Y-32476753D01*
X23561957Y-32476097D01*
X23561959Y-32476097D01*
X23634961Y-32466745D01*
X23778416Y-32448368D01*
X23797631Y-32442603D01*
X23868623Y-32442185D01*
X23922933Y-32474193D01*
X24170856Y-32722116D01*
X24178846Y-32730896D01*
X24183095Y-32737591D01*
X24188873Y-32743017D01*
X24188874Y-32743018D01*
X24234768Y-32786115D01*
X24237610Y-32788870D01*
X24258178Y-32809438D01*
X24261681Y-32812155D01*
X24270706Y-32819863D01*
X24304378Y-32851483D01*
X24311329Y-32855304D01*
X24311330Y-32855305D01*
X24323169Y-32861814D01*
X24339693Y-32872668D01*
X24349782Y-32880493D01*
X24356643Y-32885815D01*
X24363915Y-32888962D01*
X24363917Y-32888963D01*
X24399046Y-32904165D01*
X24409706Y-32909387D01*
X24439679Y-32925865D01*
X24450174Y-32931635D01*
X24470952Y-32936970D01*
X24489642Y-32943369D01*
X24509335Y-32951891D01*
X24544074Y-32957393D01*
X24554959Y-32959117D01*
X24566582Y-32961524D01*
X24591265Y-32967861D01*
X24611323Y-32973011D01*
X24632770Y-32973011D01*
X24652480Y-32974562D01*
X24673663Y-32977917D01*
X24719652Y-32973570D01*
X24731507Y-32973011D01*
X26449799Y-32973011D01*
X26461655Y-32973570D01*
X26461658Y-32973570D01*
X26469392Y-32975299D01*
X26540224Y-32973073D01*
X26544182Y-32973011D01*
X26573287Y-32973011D01*
X26577687Y-32972455D01*
X26589519Y-32971523D01*
X26635686Y-32970073D01*
X26656276Y-32964091D01*
X26675637Y-32960081D01*
X26683271Y-32959117D01*
X26689059Y-32958386D01*
X26689060Y-32958386D01*
X26696919Y-32957393D01*
X26704284Y-32954477D01*
X26704288Y-32954476D01*
X26739876Y-32940385D01*
X26751086Y-32936546D01*
X26795455Y-32923656D01*
X26813920Y-32912736D01*
X26831660Y-32904045D01*
X26851611Y-32896146D01*
X26888984Y-32868993D01*
X26898903Y-32862478D01*
X26931832Y-32843004D01*
X26931836Y-32843001D01*
X26938662Y-32838964D01*
X26953826Y-32823800D01*
X26968860Y-32810959D01*
X26986212Y-32798352D01*
X27015658Y-32762758D01*
X27023647Y-32753979D01*
X27577239Y-32200387D01*
X27639551Y-32166361D01*
X27710366Y-32171426D01*
X27746819Y-32192538D01*
X27789435Y-32227919D01*
X27797874Y-32233827D01*
X27981756Y-32341279D01*
X27991042Y-32345729D01*
X28190001Y-32421703D01*
X28199899Y-32424579D01*
X28303250Y-32445606D01*
X28317299Y-32444410D01*
X28321000Y-32434065D01*
X28321000Y-30987000D01*
X28341002Y-30918879D01*
X28394658Y-30872386D01*
X28447000Y-30861000D01*
X28703000Y-30861000D01*
X28771121Y-30881002D01*
X28817614Y-30934658D01*
X28829000Y-30987000D01*
X28829000Y-32433517D01*
X28833064Y-32447359D01*
X28846478Y-32449393D01*
X28853184Y-32448534D01*
X28863262Y-32446392D01*
X29067255Y-32385191D01*
X29076842Y-32381433D01*
X29268095Y-32287739D01*
X29276945Y-32282464D01*
X29450328Y-32158792D01*
X29458193Y-32152145D01*
X29562897Y-32047805D01*
X29625268Y-32013889D01*
X29696075Y-32019077D01*
X29752837Y-32061723D01*
X29769819Y-32092826D01*
X29806076Y-32189542D01*
X29814385Y-32211705D01*
X29901739Y-32328261D01*
X30018295Y-32415615D01*
X30154684Y-32466745D01*
X30216866Y-32473500D01*
X31490050Y-32473500D01*
X31558171Y-32493502D01*
X31579145Y-32510405D01*
X34020856Y-34952116D01*
X34028846Y-34960896D01*
X34033095Y-34967591D01*
X34038873Y-34973017D01*
X34038874Y-34973018D01*
X34084768Y-35016115D01*
X34087610Y-35018870D01*
X34108178Y-35039438D01*
X34111681Y-35042155D01*
X34120706Y-35049863D01*
X34154378Y-35081483D01*
X34161329Y-35085304D01*
X34161330Y-35085305D01*
X34173169Y-35091814D01*
X34189693Y-35102668D01*
X34197046Y-35108371D01*
X34206643Y-35115815D01*
X34213915Y-35118962D01*
X34213917Y-35118963D01*
X34249046Y-35134165D01*
X34259706Y-35139387D01*
X34289679Y-35155865D01*
X34300174Y-35161635D01*
X34320952Y-35166970D01*
X34339642Y-35173369D01*
X34359335Y-35181891D01*
X34394074Y-35187393D01*
X34404959Y-35189117D01*
X34416582Y-35191524D01*
X34441265Y-35197861D01*
X34461323Y-35203011D01*
X34482770Y-35203011D01*
X34502480Y-35204562D01*
X34523663Y-35207917D01*
X34569652Y-35203570D01*
X34581507Y-35203011D01*
X44438433Y-35203011D01*
X44450289Y-35203570D01*
X44450292Y-35203570D01*
X44458026Y-35205299D01*
X44528858Y-35203073D01*
X44532816Y-35203011D01*
X44561921Y-35203011D01*
X44566321Y-35202455D01*
X44578153Y-35201523D01*
X44624320Y-35200073D01*
X44644910Y-35194091D01*
X44664271Y-35190081D01*
X44671905Y-35189117D01*
X44677693Y-35188386D01*
X44677694Y-35188386D01*
X44685553Y-35187393D01*
X44692918Y-35184477D01*
X44692922Y-35184476D01*
X44728510Y-35170385D01*
X44739720Y-35166546D01*
X44784089Y-35153656D01*
X44802554Y-35142736D01*
X44820294Y-35134045D01*
X44840245Y-35126146D01*
X44877618Y-35098993D01*
X44887537Y-35092478D01*
X44920466Y-35073004D01*
X44920470Y-35073001D01*
X44927296Y-35068964D01*
X44942460Y-35053800D01*
X44957494Y-35040959D01*
X44974846Y-35028352D01*
X45004292Y-34992758D01*
X45012281Y-34983979D01*
X45293928Y-34702332D01*
X45356240Y-34668306D01*
X45408140Y-34667956D01*
X45558597Y-34698567D01*
X45563772Y-34698757D01*
X45563774Y-34698757D01*
X45776673Y-34706564D01*
X45776677Y-34706564D01*
X45781837Y-34706753D01*
X45786957Y-34706097D01*
X45786959Y-34706097D01*
X45998288Y-34679025D01*
X45998289Y-34679025D01*
X46003416Y-34678368D01*
X46026335Y-34671492D01*
X46212429Y-34615661D01*
X46212434Y-34615659D01*
X46217384Y-34614174D01*
X46417994Y-34515896D01*
X46599860Y-34386173D01*
X46758096Y-34228489D01*
X46764310Y-34219842D01*
X46885435Y-34051277D01*
X46888453Y-34047077D01*
X46907468Y-34008604D01*
X46985136Y-33851453D01*
X46985137Y-33851451D01*
X46987430Y-33846811D01*
X47052370Y-33633069D01*
X47081529Y-33411590D01*
X47083156Y-33345000D01*
X47064852Y-33122361D01*
X47010431Y-32905702D01*
X46921354Y-32700840D01*
X46800014Y-32513277D01*
X46649670Y-32348051D01*
X46645619Y-32344852D01*
X46645615Y-32344848D01*
X46478414Y-32212800D01*
X46478410Y-32212798D01*
X46474359Y-32209598D01*
X46438028Y-32189542D01*
X46396035Y-32166361D01*
X46278789Y-32101638D01*
X46273920Y-32099914D01*
X46273916Y-32099912D01*
X46073087Y-32028795D01*
X46073083Y-32028794D01*
X46068212Y-32027069D01*
X46063119Y-32026162D01*
X46063116Y-32026161D01*
X45853373Y-31988800D01*
X45853367Y-31988799D01*
X45848284Y-31987894D01*
X45774452Y-31986992D01*
X45630081Y-31985228D01*
X45630079Y-31985228D01*
X45624911Y-31985165D01*
X45404091Y-32018955D01*
X45191756Y-32088357D01*
X45156076Y-32106931D01*
X45069221Y-32152145D01*
X44993607Y-32191507D01*
X44989474Y-32194610D01*
X44989471Y-32194612D01*
X44821030Y-32321081D01*
X44814965Y-32325635D01*
X44811393Y-32329373D01*
X44664968Y-32482598D01*
X44660629Y-32487138D01*
X44553201Y-32644621D01*
X44498293Y-32689621D01*
X44427768Y-32697792D01*
X44364021Y-32666538D01*
X44343324Y-32642054D01*
X44262822Y-32517617D01*
X44262820Y-32517614D01*
X44260014Y-32513277D01*
X44109670Y-32348051D01*
X44105619Y-32344852D01*
X44105615Y-32344848D01*
X43938414Y-32212800D01*
X43938410Y-32212798D01*
X43934359Y-32209598D01*
X43898028Y-32189542D01*
X43856035Y-32166361D01*
X43738789Y-32101638D01*
X43733920Y-32099914D01*
X43733916Y-32099912D01*
X43533087Y-32028795D01*
X43533083Y-32028794D01*
X43528212Y-32027069D01*
X43523119Y-32026162D01*
X43523116Y-32026161D01*
X43313373Y-31988800D01*
X43313367Y-31988799D01*
X43308284Y-31987894D01*
X43234452Y-31986992D01*
X43090081Y-31985228D01*
X43090079Y-31985228D01*
X43084911Y-31985165D01*
X42864091Y-32018955D01*
X42651756Y-32088357D01*
X42616076Y-32106931D01*
X42529221Y-32152145D01*
X42453607Y-32191507D01*
X42449474Y-32194610D01*
X42449471Y-32194612D01*
X42281030Y-32321081D01*
X42274965Y-32325635D01*
X42271393Y-32329373D01*
X42124968Y-32482598D01*
X42120629Y-32487138D01*
X42013201Y-32644621D01*
X41958293Y-32689621D01*
X41887768Y-32697792D01*
X41824021Y-32666538D01*
X41803324Y-32642054D01*
X41722822Y-32517617D01*
X41722820Y-32517614D01*
X41720014Y-32513277D01*
X41569670Y-32348051D01*
X41565619Y-32344852D01*
X41565615Y-32344848D01*
X41398414Y-32212800D01*
X41398410Y-32212798D01*
X41394359Y-32209598D01*
X41358028Y-32189542D01*
X41316035Y-32166361D01*
X41198789Y-32101638D01*
X41193920Y-32099914D01*
X41193916Y-32099912D01*
X40993087Y-32028795D01*
X40993083Y-32028794D01*
X40988212Y-32027069D01*
X40983119Y-32026162D01*
X40983116Y-32026161D01*
X40773373Y-31988800D01*
X40773367Y-31988799D01*
X40768284Y-31987894D01*
X40694452Y-31986992D01*
X40550081Y-31985228D01*
X40550079Y-31985228D01*
X40544911Y-31985165D01*
X40324091Y-32018955D01*
X40111756Y-32088357D01*
X40076076Y-32106931D01*
X39989221Y-32152145D01*
X39913607Y-32191507D01*
X39909474Y-32194610D01*
X39909471Y-32194612D01*
X39741030Y-32321081D01*
X39734965Y-32325635D01*
X39731393Y-32329373D01*
X39584968Y-32482598D01*
X39580629Y-32487138D01*
X39473204Y-32644618D01*
X39472898Y-32645066D01*
X39417987Y-32690069D01*
X39347462Y-32698240D01*
X39283715Y-32666986D01*
X39263018Y-32642502D01*
X39182426Y-32517926D01*
X39176136Y-32509757D01*
X39032806Y-32352240D01*
X39025273Y-32345215D01*
X38858139Y-32213222D01*
X38849552Y-32207517D01*
X38663117Y-32104599D01*
X38653705Y-32100369D01*
X38452959Y-32029280D01*
X38442988Y-32026646D01*
X38371837Y-32013972D01*
X38358540Y-32015432D01*
X38354000Y-32029989D01*
X38354000Y-33473000D01*
X38333998Y-33541121D01*
X38280342Y-33587614D01*
X38228000Y-33599000D01*
X35432000Y-33599000D01*
X35363879Y-33578998D01*
X35317386Y-33525342D01*
X35306000Y-33473000D01*
X35306000Y-33072885D01*
X35814000Y-33072885D01*
X35818475Y-33088124D01*
X35819865Y-33089329D01*
X35827548Y-33091000D01*
X37827885Y-33091000D01*
X37843124Y-33086525D01*
X37844329Y-33085135D01*
X37846000Y-33077452D01*
X37846000Y-32028102D01*
X37842082Y-32014758D01*
X37827806Y-32012771D01*
X37789324Y-32018660D01*
X37779288Y-32021051D01*
X37576868Y-32087212D01*
X37567359Y-32091209D01*
X37378463Y-32189542D01*
X37369738Y-32195036D01*
X37199433Y-32322905D01*
X37191726Y-32329748D01*
X37114094Y-32410985D01*
X37052570Y-32446415D01*
X36981657Y-32442958D01*
X36923871Y-32401712D01*
X36905018Y-32368164D01*
X36863324Y-32256946D01*
X36854786Y-32241351D01*
X36778285Y-32139276D01*
X36765724Y-32126715D01*
X36663649Y-32050214D01*
X36648054Y-32041676D01*
X36527606Y-31996522D01*
X36512351Y-31992895D01*
X36461486Y-31987369D01*
X36454672Y-31987000D01*
X35832115Y-31987000D01*
X35816876Y-31991475D01*
X35815671Y-31992865D01*
X35814000Y-32000548D01*
X35814000Y-33072885D01*
X35306000Y-33072885D01*
X35306000Y-32005116D01*
X35301525Y-31989877D01*
X35300135Y-31988672D01*
X35292452Y-31987001D01*
X34665331Y-31987001D01*
X34658510Y-31987371D01*
X34607648Y-31992895D01*
X34592396Y-31996521D01*
X34471946Y-32041676D01*
X34456351Y-32050214D01*
X34354276Y-32126715D01*
X34341715Y-32139276D01*
X34265214Y-32241351D01*
X34256676Y-32256946D01*
X34211522Y-32377394D01*
X34207895Y-32392649D01*
X34202369Y-32443514D01*
X34202000Y-32450328D01*
X34202000Y-32966550D01*
X34181998Y-33034671D01*
X34128342Y-33081164D01*
X34058068Y-33091268D01*
X33993488Y-33061774D01*
X33986905Y-33055645D01*
X32510405Y-31579145D01*
X32476379Y-31516833D01*
X32473500Y-31490050D01*
X32473500Y-30699989D01*
X32493502Y-30631868D01*
X32547158Y-30585375D01*
X32599500Y-30573989D01*
X39852455Y-30573989D01*
X39864311Y-30574548D01*
X39864314Y-30574548D01*
X39872048Y-30576277D01*
X39942880Y-30574051D01*
X39946838Y-30573989D01*
X39975943Y-30573989D01*
X39980343Y-30573433D01*
X39992175Y-30572501D01*
X40038342Y-30571051D01*
X40058932Y-30565069D01*
X40078293Y-30561059D01*
X40085281Y-30560177D01*
X40091715Y-30559364D01*
X40091716Y-30559364D01*
X40099575Y-30558371D01*
X40106940Y-30555455D01*
X40106944Y-30555454D01*
X40142532Y-30541363D01*
X40153742Y-30537524D01*
X40198111Y-30524634D01*
X40216576Y-30513714D01*
X40234316Y-30505023D01*
X40254267Y-30497124D01*
X40291640Y-30469971D01*
X40301559Y-30463456D01*
X40334488Y-30443982D01*
X40334492Y-30443979D01*
X40341318Y-30439942D01*
X40356482Y-30424778D01*
X40371516Y-30411937D01*
X40382454Y-30403990D01*
X40388868Y-30399330D01*
X40418314Y-30363736D01*
X40426303Y-30354957D01*
X40848928Y-29932332D01*
X40911240Y-29898306D01*
X40963140Y-29897956D01*
X41113597Y-29928567D01*
X41118772Y-29928757D01*
X41118774Y-29928757D01*
X41331673Y-29936564D01*
X41331677Y-29936564D01*
X41336837Y-29936753D01*
X41341957Y-29936097D01*
X41341959Y-29936097D01*
X41553288Y-29909025D01*
X41553289Y-29909025D01*
X41558416Y-29908368D01*
X41563366Y-29906883D01*
X41767429Y-29845661D01*
X41767434Y-29845659D01*
X41772384Y-29844174D01*
X41972994Y-29745896D01*
X42154860Y-29616173D01*
X42172193Y-29598901D01*
X42309435Y-29462137D01*
X42313096Y-29458489D01*
X42338332Y-29423370D01*
X42440435Y-29281277D01*
X42443453Y-29277077D01*
X42446515Y-29270883D01*
X42540136Y-29081453D01*
X42540137Y-29081451D01*
X42542430Y-29076811D01*
X42577892Y-28960091D01*
X42605865Y-28868023D01*
X42605865Y-28868021D01*
X42607370Y-28863069D01*
X42636529Y-28641590D01*
X42636611Y-28638240D01*
X42638074Y-28578365D01*
X42638074Y-28578361D01*
X42638156Y-28575000D01*
X42619852Y-28352361D01*
X42565431Y-28135702D01*
X42476354Y-27930840D01*
X42423275Y-27848792D01*
X42357822Y-27747617D01*
X42357820Y-27747614D01*
X42355014Y-27743277D01*
X42204670Y-27578051D01*
X42200619Y-27574852D01*
X42200615Y-27574848D01*
X42033414Y-27442800D01*
X42033410Y-27442798D01*
X42029359Y-27439598D01*
X41988053Y-27416796D01*
X41938084Y-27366364D01*
X41923312Y-27296921D01*
X41948428Y-27230516D01*
X41975780Y-27203909D01*
X42019603Y-27172650D01*
X42154860Y-27076173D01*
X42160968Y-27070087D01*
X42268273Y-26963156D01*
X42313096Y-26918489D01*
X42327271Y-26898763D01*
X42440435Y-26741277D01*
X42443453Y-26737077D01*
X42450698Y-26722419D01*
X42540136Y-26541453D01*
X42540137Y-26541451D01*
X42542430Y-26536811D01*
X42597071Y-26356968D01*
X42605865Y-26328023D01*
X42605865Y-26328021D01*
X42607370Y-26323069D01*
X42636529Y-26101590D01*
X42636611Y-26098240D01*
X42638074Y-26038365D01*
X42638074Y-26038361D01*
X42638156Y-26035000D01*
X42619852Y-25812361D01*
X42565431Y-25595702D01*
X42476354Y-25390840D01*
X42401161Y-25274609D01*
X42357822Y-25207617D01*
X42357820Y-25207614D01*
X42355014Y-25203277D01*
X42204670Y-25038051D01*
X42200619Y-25034852D01*
X42200615Y-25034848D01*
X42033414Y-24902800D01*
X42033410Y-24902798D01*
X42029359Y-24899598D01*
X42017083Y-24892821D01*
X41987569Y-24876529D01*
X41937598Y-24826097D01*
X41922826Y-24756654D01*
X41947942Y-24690248D01*
X41975294Y-24663641D01*
X42150328Y-24538792D01*
X42158200Y-24532139D01*
X42309052Y-24381812D01*
X42315730Y-24373965D01*
X42440003Y-24201020D01*
X42445313Y-24192183D01*
X42539670Y-24001267D01*
X42543469Y-23991672D01*
X42605377Y-23787910D01*
X42607555Y-23777837D01*
X42608986Y-23766962D01*
X42606775Y-23752778D01*
X42593617Y-23749000D01*
X39958225Y-23749000D01*
X39944694Y-23752973D01*
X39943257Y-23762966D01*
X39973565Y-23897446D01*
X39976645Y-23907275D01*
X40056770Y-24104603D01*
X40061413Y-24113794D01*
X40172694Y-24295388D01*
X40178777Y-24303699D01*
X40318213Y-24464667D01*
X40325580Y-24471883D01*
X40489434Y-24607916D01*
X40497881Y-24613831D01*
X40566969Y-24654203D01*
X40615693Y-24705842D01*
X40628764Y-24775625D01*
X40602033Y-24841396D01*
X40561584Y-24874752D01*
X40548607Y-24881507D01*
X40544474Y-24884610D01*
X40544471Y-24884612D01*
X40374100Y-25012530D01*
X40369965Y-25015635D01*
X40334400Y-25052852D01*
X40239112Y-25152565D01*
X40215629Y-25177138D01*
X40212715Y-25181410D01*
X40212714Y-25181411D01*
X40180461Y-25228692D01*
X40089743Y-25361680D01*
X40066936Y-25410814D01*
X39998872Y-25557446D01*
X39995688Y-25564305D01*
X39935989Y-25779570D01*
X39912251Y-26001695D01*
X39912548Y-26006848D01*
X39912548Y-26006851D01*
X39918202Y-26104908D01*
X39925110Y-26224715D01*
X39926247Y-26229762D01*
X39926248Y-26229766D01*
X39936053Y-26273271D01*
X39951946Y-26343791D01*
X39951951Y-26343815D01*
X39947415Y-26414666D01*
X39918129Y-26460611D01*
X39619595Y-26759145D01*
X39601323Y-26774262D01*
X39593851Y-26779340D01*
X39588607Y-26785288D01*
X39588606Y-26785289D01*
X39555140Y-26823249D01*
X39549721Y-26829019D01*
X39537859Y-26840881D01*
X39527561Y-26854157D01*
X39522534Y-26860233D01*
X39483825Y-26904140D01*
X39480227Y-26911202D01*
X39479727Y-26912183D01*
X39467018Y-26932209D01*
X39461482Y-26939346D01*
X39438229Y-26993080D01*
X39434867Y-27000226D01*
X39408292Y-27052382D01*
X39406563Y-27060117D01*
X39406561Y-27060123D01*
X39406321Y-27061196D01*
X39398996Y-27083741D01*
X39398558Y-27084754D01*
X39395406Y-27092038D01*
X39394166Y-27099870D01*
X39394165Y-27099872D01*
X39386247Y-27149869D01*
X39384765Y-27157634D01*
X39371998Y-27214751D01*
X39372247Y-27222674D01*
X39372247Y-27222675D01*
X39372282Y-27223772D01*
X39370792Y-27247451D01*
X39369380Y-27256366D01*
X39370126Y-27264258D01*
X39374888Y-27314640D01*
X39375385Y-27322538D01*
X39377224Y-27381045D01*
X39379437Y-27388661D01*
X39379741Y-27389708D01*
X39384187Y-27413013D01*
X39385037Y-27422003D01*
X39404060Y-27474842D01*
X39404863Y-27477073D01*
X39407309Y-27484601D01*
X39411986Y-27500700D01*
X39416989Y-27535852D01*
X39416989Y-28631469D01*
X39396987Y-28699590D01*
X39343331Y-28746083D01*
X39290989Y-28757469D01*
X37262908Y-28757469D01*
X28359855Y-28757470D01*
X28291734Y-28737468D01*
X28245241Y-28683812D01*
X28235137Y-28613538D01*
X28264631Y-28548958D01*
X28308606Y-28516363D01*
X28390722Y-28479803D01*
X28390724Y-28479802D01*
X28396752Y-28477118D01*
X28551253Y-28364866D01*
X28557866Y-28357522D01*
X28674621Y-28227852D01*
X28674622Y-28227851D01*
X28679040Y-28222944D01*
X28774527Y-28057556D01*
X28833542Y-27875928D01*
X28845908Y-27758277D01*
X28852814Y-27692565D01*
X28853504Y-27686000D01*
X28845539Y-27610217D01*
X28834232Y-27502635D01*
X28834232Y-27502633D01*
X28833542Y-27496072D01*
X28774527Y-27314444D01*
X28679040Y-27149056D01*
X28610393Y-27072815D01*
X28555675Y-27012045D01*
X28555674Y-27012044D01*
X28551253Y-27007134D01*
X28429244Y-26918489D01*
X28402094Y-26898763D01*
X28402093Y-26898762D01*
X28396752Y-26894882D01*
X28390724Y-26892198D01*
X28390722Y-26892197D01*
X28228319Y-26819891D01*
X28228318Y-26819891D01*
X28222288Y-26817206D01*
X28128887Y-26797353D01*
X28041944Y-26778872D01*
X28041939Y-26778872D01*
X28035487Y-26777500D01*
X27844513Y-26777500D01*
X27838061Y-26778872D01*
X27838056Y-26778872D01*
X27751113Y-26797353D01*
X27657712Y-26817206D01*
X27651682Y-26819891D01*
X27651681Y-26819891D01*
X27489278Y-26892197D01*
X27489276Y-26892198D01*
X27483248Y-26894882D01*
X27477907Y-26898762D01*
X27477906Y-26898763D01*
X27450756Y-26918489D01*
X27328747Y-27007134D01*
X27324326Y-27012044D01*
X27324325Y-27012045D01*
X27269608Y-27072815D01*
X27200960Y-27149056D01*
X27105473Y-27314444D01*
X27046458Y-27496072D01*
X27045768Y-27502633D01*
X27045768Y-27502635D01*
X27034461Y-27610217D01*
X27026496Y-27686000D01*
X27027186Y-27692565D01*
X27034093Y-27758277D01*
X27046458Y-27875928D01*
X27105473Y-28057556D01*
X27200960Y-28222944D01*
X27205378Y-28227851D01*
X27205379Y-28227852D01*
X27322134Y-28357522D01*
X27328747Y-28364866D01*
X27483248Y-28477118D01*
X27489276Y-28479802D01*
X27489278Y-28479803D01*
X27607757Y-28532553D01*
X27661853Y-28578533D01*
X27682502Y-28646461D01*
X27663150Y-28714769D01*
X27609939Y-28761770D01*
X27584273Y-28769200D01*
X27584510Y-28770122D01*
X27576824Y-28772095D01*
X27568966Y-28773088D01*
X27561601Y-28776004D01*
X27561597Y-28776005D01*
X27526009Y-28790096D01*
X27514799Y-28793935D01*
X27470430Y-28806825D01*
X27451973Y-28817741D01*
X27434223Y-28826436D01*
X27414274Y-28834335D01*
X27407863Y-28838993D01*
X27407861Y-28838994D01*
X27376894Y-28861493D01*
X27366976Y-28868008D01*
X27327223Y-28891518D01*
X27312062Y-28906679D01*
X27297030Y-28919518D01*
X27279673Y-28932129D01*
X27274623Y-28938233D01*
X27274621Y-28938235D01*
X27250223Y-28967727D01*
X27242235Y-28976505D01*
X26834478Y-29384263D01*
X26462336Y-29756405D01*
X26400023Y-29790430D01*
X26351145Y-29791357D01*
X26305874Y-29783293D01*
X26168373Y-29758800D01*
X26168367Y-29758799D01*
X26163284Y-29757894D01*
X26089452Y-29756992D01*
X25945081Y-29755228D01*
X25945079Y-29755228D01*
X25939911Y-29755165D01*
X25719091Y-29788955D01*
X25718928Y-29787891D01*
X25653329Y-29784488D01*
X25605948Y-29754688D01*
X25359144Y-29507884D01*
X25351154Y-29499104D01*
X25351152Y-29499102D01*
X25346905Y-29492409D01*
X25314669Y-29462137D01*
X25295232Y-29443885D01*
X25292390Y-29441130D01*
X25271822Y-29420562D01*
X25268315Y-29417842D01*
X25259293Y-29410136D01*
X25231402Y-29383945D01*
X25225622Y-29378517D01*
X25218670Y-29374695D01*
X25206831Y-29368186D01*
X25190307Y-29357332D01*
X25179621Y-29349044D01*
X25173357Y-29344185D01*
X25166085Y-29341038D01*
X25166083Y-29341037D01*
X25130954Y-29325835D01*
X25120294Y-29320613D01*
X25086773Y-29302184D01*
X25086771Y-29302183D01*
X25079826Y-29298365D01*
X25059048Y-29293030D01*
X25040358Y-29286631D01*
X25020665Y-29278109D01*
X24975041Y-29270883D01*
X24963418Y-29268476D01*
X24935417Y-29261287D01*
X24918677Y-29256989D01*
X24897230Y-29256989D01*
X24877520Y-29255438D01*
X24864166Y-29253323D01*
X24856337Y-29252083D01*
X24810348Y-29256430D01*
X24798493Y-29256989D01*
X23288607Y-29256989D01*
X23220486Y-29236987D01*
X23173993Y-29183331D01*
X23163889Y-29113057D01*
X23191524Y-29050672D01*
X23201804Y-29038246D01*
X23209792Y-29029468D01*
X26782855Y-25456405D01*
X26845167Y-25422379D01*
X26871950Y-25419500D01*
X26892487Y-25419500D01*
X26898939Y-25418128D01*
X26898944Y-25418128D01*
X27004974Y-25395590D01*
X27079288Y-25379794D01*
X27095336Y-25372649D01*
X27247722Y-25304803D01*
X27247724Y-25304802D01*
X27253752Y-25302118D01*
X27408253Y-25189866D01*
X27527670Y-25057240D01*
X27531621Y-25052852D01*
X27531622Y-25052851D01*
X27536040Y-25047944D01*
X27613381Y-24913986D01*
X27628223Y-24888279D01*
X27628224Y-24888278D01*
X27631527Y-24882556D01*
X27690542Y-24700928D01*
X27691665Y-24690248D01*
X27709814Y-24517565D01*
X27710504Y-24511000D01*
X27699351Y-24404885D01*
X27691232Y-24327635D01*
X27691232Y-24327633D01*
X27690542Y-24321072D01*
X27631527Y-24139444D01*
X27621667Y-24122365D01*
X27551750Y-24001267D01*
X27536040Y-23974056D01*
X27504476Y-23939000D01*
X27412675Y-23837045D01*
X27412674Y-23837044D01*
X27408253Y-23832134D01*
X27299029Y-23752778D01*
X27259094Y-23723763D01*
X27259093Y-23723762D01*
X27253752Y-23719882D01*
X27247724Y-23717198D01*
X27247722Y-23717197D01*
X27085319Y-23644891D01*
X27085318Y-23644891D01*
X27079288Y-23642206D01*
X26985888Y-23622353D01*
X26898944Y-23603872D01*
X26898939Y-23603872D01*
X26892487Y-23602500D01*
X26701513Y-23602500D01*
X26695061Y-23603872D01*
X26695056Y-23603872D01*
X26608112Y-23622353D01*
X26514712Y-23642206D01*
X26508682Y-23644891D01*
X26508681Y-23644891D01*
X26346278Y-23717197D01*
X26346276Y-23717198D01*
X26340248Y-23719882D01*
X26334907Y-23723762D01*
X26334906Y-23723763D01*
X26294971Y-23752778D01*
X26185747Y-23832134D01*
X26181326Y-23837044D01*
X26181325Y-23837045D01*
X26089525Y-23939000D01*
X26057960Y-23974056D01*
X26042250Y-24001267D01*
X25972334Y-24122365D01*
X25962473Y-24139444D01*
X25960431Y-24145729D01*
X25924620Y-24255944D01*
X25903458Y-24321072D01*
X25902768Y-24327635D01*
X25902768Y-24327636D01*
X25890245Y-24446786D01*
X25863232Y-24512442D01*
X25854030Y-24522710D01*
X22482145Y-27894595D01*
X22419833Y-27928621D01*
X22393050Y-27931500D01*
X18405632Y-27931500D01*
X18337511Y-27911498D01*
X18299840Y-27873940D01*
X18227822Y-27762617D01*
X18227820Y-27762614D01*
X18225014Y-27758277D01*
X18074670Y-27593051D01*
X18070616Y-27589849D01*
X18070615Y-27589848D01*
X17903414Y-27457800D01*
X17903410Y-27457798D01*
X17899359Y-27454598D01*
X17857569Y-27431529D01*
X17807598Y-27381097D01*
X17792826Y-27311654D01*
X17817942Y-27245248D01*
X17845294Y-27218641D01*
X18020328Y-27093792D01*
X18028200Y-27087139D01*
X18179052Y-26936812D01*
X18185730Y-26928965D01*
X18310003Y-26756020D01*
X18315313Y-26747183D01*
X18409670Y-26556267D01*
X18413469Y-26546672D01*
X18475377Y-26342910D01*
X18477555Y-26332837D01*
X18478986Y-26321962D01*
X18476775Y-26307778D01*
X18463617Y-26304000D01*
X15828225Y-26304000D01*
X15814694Y-26307973D01*
X15813257Y-26317966D01*
X15843565Y-26452446D01*
X15846645Y-26462275D01*
X15926770Y-26659603D01*
X15931413Y-26668794D01*
X16042694Y-26850388D01*
X16048777Y-26858699D01*
X16188213Y-27019667D01*
X16195580Y-27026883D01*
X16359434Y-27162916D01*
X16367881Y-27168831D01*
X16436969Y-27209203D01*
X16485693Y-27260842D01*
X16498764Y-27330625D01*
X16472033Y-27396396D01*
X16431584Y-27429752D01*
X16418607Y-27436507D01*
X16414474Y-27439610D01*
X16414471Y-27439612D01*
X16256736Y-27558043D01*
X16239965Y-27570635D01*
X16219838Y-27591697D01*
X16129720Y-27686000D01*
X16085629Y-27732138D01*
X15959743Y-27916680D01*
X15865688Y-28119305D01*
X15805989Y-28334570D01*
X15782251Y-28556695D01*
X15782548Y-28561848D01*
X15782548Y-28561851D01*
X15791365Y-28714769D01*
X15795110Y-28779715D01*
X15796247Y-28784761D01*
X15796248Y-28784767D01*
X15804817Y-28822788D01*
X15844222Y-28997639D01*
X15846164Y-29002421D01*
X15846165Y-29002425D01*
X15858854Y-29033674D01*
X15875049Y-29073556D01*
X15879121Y-29083585D01*
X15886217Y-29154226D01*
X15853995Y-29217489D01*
X15792685Y-29253290D01*
X15762378Y-29256989D01*
X13944735Y-29256989D01*
X13876614Y-29236987D01*
X13870674Y-29232925D01*
X13870420Y-29232740D01*
X13762355Y-29154226D01*
X13726605Y-29128252D01*
X13726604Y-29128251D01*
X13721263Y-29124371D01*
X13715235Y-29121687D01*
X13715233Y-29121686D01*
X13552830Y-29049380D01*
X13552829Y-29049380D01*
X13546799Y-29046695D01*
X13453398Y-29026842D01*
X13366455Y-29008361D01*
X13366450Y-29008361D01*
X13359998Y-29006989D01*
X13169024Y-29006989D01*
X13162572Y-29008361D01*
X13162567Y-29008361D01*
X13075624Y-29026842D01*
X12982223Y-29046695D01*
X12976193Y-29049380D01*
X12976192Y-29049380D01*
X12813789Y-29121686D01*
X12813787Y-29121687D01*
X12807759Y-29124371D01*
X12802418Y-29128251D01*
X12802417Y-29128252D01*
X12766667Y-29154226D01*
X12653258Y-29236623D01*
X12648837Y-29241533D01*
X12648836Y-29241534D01*
X12539100Y-29363409D01*
X12525471Y-29378545D01*
X12429984Y-29543933D01*
X12370969Y-29725561D01*
X12370279Y-29732122D01*
X12370279Y-29732124D01*
X12364418Y-29787891D01*
X12351007Y-29915489D01*
X4828500Y-29915489D01*
X4828500Y-29713515D01*
X4848502Y-29645394D01*
X4902158Y-29598901D01*
X4972432Y-29588797D01*
X5020616Y-29606255D01*
X5117243Y-29665816D01*
X5130424Y-29671963D01*
X5284710Y-29723138D01*
X5298086Y-29726005D01*
X5392438Y-29735672D01*
X5398854Y-29736000D01*
X5823885Y-29736000D01*
X5839124Y-29731525D01*
X5840329Y-29730135D01*
X5842000Y-29722452D01*
X5842000Y-29717884D01*
X6350000Y-29717884D01*
X6354475Y-29733123D01*
X6355865Y-29734328D01*
X6363548Y-29735999D01*
X6793095Y-29735999D01*
X6799614Y-29735662D01*
X6895206Y-29725743D01*
X6908600Y-29722851D01*
X7062784Y-29671412D01*
X7075962Y-29665239D01*
X7213807Y-29579937D01*
X7225208Y-29570901D01*
X7339739Y-29456171D01*
X7348751Y-29444760D01*
X7433816Y-29306757D01*
X7439963Y-29293576D01*
X7491138Y-29139290D01*
X7494005Y-29125914D01*
X7503672Y-29031562D01*
X7504000Y-29025146D01*
X7504000Y-28925115D01*
X7499525Y-28909876D01*
X7498135Y-28908671D01*
X7490452Y-28907000D01*
X6368115Y-28907000D01*
X6352876Y-28911475D01*
X6351671Y-28912865D01*
X6350000Y-28920548D01*
X6350000Y-29717884D01*
X5842000Y-29717884D01*
X5842000Y-28925115D01*
X5837525Y-28909876D01*
X5836135Y-28908671D01*
X5828452Y-28907000D01*
X4706116Y-28907000D01*
X4690877Y-28911475D01*
X4676269Y-28928333D01*
X4658928Y-28960091D01*
X4596615Y-28994116D01*
X4525605Y-28988977D01*
X4430316Y-28953255D01*
X4368134Y-28946500D01*
X3401371Y-28946500D01*
X3333250Y-28926498D01*
X3312276Y-28909595D01*
X2783566Y-28380885D01*
X4688000Y-28380885D01*
X4692475Y-28396124D01*
X4693865Y-28397329D01*
X4701548Y-28399000D01*
X5823885Y-28399000D01*
X5839124Y-28394525D01*
X5840329Y-28393135D01*
X5842000Y-28385452D01*
X5842000Y-28380885D01*
X6350000Y-28380885D01*
X6354475Y-28396124D01*
X6355865Y-28397329D01*
X6363548Y-28399000D01*
X7485884Y-28399000D01*
X7501123Y-28394525D01*
X7502328Y-28393135D01*
X7503999Y-28385452D01*
X7503999Y-28280905D01*
X7503662Y-28274386D01*
X7493743Y-28178794D01*
X7490851Y-28165400D01*
X7439412Y-28011216D01*
X7433239Y-27998038D01*
X7347937Y-27860193D01*
X7338901Y-27848792D01*
X7224171Y-27734261D01*
X7212760Y-27725249D01*
X7074757Y-27640184D01*
X7061576Y-27634037D01*
X6907290Y-27582862D01*
X6893914Y-27579995D01*
X6799562Y-27570328D01*
X6793145Y-27570000D01*
X6368115Y-27570000D01*
X6352876Y-27574475D01*
X6351671Y-27575865D01*
X6350000Y-27583548D01*
X6350000Y-28380885D01*
X5842000Y-28380885D01*
X5842000Y-27588116D01*
X5837525Y-27572877D01*
X5836135Y-27571672D01*
X5828452Y-27570001D01*
X5398905Y-27570001D01*
X5392386Y-27570338D01*
X5296794Y-27580257D01*
X5283400Y-27583149D01*
X5129216Y-27634588D01*
X5116038Y-27640761D01*
X4978193Y-27726063D01*
X4966792Y-27735099D01*
X4852261Y-27849829D01*
X4843249Y-27861240D01*
X4758184Y-27999243D01*
X4752037Y-28012424D01*
X4700862Y-28166710D01*
X4697995Y-28180086D01*
X4688328Y-28274438D01*
X4688000Y-28280855D01*
X4688000Y-28380885D01*
X2783566Y-28380885D01*
X1512259Y-27109578D01*
X1499873Y-27095166D01*
X1491340Y-27083571D01*
X1491335Y-27083566D01*
X1486997Y-27077671D01*
X1481419Y-27072932D01*
X1481416Y-27072929D01*
X1446721Y-27043454D01*
X1439205Y-27036524D01*
X1433510Y-27030829D01*
X1427369Y-27025971D01*
X1411238Y-27013208D01*
X1407834Y-27010417D01*
X1357786Y-26967898D01*
X1357784Y-26967897D01*
X1352204Y-26963156D01*
X1345688Y-26959828D01*
X1340639Y-26956461D01*
X1335510Y-26953294D01*
X1329773Y-26948755D01*
X1263614Y-26917834D01*
X1259714Y-26915928D01*
X1194681Y-26882720D01*
X1187573Y-26880981D01*
X1181930Y-26878882D01*
X1176167Y-26876965D01*
X1169539Y-26873867D01*
X1098072Y-26859002D01*
X1093788Y-26858032D01*
X1079088Y-26854435D01*
X1022879Y-26840681D01*
X1017277Y-26840333D01*
X1017274Y-26840333D01*
X1011725Y-26839989D01*
X1011727Y-26839953D01*
X1007734Y-26839714D01*
X1003542Y-26839340D01*
X996374Y-26837849D01*
X932609Y-26839574D01*
X918968Y-26839943D01*
X915561Y-26839989D01*
X142647Y-26839989D01*
X74526Y-26819987D01*
X28033Y-26766331D01*
X17929Y-26696057D01*
X47423Y-26631477D01*
X68586Y-26612053D01*
X97909Y-26590749D01*
X97911Y-26590747D01*
X103253Y-26586866D01*
X107675Y-26581955D01*
X226621Y-26449852D01*
X226622Y-26449851D01*
X231040Y-26444944D01*
X304367Y-26317939D01*
X323223Y-26285279D01*
X323224Y-26285278D01*
X326527Y-26279556D01*
X385542Y-26097928D01*
X387259Y-26081598D01*
X404814Y-25914565D01*
X405504Y-25908000D01*
X404101Y-25894654D01*
X394434Y-25802670D01*
X407207Y-25732832D01*
X455709Y-25680985D01*
X519744Y-25663500D01*
X3218134Y-25663500D01*
X3280316Y-25656745D01*
X3416705Y-25605615D01*
X3533261Y-25518261D01*
X3620615Y-25401705D01*
X3671745Y-25265316D01*
X3678500Y-25203134D01*
X3678500Y-25039500D01*
X3698502Y-24971379D01*
X3752158Y-24924886D01*
X3804500Y-24913500D01*
X3977599Y-24913500D01*
X4045720Y-24933502D01*
X4071233Y-24955187D01*
X4190247Y-25087366D01*
X4279985Y-25152565D01*
X4331326Y-25189866D01*
X4344748Y-25199618D01*
X4350776Y-25202302D01*
X4350778Y-25202303D01*
X4508927Y-25272715D01*
X4519212Y-25277294D01*
X4525667Y-25278666D01*
X4525676Y-25278669D01*
X4582272Y-25290699D01*
X4645169Y-25324850D01*
X4650595Y-25330276D01*
X4684621Y-25392588D01*
X4687500Y-25419371D01*
X4687500Y-26078400D01*
X4687837Y-26081646D01*
X4687837Y-26081650D01*
X4690178Y-26104206D01*
X4698474Y-26184166D01*
X4754450Y-26351946D01*
X4847522Y-26502348D01*
X4972697Y-26627305D01*
X4978927Y-26631145D01*
X4978928Y-26631146D01*
X5116090Y-26715694D01*
X5123262Y-26720115D01*
X5160415Y-26732438D01*
X5284611Y-26773632D01*
X5284613Y-26773632D01*
X5291139Y-26775797D01*
X5297975Y-26776497D01*
X5297978Y-26776498D01*
X5341031Y-26780909D01*
X5395600Y-26786500D01*
X6796400Y-26786500D01*
X6799646Y-26786163D01*
X6799650Y-26786163D01*
X6895308Y-26776238D01*
X6895312Y-26776237D01*
X6902166Y-26775526D01*
X6908702Y-26773345D01*
X6908704Y-26773345D01*
X7040806Y-26729272D01*
X7069946Y-26719550D01*
X7220348Y-26626478D01*
X7345305Y-26501303D01*
X7356143Y-26483721D01*
X7434275Y-26356968D01*
X7434276Y-26356966D01*
X7438115Y-26350738D01*
X7469048Y-26257478D01*
X7491632Y-26189389D01*
X7491632Y-26189387D01*
X7493797Y-26182861D01*
X7504500Y-26078400D01*
X7504500Y-25327600D01*
X7501476Y-25298457D01*
X7494238Y-25228692D01*
X7494237Y-25228688D01*
X7493526Y-25221834D01*
X7486061Y-25199457D01*
X7439868Y-25061002D01*
X7437550Y-25054054D01*
X7344478Y-24903652D01*
X7219303Y-24778695D01*
X7168845Y-24747592D01*
X7074968Y-24689725D01*
X7074966Y-24689724D01*
X7068738Y-24685885D01*
X6973219Y-24654203D01*
X6907389Y-24632368D01*
X6907387Y-24632368D01*
X6900861Y-24630203D01*
X6894025Y-24629503D01*
X6894022Y-24629502D01*
X6850969Y-24625091D01*
X6796400Y-24619500D01*
X6137371Y-24619500D01*
X6069250Y-24599498D01*
X6048276Y-24582595D01*
X5721625Y-24255944D01*
X5690887Y-24205785D01*
X5686468Y-24192183D01*
X5636027Y-24036944D01*
X5540540Y-23871556D01*
X5436165Y-23755635D01*
X5417175Y-23734545D01*
X5417174Y-23734544D01*
X5412753Y-23729634D01*
X5258252Y-23617382D01*
X5252224Y-23614698D01*
X5252222Y-23614697D01*
X5089819Y-23542391D01*
X5089818Y-23542391D01*
X5083788Y-23539706D01*
X4982662Y-23518211D01*
X4949458Y-23504895D01*
X4949284Y-23505266D01*
X4883125Y-23474345D01*
X4879225Y-23472439D01*
X4814192Y-23439231D01*
X4807084Y-23437492D01*
X4801441Y-23435393D01*
X4795678Y-23433476D01*
X4789050Y-23430378D01*
X4770142Y-23426445D01*
X4717588Y-23415514D01*
X4713299Y-23414543D01*
X4642390Y-23397192D01*
X4636788Y-23396844D01*
X4636785Y-23396844D01*
X4631236Y-23396500D01*
X4631238Y-23396464D01*
X4627245Y-23396225D01*
X4623053Y-23395851D01*
X4615885Y-23394360D01*
X4549675Y-23396151D01*
X4538479Y-23396454D01*
X4535072Y-23396500D01*
X3804500Y-23396500D01*
X3736379Y-23376498D01*
X3689886Y-23322842D01*
X3678500Y-23270500D01*
X3678500Y-23106866D01*
X3671745Y-23044684D01*
X3620615Y-22908295D01*
X3533261Y-22791739D01*
X3416705Y-22704385D01*
X3280316Y-22653255D01*
X3218134Y-22646500D01*
X-678134Y-22646500D01*
X-740316Y-22653255D01*
X-876705Y-22704385D01*
X-993261Y-22791739D01*
X-1080615Y-22908295D01*
X-1131745Y-23044684D01*
X-1138500Y-23106866D01*
X-1138500Y-24679414D01*
X-1156652Y-24743348D01*
X-1157734Y-24744716D01*
X-1188655Y-24810875D01*
X-1190558Y-24814769D01*
X-1223769Y-24879808D01*
X-1225508Y-24886916D01*
X-1227607Y-24892559D01*
X-1229524Y-24898322D01*
X-1232622Y-24904950D01*
X-1234112Y-24912112D01*
X-1234112Y-24912113D01*
X-1247486Y-24976412D01*
X-1248456Y-24980696D01*
X-1265808Y-25051610D01*
X-1266156Y-25057212D01*
X-1266156Y-25057215D01*
X-1266391Y-25061002D01*
X-1266500Y-25062764D01*
X-1266536Y-25062762D01*
X-1266775Y-25066755D01*
X-1267149Y-25070947D01*
X-1268640Y-25078115D01*
X-1268442Y-25085432D01*
X-1266546Y-25155521D01*
X-1266500Y-25158928D01*
X-1266500Y-25371001D01*
X-1283381Y-25434000D01*
X-1342527Y-25536444D01*
X-1401542Y-25718072D01*
X-1402232Y-25724633D01*
X-1402232Y-25724635D01*
X-1414192Y-25838432D01*
X-1421504Y-25908000D01*
X-1420814Y-25914565D01*
X-1403258Y-26081598D01*
X-1401542Y-26097928D01*
X-1342527Y-26279556D01*
X-1339224Y-26285278D01*
X-1339223Y-26285279D01*
X-1320367Y-26317939D01*
X-1247040Y-26444944D01*
X-1242622Y-26449851D01*
X-1242621Y-26449852D01*
X-1123675Y-26581955D01*
X-1119253Y-26586866D01*
X-1113911Y-26590747D01*
X-1113909Y-26590749D01*
X-1084586Y-26612053D01*
X-1041232Y-26668275D01*
X-1035157Y-26739011D01*
X-1068288Y-26801803D01*
X-1130108Y-26836714D01*
X-1158647Y-26839989D01*
X-1877419Y-26839989D01*
X-1896369Y-26838556D01*
X-1910604Y-26836390D01*
X-1910608Y-26836390D01*
X-1917838Y-26835290D01*
X-1925130Y-26835883D01*
X-1925133Y-26835883D01*
X-1970507Y-26839574D01*
X-1980722Y-26839989D01*
X-1988782Y-26839989D01*
X-2002072Y-26841538D01*
X-2016996Y-26843278D01*
X-2021371Y-26843711D01*
X-2086828Y-26849035D01*
X-2086831Y-26849036D01*
X-2094126Y-26849629D01*
X-2101090Y-26851885D01*
X-2107049Y-26853076D01*
X-2112904Y-26854460D01*
X-2120170Y-26855307D01*
X-2188816Y-26880224D01*
X-2192944Y-26881641D01*
X-2255425Y-26901882D01*
X-2255427Y-26901883D01*
X-2262388Y-26904138D01*
X-2268643Y-26907934D01*
X-2274117Y-26910440D01*
X-2279547Y-26913159D01*
X-2286426Y-26915656D01*
X-2292546Y-26919669D01*
X-2292547Y-26919669D01*
X-2347465Y-26955675D01*
X-2351169Y-26958012D01*
X-2413596Y-26995894D01*
X-2421973Y-27003292D01*
X-2421997Y-27003265D01*
X-2424989Y-27005918D01*
X-2428222Y-27008621D01*
X-2434341Y-27012633D01*
X-2463538Y-27043454D01*
X-2487617Y-27068872D01*
X-2489995Y-27071314D01*
X-2950331Y-27531650D01*
X-3013228Y-27565801D01*
X-3069824Y-27577831D01*
X-3069833Y-27577834D01*
X-3076288Y-27579206D01*
X-3082318Y-27581891D01*
X-3082319Y-27581891D01*
X-3124751Y-27600783D01*
X-3195118Y-27610217D01*
X-3259415Y-27580110D01*
X-3297229Y-27520022D01*
X-3302000Y-27485676D01*
X-3302000Y-18381695D01*
X-2632749Y-18381695D01*
X-2632452Y-18386848D01*
X-2632452Y-18386851D01*
X-2626832Y-18484315D01*
X-2619890Y-18604715D01*
X-2618753Y-18609761D01*
X-2618752Y-18609767D01*
X-2604170Y-18674468D01*
X-2570778Y-18822639D01*
X-2514480Y-18961285D01*
X-2491709Y-19017363D01*
X-2486734Y-19029616D01*
X-2456071Y-19079653D01*
X-2377764Y-19207439D01*
X-2370013Y-19220088D01*
X-2223750Y-19388938D01*
X-2219770Y-19392242D01*
X-2215019Y-19396187D01*
X-2175384Y-19455090D01*
X-2173887Y-19526071D01*
X-2211003Y-19586593D01*
X-2251276Y-19611112D01*
X-2366705Y-19654385D01*
X-2483261Y-19741739D01*
X-2570615Y-19858295D01*
X-2621745Y-19994684D01*
X-2628500Y-20056866D01*
X-2628500Y-21853134D01*
X-2621745Y-21915316D01*
X-2570615Y-22051705D01*
X-2483261Y-22168261D01*
X-2366705Y-22255615D01*
X-2230316Y-22306745D01*
X-2168134Y-22313500D01*
X-371866Y-22313500D01*
X-309684Y-22306745D01*
X-173295Y-22255615D01*
X-56739Y-22168261D01*
X30615Y-22051705D01*
X81745Y-21915316D01*
X88500Y-21853134D01*
X88500Y-20056866D01*
X81745Y-19994684D01*
X30615Y-19858295D01*
X-56739Y-19741739D01*
X-173295Y-19654385D01*
X-191071Y-19647721D01*
X-291797Y-19609960D01*
X-348561Y-19567318D01*
X-373261Y-19500756D01*
X-358053Y-19431408D01*
X-336507Y-19402727D01*
X-235565Y-19302137D01*
X-231904Y-19298489D01*
X-223609Y-19286946D01*
X-104565Y-19121277D01*
X-101547Y-19117077D01*
X-77769Y-19068967D01*
X-4864Y-18921453D01*
X-4863Y-18921451D01*
X-2570Y-18916811D01*
X44071Y-18763297D01*
X60865Y-18708023D01*
X60865Y-18708021D01*
X62370Y-18703069D01*
X91529Y-18481590D01*
X91611Y-18478240D01*
X93074Y-18418365D01*
X93074Y-18418361D01*
X93156Y-18415000D01*
X74852Y-18192361D01*
X20431Y-17975702D01*
X-68646Y-17770840D01*
X-160387Y-17629030D01*
X-187178Y-17587617D01*
X-187180Y-17587614D01*
X-189986Y-17583277D01*
X-340330Y-17418051D01*
X-344381Y-17414852D01*
X-344385Y-17414848D01*
X-511586Y-17282800D01*
X-511590Y-17282798D01*
X-515641Y-17279598D01*
X-557431Y-17256529D01*
X-607402Y-17206097D01*
X-622174Y-17136654D01*
X-597058Y-17070248D01*
X-569706Y-17043641D01*
X-394672Y-16918792D01*
X-386800Y-16912139D01*
X-235948Y-16761812D01*
X-229270Y-16753965D01*
X-104997Y-16581020D01*
X-99687Y-16572183D01*
X-5330Y-16381267D01*
X-1531Y-16371672D01*
X60377Y-16167910D01*
X62555Y-16157837D01*
X63986Y-16146962D01*
X61775Y-16132778D01*
X48617Y-16129000D01*
X-2586775Y-16129000D01*
X-2600306Y-16132973D01*
X-2601743Y-16142966D01*
X-2571435Y-16277446D01*
X-2568355Y-16287275D01*
X-2488230Y-16484603D01*
X-2483587Y-16493794D01*
X-2372306Y-16675388D01*
X-2366223Y-16683699D01*
X-2226787Y-16844667D01*
X-2219420Y-16851883D01*
X-2055566Y-16987916D01*
X-2047119Y-16993831D01*
X-1978031Y-17034203D01*
X-1929307Y-17085842D01*
X-1916236Y-17155625D01*
X-1942967Y-17221396D01*
X-1983416Y-17254752D01*
X-1996393Y-17261507D01*
X-2000526Y-17264610D01*
X-2000529Y-17264612D01*
X-2170900Y-17392530D01*
X-2175035Y-17395635D01*
X-2178607Y-17399373D01*
X-2283449Y-17509084D01*
X-2329371Y-17557138D01*
X-2455257Y-17741680D01*
X-2499911Y-17837879D01*
X-2531531Y-17906000D01*
X-2549312Y-17944305D01*
X-2609011Y-18159570D01*
X-2632749Y-18381695D01*
X-3302000Y-18381695D01*
X-3302000Y-15609183D01*
X-2605611Y-15609183D01*
X-2604088Y-15617607D01*
X-2591708Y-15621000D01*
X-1542115Y-15621000D01*
X-1526876Y-15616525D01*
X-1525671Y-15615135D01*
X-1524000Y-15607452D01*
X-1524000Y-15602885D01*
X-1016000Y-15602885D01*
X-1011525Y-15618124D01*
X-1010135Y-15619329D01*
X-1002452Y-15621000D01*
X48344Y-15621000D01*
X61875Y-15617027D01*
X63180Y-15607947D01*
X21214Y-15440875D01*
X17894Y-15431124D01*
X-67028Y-15235814D01*
X-71895Y-15226739D01*
X-187574Y-15047926D01*
X-193864Y-15039757D01*
X-337194Y-14882240D01*
X-344727Y-14875215D01*
X-511861Y-14743222D01*
X-520448Y-14737517D01*
X-706883Y-14634599D01*
X-716295Y-14630369D01*
X-917041Y-14559280D01*
X-927012Y-14556646D01*
X-998163Y-14543972D01*
X-1011460Y-14545432D01*
X-1016000Y-14559989D01*
X-1016000Y-15602885D01*
X-1524000Y-15602885D01*
X-1524000Y-14558102D01*
X-1527918Y-14544758D01*
X-1542194Y-14542771D01*
X-1580676Y-14548660D01*
X-1590712Y-14551051D01*
X-1793132Y-14617212D01*
X-1802641Y-14621209D01*
X-1991537Y-14719542D01*
X-2000262Y-14725036D01*
X-2170567Y-14852905D01*
X-2178274Y-14859748D01*
X-2325410Y-15013717D01*
X-2331896Y-15021727D01*
X-2451902Y-15197649D01*
X-2457000Y-15206623D01*
X-2546662Y-15399783D01*
X-2550225Y-15409470D01*
X-2605611Y-15609183D01*
X-3302000Y-15609183D01*
X-3302000Y-10424669D01*
X-2627999Y-10424669D01*
X-2627629Y-10431490D01*
X-2622105Y-10482352D01*
X-2618479Y-10497604D01*
X-2573324Y-10618054D01*
X-2564786Y-10633649D01*
X-2488285Y-10735724D01*
X-2475724Y-10748285D01*
X-2373649Y-10824786D01*
X-2358054Y-10833324D01*
X-2237606Y-10878478D01*
X-2222351Y-10882105D01*
X-2171486Y-10887631D01*
X-2164672Y-10888000D01*
X-1542115Y-10888000D01*
X-1526876Y-10883525D01*
X-1525671Y-10882135D01*
X-1524000Y-10874452D01*
X-1524000Y-10869884D01*
X-1016000Y-10869884D01*
X-1011525Y-10885123D01*
X-1010135Y-10886328D01*
X-1002452Y-10887999D01*
X-375331Y-10887999D01*
X-368510Y-10887629D01*
X-317648Y-10882105D01*
X-302396Y-10878479D01*
X-181946Y-10833324D01*
X-166351Y-10824786D01*
X-64276Y-10748285D01*
X-51715Y-10735724D01*
X24786Y-10633649D01*
X33324Y-10618054D01*
X78478Y-10497606D01*
X80594Y-10488705D01*
X1569001Y-10488705D01*
X1569264Y-10494454D01*
X1575132Y-10558315D01*
X1577743Y-10571351D01*
X1624715Y-10721243D01*
X1630921Y-10734988D01*
X1711824Y-10868574D01*
X1721131Y-10880443D01*
X1831557Y-10990869D01*
X1843426Y-11000176D01*
X1977012Y-11081079D01*
X1990757Y-11087285D01*
X2140644Y-11134256D01*
X2153694Y-11136869D01*
X2208586Y-11141913D01*
X2220124Y-11138525D01*
X2221329Y-11137135D01*
X2223000Y-11129452D01*
X2223000Y-10432115D01*
X2218525Y-10416876D01*
X2217135Y-10415671D01*
X2209452Y-10414000D01*
X1587116Y-10414000D01*
X1571877Y-10418475D01*
X1570672Y-10419865D01*
X1569001Y-10427548D01*
X1569001Y-10488705D01*
X80594Y-10488705D01*
X82105Y-10482351D01*
X87631Y-10431486D01*
X88000Y-10424672D01*
X88000Y-9802115D01*
X83525Y-9786876D01*
X82135Y-9785671D01*
X74452Y-9784000D01*
X-997885Y-9784000D01*
X-1013124Y-9788475D01*
X-1014329Y-9789865D01*
X-1016000Y-9797548D01*
X-1016000Y-10869884D01*
X-1524000Y-10869884D01*
X-1524000Y-9802115D01*
X-1528475Y-9786876D01*
X-1529865Y-9785671D01*
X-1537548Y-9784000D01*
X-2609884Y-9784000D01*
X-2625123Y-9788475D01*
X-2626328Y-9789865D01*
X-2627999Y-9797548D01*
X-2627999Y-10424669D01*
X-3302000Y-10424669D01*
X-3302000Y-4299885D01*
X1569000Y-4299885D01*
X1573475Y-4315124D01*
X1574865Y-4316329D01*
X1582548Y-4318000D01*
X2254885Y-4318000D01*
X2270124Y-4313525D01*
X2271329Y-4312135D01*
X2273000Y-4304452D01*
X2273000Y-3607115D01*
X2268525Y-3591876D01*
X2267135Y-3590671D01*
X2259452Y-3589000D01*
X2256562Y-3589000D01*
X2250047Y-3589337D01*
X2157943Y-3598894D01*
X2144544Y-3601788D01*
X1995893Y-3651381D01*
X1982714Y-3657555D01*
X1849827Y-3739788D01*
X1838426Y-3748824D01*
X1728014Y-3859429D01*
X1719002Y-3870840D01*
X1636996Y-4003880D01*
X1630849Y-4017061D01*
X1581509Y-4165814D01*
X1578642Y-4179190D01*
X1569328Y-4270097D01*
X1569000Y-4276514D01*
X1569000Y-4299885D01*
X-3302000Y-4299885D01*
X-3302000Y-132703D01*
X-2109257Y-132703D01*
X-2071732Y-417734D01*
X-1995871Y-695036D01*
X-1883077Y-959476D01*
X-1735439Y-1206161D01*
X-1555687Y-1430528D01*
X-1347149Y-1628423D01*
X-1113683Y-1796186D01*
X-1109888Y-1798195D01*
X-1109887Y-1798196D01*
X-1088131Y-1809715D01*
X-859608Y-1930712D01*
X-589627Y-2029511D01*
X-308736Y-2090755D01*
X-280159Y-2093004D01*
X-85718Y-2108307D01*
X-85709Y-2108307D01*
X-83261Y-2108500D01*
X72271Y-2108500D01*
X74407Y-2108354D01*
X74418Y-2108354D01*
X282548Y-2094165D01*
X282554Y-2094164D01*
X286825Y-2093873D01*
X291020Y-2093004D01*
X291022Y-2093004D01*
X427584Y-2064723D01*
X568342Y-2035574D01*
X839343Y-1939607D01*
X1094812Y-1807750D01*
X1098313Y-1805289D01*
X1098317Y-1805287D01*
X1212417Y-1725096D01*
X1330023Y-1642441D01*
X1540622Y-1446740D01*
X1722713Y-1224268D01*
X1872927Y-979142D01*
X1988483Y-715898D01*
X2067244Y-439406D01*
X2107751Y-154784D01*
X2107845Y-136951D01*
X2109235Y128417D01*
X2109235Y128424D01*
X2109257Y132703D01*
X2071732Y417734D01*
X1995871Y695036D01*
X1985295Y719830D01*
X1884763Y955524D01*
X1884761Y955528D01*
X1883077Y959476D01*
X1735439Y1206161D01*
X1555687Y1430528D01*
X1347149Y1628423D01*
X1113683Y1796186D01*
X1091843Y1807750D01*
X1068654Y1820028D01*
X859608Y1930712D01*
X589627Y2029511D01*
X308736Y2090755D01*
X277685Y2093199D01*
X85718Y2108307D01*
X85709Y2108307D01*
X83261Y2108500D01*
X-72271Y2108500D01*
X-74407Y2108354D01*
X-74418Y2108354D01*
X-282548Y2094165D01*
X-282554Y2094164D01*
X-286825Y2093873D01*
X-291020Y2093004D01*
X-291022Y2093004D01*
X-427584Y2064723D01*
X-568342Y2035574D01*
X-839343Y1939607D01*
X-1094812Y1807750D01*
X-1098313Y1805289D01*
X-1098317Y1805287D01*
X-1108406Y1798196D01*
X-1330023Y1642441D01*
X-1540622Y1446740D01*
X-1722713Y1224268D01*
X-1872927Y979142D01*
X-1988483Y715898D01*
X-2067244Y439406D01*
X-2107751Y154784D01*
X-2107773Y150495D01*
X-2107774Y150488D01*
X-2109235Y-128417D01*
X-2109257Y-132703D01*
X-3302000Y-132703D01*
X-3302000Y-49328D01*
X-3300500Y-29943D01*
X-3298195Y-15142D01*
X-3298195Y-15139D01*
X-3296814Y-6270D01*
X-3299257Y12411D01*
X-3300148Y35343D01*
X-3284257Y338554D01*
X-3282879Y351671D01*
X-3271759Y421876D01*
X-3230877Y680002D01*
X-3228135Y692902D01*
X-3142097Y1014000D01*
X-3138021Y1026544D01*
X-3018895Y1336876D01*
X-3013531Y1348924D01*
X-2862612Y1645120D01*
X-2856018Y1656541D01*
X-2674967Y1935334D01*
X-2667221Y1945996D01*
X-2600786Y2028036D01*
X-2458015Y2204345D01*
X-2449190Y2214145D01*
X-2214145Y2449190D01*
X-2204344Y2458016D01*
X-1945996Y2667221D01*
X-1935334Y2674967D01*
X-1656536Y2856021D01*
X-1645120Y2862612D01*
X-1348924Y3013531D01*
X-1336876Y3018895D01*
X-1299358Y3033297D01*
X-1026536Y3138023D01*
X-1014000Y3142097D01*
X-692902Y3228135D01*
X-680002Y3230877D01*
X-591285Y3244928D01*
X-351665Y3282880D01*
X-338557Y3284257D01*
X-42666Y3299764D01*
X-16688Y3298436D01*
X-15144Y3298195D01*
X-15140Y3298195D01*
X-6270Y3296814D01*
X2632Y3297978D01*
X2635Y3297978D01*
X25251Y3300936D01*
X41589Y3302000D01*
X4700000Y3302000D01*
X4768121Y3281998D01*
G37*
G04 #@! TD.AperFunction*
G04 #@! TA.AperFunction,Conductor*
G36*
X45055057Y3300500D02*
G01*
X45069858Y3298195D01*
X45069861Y3298195D01*
X45078730Y3296814D01*
X45097411Y3299257D01*
X45120342Y3300148D01*
X45423557Y3284257D01*
X45436665Y3282880D01*
X45676285Y3244928D01*
X45765002Y3230877D01*
X45777902Y3228135D01*
X46099000Y3142097D01*
X46111536Y3138023D01*
X46384358Y3033297D01*
X46421876Y3018895D01*
X46433924Y3013531D01*
X46730120Y2862612D01*
X46741536Y2856021D01*
X47020334Y2674967D01*
X47030996Y2667221D01*
X47289344Y2458016D01*
X47299145Y2449190D01*
X47534190Y2214145D01*
X47543015Y2204345D01*
X47685787Y2028036D01*
X47752221Y1945996D01*
X47759967Y1935334D01*
X47941018Y1656541D01*
X47947612Y1645120D01*
X48098531Y1348924D01*
X48103895Y1336876D01*
X48223021Y1026544D01*
X48227097Y1014000D01*
X48313135Y692902D01*
X48315877Y680002D01*
X48356760Y421876D01*
X48367879Y351671D01*
X48369257Y338557D01*
X48379823Y136951D01*
X48384764Y42670D01*
X48383436Y16688D01*
X48383195Y15144D01*
X48383195Y15140D01*
X48381814Y6270D01*
X48382978Y-2632D01*
X48382978Y-2635D01*
X48385936Y-25251D01*
X48387000Y-41589D01*
X48387000Y-9750500D01*
X48366998Y-9818621D01*
X48313342Y-9865114D01*
X48261000Y-9876500D01*
X46585866Y-9876500D01*
X46523684Y-9883255D01*
X46387295Y-9934385D01*
X46270739Y-10021739D01*
X46183385Y-10138295D01*
X46132255Y-10274684D01*
X46131402Y-10282539D01*
X46131402Y-10282540D01*
X46127972Y-10314108D01*
X46100730Y-10379670D01*
X46042366Y-10420096D01*
X46002709Y-10426500D01*
X40865291Y-10426500D01*
X40797170Y-10406498D01*
X40750677Y-10352842D01*
X40740028Y-10314108D01*
X40736598Y-10282539D01*
X40735745Y-10274684D01*
X40736235Y-10274631D01*
X40739662Y-10208963D01*
X40781107Y-10151318D01*
X40847137Y-10125231D01*
X40871386Y-10125370D01*
X40884096Y-10126672D01*
X40889126Y-10126929D01*
X40904124Y-10122525D01*
X40905329Y-10121135D01*
X40907000Y-10113452D01*
X40907000Y-10108885D01*
X41415000Y-10108885D01*
X41419475Y-10124124D01*
X41420865Y-10125329D01*
X41428548Y-10127000D01*
X41431438Y-10127000D01*
X41437953Y-10126663D01*
X41530057Y-10117106D01*
X41543456Y-10114212D01*
X41692107Y-10064619D01*
X41705286Y-10058445D01*
X41838173Y-9976212D01*
X41849574Y-9967176D01*
X41959986Y-9856571D01*
X41968998Y-9845160D01*
X42051004Y-9712120D01*
X42057151Y-9698939D01*
X42106491Y-9550186D01*
X42109358Y-9536810D01*
X42118672Y-9445903D01*
X42119000Y-9439487D01*
X42119000Y-9416115D01*
X42114525Y-9400876D01*
X42113135Y-9399671D01*
X42105452Y-9398000D01*
X41433115Y-9398000D01*
X41417876Y-9402475D01*
X41416671Y-9403865D01*
X41415000Y-9411548D01*
X41415000Y-10108885D01*
X40907000Y-10108885D01*
X40907000Y-8871885D01*
X41415000Y-8871885D01*
X41419475Y-8887124D01*
X41420865Y-8888329D01*
X41428548Y-8890000D01*
X42100885Y-8890000D01*
X42116124Y-8885525D01*
X42117329Y-8884135D01*
X42119000Y-8876452D01*
X42119000Y-8848562D01*
X42118663Y-8842047D01*
X42109106Y-8749943D01*
X42106212Y-8736544D01*
X42056619Y-8587893D01*
X42050445Y-8574714D01*
X41968212Y-8441827D01*
X41959176Y-8430426D01*
X41848571Y-8320014D01*
X41837160Y-8311002D01*
X41704120Y-8228996D01*
X41690939Y-8222849D01*
X41542186Y-8173509D01*
X41528810Y-8170642D01*
X41437903Y-8161328D01*
X41432874Y-8161071D01*
X41417876Y-8165475D01*
X41416671Y-8166865D01*
X41415000Y-8174548D01*
X41415000Y-8871885D01*
X40907000Y-8871885D01*
X40907000Y-8179115D01*
X40902525Y-8163876D01*
X40901135Y-8162671D01*
X40893452Y-8161000D01*
X40890562Y-8161000D01*
X40884047Y-8161337D01*
X40791943Y-8170894D01*
X40778544Y-8173788D01*
X40629893Y-8223381D01*
X40616714Y-8229555D01*
X40483827Y-8311788D01*
X40466689Y-8325371D01*
X40465159Y-8323441D01*
X40413120Y-8351903D01*
X40342301Y-8346887D01*
X40305383Y-8323201D01*
X40304628Y-8324157D01*
X40298882Y-8319619D01*
X40293702Y-8314448D01*
X40274723Y-8302749D01*
X40154331Y-8228538D01*
X40154329Y-8228537D01*
X40148101Y-8224698D01*
X39985757Y-8170851D01*
X39978920Y-8170151D01*
X39978918Y-8170150D01*
X39937599Y-8165917D01*
X39884732Y-8160500D01*
X39610949Y-8160500D01*
X39542828Y-8140498D01*
X39521854Y-8123595D01*
X37836305Y-6438045D01*
X36141144Y-4742884D01*
X36133154Y-4734104D01*
X36133152Y-4734102D01*
X36128905Y-4727409D01*
X36097588Y-4698000D01*
X36077232Y-4678885D01*
X36074390Y-4676130D01*
X36053822Y-4655562D01*
X36050315Y-4652842D01*
X36041293Y-4645136D01*
X36025046Y-4629879D01*
X36007622Y-4613517D01*
X36000670Y-4609695D01*
X35988831Y-4603186D01*
X35972307Y-4592332D01*
X35961621Y-4584044D01*
X35955357Y-4579185D01*
X35948085Y-4576038D01*
X35948083Y-4576037D01*
X35912954Y-4560835D01*
X35902294Y-4555613D01*
X35868773Y-4537184D01*
X35868771Y-4537183D01*
X35861826Y-4533365D01*
X35841048Y-4528030D01*
X35822358Y-4521631D01*
X35802665Y-4513109D01*
X35757041Y-4505883D01*
X35745418Y-4503476D01*
X35717417Y-4496287D01*
X35700677Y-4491989D01*
X35679230Y-4491989D01*
X35659520Y-4490438D01*
X35646166Y-4488323D01*
X35638337Y-4487083D01*
X35592348Y-4491430D01*
X35580493Y-4491989D01*
X31226040Y-4491989D01*
X31157919Y-4471987D01*
X31111426Y-4418331D01*
X31101322Y-4348057D01*
X31108888Y-4319606D01*
X31110139Y-4316446D01*
X31112430Y-4311811D01*
X31116054Y-4299885D01*
X31175865Y-4103023D01*
X31175865Y-4103021D01*
X31177370Y-4098069D01*
X31206529Y-3876590D01*
X31206611Y-3873240D01*
X31208074Y-3813365D01*
X31208074Y-3813361D01*
X31208156Y-3810000D01*
X31189852Y-3587361D01*
X31135431Y-3370702D01*
X31046354Y-3165840D01*
X30925014Y-2978277D01*
X30774670Y-2813051D01*
X30770619Y-2809852D01*
X30770615Y-2809848D01*
X30603414Y-2677800D01*
X30603410Y-2677798D01*
X30599359Y-2674598D01*
X30403789Y-2566638D01*
X30398920Y-2564914D01*
X30398916Y-2564912D01*
X30198087Y-2493795D01*
X30198083Y-2493794D01*
X30193212Y-2492069D01*
X30188119Y-2491162D01*
X30188116Y-2491161D01*
X29978373Y-2453800D01*
X29978367Y-2453799D01*
X29973284Y-2452894D01*
X29899452Y-2451992D01*
X29755081Y-2450228D01*
X29755079Y-2450228D01*
X29749911Y-2450165D01*
X29529091Y-2483955D01*
X29316756Y-2553357D01*
X29286443Y-2569137D01*
X29196678Y-2615866D01*
X29118607Y-2656507D01*
X29114474Y-2659610D01*
X29114471Y-2659612D01*
X28944100Y-2787530D01*
X28939965Y-2790635D01*
X28848781Y-2886054D01*
X28806027Y-2930793D01*
X28744503Y-2966223D01*
X28673590Y-2962766D01*
X28615804Y-2921520D01*
X28600833Y-2897194D01*
X28598865Y-2892994D01*
X28596550Y-2886054D01*
X28503478Y-2735652D01*
X28378303Y-2610695D01*
X28304030Y-2564912D01*
X28233968Y-2521725D01*
X28233966Y-2521724D01*
X28227738Y-2517885D01*
X28067254Y-2464655D01*
X28066389Y-2464368D01*
X28066387Y-2464368D01*
X28059861Y-2462203D01*
X28053025Y-2461503D01*
X28053022Y-2461502D01*
X28009969Y-2457091D01*
X27955400Y-2451500D01*
X26654600Y-2451500D01*
X26651354Y-2451837D01*
X26651350Y-2451837D01*
X26555692Y-2461762D01*
X26555688Y-2461763D01*
X26548834Y-2462474D01*
X26542298Y-2464655D01*
X26542296Y-2464655D01*
X26479631Y-2485562D01*
X26381054Y-2518450D01*
X26230652Y-2611522D01*
X26225479Y-2616704D01*
X26167686Y-2674598D01*
X26105695Y-2736697D01*
X26101855Y-2742927D01*
X26101854Y-2742928D01*
X26017466Y-2879831D01*
X26012885Y-2887262D01*
X25957203Y-3055139D01*
X25946500Y-3159600D01*
X25946500Y-4185050D01*
X25926498Y-4253171D01*
X25909595Y-4274145D01*
X25703656Y-4480084D01*
X25641344Y-4514110D01*
X25614561Y-4516989D01*
X23240000Y-4516989D01*
X23171879Y-4496987D01*
X23125386Y-4443331D01*
X23114000Y-4390989D01*
X23114000Y-132703D01*
X42975743Y-132703D01*
X43013268Y-417734D01*
X43089129Y-695036D01*
X43201923Y-959476D01*
X43349561Y-1206161D01*
X43529313Y-1430528D01*
X43737851Y-1628423D01*
X43971317Y-1796186D01*
X43975112Y-1798195D01*
X43975113Y-1798196D01*
X43996869Y-1809715D01*
X44225392Y-1930712D01*
X44495373Y-2029511D01*
X44776264Y-2090755D01*
X44804841Y-2093004D01*
X44999282Y-2108307D01*
X44999291Y-2108307D01*
X45001739Y-2108500D01*
X45157271Y-2108500D01*
X45159407Y-2108354D01*
X45159418Y-2108354D01*
X45367548Y-2094165D01*
X45367554Y-2094164D01*
X45371825Y-2093873D01*
X45376020Y-2093004D01*
X45376022Y-2093004D01*
X45512583Y-2064724D01*
X45653342Y-2035574D01*
X45924343Y-1939607D01*
X46179812Y-1807750D01*
X46183313Y-1805289D01*
X46183317Y-1805287D01*
X46297417Y-1725096D01*
X46415023Y-1642441D01*
X46625622Y-1446740D01*
X46807713Y-1224268D01*
X46957927Y-979142D01*
X47073483Y-715898D01*
X47152244Y-439406D01*
X47192751Y-154784D01*
X47192845Y-136951D01*
X47194235Y128417D01*
X47194235Y128424D01*
X47194257Y132703D01*
X47156732Y417734D01*
X47080871Y695036D01*
X47070295Y719830D01*
X46969763Y955524D01*
X46969761Y955528D01*
X46968077Y959476D01*
X46820439Y1206161D01*
X46640687Y1430528D01*
X46432149Y1628423D01*
X46198683Y1796186D01*
X46176843Y1807750D01*
X46153654Y1820028D01*
X45944608Y1930712D01*
X45674627Y2029511D01*
X45393736Y2090755D01*
X45362685Y2093199D01*
X45170718Y2108307D01*
X45170709Y2108307D01*
X45168261Y2108500D01*
X45012729Y2108500D01*
X45010593Y2108354D01*
X45010582Y2108354D01*
X44802452Y2094165D01*
X44802446Y2094164D01*
X44798175Y2093873D01*
X44793980Y2093004D01*
X44793978Y2093004D01*
X44657417Y2064724D01*
X44516658Y2035574D01*
X44245657Y1939607D01*
X43990188Y1807750D01*
X43986687Y1805289D01*
X43986683Y1805287D01*
X43976594Y1798196D01*
X43754977Y1642441D01*
X43544378Y1446740D01*
X43362287Y1224268D01*
X43212073Y979142D01*
X43096517Y715898D01*
X43017756Y439406D01*
X42977249Y154784D01*
X42977227Y150495D01*
X42977226Y150488D01*
X42975765Y-128417D01*
X42975743Y-132703D01*
X23114000Y-132703D01*
X23114000Y3176000D01*
X23134002Y3244121D01*
X23187658Y3290614D01*
X23240000Y3302000D01*
X45035672Y3302000D01*
X45055057Y3300500D01*
G37*
G04 #@! TD.AperFunction*
M02*
