M48
; DRILL file {KiCad (6.0.0)} date Sun Mar 13 20:52:08 2022
; FORMAT={-:-/ absolute / metric / decimal}
; #@! TF.CreationDate,2022-03-13T20:52:08-04:00
; #@! TF.GenerationSoftware,Kicad,Pcbnew,(6.0.0)
; #@! TF.FileFunction,Plated,1,2,PTH
FMAT,2
METRIC
; #@! TA.AperFunction,Plated,PTH,ViaDrill
T1C0.400
; #@! TA.AperFunction,Plated,PTH,ComponentDrill
T2C1.000
%
G90
G05
T1
X-1.27Y-27.94
X1.905Y-17.145
X3.556Y-2.794
X8.255Y-36.195
X8.39Y-13.2
X14.605Y-23.495
X17.145Y-24.13
X17.78Y-15.24
X18.415Y-12.065
X19.05Y-6.096
X19.05Y-13.97
X21.082Y-39.878
X22.86Y-35.56
X23.495Y-15.875
X26.67Y-27.305
X27.305Y-15.875
X31.115Y-13.97
X31.75Y-36.195
X35.56Y-13.335
X44.704Y-19.812
T2
X-1.27Y-6.99
X-1.27Y-9.53
X-1.27Y-15.875
X-1.27Y-18.415
X-1.27Y-20.955
X17.145Y-26.05
X17.145Y-28.59
X17.145Y-31.13
X23.495Y-31.115
X26.035Y-31.115
X27.305Y-3.81
X27.305Y-6.35
X27.305Y-8.89
X28.575Y-31.115
X29.845Y-3.81
X29.845Y-6.35
X29.845Y-8.89
X31.115Y-31.115
X35.56Y-33.345
X38.1Y-33.345
X40.64Y-33.345
X41.275Y-20.955
X41.275Y-23.495
X41.275Y-26.035
X41.275Y-28.575
X43.18Y-33.345
X45.72Y-33.345
T0
M30
