G04 #@! TF.GenerationSoftware,KiCad,Pcbnew,(6.0.4)*
G04 #@! TF.CreationDate,2022-12-31T00:28:06-05:00*
G04 #@! TF.ProjectId,esp8266 atmosphere sensor,65737038-3236-4362-9061-746d6f737068,rev?*
G04 #@! TF.SameCoordinates,Original*
G04 #@! TF.FileFunction,Soldermask,Bot*
G04 #@! TF.FilePolarity,Negative*
%FSLAX46Y46*%
G04 Gerber Fmt 4.6, Leading zero omitted, Abs format (unit mm)*
G04 Created by KiCad (PCBNEW (6.0.4)) date 2022-12-31 00:28:06*
%MOMM*%
%LPD*%
G01*
G04 APERTURE LIST*
G04 Aperture macros list*
%AMRoundRect*
0 Rectangle with rounded corners*
0 $1 Rounding radius*
0 $2 $3 $4 $5 $6 $7 $8 $9 X,Y pos of 4 corners*
0 Add a 4 corners polygon primitive as box body*
4,1,4,$2,$3,$4,$5,$6,$7,$8,$9,$2,$3,0*
0 Add four circle primitives for the rounded corners*
1,1,$1+$1,$2,$3*
1,1,$1+$1,$4,$5*
1,1,$1+$1,$6,$7*
1,1,$1+$1,$8,$9*
0 Add four rect primitives between the rounded corners*
20,1,$1+$1,$2,$3,$4,$5,0*
20,1,$1+$1,$4,$5,$6,$7,0*
20,1,$1+$1,$6,$7,$8,$9,0*
20,1,$1+$1,$8,$9,$2,$3,0*%
G04 Aperture macros list end*
%ADD10C,0.550000*%
%ADD11RoundRect,0.250000X-0.600000X-0.600000X0.600000X-0.600000X0.600000X0.600000X-0.600000X0.600000X0*%
%ADD12C,1.700000*%
%ADD13C,3.200000*%
%ADD14R,1.700000X1.700000*%
%ADD15O,1.700000X1.700000*%
%ADD16RoundRect,0.200000X-0.200000X-0.275000X0.200000X-0.275000X0.200000X0.275000X-0.200000X0.275000X0*%
%ADD17RoundRect,0.200000X0.275000X-0.200000X0.275000X0.200000X-0.275000X0.200000X-0.275000X-0.200000X0*%
%ADD18RoundRect,0.225000X-0.250000X0.225000X-0.250000X-0.225000X0.250000X-0.225000X0.250000X0.225000X0*%
%ADD19RoundRect,0.200000X-0.275000X0.200000X-0.275000X-0.200000X0.275000X-0.200000X0.275000X0.200000X0*%
%ADD20RoundRect,0.225000X-0.225000X-0.250000X0.225000X-0.250000X0.225000X0.250000X-0.225000X0.250000X0*%
%ADD21RoundRect,0.250000X1.500000X-0.250000X1.500000X0.250000X-1.500000X0.250000X-1.500000X-0.250000X0*%
%ADD22RoundRect,0.250001X1.449999X-0.499999X1.449999X0.499999X-1.449999X0.499999X-1.449999X-0.499999X0*%
%ADD23RoundRect,0.225000X0.225000X0.250000X-0.225000X0.250000X-0.225000X-0.250000X0.225000X-0.250000X0*%
%ADD24RoundRect,0.250000X-1.500000X0.250000X-1.500000X-0.250000X1.500000X-0.250000X1.500000X0.250000X0*%
%ADD25RoundRect,0.250001X-1.449999X0.499999X-1.449999X-0.499999X1.449999X-0.499999X1.449999X0.499999X0*%
%ADD26RoundRect,0.225000X0.250000X-0.225000X0.250000X0.225000X-0.250000X0.225000X-0.250000X-0.225000X0*%
G04 APERTURE END LIST*
D10*
X16605000Y-37890000D03*
X12605000Y-37890000D03*
D11*
X27305000Y-3810000D03*
D12*
X29845000Y-3810000D03*
X27305000Y-6350000D03*
X29845000Y-6350000D03*
X27305000Y-8890000D03*
X29845000Y-8890000D03*
D13*
X0Y-40005000D03*
D14*
X35560000Y-33345000D03*
D15*
X38100000Y-33345000D03*
X40640000Y-33345000D03*
X43180000Y-33345000D03*
X45720000Y-33345000D03*
D14*
X17145000Y-31130000D03*
D15*
X17145000Y-28590000D03*
X17145000Y-26050000D03*
D14*
X31115000Y-31115000D03*
D15*
X28575000Y-31115000D03*
X26035000Y-31115000D03*
X23495000Y-31115000D03*
D13*
X45085000Y0D03*
D14*
X41275000Y-20955000D03*
D15*
X41275000Y-23495000D03*
X41275000Y-26035000D03*
X41275000Y-28575000D03*
D13*
X0Y0D03*
D14*
X-1270000Y-20955000D03*
D15*
X-1270000Y-18415000D03*
X-1270000Y-15875000D03*
D13*
X45085000Y-40005000D03*
D14*
X-1270000Y-9530000D03*
D15*
X-1270000Y-6990000D03*
D16*
X4763000Y-38608000D03*
X6413000Y-38608000D03*
D17*
X22225000Y-37020000D03*
X22225000Y-35370000D03*
X33274000Y-16319000D03*
X33274000Y-14669000D03*
D18*
X11176000Y-19291000D03*
X11176000Y-20841000D03*
D19*
X11176000Y-26861000D03*
X11176000Y-28511000D03*
D16*
X18479000Y-37338000D03*
X20129000Y-37338000D03*
D19*
X34544000Y-8573000D03*
X34544000Y-10223000D03*
D20*
X12941000Y-7112000D03*
X14491000Y-7112000D03*
D21*
X8184000Y-11144000D03*
X8184000Y-9144000D03*
X8184000Y-7144000D03*
D22*
X2434000Y-4794000D03*
X2434000Y-13494000D03*
D19*
X34544000Y-11621000D03*
X34544000Y-13271000D03*
D16*
X7811000Y-38608000D03*
X9461000Y-38608000D03*
D20*
X26911000Y-22860000D03*
X28461000Y-22860000D03*
D21*
X8184000Y-22574000D03*
X8184000Y-20574000D03*
X8184000Y-18574000D03*
D22*
X2434000Y-24924000D03*
X2434000Y-16224000D03*
D17*
X11176000Y-14287000D03*
X11176000Y-12637000D03*
D23*
X20079000Y-38862000D03*
X18529000Y-38862000D03*
D21*
X8184000Y-34004000D03*
X8184000Y-32004000D03*
X8184000Y-30004000D03*
D22*
X2434000Y-36354000D03*
X2434000Y-27654000D03*
D17*
X11176000Y-23939000D03*
X11176000Y-22289000D03*
X37338000Y-14033000D03*
X37338000Y-12383000D03*
D19*
X12700000Y-22289000D03*
X12700000Y-23939000D03*
D24*
X31440000Y-20606000D03*
X31440000Y-22606000D03*
X31440000Y-24606000D03*
D25*
X37190000Y-26956000D03*
X37190000Y-18256000D03*
D17*
X22225000Y-40195000D03*
X22225000Y-38545000D03*
D26*
X37338000Y-10935000D03*
X37338000Y-9385000D03*
D24*
X40330000Y-7398000D03*
X40330000Y-9398000D03*
X40330000Y-11398000D03*
D25*
X46080000Y-5048000D03*
X46080000Y-13748000D03*
D16*
X30163000Y-16256000D03*
X31813000Y-16256000D03*
D19*
X11176000Y-16193000D03*
X11176000Y-17843000D03*
D24*
X26360000Y-36100000D03*
X26360000Y-38100000D03*
X26360000Y-40100000D03*
D25*
X32110000Y-42450000D03*
X32110000Y-33750000D03*
D17*
X28448000Y-26225000D03*
X28448000Y-24575000D03*
D16*
X11113000Y-11176000D03*
X12763000Y-11176000D03*
D19*
X11430000Y-5334000D03*
X11430000Y-6984000D03*
D18*
X11176000Y-29959000D03*
X11176000Y-31509000D03*
M02*
