G04 #@! TF.GenerationSoftware,KiCad,Pcbnew,(6.0.4)*
G04 #@! TF.CreationDate,2022-12-31T00:28:06-05:00*
G04 #@! TF.ProjectId,esp8266 atmosphere sensor,65737038-3236-4362-9061-746d6f737068,rev?*
G04 #@! TF.SameCoordinates,Original*
G04 #@! TF.FileFunction,Legend,Top*
G04 #@! TF.FilePolarity,Positive*
%FSLAX46Y46*%
G04 Gerber Fmt 4.6, Leading zero omitted, Abs format (unit mm)*
G04 Created by KiCad (PCBNEW (6.0.4)) date 2022-12-31 00:28:06*
%MOMM*%
%LPD*%
G01*
G04 APERTURE LIST*
G04 Aperture macros list*
%AMRoundRect*
0 Rectangle with rounded corners*
0 $1 Rounding radius*
0 $2 $3 $4 $5 $6 $7 $8 $9 X,Y pos of 4 corners*
0 Add a 4 corners polygon primitive as box body*
4,1,4,$2,$3,$4,$5,$6,$7,$8,$9,$2,$3,0*
0 Add four circle primitives for the rounded corners*
1,1,$1+$1,$2,$3*
1,1,$1+$1,$4,$5*
1,1,$1+$1,$6,$7*
1,1,$1+$1,$8,$9*
0 Add four rect primitives between the rounded corners*
20,1,$1+$1,$2,$3,$4,$5,0*
20,1,$1+$1,$4,$5,$6,$7,0*
20,1,$1+$1,$6,$7,$8,$9,0*
20,1,$1+$1,$8,$9,$2,$3,0*%
G04 Aperture macros list end*
%ADD10C,0.150000*%
%ADD11C,0.100000*%
%ADD12C,0.200000*%
%ADD13C,0.120000*%
%ADD14C,0.550000*%
%ADD15R,0.400000X1.350000*%
%ADD16R,1.900000X1.900000*%
%ADD17RoundRect,0.250000X-0.600000X-0.600000X0.600000X-0.600000X0.600000X0.600000X-0.600000X0.600000X0*%
%ADD18C,1.700000*%
%ADD19RoundRect,0.218750X-0.218750X-0.256250X0.218750X-0.256250X0.218750X0.256250X-0.218750X0.256250X0*%
%ADD20C,3.200000*%
%ADD21R,2.500000X1.000000*%
%ADD22R,1.000000X1.800000*%
%ADD23R,1.700000X1.700000*%
%ADD24O,1.700000X1.700000*%
%ADD25RoundRect,0.200000X0.200000X0.275000X-0.200000X0.275000X-0.200000X-0.275000X0.200000X-0.275000X0*%
%ADD26RoundRect,0.200000X-0.200000X-0.275000X0.200000X-0.275000X0.200000X0.275000X-0.200000X0.275000X0*%
%ADD27R,1.500000X2.000000*%
%ADD28R,3.800000X2.000000*%
%ADD29RoundRect,0.225000X0.225000X0.250000X-0.225000X0.250000X-0.225000X-0.250000X0.225000X-0.250000X0*%
%ADD30RoundRect,0.250000X0.325000X0.650000X-0.325000X0.650000X-0.325000X-0.650000X0.325000X-0.650000X0*%
%ADD31R,1.600000X1.400000*%
%ADD32RoundRect,0.250000X-0.650000X0.325000X-0.650000X-0.325000X0.650000X-0.325000X0.650000X0.325000X0*%
%ADD33RoundRect,0.225000X-0.225000X-0.250000X0.225000X-0.250000X0.225000X0.250000X-0.225000X0.250000X0*%
%ADD34RoundRect,0.150000X0.625000X-0.150000X0.625000X0.150000X-0.625000X0.150000X-0.625000X-0.150000X0*%
%ADD35RoundRect,0.250000X0.650000X-0.350000X0.650000X0.350000X-0.650000X0.350000X-0.650000X-0.350000X0*%
G04 APERTURE END LIST*
D10*
X19677142Y-25535000D02*
X19581904Y-25487380D01*
X19439047Y-25487380D01*
X19296190Y-25535000D01*
X19200952Y-25630238D01*
X19153333Y-25725476D01*
X19105714Y-25915952D01*
X19105714Y-26058809D01*
X19153333Y-26249285D01*
X19200952Y-26344523D01*
X19296190Y-26439761D01*
X19439047Y-26487380D01*
X19534285Y-26487380D01*
X19677142Y-26439761D01*
X19724761Y-26392142D01*
X19724761Y-26058809D01*
X19534285Y-26058809D01*
X20153333Y-25820714D02*
X20153333Y-26487380D01*
X20153333Y-25915952D02*
X20200952Y-25868333D01*
X20296190Y-25820714D01*
X20439047Y-25820714D01*
X20534285Y-25868333D01*
X20581904Y-25963571D01*
X20581904Y-26487380D01*
X21486666Y-26487380D02*
X21486666Y-25487380D01*
X21486666Y-26439761D02*
X21391428Y-26487380D01*
X21200952Y-26487380D01*
X21105714Y-26439761D01*
X21058095Y-26392142D01*
X21010476Y-26296904D01*
X21010476Y-26011190D01*
X21058095Y-25915952D01*
X21105714Y-25868333D01*
X21200952Y-25820714D01*
X21391428Y-25820714D01*
X21486666Y-25868333D01*
X4699047Y-33091428D02*
X5460952Y-33091428D01*
X5080000Y-33472380D02*
X5080000Y-32710476D01*
X19097857Y-29027380D02*
X19097857Y-28027380D01*
X19764523Y-28027380D02*
X19955000Y-28027380D01*
X20050238Y-28075000D01*
X20145476Y-28170238D01*
X20193095Y-28360714D01*
X20193095Y-28694047D01*
X20145476Y-28884523D01*
X20050238Y-28979761D01*
X19955000Y-29027380D01*
X19764523Y-29027380D01*
X19669285Y-28979761D01*
X19574047Y-28884523D01*
X19526428Y-28694047D01*
X19526428Y-28360714D01*
X19574047Y-28170238D01*
X19669285Y-28075000D01*
X19764523Y-28027380D01*
X20383571Y-29122619D02*
X21145476Y-29122619D01*
X21907380Y-29027380D02*
X21335952Y-29027380D01*
X21621666Y-29027380D02*
X21621666Y-28027380D01*
X21526428Y-28170238D01*
X21431190Y-28265476D01*
X21335952Y-28313095D01*
X22240714Y-28027380D02*
X22859761Y-28027380D01*
X22526428Y-28408333D01*
X22669285Y-28408333D01*
X22764523Y-28455952D01*
X22812142Y-28503571D01*
X22859761Y-28598809D01*
X22859761Y-28836904D01*
X22812142Y-28932142D01*
X22764523Y-28979761D01*
X22669285Y-29027380D01*
X22383571Y-29027380D01*
X22288333Y-28979761D01*
X22240714Y-28932142D01*
X18891428Y-30567380D02*
X19510476Y-30567380D01*
X19177142Y-30948333D01*
X19320000Y-30948333D01*
X19415238Y-30995952D01*
X19462857Y-31043571D01*
X19510476Y-31138809D01*
X19510476Y-31376904D01*
X19462857Y-31472142D01*
X19415238Y-31519761D01*
X19320000Y-31567380D01*
X19034285Y-31567380D01*
X18939047Y-31519761D01*
X18891428Y-31472142D01*
X19939047Y-31472142D02*
X19986666Y-31519761D01*
X19939047Y-31567380D01*
X19891428Y-31519761D01*
X19939047Y-31472142D01*
X19939047Y-31567380D01*
X20320000Y-30567380D02*
X20939047Y-30567380D01*
X20605714Y-30948333D01*
X20748571Y-30948333D01*
X20843809Y-30995952D01*
X20891428Y-31043571D01*
X20939047Y-31138809D01*
X20939047Y-31376904D01*
X20891428Y-31472142D01*
X20843809Y-31519761D01*
X20748571Y-31567380D01*
X20462857Y-31567380D01*
X20367619Y-31519761D01*
X20320000Y-31472142D01*
X21272380Y-30900714D02*
X21510476Y-31567380D01*
X21748571Y-30900714D01*
X1262142Y-15375000D02*
X1166904Y-15327380D01*
X1024047Y-15327380D01*
X881190Y-15375000D01*
X785952Y-15470238D01*
X738333Y-15565476D01*
X690714Y-15755952D01*
X690714Y-15898809D01*
X738333Y-16089285D01*
X785952Y-16184523D01*
X881190Y-16279761D01*
X1024047Y-16327380D01*
X1119285Y-16327380D01*
X1262142Y-16279761D01*
X1309761Y-16232142D01*
X1309761Y-15898809D01*
X1119285Y-15898809D01*
X1738333Y-15660714D02*
X1738333Y-16327380D01*
X1738333Y-15755952D02*
X1785952Y-15708333D01*
X1881190Y-15660714D01*
X2024047Y-15660714D01*
X2119285Y-15708333D01*
X2166904Y-15803571D01*
X2166904Y-16327380D01*
X3071666Y-16327380D02*
X3071666Y-15327380D01*
X3071666Y-16279761D02*
X2976428Y-16327380D01*
X2785952Y-16327380D01*
X2690714Y-16279761D01*
X2643095Y-16232142D01*
X2595476Y-16136904D01*
X2595476Y-15851190D01*
X2643095Y-15755952D01*
X2690714Y-15708333D01*
X2785952Y-15660714D01*
X2976428Y-15660714D01*
X3071666Y-15708333D01*
X-1770000Y-13342857D02*
X-1817619Y-13438095D01*
X-1817619Y-13580952D01*
X-1770000Y-13723809D01*
X-1674761Y-13819047D01*
X-1579523Y-13866666D01*
X-1389047Y-13914285D01*
X-1246190Y-13914285D01*
X-1055714Y-13866666D01*
X-960476Y-13819047D01*
X-865238Y-13723809D01*
X-817619Y-13580952D01*
X-817619Y-13485714D01*
X-865238Y-13342857D01*
X-912857Y-13295238D01*
X-1246190Y-13295238D01*
X-1246190Y-13485714D01*
X-1484285Y-12866666D02*
X-817619Y-12866666D01*
X-1389047Y-12866666D02*
X-1436666Y-12819047D01*
X-1484285Y-12723809D01*
X-1484285Y-12580952D01*
X-1436666Y-12485714D01*
X-1341428Y-12438095D01*
X-817619Y-12438095D01*
X-817619Y-11533333D02*
X-1817619Y-11533333D01*
X-865238Y-11533333D02*
X-817619Y-11628571D01*
X-817619Y-11819047D01*
X-865238Y-11914285D01*
X-912857Y-11961904D01*
X-1008095Y-12009523D01*
X-1293809Y-12009523D01*
X-1389047Y-11961904D01*
X-1436666Y-11914285D01*
X-1484285Y-11819047D01*
X-1484285Y-11628571D01*
X-1436666Y-11533333D01*
X-1103333Y-5119523D02*
X-1103333Y-4643333D01*
X-817619Y-5214761D02*
X-1817619Y-4881428D01*
X-817619Y-4548095D01*
X-722380Y-4452857D02*
X-722380Y-3690952D01*
X-817619Y-3452857D02*
X-1484285Y-3452857D01*
X-1817619Y-3452857D02*
X-1770000Y-3500476D01*
X-1722380Y-3452857D01*
X-1770000Y-3405238D01*
X-1817619Y-3452857D01*
X-1722380Y-3452857D01*
X-1484285Y-2976666D02*
X-817619Y-2976666D01*
X-1389047Y-2976666D02*
X-1436666Y-2929047D01*
X-1484285Y-2833809D01*
X-1484285Y-2690952D01*
X-1436666Y-2595714D01*
X-1341428Y-2548095D01*
X-817619Y-2548095D01*
X1127142Y-17867380D02*
X650952Y-17867380D01*
X603333Y-18343571D01*
X650952Y-18295952D01*
X746190Y-18248333D01*
X984285Y-18248333D01*
X1079523Y-18295952D01*
X1127142Y-18343571D01*
X1174761Y-18438809D01*
X1174761Y-18676904D01*
X1127142Y-18772142D01*
X1079523Y-18819761D01*
X984285Y-18867380D01*
X746190Y-18867380D01*
X650952Y-18819761D01*
X603333Y-18772142D01*
X1508095Y-18200714D02*
X1746190Y-18867380D01*
X1984285Y-18200714D01*
X476428Y-20407380D02*
X1095476Y-20407380D01*
X762142Y-20788333D01*
X905000Y-20788333D01*
X1000238Y-20835952D01*
X1047857Y-20883571D01*
X1095476Y-20978809D01*
X1095476Y-21216904D01*
X1047857Y-21312142D01*
X1000238Y-21359761D01*
X905000Y-21407380D01*
X619285Y-21407380D01*
X524047Y-21359761D01*
X476428Y-21312142D01*
X1524047Y-21312142D02*
X1571666Y-21359761D01*
X1524047Y-21407380D01*
X1476428Y-21359761D01*
X1524047Y-21312142D01*
X1524047Y-21407380D01*
X1905000Y-20407380D02*
X2524047Y-20407380D01*
X2190714Y-20788333D01*
X2333571Y-20788333D01*
X2428809Y-20835952D01*
X2476428Y-20883571D01*
X2524047Y-20978809D01*
X2524047Y-21216904D01*
X2476428Y-21312142D01*
X2428809Y-21359761D01*
X2333571Y-21407380D01*
X2047857Y-21407380D01*
X1952619Y-21359761D01*
X1905000Y-21312142D01*
X2857380Y-20740714D02*
X3095476Y-21407380D01*
X3333571Y-20740714D01*
X5715047Y-24201428D02*
X6476952Y-24201428D01*
X6096000Y-24582380D02*
X6096000Y-23820476D01*
X28241666Y2837619D02*
X28241666Y2123333D01*
X28194047Y1980476D01*
X28098809Y1885238D01*
X27955952Y1837619D01*
X27860714Y1837619D01*
X29241666Y1837619D02*
X28670238Y1837619D01*
X28955952Y1837619D02*
X28955952Y2837619D01*
X28860714Y2694761D01*
X28765476Y2599523D01*
X28670238Y2551904D01*
X9557047Y-29027380D02*
X9223714Y-28551190D01*
X8985619Y-29027380D02*
X8985619Y-28027380D01*
X9366571Y-28027380D01*
X9461809Y-28075000D01*
X9509428Y-28122619D01*
X9557047Y-28217857D01*
X9557047Y-28360714D01*
X9509428Y-28455952D01*
X9461809Y-28503571D01*
X9366571Y-28551190D01*
X8985619Y-28551190D01*
X9985619Y-28503571D02*
X10318952Y-28503571D01*
X10461809Y-29027380D02*
X9985619Y-29027380D01*
X9985619Y-28027380D01*
X10461809Y-28027380D01*
X10890380Y-29027380D02*
X10890380Y-28027380D01*
X11128476Y-28027380D01*
X11271333Y-28075000D01*
X11366571Y-28170238D01*
X11414190Y-28265476D01*
X11461809Y-28455952D01*
X11461809Y-28598809D01*
X11414190Y-28789285D01*
X11366571Y-28884523D01*
X11271333Y-28979761D01*
X11128476Y-29027380D01*
X10890380Y-29027380D01*
X13128476Y-29027380D02*
X12652285Y-29027380D01*
X12652285Y-28027380D01*
X13461809Y-28503571D02*
X13795142Y-28503571D01*
X13938000Y-29027380D02*
X13461809Y-29027380D01*
X13461809Y-28027380D01*
X13938000Y-28027380D01*
X14366571Y-29027380D02*
X14366571Y-28027380D01*
X14604666Y-28027380D01*
X14747523Y-28075000D01*
X14842761Y-28170238D01*
X14890380Y-28265476D01*
X14938000Y-28455952D01*
X14938000Y-28598809D01*
X14890380Y-28789285D01*
X14842761Y-28884523D01*
X14747523Y-28979761D01*
X14604666Y-29027380D01*
X14366571Y-29027380D01*
X41044761Y-37409285D02*
X41092380Y-37266428D01*
X41092380Y-37028333D01*
X41044761Y-36933095D01*
X40997142Y-36885476D01*
X40901904Y-36837857D01*
X40806666Y-36837857D01*
X40711428Y-36885476D01*
X40663809Y-36933095D01*
X40616190Y-37028333D01*
X40568571Y-37218809D01*
X40520952Y-37314047D01*
X40473333Y-37361666D01*
X40378095Y-37409285D01*
X40282857Y-37409285D01*
X40187619Y-37361666D01*
X40140000Y-37314047D01*
X40092380Y-37218809D01*
X40092380Y-36980714D01*
X40140000Y-36837857D01*
X41092380Y-36409285D02*
X40092380Y-36409285D01*
X40092380Y-36171190D01*
X40140000Y-36028333D01*
X40235238Y-35933095D01*
X40330476Y-35885476D01*
X40520952Y-35837857D01*
X40663809Y-35837857D01*
X40854285Y-35885476D01*
X40949523Y-35933095D01*
X41044761Y-36028333D01*
X41092380Y-36171190D01*
X41092380Y-36409285D01*
X40806666Y-35456904D02*
X40806666Y-34980714D01*
X41092380Y-35552142D02*
X40092380Y-35218809D01*
X41092380Y-34885476D01*
X45172380Y-37623571D02*
X45172380Y-37004523D01*
X45553333Y-37337857D01*
X45553333Y-37195000D01*
X45600952Y-37099761D01*
X45648571Y-37052142D01*
X45743809Y-37004523D01*
X45981904Y-37004523D01*
X46077142Y-37052142D01*
X46124761Y-37099761D01*
X46172380Y-37195000D01*
X46172380Y-37480714D01*
X46124761Y-37575952D01*
X46077142Y-37623571D01*
X46077142Y-36575952D02*
X46124761Y-36528333D01*
X46172380Y-36575952D01*
X46124761Y-36623571D01*
X46077142Y-36575952D01*
X46172380Y-36575952D01*
X45172380Y-36195000D02*
X45172380Y-35575952D01*
X45553333Y-35909285D01*
X45553333Y-35766428D01*
X45600952Y-35671190D01*
X45648571Y-35623571D01*
X45743809Y-35575952D01*
X45981904Y-35575952D01*
X46077142Y-35623571D01*
X46124761Y-35671190D01*
X46172380Y-35766428D01*
X46172380Y-36052142D01*
X46124761Y-36147380D01*
X46077142Y-36195000D01*
X45505714Y-35242619D02*
X46172380Y-35004523D01*
X45505714Y-34766428D01*
X35695000Y-30313095D02*
X35647380Y-30408333D01*
X35647380Y-30551190D01*
X35695000Y-30694047D01*
X35790238Y-30789285D01*
X35885476Y-30836904D01*
X36075952Y-30884523D01*
X36218809Y-30884523D01*
X36409285Y-30836904D01*
X36504523Y-30789285D01*
X36599761Y-30694047D01*
X36647380Y-30551190D01*
X36647380Y-30455952D01*
X36599761Y-30313095D01*
X36552142Y-30265476D01*
X36218809Y-30265476D01*
X36218809Y-30455952D01*
X36171190Y-29646428D02*
X36647380Y-29646428D01*
X35647380Y-29979761D02*
X36171190Y-29646428D01*
X35647380Y-29313095D01*
X36266428Y-28979761D02*
X36266428Y-28217857D01*
X35647380Y-27836904D02*
X35647380Y-27217857D01*
X36028333Y-27551190D01*
X36028333Y-27408333D01*
X36075952Y-27313095D01*
X36123571Y-27265476D01*
X36218809Y-27217857D01*
X36456904Y-27217857D01*
X36552142Y-27265476D01*
X36599761Y-27313095D01*
X36647380Y-27408333D01*
X36647380Y-27694047D01*
X36599761Y-27789285D01*
X36552142Y-27836904D01*
X35647380Y-26598809D02*
X35647380Y-26503571D01*
X35695000Y-26408333D01*
X35742619Y-26360714D01*
X35837857Y-26313095D01*
X36028333Y-26265476D01*
X36266428Y-26265476D01*
X36456904Y-26313095D01*
X36552142Y-26360714D01*
X36599761Y-26408333D01*
X36647380Y-26503571D01*
X36647380Y-26598809D01*
X36599761Y-26694047D01*
X36552142Y-26741666D01*
X36456904Y-26789285D01*
X36266428Y-26836904D01*
X36028333Y-26836904D01*
X35837857Y-26789285D01*
X35742619Y-26741666D01*
X35695000Y-26694047D01*
X35647380Y-26598809D01*
X34456666Y-26311666D02*
X34456666Y-25835476D01*
X34742380Y-26406904D02*
X33742380Y-26073571D01*
X34742380Y-25740238D01*
X34742380Y-24978333D02*
X33742380Y-24978333D01*
X34694761Y-24978333D02*
X34742380Y-25073571D01*
X34742380Y-25264047D01*
X34694761Y-25359285D01*
X34647142Y-25406904D01*
X34551904Y-25454523D01*
X34266190Y-25454523D01*
X34170952Y-25406904D01*
X34123333Y-25359285D01*
X34075714Y-25264047D01*
X34075714Y-25073571D01*
X34123333Y-24978333D01*
X34742380Y-24073571D02*
X33742380Y-24073571D01*
X34694761Y-24073571D02*
X34742380Y-24168809D01*
X34742380Y-24359285D01*
X34694761Y-24454523D01*
X34647142Y-24502142D01*
X34551904Y-24549761D01*
X34266190Y-24549761D01*
X34170952Y-24502142D01*
X34123333Y-24454523D01*
X34075714Y-24359285D01*
X34075714Y-24168809D01*
X34123333Y-24073571D01*
X34742380Y-23597380D02*
X34075714Y-23597380D01*
X34266190Y-23597380D02*
X34170952Y-23549761D01*
X34123333Y-23502142D01*
X34075714Y-23406904D01*
X34075714Y-23311666D01*
X34218571Y-22216428D02*
X34218571Y-21454523D01*
X34504285Y-21454523D02*
X34504285Y-22216428D01*
X33742380Y-20025952D02*
X33742380Y-19930714D01*
X33790000Y-19835476D01*
X33837619Y-19787857D01*
X33932857Y-19740238D01*
X34123333Y-19692619D01*
X34361428Y-19692619D01*
X34551904Y-19740238D01*
X34647142Y-19787857D01*
X34694761Y-19835476D01*
X34742380Y-19930714D01*
X34742380Y-20025952D01*
X34694761Y-20121190D01*
X34647142Y-20168809D01*
X34551904Y-20216428D01*
X34361428Y-20264047D01*
X34123333Y-20264047D01*
X33932857Y-20216428D01*
X33837619Y-20168809D01*
X33790000Y-20121190D01*
X33742380Y-20025952D01*
X34075714Y-19359285D02*
X34742380Y-19121190D01*
X34075714Y-18883095D01*
X33694761Y-17787857D02*
X34980476Y-18645000D01*
X34075714Y-17597380D02*
X34075714Y-17216428D01*
X34742380Y-17454523D02*
X33885238Y-17454523D01*
X33790000Y-17406904D01*
X33742380Y-17311666D01*
X33742380Y-17216428D01*
X34742380Y-16740238D02*
X34694761Y-16835476D01*
X34599523Y-16883095D01*
X33742380Y-16883095D01*
X34742380Y-16216428D02*
X34694761Y-16311666D01*
X34647142Y-16359285D01*
X34551904Y-16406904D01*
X34266190Y-16406904D01*
X34170952Y-16359285D01*
X34123333Y-16311666D01*
X34075714Y-16216428D01*
X34075714Y-16073571D01*
X34123333Y-15978333D01*
X34170952Y-15930714D01*
X34266190Y-15883095D01*
X34551904Y-15883095D01*
X34647142Y-15930714D01*
X34694761Y-15978333D01*
X34742380Y-16073571D01*
X34742380Y-16216428D01*
X34742380Y-15025952D02*
X34218571Y-15025952D01*
X34123333Y-15073571D01*
X34075714Y-15168809D01*
X34075714Y-15359285D01*
X34123333Y-15454523D01*
X34694761Y-15025952D02*
X34742380Y-15121190D01*
X34742380Y-15359285D01*
X34694761Y-15454523D01*
X34599523Y-15502142D01*
X34504285Y-15502142D01*
X34409047Y-15454523D01*
X34361428Y-15359285D01*
X34361428Y-15121190D01*
X34313809Y-15025952D01*
X34075714Y-14692619D02*
X34075714Y-14311666D01*
X33742380Y-14549761D02*
X34599523Y-14549761D01*
X34694761Y-14502142D01*
X34742380Y-14406904D01*
X34742380Y-14311666D01*
X34218571Y-13216428D02*
X34218571Y-12454523D01*
X34504285Y-12454523D02*
X34504285Y-13216428D01*
X33742380Y-11025952D02*
X33742380Y-10930714D01*
X33790000Y-10835476D01*
X33837619Y-10787857D01*
X33932857Y-10740238D01*
X34123333Y-10692619D01*
X34361428Y-10692619D01*
X34551904Y-10740238D01*
X34647142Y-10787857D01*
X34694761Y-10835476D01*
X34742380Y-10930714D01*
X34742380Y-11025952D01*
X34694761Y-11121190D01*
X34647142Y-11168809D01*
X34551904Y-11216428D01*
X34361428Y-11264047D01*
X34123333Y-11264047D01*
X33932857Y-11216428D01*
X33837619Y-11168809D01*
X33790000Y-11121190D01*
X33742380Y-11025952D01*
X34742380Y-10359285D02*
X34075714Y-9835476D01*
X34075714Y-10359285D02*
X34742380Y-9835476D01*
X33837619Y-9502142D02*
X33790000Y-9454523D01*
X33742380Y-9359285D01*
X33742380Y-9121190D01*
X33790000Y-9025952D01*
X33837619Y-8978333D01*
X33932857Y-8930714D01*
X34028095Y-8930714D01*
X34170952Y-8978333D01*
X34742380Y-9549761D01*
X34742380Y-8930714D01*
X33742380Y-8597380D02*
X33742380Y-7978333D01*
X34123333Y-8311666D01*
X34123333Y-8168809D01*
X34170952Y-8073571D01*
X34218571Y-8025952D01*
X34313809Y-7978333D01*
X34551904Y-7978333D01*
X34647142Y-8025952D01*
X34694761Y-8073571D01*
X34742380Y-8168809D01*
X34742380Y-8454523D01*
X34694761Y-8549761D01*
X34647142Y-8597380D01*
X43584761Y-37385476D02*
X43632380Y-37242619D01*
X43632380Y-37004523D01*
X43584761Y-36909285D01*
X43537142Y-36861666D01*
X43441904Y-36814047D01*
X43346666Y-36814047D01*
X43251428Y-36861666D01*
X43203809Y-36909285D01*
X43156190Y-37004523D01*
X43108571Y-37195000D01*
X43060952Y-37290238D01*
X43013333Y-37337857D01*
X42918095Y-37385476D01*
X42822857Y-37385476D01*
X42727619Y-37337857D01*
X42680000Y-37290238D01*
X42632380Y-37195000D01*
X42632380Y-36956904D01*
X42680000Y-36814047D01*
X43537142Y-35814047D02*
X43584761Y-35861666D01*
X43632380Y-36004523D01*
X43632380Y-36099761D01*
X43584761Y-36242619D01*
X43489523Y-36337857D01*
X43394285Y-36385476D01*
X43203809Y-36433095D01*
X43060952Y-36433095D01*
X42870476Y-36385476D01*
X42775238Y-36337857D01*
X42680000Y-36242619D01*
X42632380Y-36099761D01*
X42632380Y-36004523D01*
X42680000Y-35861666D01*
X42727619Y-35814047D01*
X43632380Y-34909285D02*
X43632380Y-35385476D01*
X42632380Y-35385476D01*
X38266666Y-37647380D02*
X38266666Y-37171190D01*
X38552380Y-37742619D02*
X37552380Y-37409285D01*
X38552380Y-37075952D01*
X38552380Y-36314047D02*
X37552380Y-36314047D01*
X38504761Y-36314047D02*
X38552380Y-36409285D01*
X38552380Y-36599761D01*
X38504761Y-36695000D01*
X38457142Y-36742619D01*
X38361904Y-36790238D01*
X38076190Y-36790238D01*
X37980952Y-36742619D01*
X37933333Y-36695000D01*
X37885714Y-36599761D01*
X37885714Y-36409285D01*
X37933333Y-36314047D01*
X38552380Y-35409285D02*
X37552380Y-35409285D01*
X38504761Y-35409285D02*
X38552380Y-35504523D01*
X38552380Y-35695000D01*
X38504761Y-35790238D01*
X38457142Y-35837857D01*
X38361904Y-35885476D01*
X38076190Y-35885476D01*
X37980952Y-35837857D01*
X37933333Y-35790238D01*
X37885714Y-35695000D01*
X37885714Y-35504523D01*
X37933333Y-35409285D01*
X38552380Y-34933095D02*
X37885714Y-34933095D01*
X38076190Y-34933095D02*
X37980952Y-34885476D01*
X37933333Y-34837857D01*
X37885714Y-34742619D01*
X37885714Y-34647380D01*
X36361666Y-23517857D02*
X36361666Y-23041666D01*
X36647380Y-23613095D02*
X35647380Y-23279761D01*
X36647380Y-22946428D01*
X36647380Y-22184523D02*
X35647380Y-22184523D01*
X36599761Y-22184523D02*
X36647380Y-22279761D01*
X36647380Y-22470238D01*
X36599761Y-22565476D01*
X36552142Y-22613095D01*
X36456904Y-22660714D01*
X36171190Y-22660714D01*
X36075952Y-22613095D01*
X36028333Y-22565476D01*
X35980714Y-22470238D01*
X35980714Y-22279761D01*
X36028333Y-22184523D01*
X36647380Y-21279761D02*
X35647380Y-21279761D01*
X36599761Y-21279761D02*
X36647380Y-21375000D01*
X36647380Y-21565476D01*
X36599761Y-21660714D01*
X36552142Y-21708333D01*
X36456904Y-21755952D01*
X36171190Y-21755952D01*
X36075952Y-21708333D01*
X36028333Y-21660714D01*
X35980714Y-21565476D01*
X35980714Y-21375000D01*
X36028333Y-21279761D01*
X36647380Y-20803571D02*
X35980714Y-20803571D01*
X36171190Y-20803571D02*
X36075952Y-20755952D01*
X36028333Y-20708333D01*
X35980714Y-20613095D01*
X35980714Y-20517857D01*
X36123571Y-19422619D02*
X36123571Y-18660714D01*
X36409285Y-18660714D02*
X36409285Y-19422619D01*
X35647380Y-17517857D02*
X35647380Y-16898809D01*
X36028333Y-17232142D01*
X36028333Y-17089285D01*
X36075952Y-16994047D01*
X36123571Y-16946428D01*
X36218809Y-16898809D01*
X36456904Y-16898809D01*
X36552142Y-16946428D01*
X36599761Y-16994047D01*
X36647380Y-17089285D01*
X36647380Y-17375000D01*
X36599761Y-17470238D01*
X36552142Y-17517857D01*
X36552142Y-16470238D02*
X36599761Y-16422619D01*
X36647380Y-16470238D01*
X36599761Y-16517857D01*
X36552142Y-16470238D01*
X36647380Y-16470238D01*
X35647380Y-16089285D02*
X35647380Y-15470238D01*
X36028333Y-15803571D01*
X36028333Y-15660714D01*
X36075952Y-15565476D01*
X36123571Y-15517857D01*
X36218809Y-15470238D01*
X36456904Y-15470238D01*
X36552142Y-15517857D01*
X36599761Y-15565476D01*
X36647380Y-15660714D01*
X36647380Y-15946428D01*
X36599761Y-16041666D01*
X36552142Y-16089285D01*
X35980714Y-15136904D02*
X36647380Y-14898809D01*
X35980714Y-14660714D01*
X36123571Y-13517857D02*
X36123571Y-12755952D01*
X36409285Y-12755952D02*
X36409285Y-13517857D01*
X35647380Y-11327380D02*
X35647380Y-11232142D01*
X35695000Y-11136904D01*
X35742619Y-11089285D01*
X35837857Y-11041666D01*
X36028333Y-10994047D01*
X36266428Y-10994047D01*
X36456904Y-11041666D01*
X36552142Y-11089285D01*
X36599761Y-11136904D01*
X36647380Y-11232142D01*
X36647380Y-11327380D01*
X36599761Y-11422619D01*
X36552142Y-11470238D01*
X36456904Y-11517857D01*
X36266428Y-11565476D01*
X36028333Y-11565476D01*
X35837857Y-11517857D01*
X35742619Y-11470238D01*
X35695000Y-11422619D01*
X35647380Y-11327380D01*
X36647380Y-10660714D02*
X35980714Y-10136904D01*
X35980714Y-10660714D02*
X36647380Y-10136904D01*
X35647380Y-9279761D02*
X35647380Y-9755952D01*
X36123571Y-9803571D01*
X36075952Y-9755952D01*
X36028333Y-9660714D01*
X36028333Y-9422619D01*
X36075952Y-9327380D01*
X36123571Y-9279761D01*
X36218809Y-9232142D01*
X36456904Y-9232142D01*
X36552142Y-9279761D01*
X36599761Y-9327380D01*
X36647380Y-9422619D01*
X36647380Y-9660714D01*
X36599761Y-9755952D01*
X36552142Y-9803571D01*
X36552142Y-8232142D02*
X36599761Y-8279761D01*
X36647380Y-8422619D01*
X36647380Y-8517857D01*
X36599761Y-8660714D01*
X36504523Y-8755952D01*
X36409285Y-8803571D01*
X36218809Y-8851190D01*
X36075952Y-8851190D01*
X35885476Y-8803571D01*
X35790238Y-8755952D01*
X35695000Y-8660714D01*
X35647380Y-8517857D01*
X35647380Y-8422619D01*
X35695000Y-8279761D01*
X35742619Y-8232142D01*
X35060000Y-36837857D02*
X35012380Y-36933095D01*
X35012380Y-37075952D01*
X35060000Y-37218809D01*
X35155238Y-37314047D01*
X35250476Y-37361666D01*
X35440952Y-37409285D01*
X35583809Y-37409285D01*
X35774285Y-37361666D01*
X35869523Y-37314047D01*
X35964761Y-37218809D01*
X36012380Y-37075952D01*
X36012380Y-36980714D01*
X35964761Y-36837857D01*
X35917142Y-36790238D01*
X35583809Y-36790238D01*
X35583809Y-36980714D01*
X35345714Y-36361666D02*
X36012380Y-36361666D01*
X35440952Y-36361666D02*
X35393333Y-36314047D01*
X35345714Y-36218809D01*
X35345714Y-36075952D01*
X35393333Y-35980714D01*
X35488571Y-35933095D01*
X36012380Y-35933095D01*
X36012380Y-35028333D02*
X35012380Y-35028333D01*
X35964761Y-35028333D02*
X36012380Y-35123571D01*
X36012380Y-35314047D01*
X35964761Y-35409285D01*
X35917142Y-35456904D01*
X35821904Y-35504523D01*
X35536190Y-35504523D01*
X35440952Y-35456904D01*
X35393333Y-35409285D01*
X35345714Y-35314047D01*
X35345714Y-35123571D01*
X35393333Y-35028333D01*
X38552380Y-30900238D02*
X38552380Y-31376428D01*
X37552380Y-31376428D01*
X37552380Y-30566904D02*
X38361904Y-30566904D01*
X38457142Y-30519285D01*
X38504761Y-30471666D01*
X38552380Y-30376428D01*
X38552380Y-30185952D01*
X38504761Y-30090714D01*
X38457142Y-30043095D01*
X38361904Y-29995476D01*
X37552380Y-29995476D01*
X37552380Y-29614523D02*
X38552380Y-28947857D01*
X37552380Y-28947857D02*
X38552380Y-29614523D01*
X38504761Y-27852619D02*
X38552380Y-27709761D01*
X38552380Y-27471666D01*
X38504761Y-27376428D01*
X38457142Y-27328809D01*
X38361904Y-27281190D01*
X38266666Y-27281190D01*
X38171428Y-27328809D01*
X38123809Y-27376428D01*
X38076190Y-27471666D01*
X38028571Y-27662142D01*
X37980952Y-27757380D01*
X37933333Y-27805000D01*
X37838095Y-27852619D01*
X37742857Y-27852619D01*
X37647619Y-27805000D01*
X37600000Y-27757380D01*
X37552380Y-27662142D01*
X37552380Y-27424047D01*
X37600000Y-27281190D01*
X38504761Y-26471666D02*
X38552380Y-26566904D01*
X38552380Y-26757380D01*
X38504761Y-26852619D01*
X38409523Y-26900238D01*
X38028571Y-26900238D01*
X37933333Y-26852619D01*
X37885714Y-26757380D01*
X37885714Y-26566904D01*
X37933333Y-26471666D01*
X38028571Y-26424047D01*
X38123809Y-26424047D01*
X38219047Y-26900238D01*
X37885714Y-25995476D02*
X38552380Y-25995476D01*
X37980952Y-25995476D02*
X37933333Y-25947857D01*
X37885714Y-25852619D01*
X37885714Y-25709761D01*
X37933333Y-25614523D01*
X38028571Y-25566904D01*
X38552380Y-25566904D01*
X38504761Y-25138333D02*
X38552380Y-25043095D01*
X38552380Y-24852619D01*
X38504761Y-24757380D01*
X38409523Y-24709761D01*
X38361904Y-24709761D01*
X38266666Y-24757380D01*
X38219047Y-24852619D01*
X38219047Y-24995476D01*
X38171428Y-25090714D01*
X38076190Y-25138333D01*
X38028571Y-25138333D01*
X37933333Y-25090714D01*
X37885714Y-24995476D01*
X37885714Y-24852619D01*
X37933333Y-24757380D01*
X38552380Y-24138333D02*
X38504761Y-24233571D01*
X38457142Y-24281190D01*
X38361904Y-24328809D01*
X38076190Y-24328809D01*
X37980952Y-24281190D01*
X37933333Y-24233571D01*
X37885714Y-24138333D01*
X37885714Y-23995476D01*
X37933333Y-23900238D01*
X37980952Y-23852619D01*
X38076190Y-23805000D01*
X38361904Y-23805000D01*
X38457142Y-23852619D01*
X38504761Y-23900238D01*
X38552380Y-23995476D01*
X38552380Y-24138333D01*
X38552380Y-23376428D02*
X37885714Y-23376428D01*
X38076190Y-23376428D02*
X37980952Y-23328809D01*
X37933333Y-23281190D01*
X37885714Y-23185952D01*
X37885714Y-23090714D01*
X16145000Y-24172380D02*
X16145000Y-23172380D01*
X16525952Y-23172380D01*
X16621190Y-23220000D01*
X16668809Y-23267619D01*
X16716428Y-23362857D01*
X16716428Y-23505714D01*
X16668809Y-23600952D01*
X16621190Y-23648571D01*
X16525952Y-23696190D01*
X16145000Y-23696190D01*
X17145000Y-24172380D02*
X17145000Y-23172380D01*
X18192619Y-24172380D02*
X17859285Y-23696190D01*
X17621190Y-24172380D02*
X17621190Y-23172380D01*
X18002142Y-23172380D01*
X18097380Y-23220000D01*
X18145000Y-23267619D01*
X18192619Y-23362857D01*
X18192619Y-23505714D01*
X18145000Y-23600952D01*
X18097380Y-23648571D01*
X18002142Y-23696190D01*
X17621190Y-23696190D01*
X23090238Y-32240714D02*
X23042619Y-32383571D01*
X23042619Y-32621666D01*
X23090238Y-32716904D01*
X23137857Y-32764523D01*
X23233095Y-32812142D01*
X23328333Y-32812142D01*
X23423571Y-32764523D01*
X23471190Y-32716904D01*
X23518809Y-32621666D01*
X23566428Y-32431190D01*
X23614047Y-32335952D01*
X23661666Y-32288333D01*
X23756904Y-32240714D01*
X23852142Y-32240714D01*
X23947380Y-32288333D01*
X23995000Y-32335952D01*
X24042619Y-32431190D01*
X24042619Y-32669285D01*
X23995000Y-32812142D01*
X23042619Y-33240714D02*
X24042619Y-33240714D01*
X24042619Y-33478809D01*
X23995000Y-33621666D01*
X23899761Y-33716904D01*
X23804523Y-33764523D01*
X23614047Y-33812142D01*
X23471190Y-33812142D01*
X23280714Y-33764523D01*
X23185476Y-33716904D01*
X23090238Y-33621666D01*
X23042619Y-33478809D01*
X23042619Y-33240714D01*
X23328333Y-34193095D02*
X23328333Y-34669285D01*
X23042619Y-34097857D02*
X24042619Y-34431190D01*
X23042619Y-34764523D01*
X28965000Y-32783095D02*
X29012619Y-32687857D01*
X29012619Y-32545000D01*
X28965000Y-32402142D01*
X28869761Y-32306904D01*
X28774523Y-32259285D01*
X28584047Y-32211666D01*
X28441190Y-32211666D01*
X28250714Y-32259285D01*
X28155476Y-32306904D01*
X28060238Y-32402142D01*
X28012619Y-32545000D01*
X28012619Y-32640238D01*
X28060238Y-32783095D01*
X28107857Y-32830714D01*
X28441190Y-32830714D01*
X28441190Y-32640238D01*
X28012619Y-33259285D02*
X29012619Y-33259285D01*
X28012619Y-33830714D01*
X29012619Y-33830714D01*
X28012619Y-34306904D02*
X29012619Y-34306904D01*
X29012619Y-34545000D01*
X28965000Y-34687857D01*
X28869761Y-34783095D01*
X28774523Y-34830714D01*
X28584047Y-34878333D01*
X28441190Y-34878333D01*
X28250714Y-34830714D01*
X28155476Y-34783095D01*
X28060238Y-34687857D01*
X28012619Y-34545000D01*
X28012619Y-34306904D01*
X31502619Y-32266428D02*
X31502619Y-32885476D01*
X31121666Y-32552142D01*
X31121666Y-32695000D01*
X31074047Y-32790238D01*
X31026428Y-32837857D01*
X30931190Y-32885476D01*
X30693095Y-32885476D01*
X30597857Y-32837857D01*
X30550238Y-32790238D01*
X30502619Y-32695000D01*
X30502619Y-32409285D01*
X30550238Y-32314047D01*
X30597857Y-32266428D01*
X30597857Y-33314047D02*
X30550238Y-33361666D01*
X30502619Y-33314047D01*
X30550238Y-33266428D01*
X30597857Y-33314047D01*
X30502619Y-33314047D01*
X31502619Y-33695000D02*
X31502619Y-34314047D01*
X31121666Y-33980714D01*
X31121666Y-34123571D01*
X31074047Y-34218809D01*
X31026428Y-34266428D01*
X30931190Y-34314047D01*
X30693095Y-34314047D01*
X30597857Y-34266428D01*
X30550238Y-34218809D01*
X30502619Y-34123571D01*
X30502619Y-33837857D01*
X30550238Y-33742619D01*
X30597857Y-33695000D01*
X31169285Y-34647380D02*
X30502619Y-34885476D01*
X31169285Y-35123571D01*
X25640238Y-32284523D02*
X25592619Y-32427380D01*
X25592619Y-32665476D01*
X25640238Y-32760714D01*
X25687857Y-32808333D01*
X25783095Y-32855952D01*
X25878333Y-32855952D01*
X25973571Y-32808333D01*
X26021190Y-32760714D01*
X26068809Y-32665476D01*
X26116428Y-32475000D01*
X26164047Y-32379761D01*
X26211666Y-32332142D01*
X26306904Y-32284523D01*
X26402142Y-32284523D01*
X26497380Y-32332142D01*
X26545000Y-32379761D01*
X26592619Y-32475000D01*
X26592619Y-32713095D01*
X26545000Y-32855952D01*
X25687857Y-33855952D02*
X25640238Y-33808333D01*
X25592619Y-33665476D01*
X25592619Y-33570238D01*
X25640238Y-33427380D01*
X25735476Y-33332142D01*
X25830714Y-33284523D01*
X26021190Y-33236904D01*
X26164047Y-33236904D01*
X26354523Y-33284523D01*
X26449761Y-33332142D01*
X26545000Y-33427380D01*
X26592619Y-33570238D01*
X26592619Y-33665476D01*
X26545000Y-33808333D01*
X26497380Y-33855952D01*
X25592619Y-34760714D02*
X25592619Y-34284523D01*
X26592619Y-34284523D01*
X24486428Y-36044047D02*
X24438809Y-36186904D01*
X24391190Y-36234523D01*
X24295952Y-36282142D01*
X24153095Y-36282142D01*
X24057857Y-36234523D01*
X24010238Y-36186904D01*
X23962619Y-36091666D01*
X23962619Y-35710714D01*
X24962619Y-35710714D01*
X24962619Y-36044047D01*
X24915000Y-36139285D01*
X24867380Y-36186904D01*
X24772142Y-36234523D01*
X24676904Y-36234523D01*
X24581666Y-36186904D01*
X24534047Y-36139285D01*
X24486428Y-36044047D01*
X24486428Y-35710714D01*
X23962619Y-36710714D02*
X24962619Y-36710714D01*
X24248333Y-37044047D01*
X24962619Y-37377380D01*
X23962619Y-37377380D01*
X24486428Y-37853571D02*
X24486428Y-38186904D01*
X23962619Y-38329761D02*
X23962619Y-37853571D01*
X24962619Y-37853571D01*
X24962619Y-38329761D01*
X24867380Y-38710714D02*
X24915000Y-38758333D01*
X24962619Y-38853571D01*
X24962619Y-39091666D01*
X24915000Y-39186904D01*
X24867380Y-39234523D01*
X24772142Y-39282142D01*
X24676904Y-39282142D01*
X24534047Y-39234523D01*
X23962619Y-38663095D01*
X23962619Y-39282142D01*
X24534047Y-39853571D02*
X24581666Y-39758333D01*
X24629285Y-39710714D01*
X24724523Y-39663095D01*
X24772142Y-39663095D01*
X24867380Y-39710714D01*
X24915000Y-39758333D01*
X24962619Y-39853571D01*
X24962619Y-40044047D01*
X24915000Y-40139285D01*
X24867380Y-40186904D01*
X24772142Y-40234523D01*
X24724523Y-40234523D01*
X24629285Y-40186904D01*
X24581666Y-40139285D01*
X24534047Y-40044047D01*
X24534047Y-39853571D01*
X24486428Y-39758333D01*
X24438809Y-39710714D01*
X24343571Y-39663095D01*
X24153095Y-39663095D01*
X24057857Y-39710714D01*
X24010238Y-39758333D01*
X23962619Y-39853571D01*
X23962619Y-40044047D01*
X24010238Y-40139285D01*
X24057857Y-40186904D01*
X24153095Y-40234523D01*
X24343571Y-40234523D01*
X24438809Y-40186904D01*
X24486428Y-40139285D01*
X24534047Y-40044047D01*
X24962619Y-40853571D02*
X24962619Y-40948809D01*
X24915000Y-41044047D01*
X24867380Y-41091666D01*
X24772142Y-41139285D01*
X24581666Y-41186904D01*
X24343571Y-41186904D01*
X24153095Y-41139285D01*
X24057857Y-41091666D01*
X24010238Y-41044047D01*
X23962619Y-40948809D01*
X23962619Y-40853571D01*
X24010238Y-40758333D01*
X24057857Y-40710714D01*
X24153095Y-40663095D01*
X24343571Y-40615476D01*
X24581666Y-40615476D01*
X24772142Y-40663095D01*
X24867380Y-40710714D01*
X24915000Y-40758333D01*
X24962619Y-40853571D01*
D11*
X26761333Y-14286666D02*
X26361333Y-14286666D01*
X26561333Y-14286666D02*
X26561333Y-13586666D01*
X26494666Y-13686666D01*
X26428000Y-13753333D01*
X26361333Y-13786666D01*
X27194666Y-13586666D02*
X27261333Y-13586666D01*
X27328000Y-13620000D01*
X27361333Y-13653333D01*
X27394666Y-13720000D01*
X27428000Y-13853333D01*
X27428000Y-14020000D01*
X27394666Y-14153333D01*
X27361333Y-14220000D01*
X27328000Y-14253333D01*
X27261333Y-14286666D01*
X27194666Y-14286666D01*
X27128000Y-14253333D01*
X27094666Y-14220000D01*
X27061333Y-14153333D01*
X27028000Y-14020000D01*
X27028000Y-13853333D01*
X27061333Y-13720000D01*
X27094666Y-13653333D01*
X27128000Y-13620000D01*
X27194666Y-13586666D01*
X27728000Y-14286666D02*
X27728000Y-13586666D01*
X27794666Y-14020000D02*
X27994666Y-14286666D01*
X27994666Y-13820000D02*
X27728000Y-14086666D01*
D10*
X9930000Y-23423619D02*
X9977619Y-23376000D01*
X10072857Y-23328380D01*
X10310952Y-23328380D01*
X10406190Y-23376000D01*
X10453809Y-23423619D01*
X10501428Y-23518857D01*
X10501428Y-23614095D01*
X10453809Y-23756952D01*
X9882380Y-24328380D01*
X10501428Y-24328380D01*
X10930000Y-24233142D02*
X10977619Y-24280761D01*
X10930000Y-24328380D01*
X10882380Y-24280761D01*
X10930000Y-24233142D01*
X10930000Y-24328380D01*
X11358571Y-23423619D02*
X11406190Y-23376000D01*
X11501428Y-23328380D01*
X11739523Y-23328380D01*
X11834761Y-23376000D01*
X11882380Y-23423619D01*
X11930000Y-23518857D01*
X11930000Y-23614095D01*
X11882380Y-23756952D01*
X11310952Y-24328380D01*
X11930000Y-24328380D01*
X12358571Y-24328380D02*
X12358571Y-23328380D01*
X12930000Y-24328380D02*
X12501428Y-23756952D01*
X12930000Y-23328380D02*
X12358571Y-23899809D01*
D11*
X26761333Y-18350666D02*
X26361333Y-18350666D01*
X26561333Y-18350666D02*
X26561333Y-17650666D01*
X26494666Y-17750666D01*
X26428000Y-17817333D01*
X26361333Y-17850666D01*
X27194666Y-17650666D02*
X27261333Y-17650666D01*
X27328000Y-17684000D01*
X27361333Y-17717333D01*
X27394666Y-17784000D01*
X27428000Y-17917333D01*
X27428000Y-18084000D01*
X27394666Y-18217333D01*
X27361333Y-18284000D01*
X27328000Y-18317333D01*
X27261333Y-18350666D01*
X27194666Y-18350666D01*
X27128000Y-18317333D01*
X27094666Y-18284000D01*
X27061333Y-18217333D01*
X27028000Y-18084000D01*
X27028000Y-17917333D01*
X27061333Y-17784000D01*
X27094666Y-17717333D01*
X27128000Y-17684000D01*
X27194666Y-17650666D01*
X27728000Y-18350666D02*
X27728000Y-17650666D01*
X27794666Y-18084000D02*
X27994666Y-18350666D01*
X27994666Y-17884000D02*
X27728000Y-18150666D01*
X26761333Y-16318666D02*
X26361333Y-16318666D01*
X26561333Y-16318666D02*
X26561333Y-15618666D01*
X26494666Y-15718666D01*
X26428000Y-15785333D01*
X26361333Y-15818666D01*
X27194666Y-15618666D02*
X27261333Y-15618666D01*
X27328000Y-15652000D01*
X27361333Y-15685333D01*
X27394666Y-15752000D01*
X27428000Y-15885333D01*
X27428000Y-16052000D01*
X27394666Y-16185333D01*
X27361333Y-16252000D01*
X27328000Y-16285333D01*
X27261333Y-16318666D01*
X27194666Y-16318666D01*
X27128000Y-16285333D01*
X27094666Y-16252000D01*
X27061333Y-16185333D01*
X27028000Y-16052000D01*
X27028000Y-15885333D01*
X27061333Y-15752000D01*
X27094666Y-15685333D01*
X27128000Y-15652000D01*
X27194666Y-15618666D01*
X27728000Y-16318666D02*
X27728000Y-15618666D01*
X27794666Y-16052000D02*
X27994666Y-16318666D01*
X27994666Y-15852000D02*
X27728000Y-16118666D01*
D10*
X-3015809Y-27757380D02*
X-3492000Y-27757380D01*
X-3492000Y-26757380D01*
X-2682476Y-27757380D02*
X-2682476Y-26757380D01*
X-2444380Y-26757380D01*
X-2301523Y-26805000D01*
X-2206285Y-26900238D01*
X-2158666Y-26995476D01*
X-2111047Y-27185952D01*
X-2111047Y-27328809D01*
X-2158666Y-27519285D01*
X-2206285Y-27614523D01*
X-2301523Y-27709761D01*
X-2444380Y-27757380D01*
X-2682476Y-27757380D01*
X-1158666Y-27757380D02*
X-1730095Y-27757380D01*
X-1444380Y-27757380D02*
X-1444380Y-26757380D01*
X-1539619Y-26900238D01*
X-1634857Y-26995476D01*
X-1730095Y-27043095D01*
X-206285Y-27757380D02*
X-777714Y-27757380D01*
X-492000Y-27757380D02*
X-492000Y-26757380D01*
X-587238Y-26900238D01*
X-682476Y-26995476D01*
X-777714Y-27043095D01*
X746095Y-27757380D02*
X174666Y-27757380D01*
X460380Y-27757380D02*
X460380Y-26757380D01*
X365142Y-26900238D01*
X269904Y-26995476D01*
X174666Y-27043095D01*
X1079428Y-26757380D02*
X1746095Y-26757380D01*
X1317523Y-27757380D01*
X2079428Y-27709761D02*
X2222285Y-27757380D01*
X2460380Y-27757380D01*
X2555619Y-27709761D01*
X2603238Y-27662142D01*
X2650857Y-27566904D01*
X2650857Y-27471666D01*
X2603238Y-27376428D01*
X2555619Y-27328809D01*
X2460380Y-27281190D01*
X2269904Y-27233571D01*
X2174666Y-27185952D01*
X2127047Y-27138333D01*
X2079428Y-27043095D01*
X2079428Y-26947857D01*
X2127047Y-26852619D01*
X2174666Y-26805000D01*
X2269904Y-26757380D01*
X2508000Y-26757380D01*
X2650857Y-26805000D01*
X2984190Y-26757380D02*
X3603238Y-26757380D01*
X3269904Y-27138333D01*
X3412761Y-27138333D01*
X3508000Y-27185952D01*
X3555619Y-27233571D01*
X3603238Y-27328809D01*
X3603238Y-27566904D01*
X3555619Y-27662142D01*
X3508000Y-27709761D01*
X3412761Y-27757380D01*
X3127047Y-27757380D01*
X3031809Y-27709761D01*
X2984190Y-27662142D01*
X3936571Y-26757380D02*
X4555619Y-26757380D01*
X4222285Y-27138333D01*
X4365142Y-27138333D01*
X4460380Y-27185952D01*
X4508000Y-27233571D01*
X4555619Y-27328809D01*
X4555619Y-27566904D01*
X4508000Y-27662142D01*
X4460380Y-27709761D01*
X4365142Y-27757380D01*
X4079428Y-27757380D01*
X3984190Y-27709761D01*
X3936571Y-27662142D01*
D11*
X-1149999Y-34668666D02*
X-1083333Y-34668666D01*
X-1016666Y-34702000D01*
X-983333Y-34735333D01*
X-949999Y-34802000D01*
X-916666Y-34935333D01*
X-916666Y-35102000D01*
X-949999Y-35235333D01*
X-983333Y-35302000D01*
X-1016666Y-35335333D01*
X-1083333Y-35368666D01*
X-1149999Y-35368666D01*
X-1216666Y-35335333D01*
X-1249999Y-35302000D01*
X-1283333Y-35235333D01*
X-1316666Y-35102000D01*
X-1316666Y-34935333D01*
X-1283333Y-34802000D01*
X-1249999Y-34735333D01*
X-1216666Y-34702000D01*
X-1149999Y-34668666D01*
X-616666Y-35302000D02*
X-583333Y-35335333D01*
X-616666Y-35368666D01*
X-649999Y-35335333D01*
X-616666Y-35302000D01*
X-616666Y-35368666D01*
X83333Y-35368666D02*
X-316666Y-35368666D01*
X-116666Y-35368666D02*
X-116666Y-34668666D01*
X-183333Y-34768666D01*
X-249999Y-34835333D01*
X-316666Y-34868666D01*
X683333Y-34902000D02*
X683333Y-35368666D01*
X383333Y-34902000D02*
X383333Y-35268666D01*
X416666Y-35335333D01*
X483333Y-35368666D01*
X583333Y-35368666D01*
X650000Y-35335333D01*
X683333Y-35302000D01*
X1250000Y-35002000D02*
X1016666Y-35002000D01*
X1016666Y-35368666D02*
X1016666Y-34668666D01*
X1350000Y-34668666D01*
X1153333Y-8952666D02*
X920000Y-8619333D01*
X753333Y-8952666D02*
X753333Y-8252666D01*
X1020000Y-8252666D01*
X1086666Y-8286000D01*
X1120000Y-8319333D01*
X1153333Y-8386000D01*
X1153333Y-8486000D01*
X1120000Y-8552666D01*
X1086666Y-8586000D01*
X1020000Y-8619333D01*
X753333Y-8619333D01*
X1819999Y-8952666D02*
X1420000Y-8952666D01*
X1620000Y-8952666D02*
X1620000Y-8252666D01*
X1553333Y-8352666D01*
X1486666Y-8419333D01*
X1420000Y-8452666D01*
X2406000Y-7049333D02*
X2439333Y-7016000D01*
X2506000Y-6982666D01*
X2672666Y-6982666D01*
X2739333Y-7016000D01*
X2772666Y-7049333D01*
X2806000Y-7116000D01*
X2806000Y-7182666D01*
X2772666Y-7282666D01*
X2372666Y-7682666D01*
X2806000Y-7682666D01*
X3072666Y-7049333D02*
X3106000Y-7016000D01*
X3172666Y-6982666D01*
X3339333Y-6982666D01*
X3406000Y-7016000D01*
X3439333Y-7049333D01*
X3472666Y-7116000D01*
X3472666Y-7182666D01*
X3439333Y-7282666D01*
X3039333Y-7682666D01*
X3472666Y-7682666D01*
X3906000Y-6982666D02*
X3972666Y-6982666D01*
X4039333Y-7016000D01*
X4072666Y-7049333D01*
X4106000Y-7116000D01*
X4139333Y-7249333D01*
X4139333Y-7416000D01*
X4106000Y-7549333D01*
X4072666Y-7616000D01*
X4039333Y-7649333D01*
X3972666Y-7682666D01*
X3906000Y-7682666D01*
X3839333Y-7649333D01*
X3806000Y-7616000D01*
X3772666Y-7549333D01*
X3739333Y-7416000D01*
X3739333Y-7249333D01*
X3772666Y-7116000D01*
X3806000Y-7049333D01*
X3839333Y-7016000D01*
X3906000Y-6982666D01*
X4439333Y-7682666D02*
X4439333Y-6982666D01*
X4506000Y-7416000D02*
X4706000Y-7682666D01*
X4706000Y-7216000D02*
X4439333Y-7482666D01*
X-2274000Y-33336666D02*
X-2673999Y-33336666D01*
X-2473999Y-33336666D02*
X-2473999Y-32636666D01*
X-2540666Y-32736666D01*
X-2607333Y-32803333D01*
X-2673999Y-32836666D01*
X-1840666Y-32636666D02*
X-1773999Y-32636666D01*
X-1707333Y-32670000D01*
X-1673999Y-32703333D01*
X-1640666Y-32770000D01*
X-1607333Y-32903333D01*
X-1607333Y-33070000D01*
X-1640666Y-33203333D01*
X-1673999Y-33270000D01*
X-1707333Y-33303333D01*
X-1773999Y-33336666D01*
X-1840666Y-33336666D01*
X-1907333Y-33303333D01*
X-1940666Y-33270000D01*
X-1973999Y-33203333D01*
X-2007333Y-33070000D01*
X-2007333Y-32903333D01*
X-1973999Y-32770000D01*
X-1940666Y-32703333D01*
X-1907333Y-32670000D01*
X-1840666Y-32636666D01*
X-1007333Y-32870000D02*
X-1007333Y-33336666D01*
X-1307333Y-32870000D02*
X-1307333Y-33236666D01*
X-1273999Y-33303333D01*
X-1207333Y-33336666D01*
X-1107333Y-33336666D01*
X-1040666Y-33303333D01*
X-1007333Y-33270000D01*
X-440666Y-32970000D02*
X-674000Y-32970000D01*
X-674000Y-33336666D02*
X-674000Y-32636666D01*
X-340666Y-32636666D01*
X2292580Y-2918666D02*
X2359246Y-2918666D01*
X2425913Y-2952000D01*
X2459246Y-2985333D01*
X2492580Y-3052000D01*
X2525913Y-3185333D01*
X2525913Y-3352000D01*
X2492580Y-3485333D01*
X2459246Y-3552000D01*
X2425913Y-3585333D01*
X2359246Y-3618666D01*
X2292580Y-3618666D01*
X2225913Y-3585333D01*
X2192580Y-3552000D01*
X2159246Y-3485333D01*
X2125913Y-3352000D01*
X2125913Y-3185333D01*
X2159246Y-3052000D01*
X2192580Y-2985333D01*
X2225913Y-2952000D01*
X2292580Y-2918666D01*
X2825913Y-3552000D02*
X2859246Y-3585333D01*
X2825913Y-3618666D01*
X2792580Y-3585333D01*
X2825913Y-3552000D01*
X2825913Y-3618666D01*
X3525913Y-3618666D02*
X3125913Y-3618666D01*
X3325913Y-3618666D02*
X3325913Y-2918666D01*
X3259246Y-3018666D01*
X3192580Y-3085333D01*
X3125913Y-3118666D01*
X4125913Y-3152000D02*
X4125913Y-3618666D01*
X3825913Y-3152000D02*
X3825913Y-3518666D01*
X3859246Y-3585333D01*
X3925913Y-3618666D01*
X4025913Y-3618666D01*
X4092580Y-3585333D01*
X4125913Y-3552000D01*
X4692580Y-3252000D02*
X4459246Y-3252000D01*
X4459246Y-3618666D02*
X4459246Y-2918666D01*
X4792580Y-2918666D01*
X3393333Y-15048666D02*
X2993333Y-15048666D01*
X3193333Y-15048666D02*
X3193333Y-14348666D01*
X3126666Y-14448666D01*
X3060000Y-14515333D01*
X2993333Y-14548666D01*
X3826666Y-14348666D02*
X3893333Y-14348666D01*
X3960000Y-14382000D01*
X3993333Y-14415333D01*
X4026666Y-14482000D01*
X4060000Y-14615333D01*
X4060000Y-14782000D01*
X4026666Y-14915333D01*
X3993333Y-14982000D01*
X3960000Y-15015333D01*
X3893333Y-15048666D01*
X3826666Y-15048666D01*
X3760000Y-15015333D01*
X3726666Y-14982000D01*
X3693333Y-14915333D01*
X3660000Y-14782000D01*
X3660000Y-14615333D01*
X3693333Y-14482000D01*
X3726666Y-14415333D01*
X3760000Y-14382000D01*
X3826666Y-14348666D01*
X4360000Y-15048666D02*
X4360000Y-14348666D01*
X4426666Y-14782000D02*
X4626666Y-15048666D01*
X4626666Y-14582000D02*
X4360000Y-14848666D01*
D10*
X42100666Y-13739761D02*
X42243523Y-13787380D01*
X42481619Y-13787380D01*
X42576857Y-13739761D01*
X42624476Y-13692142D01*
X42672095Y-13596904D01*
X42672095Y-13501666D01*
X42624476Y-13406428D01*
X42576857Y-13358809D01*
X42481619Y-13311190D01*
X42291142Y-13263571D01*
X42195904Y-13215952D01*
X42148285Y-13168333D01*
X42100666Y-13073095D01*
X42100666Y-12977857D01*
X42148285Y-12882619D01*
X42195904Y-12835000D01*
X42291142Y-12787380D01*
X42529238Y-12787380D01*
X42672095Y-12835000D01*
X43005428Y-12787380D02*
X43243523Y-13787380D01*
X43434000Y-13073095D01*
X43624476Y-13787380D01*
X43862571Y-12787380D01*
X44767333Y-13787380D02*
X44195904Y-13787380D01*
X44481619Y-13787380D02*
X44481619Y-12787380D01*
X44386380Y-12930238D01*
X44291142Y-13025476D01*
X44195904Y-13073095D01*
D11*
X599333Y-6412666D02*
X199333Y-6412666D01*
X399333Y-6412666D02*
X399333Y-5712666D01*
X332666Y-5812666D01*
X266000Y-5879333D01*
X199333Y-5912666D01*
X1032666Y-5712666D02*
X1099333Y-5712666D01*
X1166000Y-5746000D01*
X1199333Y-5779333D01*
X1232666Y-5846000D01*
X1266000Y-5979333D01*
X1266000Y-6146000D01*
X1232666Y-6279333D01*
X1199333Y-6346000D01*
X1166000Y-6379333D01*
X1099333Y-6412666D01*
X1032666Y-6412666D01*
X966000Y-6379333D01*
X932666Y-6346000D01*
X899333Y-6279333D01*
X866000Y-6146000D01*
X866000Y-5979333D01*
X899333Y-5846000D01*
X932666Y-5779333D01*
X966000Y-5746000D01*
X1032666Y-5712666D01*
X1566000Y-6412666D02*
X1566000Y-5712666D01*
X1632666Y-6146000D02*
X1832666Y-6412666D01*
X1832666Y-5946000D02*
X1566000Y-6212666D01*
D10*
X8453380Y-28249428D02*
X8453380Y-28820857D01*
X8453380Y-28535142D02*
X7453380Y-28535142D01*
X7596238Y-28630380D01*
X7691476Y-28725619D01*
X7739095Y-28820857D01*
X7453380Y-27630380D02*
X7453380Y-27535142D01*
X7501000Y-27439904D01*
X7548619Y-27392285D01*
X7643857Y-27344666D01*
X7834333Y-27297047D01*
X8072428Y-27297047D01*
X8262904Y-27344666D01*
X8358142Y-27392285D01*
X8405761Y-27439904D01*
X8453380Y-27535142D01*
X8453380Y-27630380D01*
X8405761Y-27725619D01*
X8358142Y-27773238D01*
X8262904Y-27820857D01*
X8072428Y-27868476D01*
X7834333Y-27868476D01*
X7643857Y-27820857D01*
X7548619Y-27773238D01*
X7501000Y-27725619D01*
X7453380Y-27630380D01*
X7786714Y-26439904D02*
X8453380Y-26439904D01*
X7786714Y-26868476D02*
X8310523Y-26868476D01*
X8405761Y-26820857D01*
X8453380Y-26725619D01*
X8453380Y-26582761D01*
X8405761Y-26487523D01*
X8358142Y-26439904D01*
X7929571Y-25630380D02*
X7929571Y-25963714D01*
X8453380Y-25963714D02*
X7453380Y-25963714D01*
X7453380Y-25487523D01*
D11*
X1153333Y-10476666D02*
X920000Y-10143333D01*
X753333Y-10476666D02*
X753333Y-9776666D01*
X1020000Y-9776666D01*
X1086666Y-9810000D01*
X1120000Y-9843333D01*
X1153333Y-9910000D01*
X1153333Y-10010000D01*
X1120000Y-10076666D01*
X1086666Y-10110000D01*
X1020000Y-10143333D01*
X753333Y-10143333D01*
X1420000Y-9843333D02*
X1453333Y-9810000D01*
X1520000Y-9776666D01*
X1686666Y-9776666D01*
X1753333Y-9810000D01*
X1786666Y-9843333D01*
X1819999Y-9910000D01*
X1819999Y-9976666D01*
X1786666Y-10076666D01*
X1386666Y-10476666D01*
X1819999Y-10476666D01*
X2552000Y-11746666D02*
X2152000Y-11746666D01*
X2352000Y-11746666D02*
X2352000Y-11046666D01*
X2285333Y-11146666D01*
X2218666Y-11213333D01*
X2152000Y-11246666D01*
X2985333Y-11046666D02*
X3052000Y-11046666D01*
X3118666Y-11080000D01*
X3152000Y-11113333D01*
X3185333Y-11180000D01*
X3218666Y-11313333D01*
X3218666Y-11480000D01*
X3185333Y-11613333D01*
X3152000Y-11680000D01*
X3118666Y-11713333D01*
X3052000Y-11746666D01*
X2985333Y-11746666D01*
X2918666Y-11713333D01*
X2885333Y-11680000D01*
X2852000Y-11613333D01*
X2818666Y-11480000D01*
X2818666Y-11313333D01*
X2852000Y-11180000D01*
X2885333Y-11113333D01*
X2918666Y-11080000D01*
X2985333Y-11046666D01*
X3652000Y-11046666D02*
X3718666Y-11046666D01*
X3785333Y-11080000D01*
X3818666Y-11113333D01*
X3852000Y-11180000D01*
X3885333Y-11313333D01*
X3885333Y-11480000D01*
X3852000Y-11613333D01*
X3818666Y-11680000D01*
X3785333Y-11713333D01*
X3718666Y-11746666D01*
X3652000Y-11746666D01*
X3585333Y-11713333D01*
X3552000Y-11680000D01*
X3518666Y-11613333D01*
X3485333Y-11480000D01*
X3485333Y-11313333D01*
X3518666Y-11180000D01*
X3552000Y-11113333D01*
X3585333Y-11080000D01*
X3652000Y-11046666D01*
X4185333Y-11746666D02*
X4185333Y-11046666D01*
X4252000Y-11480000D02*
X4452000Y-11746666D01*
X4452000Y-11280000D02*
X4185333Y-11546666D01*
D10*
X39933619Y-8326380D02*
X39362190Y-8326380D01*
X39647904Y-8326380D02*
X39647904Y-7326380D01*
X39552666Y-7469238D01*
X39457428Y-7564476D01*
X39362190Y-7612095D01*
X40362190Y-7659714D02*
X40362190Y-8326380D01*
X40362190Y-7754952D02*
X40409809Y-7707333D01*
X40505047Y-7659714D01*
X40647904Y-7659714D01*
X40743142Y-7707333D01*
X40790761Y-7802571D01*
X40790761Y-8326380D01*
X41124095Y-7659714D02*
X41505047Y-7659714D01*
X41266952Y-8326380D02*
X41266952Y-7469238D01*
X41314571Y-7374000D01*
X41409809Y-7326380D01*
X41505047Y-7326380D01*
X46775714Y-20899285D02*
X47775714Y-20899285D01*
X47394761Y-20899285D02*
X47442380Y-20994523D01*
X47442380Y-21185000D01*
X47394761Y-21280238D01*
X47347142Y-21327857D01*
X47251904Y-21375476D01*
X46966190Y-21375476D01*
X46870952Y-21327857D01*
X46823333Y-21280238D01*
X46775714Y-21185000D01*
X46775714Y-20994523D01*
X46823333Y-20899285D01*
X46775714Y-20518333D02*
X47442380Y-20327857D01*
X46966190Y-20137380D01*
X47442380Y-19946904D01*
X46775714Y-19756428D01*
X47442380Y-19375476D02*
X46775714Y-19375476D01*
X46442380Y-19375476D02*
X46490000Y-19423095D01*
X46537619Y-19375476D01*
X46490000Y-19327857D01*
X46442380Y-19375476D01*
X46537619Y-19375476D01*
X47442380Y-18899285D02*
X46775714Y-18899285D01*
X46442380Y-18899285D02*
X46490000Y-18946904D01*
X46537619Y-18899285D01*
X46490000Y-18851666D01*
X46442380Y-18899285D01*
X46537619Y-18899285D01*
X47394761Y-17994523D02*
X47442380Y-18089761D01*
X47442380Y-18280238D01*
X47394761Y-18375476D01*
X47347142Y-18423095D01*
X47251904Y-18470714D01*
X46966190Y-18470714D01*
X46870952Y-18423095D01*
X46823333Y-18375476D01*
X46775714Y-18280238D01*
X46775714Y-18089761D01*
X46823333Y-17994523D01*
D12*
X10705000Y-42820000D02*
X18505000Y-42820000D01*
D11*
X13305000Y-36005000D02*
X13305000Y-36005000D01*
D12*
X18505000Y-42820000D02*
X18505000Y-41505000D01*
X10705000Y-41505000D02*
X10705000Y-42820000D01*
X10705000Y-37190000D02*
X12605000Y-37190000D01*
X16605000Y-37190000D02*
X18505000Y-37190000D01*
X18505000Y-37190000D02*
X18505000Y-38505000D01*
X10705000Y-38505000D02*
X10705000Y-37190000D01*
D11*
X13305000Y-36105000D02*
X13305000Y-36105000D01*
X13305000Y-36105000D02*
G75*
G03*
X13305000Y-36005000I0J50000D01*
G01*
X13305000Y-36005000D02*
G75*
G03*
X13305000Y-36105000I0J-50000D01*
G01*
D13*
X23625000Y-3810000D02*
X22625000Y-3310000D01*
X22625000Y-4310000D02*
X23625000Y-3810000D01*
X25325000Y-12800000D02*
X25325000Y-8400000D01*
X25325000Y-8400000D02*
X25325000Y-8400000D01*
X33135000Y1400000D02*
X33135000Y-14100000D01*
X22625000Y-3310000D02*
X22625000Y-4310000D01*
X31825000Y-12800000D02*
X25325000Y-12800000D01*
X25325000Y-4300000D02*
X25325000Y100000D01*
X25325000Y100000D02*
X31825000Y100000D01*
X33135000Y-14100000D02*
X24015000Y-14100000D01*
X31825000Y100000D02*
X31825000Y-12800000D01*
X24015000Y1400000D02*
X33135000Y1400000D01*
X24015000Y-14100000D02*
X24015000Y1400000D01*
X25325000Y-8400000D02*
X24015000Y-8400000D01*
X24015000Y-4300000D02*
X25325000Y-4300000D01*
X12230000Y-25935000D02*
X9945000Y-25935000D01*
X9945000Y-27405000D02*
X12230000Y-27405000D01*
X9945000Y-25935000D02*
X9945000Y-27405000D01*
X5850000Y-5025000D02*
X5240000Y-5025000D01*
X7970000Y-21645000D02*
X5850000Y-21645000D01*
X22090000Y-21645000D02*
X19970000Y-21645000D01*
X22090000Y2595000D02*
X22090000Y-5025000D01*
X5850000Y2595000D02*
X22090000Y2595000D01*
X22090000Y-21025000D02*
X22090000Y-21645000D01*
X5850000Y-5025000D02*
X5850000Y2595000D01*
X5850000Y-21645000D02*
X5850000Y-21025000D01*
X33105000Y-35785000D02*
X48175000Y-35785000D01*
X48175000Y-35785000D02*
X48175000Y-3595000D01*
X33105000Y-3595000D02*
X48175000Y-3585000D01*
X33105000Y-35785000D02*
X33105000Y-3595000D01*
X36886000Y-5890000D02*
G75*
G03*
X36886000Y-5890000I-1435000J0D01*
G01*
X47175000Y-5890000D02*
G75*
G03*
X47175000Y-5890000I-1435000J0D01*
G01*
X18475000Y-29860000D02*
X18475000Y-24720000D01*
X18475000Y-32460000D02*
X17145000Y-32460000D01*
X18475000Y-24720000D02*
X15815000Y-24720000D01*
X15815000Y-29860000D02*
X15815000Y-24720000D01*
X18475000Y-29860000D02*
X15815000Y-29860000D01*
X18475000Y-31130000D02*
X18475000Y-32460000D01*
X32785000Y-42935000D02*
X21825000Y-42935000D01*
X21825000Y-29785000D02*
X21825000Y-42935000D01*
X32785000Y-29785000D02*
X32785000Y-42935000D01*
X32785000Y-29785000D02*
X21825000Y-29785000D01*
X31345000Y-40185000D02*
G75*
G03*
X31345000Y-40185000I-1450000J0D01*
G01*
X39945000Y-29905000D02*
X42605000Y-29905000D01*
X42605000Y-22225000D02*
X42605000Y-29905000D01*
X39945000Y-22225000D02*
X42605000Y-22225000D01*
X39945000Y-22225000D02*
X39945000Y-29905000D01*
X39945000Y-19625000D02*
X41275000Y-19625000D01*
X39945000Y-20955000D02*
X39945000Y-19625000D01*
X24875258Y-13447500D02*
X24400742Y-13447500D01*
X24875258Y-14492500D02*
X24400742Y-14492500D01*
X11192742Y-24623500D02*
X11667258Y-24623500D01*
X11192742Y-25668500D02*
X11667258Y-25668500D01*
X24875258Y-18556500D02*
X24400742Y-18556500D01*
X24875258Y-17511500D02*
X24400742Y-17511500D01*
X60000Y-19685000D02*
X60000Y-14545000D01*
X60000Y-14545000D02*
X-2600000Y-14545000D01*
X-2600000Y-19685000D02*
X-2600000Y-14545000D01*
X60000Y-22285000D02*
X-1270000Y-22285000D01*
X60000Y-19685000D02*
X-2600000Y-19685000D01*
X60000Y-20955000D02*
X60000Y-22285000D01*
X24875258Y-15479500D02*
X24400742Y-15479500D01*
X24875258Y-16524500D02*
X24400742Y-16524500D01*
X4680000Y-25395000D02*
X3420000Y-25395000D01*
X-2140000Y-31405000D02*
X-2140000Y-25395000D01*
X4680000Y-29155000D02*
X4680000Y-25395000D01*
X-2140000Y-25395000D02*
X-880000Y-25395000D01*
X3188580Y-34542000D02*
X2907420Y-34542000D01*
X3188580Y-35562000D02*
X2907420Y-35562000D01*
X3064742Y-9158500D02*
X3539258Y-9158500D01*
X3064742Y-8113500D02*
X3539258Y-8113500D01*
X60000Y-5660000D02*
X-2600000Y-5660000D01*
X60000Y-8260000D02*
X-2600000Y-8260000D01*
X60000Y-9530000D02*
X60000Y-10860000D01*
X60000Y-10860000D02*
X-1270000Y-10860000D01*
X-2600000Y-8260000D02*
X-2600000Y-5660000D01*
X60000Y-8260000D02*
X60000Y-5660000D01*
X2997252Y-33930000D02*
X1574748Y-33930000D01*
X2997252Y-32110000D02*
X1574748Y-32110000D01*
X3442580Y-4062000D02*
X3161420Y-4062000D01*
X3442580Y-5082000D02*
X3161420Y-5082000D01*
X3064742Y-12939500D02*
X3539258Y-12939500D01*
X3064742Y-13984500D02*
X3539258Y-13984500D01*
X46334000Y-10085000D02*
X40534000Y-10085000D01*
X46534000Y-12035000D02*
X46534000Y-14635000D01*
X40334000Y-12035000D02*
X40334000Y-14635000D01*
X46434000Y-16585000D02*
X40434000Y-16585000D01*
X38334000Y-10035000D02*
X39334000Y-10035000D01*
X38334000Y-11035000D02*
X38334000Y-10035000D01*
X3064742Y-5573500D02*
X3539258Y-5573500D01*
X3064742Y-6618500D02*
X3539258Y-6618500D01*
X5186000Y-26466748D02*
X5186000Y-27889252D01*
X7006000Y-26466748D02*
X7006000Y-27889252D01*
X3539258Y-10682500D02*
X3064742Y-10682500D01*
X3539258Y-9637500D02*
X3064742Y-9637500D01*
X40245420Y-9654000D02*
X40526580Y-9654000D01*
X40245420Y-8634000D02*
X40526580Y-8634000D01*
X48405000Y-27340000D02*
X48405000Y-23460000D01*
X43935000Y-27460000D02*
X42945000Y-27460000D01*
X46435000Y-22290000D02*
X43935000Y-22290000D01*
X43935000Y-22290000D02*
X43935000Y-23340000D01*
X46435000Y-28510000D02*
X43935000Y-28510000D01*
X43935000Y-28510000D02*
X43935000Y-27460000D01*
%LPC*%
D14*
X16605000Y-37890000D03*
X12605000Y-37890000D03*
D15*
X13305000Y-37365000D03*
X15905000Y-37365000D03*
X13955000Y-37365000D03*
X14605000Y-37365000D03*
X15255000Y-37365000D03*
D16*
X10655000Y-40040000D03*
X13405000Y-40040000D03*
X15805000Y-40040000D03*
X18555000Y-40040000D03*
D17*
X27305000Y-3810000D03*
D18*
X29845000Y-3810000D03*
X27305000Y-6350000D03*
X29845000Y-6350000D03*
X27305000Y-8890000D03*
X29845000Y-8890000D03*
D19*
X10642500Y-26670000D03*
X12217500Y-26670000D03*
D20*
X0Y-40005000D03*
D21*
X6370000Y-6025000D03*
X6370000Y-8025000D03*
X6370000Y-10025000D03*
X6370000Y-12025000D03*
X6370000Y-14025000D03*
X6370000Y-16025000D03*
X6370000Y-18025000D03*
X6370000Y-20025000D03*
D22*
X8970000Y-21525000D03*
X10970000Y-21525000D03*
X12970000Y-21525000D03*
X14970000Y-21525000D03*
X16970000Y-21525000D03*
X18970000Y-21525000D03*
D21*
X21570000Y-20025000D03*
X21570000Y-18025000D03*
X21570000Y-16025000D03*
X21570000Y-14025000D03*
X21570000Y-12025000D03*
X21570000Y-10025000D03*
X21570000Y-8025000D03*
X21570000Y-6025000D03*
D23*
X35560000Y-33345000D03*
D24*
X38100000Y-33345000D03*
X40640000Y-33345000D03*
X43180000Y-33345000D03*
X45720000Y-33345000D03*
D23*
X17145000Y-31130000D03*
D24*
X17145000Y-28590000D03*
X17145000Y-26050000D03*
D23*
X31115000Y-31115000D03*
D24*
X28575000Y-31115000D03*
X26035000Y-31115000D03*
X23495000Y-31115000D03*
D20*
X45085000Y0D03*
D23*
X41275000Y-20955000D03*
D24*
X41275000Y-23495000D03*
X41275000Y-26035000D03*
X41275000Y-28575000D03*
D25*
X25463000Y-13970000D03*
X23813000Y-13970000D03*
D26*
X10605000Y-25146000D03*
X12255000Y-25146000D03*
D20*
X0Y0D03*
D25*
X25463000Y-18034000D03*
X23813000Y-18034000D03*
D23*
X-1270000Y-20955000D03*
D24*
X-1270000Y-18415000D03*
X-1270000Y-15875000D03*
D25*
X25463000Y-16002000D03*
X23813000Y-16002000D03*
D27*
X-1030000Y-30455000D03*
X1270000Y-30455000D03*
D28*
X1270000Y-24155000D03*
D27*
X3570000Y-30455000D03*
D20*
X45085000Y-40005000D03*
D29*
X3823000Y-35052000D03*
X2273000Y-35052000D03*
D26*
X2477000Y-8636000D03*
X4127000Y-8636000D03*
D23*
X-1270000Y-9530000D03*
D24*
X-1270000Y-6990000D03*
D30*
X3761000Y-33020000D03*
X811000Y-33020000D03*
D29*
X4077000Y-4572000D03*
X2527000Y-4572000D03*
D26*
X2477000Y-13462000D03*
X4127000Y-13462000D03*
D31*
X39434000Y-11085000D03*
X47434000Y-11085000D03*
X39434000Y-15585000D03*
X47434000Y-15585000D03*
D26*
X2477000Y-6096000D03*
X4127000Y-6096000D03*
D32*
X6096000Y-25703000D03*
X6096000Y-28653000D03*
D25*
X4127000Y-10160000D03*
X2477000Y-10160000D03*
D33*
X39611000Y-9144000D03*
X41161000Y-9144000D03*
D34*
X43720000Y-26900000D03*
X43720000Y-25900000D03*
X43720000Y-24900000D03*
X43720000Y-23900000D03*
D35*
X47595000Y-22600000D03*
X47595000Y-28200000D03*
M02*
