G04 #@! TF.GenerationSoftware,KiCad,Pcbnew,(6.0.4)*
G04 #@! TF.CreationDate,2022-12-31T00:28:05-05:00*
G04 #@! TF.ProjectId,esp8266 atmosphere sensor,65737038-3236-4362-9061-746d6f737068,rev?*
G04 #@! TF.SameCoordinates,Original*
G04 #@! TF.FileFunction,Copper,L2,Inr*
G04 #@! TF.FilePolarity,Positive*
%FSLAX46Y46*%
G04 Gerber Fmt 4.6, Leading zero omitted, Abs format (unit mm)*
G04 Created by KiCad (PCBNEW (6.0.4)) date 2022-12-31 00:28:05*
%MOMM*%
%LPD*%
G01*
G04 APERTURE LIST*
G04 Aperture macros list*
%AMRoundRect*
0 Rectangle with rounded corners*
0 $1 Rounding radius*
0 $2 $3 $4 $5 $6 $7 $8 $9 X,Y pos of 4 corners*
0 Add a 4 corners polygon primitive as box body*
4,1,4,$2,$3,$4,$5,$6,$7,$8,$9,$2,$3,0*
0 Add four circle primitives for the rounded corners*
1,1,$1+$1,$2,$3*
1,1,$1+$1,$4,$5*
1,1,$1+$1,$6,$7*
1,1,$1+$1,$8,$9*
0 Add four rect primitives between the rounded corners*
20,1,$1+$1,$2,$3,$4,$5,0*
20,1,$1+$1,$4,$5,$6,$7,0*
20,1,$1+$1,$6,$7,$8,$9,0*
20,1,$1+$1,$8,$9,$2,$3,0*%
G04 Aperture macros list end*
G04 #@! TA.AperFunction,ComponentPad*
%ADD10RoundRect,0.250000X-0.600000X-0.600000X0.600000X-0.600000X0.600000X0.600000X-0.600000X0.600000X0*%
G04 #@! TD*
G04 #@! TA.AperFunction,ComponentPad*
%ADD11C,1.700000*%
G04 #@! TD*
G04 #@! TA.AperFunction,ComponentPad*
%ADD12R,1.700000X1.700000*%
G04 #@! TD*
G04 #@! TA.AperFunction,ComponentPad*
%ADD13O,1.700000X1.700000*%
G04 #@! TD*
G04 #@! TA.AperFunction,ViaPad*
%ADD14C,0.800000*%
G04 #@! TD*
G04 APERTURE END LIST*
D10*
X27305000Y-3810000D03*
D11*
X29845000Y-3810000D03*
X27305000Y-6350000D03*
X29845000Y-6350000D03*
X27305000Y-8890000D03*
X29845000Y-8890000D03*
D12*
X35560000Y-33345000D03*
D13*
X38100000Y-33345000D03*
X40640000Y-33345000D03*
X43180000Y-33345000D03*
X45720000Y-33345000D03*
D12*
X17145000Y-31130000D03*
D13*
X17145000Y-28590000D03*
X17145000Y-26050000D03*
D12*
X31115000Y-31115000D03*
D13*
X28575000Y-31115000D03*
X26035000Y-31115000D03*
X23495000Y-31115000D03*
D12*
X41275000Y-20955000D03*
D13*
X41275000Y-23495000D03*
X41275000Y-26035000D03*
X41275000Y-28575000D03*
D12*
X-1270000Y-20955000D03*
D13*
X-1270000Y-18415000D03*
X-1270000Y-15875000D03*
D12*
X-1270000Y-9530000D03*
D13*
X-1270000Y-6990000D03*
D14*
X25654000Y1016000D03*
X45212000Y-8890000D03*
X40386000Y-5334000D03*
X40640000Y2032000D03*
X5588000Y-35052000D03*
X22225000Y-41275000D03*
X3556000Y-40132000D03*
X35560000Y-7620000D03*
X8699000Y-23939000D03*
X29972000Y-17780000D03*
X9398000Y-14986000D03*
X29909480Y-13145480D03*
X1270000Y-7112000D03*
X4613000Y-20025000D03*
X10414000Y-6096000D03*
X25463000Y-14923000D03*
X762000Y-11938000D03*
X17272000Y-36322000D03*
X9398000Y-25146000D03*
X-508000Y-28702000D03*
X27940000Y-27686000D03*
X37338000Y-15240000D03*
X-508000Y-25908000D03*
X9652000Y-16764000D03*
X9207000Y-26861000D03*
X4801500Y-24408500D03*
X33070031Y-12395969D03*
X20320000Y-22860000D03*
X16002000Y-18034000D03*
X21590000Y-28575000D03*
X26797000Y-24511000D03*
X36513480Y-16826520D03*
X13616511Y-15902511D03*
X12867000Y-12025000D03*
X23368000Y-12192000D03*
X44450000Y-22225000D03*
X13264511Y-29915489D03*
X23622000Y-10160000D03*
G04 #@! TA.AperFunction,Conductor*
G36*
X4768121Y3788998D02*
G01*
X4814614Y3735342D01*
X4826000Y3683000D01*
X4826000Y-4572000D01*
X23114000Y-4572000D01*
X23114000Y-4463834D01*
X26254500Y-4463834D01*
X26257481Y-4495369D01*
X26302366Y-4623184D01*
X26307958Y-4630754D01*
X26307959Y-4630757D01*
X26341961Y-4676791D01*
X26382850Y-4732150D01*
X26390421Y-4737742D01*
X26484243Y-4807041D01*
X26484246Y-4807042D01*
X26491816Y-4812634D01*
X26619631Y-4857519D01*
X26627277Y-4858242D01*
X26627278Y-4858242D01*
X26633248Y-4858806D01*
X26651166Y-4860500D01*
X27958834Y-4860500D01*
X27976752Y-4858806D01*
X27982722Y-4858242D01*
X27982723Y-4858242D01*
X27990369Y-4857519D01*
X28118184Y-4812634D01*
X28125754Y-4807042D01*
X28125757Y-4807041D01*
X28219579Y-4737742D01*
X28227150Y-4732150D01*
X28268039Y-4676791D01*
X28302041Y-4630757D01*
X28302042Y-4630754D01*
X28307634Y-4623184D01*
X28352519Y-4495369D01*
X28355500Y-4463834D01*
X28355500Y-3795262D01*
X28789520Y-3795262D01*
X28806759Y-4000553D01*
X28863544Y-4198586D01*
X28866359Y-4204063D01*
X28866360Y-4204066D01*
X28887247Y-4244707D01*
X28957712Y-4381818D01*
X29085677Y-4543270D01*
X29090370Y-4547264D01*
X29090371Y-4547265D01*
X29114177Y-4567525D01*
X29242564Y-4676791D01*
X29422398Y-4777297D01*
X29511672Y-4806304D01*
X29612471Y-4839056D01*
X29612475Y-4839057D01*
X29618329Y-4840959D01*
X29822894Y-4865351D01*
X29829029Y-4864879D01*
X29829031Y-4864879D01*
X29889565Y-4860221D01*
X30028300Y-4849546D01*
X30034230Y-4847890D01*
X30034232Y-4847890D01*
X30171858Y-4809464D01*
X30226725Y-4794145D01*
X30232214Y-4791372D01*
X30232220Y-4791370D01*
X30405116Y-4704033D01*
X30410610Y-4701258D01*
X30572951Y-4574424D01*
X30634934Y-4502616D01*
X30703540Y-4423134D01*
X30703540Y-4423133D01*
X30707564Y-4418472D01*
X30728387Y-4381818D01*
X30806276Y-4244707D01*
X30809323Y-4239344D01*
X30874351Y-4043863D01*
X30900171Y-3839474D01*
X30900583Y-3810000D01*
X30880480Y-3604970D01*
X30820935Y-3407749D01*
X30724218Y-3225849D01*
X30635756Y-3117384D01*
X30597906Y-3070975D01*
X30597903Y-3070972D01*
X30594011Y-3066200D01*
X30520878Y-3005699D01*
X30440025Y-2938811D01*
X30440021Y-2938809D01*
X30435275Y-2934882D01*
X30254055Y-2836897D01*
X30057254Y-2775977D01*
X30051129Y-2775333D01*
X30051128Y-2775333D01*
X29858498Y-2755087D01*
X29858496Y-2755087D01*
X29852369Y-2754443D01*
X29771988Y-2761758D01*
X29653342Y-2772555D01*
X29653339Y-2772556D01*
X29647203Y-2773114D01*
X29449572Y-2831280D01*
X29267002Y-2926726D01*
X29262201Y-2930586D01*
X29262198Y-2930588D01*
X29251971Y-2938811D01*
X29106447Y-3055815D01*
X28974024Y-3213630D01*
X28971056Y-3219028D01*
X28971053Y-3219033D01*
X28964315Y-3231290D01*
X28874776Y-3394162D01*
X28812484Y-3590532D01*
X28811798Y-3596649D01*
X28811797Y-3596653D01*
X28790207Y-3789137D01*
X28789520Y-3795262D01*
X28355500Y-3795262D01*
X28355500Y-3156166D01*
X28352519Y-3124631D01*
X28307634Y-2996816D01*
X28302042Y-2989246D01*
X28302041Y-2989243D01*
X28232742Y-2895421D01*
X28227150Y-2887850D01*
X28210206Y-2875335D01*
X28125757Y-2812959D01*
X28125754Y-2812958D01*
X28118184Y-2807366D01*
X27990369Y-2762481D01*
X27982723Y-2761758D01*
X27982722Y-2761758D01*
X27976752Y-2761194D01*
X27958834Y-2759500D01*
X26651166Y-2759500D01*
X26633248Y-2761194D01*
X26627278Y-2761758D01*
X26627277Y-2761758D01*
X26619631Y-2762481D01*
X26491816Y-2807366D01*
X26484246Y-2812958D01*
X26484243Y-2812959D01*
X26399794Y-2875335D01*
X26382850Y-2887850D01*
X26377258Y-2895421D01*
X26307959Y-2989243D01*
X26307958Y-2989246D01*
X26302366Y-2996816D01*
X26257481Y-3124631D01*
X26254500Y-3156166D01*
X26254500Y-4463834D01*
X23114000Y-4463834D01*
X23114000Y-42095D01*
X43230028Y-42095D01*
X43255534Y-309431D01*
X43319364Y-570285D01*
X43420182Y-819192D01*
X43555875Y-1050938D01*
X43558728Y-1054505D01*
X43670225Y-1193925D01*
X43723601Y-1260669D01*
X43919846Y-1443991D01*
X44012039Y-1507948D01*
X44136746Y-1594461D01*
X44136751Y-1594464D01*
X44140499Y-1597064D01*
X44144584Y-1599096D01*
X44144587Y-1599098D01*
X44260718Y-1656872D01*
X44380938Y-1716680D01*
X44385272Y-1718101D01*
X44385275Y-1718102D01*
X44631793Y-1798915D01*
X44631798Y-1798916D01*
X44636126Y-1800335D01*
X44640617Y-1801115D01*
X44640618Y-1801115D01*
X44896936Y-1845620D01*
X44896944Y-1845621D01*
X44900717Y-1846276D01*
X44904554Y-1846467D01*
X44983996Y-1850422D01*
X44984004Y-1850422D01*
X44985567Y-1850500D01*
X45153223Y-1850500D01*
X45155491Y-1850335D01*
X45155503Y-1850335D01*
X45285823Y-1840879D01*
X45352846Y-1836016D01*
X45357301Y-1835032D01*
X45357304Y-1835032D01*
X45610620Y-1779105D01*
X45610624Y-1779104D01*
X45615080Y-1778120D01*
X45782617Y-1714646D01*
X45861941Y-1684593D01*
X45861944Y-1684592D01*
X45866211Y-1682975D01*
X46100976Y-1552574D01*
X46243254Y-1443991D01*
X46310833Y-1392417D01*
X46310837Y-1392413D01*
X46314458Y-1389650D01*
X46502185Y-1197614D01*
X46660225Y-980491D01*
X46747313Y-814963D01*
X46783140Y-746868D01*
X46783143Y-746862D01*
X46785265Y-742828D01*
X46844703Y-574515D01*
X46873165Y-493916D01*
X46873165Y-493915D01*
X46874688Y-489603D01*
X46926620Y-226122D01*
X46926847Y-221566D01*
X46939745Y37526D01*
X46939745Y37532D01*
X46939972Y42095D01*
X46914466Y309431D01*
X46899715Y369716D01*
X46851721Y565851D01*
X46850636Y570285D01*
X46845610Y582695D01*
X46751531Y814963D01*
X46751531Y814964D01*
X46749818Y819192D01*
X46614125Y1050938D01*
X46503211Y1189629D01*
X46449251Y1257103D01*
X46449250Y1257105D01*
X46446399Y1260669D01*
X46250154Y1443991D01*
X46118232Y1535509D01*
X46033254Y1594461D01*
X46033249Y1594464D01*
X46029501Y1597064D01*
X46025416Y1599096D01*
X46025413Y1599098D01*
X45849031Y1686846D01*
X45789062Y1716680D01*
X45784728Y1718101D01*
X45784725Y1718102D01*
X45538207Y1798915D01*
X45538202Y1798916D01*
X45533874Y1800335D01*
X45529382Y1801115D01*
X45273064Y1845620D01*
X45273056Y1845621D01*
X45269283Y1846276D01*
X45260622Y1846707D01*
X45186004Y1850422D01*
X45185996Y1850422D01*
X45184433Y1850500D01*
X45016777Y1850500D01*
X45014509Y1850335D01*
X45014497Y1850335D01*
X44884177Y1840879D01*
X44817154Y1836016D01*
X44812699Y1835032D01*
X44812696Y1835032D01*
X44559380Y1779105D01*
X44559376Y1779104D01*
X44554920Y1778120D01*
X44445829Y1736789D01*
X44308059Y1684593D01*
X44308056Y1684592D01*
X44303789Y1682975D01*
X44069024Y1552574D01*
X44017134Y1512973D01*
X43859167Y1392417D01*
X43859163Y1392413D01*
X43855542Y1389650D01*
X43667815Y1197614D01*
X43509775Y980491D01*
X43507045Y975302D01*
X43386860Y746868D01*
X43386857Y746862D01*
X43384735Y742828D01*
X43383215Y738523D01*
X43383213Y738519D01*
X43323804Y570285D01*
X43295312Y489603D01*
X43279685Y410318D01*
X43258897Y304847D01*
X43243380Y226122D01*
X43243153Y221569D01*
X43243153Y221566D01*
X43232114Y-198D01*
X43230028Y-42095D01*
X23114000Y-42095D01*
X23114000Y1016000D01*
X25048318Y1016000D01*
X25068956Y859238D01*
X25129464Y713159D01*
X25225718Y587718D01*
X25232264Y582695D01*
X25248437Y570285D01*
X25351159Y491464D01*
X25497238Y430956D01*
X25654000Y410318D01*
X25662188Y411396D01*
X25802574Y429878D01*
X25810762Y430956D01*
X25956841Y491464D01*
X26059563Y570285D01*
X26075736Y582695D01*
X26082282Y587718D01*
X26178536Y713159D01*
X26239044Y859238D01*
X26259682Y1016000D01*
X26239044Y1172762D01*
X26178536Y1318841D01*
X26082282Y1444282D01*
X25956841Y1540536D01*
X25810762Y1601044D01*
X25654000Y1621682D01*
X25497238Y1601044D01*
X25351159Y1540536D01*
X25225718Y1444282D01*
X25129464Y1318841D01*
X25068956Y1172762D01*
X25048318Y1016000D01*
X23114000Y1016000D01*
X23114000Y2032000D01*
X40034318Y2032000D01*
X40054956Y1875238D01*
X40115464Y1729159D01*
X40211718Y1603718D01*
X40337159Y1507464D01*
X40483238Y1446956D01*
X40491426Y1445878D01*
X40529390Y1440880D01*
X40640000Y1426318D01*
X40648188Y1427396D01*
X40788574Y1445878D01*
X40796762Y1446956D01*
X40942841Y1507464D01*
X41068282Y1603718D01*
X41164536Y1729159D01*
X41225044Y1875238D01*
X41245682Y2032000D01*
X41225044Y2188762D01*
X41164536Y2334841D01*
X41068282Y2460282D01*
X40942841Y2556536D01*
X40796762Y2617044D01*
X40640000Y2637682D01*
X40483238Y2617044D01*
X40337159Y2556536D01*
X40211718Y2460282D01*
X40115464Y2334841D01*
X40054956Y2188762D01*
X40034318Y2032000D01*
X23114000Y2032000D01*
X23114000Y3683000D01*
X23134002Y3751121D01*
X23187658Y3797614D01*
X23240000Y3809000D01*
X45081906Y3809000D01*
X45084985Y3808924D01*
X45085000Y3808918D01*
X45085014Y3808924D01*
X45088088Y3808848D01*
X45389435Y3794044D01*
X45389847Y3794023D01*
X45454724Y3790623D01*
X45466618Y3789432D01*
X45469544Y3788998D01*
X45698031Y3755105D01*
X45699081Y3754944D01*
X45836740Y3733141D01*
X45847612Y3730923D01*
X45988205Y3695707D01*
X46060302Y3677647D01*
X46062297Y3677130D01*
X46210867Y3637321D01*
X46220687Y3634254D01*
X46421470Y3562413D01*
X46424099Y3561437D01*
X46573285Y3504170D01*
X46581978Y3500452D01*
X46637850Y3474026D01*
X46771832Y3410657D01*
X46775152Y3409027D01*
X46920255Y3335094D01*
X46927816Y3330908D01*
X47106395Y3223872D01*
X47110242Y3221471D01*
X47248225Y3131864D01*
X47254659Y3127395D01*
X47421072Y3003974D01*
X47425308Y3000691D01*
X47490267Y2948089D01*
X47553852Y2896599D01*
X47559150Y2892059D01*
X47701072Y2763428D01*
X47712351Y2753206D01*
X47716829Y2748941D01*
X47833941Y2631829D01*
X47838206Y2627351D01*
X47977059Y2474150D01*
X47981599Y2468852D01*
X48033089Y2405267D01*
X48085691Y2340308D01*
X48088974Y2336072D01*
X48212395Y2169659D01*
X48216864Y2163225D01*
X48306471Y2025242D01*
X48308872Y2021395D01*
X48415908Y1842816D01*
X48420094Y1835255D01*
X48479786Y1718102D01*
X48494022Y1690163D01*
X48495657Y1686832D01*
X48536232Y1601044D01*
X48580493Y1507464D01*
X48585449Y1496985D01*
X48589170Y1488285D01*
X48625971Y1392417D01*
X48646437Y1339100D01*
X48647413Y1336470D01*
X48719254Y1135689D01*
X48722321Y1125867D01*
X48762130Y977297D01*
X48762647Y975302D01*
X48815921Y762621D01*
X48818141Y751740D01*
X48839931Y614168D01*
X48840103Y613044D01*
X48857392Y496491D01*
X48874432Y381618D01*
X48875623Y369724D01*
X48879023Y304847D01*
X48879044Y304435D01*
X48893848Y3088D01*
X48893924Y14D01*
X48893918Y0D01*
X48893924Y-15D01*
X48894000Y-3094D01*
X48894000Y-40001906D01*
X48893924Y-40004985D01*
X48893918Y-40005000D01*
X48893924Y-40005014D01*
X48893848Y-40008088D01*
X48879044Y-40309435D01*
X48879023Y-40309847D01*
X48875623Y-40374724D01*
X48874432Y-40386618D01*
X48845819Y-40579515D01*
X48840118Y-40617946D01*
X48839944Y-40619081D01*
X48818141Y-40756740D01*
X48815923Y-40767612D01*
X48794469Y-40853264D01*
X48762647Y-40980302D01*
X48762130Y-40982297D01*
X48722321Y-41130867D01*
X48719254Y-41140687D01*
X48647413Y-41341470D01*
X48646437Y-41344099D01*
X48589170Y-41493285D01*
X48585449Y-41501985D01*
X48495657Y-41691832D01*
X48494027Y-41695152D01*
X48420094Y-41840255D01*
X48415908Y-41847816D01*
X48308872Y-42026395D01*
X48306471Y-42030242D01*
X48216864Y-42168225D01*
X48212395Y-42174659D01*
X48088974Y-42341072D01*
X48085691Y-42345308D01*
X48033089Y-42410267D01*
X47981599Y-42473852D01*
X47977059Y-42479150D01*
X47848428Y-42621072D01*
X47838206Y-42632351D01*
X47833941Y-42636829D01*
X47716829Y-42753941D01*
X47712351Y-42758206D01*
X47559150Y-42897059D01*
X47553852Y-42901599D01*
X47490267Y-42953089D01*
X47425308Y-43005691D01*
X47421072Y-43008974D01*
X47254659Y-43132395D01*
X47248225Y-43136864D01*
X47110242Y-43226471D01*
X47106395Y-43228872D01*
X46927816Y-43335908D01*
X46920255Y-43340094D01*
X46775163Y-43414022D01*
X46771832Y-43415657D01*
X46637850Y-43479026D01*
X46581980Y-43505451D01*
X46573285Y-43509170D01*
X46424134Y-43566424D01*
X46424100Y-43566437D01*
X46421470Y-43567413D01*
X46220687Y-43639254D01*
X46210867Y-43642321D01*
X46062297Y-43682130D01*
X46060302Y-43682647D01*
X45988205Y-43700707D01*
X45847612Y-43735923D01*
X45836740Y-43738141D01*
X45699081Y-43759944D01*
X45698039Y-43760104D01*
X45508761Y-43788181D01*
X45466618Y-43794432D01*
X45454724Y-43795623D01*
X45389847Y-43799023D01*
X45389435Y-43799044D01*
X45088088Y-43813848D01*
X45085014Y-43813924D01*
X45085000Y-43813918D01*
X45084985Y-43813924D01*
X45081906Y-43814000D01*
X3094Y-43814000D01*
X15Y-43813924D01*
X0Y-43813918D01*
X-14Y-43813924D01*
X-3088Y-43813848D01*
X-304954Y-43799019D01*
X-331212Y-43797642D01*
X-369716Y-43795624D01*
X-381608Y-43794433D01*
X-613030Y-43760105D01*
X-614253Y-43759918D01*
X-751717Y-43738146D01*
X-762621Y-43735921D01*
X-975304Y-43682647D01*
X-975360Y-43682633D01*
X-977340Y-43682120D01*
X-1125852Y-43642326D01*
X-1135680Y-43639257D01*
X-1336469Y-43567413D01*
X-1339116Y-43566431D01*
X-1488265Y-43509178D01*
X-1496977Y-43505451D01*
X-1686846Y-43415649D01*
X-1690176Y-43414014D01*
X-1835241Y-43340101D01*
X-1842816Y-43335908D01*
X-2021395Y-43228872D01*
X-2025242Y-43226471D01*
X-2163225Y-43136864D01*
X-2169659Y-43132395D01*
X-2336072Y-43008974D01*
X-2340308Y-43005691D01*
X-2405267Y-42953089D01*
X-2468852Y-42901599D01*
X-2474150Y-42897059D01*
X-2627351Y-42758206D01*
X-2631829Y-42753941D01*
X-2748941Y-42636829D01*
X-2753206Y-42632351D01*
X-2763428Y-42621072D01*
X-2892059Y-42479150D01*
X-2896599Y-42473852D01*
X-2948089Y-42410267D01*
X-3000691Y-42345308D01*
X-3003974Y-42341072D01*
X-3127395Y-42174659D01*
X-3131864Y-42168225D01*
X-3221471Y-42030242D01*
X-3223872Y-42026395D01*
X-3330908Y-41847816D01*
X-3335101Y-41840241D01*
X-3409014Y-41695176D01*
X-3410649Y-41691846D01*
X-3500451Y-41501977D01*
X-3504180Y-41493260D01*
X-3561424Y-41344136D01*
X-3562413Y-41341470D01*
X-3634257Y-41140680D01*
X-3637326Y-41130852D01*
X-3677120Y-40982340D01*
X-3677637Y-40980344D01*
X-3677647Y-40980302D01*
X-3730921Y-40767621D01*
X-3733146Y-40756717D01*
X-3754918Y-40619253D01*
X-3755105Y-40618030D01*
X-3789433Y-40386608D01*
X-3790624Y-40374716D01*
X-3794013Y-40310065D01*
X-3794034Y-40309651D01*
X-3794044Y-40309435D01*
X-3806932Y-40047095D01*
X-1854972Y-40047095D01*
X-1829466Y-40314431D01*
X-1828381Y-40318865D01*
X-1828380Y-40318871D01*
X-1814713Y-40374724D01*
X-1765636Y-40575285D01*
X-1763924Y-40579511D01*
X-1763923Y-40579515D01*
X-1708218Y-40717044D01*
X-1664818Y-40824192D01*
X-1529125Y-41055938D01*
X-1483804Y-41112609D01*
X-1414775Y-41198925D01*
X-1361399Y-41265669D01*
X-1165154Y-41448991D01*
X-1101341Y-41493260D01*
X-948254Y-41599461D01*
X-948249Y-41599464D01*
X-944501Y-41602064D01*
X-940416Y-41604096D01*
X-940413Y-41604098D01*
X-824281Y-41661872D01*
X-704062Y-41721680D01*
X-699728Y-41723101D01*
X-699725Y-41723102D01*
X-453207Y-41803915D01*
X-453202Y-41803916D01*
X-448874Y-41805335D01*
X-444383Y-41806115D01*
X-444382Y-41806115D01*
X-188064Y-41850620D01*
X-188056Y-41850621D01*
X-184283Y-41851276D01*
X-180446Y-41851467D01*
X-101004Y-41855422D01*
X-100996Y-41855422D01*
X-99433Y-41855500D01*
X68223Y-41855500D01*
X70491Y-41855335D01*
X70503Y-41855335D01*
X200823Y-41845879D01*
X267846Y-41841016D01*
X272301Y-41840032D01*
X272304Y-41840032D01*
X525620Y-41784105D01*
X525624Y-41784104D01*
X530080Y-41783120D01*
X758087Y-41696736D01*
X776941Y-41689593D01*
X776944Y-41689592D01*
X781211Y-41687975D01*
X1015976Y-41557574D01*
X1137061Y-41465165D01*
X1225833Y-41397417D01*
X1225837Y-41397413D01*
X1229458Y-41394650D01*
X1346423Y-41275000D01*
X21619318Y-41275000D01*
X21639956Y-41431762D01*
X21700464Y-41577841D01*
X21705491Y-41584392D01*
X21784973Y-41687975D01*
X21796718Y-41703282D01*
X21922159Y-41799536D01*
X22047070Y-41851276D01*
X22057080Y-41855422D01*
X22068238Y-41860044D01*
X22225000Y-41880682D01*
X22233188Y-41879604D01*
X22373574Y-41861122D01*
X22381762Y-41860044D01*
X22392921Y-41855422D01*
X22402930Y-41851276D01*
X22527841Y-41799536D01*
X22653282Y-41703282D01*
X22665028Y-41687975D01*
X22744509Y-41584392D01*
X22749536Y-41577841D01*
X22810044Y-41431762D01*
X22830682Y-41275000D01*
X22810044Y-41118238D01*
X22749536Y-40972159D01*
X22653282Y-40846718D01*
X22527841Y-40750464D01*
X22381762Y-40689956D01*
X22225000Y-40669318D01*
X22068238Y-40689956D01*
X21922159Y-40750464D01*
X21796718Y-40846718D01*
X21700464Y-40972159D01*
X21639956Y-41118238D01*
X21619318Y-41275000D01*
X1346423Y-41275000D01*
X1417185Y-41202614D01*
X1575225Y-40985491D01*
X1648237Y-40846718D01*
X1698140Y-40751868D01*
X1698143Y-40751862D01*
X1700265Y-40747828D01*
X1710756Y-40718122D01*
X1788165Y-40498916D01*
X1788165Y-40498915D01*
X1789688Y-40494603D01*
X1825200Y-40314431D01*
X1840739Y-40235594D01*
X1840740Y-40235588D01*
X1841620Y-40231122D01*
X1846147Y-40140188D01*
X1846555Y-40132000D01*
X2950318Y-40132000D01*
X2970956Y-40288762D01*
X3031464Y-40434841D01*
X3127718Y-40560282D01*
X3253159Y-40656536D01*
X3399238Y-40717044D01*
X3556000Y-40737682D01*
X3564188Y-40736604D01*
X3704574Y-40718122D01*
X3712762Y-40717044D01*
X3858841Y-40656536D01*
X3984282Y-40560282D01*
X4080536Y-40434841D01*
X4141044Y-40288762D01*
X4161682Y-40132000D01*
X4150504Y-40047095D01*
X43230028Y-40047095D01*
X43255534Y-40314431D01*
X43256619Y-40318865D01*
X43256620Y-40318871D01*
X43270287Y-40374724D01*
X43319364Y-40575285D01*
X43321076Y-40579511D01*
X43321077Y-40579515D01*
X43376782Y-40717044D01*
X43420182Y-40824192D01*
X43555875Y-41055938D01*
X43601196Y-41112609D01*
X43670225Y-41198925D01*
X43723601Y-41265669D01*
X43919846Y-41448991D01*
X43983659Y-41493260D01*
X44136746Y-41599461D01*
X44136751Y-41599464D01*
X44140499Y-41602064D01*
X44144584Y-41604096D01*
X44144587Y-41604098D01*
X44260719Y-41661872D01*
X44380938Y-41721680D01*
X44385272Y-41723101D01*
X44385275Y-41723102D01*
X44631793Y-41803915D01*
X44631798Y-41803916D01*
X44636126Y-41805335D01*
X44640617Y-41806115D01*
X44640618Y-41806115D01*
X44896936Y-41850620D01*
X44896944Y-41850621D01*
X44900717Y-41851276D01*
X44904554Y-41851467D01*
X44983996Y-41855422D01*
X44984004Y-41855422D01*
X44985567Y-41855500D01*
X45153223Y-41855500D01*
X45155491Y-41855335D01*
X45155503Y-41855335D01*
X45285823Y-41845879D01*
X45352846Y-41841016D01*
X45357301Y-41840032D01*
X45357304Y-41840032D01*
X45610620Y-41784105D01*
X45610624Y-41784104D01*
X45615080Y-41783120D01*
X45843087Y-41696736D01*
X45861941Y-41689593D01*
X45861944Y-41689592D01*
X45866211Y-41687975D01*
X46100976Y-41557574D01*
X46222061Y-41465165D01*
X46310833Y-41397417D01*
X46310837Y-41397413D01*
X46314458Y-41394650D01*
X46502185Y-41202614D01*
X46660225Y-40985491D01*
X46733237Y-40846718D01*
X46783140Y-40751868D01*
X46783143Y-40751862D01*
X46785265Y-40747828D01*
X46795756Y-40718122D01*
X46873165Y-40498916D01*
X46873165Y-40498915D01*
X46874688Y-40494603D01*
X46910200Y-40314431D01*
X46925739Y-40235594D01*
X46925740Y-40235588D01*
X46926620Y-40231122D01*
X46931147Y-40140188D01*
X46939745Y-39967474D01*
X46939745Y-39967468D01*
X46939972Y-39962905D01*
X46914466Y-39695569D01*
X46850636Y-39434715D01*
X46749818Y-39185808D01*
X46614125Y-38954062D01*
X46503211Y-38815371D01*
X46449251Y-38747897D01*
X46449250Y-38747895D01*
X46446399Y-38744331D01*
X46250154Y-38561009D01*
X46090436Y-38450208D01*
X46033254Y-38410539D01*
X46033249Y-38410536D01*
X46029501Y-38407936D01*
X46025416Y-38405904D01*
X46025413Y-38405902D01*
X45853560Y-38320407D01*
X45789062Y-38288320D01*
X45784728Y-38286899D01*
X45784725Y-38286898D01*
X45538207Y-38206085D01*
X45538202Y-38206084D01*
X45533874Y-38204665D01*
X45529382Y-38203885D01*
X45273064Y-38159380D01*
X45273056Y-38159379D01*
X45269283Y-38158724D01*
X45260622Y-38158293D01*
X45186004Y-38154578D01*
X45185996Y-38154578D01*
X45184433Y-38154500D01*
X45016777Y-38154500D01*
X45014509Y-38154665D01*
X45014497Y-38154665D01*
X44884177Y-38164121D01*
X44817154Y-38168984D01*
X44812699Y-38169968D01*
X44812696Y-38169968D01*
X44559380Y-38225895D01*
X44559376Y-38225896D01*
X44554920Y-38226880D01*
X44504169Y-38246108D01*
X44308059Y-38320407D01*
X44308056Y-38320408D01*
X44303789Y-38322025D01*
X44069024Y-38452426D01*
X44065392Y-38455198D01*
X43859167Y-38612583D01*
X43859163Y-38612587D01*
X43855542Y-38615350D01*
X43667815Y-38807386D01*
X43509775Y-39024509D01*
X43507651Y-39028547D01*
X43386860Y-39258132D01*
X43386857Y-39258138D01*
X43384735Y-39262172D01*
X43383215Y-39266477D01*
X43383213Y-39266481D01*
X43323804Y-39434715D01*
X43295312Y-39515397D01*
X43243380Y-39778878D01*
X43243153Y-39783431D01*
X43243153Y-39783434D01*
X43231970Y-40008088D01*
X43230028Y-40047095D01*
X4150504Y-40047095D01*
X4141044Y-39975238D01*
X4135936Y-39962905D01*
X4083696Y-39836789D01*
X4080536Y-39829159D01*
X3984282Y-39703718D01*
X3858841Y-39607464D01*
X3712762Y-39546956D01*
X3556000Y-39526318D01*
X3399238Y-39546956D01*
X3253159Y-39607464D01*
X3127718Y-39703718D01*
X3031464Y-39829159D01*
X3028304Y-39836789D01*
X2976065Y-39962905D01*
X2970956Y-39975238D01*
X2950318Y-40132000D01*
X1846555Y-40132000D01*
X1854745Y-39967474D01*
X1854745Y-39967468D01*
X1854972Y-39962905D01*
X1829466Y-39695569D01*
X1765636Y-39434715D01*
X1664818Y-39185808D01*
X1529125Y-38954062D01*
X1418211Y-38815371D01*
X1364251Y-38747897D01*
X1364250Y-38747895D01*
X1361399Y-38744331D01*
X1165154Y-38561009D01*
X1005436Y-38450208D01*
X948254Y-38410539D01*
X948249Y-38410536D01*
X944501Y-38407936D01*
X940416Y-38405904D01*
X940413Y-38405902D01*
X768560Y-38320407D01*
X704062Y-38288320D01*
X699728Y-38286899D01*
X699725Y-38286898D01*
X453207Y-38206085D01*
X453202Y-38206084D01*
X448874Y-38204665D01*
X444382Y-38203885D01*
X188064Y-38159380D01*
X188056Y-38159379D01*
X184283Y-38158724D01*
X175622Y-38158293D01*
X101004Y-38154578D01*
X100996Y-38154578D01*
X99433Y-38154500D01*
X-68223Y-38154500D01*
X-70491Y-38154665D01*
X-70503Y-38154665D01*
X-200823Y-38164121D01*
X-267846Y-38168984D01*
X-272301Y-38169968D01*
X-272304Y-38169968D01*
X-525620Y-38225895D01*
X-525624Y-38225896D01*
X-530080Y-38226880D01*
X-580831Y-38246108D01*
X-776941Y-38320407D01*
X-776944Y-38320408D01*
X-781211Y-38322025D01*
X-1015976Y-38452426D01*
X-1019608Y-38455198D01*
X-1225833Y-38612583D01*
X-1225837Y-38612587D01*
X-1229458Y-38615350D01*
X-1417185Y-38807386D01*
X-1575225Y-39024509D01*
X-1577349Y-39028547D01*
X-1698140Y-39258132D01*
X-1698143Y-39258138D01*
X-1700265Y-39262172D01*
X-1701785Y-39266477D01*
X-1701787Y-39266481D01*
X-1761196Y-39434715D01*
X-1789688Y-39515397D01*
X-1841620Y-39778878D01*
X-1841847Y-39783431D01*
X-1841847Y-39783434D01*
X-1853030Y-40008088D01*
X-1854972Y-40047095D01*
X-3806932Y-40047095D01*
X-3808848Y-40008088D01*
X-3808924Y-40005014D01*
X-3808918Y-40005000D01*
X-3808924Y-40004985D01*
X-3809000Y-40001906D01*
X-3809000Y-37923307D01*
X12075606Y-37923307D01*
X12104064Y-38064444D01*
X12169429Y-38192730D01*
X12175242Y-38199052D01*
X12175243Y-38199053D01*
X12180404Y-38204665D01*
X12266884Y-38298712D01*
X12389250Y-38374582D01*
X12527512Y-38414751D01*
X12534327Y-38415251D01*
X12535404Y-38415331D01*
X12535417Y-38415331D01*
X12537712Y-38415500D01*
X12641070Y-38415500D01*
X12645315Y-38414918D01*
X12645322Y-38414918D01*
X12704231Y-38406848D01*
X12747646Y-38400901D01*
X12802929Y-38376978D01*
X12871902Y-38347131D01*
X12871905Y-38347129D01*
X12879783Y-38343720D01*
X12991675Y-38253112D01*
X13075079Y-38135751D01*
X13123850Y-38000285D01*
X13129503Y-37923307D01*
X16075606Y-37923307D01*
X16104064Y-38064444D01*
X16169429Y-38192730D01*
X16175242Y-38199052D01*
X16175243Y-38199053D01*
X16180404Y-38204665D01*
X16266884Y-38298712D01*
X16389250Y-38374582D01*
X16527512Y-38414751D01*
X16534327Y-38415251D01*
X16535404Y-38415331D01*
X16535417Y-38415331D01*
X16537712Y-38415500D01*
X16641070Y-38415500D01*
X16645315Y-38414918D01*
X16645322Y-38414918D01*
X16704231Y-38406848D01*
X16747646Y-38400901D01*
X16802929Y-38376978D01*
X16871902Y-38347131D01*
X16871905Y-38347129D01*
X16879783Y-38343720D01*
X16991675Y-38253112D01*
X17075079Y-38135751D01*
X17123850Y-38000285D01*
X17134394Y-37856693D01*
X17105936Y-37715556D01*
X17040571Y-37587270D01*
X16943116Y-37481288D01*
X16820750Y-37405418D01*
X16682488Y-37365249D01*
X16675673Y-37364749D01*
X16674596Y-37364669D01*
X16674583Y-37364669D01*
X16672288Y-37364500D01*
X16568930Y-37364500D01*
X16564685Y-37365082D01*
X16564678Y-37365082D01*
X16505769Y-37373152D01*
X16462354Y-37379099D01*
X16454470Y-37382511D01*
X16454469Y-37382511D01*
X16338098Y-37432869D01*
X16338095Y-37432871D01*
X16330217Y-37436280D01*
X16218325Y-37526888D01*
X16134921Y-37644249D01*
X16086150Y-37779715D01*
X16075606Y-37923307D01*
X13129503Y-37923307D01*
X13134394Y-37856693D01*
X13105936Y-37715556D01*
X13040571Y-37587270D01*
X12943116Y-37481288D01*
X12820750Y-37405418D01*
X12682488Y-37365249D01*
X12675673Y-37364749D01*
X12674596Y-37364669D01*
X12674583Y-37364669D01*
X12672288Y-37364500D01*
X12568930Y-37364500D01*
X12564685Y-37365082D01*
X12564678Y-37365082D01*
X12505769Y-37373152D01*
X12462354Y-37379099D01*
X12454470Y-37382511D01*
X12454469Y-37382511D01*
X12338098Y-37432869D01*
X12338095Y-37432871D01*
X12330217Y-37436280D01*
X12218325Y-37526888D01*
X12134921Y-37644249D01*
X12086150Y-37779715D01*
X12075606Y-37923307D01*
X-3809000Y-37923307D01*
X-3809000Y-35052000D01*
X4982318Y-35052000D01*
X5002956Y-35208762D01*
X5063464Y-35354841D01*
X5159718Y-35480282D01*
X5285159Y-35576536D01*
X5431238Y-35637044D01*
X5588000Y-35657682D01*
X5596188Y-35656604D01*
X5736574Y-35638122D01*
X5744762Y-35637044D01*
X5890841Y-35576536D01*
X6016282Y-35480282D01*
X6112536Y-35354841D01*
X6173044Y-35208762D01*
X6193682Y-35052000D01*
X6173044Y-34895238D01*
X6112536Y-34749159D01*
X6016282Y-34623718D01*
X5890841Y-34527464D01*
X5744762Y-34466956D01*
X5588000Y-34446318D01*
X5431238Y-34466956D01*
X5285159Y-34527464D01*
X5159718Y-34623718D01*
X5063464Y-34749159D01*
X5002956Y-34895238D01*
X4982318Y-35052000D01*
X-3809000Y-35052000D01*
X-3809000Y-34214748D01*
X34509500Y-34214748D01*
X34510707Y-34220816D01*
X34514331Y-34239033D01*
X34521133Y-34273231D01*
X34565448Y-34339552D01*
X34631769Y-34383867D01*
X34643938Y-34386288D01*
X34643939Y-34386288D01*
X34684184Y-34394293D01*
X34690252Y-34395500D01*
X36429748Y-34395500D01*
X36435816Y-34394293D01*
X36476061Y-34386288D01*
X36476062Y-34386288D01*
X36488231Y-34383867D01*
X36554552Y-34339552D01*
X36598867Y-34273231D01*
X36605670Y-34239033D01*
X36609293Y-34220816D01*
X36610500Y-34214748D01*
X36610500Y-33330262D01*
X37044520Y-33330262D01*
X37061759Y-33535553D01*
X37063458Y-33541478D01*
X37109395Y-33701678D01*
X37118544Y-33733586D01*
X37121359Y-33739063D01*
X37121360Y-33739066D01*
X37209897Y-33911341D01*
X37212712Y-33916818D01*
X37340677Y-34078270D01*
X37345370Y-34082264D01*
X37345371Y-34082265D01*
X37419541Y-34145388D01*
X37497564Y-34211791D01*
X37502942Y-34214797D01*
X37502944Y-34214798D01*
X37533387Y-34231812D01*
X37677398Y-34312297D01*
X37761280Y-34339552D01*
X37867471Y-34374056D01*
X37867475Y-34374057D01*
X37873329Y-34375959D01*
X38077894Y-34400351D01*
X38084029Y-34399879D01*
X38084031Y-34399879D01*
X38156625Y-34394293D01*
X38283300Y-34384546D01*
X38289230Y-34382890D01*
X38289232Y-34382890D01*
X38475797Y-34330800D01*
X38475796Y-34330800D01*
X38481725Y-34329145D01*
X38487214Y-34326372D01*
X38487220Y-34326370D01*
X38660116Y-34239033D01*
X38665610Y-34236258D01*
X38681345Y-34223965D01*
X38823101Y-34113213D01*
X38827951Y-34109424D01*
X38885992Y-34042183D01*
X38958540Y-33958134D01*
X38958540Y-33958133D01*
X38962564Y-33953472D01*
X38983387Y-33916818D01*
X39001056Y-33885714D01*
X39064323Y-33774344D01*
X39129351Y-33578863D01*
X39155171Y-33374474D01*
X39155583Y-33345000D01*
X39154138Y-33330262D01*
X39584520Y-33330262D01*
X39601759Y-33535553D01*
X39603458Y-33541478D01*
X39649395Y-33701678D01*
X39658544Y-33733586D01*
X39661359Y-33739063D01*
X39661360Y-33739066D01*
X39749897Y-33911341D01*
X39752712Y-33916818D01*
X39880677Y-34078270D01*
X39885370Y-34082264D01*
X39885371Y-34082265D01*
X39959541Y-34145388D01*
X40037564Y-34211791D01*
X40042942Y-34214797D01*
X40042944Y-34214798D01*
X40073387Y-34231812D01*
X40217398Y-34312297D01*
X40301280Y-34339552D01*
X40407471Y-34374056D01*
X40407475Y-34374057D01*
X40413329Y-34375959D01*
X40617894Y-34400351D01*
X40624029Y-34399879D01*
X40624031Y-34399879D01*
X40696625Y-34394293D01*
X40823300Y-34384546D01*
X40829230Y-34382890D01*
X40829232Y-34382890D01*
X41015797Y-34330800D01*
X41015796Y-34330800D01*
X41021725Y-34329145D01*
X41027214Y-34326372D01*
X41027220Y-34326370D01*
X41200116Y-34239033D01*
X41205610Y-34236258D01*
X41221345Y-34223965D01*
X41363101Y-34113213D01*
X41367951Y-34109424D01*
X41425992Y-34042183D01*
X41498540Y-33958134D01*
X41498540Y-33958133D01*
X41502564Y-33953472D01*
X41523387Y-33916818D01*
X41541056Y-33885714D01*
X41604323Y-33774344D01*
X41669351Y-33578863D01*
X41695171Y-33374474D01*
X41695583Y-33345000D01*
X41694138Y-33330262D01*
X42124520Y-33330262D01*
X42141759Y-33535553D01*
X42143458Y-33541478D01*
X42189395Y-33701678D01*
X42198544Y-33733586D01*
X42201359Y-33739063D01*
X42201360Y-33739066D01*
X42289897Y-33911341D01*
X42292712Y-33916818D01*
X42420677Y-34078270D01*
X42425370Y-34082264D01*
X42425371Y-34082265D01*
X42499541Y-34145388D01*
X42577564Y-34211791D01*
X42582942Y-34214797D01*
X42582944Y-34214798D01*
X42613387Y-34231812D01*
X42757398Y-34312297D01*
X42841280Y-34339552D01*
X42947471Y-34374056D01*
X42947475Y-34374057D01*
X42953329Y-34375959D01*
X43157894Y-34400351D01*
X43164029Y-34399879D01*
X43164031Y-34399879D01*
X43236625Y-34394293D01*
X43363300Y-34384546D01*
X43369230Y-34382890D01*
X43369232Y-34382890D01*
X43555797Y-34330800D01*
X43555796Y-34330800D01*
X43561725Y-34329145D01*
X43567214Y-34326372D01*
X43567220Y-34326370D01*
X43740116Y-34239033D01*
X43745610Y-34236258D01*
X43761345Y-34223965D01*
X43903101Y-34113213D01*
X43907951Y-34109424D01*
X43965992Y-34042183D01*
X44038540Y-33958134D01*
X44038540Y-33958133D01*
X44042564Y-33953472D01*
X44063387Y-33916818D01*
X44081056Y-33885714D01*
X44144323Y-33774344D01*
X44153271Y-33747444D01*
X44168496Y-33701678D01*
X44208978Y-33643354D01*
X44274566Y-33616175D01*
X44344437Y-33628770D01*
X44396406Y-33677141D01*
X44410971Y-33713751D01*
X44418564Y-33747444D01*
X44421645Y-33757275D01*
X44501770Y-33954603D01*
X44506413Y-33963794D01*
X44617694Y-34145388D01*
X44623777Y-34153699D01*
X44763213Y-34314667D01*
X44770580Y-34321883D01*
X44934434Y-34457916D01*
X44942881Y-34463831D01*
X45126756Y-34571279D01*
X45136042Y-34575729D01*
X45335001Y-34651703D01*
X45344899Y-34654579D01*
X45448250Y-34675606D01*
X45462299Y-34674410D01*
X45466000Y-34664065D01*
X45466000Y-34663517D01*
X45974000Y-34663517D01*
X45978064Y-34677359D01*
X45991478Y-34679393D01*
X45998184Y-34678534D01*
X46008262Y-34676392D01*
X46212255Y-34615191D01*
X46221842Y-34611433D01*
X46413095Y-34517739D01*
X46421945Y-34512464D01*
X46595328Y-34388792D01*
X46603200Y-34382139D01*
X46754052Y-34231812D01*
X46760730Y-34223965D01*
X46885003Y-34051020D01*
X46890313Y-34042183D01*
X46984670Y-33851267D01*
X46988469Y-33841672D01*
X47050377Y-33637910D01*
X47052555Y-33627837D01*
X47053986Y-33616962D01*
X47051775Y-33602778D01*
X47038617Y-33599000D01*
X45992115Y-33599000D01*
X45976876Y-33603475D01*
X45975671Y-33604865D01*
X45974000Y-33612548D01*
X45974000Y-34663517D01*
X45466000Y-34663517D01*
X45466000Y-33072885D01*
X45974000Y-33072885D01*
X45978475Y-33088124D01*
X45979865Y-33089329D01*
X45987548Y-33091000D01*
X47038344Y-33091000D01*
X47051875Y-33087027D01*
X47053180Y-33077947D01*
X47011214Y-32910875D01*
X47007894Y-32901124D01*
X46922972Y-32705814D01*
X46918105Y-32696739D01*
X46802426Y-32517926D01*
X46796136Y-32509757D01*
X46652806Y-32352240D01*
X46645273Y-32345215D01*
X46478139Y-32213222D01*
X46469552Y-32207517D01*
X46283117Y-32104599D01*
X46273705Y-32100369D01*
X46072959Y-32029280D01*
X46062988Y-32026646D01*
X45991837Y-32013972D01*
X45978540Y-32015432D01*
X45974000Y-32029989D01*
X45974000Y-33072885D01*
X45466000Y-33072885D01*
X45466000Y-32028102D01*
X45462082Y-32014758D01*
X45447806Y-32012771D01*
X45409324Y-32018660D01*
X45399288Y-32021051D01*
X45196868Y-32087212D01*
X45187359Y-32091209D01*
X44998463Y-32189542D01*
X44989738Y-32195036D01*
X44819433Y-32322905D01*
X44811726Y-32329748D01*
X44664590Y-32483717D01*
X44658104Y-32491727D01*
X44538098Y-32667649D01*
X44533000Y-32676623D01*
X44443338Y-32869783D01*
X44439775Y-32879470D01*
X44411012Y-32983185D01*
X44373533Y-33043483D01*
X44309405Y-33073946D01*
X44238986Y-33064903D01*
X44184636Y-33019224D01*
X44168973Y-32985933D01*
X44168143Y-32983185D01*
X44155935Y-32942749D01*
X44059218Y-32760849D01*
X43983206Y-32667649D01*
X43932906Y-32605975D01*
X43932903Y-32605972D01*
X43929011Y-32601200D01*
X43911786Y-32586950D01*
X43775025Y-32473811D01*
X43775021Y-32473809D01*
X43770275Y-32469882D01*
X43589055Y-32371897D01*
X43392254Y-32310977D01*
X43386129Y-32310333D01*
X43386128Y-32310333D01*
X43193498Y-32290087D01*
X43193496Y-32290087D01*
X43187369Y-32289443D01*
X43100529Y-32297346D01*
X42988342Y-32307555D01*
X42988339Y-32307556D01*
X42982203Y-32308114D01*
X42784572Y-32366280D01*
X42602002Y-32461726D01*
X42597201Y-32465586D01*
X42597198Y-32465588D01*
X42564688Y-32491727D01*
X42441447Y-32590815D01*
X42309024Y-32748630D01*
X42306056Y-32754028D01*
X42306053Y-32754033D01*
X42299315Y-32766290D01*
X42209776Y-32929162D01*
X42147484Y-33125532D01*
X42146798Y-33131649D01*
X42146797Y-33131653D01*
X42125207Y-33324137D01*
X42124520Y-33330262D01*
X41694138Y-33330262D01*
X41675480Y-33139970D01*
X41615935Y-32942749D01*
X41519218Y-32760849D01*
X41443206Y-32667649D01*
X41392906Y-32605975D01*
X41392903Y-32605972D01*
X41389011Y-32601200D01*
X41371786Y-32586950D01*
X41235025Y-32473811D01*
X41235021Y-32473809D01*
X41230275Y-32469882D01*
X41049055Y-32371897D01*
X40852254Y-32310977D01*
X40846129Y-32310333D01*
X40846128Y-32310333D01*
X40653498Y-32290087D01*
X40653496Y-32290087D01*
X40647369Y-32289443D01*
X40560529Y-32297346D01*
X40448342Y-32307555D01*
X40448339Y-32307556D01*
X40442203Y-32308114D01*
X40244572Y-32366280D01*
X40062002Y-32461726D01*
X40057201Y-32465586D01*
X40057198Y-32465588D01*
X40024688Y-32491727D01*
X39901447Y-32590815D01*
X39769024Y-32748630D01*
X39766056Y-32754028D01*
X39766053Y-32754033D01*
X39759315Y-32766290D01*
X39669776Y-32929162D01*
X39607484Y-33125532D01*
X39606798Y-33131649D01*
X39606797Y-33131653D01*
X39585207Y-33324137D01*
X39584520Y-33330262D01*
X39154138Y-33330262D01*
X39135480Y-33139970D01*
X39075935Y-32942749D01*
X38979218Y-32760849D01*
X38903206Y-32667649D01*
X38852906Y-32605975D01*
X38852903Y-32605972D01*
X38849011Y-32601200D01*
X38831786Y-32586950D01*
X38695025Y-32473811D01*
X38695021Y-32473809D01*
X38690275Y-32469882D01*
X38509055Y-32371897D01*
X38312254Y-32310977D01*
X38306129Y-32310333D01*
X38306128Y-32310333D01*
X38113498Y-32290087D01*
X38113496Y-32290087D01*
X38107369Y-32289443D01*
X38020529Y-32297346D01*
X37908342Y-32307555D01*
X37908339Y-32307556D01*
X37902203Y-32308114D01*
X37704572Y-32366280D01*
X37522002Y-32461726D01*
X37517201Y-32465586D01*
X37517198Y-32465588D01*
X37484688Y-32491727D01*
X37361447Y-32590815D01*
X37229024Y-32748630D01*
X37226056Y-32754028D01*
X37226053Y-32754033D01*
X37219315Y-32766290D01*
X37129776Y-32929162D01*
X37067484Y-33125532D01*
X37066798Y-33131649D01*
X37066797Y-33131653D01*
X37045207Y-33324137D01*
X37044520Y-33330262D01*
X36610500Y-33330262D01*
X36610500Y-32475252D01*
X36598867Y-32416769D01*
X36554552Y-32350448D01*
X36488231Y-32306133D01*
X36476062Y-32303712D01*
X36476061Y-32303712D01*
X36435816Y-32295707D01*
X36429748Y-32294500D01*
X34690252Y-32294500D01*
X34684184Y-32295707D01*
X34643939Y-32303712D01*
X34643938Y-32303712D01*
X34631769Y-32306133D01*
X34565448Y-32350448D01*
X34521133Y-32416769D01*
X34509500Y-32475252D01*
X34509500Y-34214748D01*
X-3809000Y-34214748D01*
X-3809000Y-32024669D01*
X15787001Y-32024669D01*
X15787371Y-32031490D01*
X15792895Y-32082352D01*
X15796521Y-32097604D01*
X15841676Y-32218054D01*
X15850214Y-32233649D01*
X15926715Y-32335724D01*
X15939276Y-32348285D01*
X16041351Y-32424786D01*
X16056946Y-32433324D01*
X16177394Y-32478478D01*
X16192649Y-32482105D01*
X16243514Y-32487631D01*
X16250328Y-32488000D01*
X16872885Y-32488000D01*
X16888124Y-32483525D01*
X16889329Y-32482135D01*
X16891000Y-32474452D01*
X16891000Y-32469884D01*
X17399000Y-32469884D01*
X17403475Y-32485123D01*
X17404865Y-32486328D01*
X17412548Y-32487999D01*
X18039669Y-32487999D01*
X18046490Y-32487629D01*
X18097352Y-32482105D01*
X18112604Y-32478479D01*
X18233054Y-32433324D01*
X18248649Y-32424786D01*
X18350724Y-32348285D01*
X18363285Y-32335724D01*
X18439786Y-32233649D01*
X18448324Y-32218054D01*
X18493478Y-32097606D01*
X18497105Y-32082351D01*
X18502631Y-32031486D01*
X18503000Y-32024672D01*
X18503000Y-31402115D01*
X18498525Y-31386876D01*
X18497135Y-31385671D01*
X18489452Y-31384000D01*
X17417115Y-31384000D01*
X17401876Y-31388475D01*
X17400671Y-31389865D01*
X17399000Y-31397548D01*
X17399000Y-32469884D01*
X16891000Y-32469884D01*
X16891000Y-31402115D01*
X16886525Y-31386876D01*
X16885135Y-31385671D01*
X16877452Y-31384000D01*
X15805116Y-31384000D01*
X15789877Y-31388475D01*
X15788672Y-31389865D01*
X15787001Y-31397548D01*
X15787001Y-32024669D01*
X-3809000Y-32024669D01*
X-3809000Y-31100262D01*
X22439520Y-31100262D01*
X22456759Y-31305553D01*
X22458458Y-31311478D01*
X22480147Y-31387115D01*
X22513544Y-31503586D01*
X22516359Y-31509063D01*
X22516360Y-31509066D01*
X22582650Y-31638052D01*
X22607712Y-31686818D01*
X22735677Y-31848270D01*
X22892564Y-31981791D01*
X23072398Y-32082297D01*
X23167238Y-32113113D01*
X23262471Y-32144056D01*
X23262475Y-32144057D01*
X23268329Y-32145959D01*
X23472894Y-32170351D01*
X23479029Y-32169879D01*
X23479031Y-32169879D01*
X23535039Y-32165569D01*
X23678300Y-32154546D01*
X23684230Y-32152890D01*
X23684232Y-32152890D01*
X23870797Y-32100800D01*
X23870796Y-32100800D01*
X23876725Y-32099145D01*
X23882214Y-32096372D01*
X23882220Y-32096370D01*
X24040362Y-32016486D01*
X24060610Y-32006258D01*
X24222951Y-31879424D01*
X24357564Y-31723472D01*
X24378387Y-31686818D01*
X24456276Y-31549707D01*
X24459323Y-31544344D01*
X24524351Y-31348863D01*
X24550171Y-31144474D01*
X24550583Y-31115000D01*
X24549138Y-31100262D01*
X24979520Y-31100262D01*
X24996759Y-31305553D01*
X24998458Y-31311478D01*
X25020147Y-31387115D01*
X25053544Y-31503586D01*
X25056359Y-31509063D01*
X25056360Y-31509066D01*
X25122650Y-31638052D01*
X25147712Y-31686818D01*
X25275677Y-31848270D01*
X25432564Y-31981791D01*
X25612398Y-32082297D01*
X25707238Y-32113113D01*
X25802471Y-32144056D01*
X25802475Y-32144057D01*
X25808329Y-32145959D01*
X26012894Y-32170351D01*
X26019029Y-32169879D01*
X26019031Y-32169879D01*
X26075039Y-32165569D01*
X26218300Y-32154546D01*
X26224230Y-32152890D01*
X26224232Y-32152890D01*
X26410797Y-32100800D01*
X26410796Y-32100800D01*
X26416725Y-32099145D01*
X26422214Y-32096372D01*
X26422220Y-32096370D01*
X26580362Y-32016486D01*
X26600610Y-32006258D01*
X26762951Y-31879424D01*
X26897564Y-31723472D01*
X26918387Y-31686818D01*
X26996276Y-31549707D01*
X26999323Y-31544344D01*
X27064351Y-31348863D01*
X27090171Y-31144474D01*
X27090583Y-31115000D01*
X27089138Y-31100262D01*
X27519520Y-31100262D01*
X27536759Y-31305553D01*
X27538458Y-31311478D01*
X27560147Y-31387115D01*
X27593544Y-31503586D01*
X27596359Y-31509063D01*
X27596360Y-31509066D01*
X27662650Y-31638052D01*
X27687712Y-31686818D01*
X27815677Y-31848270D01*
X27972564Y-31981791D01*
X28152398Y-32082297D01*
X28247238Y-32113113D01*
X28342471Y-32144056D01*
X28342475Y-32144057D01*
X28348329Y-32145959D01*
X28552894Y-32170351D01*
X28559029Y-32169879D01*
X28559031Y-32169879D01*
X28615039Y-32165569D01*
X28758300Y-32154546D01*
X28764230Y-32152890D01*
X28764232Y-32152890D01*
X28950797Y-32100800D01*
X28950796Y-32100800D01*
X28956725Y-32099145D01*
X28962214Y-32096372D01*
X28962220Y-32096370D01*
X29120362Y-32016486D01*
X29140610Y-32006258D01*
X29302951Y-31879424D01*
X29437564Y-31723472D01*
X29458387Y-31686818D01*
X29521445Y-31575815D01*
X29572484Y-31526464D01*
X29642102Y-31512542D01*
X29708196Y-31538468D01*
X29749781Y-31596011D01*
X29757001Y-31638052D01*
X29757001Y-32009669D01*
X29757371Y-32016490D01*
X29762895Y-32067352D01*
X29766521Y-32082604D01*
X29811676Y-32203054D01*
X29820214Y-32218649D01*
X29896715Y-32320724D01*
X29909276Y-32333285D01*
X30011351Y-32409786D01*
X30026946Y-32418324D01*
X30147394Y-32463478D01*
X30162649Y-32467105D01*
X30213514Y-32472631D01*
X30220328Y-32473000D01*
X30842885Y-32473000D01*
X30858124Y-32468525D01*
X30859329Y-32467135D01*
X30861000Y-32459452D01*
X30861000Y-32454884D01*
X31369000Y-32454884D01*
X31373475Y-32470123D01*
X31374865Y-32471328D01*
X31382548Y-32472999D01*
X32009669Y-32472999D01*
X32016490Y-32472629D01*
X32067352Y-32467105D01*
X32082604Y-32463479D01*
X32203054Y-32418324D01*
X32218649Y-32409786D01*
X32320724Y-32333285D01*
X32333285Y-32320724D01*
X32409786Y-32218649D01*
X32418324Y-32203054D01*
X32463478Y-32082606D01*
X32467105Y-32067351D01*
X32472631Y-32016486D01*
X32473000Y-32009672D01*
X32473000Y-31387115D01*
X32468525Y-31371876D01*
X32467135Y-31370671D01*
X32459452Y-31369000D01*
X31387115Y-31369000D01*
X31371876Y-31373475D01*
X31370671Y-31374865D01*
X31369000Y-31382548D01*
X31369000Y-32454884D01*
X30861000Y-32454884D01*
X30861000Y-30842885D01*
X31369000Y-30842885D01*
X31373475Y-30858124D01*
X31374865Y-30859329D01*
X31382548Y-30861000D01*
X32454884Y-30861000D01*
X32470123Y-30856525D01*
X32471328Y-30855135D01*
X32472999Y-30847452D01*
X32472999Y-30220331D01*
X32472629Y-30213510D01*
X32467105Y-30162648D01*
X32463479Y-30147396D01*
X32418324Y-30026946D01*
X32409786Y-30011351D01*
X32333285Y-29909276D01*
X32320724Y-29896715D01*
X32218649Y-29820214D01*
X32203054Y-29811676D01*
X32082606Y-29766522D01*
X32067351Y-29762895D01*
X32016486Y-29757369D01*
X32009672Y-29757000D01*
X31387115Y-29757000D01*
X31371876Y-29761475D01*
X31370671Y-29762865D01*
X31369000Y-29770548D01*
X31369000Y-30842885D01*
X30861000Y-30842885D01*
X30861000Y-29775116D01*
X30856525Y-29759877D01*
X30855135Y-29758672D01*
X30847452Y-29757001D01*
X30220331Y-29757001D01*
X30213510Y-29757371D01*
X30162648Y-29762895D01*
X30147396Y-29766521D01*
X30026946Y-29811676D01*
X30011351Y-29820214D01*
X29909276Y-29896715D01*
X29896715Y-29909276D01*
X29820214Y-30011351D01*
X29811676Y-30026946D01*
X29766522Y-30147394D01*
X29762895Y-30162649D01*
X29757369Y-30213514D01*
X29757000Y-30220328D01*
X29757000Y-30594942D01*
X29736998Y-30663063D01*
X29683342Y-30709556D01*
X29613068Y-30719660D01*
X29548488Y-30690166D01*
X29519748Y-30654095D01*
X29488297Y-30594942D01*
X29454218Y-30530849D01*
X29380859Y-30440902D01*
X29327906Y-30375975D01*
X29327903Y-30375972D01*
X29324011Y-30371200D01*
X29290855Y-30343771D01*
X29170025Y-30243811D01*
X29170021Y-30243809D01*
X29165275Y-30239882D01*
X28984055Y-30141897D01*
X28787254Y-30080977D01*
X28781129Y-30080333D01*
X28781128Y-30080333D01*
X28588498Y-30060087D01*
X28588496Y-30060087D01*
X28582369Y-30059443D01*
X28495529Y-30067346D01*
X28383342Y-30077555D01*
X28383339Y-30077556D01*
X28377203Y-30078114D01*
X28179572Y-30136280D01*
X27997002Y-30231726D01*
X27992201Y-30235586D01*
X27992198Y-30235588D01*
X27851398Y-30348794D01*
X27836447Y-30360815D01*
X27704024Y-30518630D01*
X27701056Y-30524028D01*
X27701053Y-30524033D01*
X27609722Y-30690166D01*
X27604776Y-30699162D01*
X27542484Y-30895532D01*
X27541798Y-30901649D01*
X27541797Y-30901653D01*
X27520207Y-31094137D01*
X27519520Y-31100262D01*
X27089138Y-31100262D01*
X27070480Y-30909970D01*
X27010935Y-30712749D01*
X26914218Y-30530849D01*
X26840859Y-30440902D01*
X26787906Y-30375975D01*
X26787903Y-30375972D01*
X26784011Y-30371200D01*
X26750855Y-30343771D01*
X26630025Y-30243811D01*
X26630021Y-30243809D01*
X26625275Y-30239882D01*
X26444055Y-30141897D01*
X26247254Y-30080977D01*
X26241129Y-30080333D01*
X26241128Y-30080333D01*
X26048498Y-30060087D01*
X26048496Y-30060087D01*
X26042369Y-30059443D01*
X25955529Y-30067346D01*
X25843342Y-30077555D01*
X25843339Y-30077556D01*
X25837203Y-30078114D01*
X25639572Y-30136280D01*
X25457002Y-30231726D01*
X25452201Y-30235586D01*
X25452198Y-30235588D01*
X25311398Y-30348794D01*
X25296447Y-30360815D01*
X25164024Y-30518630D01*
X25161056Y-30524028D01*
X25161053Y-30524033D01*
X25069722Y-30690166D01*
X25064776Y-30699162D01*
X25002484Y-30895532D01*
X25001798Y-30901649D01*
X25001797Y-30901653D01*
X24980207Y-31094137D01*
X24979520Y-31100262D01*
X24549138Y-31100262D01*
X24530480Y-30909970D01*
X24470935Y-30712749D01*
X24374218Y-30530849D01*
X24300859Y-30440902D01*
X24247906Y-30375975D01*
X24247903Y-30375972D01*
X24244011Y-30371200D01*
X24210855Y-30343771D01*
X24090025Y-30243811D01*
X24090021Y-30243809D01*
X24085275Y-30239882D01*
X23904055Y-30141897D01*
X23707254Y-30080977D01*
X23701129Y-30080333D01*
X23701128Y-30080333D01*
X23508498Y-30060087D01*
X23508496Y-30060087D01*
X23502369Y-30059443D01*
X23415529Y-30067346D01*
X23303342Y-30077555D01*
X23303339Y-30077556D01*
X23297203Y-30078114D01*
X23099572Y-30136280D01*
X22917002Y-30231726D01*
X22912201Y-30235586D01*
X22912198Y-30235588D01*
X22771398Y-30348794D01*
X22756447Y-30360815D01*
X22624024Y-30518630D01*
X22621056Y-30524028D01*
X22621053Y-30524033D01*
X22529722Y-30690166D01*
X22524776Y-30699162D01*
X22462484Y-30895532D01*
X22461798Y-30901649D01*
X22461797Y-30901653D01*
X22440207Y-31094137D01*
X22439520Y-31100262D01*
X-3809000Y-31100262D01*
X-3809000Y-30857885D01*
X15787000Y-30857885D01*
X15791475Y-30873124D01*
X15792865Y-30874329D01*
X15800548Y-30876000D01*
X18484884Y-30876000D01*
X18500123Y-30871525D01*
X18501328Y-30870135D01*
X18502999Y-30862452D01*
X18502999Y-30235331D01*
X18502629Y-30228510D01*
X18497105Y-30177648D01*
X18493479Y-30162396D01*
X18448324Y-30041946D01*
X18439786Y-30026351D01*
X18363285Y-29924276D01*
X18350724Y-29911715D01*
X18248649Y-29835214D01*
X18233054Y-29826676D01*
X18112606Y-29781522D01*
X18097351Y-29777895D01*
X18046486Y-29772369D01*
X18039672Y-29772000D01*
X17663932Y-29772000D01*
X17595811Y-29751998D01*
X17549318Y-29698342D01*
X17539214Y-29628068D01*
X17568708Y-29563488D01*
X17607121Y-29533534D01*
X17705116Y-29484033D01*
X17710610Y-29481258D01*
X17726258Y-29469033D01*
X17868101Y-29358213D01*
X17872951Y-29354424D01*
X17889920Y-29334766D01*
X18003540Y-29203134D01*
X18003540Y-29203133D01*
X18007564Y-29198472D01*
X18028387Y-29161818D01*
X18061972Y-29102696D01*
X18109323Y-29019344D01*
X18174351Y-28823863D01*
X18200171Y-28619474D01*
X18200583Y-28590000D01*
X18199112Y-28575000D01*
X20984318Y-28575000D01*
X21004956Y-28731762D01*
X21065464Y-28877841D01*
X21070491Y-28884392D01*
X21138223Y-28972662D01*
X21161718Y-29003282D01*
X21287159Y-29099536D01*
X21433238Y-29160044D01*
X21590000Y-29180682D01*
X21598188Y-29179604D01*
X21738574Y-29161122D01*
X21746762Y-29160044D01*
X21892841Y-29099536D01*
X22018282Y-29003282D01*
X22041778Y-28972662D01*
X22109509Y-28884392D01*
X22114536Y-28877841D01*
X22175044Y-28731762D01*
X22195682Y-28575000D01*
X22193742Y-28560262D01*
X40219520Y-28560262D01*
X40236759Y-28765553D01*
X40238458Y-28771478D01*
X40270836Y-28884392D01*
X40293544Y-28963586D01*
X40296359Y-28969063D01*
X40296360Y-28969066D01*
X40360829Y-29094509D01*
X40387712Y-29146818D01*
X40515677Y-29308270D01*
X40520370Y-29312264D01*
X40520371Y-29312265D01*
X40545446Y-29333605D01*
X40672564Y-29441791D01*
X40677942Y-29444797D01*
X40677944Y-29444798D01*
X40699403Y-29456791D01*
X40852398Y-29542297D01*
X40917617Y-29563488D01*
X41042471Y-29604056D01*
X41042475Y-29604057D01*
X41048329Y-29605959D01*
X41252894Y-29630351D01*
X41259029Y-29629879D01*
X41259031Y-29629879D01*
X41315039Y-29625569D01*
X41458300Y-29614546D01*
X41464230Y-29612890D01*
X41464232Y-29612890D01*
X41650797Y-29560800D01*
X41650796Y-29560800D01*
X41656725Y-29559145D01*
X41662214Y-29556372D01*
X41662220Y-29556370D01*
X41835116Y-29469033D01*
X41840610Y-29466258D01*
X41848883Y-29459795D01*
X41930562Y-29395980D01*
X42002951Y-29339424D01*
X42010702Y-29330445D01*
X42133540Y-29188134D01*
X42133540Y-29188133D01*
X42137564Y-29183472D01*
X42158387Y-29146818D01*
X42227755Y-29024707D01*
X42239323Y-29004344D01*
X42304351Y-28808863D01*
X42330171Y-28604474D01*
X42330469Y-28583188D01*
X42330534Y-28578522D01*
X42330534Y-28578518D01*
X42330583Y-28575000D01*
X42310480Y-28369970D01*
X42250935Y-28172749D01*
X42154218Y-27990849D01*
X42080859Y-27900902D01*
X42027906Y-27835975D01*
X42027903Y-27835972D01*
X42024011Y-27831200D01*
X42006786Y-27816950D01*
X41870025Y-27703811D01*
X41870021Y-27703809D01*
X41865275Y-27699882D01*
X41708427Y-27615075D01*
X41689474Y-27604827D01*
X41684055Y-27601897D01*
X41487254Y-27540977D01*
X41481129Y-27540333D01*
X41481128Y-27540333D01*
X41288498Y-27520087D01*
X41288496Y-27520087D01*
X41282369Y-27519443D01*
X41195529Y-27527346D01*
X41083342Y-27537555D01*
X41083339Y-27537556D01*
X41077203Y-27538114D01*
X40879572Y-27596280D01*
X40697002Y-27691726D01*
X40692201Y-27695586D01*
X40692198Y-27695588D01*
X40541254Y-27816950D01*
X40536447Y-27820815D01*
X40404024Y-27978630D01*
X40401056Y-27984028D01*
X40401053Y-27984033D01*
X40311617Y-28146718D01*
X40304776Y-28159162D01*
X40242484Y-28355532D01*
X40241798Y-28361649D01*
X40241797Y-28361653D01*
X40240115Y-28376653D01*
X40219520Y-28560262D01*
X22193742Y-28560262D01*
X22175044Y-28418238D01*
X22114536Y-28272159D01*
X22018282Y-28146718D01*
X21892841Y-28050464D01*
X21746762Y-27989956D01*
X21590000Y-27969318D01*
X21433238Y-27989956D01*
X21287159Y-28050464D01*
X21161718Y-28146718D01*
X21065464Y-28272159D01*
X21004956Y-28418238D01*
X20984318Y-28575000D01*
X18199112Y-28575000D01*
X18180480Y-28384970D01*
X18120935Y-28187749D01*
X18024218Y-28005849D01*
X17950859Y-27915902D01*
X17897906Y-27850975D01*
X17897903Y-27850972D01*
X17894011Y-27846200D01*
X17876786Y-27831950D01*
X17740025Y-27718811D01*
X17740021Y-27718809D01*
X17735275Y-27714882D01*
X17554055Y-27616897D01*
X17357254Y-27555977D01*
X17351129Y-27555333D01*
X17351128Y-27555333D01*
X17158498Y-27535087D01*
X17158496Y-27535087D01*
X17152369Y-27534443D01*
X17065529Y-27542346D01*
X16953342Y-27552555D01*
X16953339Y-27552556D01*
X16947203Y-27553114D01*
X16749572Y-27611280D01*
X16567002Y-27706726D01*
X16562201Y-27710586D01*
X16562198Y-27710588D01*
X16551971Y-27718811D01*
X16406447Y-27835815D01*
X16274024Y-27993630D01*
X16271056Y-27999028D01*
X16271053Y-27999033D01*
X16192625Y-28141695D01*
X16174776Y-28174162D01*
X16112484Y-28370532D01*
X16111798Y-28376649D01*
X16111797Y-28376653D01*
X16090513Y-28566406D01*
X16089520Y-28575262D01*
X16090036Y-28581406D01*
X16104984Y-28759411D01*
X16106759Y-28780553D01*
X16163544Y-28978586D01*
X16166359Y-28984063D01*
X16166360Y-28984066D01*
X16247188Y-29141341D01*
X16257712Y-29161818D01*
X16385677Y-29323270D01*
X16390370Y-29327264D01*
X16390371Y-29327265D01*
X16397821Y-29333605D01*
X16542564Y-29456791D01*
X16608700Y-29493753D01*
X16684315Y-29536013D01*
X16734020Y-29586707D01*
X16748428Y-29656226D01*
X16722964Y-29722499D01*
X16665713Y-29764484D01*
X16622844Y-29772001D01*
X16250331Y-29772001D01*
X16243510Y-29772371D01*
X16192648Y-29777895D01*
X16177396Y-29781521D01*
X16056946Y-29826676D01*
X16041351Y-29835214D01*
X15939276Y-29911715D01*
X15926715Y-29924276D01*
X15850214Y-30026351D01*
X15841676Y-30041946D01*
X15796522Y-30162394D01*
X15792895Y-30177649D01*
X15787369Y-30228514D01*
X15787000Y-30235328D01*
X15787000Y-30857885D01*
X-3809000Y-30857885D01*
X-3809000Y-29915489D01*
X12658829Y-29915489D01*
X12659907Y-29923677D01*
X12673503Y-30026946D01*
X12679467Y-30072251D01*
X12739975Y-30218330D01*
X12836229Y-30343771D01*
X12961670Y-30440025D01*
X13107749Y-30500533D01*
X13264511Y-30521171D01*
X13272699Y-30520093D01*
X13413085Y-30501611D01*
X13421273Y-30500533D01*
X13567352Y-30440025D01*
X13692793Y-30343771D01*
X13789047Y-30218330D01*
X13849555Y-30072251D01*
X13855520Y-30026946D01*
X13869115Y-29923677D01*
X13870193Y-29915489D01*
X13849555Y-29758727D01*
X13789047Y-29612648D01*
X13692793Y-29487207D01*
X13567352Y-29390953D01*
X13421273Y-29330445D01*
X13397119Y-29327265D01*
X13272699Y-29310885D01*
X13264511Y-29309807D01*
X13256323Y-29310885D01*
X13131904Y-29327265D01*
X13107749Y-29330445D01*
X12961670Y-29390953D01*
X12836229Y-29487207D01*
X12739975Y-29612648D01*
X12679467Y-29758727D01*
X12658829Y-29915489D01*
X-3809000Y-29915489D01*
X-3809000Y-26035262D01*
X16089520Y-26035262D01*
X16090036Y-26041406D01*
X16104984Y-26219411D01*
X16106759Y-26240553D01*
X16163544Y-26438586D01*
X16166359Y-26444063D01*
X16166360Y-26444066D01*
X16187247Y-26484707D01*
X16257712Y-26621818D01*
X16385677Y-26783270D01*
X16542564Y-26916791D01*
X16547942Y-26919797D01*
X16547944Y-26919798D01*
X16559503Y-26926258D01*
X16722398Y-27017297D01*
X16817238Y-27048113D01*
X16912471Y-27079056D01*
X16912475Y-27079057D01*
X16918329Y-27080959D01*
X17122894Y-27105351D01*
X17129029Y-27104879D01*
X17129031Y-27104879D01*
X17185039Y-27100569D01*
X17328300Y-27089546D01*
X17334230Y-27087890D01*
X17334232Y-27087890D01*
X17520797Y-27035800D01*
X17520796Y-27035800D01*
X17526725Y-27034145D01*
X17532214Y-27031372D01*
X17532220Y-27031370D01*
X17705116Y-26944033D01*
X17710610Y-26941258D01*
X17726258Y-26929033D01*
X17868101Y-26818213D01*
X17872951Y-26814424D01*
X17889920Y-26794766D01*
X18003540Y-26663134D01*
X18003540Y-26663133D01*
X18007564Y-26658472D01*
X18028387Y-26621818D01*
X18106276Y-26484707D01*
X18109323Y-26479344D01*
X18174351Y-26283863D01*
X18200171Y-26079474D01*
X18200583Y-26050000D01*
X18197667Y-26020262D01*
X40219520Y-26020262D01*
X40236759Y-26225553D01*
X40238458Y-26231478D01*
X40251725Y-26277744D01*
X40293544Y-26423586D01*
X40296359Y-26429063D01*
X40296360Y-26429066D01*
X40384897Y-26601341D01*
X40387712Y-26606818D01*
X40515677Y-26768270D01*
X40520370Y-26772264D01*
X40520371Y-26772265D01*
X40527626Y-26778439D01*
X40672564Y-26901791D01*
X40677942Y-26904797D01*
X40677944Y-26904798D01*
X40709563Y-26922469D01*
X40852398Y-27002297D01*
X40941875Y-27031370D01*
X41042471Y-27064056D01*
X41042475Y-27064057D01*
X41048329Y-27065959D01*
X41252894Y-27090351D01*
X41259029Y-27089879D01*
X41259031Y-27089879D01*
X41315039Y-27085569D01*
X41458300Y-27074546D01*
X41464230Y-27072890D01*
X41464232Y-27072890D01*
X41650797Y-27020800D01*
X41650796Y-27020800D01*
X41656725Y-27019145D01*
X41662214Y-27016372D01*
X41662220Y-27016370D01*
X41835116Y-26929033D01*
X41840610Y-26926258D01*
X41848879Y-26919798D01*
X41998101Y-26803213D01*
X42002951Y-26799424D01*
X42013447Y-26787265D01*
X42133540Y-26648134D01*
X42133540Y-26648133D01*
X42137564Y-26643472D01*
X42158387Y-26606818D01*
X42227755Y-26484707D01*
X42239323Y-26464344D01*
X42304351Y-26268863D01*
X42330171Y-26064474D01*
X42330422Y-26046494D01*
X42330534Y-26038522D01*
X42330534Y-26038518D01*
X42330583Y-26035000D01*
X42310480Y-25829970D01*
X42250935Y-25632749D01*
X42154218Y-25450849D01*
X42080859Y-25360902D01*
X42027906Y-25295975D01*
X42027903Y-25295972D01*
X42024011Y-25291200D01*
X42006786Y-25276950D01*
X41870025Y-25163811D01*
X41870021Y-25163809D01*
X41865275Y-25159882D01*
X41708427Y-25075075D01*
X41689474Y-25064827D01*
X41684055Y-25061897D01*
X41487254Y-25000977D01*
X41481129Y-25000333D01*
X41481128Y-25000333D01*
X41288498Y-24980087D01*
X41288496Y-24980087D01*
X41282369Y-24979443D01*
X41195529Y-24987346D01*
X41083342Y-24997555D01*
X41083339Y-24997556D01*
X41077203Y-24998114D01*
X40879572Y-25056280D01*
X40697002Y-25151726D01*
X40692201Y-25155586D01*
X40692198Y-25155588D01*
X40541254Y-25276950D01*
X40536447Y-25280815D01*
X40404024Y-25438630D01*
X40401056Y-25444028D01*
X40401053Y-25444033D01*
X40307743Y-25613765D01*
X40304776Y-25619162D01*
X40242484Y-25815532D01*
X40241798Y-25821649D01*
X40241797Y-25821653D01*
X40240115Y-25836653D01*
X40219520Y-26020262D01*
X18197667Y-26020262D01*
X18180480Y-25844970D01*
X18120935Y-25647749D01*
X18024218Y-25465849D01*
X17950859Y-25375902D01*
X17897906Y-25310975D01*
X17897903Y-25310972D01*
X17894011Y-25306200D01*
X17876786Y-25291950D01*
X17740025Y-25178811D01*
X17740021Y-25178809D01*
X17735275Y-25174882D01*
X17554055Y-25076897D01*
X17357254Y-25015977D01*
X17351129Y-25015333D01*
X17351128Y-25015333D01*
X17158498Y-24995087D01*
X17158496Y-24995087D01*
X17152369Y-24994443D01*
X17065529Y-25002346D01*
X16953342Y-25012555D01*
X16953339Y-25012556D01*
X16947203Y-25013114D01*
X16749572Y-25071280D01*
X16567002Y-25166726D01*
X16562201Y-25170586D01*
X16562198Y-25170588D01*
X16551971Y-25178811D01*
X16406447Y-25295815D01*
X16274024Y-25453630D01*
X16271056Y-25459028D01*
X16271053Y-25459033D01*
X16264315Y-25471290D01*
X16174776Y-25634162D01*
X16112484Y-25830532D01*
X16111798Y-25836649D01*
X16111797Y-25836653D01*
X16090513Y-26026406D01*
X16089520Y-26035262D01*
X-3809000Y-26035262D01*
X-3809000Y-23939000D01*
X8093318Y-23939000D01*
X8113956Y-24095762D01*
X8174464Y-24241841D01*
X8270718Y-24367282D01*
X8396159Y-24463536D01*
X8542238Y-24524044D01*
X8699000Y-24544682D01*
X8707188Y-24543604D01*
X8847574Y-24525122D01*
X8855762Y-24524044D01*
X8887253Y-24511000D01*
X26191318Y-24511000D01*
X26211956Y-24667762D01*
X26272464Y-24813841D01*
X26368718Y-24939282D01*
X26494159Y-25035536D01*
X26640238Y-25096044D01*
X26797000Y-25116682D01*
X26805188Y-25115604D01*
X26945574Y-25097122D01*
X26953762Y-25096044D01*
X27099841Y-25035536D01*
X27225282Y-24939282D01*
X27321536Y-24813841D01*
X27382044Y-24667762D01*
X27402682Y-24511000D01*
X27386625Y-24389033D01*
X27383122Y-24362426D01*
X27382044Y-24354238D01*
X27321536Y-24208159D01*
X27225282Y-24082718D01*
X27099841Y-23986464D01*
X26953762Y-23925956D01*
X26797000Y-23905318D01*
X26640238Y-23925956D01*
X26494159Y-23986464D01*
X26368718Y-24082718D01*
X26272464Y-24208159D01*
X26211956Y-24354238D01*
X26210878Y-24362426D01*
X26207375Y-24389033D01*
X26191318Y-24511000D01*
X8887253Y-24511000D01*
X9001841Y-24463536D01*
X9127282Y-24367282D01*
X9223536Y-24241841D01*
X9284044Y-24095762D01*
X9304682Y-23939000D01*
X9284044Y-23782238D01*
X9223536Y-23636159D01*
X9127282Y-23510718D01*
X9001841Y-23414464D01*
X8855762Y-23353956D01*
X8699000Y-23333318D01*
X8542238Y-23353956D01*
X8396159Y-23414464D01*
X8270718Y-23510718D01*
X8174464Y-23636159D01*
X8113956Y-23782238D01*
X8093318Y-23939000D01*
X-3809000Y-23939000D01*
X-3809000Y-22860000D01*
X19714318Y-22860000D01*
X19734956Y-23016762D01*
X19795464Y-23162841D01*
X19891718Y-23288282D01*
X19898264Y-23293305D01*
X19927918Y-23316059D01*
X20017159Y-23384536D01*
X20163238Y-23445044D01*
X20320000Y-23465682D01*
X20328188Y-23464604D01*
X20468574Y-23446122D01*
X20476762Y-23445044D01*
X20622841Y-23384536D01*
X20712082Y-23316059D01*
X20741736Y-23293305D01*
X20748282Y-23288282D01*
X20844536Y-23162841D01*
X20905044Y-23016762D01*
X20925682Y-22860000D01*
X20905044Y-22703238D01*
X20844536Y-22557159D01*
X20748282Y-22431718D01*
X20622841Y-22335464D01*
X20476762Y-22274956D01*
X20320000Y-22254318D01*
X20163238Y-22274956D01*
X20017159Y-22335464D01*
X19891718Y-22431718D01*
X19795464Y-22557159D01*
X19734956Y-22703238D01*
X19714318Y-22860000D01*
X-3809000Y-22860000D01*
X-3809000Y-21849669D01*
X-2627999Y-21849669D01*
X-2627629Y-21856490D01*
X-2622105Y-21907352D01*
X-2618479Y-21922604D01*
X-2573324Y-22043054D01*
X-2564786Y-22058649D01*
X-2488285Y-22160724D01*
X-2475724Y-22173285D01*
X-2373649Y-22249786D01*
X-2358054Y-22258324D01*
X-2237606Y-22303478D01*
X-2222351Y-22307105D01*
X-2171486Y-22312631D01*
X-2164672Y-22313000D01*
X-1542115Y-22313000D01*
X-1526876Y-22308525D01*
X-1525671Y-22307135D01*
X-1524000Y-22299452D01*
X-1524000Y-22294884D01*
X-1016000Y-22294884D01*
X-1011525Y-22310123D01*
X-1010135Y-22311328D01*
X-1002452Y-22312999D01*
X-375331Y-22312999D01*
X-368510Y-22312629D01*
X-317648Y-22307105D01*
X-302396Y-22303479D01*
X-181946Y-22258324D01*
X-166351Y-22249786D01*
X-64276Y-22173285D01*
X-51715Y-22160724D01*
X24786Y-22058649D01*
X33324Y-22043054D01*
X78478Y-21922606D01*
X82105Y-21907351D01*
X87631Y-21856486D01*
X88000Y-21849672D01*
X88000Y-21849669D01*
X39917001Y-21849669D01*
X39917371Y-21856490D01*
X39922895Y-21907352D01*
X39926521Y-21922604D01*
X39971676Y-22043054D01*
X39980214Y-22058649D01*
X40056715Y-22160724D01*
X40069276Y-22173285D01*
X40171351Y-22249786D01*
X40186946Y-22258324D01*
X40307394Y-22303478D01*
X40322649Y-22307105D01*
X40373514Y-22312631D01*
X40380328Y-22313000D01*
X40755432Y-22313000D01*
X40823553Y-22333002D01*
X40870046Y-22386658D01*
X40880150Y-22456932D01*
X40850656Y-22521512D01*
X40813812Y-22550659D01*
X40697002Y-22611726D01*
X40692201Y-22615586D01*
X40692198Y-22615588D01*
X40541254Y-22736950D01*
X40536447Y-22740815D01*
X40404024Y-22898630D01*
X40401056Y-22904028D01*
X40401053Y-22904033D01*
X40307743Y-23073765D01*
X40304776Y-23079162D01*
X40242484Y-23275532D01*
X40241798Y-23281649D01*
X40241797Y-23281653D01*
X40223825Y-23441884D01*
X40219520Y-23480262D01*
X40236759Y-23685553D01*
X40293544Y-23883586D01*
X40296359Y-23889063D01*
X40296360Y-23889066D01*
X40326231Y-23947188D01*
X40387712Y-24066818D01*
X40515677Y-24228270D01*
X40672564Y-24361791D01*
X40677942Y-24364797D01*
X40677944Y-24364798D01*
X40709563Y-24382469D01*
X40852398Y-24462297D01*
X40947238Y-24493113D01*
X41042471Y-24524056D01*
X41042475Y-24524057D01*
X41048329Y-24525959D01*
X41252894Y-24550351D01*
X41259029Y-24549879D01*
X41259031Y-24549879D01*
X41315039Y-24545569D01*
X41458300Y-24534546D01*
X41464230Y-24532890D01*
X41464232Y-24532890D01*
X41650797Y-24480800D01*
X41650796Y-24480800D01*
X41656725Y-24479145D01*
X41662214Y-24476372D01*
X41662220Y-24476370D01*
X41835116Y-24389033D01*
X41840610Y-24386258D01*
X41864899Y-24367282D01*
X41998101Y-24263213D01*
X42002951Y-24259424D01*
X42012474Y-24248392D01*
X42133540Y-24108134D01*
X42133540Y-24108133D01*
X42137564Y-24103472D01*
X42146596Y-24087574D01*
X42205829Y-23983304D01*
X42239323Y-23924344D01*
X42304351Y-23728863D01*
X42330171Y-23524474D01*
X42330583Y-23495000D01*
X42310480Y-23289970D01*
X42250935Y-23092749D01*
X42154218Y-22910849D01*
X42069426Y-22806884D01*
X42027906Y-22755975D01*
X42027903Y-22755972D01*
X42024011Y-22751200D01*
X41966035Y-22703238D01*
X41870025Y-22623811D01*
X41870021Y-22623809D01*
X41865275Y-22619882D01*
X41827252Y-22599323D01*
X41735726Y-22549835D01*
X41685317Y-22499840D01*
X41669940Y-22430529D01*
X41694476Y-22363907D01*
X41751136Y-22321126D01*
X41795655Y-22312999D01*
X42169669Y-22312999D01*
X42176490Y-22312629D01*
X42227352Y-22307105D01*
X42242604Y-22303479D01*
X42363054Y-22258324D01*
X42378649Y-22249786D01*
X42411721Y-22225000D01*
X43844318Y-22225000D01*
X43864956Y-22381762D01*
X43925464Y-22527841D01*
X44021718Y-22653282D01*
X44147159Y-22749536D01*
X44293238Y-22810044D01*
X44450000Y-22830682D01*
X44458188Y-22829604D01*
X44598574Y-22811122D01*
X44606762Y-22810044D01*
X44752841Y-22749536D01*
X44878282Y-22653282D01*
X44974536Y-22527841D01*
X45035044Y-22381762D01*
X45055682Y-22225000D01*
X45035044Y-22068238D01*
X44974536Y-21922159D01*
X44878282Y-21796718D01*
X44752841Y-21700464D01*
X44606762Y-21639956D01*
X44450000Y-21619318D01*
X44293238Y-21639956D01*
X44147159Y-21700464D01*
X44021718Y-21796718D01*
X43925464Y-21922159D01*
X43864956Y-22068238D01*
X43844318Y-22225000D01*
X42411721Y-22225000D01*
X42480724Y-22173285D01*
X42493285Y-22160724D01*
X42569786Y-22058649D01*
X42578324Y-22043054D01*
X42623478Y-21922606D01*
X42627105Y-21907351D01*
X42632631Y-21856486D01*
X42633000Y-21849672D01*
X42633000Y-21227115D01*
X42628525Y-21211876D01*
X42627135Y-21210671D01*
X42619452Y-21209000D01*
X39935116Y-21209000D01*
X39919877Y-21213475D01*
X39918672Y-21214865D01*
X39917001Y-21222548D01*
X39917001Y-21849669D01*
X88000Y-21849669D01*
X88000Y-21227115D01*
X83525Y-21211876D01*
X82135Y-21210671D01*
X74452Y-21209000D01*
X-997885Y-21209000D01*
X-1013124Y-21213475D01*
X-1014329Y-21214865D01*
X-1016000Y-21222548D01*
X-1016000Y-22294884D01*
X-1524000Y-22294884D01*
X-1524000Y-21227115D01*
X-1528475Y-21211876D01*
X-1529865Y-21210671D01*
X-1537548Y-21209000D01*
X-2609884Y-21209000D01*
X-2625123Y-21213475D01*
X-2626328Y-21214865D01*
X-2627999Y-21222548D01*
X-2627999Y-21849669D01*
X-3809000Y-21849669D01*
X-3809000Y-20682885D01*
X-2628000Y-20682885D01*
X-2623525Y-20698124D01*
X-2622135Y-20699329D01*
X-2614452Y-20701000D01*
X69884Y-20701000D01*
X85123Y-20696525D01*
X86328Y-20695135D01*
X87999Y-20687452D01*
X87999Y-20682885D01*
X39917000Y-20682885D01*
X39921475Y-20698124D01*
X39922865Y-20699329D01*
X39930548Y-20701000D01*
X41002885Y-20701000D01*
X41018124Y-20696525D01*
X41019329Y-20695135D01*
X41021000Y-20687452D01*
X41021000Y-20682885D01*
X41529000Y-20682885D01*
X41533475Y-20698124D01*
X41534865Y-20699329D01*
X41542548Y-20701000D01*
X42614884Y-20701000D01*
X42630123Y-20696525D01*
X42631328Y-20695135D01*
X42632999Y-20687452D01*
X42632999Y-20060331D01*
X42632629Y-20053510D01*
X42627105Y-20002648D01*
X42623479Y-19987396D01*
X42578324Y-19866946D01*
X42569786Y-19851351D01*
X42493285Y-19749276D01*
X42480724Y-19736715D01*
X42378649Y-19660214D01*
X42363054Y-19651676D01*
X42242606Y-19606522D01*
X42227351Y-19602895D01*
X42176486Y-19597369D01*
X42169672Y-19597000D01*
X41547115Y-19597000D01*
X41531876Y-19601475D01*
X41530671Y-19602865D01*
X41529000Y-19610548D01*
X41529000Y-20682885D01*
X41021000Y-20682885D01*
X41021000Y-19615116D01*
X41016525Y-19599877D01*
X41015135Y-19598672D01*
X41007452Y-19597001D01*
X40380331Y-19597001D01*
X40373510Y-19597371D01*
X40322648Y-19602895D01*
X40307396Y-19606521D01*
X40186946Y-19651676D01*
X40171351Y-19660214D01*
X40069276Y-19736715D01*
X40056715Y-19749276D01*
X39980214Y-19851351D01*
X39971676Y-19866946D01*
X39926522Y-19987394D01*
X39922895Y-20002649D01*
X39917369Y-20053514D01*
X39917000Y-20060328D01*
X39917000Y-20682885D01*
X87999Y-20682885D01*
X87999Y-20060331D01*
X87629Y-20053510D01*
X82105Y-20002648D01*
X78479Y-19987396D01*
X33324Y-19866946D01*
X24786Y-19851351D01*
X-51715Y-19749276D01*
X-64276Y-19736715D01*
X-166351Y-19660214D01*
X-181946Y-19651676D01*
X-302394Y-19606522D01*
X-317649Y-19602895D01*
X-368514Y-19597369D01*
X-375328Y-19597000D01*
X-751068Y-19597000D01*
X-819189Y-19576998D01*
X-865682Y-19523342D01*
X-875786Y-19453068D01*
X-846292Y-19388488D01*
X-807879Y-19358534D01*
X-709884Y-19309033D01*
X-704390Y-19306258D01*
X-542049Y-19179424D01*
X-407436Y-19023472D01*
X-386613Y-18986818D01*
X-308724Y-18849707D01*
X-305677Y-18844344D01*
X-240649Y-18648863D01*
X-214829Y-18444474D01*
X-214417Y-18415000D01*
X-234520Y-18209970D01*
X-287649Y-18034000D01*
X15396318Y-18034000D01*
X15416956Y-18190762D01*
X15477464Y-18336841D01*
X15573718Y-18462282D01*
X15699159Y-18558536D01*
X15845238Y-18619044D01*
X16002000Y-18639682D01*
X16010188Y-18638604D01*
X16150574Y-18620122D01*
X16158762Y-18619044D01*
X16304841Y-18558536D01*
X16430282Y-18462282D01*
X16526536Y-18336841D01*
X16587044Y-18190762D01*
X16607682Y-18034000D01*
X16587044Y-17877238D01*
X16546767Y-17780000D01*
X29366318Y-17780000D01*
X29386956Y-17936762D01*
X29447464Y-18082841D01*
X29543718Y-18208282D01*
X29550264Y-18213305D01*
X29579918Y-18236059D01*
X29669159Y-18304536D01*
X29815238Y-18365044D01*
X29972000Y-18385682D01*
X29980188Y-18384604D01*
X30120574Y-18366122D01*
X30128762Y-18365044D01*
X30274841Y-18304536D01*
X30364082Y-18236059D01*
X30393736Y-18213305D01*
X30400282Y-18208282D01*
X30496536Y-18082841D01*
X30557044Y-17936762D01*
X30577682Y-17780000D01*
X30557044Y-17623238D01*
X30496536Y-17477159D01*
X30400282Y-17351718D01*
X30274841Y-17255464D01*
X30128762Y-17194956D01*
X29972000Y-17174318D01*
X29815238Y-17194956D01*
X29669159Y-17255464D01*
X29543718Y-17351718D01*
X29447464Y-17477159D01*
X29386956Y-17623238D01*
X29366318Y-17780000D01*
X16546767Y-17780000D01*
X16526536Y-17731159D01*
X16430282Y-17605718D01*
X16304841Y-17509464D01*
X16158762Y-17448956D01*
X16002000Y-17428318D01*
X15845238Y-17448956D01*
X15699159Y-17509464D01*
X15573718Y-17605718D01*
X15477464Y-17731159D01*
X15416956Y-17877238D01*
X15396318Y-18034000D01*
X-287649Y-18034000D01*
X-294065Y-18012749D01*
X-390782Y-17830849D01*
X-477430Y-17724608D01*
X-517094Y-17675975D01*
X-517097Y-17675972D01*
X-520989Y-17671200D01*
X-578965Y-17623238D01*
X-674975Y-17543811D01*
X-674979Y-17543809D01*
X-679725Y-17539882D01*
X-860945Y-17441897D01*
X-1057746Y-17380977D01*
X-1063871Y-17380333D01*
X-1063872Y-17380333D01*
X-1256502Y-17360087D01*
X-1256504Y-17360087D01*
X-1262631Y-17359443D01*
X-1349471Y-17367346D01*
X-1461658Y-17377555D01*
X-1461661Y-17377556D01*
X-1467797Y-17378114D01*
X-1665428Y-17436280D01*
X-1847998Y-17531726D01*
X-1852799Y-17535586D01*
X-1852802Y-17535588D01*
X-2003746Y-17656950D01*
X-2008553Y-17660815D01*
X-2140976Y-17818630D01*
X-2143944Y-17824028D01*
X-2143947Y-17824033D01*
X-2237257Y-17993765D01*
X-2240224Y-17999162D01*
X-2242087Y-18005035D01*
X-2298405Y-18182574D01*
X-2302516Y-18195532D01*
X-2303202Y-18201649D01*
X-2303203Y-18201653D01*
X-2318366Y-18336841D01*
X-2325480Y-18400262D01*
X-2308241Y-18605553D01*
X-2251456Y-18803586D01*
X-2248641Y-18809063D01*
X-2248640Y-18809066D01*
X-2227753Y-18849707D01*
X-2157288Y-18986818D01*
X-2029323Y-19148270D01*
X-1872436Y-19281791D01*
X-1823692Y-19309033D01*
X-1730685Y-19361013D01*
X-1680980Y-19411707D01*
X-1666572Y-19481226D01*
X-1692036Y-19547499D01*
X-1749287Y-19589484D01*
X-1792156Y-19597001D01*
X-2164669Y-19597001D01*
X-2171490Y-19597371D01*
X-2222352Y-19602895D01*
X-2237604Y-19606521D01*
X-2358054Y-19651676D01*
X-2373649Y-19660214D01*
X-2475724Y-19736715D01*
X-2488285Y-19749276D01*
X-2564786Y-19851351D01*
X-2573324Y-19866946D01*
X-2618478Y-19987394D01*
X-2622105Y-20002649D01*
X-2627631Y-20053514D01*
X-2628000Y-20060328D01*
X-2628000Y-20682885D01*
X-3809000Y-20682885D01*
X-3809000Y-15860262D01*
X-2325480Y-15860262D01*
X-2324964Y-15866406D01*
X-2308768Y-16059273D01*
X-2308241Y-16065553D01*
X-2306542Y-16071478D01*
X-2268154Y-16205352D01*
X-2251456Y-16263586D01*
X-2248641Y-16269063D01*
X-2248640Y-16269066D01*
X-2167449Y-16427047D01*
X-2157288Y-16446818D01*
X-2029323Y-16608270D01*
X-1872436Y-16741791D01*
X-1692602Y-16842297D01*
X-1597762Y-16873113D01*
X-1502529Y-16904056D01*
X-1502525Y-16904057D01*
X-1496671Y-16905959D01*
X-1292106Y-16930351D01*
X-1285971Y-16929879D01*
X-1285969Y-16929879D01*
X-1229961Y-16925569D01*
X-1086700Y-16914546D01*
X-1080770Y-16912890D01*
X-1080768Y-16912890D01*
X-894203Y-16860800D01*
X-894204Y-16860800D01*
X-888275Y-16859145D01*
X-882786Y-16856372D01*
X-882780Y-16856370D01*
X-823688Y-16826520D01*
X35907798Y-16826520D01*
X35928436Y-16983282D01*
X35988944Y-17129361D01*
X36085198Y-17254802D01*
X36210639Y-17351056D01*
X36356718Y-17411564D01*
X36513480Y-17432202D01*
X36521668Y-17431124D01*
X36662054Y-17412642D01*
X36670242Y-17411564D01*
X36816321Y-17351056D01*
X36941762Y-17254802D01*
X37038016Y-17129361D01*
X37098524Y-16983282D01*
X37119162Y-16826520D01*
X37098524Y-16669758D01*
X37038016Y-16523679D01*
X36941762Y-16398238D01*
X36816321Y-16301984D01*
X36670242Y-16241476D01*
X36513480Y-16220838D01*
X36356718Y-16241476D01*
X36210639Y-16301984D01*
X36085198Y-16398238D01*
X35988944Y-16523679D01*
X35928436Y-16669758D01*
X35907798Y-16826520D01*
X-823688Y-16826520D01*
X-709884Y-16769033D01*
X-704390Y-16766258D01*
X-542049Y-16639424D01*
X-407436Y-16483472D01*
X-386613Y-16446818D01*
X-320702Y-16330793D01*
X-305677Y-16304344D01*
X-240649Y-16108863D01*
X-214829Y-15904474D01*
X-214802Y-15902511D01*
X13010829Y-15902511D01*
X13031467Y-16059273D01*
X13091975Y-16205352D01*
X13188229Y-16330793D01*
X13313670Y-16427047D01*
X13459749Y-16487555D01*
X13616511Y-16508193D01*
X13624699Y-16507115D01*
X13765085Y-16488633D01*
X13773273Y-16487555D01*
X13919352Y-16427047D01*
X14044793Y-16330793D01*
X14141047Y-16205352D01*
X14201555Y-16059273D01*
X14222193Y-15902511D01*
X14201555Y-15745749D01*
X14141047Y-15599670D01*
X14044793Y-15474229D01*
X13919352Y-15377975D01*
X13773273Y-15317467D01*
X13616511Y-15296829D01*
X13459749Y-15317467D01*
X13313670Y-15377975D01*
X13188229Y-15474229D01*
X13091975Y-15599670D01*
X13031467Y-15745749D01*
X13010829Y-15902511D01*
X-214802Y-15902511D01*
X-214417Y-15875000D01*
X-234520Y-15669970D01*
X-294065Y-15472749D01*
X-390782Y-15290849D01*
X-511559Y-15142762D01*
X-517094Y-15135975D01*
X-517097Y-15135972D01*
X-520989Y-15131200D01*
X-538214Y-15116950D01*
X-674975Y-15003811D01*
X-674979Y-15003809D01*
X-679725Y-14999882D01*
X-705399Y-14986000D01*
X8792318Y-14986000D01*
X8812956Y-15142762D01*
X8873464Y-15288841D01*
X8969718Y-15414282D01*
X9095159Y-15510536D01*
X9241238Y-15571044D01*
X9398000Y-15591682D01*
X9406188Y-15590604D01*
X9546574Y-15572122D01*
X9554762Y-15571044D01*
X9700841Y-15510536D01*
X9826282Y-15414282D01*
X9922536Y-15288841D01*
X9983044Y-15142762D01*
X10003682Y-14986000D01*
X9984505Y-14840333D01*
X9984122Y-14837426D01*
X9983044Y-14829238D01*
X9922536Y-14683159D01*
X9826282Y-14557718D01*
X9700841Y-14461464D01*
X9554762Y-14400956D01*
X9398000Y-14380318D01*
X9241238Y-14400956D01*
X9095159Y-14461464D01*
X8969718Y-14557718D01*
X8873464Y-14683159D01*
X8812956Y-14829238D01*
X8811878Y-14837426D01*
X8811495Y-14840333D01*
X8792318Y-14986000D01*
X-705399Y-14986000D01*
X-860945Y-14901897D01*
X-1057746Y-14840977D01*
X-1063871Y-14840333D01*
X-1063872Y-14840333D01*
X-1256502Y-14820087D01*
X-1256504Y-14820087D01*
X-1262631Y-14819443D01*
X-1349471Y-14827346D01*
X-1461658Y-14837555D01*
X-1461661Y-14837556D01*
X-1467797Y-14838114D01*
X-1665428Y-14896280D01*
X-1847998Y-14991726D01*
X-1852799Y-14995586D01*
X-1852802Y-14995588D01*
X-1863029Y-15003811D01*
X-2008553Y-15120815D01*
X-2140976Y-15278630D01*
X-2143944Y-15284028D01*
X-2143947Y-15284033D01*
X-2237257Y-15453765D01*
X-2240224Y-15459162D01*
X-2302516Y-15655532D01*
X-2303202Y-15661649D01*
X-2303203Y-15661653D01*
X-2313554Y-15753937D01*
X-2325480Y-15860262D01*
X-3809000Y-15860262D01*
X-3809000Y-13145480D01*
X29303798Y-13145480D01*
X29324436Y-13302242D01*
X29384944Y-13448321D01*
X29481198Y-13573762D01*
X29606639Y-13670016D01*
X29752718Y-13730524D01*
X29909480Y-13751162D01*
X29917668Y-13750084D01*
X30058054Y-13731602D01*
X30066242Y-13730524D01*
X30212321Y-13670016D01*
X30337762Y-13573762D01*
X30434016Y-13448321D01*
X30494524Y-13302242D01*
X30515162Y-13145480D01*
X30494524Y-12988718D01*
X30491333Y-12981013D01*
X30437176Y-12850269D01*
X30434016Y-12842639D01*
X30337762Y-12717198D01*
X30212321Y-12620944D01*
X30066242Y-12560436D01*
X29909480Y-12539798D01*
X29752718Y-12560436D01*
X29606639Y-12620944D01*
X29481198Y-12717198D01*
X29384944Y-12842639D01*
X29381784Y-12850269D01*
X29327628Y-12981013D01*
X29324436Y-12988718D01*
X29303798Y-13145480D01*
X-3809000Y-13145480D01*
X-3809000Y-12025000D01*
X12261318Y-12025000D01*
X12281956Y-12181762D01*
X12342464Y-12327841D01*
X12438718Y-12453282D01*
X12564159Y-12549536D01*
X12710238Y-12610044D01*
X12718426Y-12611122D01*
X12769029Y-12617784D01*
X12867000Y-12630682D01*
X12875188Y-12629604D01*
X12907843Y-12625305D01*
X12964971Y-12617784D01*
X13015574Y-12611122D01*
X13023762Y-12610044D01*
X13169841Y-12549536D01*
X13295282Y-12453282D01*
X13391536Y-12327841D01*
X13447803Y-12192000D01*
X22762318Y-12192000D01*
X22782956Y-12348762D01*
X22843464Y-12494841D01*
X22939718Y-12620282D01*
X22946264Y-12625305D01*
X22975918Y-12648059D01*
X23065159Y-12716536D01*
X23211238Y-12777044D01*
X23368000Y-12797682D01*
X23376188Y-12796604D01*
X23516574Y-12778122D01*
X23524762Y-12777044D01*
X23670841Y-12716536D01*
X23760082Y-12648059D01*
X23789736Y-12625305D01*
X23796282Y-12620282D01*
X23892536Y-12494841D01*
X23933490Y-12395969D01*
X32464349Y-12395969D01*
X32484987Y-12552731D01*
X32488147Y-12560360D01*
X32489487Y-12563596D01*
X32545495Y-12698810D01*
X32641749Y-12824251D01*
X32767190Y-12920505D01*
X32913269Y-12981013D01*
X33070031Y-13001651D01*
X33078219Y-13000573D01*
X33218605Y-12982091D01*
X33226793Y-12981013D01*
X33372872Y-12920505D01*
X33498313Y-12824251D01*
X33594567Y-12698810D01*
X33650575Y-12563596D01*
X33651915Y-12560360D01*
X33655075Y-12552731D01*
X33675713Y-12395969D01*
X33655075Y-12239207D01*
X33594567Y-12093128D01*
X33498313Y-11967687D01*
X33372872Y-11871433D01*
X33226793Y-11810925D01*
X33070031Y-11790287D01*
X32913269Y-11810925D01*
X32767190Y-11871433D01*
X32641749Y-11967687D01*
X32545495Y-12093128D01*
X32484987Y-12239207D01*
X32464349Y-12395969D01*
X23933490Y-12395969D01*
X23953044Y-12348762D01*
X23973682Y-12192000D01*
X23953044Y-12035238D01*
X23892536Y-11889159D01*
X23796282Y-11763718D01*
X23670841Y-11667464D01*
X23524762Y-11606956D01*
X23496719Y-11603264D01*
X23446381Y-11596637D01*
X23368000Y-11586318D01*
X23289619Y-11596637D01*
X23239282Y-11603264D01*
X23211238Y-11606956D01*
X23065159Y-11667464D01*
X22939718Y-11763718D01*
X22843464Y-11889159D01*
X22782956Y-12035238D01*
X22762318Y-12192000D01*
X13447803Y-12192000D01*
X13452044Y-12181762D01*
X13472682Y-12025000D01*
X13452044Y-11868238D01*
X13391536Y-11722159D01*
X13295282Y-11596718D01*
X13281729Y-11586318D01*
X13176392Y-11505491D01*
X13169841Y-11500464D01*
X13023762Y-11439956D01*
X12867000Y-11419318D01*
X12710238Y-11439956D01*
X12564159Y-11500464D01*
X12557608Y-11505491D01*
X12452272Y-11586318D01*
X12438718Y-11596718D01*
X12342464Y-11722159D01*
X12281956Y-11868238D01*
X12261318Y-12025000D01*
X-3809000Y-12025000D01*
X-3809000Y-10399748D01*
X-2320500Y-10399748D01*
X-2308867Y-10458231D01*
X-2264552Y-10524552D01*
X-2198231Y-10568867D01*
X-2186062Y-10571288D01*
X-2186061Y-10571288D01*
X-2145816Y-10579293D01*
X-2139748Y-10580500D01*
X-400252Y-10580500D01*
X-394184Y-10579293D01*
X-353939Y-10571288D01*
X-353938Y-10571288D01*
X-341769Y-10568867D01*
X-275448Y-10524552D01*
X-231133Y-10458231D01*
X-219500Y-10399748D01*
X-219500Y-10160000D01*
X23016318Y-10160000D01*
X23036956Y-10316762D01*
X23097464Y-10462841D01*
X23102491Y-10469392D01*
X23186821Y-10579293D01*
X23193718Y-10588282D01*
X23319159Y-10684536D01*
X23465238Y-10745044D01*
X23622000Y-10765682D01*
X23630188Y-10764604D01*
X23770574Y-10746122D01*
X23778762Y-10745044D01*
X23924841Y-10684536D01*
X24050282Y-10588282D01*
X24057180Y-10579293D01*
X24141509Y-10469392D01*
X24146536Y-10462841D01*
X24207044Y-10316762D01*
X24227682Y-10160000D01*
X24207044Y-10003238D01*
X24146536Y-9857159D01*
X24078059Y-9767918D01*
X24055305Y-9738264D01*
X24050282Y-9731718D01*
X23924841Y-9635464D01*
X23778762Y-9574956D01*
X23622000Y-9554318D01*
X23465238Y-9574956D01*
X23319159Y-9635464D01*
X23193718Y-9731718D01*
X23188695Y-9738264D01*
X23165941Y-9767918D01*
X23097464Y-9857159D01*
X23036956Y-10003238D01*
X23016318Y-10160000D01*
X-219500Y-10160000D01*
X-219500Y-8875262D01*
X26249520Y-8875262D01*
X26266759Y-9080553D01*
X26268458Y-9086478D01*
X26300836Y-9199392D01*
X26323544Y-9278586D01*
X26326359Y-9284063D01*
X26326360Y-9284066D01*
X26346526Y-9323305D01*
X26417712Y-9461818D01*
X26545677Y-9623270D01*
X26702564Y-9756791D01*
X26882398Y-9857297D01*
X26977238Y-9888113D01*
X27072471Y-9919056D01*
X27072475Y-9919057D01*
X27078329Y-9920959D01*
X27282894Y-9945351D01*
X27289029Y-9944879D01*
X27289031Y-9944879D01*
X27345039Y-9940569D01*
X27488300Y-9929546D01*
X27494230Y-9927890D01*
X27494232Y-9927890D01*
X27680797Y-9875800D01*
X27680796Y-9875800D01*
X27686725Y-9874145D01*
X27692214Y-9871372D01*
X27692220Y-9871370D01*
X27865116Y-9784033D01*
X27870610Y-9781258D01*
X28032951Y-9654424D01*
X28052045Y-9632304D01*
X28163540Y-9503134D01*
X28163540Y-9503133D01*
X28167564Y-9498472D01*
X28188387Y-9461818D01*
X28266276Y-9324707D01*
X28269323Y-9319344D01*
X28334351Y-9123863D01*
X28360171Y-8919474D01*
X28360583Y-8890000D01*
X28359138Y-8875262D01*
X28789520Y-8875262D01*
X28806759Y-9080553D01*
X28808458Y-9086478D01*
X28840836Y-9199392D01*
X28863544Y-9278586D01*
X28866359Y-9284063D01*
X28866360Y-9284066D01*
X28886526Y-9323305D01*
X28957712Y-9461818D01*
X29085677Y-9623270D01*
X29242564Y-9756791D01*
X29422398Y-9857297D01*
X29517238Y-9888113D01*
X29612471Y-9919056D01*
X29612475Y-9919057D01*
X29618329Y-9920959D01*
X29822894Y-9945351D01*
X29829029Y-9944879D01*
X29829031Y-9944879D01*
X29885039Y-9940569D01*
X30028300Y-9929546D01*
X30034230Y-9927890D01*
X30034232Y-9927890D01*
X30220797Y-9875800D01*
X30220796Y-9875800D01*
X30226725Y-9874145D01*
X30232214Y-9871372D01*
X30232220Y-9871370D01*
X30405116Y-9784033D01*
X30410610Y-9781258D01*
X30572951Y-9654424D01*
X30592045Y-9632304D01*
X30703540Y-9503134D01*
X30703540Y-9503133D01*
X30707564Y-9498472D01*
X30728387Y-9461818D01*
X30806276Y-9324707D01*
X30809323Y-9319344D01*
X30874351Y-9123863D01*
X30900171Y-8919474D01*
X30900583Y-8890000D01*
X44606318Y-8890000D01*
X44626956Y-9046762D01*
X44687464Y-9192841D01*
X44783718Y-9318282D01*
X44909159Y-9414536D01*
X45055238Y-9475044D01*
X45212000Y-9495682D01*
X45220188Y-9494604D01*
X45360574Y-9476122D01*
X45368762Y-9475044D01*
X45514841Y-9414536D01*
X45640282Y-9318282D01*
X45736536Y-9192841D01*
X45797044Y-9046762D01*
X45817682Y-8890000D01*
X45797044Y-8733238D01*
X45736536Y-8587159D01*
X45640282Y-8461718D01*
X45514841Y-8365464D01*
X45368762Y-8304956D01*
X45212000Y-8284318D01*
X45055238Y-8304956D01*
X44909159Y-8365464D01*
X44783718Y-8461718D01*
X44687464Y-8587159D01*
X44626956Y-8733238D01*
X44606318Y-8890000D01*
X30900583Y-8890000D01*
X30880480Y-8684970D01*
X30820935Y-8487749D01*
X30724218Y-8305849D01*
X30639426Y-8201884D01*
X30597906Y-8150975D01*
X30597903Y-8150972D01*
X30594011Y-8146200D01*
X30576786Y-8131950D01*
X30440025Y-8018811D01*
X30440021Y-8018809D01*
X30435275Y-8014882D01*
X30254055Y-7916897D01*
X30057254Y-7855977D01*
X30051129Y-7855333D01*
X30051128Y-7855333D01*
X29858498Y-7835087D01*
X29858496Y-7835087D01*
X29852369Y-7834443D01*
X29765529Y-7842346D01*
X29653342Y-7852555D01*
X29653339Y-7852556D01*
X29647203Y-7853114D01*
X29449572Y-7911280D01*
X29267002Y-8006726D01*
X29262201Y-8010586D01*
X29262198Y-8010588D01*
X29209069Y-8053305D01*
X29106447Y-8135815D01*
X28974024Y-8293630D01*
X28971056Y-8299028D01*
X28971053Y-8299033D01*
X28881617Y-8461718D01*
X28874776Y-8474162D01*
X28812484Y-8670532D01*
X28811798Y-8676649D01*
X28811797Y-8676653D01*
X28806306Y-8725609D01*
X28789520Y-8875262D01*
X28359138Y-8875262D01*
X28340480Y-8684970D01*
X28280935Y-8487749D01*
X28184218Y-8305849D01*
X28099426Y-8201884D01*
X28057906Y-8150975D01*
X28057903Y-8150972D01*
X28054011Y-8146200D01*
X28036786Y-8131950D01*
X27900025Y-8018811D01*
X27900021Y-8018809D01*
X27895275Y-8014882D01*
X27714055Y-7916897D01*
X27517254Y-7855977D01*
X27511129Y-7855333D01*
X27511128Y-7855333D01*
X27318498Y-7835087D01*
X27318496Y-7835087D01*
X27312369Y-7834443D01*
X27225529Y-7842346D01*
X27113342Y-7852555D01*
X27113339Y-7852556D01*
X27107203Y-7853114D01*
X26909572Y-7911280D01*
X26727002Y-8006726D01*
X26722201Y-8010586D01*
X26722198Y-8010588D01*
X26669069Y-8053305D01*
X26566447Y-8135815D01*
X26434024Y-8293630D01*
X26431056Y-8299028D01*
X26431053Y-8299033D01*
X26341617Y-8461718D01*
X26334776Y-8474162D01*
X26272484Y-8670532D01*
X26271798Y-8676649D01*
X26271797Y-8676653D01*
X26266306Y-8725609D01*
X26249520Y-8875262D01*
X-219500Y-8875262D01*
X-219500Y-8660252D01*
X-231133Y-8601769D01*
X-275448Y-8535448D01*
X-341769Y-8491133D01*
X-353938Y-8488712D01*
X-353939Y-8488712D01*
X-394184Y-8480707D01*
X-400252Y-8479500D01*
X-2139748Y-8479500D01*
X-2145816Y-8480707D01*
X-2186061Y-8488712D01*
X-2186062Y-8488712D01*
X-2198231Y-8491133D01*
X-2264552Y-8535448D01*
X-2308867Y-8601769D01*
X-2320500Y-8660252D01*
X-2320500Y-10399748D01*
X-3809000Y-10399748D01*
X-3809000Y-6975262D01*
X-2325480Y-6975262D01*
X-2308241Y-7180553D01*
X-2306542Y-7186478D01*
X-2268484Y-7319201D01*
X-2251456Y-7378586D01*
X-2248641Y-7384063D01*
X-2248640Y-7384066D01*
X-2227753Y-7424707D01*
X-2157288Y-7561818D01*
X-2029323Y-7723270D01*
X-2024630Y-7727264D01*
X-2024629Y-7727265D01*
X-1877413Y-7852555D01*
X-1872436Y-7856791D01*
X-1692602Y-7957297D01*
X-1597762Y-7988113D01*
X-1502529Y-8019056D01*
X-1502525Y-8019057D01*
X-1496671Y-8020959D01*
X-1292106Y-8045351D01*
X-1285971Y-8044879D01*
X-1285969Y-8044879D01*
X-1229961Y-8040569D01*
X-1086700Y-8029546D01*
X-1080770Y-8027890D01*
X-1080768Y-8027890D01*
X-894203Y-7975800D01*
X-894204Y-7975800D01*
X-888275Y-7974145D01*
X-882786Y-7971372D01*
X-882780Y-7971370D01*
X-709884Y-7884033D01*
X-704390Y-7881258D01*
X-672031Y-7855977D01*
X-580405Y-7784391D01*
X-542049Y-7754424D01*
X-426018Y-7620000D01*
X34954318Y-7620000D01*
X34974956Y-7776762D01*
X35035464Y-7922841D01*
X35131718Y-8048282D01*
X35257159Y-8144536D01*
X35403238Y-8205044D01*
X35560000Y-8225682D01*
X35568188Y-8224604D01*
X35708574Y-8206122D01*
X35716762Y-8205044D01*
X35862841Y-8144536D01*
X35988282Y-8048282D01*
X36084536Y-7922841D01*
X36145044Y-7776762D01*
X36165682Y-7620000D01*
X36145044Y-7463238D01*
X36084536Y-7317159D01*
X36012948Y-7223863D01*
X35993305Y-7198264D01*
X35988282Y-7191718D01*
X35973732Y-7180553D01*
X35887550Y-7114424D01*
X35862841Y-7095464D01*
X35716762Y-7034956D01*
X35560000Y-7014318D01*
X35403238Y-7034956D01*
X35257159Y-7095464D01*
X35232450Y-7114424D01*
X35146269Y-7180553D01*
X35131718Y-7191718D01*
X35126695Y-7198264D01*
X35107052Y-7223863D01*
X35035464Y-7317159D01*
X34974956Y-7463238D01*
X34954318Y-7620000D01*
X-426018Y-7620000D01*
X-407436Y-7598472D01*
X-386613Y-7561818D01*
X-335264Y-7471426D01*
X-305677Y-7419344D01*
X-240649Y-7223863D01*
X-214829Y-7019474D01*
X-214417Y-6990000D01*
X-234520Y-6784970D01*
X-294065Y-6587749D01*
X-390782Y-6405849D01*
X-448351Y-6335262D01*
X26249520Y-6335262D01*
X26266759Y-6540553D01*
X26323544Y-6738586D01*
X26326359Y-6744063D01*
X26326360Y-6744066D01*
X26347247Y-6784707D01*
X26417712Y-6921818D01*
X26545677Y-7083270D01*
X26550370Y-7087264D01*
X26550371Y-7087265D01*
X26652768Y-7174411D01*
X26702564Y-7216791D01*
X26707942Y-7219797D01*
X26707944Y-7219798D01*
X26739563Y-7237469D01*
X26882398Y-7317297D01*
X26977238Y-7348113D01*
X27072471Y-7379056D01*
X27072475Y-7379057D01*
X27078329Y-7380959D01*
X27282894Y-7405351D01*
X27289029Y-7404879D01*
X27289031Y-7404879D01*
X27345039Y-7400569D01*
X27488300Y-7389546D01*
X27494230Y-7387890D01*
X27494232Y-7387890D01*
X27680797Y-7335800D01*
X27680796Y-7335800D01*
X27686725Y-7334145D01*
X27692214Y-7331372D01*
X27692220Y-7331370D01*
X27865116Y-7244033D01*
X27870610Y-7241258D01*
X27885385Y-7229715D01*
X28028101Y-7118213D01*
X28032951Y-7114424D01*
X28052045Y-7092304D01*
X28163540Y-6963134D01*
X28163540Y-6963133D01*
X28167564Y-6958472D01*
X28188387Y-6921818D01*
X28266276Y-6784707D01*
X28269323Y-6779344D01*
X28334351Y-6583863D01*
X28360171Y-6379474D01*
X28360583Y-6350000D01*
X28359138Y-6335262D01*
X28789520Y-6335262D01*
X28806759Y-6540553D01*
X28863544Y-6738586D01*
X28866359Y-6744063D01*
X28866360Y-6744066D01*
X28887247Y-6784707D01*
X28957712Y-6921818D01*
X29085677Y-7083270D01*
X29090370Y-7087264D01*
X29090371Y-7087265D01*
X29192768Y-7174411D01*
X29242564Y-7216791D01*
X29247942Y-7219797D01*
X29247944Y-7219798D01*
X29279563Y-7237469D01*
X29422398Y-7317297D01*
X29517238Y-7348113D01*
X29612471Y-7379056D01*
X29612475Y-7379057D01*
X29618329Y-7380959D01*
X29822894Y-7405351D01*
X29829029Y-7404879D01*
X29829031Y-7404879D01*
X29885039Y-7400569D01*
X30028300Y-7389546D01*
X30034230Y-7387890D01*
X30034232Y-7387890D01*
X30220797Y-7335800D01*
X30220796Y-7335800D01*
X30226725Y-7334145D01*
X30232214Y-7331372D01*
X30232220Y-7331370D01*
X30405116Y-7244033D01*
X30410610Y-7241258D01*
X30425385Y-7229715D01*
X30568101Y-7118213D01*
X30572951Y-7114424D01*
X30592045Y-7092304D01*
X30703540Y-6963134D01*
X30703540Y-6963133D01*
X30707564Y-6958472D01*
X30728387Y-6921818D01*
X30806276Y-6784707D01*
X30809323Y-6779344D01*
X30874351Y-6583863D01*
X30900171Y-6379474D01*
X30900583Y-6350000D01*
X30880480Y-6144970D01*
X30820935Y-5947749D01*
X30724218Y-5765849D01*
X30624344Y-5643392D01*
X30597906Y-5610975D01*
X30597903Y-5610972D01*
X30594011Y-5606200D01*
X30576786Y-5591950D01*
X30440025Y-5478811D01*
X30440021Y-5478809D01*
X30435275Y-5474882D01*
X30254055Y-5376897D01*
X30115477Y-5334000D01*
X39780318Y-5334000D01*
X39800956Y-5490762D01*
X39861464Y-5636841D01*
X39957718Y-5762282D01*
X40083159Y-5858536D01*
X40229238Y-5919044D01*
X40386000Y-5939682D01*
X40394188Y-5938604D01*
X40534574Y-5920122D01*
X40542762Y-5919044D01*
X40688841Y-5858536D01*
X40814282Y-5762282D01*
X40910536Y-5636841D01*
X40971044Y-5490762D01*
X40991682Y-5334000D01*
X40971044Y-5177238D01*
X40910536Y-5031159D01*
X40814282Y-4905718D01*
X40688841Y-4809464D01*
X40542762Y-4748956D01*
X40386000Y-4728318D01*
X40229238Y-4748956D01*
X40083159Y-4809464D01*
X39957718Y-4905718D01*
X39861464Y-5031159D01*
X39800956Y-5177238D01*
X39780318Y-5334000D01*
X30115477Y-5334000D01*
X30057254Y-5315977D01*
X30051129Y-5315333D01*
X30051128Y-5315333D01*
X29858498Y-5295087D01*
X29858496Y-5295087D01*
X29852369Y-5294443D01*
X29765529Y-5302346D01*
X29653342Y-5312555D01*
X29653339Y-5312556D01*
X29647203Y-5313114D01*
X29449572Y-5371280D01*
X29267002Y-5466726D01*
X29262201Y-5470586D01*
X29262198Y-5470588D01*
X29111254Y-5591950D01*
X29106447Y-5595815D01*
X28974024Y-5753630D01*
X28971056Y-5759028D01*
X28971053Y-5759033D01*
X28877743Y-5928765D01*
X28874776Y-5934162D01*
X28812484Y-6130532D01*
X28811798Y-6136649D01*
X28811797Y-6136653D01*
X28799510Y-6246200D01*
X28789520Y-6335262D01*
X28359138Y-6335262D01*
X28340480Y-6144970D01*
X28280935Y-5947749D01*
X28184218Y-5765849D01*
X28084344Y-5643392D01*
X28057906Y-5610975D01*
X28057903Y-5610972D01*
X28054011Y-5606200D01*
X28036786Y-5591950D01*
X27900025Y-5478811D01*
X27900021Y-5478809D01*
X27895275Y-5474882D01*
X27714055Y-5376897D01*
X27517254Y-5315977D01*
X27511129Y-5315333D01*
X27511128Y-5315333D01*
X27318498Y-5295087D01*
X27318496Y-5295087D01*
X27312369Y-5294443D01*
X27225529Y-5302346D01*
X27113342Y-5312555D01*
X27113339Y-5312556D01*
X27107203Y-5313114D01*
X26909572Y-5371280D01*
X26727002Y-5466726D01*
X26722201Y-5470586D01*
X26722198Y-5470588D01*
X26571254Y-5591950D01*
X26566447Y-5595815D01*
X26434024Y-5753630D01*
X26431056Y-5759028D01*
X26431053Y-5759033D01*
X26337743Y-5928765D01*
X26334776Y-5934162D01*
X26272484Y-6130532D01*
X26271798Y-6136649D01*
X26271797Y-6136653D01*
X26259510Y-6246200D01*
X26249520Y-6335262D01*
X-448351Y-6335262D01*
X-464141Y-6315902D01*
X-517094Y-6250975D01*
X-517097Y-6250972D01*
X-520989Y-6246200D01*
X-635941Y-6151103D01*
X-674975Y-6118811D01*
X-674979Y-6118809D01*
X-679725Y-6114882D01*
X-860945Y-6016897D01*
X-1057746Y-5955977D01*
X-1063871Y-5955333D01*
X-1063872Y-5955333D01*
X-1256502Y-5935087D01*
X-1256504Y-5935087D01*
X-1262631Y-5934443D01*
X-1349077Y-5942310D01*
X-1461658Y-5952555D01*
X-1461661Y-5952556D01*
X-1467797Y-5953114D01*
X-1665428Y-6011280D01*
X-1847998Y-6106726D01*
X-1852799Y-6110586D01*
X-1852802Y-6110588D01*
X-2003746Y-6231950D01*
X-2008553Y-6235815D01*
X-2140976Y-6393630D01*
X-2143944Y-6399028D01*
X-2143947Y-6399033D01*
X-2150685Y-6411290D01*
X-2240224Y-6574162D01*
X-2302516Y-6770532D01*
X-2303202Y-6776649D01*
X-2303203Y-6776653D01*
X-2318871Y-6916341D01*
X-2325480Y-6975262D01*
X-3809000Y-6975262D01*
X-3809000Y-42095D01*
X-1854972Y-42095D01*
X-1829466Y-309431D01*
X-1765636Y-570285D01*
X-1664818Y-819192D01*
X-1529125Y-1050938D01*
X-1526272Y-1054505D01*
X-1414775Y-1193925D01*
X-1361399Y-1260669D01*
X-1165154Y-1443991D01*
X-1072961Y-1507948D01*
X-948254Y-1594461D01*
X-948249Y-1594464D01*
X-944501Y-1597064D01*
X-940416Y-1599096D01*
X-940413Y-1599098D01*
X-824281Y-1656872D01*
X-704062Y-1716680D01*
X-699728Y-1718101D01*
X-699725Y-1718102D01*
X-453207Y-1798915D01*
X-453202Y-1798916D01*
X-448874Y-1800335D01*
X-444383Y-1801115D01*
X-444382Y-1801115D01*
X-188064Y-1845620D01*
X-188056Y-1845621D01*
X-184283Y-1846276D01*
X-180446Y-1846467D01*
X-101004Y-1850422D01*
X-100996Y-1850422D01*
X-99433Y-1850500D01*
X68223Y-1850500D01*
X70491Y-1850335D01*
X70503Y-1850335D01*
X200823Y-1840879D01*
X267846Y-1836016D01*
X272301Y-1835032D01*
X272304Y-1835032D01*
X525620Y-1779105D01*
X525624Y-1779104D01*
X530080Y-1778120D01*
X697617Y-1714646D01*
X776941Y-1684593D01*
X776944Y-1684592D01*
X781211Y-1682975D01*
X1015976Y-1552574D01*
X1158254Y-1443991D01*
X1225833Y-1392417D01*
X1225837Y-1392413D01*
X1229458Y-1389650D01*
X1417185Y-1197614D01*
X1575225Y-980491D01*
X1662313Y-814963D01*
X1698140Y-746868D01*
X1698143Y-746862D01*
X1700265Y-742828D01*
X1759703Y-574515D01*
X1788165Y-493916D01*
X1788165Y-493915D01*
X1789688Y-489603D01*
X1841620Y-226122D01*
X1841847Y-221566D01*
X1854745Y37526D01*
X1854745Y37532D01*
X1854972Y42095D01*
X1829466Y309431D01*
X1814715Y369716D01*
X1766721Y565851D01*
X1765636Y570285D01*
X1760610Y582695D01*
X1666531Y814963D01*
X1666531Y814964D01*
X1664818Y819192D01*
X1529125Y1050938D01*
X1418211Y1189629D01*
X1364251Y1257103D01*
X1364250Y1257105D01*
X1361399Y1260669D01*
X1165154Y1443991D01*
X1033232Y1535509D01*
X948254Y1594461D01*
X948249Y1594464D01*
X944501Y1597064D01*
X940416Y1599096D01*
X940413Y1599098D01*
X764031Y1686846D01*
X704062Y1716680D01*
X699728Y1718101D01*
X699725Y1718102D01*
X453207Y1798915D01*
X453202Y1798916D01*
X448874Y1800335D01*
X444382Y1801115D01*
X188064Y1845620D01*
X188056Y1845621D01*
X184283Y1846276D01*
X175622Y1846707D01*
X101004Y1850422D01*
X100996Y1850422D01*
X99433Y1850500D01*
X-68223Y1850500D01*
X-70491Y1850335D01*
X-70503Y1850335D01*
X-200823Y1840879D01*
X-267846Y1836016D01*
X-272301Y1835032D01*
X-272304Y1835032D01*
X-525620Y1779105D01*
X-525624Y1779104D01*
X-530080Y1778120D01*
X-639171Y1736789D01*
X-776941Y1684593D01*
X-776944Y1684592D01*
X-781211Y1682975D01*
X-1015976Y1552574D01*
X-1067866Y1512973D01*
X-1225833Y1392417D01*
X-1225837Y1392413D01*
X-1229458Y1389650D01*
X-1417185Y1197614D01*
X-1575225Y980491D01*
X-1577955Y975302D01*
X-1698140Y746868D01*
X-1698143Y746862D01*
X-1700265Y742828D01*
X-1701785Y738523D01*
X-1701787Y738519D01*
X-1761196Y570285D01*
X-1789688Y489603D01*
X-1805315Y410318D01*
X-1826103Y304847D01*
X-1841620Y226122D01*
X-1841847Y221569D01*
X-1841847Y221566D01*
X-1852886Y-198D01*
X-1854972Y-42095D01*
X-3809000Y-42095D01*
X-3809000Y-3094D01*
X-3808924Y-15D01*
X-3808918Y0D01*
X-3808924Y14D01*
X-3808848Y3088D01*
X-3798115Y221566D01*
X-3794013Y305065D01*
X-3790624Y369716D01*
X-3789433Y381608D01*
X-3755105Y613030D01*
X-3754918Y614253D01*
X-3733146Y751717D01*
X-3730921Y762621D01*
X-3704669Y867426D01*
X-3677633Y975360D01*
X-3677120Y977340D01*
X-3637326Y1125852D01*
X-3634254Y1135689D01*
X-3562413Y1336470D01*
X-3561424Y1339136D01*
X-3504180Y1488260D01*
X-3500451Y1496977D01*
X-3410649Y1686846D01*
X-3409014Y1690176D01*
X-3335101Y1835241D01*
X-3330908Y1842816D01*
X-3223872Y2021395D01*
X-3221471Y2025242D01*
X-3131864Y2163225D01*
X-3127395Y2169659D01*
X-3003974Y2336072D01*
X-3000691Y2340308D01*
X-2948089Y2405267D01*
X-2896599Y2468852D01*
X-2892059Y2474150D01*
X-2753206Y2627351D01*
X-2748941Y2631829D01*
X-2631829Y2748941D01*
X-2627351Y2753206D01*
X-2616072Y2763428D01*
X-2474150Y2892059D01*
X-2468852Y2896599D01*
X-2405267Y2948089D01*
X-2340308Y3000691D01*
X-2336072Y3003974D01*
X-2169659Y3127395D01*
X-2163225Y3131864D01*
X-2025242Y3221471D01*
X-2021395Y3223872D01*
X-1842816Y3330908D01*
X-1835241Y3335101D01*
X-1690176Y3409014D01*
X-1686846Y3410649D01*
X-1496977Y3500451D01*
X-1488260Y3504180D01*
X-1455672Y3516689D01*
X-1339101Y3561437D01*
X-1336470Y3562413D01*
X-1135680Y3634257D01*
X-1125852Y3637326D01*
X-977340Y3677120D01*
X-975360Y3677633D01*
X-762621Y3730921D01*
X-751717Y3733146D01*
X-614253Y3754918D01*
X-613030Y3755105D01*
X-381608Y3789433D01*
X-369716Y3790624D01*
X-331212Y3792642D01*
X-304954Y3794019D01*
X-3088Y3808848D01*
X-14Y3808924D01*
X0Y3808918D01*
X15Y3808924D01*
X3094Y3809000D01*
X4700000Y3809000D01*
X4768121Y3788998D01*
G37*
G04 #@! TD.AperFunction*
M02*
