G04 #@! TF.GenerationSoftware,KiCad,Pcbnew,(6.0.0)*
G04 #@! TF.CreationDate,2022-11-09T00:59:33-05:00*
G04 #@! TF.ProjectId,esp8266 atmosphere sensor,65737038-3236-4362-9061-746d6f737068,rev?*
G04 #@! TF.SameCoordinates,Original*
G04 #@! TF.FileFunction,Paste,Top*
G04 #@! TF.FilePolarity,Positive*
%FSLAX46Y46*%
G04 Gerber Fmt 4.6, Leading zero omitted, Abs format (unit mm)*
G04 Created by KiCad (PCBNEW (6.0.0)) date 2022-11-09 00:59:33*
%MOMM*%
%LPD*%
G01*
G04 APERTURE LIST*
G04 Aperture macros list*
%AMRoundRect*
0 Rectangle with rounded corners*
0 $1 Rounding radius*
0 $2 $3 $4 $5 $6 $7 $8 $9 X,Y pos of 4 corners*
0 Add a 4 corners polygon primitive as box body*
4,1,4,$2,$3,$4,$5,$6,$7,$8,$9,$2,$3,0*
0 Add four circle primitives for the rounded corners*
1,1,$1+$1,$2,$3*
1,1,$1+$1,$4,$5*
1,1,$1+$1,$6,$7*
1,1,$1+$1,$8,$9*
0 Add four rect primitives between the rounded corners*
20,1,$1+$1,$2,$3,$4,$5,0*
20,1,$1+$1,$4,$5,$6,$7,0*
20,1,$1+$1,$6,$7,$8,$9,0*
20,1,$1+$1,$8,$9,$2,$3,0*%
G04 Aperture macros list end*
%ADD10R,0.400000X1.350000*%
%ADD11R,1.900000X1.900000*%
%ADD12RoundRect,0.218750X-0.218750X-0.256250X0.218750X-0.256250X0.218750X0.256250X-0.218750X0.256250X0*%
%ADD13R,2.500000X1.000000*%
%ADD14R,1.000000X1.800000*%
%ADD15RoundRect,0.200000X0.200000X0.275000X-0.200000X0.275000X-0.200000X-0.275000X0.200000X-0.275000X0*%
%ADD16RoundRect,0.200000X-0.200000X-0.275000X0.200000X-0.275000X0.200000X0.275000X-0.200000X0.275000X0*%
%ADD17R,1.500000X2.000000*%
%ADD18R,3.800000X2.000000*%
%ADD19RoundRect,0.225000X0.225000X0.250000X-0.225000X0.250000X-0.225000X-0.250000X0.225000X-0.250000X0*%
%ADD20RoundRect,0.250000X0.325000X0.650000X-0.325000X0.650000X-0.325000X-0.650000X0.325000X-0.650000X0*%
%ADD21R,1.600000X1.400000*%
%ADD22RoundRect,0.250000X-0.650000X0.325000X-0.650000X-0.325000X0.650000X-0.325000X0.650000X0.325000X0*%
%ADD23RoundRect,0.225000X-0.225000X-0.250000X0.225000X-0.250000X0.225000X0.250000X-0.225000X0.250000X0*%
G04 APERTURE END LIST*
D10*
X13305000Y-37365000D03*
X15905000Y-37365000D03*
X13955000Y-37365000D03*
X14605000Y-37365000D03*
X15255000Y-37365000D03*
D11*
X10655000Y-40040000D03*
X13405000Y-40040000D03*
X15805000Y-40040000D03*
X18555000Y-40040000D03*
D12*
X10642500Y-26670000D03*
X12217500Y-26670000D03*
D13*
X6370000Y-6025000D03*
X6370000Y-8025000D03*
X6370000Y-10025000D03*
X6370000Y-12025000D03*
X6370000Y-14025000D03*
X6370000Y-16025000D03*
X6370000Y-18025000D03*
X6370000Y-20025000D03*
D14*
X8970000Y-21525000D03*
X10970000Y-21525000D03*
X12970000Y-21525000D03*
X14970000Y-21525000D03*
X16970000Y-21525000D03*
X18970000Y-21525000D03*
D13*
X21570000Y-20025000D03*
X21570000Y-18025000D03*
X21570000Y-16025000D03*
X21570000Y-14025000D03*
X21570000Y-12025000D03*
X21570000Y-10025000D03*
X21570000Y-8025000D03*
X21570000Y-6025000D03*
D15*
X25463000Y-13970000D03*
X23813000Y-13970000D03*
D16*
X10605000Y-25146000D03*
X12255000Y-25146000D03*
D15*
X25463000Y-18034000D03*
X23813000Y-18034000D03*
X25463000Y-16002000D03*
X23813000Y-16002000D03*
D17*
X-1030000Y-30455000D03*
X1270000Y-30455000D03*
D18*
X1270000Y-24155000D03*
D17*
X3570000Y-30455000D03*
D19*
X3823000Y-35052000D03*
X2273000Y-35052000D03*
D16*
X2477000Y-8636000D03*
X4127000Y-8636000D03*
D20*
X3761000Y-33020000D03*
X811000Y-33020000D03*
D19*
X4077000Y-4572000D03*
X2527000Y-4572000D03*
D16*
X2477000Y-13462000D03*
X4127000Y-13462000D03*
D21*
X39434000Y-11085000D03*
X47434000Y-11085000D03*
X39434000Y-15585000D03*
X47434000Y-15585000D03*
D16*
X2477000Y-6096000D03*
X4127000Y-6096000D03*
D22*
X6096000Y-25703000D03*
X6096000Y-28653000D03*
D15*
X4127000Y-10160000D03*
X2477000Y-10160000D03*
D23*
X39611000Y-9144000D03*
X41161000Y-9144000D03*
M02*
