%TF.GenerationSoftware,KiCad,Pcbnew,(6.0.0)*%
%TF.CreationDate,2022-03-13T20:52:07-04:00*%
%TF.ProjectId,esp8266 atmosphere sensor,65737038-3236-4362-9061-746d6f737068,rev?*%
%TF.SameCoordinates,Original*%
%TF.FileFunction,Copper,L1,Top*%
%TF.FilePolarity,Positive*%
%FSLAX46Y46*%
G04 Gerber Fmt 4.6, Leading zero omitted, Abs format (unit mm)*
G04 Created by KiCad (PCBNEW (6.0.0)) date 2022-03-13 20:52:07*
%MOMM*%
%LPD*%
G01*
G04 APERTURE LIST*
G04 Aperture macros list*
%AMRoundRect*
0 Rectangle with rounded corners*
0 $1 Rounding radius*
0 $2 $3 $4 $5 $6 $7 $8 $9 X,Y pos of 4 corners*
0 Add a 4 corners polygon primitive as box body*
4,1,4,$2,$3,$4,$5,$6,$7,$8,$9,$2,$3,0*
0 Add four circle primitives for the rounded corners*
1,1,$1+$1,$2,$3*
1,1,$1+$1,$4,$5*
1,1,$1+$1,$6,$7*
1,1,$1+$1,$8,$9*
0 Add four rect primitives between the rounded corners*
20,1,$1+$1,$2,$3,$4,$5,0*
20,1,$1+$1,$4,$5,$6,$7,0*
20,1,$1+$1,$6,$7,$8,$9,0*
20,1,$1+$1,$8,$9,$2,$3,0*%
G04 Aperture macros list end*
%TA.AperFunction,SMDPad,CuDef*%
%ADD10R,0.400000X1.350000*%
%TD*%
%TA.AperFunction,SMDPad,CuDef*%
%ADD11R,1.900000X1.900000*%
%TD*%
%TA.AperFunction,ComponentPad*%
%ADD12RoundRect,0.250000X-0.600000X-0.600000X0.600000X-0.600000X0.600000X0.600000X-0.600000X0.600000X0*%
%TD*%
%TA.AperFunction,ComponentPad*%
%ADD13C,1.700000*%
%TD*%
%TA.AperFunction,SMDPad,CuDef*%
%ADD14RoundRect,0.218750X-0.218750X-0.256250X0.218750X-0.256250X0.218750X0.256250X-0.218750X0.256250X0*%
%TD*%
%TA.AperFunction,SMDPad,CuDef*%
%ADD15R,2.500000X1.000000*%
%TD*%
%TA.AperFunction,SMDPad,CuDef*%
%ADD16R,1.000000X1.800000*%
%TD*%
%TA.AperFunction,ComponentPad*%
%ADD17R,1.700000X1.700000*%
%TD*%
%TA.AperFunction,ComponentPad*%
%ADD18O,1.700000X1.700000*%
%TD*%
%TA.AperFunction,SMDPad,CuDef*%
%ADD19RoundRect,0.200000X-0.200000X-0.275000X0.200000X-0.275000X0.200000X0.275000X-0.200000X0.275000X0*%
%TD*%
%TA.AperFunction,SMDPad,CuDef*%
%ADD20RoundRect,0.200000X0.200000X0.275000X-0.200000X0.275000X-0.200000X-0.275000X0.200000X-0.275000X0*%
%TD*%
%TA.AperFunction,SMDPad,CuDef*%
%ADD21R,1.500000X2.000000*%
%TD*%
%TA.AperFunction,SMDPad,CuDef*%
%ADD22R,3.800000X2.000000*%
%TD*%
%TA.AperFunction,SMDPad,CuDef*%
%ADD23RoundRect,0.225000X0.225000X0.250000X-0.225000X0.250000X-0.225000X-0.250000X0.225000X-0.250000X0*%
%TD*%
%TA.AperFunction,SMDPad,CuDef*%
%ADD24RoundRect,0.200000X-0.275000X0.200000X-0.275000X-0.200000X0.275000X-0.200000X0.275000X0.200000X0*%
%TD*%
%TA.AperFunction,SMDPad,CuDef*%
%ADD25RoundRect,0.250000X0.325000X0.650000X-0.325000X0.650000X-0.325000X-0.650000X0.325000X-0.650000X0*%
%TD*%
%TA.AperFunction,SMDPad,CuDef*%
%ADD26RoundRect,0.225000X-0.225000X-0.250000X0.225000X-0.250000X0.225000X0.250000X-0.225000X0.250000X0*%
%TD*%
%TA.AperFunction,SMDPad,CuDef*%
%ADD27RoundRect,0.200000X0.275000X-0.200000X0.275000X0.200000X-0.275000X0.200000X-0.275000X-0.200000X0*%
%TD*%
%TA.AperFunction,SMDPad,CuDef*%
%ADD28R,1.400000X1.600000*%
%TD*%
%TA.AperFunction,SMDPad,CuDef*%
%ADD29RoundRect,0.250000X-0.650000X0.325000X-0.650000X-0.325000X0.650000X-0.325000X0.650000X0.325000X0*%
%TD*%
%TA.AperFunction,ViaPad*%
%ADD30C,0.800000*%
%TD*%
%TA.AperFunction,Conductor*%
%ADD31C,0.250000*%
%TD*%
%TA.AperFunction,Conductor*%
%ADD32C,1.000000*%
%TD*%
G04 APERTURE END LIST*
D10*
%TO.P,J2,1,1*%
%TO.N,+5V*%
X13305000Y-37365000D03*
%TO.P,J2,2,2*%
%TO.N,GND*%
X15905000Y-37365000D03*
%TO.P,J2,3,3*%
%TO.N,unconnected-(J2-Pad3)*%
X13955000Y-37365000D03*
%TO.P,J2,4,4*%
%TO.N,unconnected-(J2-Pad4)*%
X14605000Y-37365000D03*
%TO.P,J2,5,5*%
%TO.N,unconnected-(J2-Pad5)*%
X15255000Y-37365000D03*
D11*
%TO.P,J2,MP1,MP1*%
%TO.N,GND*%
X10655000Y-40040000D03*
%TO.P,J2,MP2,MP2*%
X13405000Y-40040000D03*
%TO.P,J2,MP3,MP3*%
X15805000Y-40040000D03*
%TO.P,J2,MP4,MP4*%
X18555000Y-40040000D03*
%TD*%
D12*
%TO.P,J1,1,Pin_1*%
%TO.N,/ESP_RST*%
X27305000Y-3810000D03*
D13*
%TO.P,J1,2,Pin_2*%
%TO.N,+5V*%
X29845000Y-3810000D03*
%TO.P,J1,3,Pin_3*%
%TO.N,/ESP_IO1*%
X27305000Y-6350000D03*
%TO.P,J1,4,Pin_4*%
%TO.N,GND*%
X29845000Y-6350000D03*
%TO.P,J1,5,Pin_5*%
%TO.N,/ESP_IO3*%
X27305000Y-8890000D03*
%TO.P,J1,6,Pin_6*%
%TO.N,/ESP_IO0*%
X29845000Y-8890000D03*
%TD*%
D14*
%TO.P,D1,1,K*%
%TO.N,GND*%
X10642500Y-26670000D03*
%TO.P,D1,2,A*%
%TO.N,Net-(D1-Pad2)*%
X12217500Y-26670000D03*
%TD*%
D15*
%TO.P,U1,1,~{RST}*%
%TO.N,/ESP_RST*%
X6370000Y-6025000D03*
%TO.P,U1,2,ADC*%
%TO.N,/ESP_ADC*%
X6370000Y-8025000D03*
%TO.P,U1,3,EN*%
%TO.N,/ESP_EN*%
X6370000Y-10025000D03*
%TO.P,U1,4,GPIO16*%
%TO.N,/ESP_IO16*%
X6370000Y-12025000D03*
%TO.P,U1,5,GPIO14*%
%TO.N,/ESP_IO14*%
X6370000Y-14025000D03*
%TO.P,U1,6,GPIO12*%
%TO.N,/ESP_IO12*%
X6370000Y-16025000D03*
%TO.P,U1,7,GPIO13*%
%TO.N,/ESP_IO13*%
X6370000Y-18025000D03*
%TO.P,U1,8,VCC*%
%TO.N,+3V3*%
X6370000Y-20025000D03*
D16*
%TO.P,U1,9,CS0*%
%TO.N,unconnected-(U1-Pad9)*%
X8970000Y-21525000D03*
%TO.P,U1,10,MISO*%
%TO.N,unconnected-(U1-Pad10)*%
X10970000Y-21525000D03*
%TO.P,U1,11,GPIO9*%
%TO.N,unconnected-(U1-Pad11)*%
X12970000Y-21525000D03*
%TO.P,U1,12,GPIO10*%
%TO.N,unconnected-(U1-Pad12)*%
X14970000Y-21525000D03*
%TO.P,U1,13,MOSI*%
%TO.N,unconnected-(U1-Pad13)*%
X16970000Y-21525000D03*
%TO.P,U1,14,SCLK*%
%TO.N,unconnected-(U1-Pad14)*%
X18970000Y-21525000D03*
D15*
%TO.P,U1,15,GND*%
%TO.N,GND*%
X21570000Y-20025000D03*
%TO.P,U1,16,GPIO15*%
%TO.N,/ESP_IO15*%
X21570000Y-18025000D03*
%TO.P,U1,17,GPIO2*%
%TO.N,/ESP_IO2*%
X21570000Y-16025000D03*
%TO.P,U1,18,GPIO0*%
%TO.N,/ESP_IO0*%
X21570000Y-14025000D03*
%TO.P,U1,19,GPIO4*%
%TO.N,/ESP_IO4*%
X21570000Y-12025000D03*
%TO.P,U1,20,GPIO5*%
%TO.N,/ESP_IO5*%
X21570000Y-10025000D03*
%TO.P,U1,21,GPIO3/RXD*%
%TO.N,/ESP_IO3*%
X21570000Y-8025000D03*
%TO.P,U1,22,GPIO1/TXD*%
%TO.N,/ESP_IO1*%
X21570000Y-6025000D03*
%TD*%
D17*
%TO.P,J3,1,Pin_1*%
%TO.N,GND*%
X35560000Y-33345000D03*
D18*
%TO.P,J3,2,Pin_2*%
X38100000Y-33345000D03*
%TO.P,J3,3,Pin_3*%
%TO.N,/ESP_IO4*%
X40640000Y-33345000D03*
%TO.P,J3,4,Pin_4*%
%TO.N,/ESP_IO5*%
X43180000Y-33345000D03*
%TO.P,J3,5,Pin_5*%
%TO.N,+3V3*%
X45720000Y-33345000D03*
%TD*%
D17*
%TO.P,J5,1,Pin_1*%
%TO.N,+3V3*%
X17145000Y-26050000D03*
D18*
%TO.P,J5,2,Pin_2*%
%TO.N,/ESP_IO13*%
X17145000Y-28590000D03*
%TO.P,J5,3,Pin_3*%
%TO.N,GND*%
X17145000Y-31130000D03*
%TD*%
D17*
%TO.P,J4,1,Pin_1*%
%TO.N,+3V3*%
X31115000Y-31115000D03*
D18*
%TO.P,J4,2,Pin_2*%
%TO.N,GND*%
X28575000Y-31115000D03*
%TO.P,J4,3,Pin_3*%
%TO.N,/ESP_IO5*%
X26035000Y-31115000D03*
%TO.P,J4,4,Pin_4*%
%TO.N,/ESP_IO4*%
X23495000Y-31115000D03*
%TD*%
D17*
%TO.P,J7,1,Pin_1*%
%TO.N,+3V3*%
X41275000Y-20955000D03*
D18*
%TO.P,J7,2,Pin_2*%
%TO.N,GND*%
X41275000Y-23495000D03*
%TO.P,J7,3,Pin_3*%
%TO.N,/ESP_IO5*%
X41275000Y-26035000D03*
%TO.P,J7,4,Pin_4*%
%TO.N,/ESP_IO4*%
X41275000Y-28575000D03*
%TD*%
D19*
%TO.P,R10,1*%
%TO.N,+3V3*%
X28385000Y-15875000D03*
%TO.P,R10,2*%
%TO.N,/ESP_IO0*%
X30035000Y-15875000D03*
%TD*%
%TO.P,R3,1*%
%TO.N,+3V3*%
X10605000Y-24765000D03*
%TO.P,R3,2*%
%TO.N,Net-(D1-Pad2)*%
X12255000Y-24765000D03*
%TD*%
D20*
%TO.P,R5,1*%
%TO.N,GND*%
X25590000Y-19050000D03*
%TO.P,R5,2*%
%TO.N,/ESP_IO15*%
X23940000Y-19050000D03*
%TD*%
D17*
%TO.P,J8,1,Pin_1*%
%TO.N,+3V3*%
X-1270000Y-20955000D03*
D18*
%TO.P,J8,2,Pin_2*%
%TO.N,+5V*%
X-1270000Y-18415000D03*
%TO.P,J8,3,Pin_3*%
%TO.N,GND*%
X-1270000Y-15875000D03*
%TD*%
D20*
%TO.P,R11,1*%
%TO.N,+3V3*%
X26225000Y-15875000D03*
%TO.P,R11,2*%
%TO.N,/ESP_IO2*%
X24575000Y-15875000D03*
%TD*%
D21*
%TO.P,U2,1,GND*%
%TO.N,GND*%
X-1030000Y-30455000D03*
%TO.P,U2,2,VO*%
%TO.N,+3V3*%
X1270000Y-30455000D03*
D22*
X1270000Y-24155000D03*
D21*
%TO.P,U2,3,VI*%
%TO.N,+5V*%
X3570000Y-30455000D03*
%TD*%
D23*
%TO.P,C2,1*%
%TO.N,+5V*%
X5220000Y-36195000D03*
%TO.P,C2,2*%
%TO.N,GND*%
X3670000Y-36195000D03*
%TD*%
D24*
%TO.P,R1,1*%
%TO.N,/Analog_In*%
X3810000Y-4255000D03*
%TO.P,R1,2*%
%TO.N,/ESP_ADC*%
X3810000Y-5905000D03*
%TD*%
D17*
%TO.P,J6,1,Pin_1*%
%TO.N,GND*%
X-1270000Y-9530000D03*
D18*
%TO.P,J6,2,Pin_2*%
%TO.N,/Analog_In*%
X-1270000Y-6990000D03*
%TD*%
D25*
%TO.P,C3,1*%
%TO.N,+5V*%
X2745000Y-33020000D03*
%TO.P,C3,2*%
%TO.N,GND*%
X-205000Y-33020000D03*
%TD*%
D26*
%TO.P,C9,1*%
%TO.N,/ESP_RST*%
X34785000Y-635000D03*
%TO.P,C9,2*%
%TO.N,GND*%
X36335000Y-635000D03*
%TD*%
D27*
%TO.P,R8,1*%
%TO.N,+3V3*%
X3810000Y-14160000D03*
%TO.P,R8,2*%
%TO.N,/ESP_EN*%
X3810000Y-12510000D03*
%TD*%
D28*
%TO.P,SW1,1,1*%
%TO.N,/ESP_RST*%
X40295000Y-17335000D03*
%TO.P,SW1,2,2*%
X40295000Y-9335000D03*
%TO.P,SW1,3,K*%
%TO.N,GND*%
X44795000Y-17335000D03*
%TO.P,SW1,4,A*%
X44795000Y-9335000D03*
%TD*%
D20*
%TO.P,R9,1*%
%TO.N,+3V3*%
X36385000Y-2540000D03*
%TO.P,R9,2*%
%TO.N,/ESP_RST*%
X34735000Y-2540000D03*
%TD*%
D29*
%TO.P,C1,1*%
%TO.N,+3V3*%
X6985000Y-24560000D03*
%TO.P,C1,2*%
%TO.N,GND*%
X6985000Y-27510000D03*
%TD*%
D24*
%TO.P,R2,1*%
%TO.N,/ESP_ADC*%
X3810000Y-8700000D03*
%TO.P,R2,2*%
%TO.N,GND*%
X3810000Y-10350000D03*
%TD*%
D26*
%TO.P,C4,1*%
%TO.N,/ESP_RST*%
X41760000Y-7165000D03*
%TO.P,C4,2*%
%TO.N,GND*%
X43310000Y-7165000D03*
%TD*%
D30*
%TO.N,GND*%
X44704000Y-19812000D03*
X3556000Y-2794000D03*
X22860000Y-35560000D03*
X-1270000Y-27940000D03*
X1905000Y-17145000D03*
X21082000Y-39878000D03*
%TO.N,+5V*%
X8255000Y-36195000D03*
%TO.N,+3V3*%
X35560000Y-13335000D03*
X8389511Y-13200489D03*
X27305000Y-15875000D03*
X19050000Y-6096000D03*
%TO.N,/ESP_IO14*%
X31115000Y-13970000D03*
%TO.N,/ESP_IO12*%
X14605000Y-23495000D03*
%TO.N,/ESP_IO13*%
X26670000Y-27305000D03*
X17145000Y-24130000D03*
X31750000Y-36195000D03*
%TO.N,/ESP_IO2*%
X23495000Y-15875000D03*
%TO.N,/ESP_IO4*%
X19050000Y-13970000D03*
%TO.N,/ESP_IO5*%
X18415000Y-12065000D03*
X17780000Y-15240000D03*
%TD*%
D31*
%TO.N,/ESP_EN*%
X3810000Y-12510000D02*
X3810000Y-12185978D01*
X5970978Y-10025000D02*
X6370000Y-10025000D01*
X3810000Y-12185978D02*
X5970978Y-10025000D01*
%TO.N,GND*%
X15905000Y-37365000D02*
X15905000Y-32370000D01*
X15905000Y-39940000D02*
X15805000Y-40040000D01*
X15905000Y-32370000D02*
X17145000Y-31130000D01*
X15905000Y-37365000D02*
X15905000Y-39940000D01*
D32*
%TO.N,+5V*%
X12065000Y-36195000D02*
X12700000Y-36830000D01*
X3810000Y-33020000D02*
X5220000Y-34430000D01*
X3570000Y-32195000D02*
X2745000Y-33020000D01*
D31*
X13235000Y-37365000D02*
X12700000Y-36830000D01*
D32*
X5220000Y-36195000D02*
X8255000Y-36195000D01*
D31*
X13305000Y-37365000D02*
X13235000Y-37365000D01*
D32*
X3570000Y-30455000D02*
X3570000Y-32195000D01*
X2745000Y-33020000D02*
X3810000Y-33020000D01*
X5220000Y-34430000D02*
X5220000Y-36195000D01*
X8255000Y-36195000D02*
X12065000Y-36195000D01*
D31*
%TO.N,/ESP_IO1*%
X27305000Y-6350000D02*
X21895000Y-6350000D01*
X21895000Y-6350000D02*
X21570000Y-6025000D01*
%TO.N,/ESP_IO3*%
X27305000Y-8890000D02*
X22435000Y-8890000D01*
X22435000Y-8890000D02*
X21570000Y-8025000D01*
%TO.N,/ESP_IO0*%
X29845000Y-13970000D02*
X29845000Y-8890000D01*
X29790000Y-14025000D02*
X29845000Y-13970000D01*
X21570000Y-14025000D02*
X29790000Y-14025000D01*
X30035000Y-15875000D02*
X29845000Y-15685000D01*
X29845000Y-15685000D02*
X29845000Y-13970000D01*
%TO.N,+3V3*%
X11404520Y-23965480D02*
X12672263Y-23965480D01*
X13350000Y-26050000D02*
X17145000Y-26050000D01*
X30495000Y-26050000D02*
X31750000Y-27305000D01*
X4959511Y-5200489D02*
X4795489Y-5364511D01*
X36385000Y-2985000D02*
X35234520Y-4135480D01*
D32*
X635000Y-20955000D02*
X-1270000Y-20955000D01*
D31*
X35234520Y-4135480D02*
X35234520Y-13009520D01*
X19050000Y-6096000D02*
X18154489Y-5200489D01*
X4769511Y-13200489D02*
X8389511Y-13200489D01*
X35234520Y-13009520D02*
X35560000Y-13335000D01*
X17145000Y-26050000D02*
X30495000Y-26050000D01*
D32*
X1270000Y-24155000D02*
X1270000Y-21590000D01*
D31*
X3810000Y-14160000D02*
X3810000Y-17864022D01*
D32*
X1270000Y-30455000D02*
X1270000Y-24155000D01*
D31*
X8389511Y-7645489D02*
X8389511Y-13200489D01*
X3810000Y-17864022D02*
X5970978Y-20025000D01*
D32*
X6370000Y-20025000D02*
X6370000Y-24110000D01*
D31*
X31750000Y-30480000D02*
X31750000Y-27305000D01*
D32*
X1270000Y-24155000D02*
X6325000Y-24155000D01*
D31*
X5970978Y-20025000D02*
X6370000Y-20025000D01*
D32*
X6580000Y-24155000D02*
X6985000Y-24560000D01*
D31*
X8890000Y-24765000D02*
X7190000Y-24765000D01*
D32*
X6370000Y-24110000D02*
X6325000Y-24155000D01*
D31*
X4795489Y-5364511D02*
X4795489Y-6849511D01*
X18154489Y-5200489D02*
X4959511Y-5200489D01*
X7593533Y-6849511D02*
X8389511Y-7645489D01*
X27305000Y-15875000D02*
X26225000Y-15875000D01*
X10605000Y-24765000D02*
X8890000Y-24765000D01*
X3810000Y-14160000D02*
X4769511Y-13200489D01*
X27305000Y-15875000D02*
X28385000Y-15875000D01*
D32*
X6325000Y-24155000D02*
X6580000Y-24155000D01*
D31*
X12672263Y-23965480D02*
X13335000Y-24628217D01*
D32*
X1270000Y-21590000D02*
X635000Y-20955000D01*
D31*
X10605000Y-24765000D02*
X11404520Y-23965480D01*
X13335000Y-26035000D02*
X13350000Y-26050000D01*
X31115000Y-31115000D02*
X31750000Y-30480000D01*
X4795489Y-6849511D02*
X7593533Y-6849511D01*
X7190000Y-24765000D02*
X6985000Y-24560000D01*
X36385000Y-2540000D02*
X36385000Y-2985000D01*
X13335000Y-24628217D02*
X13335000Y-26035000D01*
%TO.N,/ESP_IO14*%
X18880489Y-15964511D02*
X19995489Y-14849511D01*
X17479897Y-15964511D02*
X18880489Y-15964511D01*
X15540386Y-14025000D02*
X17479897Y-15964511D01*
X6370000Y-14025000D02*
X15540386Y-14025000D01*
X29210000Y-16266783D02*
X29617737Y-16674520D01*
X19995489Y-14849511D02*
X29004991Y-14849511D01*
X30452263Y-16674520D02*
X31115000Y-16011783D01*
X29210000Y-15054520D02*
X29210000Y-16266783D01*
X29004991Y-14849511D02*
X29210000Y-15054520D01*
X29617737Y-16674520D02*
X30452263Y-16674520D01*
X31115000Y-16011783D02*
X31115000Y-13970000D01*
%TO.N,/ESP_IO12*%
X13970000Y-22860000D02*
X14605000Y-23495000D01*
X11395489Y-20300489D02*
X11794511Y-20300489D01*
X12065000Y-22669022D02*
X12255978Y-22860000D01*
X12065000Y-20570978D02*
X12065000Y-22669022D01*
X12255978Y-22860000D02*
X13970000Y-22860000D01*
X7120000Y-16025000D02*
X11395489Y-20300489D01*
X6370000Y-16025000D02*
X7120000Y-16025000D01*
X11794511Y-20300489D02*
X12065000Y-20570978D01*
%TO.N,/ESP_IO13*%
X8890000Y-20145978D02*
X9640000Y-20145978D01*
X26670000Y-27305000D02*
X18430000Y-27305000D01*
X6769022Y-18025000D02*
X8890000Y-20145978D01*
X6370000Y-18025000D02*
X6769022Y-18025000D01*
X14107501Y-24765000D02*
X16510000Y-24765000D01*
X12837501Y-23495000D02*
X14107501Y-24765000D01*
X26670000Y-27305000D02*
X29845000Y-30480000D01*
X18430000Y-27305000D02*
X17145000Y-28590000D01*
X10145489Y-20651467D02*
X10145489Y-22845489D01*
X10795000Y-23495000D02*
X12837501Y-23495000D01*
X29845000Y-34290000D02*
X31750000Y-36195000D01*
X29845000Y-30480000D02*
X29845000Y-34290000D01*
X10145489Y-22845489D02*
X10795000Y-23495000D01*
X16510000Y-24765000D02*
X17145000Y-24130000D01*
X9640000Y-20145978D02*
X10145489Y-20651467D01*
%TO.N,/ESP_IO15*%
X22915000Y-18025000D02*
X23940000Y-19050000D01*
X21570000Y-18025000D02*
X22915000Y-18025000D01*
%TO.N,/ESP_IO2*%
X24575000Y-15875000D02*
X23495000Y-15875000D01*
X23495000Y-15875000D02*
X21720000Y-15875000D01*
X21720000Y-15875000D02*
X21570000Y-16025000D01*
%TO.N,/ESP_IO4*%
X40640000Y-29210000D02*
X41275000Y-28575000D01*
X21570000Y-12025000D02*
X19725000Y-12025000D01*
X19050000Y-12700000D02*
X19050000Y-13970000D01*
X40640000Y-33345000D02*
X40640000Y-29210000D01*
X19725000Y-12025000D02*
X19050000Y-12700000D01*
%TO.N,/ESP_IO5*%
X19185000Y-10025000D02*
X18415000Y-10795000D01*
X17780000Y-12700000D02*
X17780000Y-15240000D01*
X18415000Y-10795000D02*
X18415000Y-12065000D01*
X18415000Y-12065000D02*
X17780000Y-12700000D01*
X21570000Y-10025000D02*
X19185000Y-10025000D01*
X43180000Y-27940000D02*
X41275000Y-26035000D01*
X43180000Y-33345000D02*
X43180000Y-27940000D01*
%TO.N,/ESP_RST*%
X28479511Y-4984511D02*
X27305000Y-3810000D01*
X34785000Y-15735000D02*
X36385000Y-17335000D01*
X41760000Y-7870000D02*
X40295000Y-9335000D01*
X27305000Y-3810000D02*
X26035000Y-5080000D01*
X34740489Y-679511D02*
X34785000Y-635000D01*
X9144000Y-7366000D02*
X7803000Y-6025000D01*
X26035000Y-5080000D02*
X20115978Y-5080000D01*
X34785000Y-6210000D02*
X34785000Y-4940000D01*
X41760000Y-7165000D02*
X41760000Y-7870000D01*
X19558000Y-7366000D02*
X9144000Y-7366000D01*
X19812000Y-5383978D02*
X19812000Y-7112000D01*
X34740489Y-4984511D02*
X28479511Y-4984511D01*
X19812000Y-7112000D02*
X19558000Y-7366000D01*
X20115978Y-5080000D02*
X19812000Y-5383978D01*
X40295000Y-17335000D02*
X40295000Y-9335000D01*
X34740489Y-4984511D02*
X34740489Y-679511D01*
X36385000Y-17335000D02*
X40295000Y-17335000D01*
X7803000Y-6025000D02*
X6370000Y-6025000D01*
X34785000Y-6210000D02*
X34785000Y-15735000D01*
X34785000Y-4940000D02*
X34740489Y-4984511D01*
%TO.N,Net-(D1-Pad2)*%
X12217500Y-26670000D02*
X12217500Y-24802500D01*
X12217500Y-24802500D02*
X12255000Y-24765000D01*
%TO.N,/Analog_In*%
X3810000Y-4255000D02*
X1465000Y-4255000D01*
X1465000Y-4255000D02*
X-1270000Y-6990000D01*
%TO.N,/ESP_ADC*%
X4485000Y-8025000D02*
X6370000Y-8025000D01*
X3810000Y-8700000D02*
X4485000Y-8025000D01*
X3810000Y-8700000D02*
X3810000Y-5905000D01*
%TD*%
%TA.AperFunction,Conductor*%
%TO.N,GND*%
G36*
X4768121Y3281998D02*
G01*
X4814614Y3228342D01*
X4826000Y3176000D01*
X4826000Y-3489790D01*
X4805998Y-3557911D01*
X4752342Y-3604404D01*
X4682068Y-3614508D01*
X4617488Y-3585014D01*
X4610905Y-3578885D01*
X4525381Y-3493361D01*
X4378699Y-3404528D01*
X4371452Y-3402257D01*
X4371450Y-3402256D01*
X4302268Y-3380576D01*
X4215062Y-3353247D01*
X4141635Y-3346500D01*
X4138737Y-3346500D01*
X3809140Y-3346501D01*
X3478366Y-3346501D01*
X3475508Y-3346764D01*
X3475499Y-3346764D01*
X3439996Y-3350026D01*
X3404938Y-3353247D01*
X3398560Y-3355246D01*
X3398559Y-3355246D01*
X3248550Y-3402256D01*
X3248548Y-3402257D01*
X3241301Y-3404528D01*
X3094619Y-3493361D01*
X3003385Y-3584595D01*
X2941073Y-3618621D01*
X2914290Y-3621500D01*
X1543767Y-3621500D01*
X1532584Y-3620973D01*
X1525091Y-3619298D01*
X1517165Y-3619547D01*
X1517164Y-3619547D01*
X1457014Y-3621438D01*
X1453055Y-3621500D01*
X1425144Y-3621500D01*
X1421210Y-3621997D01*
X1421209Y-3621997D01*
X1421144Y-3622005D01*
X1409307Y-3622938D01*
X1377490Y-3623938D01*
X1373029Y-3624078D01*
X1365110Y-3624327D01*
X1347454Y-3629456D01*
X1345658Y-3629978D01*
X1326306Y-3633986D01*
X1319235Y-3634880D01*
X1306203Y-3636526D01*
X1298834Y-3639443D01*
X1298832Y-3639444D01*
X1265097Y-3652800D01*
X1253869Y-3656645D01*
X1211407Y-3668982D01*
X1204584Y-3673017D01*
X1204582Y-3673018D01*
X1193972Y-3679293D01*
X1176224Y-3687988D01*
X1157383Y-3695448D01*
X1150967Y-3700110D01*
X1150966Y-3700110D01*
X1121613Y-3721436D01*
X1111693Y-3727952D01*
X1080465Y-3746420D01*
X1080462Y-3746422D01*
X1073638Y-3750458D01*
X1059317Y-3764779D01*
X1044284Y-3777619D01*
X1027893Y-3789528D01*
X1022842Y-3795634D01*
X999702Y-3823605D01*
X991712Y-3832384D01*
X-812655Y-5636750D01*
X-874967Y-5670776D01*
X-923846Y-5671702D01*
X-1136627Y-5633800D01*
X-1136633Y-5633799D01*
X-1141716Y-5632894D01*
X-1215548Y-5631992D01*
X-1359919Y-5630228D01*
X-1359921Y-5630228D01*
X-1365089Y-5630165D01*
X-1585909Y-5663955D01*
X-1798244Y-5733357D01*
X-1996393Y-5836507D01*
X-2000526Y-5839610D01*
X-2000529Y-5839612D01*
X-2102211Y-5915957D01*
X-2175035Y-5970635D01*
X-2178607Y-5974373D01*
X-2279617Y-6080074D01*
X-2329371Y-6132138D01*
X-2332285Y-6136410D01*
X-2332286Y-6136411D01*
X-2370134Y-6191894D01*
X-2455257Y-6316680D01*
X-2472285Y-6353364D01*
X-2520529Y-6457298D01*
X-2549312Y-6519305D01*
X-2609011Y-6734570D01*
X-2632749Y-6956695D01*
X-2632452Y-6961848D01*
X-2632452Y-6961851D01*
X-2620188Y-7174547D01*
X-2619890Y-7179715D01*
X-2618753Y-7184761D01*
X-2618752Y-7184767D01*
X-2606949Y-7237137D01*
X-2570778Y-7397639D01*
X-2532539Y-7491811D01*
X-2500308Y-7571186D01*
X-2486734Y-7604616D01*
X-2460983Y-7646638D01*
X-2396355Y-7752101D01*
X-2370013Y-7795088D01*
X-2223750Y-7963938D01*
X-2219775Y-7967238D01*
X-2219769Y-7967244D01*
X-2214575Y-7971556D01*
X-2174941Y-8030460D01*
X-2173445Y-8101441D01*
X-2210561Y-8161962D01*
X-2250832Y-8186480D01*
X-2358054Y-8226676D01*
X-2373649Y-8235214D01*
X-2475724Y-8311715D01*
X-2488285Y-8324276D01*
X-2564786Y-8426351D01*
X-2573324Y-8441946D01*
X-2618478Y-8562394D01*
X-2622105Y-8577649D01*
X-2627631Y-8628514D01*
X-2628000Y-8635328D01*
X-2628000Y-9257885D01*
X-2623525Y-9273124D01*
X-2622135Y-9274329D01*
X-2614452Y-9276000D01*
X69884Y-9276000D01*
X85123Y-9271525D01*
X86328Y-9270135D01*
X87999Y-9262452D01*
X87999Y-8635331D01*
X87629Y-8628510D01*
X82105Y-8577648D01*
X78479Y-8562396D01*
X33324Y-8441946D01*
X24786Y-8426351D01*
X-51715Y-8324276D01*
X-64276Y-8311715D01*
X-166351Y-8235214D01*
X-181946Y-8226676D01*
X-292187Y-8185348D01*
X-348951Y-8142706D01*
X-373651Y-8076145D01*
X-358443Y-8006796D01*
X-336896Y-7978115D01*
X-235570Y-7877144D01*
X-235560Y-7877132D01*
X-231904Y-7873489D01*
X-172406Y-7790689D01*
X-104847Y-7696669D01*
X-101547Y-7692077D01*
X-66812Y-7621797D01*
X-4864Y-7496453D01*
X-4863Y-7496451D01*
X-2570Y-7491811D01*
X62370Y-7278069D01*
X91529Y-7056590D01*
X91611Y-7053240D01*
X93074Y-6993365D01*
X93074Y-6993361D01*
X93156Y-6990000D01*
X74852Y-6767361D01*
X46821Y-6655765D01*
X49625Y-6584823D01*
X79930Y-6535974D01*
X880158Y-5735747D01*
X1690500Y-4925405D01*
X1752812Y-4891379D01*
X1779595Y-4888500D01*
X2914290Y-4888500D01*
X2982411Y-4908502D01*
X3003385Y-4925405D01*
X3068885Y-4990905D01*
X3102911Y-5053217D01*
X3097846Y-5124032D01*
X3068885Y-5169095D01*
X2973361Y-5264619D01*
X2884528Y-5411301D01*
X2833247Y-5574938D01*
X2826500Y-5648365D01*
X2826501Y-6161634D01*
X2826764Y-6164492D01*
X2826764Y-6164501D01*
X2828636Y-6184876D01*
X2833247Y-6235062D01*
X2835246Y-6241440D01*
X2835246Y-6241441D01*
X2869267Y-6350000D01*
X2884528Y-6398699D01*
X2973361Y-6545381D01*
X3094619Y-6666639D01*
X3101120Y-6670576D01*
X3115771Y-6679449D01*
X3163678Y-6731846D01*
X3176500Y-6787225D01*
X3176500Y-7817775D01*
X3156498Y-7885896D01*
X3115771Y-7925551D01*
X3094619Y-7938361D01*
X2973361Y-8059619D01*
X2884528Y-8206301D01*
X2882257Y-8213548D01*
X2882256Y-8213550D01*
X2862199Y-8277551D01*
X2833247Y-8369938D01*
X2826500Y-8443365D01*
X2826501Y-8956634D01*
X2826764Y-8959492D01*
X2826764Y-8959501D01*
X2829153Y-8985500D01*
X2833247Y-9030062D01*
X2884528Y-9193699D01*
X2973361Y-9340381D01*
X3069239Y-9436259D01*
X3103265Y-9498571D01*
X3098200Y-9569386D01*
X3069239Y-9614449D01*
X2979131Y-9704557D01*
X2969824Y-9716426D01*
X2888921Y-9850012D01*
X2882715Y-9863757D01*
X2835744Y-10013644D01*
X2833131Y-10026694D01*
X2828087Y-10081586D01*
X2831475Y-10093124D01*
X2832865Y-10094329D01*
X2840548Y-10096000D01*
X3938000Y-10096000D01*
X4006121Y-10116002D01*
X4052614Y-10169658D01*
X4064000Y-10222000D01*
X4064000Y-10478000D01*
X4043998Y-10546121D01*
X3990342Y-10592614D01*
X3938000Y-10604000D01*
X2845116Y-10604000D01*
X2829877Y-10608475D01*
X2828672Y-10609865D01*
X2827709Y-10614294D01*
X2833132Y-10673315D01*
X2835743Y-10686351D01*
X2882715Y-10836243D01*
X2888921Y-10849988D01*
X2969824Y-10983574D01*
X2979131Y-10995443D01*
X3089557Y-11105869D01*
X3101426Y-11115176D01*
X3235012Y-11196079D01*
X3248757Y-11202285D01*
X3398644Y-11249256D01*
X3411694Y-11251869D01*
X3475521Y-11257734D01*
X3481309Y-11258000D01*
X3537883Y-11258000D01*
X3606004Y-11278002D01*
X3652497Y-11331658D01*
X3662601Y-11401932D01*
X3633107Y-11466512D01*
X3626978Y-11473095D01*
X3532826Y-11567247D01*
X3470514Y-11601273D01*
X3455258Y-11603624D01*
X3404938Y-11608247D01*
X3398560Y-11610246D01*
X3398559Y-11610246D01*
X3248550Y-11657256D01*
X3248548Y-11657257D01*
X3241301Y-11659528D01*
X3094619Y-11748361D01*
X2973361Y-11869619D01*
X2884528Y-12016301D01*
X2882257Y-12023548D01*
X2882256Y-12023550D01*
X2864276Y-12080925D01*
X2833247Y-12179938D01*
X2826500Y-12253365D01*
X2826501Y-12766634D01*
X2826764Y-12769492D01*
X2826764Y-12769501D01*
X2827627Y-12778891D01*
X2833247Y-12840062D01*
X2884528Y-13003699D01*
X2973361Y-13150381D01*
X3068885Y-13245905D01*
X3102911Y-13308217D01*
X3097846Y-13379032D01*
X3068885Y-13424095D01*
X2973361Y-13519619D01*
X2884528Y-13666301D01*
X2833247Y-13829938D01*
X2826500Y-13903365D01*
X2826501Y-14416634D01*
X2826764Y-14419492D01*
X2826764Y-14419501D01*
X2830026Y-14455004D01*
X2833247Y-14490062D01*
X2835246Y-14496440D01*
X2835246Y-14496441D01*
X2873094Y-14617212D01*
X2884528Y-14653699D01*
X2973361Y-14800381D01*
X3094619Y-14921639D01*
X3101120Y-14925576D01*
X3115771Y-14934449D01*
X3163678Y-14986846D01*
X3176500Y-15042225D01*
X3176500Y-17785255D01*
X3175973Y-17796438D01*
X3174298Y-17803931D01*
X3174547Y-17811857D01*
X3174547Y-17811858D01*
X3176438Y-17872008D01*
X3176500Y-17875967D01*
X3176500Y-17903878D01*
X3176997Y-17907812D01*
X3176997Y-17907813D01*
X3177005Y-17907878D01*
X3177938Y-17919715D01*
X3179327Y-17963911D01*
X3184978Y-17983361D01*
X3188987Y-18002722D01*
X3191526Y-18022819D01*
X3194445Y-18030190D01*
X3194445Y-18030192D01*
X3207804Y-18063934D01*
X3211649Y-18075164D01*
X3221443Y-18108876D01*
X3223982Y-18117615D01*
X3228015Y-18124434D01*
X3228017Y-18124439D01*
X3234293Y-18135050D01*
X3242988Y-18152798D01*
X3250448Y-18171639D01*
X3255110Y-18178055D01*
X3255110Y-18178056D01*
X3276436Y-18207409D01*
X3282952Y-18217329D01*
X3299504Y-18245316D01*
X3305458Y-18255384D01*
X3319779Y-18269705D01*
X3332619Y-18284738D01*
X3344528Y-18301129D01*
X3378605Y-18329320D01*
X3387384Y-18337310D01*
X4574595Y-19524521D01*
X4608621Y-19586833D01*
X4611500Y-19613616D01*
X4611500Y-20573134D01*
X4618255Y-20635316D01*
X4669385Y-20771705D01*
X4756739Y-20888261D01*
X4873295Y-20975615D01*
X5009684Y-21026745D01*
X5071866Y-21033500D01*
X5235500Y-21033500D01*
X5303621Y-21053502D01*
X5350114Y-21107158D01*
X5361500Y-21159500D01*
X5361500Y-23020500D01*
X5341498Y-23088621D01*
X5287842Y-23135114D01*
X5235500Y-23146500D01*
X3794493Y-23146500D01*
X3726372Y-23126498D01*
X3679879Y-23072842D01*
X3672457Y-23051237D01*
X3671745Y-23044684D01*
X3668972Y-23037285D01*
X3623767Y-22916703D01*
X3620615Y-22908295D01*
X3533261Y-22791739D01*
X3416705Y-22704385D01*
X3280316Y-22653255D01*
X3218134Y-22646500D01*
X2404500Y-22646500D01*
X2336379Y-22626498D01*
X2289886Y-22572842D01*
X2278500Y-22520500D01*
X2278500Y-21651850D01*
X2279237Y-21638242D01*
X2282659Y-21606739D01*
X2283325Y-21600612D01*
X2278947Y-21550570D01*
X2278621Y-21545788D01*
X2278500Y-21543310D01*
X2278500Y-21540231D01*
X2278201Y-21537177D01*
X2278200Y-21537166D01*
X2274313Y-21497529D01*
X2274191Y-21496215D01*
X2266623Y-21409718D01*
X2266087Y-21403587D01*
X2264600Y-21398468D01*
X2264080Y-21393167D01*
X2237209Y-21304166D01*
X2236874Y-21303033D01*
X2212630Y-21219586D01*
X2212628Y-21219582D01*
X2210909Y-21213664D01*
X2208456Y-21208932D01*
X2206916Y-21203831D01*
X2204022Y-21198388D01*
X2163269Y-21121740D01*
X2162657Y-21120574D01*
X2122729Y-21043547D01*
X2119892Y-21038074D01*
X2116569Y-21033911D01*
X2114066Y-21029204D01*
X2106113Y-21019452D01*
X2055261Y-20957102D01*
X2054433Y-20956075D01*
X2025469Y-20919792D01*
X2025464Y-20919787D01*
X2023262Y-20917028D01*
X2020761Y-20914527D01*
X2020119Y-20913809D01*
X2016406Y-20909461D01*
X1999115Y-20888261D01*
X1989065Y-20875938D01*
X1984323Y-20872015D01*
X1984321Y-20872013D01*
X1953727Y-20846703D01*
X1944947Y-20838713D01*
X1391855Y-20285621D01*
X1382753Y-20275478D01*
X1362897Y-20250782D01*
X1359032Y-20245975D01*
X1320578Y-20213708D01*
X1316931Y-20210528D01*
X1315119Y-20208885D01*
X1312925Y-20206691D01*
X1279651Y-20179358D01*
X1278853Y-20178696D01*
X1207526Y-20118846D01*
X1202856Y-20116278D01*
X1198739Y-20112897D01*
X1140855Y-20081860D01*
X1116914Y-20069023D01*
X1115755Y-20068394D01*
X1039619Y-20026538D01*
X1039611Y-20026535D01*
X1034213Y-20023567D01*
X1029131Y-20021955D01*
X1024437Y-20019438D01*
X935469Y-19992238D01*
X934441Y-19991918D01*
X845694Y-19963765D01*
X840398Y-19963171D01*
X835302Y-19961613D01*
X742743Y-19952210D01*
X741607Y-19952089D01*
X707992Y-19948319D01*
X695270Y-19946892D01*
X695266Y-19946892D01*
X691773Y-19946500D01*
X688246Y-19946500D01*
X687261Y-19946445D01*
X681581Y-19945998D01*
X652175Y-19943011D01*
X644663Y-19942248D01*
X644661Y-19942248D01*
X638538Y-19941626D01*
X596259Y-19945623D01*
X592891Y-19945941D01*
X581033Y-19946500D01*
X151009Y-19946500D01*
X82888Y-19926498D01*
X36395Y-19872842D01*
X34097Y-19867306D01*
X33767Y-19866703D01*
X30615Y-19858295D01*
X-56739Y-19741739D01*
X-173295Y-19654385D01*
X-193029Y-19646987D01*
X-291797Y-19609960D01*
X-348561Y-19567318D01*
X-373261Y-19500756D01*
X-358053Y-19431408D01*
X-336507Y-19402727D01*
X-241925Y-19308475D01*
X-231904Y-19298489D01*
X-223609Y-19286946D01*
X-104565Y-19121277D01*
X-101547Y-19117077D01*
X-31632Y-18975615D01*
X-4864Y-18921453D01*
X-4863Y-18921451D01*
X-2570Y-18916811D01*
X44071Y-18763297D01*
X60865Y-18708023D01*
X60865Y-18708021D01*
X62370Y-18703069D01*
X91529Y-18481590D01*
X93156Y-18415000D01*
X74852Y-18192361D01*
X20431Y-17975702D01*
X-68646Y-17770840D01*
X-108094Y-17709862D01*
X-187178Y-17587617D01*
X-187180Y-17587614D01*
X-189986Y-17583277D01*
X-340330Y-17418051D01*
X-344381Y-17414852D01*
X-344385Y-17414848D01*
X-511586Y-17282800D01*
X-511590Y-17282798D01*
X-515641Y-17279598D01*
X-520276Y-17277039D01*
X-542788Y-17264612D01*
X-557431Y-17256529D01*
X-607402Y-17206097D01*
X-622174Y-17136654D01*
X-597058Y-17070248D01*
X-569706Y-17043641D01*
X-394672Y-16918792D01*
X-386800Y-16912139D01*
X-235948Y-16761812D01*
X-229270Y-16753965D01*
X-104997Y-16581020D01*
X-99687Y-16572183D01*
X-5330Y-16381267D01*
X-1531Y-16371672D01*
X60377Y-16167910D01*
X62555Y-16157837D01*
X63986Y-16146962D01*
X61775Y-16132778D01*
X48617Y-16129000D01*
X-2586775Y-16129000D01*
X-2600306Y-16132973D01*
X-2601743Y-16142966D01*
X-2571435Y-16277446D01*
X-2568355Y-16287275D01*
X-2488230Y-16484603D01*
X-2483587Y-16493794D01*
X-2372306Y-16675388D01*
X-2366223Y-16683699D01*
X-2226787Y-16844667D01*
X-2219420Y-16851883D01*
X-2055566Y-16987916D01*
X-2047119Y-16993831D01*
X-1978031Y-17034203D01*
X-1929307Y-17085842D01*
X-1916236Y-17155625D01*
X-1942967Y-17221396D01*
X-1983416Y-17254752D01*
X-1996393Y-17261507D01*
X-2000526Y-17264610D01*
X-2000529Y-17264612D01*
X-2170900Y-17392530D01*
X-2175035Y-17395635D01*
X-2329371Y-17557138D01*
X-2332285Y-17561410D01*
X-2332286Y-17561411D01*
X-2355107Y-17594865D01*
X-2455257Y-17741680D01*
X-2470997Y-17775590D01*
X-2545549Y-17936199D01*
X-2549312Y-17944305D01*
X-2609011Y-18159570D01*
X-2632749Y-18381695D01*
X-2632452Y-18386848D01*
X-2632452Y-18386851D01*
X-2627006Y-18481301D01*
X-2619890Y-18604715D01*
X-2618753Y-18609761D01*
X-2618752Y-18609767D01*
X-2609305Y-18651685D01*
X-2570778Y-18822639D01*
X-2509327Y-18973976D01*
X-2497922Y-19002062D01*
X-2486734Y-19029616D01*
X-2370013Y-19220088D01*
X-2223750Y-19388938D01*
X-2219770Y-19392242D01*
X-2215019Y-19396187D01*
X-2175384Y-19455090D01*
X-2173887Y-19526071D01*
X-2211003Y-19586593D01*
X-2251276Y-19611112D01*
X-2366705Y-19654385D01*
X-2483261Y-19741739D01*
X-2570615Y-19858295D01*
X-2621745Y-19994684D01*
X-2628500Y-20056866D01*
X-2628500Y-21853134D01*
X-2621745Y-21915316D01*
X-2570615Y-22051705D01*
X-2483261Y-22168261D01*
X-2366705Y-22255615D01*
X-2230316Y-22306745D01*
X-2168134Y-22313500D01*
X-371866Y-22313500D01*
X-309684Y-22306745D01*
X-173295Y-22255615D01*
X-56739Y-22168261D01*
X30615Y-22051705D01*
X31771Y-22052571D01*
X75237Y-22009202D01*
X144628Y-21994187D01*
X211120Y-22019071D01*
X253604Y-22075954D01*
X261500Y-22119856D01*
X261500Y-22520500D01*
X241498Y-22588621D01*
X187842Y-22635114D01*
X135500Y-22646500D01*
X-678134Y-22646500D01*
X-740316Y-22653255D01*
X-876705Y-22704385D01*
X-993261Y-22791739D01*
X-1080615Y-22908295D01*
X-1131745Y-23044684D01*
X-1138500Y-23106866D01*
X-1138500Y-25203134D01*
X-1131745Y-25265316D01*
X-1080615Y-25401705D01*
X-993261Y-25518261D01*
X-876705Y-25605615D01*
X-740316Y-25656745D01*
X-678134Y-25663500D01*
X135500Y-25663500D01*
X203621Y-25683502D01*
X250114Y-25737158D01*
X261500Y-25789500D01*
X261500Y-28950198D01*
X241498Y-29018319D01*
X211068Y-29051021D01*
X195145Y-29062955D01*
X128641Y-29087801D01*
X59259Y-29072748D01*
X44018Y-29062953D01*
X-26352Y-29010214D01*
X-41946Y-29001676D01*
X-162394Y-28956522D01*
X-177649Y-28952895D01*
X-228514Y-28947369D01*
X-235328Y-28947000D01*
X-757885Y-28947000D01*
X-773124Y-28951475D01*
X-774329Y-28952865D01*
X-776000Y-28960548D01*
X-776000Y-30583000D01*
X-796002Y-30651121D01*
X-849658Y-30697614D01*
X-902000Y-30709000D01*
X-2269884Y-30709000D01*
X-2285123Y-30713475D01*
X-2286328Y-30714865D01*
X-2287999Y-30722548D01*
X-2287999Y-31499669D01*
X-2287629Y-31506490D01*
X-2282105Y-31557352D01*
X-2278479Y-31572604D01*
X-2233324Y-31693054D01*
X-2224786Y-31708649D01*
X-2148285Y-31810724D01*
X-2135724Y-31823285D01*
X-2033649Y-31899786D01*
X-2018054Y-31908324D01*
X-1897606Y-31953478D01*
X-1882351Y-31957105D01*
X-1831486Y-31962631D01*
X-1824672Y-31963000D01*
X-1368182Y-31963000D01*
X-1300061Y-31983002D01*
X-1253568Y-32036658D01*
X-1243464Y-32106932D01*
X-1248589Y-32128667D01*
X-1275137Y-32208707D01*
X-1278005Y-32222086D01*
X-1287672Y-32316438D01*
X-1288000Y-32322855D01*
X-1288000Y-32747885D01*
X-1283525Y-32763124D01*
X-1282135Y-32764329D01*
X-1274452Y-32766000D01*
X859884Y-32766000D01*
X875123Y-32761525D01*
X876328Y-32760135D01*
X877999Y-32752452D01*
X877999Y-32322905D01*
X877662Y-32316386D01*
X867743Y-32220794D01*
X864850Y-32207397D01*
X838821Y-32129375D01*
X836237Y-32058426D01*
X872421Y-31997342D01*
X935886Y-31965518D01*
X958345Y-31963500D01*
X1581125Y-31963500D01*
X1649246Y-31983502D01*
X1695739Y-32037158D01*
X1705843Y-32107432D01*
X1700718Y-32129166D01*
X1679011Y-32194612D01*
X1672203Y-32215139D01*
X1671503Y-32221975D01*
X1671502Y-32221978D01*
X1668091Y-32255275D01*
X1661500Y-32319600D01*
X1661500Y-33720400D01*
X1661837Y-33723646D01*
X1661837Y-33723650D01*
X1671752Y-33819206D01*
X1672474Y-33826166D01*
X1674655Y-33832702D01*
X1674655Y-33832704D01*
X1690216Y-33879346D01*
X1728450Y-33993946D01*
X1821522Y-34144348D01*
X1946697Y-34269305D01*
X1952927Y-34273145D01*
X1952928Y-34273146D01*
X2090288Y-34357816D01*
X2097262Y-34362115D01*
X2157123Y-34381970D01*
X2258611Y-34415632D01*
X2258613Y-34415632D01*
X2265139Y-34417797D01*
X2271975Y-34418497D01*
X2271978Y-34418498D01*
X2315031Y-34422909D01*
X2369600Y-34428500D01*
X3120400Y-34428500D01*
X3123646Y-34428163D01*
X3123650Y-34428163D01*
X3219308Y-34418238D01*
X3219312Y-34418237D01*
X3226166Y-34417526D01*
X3232702Y-34415345D01*
X3232704Y-34415345D01*
X3364806Y-34371272D01*
X3393946Y-34361550D01*
X3513798Y-34287383D01*
X3582250Y-34268545D01*
X3650020Y-34289706D01*
X3669196Y-34305431D01*
X4174595Y-34810829D01*
X4208620Y-34873142D01*
X4211500Y-34899925D01*
X4211500Y-35103140D01*
X4191498Y-35171261D01*
X4137842Y-35217754D01*
X4067568Y-35227858D01*
X4057986Y-35225600D01*
X4057911Y-35225951D01*
X4037810Y-35221642D01*
X3946903Y-35212328D01*
X3941874Y-35212071D01*
X3926876Y-35216475D01*
X3925671Y-35217865D01*
X3924000Y-35225548D01*
X3924000Y-37159885D01*
X3928475Y-37175124D01*
X3929865Y-37176329D01*
X3937548Y-37178000D01*
X3940438Y-37178000D01*
X3946953Y-37177663D01*
X4039057Y-37168106D01*
X4052456Y-37165212D01*
X4201107Y-37115619D01*
X4214286Y-37109445D01*
X4347173Y-37027212D01*
X4364311Y-37013629D01*
X4365841Y-37015559D01*
X4417880Y-36987097D01*
X4488699Y-36992113D01*
X4525617Y-37015799D01*
X4526372Y-37014843D01*
X4532118Y-37019381D01*
X4537298Y-37024552D01*
X4543528Y-37028392D01*
X4543529Y-37028393D01*
X4675020Y-37109445D01*
X4682899Y-37114302D01*
X4845243Y-37168149D01*
X4852080Y-37168849D01*
X4852082Y-37168850D01*
X4893401Y-37173083D01*
X4946268Y-37178500D01*
X4965417Y-37178500D01*
X4997328Y-37183440D01*
X4997402Y-37183090D01*
X5003431Y-37184371D01*
X5009306Y-37186235D01*
X5012837Y-37186631D01*
X5016232Y-37187682D01*
X5110707Y-37197611D01*
X5111421Y-37197689D01*
X5163227Y-37203500D01*
X5165800Y-37203500D01*
X5169776Y-37203820D01*
X5206796Y-37207711D01*
X5206798Y-37207711D01*
X5212925Y-37208355D01*
X5260570Y-37204019D01*
X5271990Y-37203500D01*
X11595074Y-37203500D01*
X11663195Y-37223502D01*
X11684169Y-37240404D01*
X11864117Y-37420351D01*
X11898142Y-37482663D01*
X11893721Y-37551714D01*
X11839736Y-37703320D01*
X11839735Y-37703325D01*
X11837374Y-37709955D01*
X11816561Y-37884496D01*
X11834935Y-38059310D01*
X11837204Y-38065976D01*
X11837205Y-38065979D01*
X11881894Y-38197250D01*
X11891582Y-38225709D01*
X11895272Y-38231707D01*
X11895273Y-38231709D01*
X11979994Y-38369421D01*
X11979997Y-38369424D01*
X11983687Y-38375423D01*
X12106671Y-38501011D01*
X12112599Y-38504831D01*
X12118051Y-38509278D01*
X12116448Y-38511243D01*
X12155203Y-38556073D01*
X12165227Y-38626358D01*
X12135660Y-38690905D01*
X12116096Y-38709109D01*
X12105566Y-38717001D01*
X12039060Y-38741850D01*
X11969677Y-38726798D01*
X11954435Y-38717002D01*
X11858648Y-38645214D01*
X11843054Y-38636676D01*
X11722606Y-38591522D01*
X11707351Y-38587895D01*
X11656486Y-38582369D01*
X11649672Y-38582000D01*
X10927115Y-38582000D01*
X10911876Y-38586475D01*
X10910671Y-38587865D01*
X10909000Y-38595548D01*
X10909000Y-39767885D01*
X10913475Y-39783124D01*
X10914865Y-39784329D01*
X10922548Y-39786000D01*
X15532885Y-39786000D01*
X15548124Y-39781525D01*
X15549329Y-39780135D01*
X15551000Y-39772452D01*
X15551000Y-38668000D01*
X15571002Y-38599879D01*
X15624658Y-38553386D01*
X15677000Y-38542000D01*
X15686885Y-38542000D01*
X15702124Y-38537525D01*
X15703329Y-38536135D01*
X15705495Y-38526177D01*
X15739520Y-38463865D01*
X15753050Y-38452134D01*
X15773589Y-38436741D01*
X15818261Y-38403261D01*
X15823642Y-38396081D01*
X15824690Y-38395033D01*
X15887002Y-38361007D01*
X15957817Y-38366072D01*
X16003807Y-38395969D01*
X16043734Y-38436741D01*
X16077104Y-38499407D01*
X16071297Y-38570166D01*
X16062719Y-38584452D01*
X16059000Y-38601548D01*
X16059000Y-39767885D01*
X16063475Y-39783124D01*
X16064865Y-39784329D01*
X16072548Y-39786000D01*
X18282885Y-39786000D01*
X18298124Y-39781525D01*
X18299329Y-39780135D01*
X18301000Y-39772452D01*
X18301000Y-39767885D01*
X18809000Y-39767885D01*
X18813475Y-39783124D01*
X18814865Y-39784329D01*
X18822548Y-39786000D01*
X19994884Y-39786000D01*
X20010123Y-39781525D01*
X20011328Y-39780135D01*
X20012999Y-39772452D01*
X20012999Y-39045331D01*
X20012629Y-39038510D01*
X20007105Y-38987648D01*
X20003479Y-38972396D01*
X19958324Y-38851946D01*
X19949786Y-38836351D01*
X19873285Y-38734276D01*
X19860724Y-38721715D01*
X19758649Y-38645214D01*
X19743054Y-38636676D01*
X19622606Y-38591522D01*
X19607351Y-38587895D01*
X19556486Y-38582369D01*
X19549672Y-38582000D01*
X18827115Y-38582000D01*
X18811876Y-38586475D01*
X18810671Y-38587865D01*
X18809000Y-38595548D01*
X18809000Y-39767885D01*
X18301000Y-39767885D01*
X18301000Y-38600116D01*
X18296525Y-38584877D01*
X18295135Y-38583672D01*
X18287452Y-38582001D01*
X17560331Y-38582001D01*
X17553510Y-38582371D01*
X17502648Y-38587895D01*
X17487396Y-38591521D01*
X17366946Y-38636676D01*
X17351352Y-38645214D01*
X17255565Y-38717002D01*
X17189059Y-38741850D01*
X17119676Y-38726797D01*
X17104433Y-38717000D01*
X17094018Y-38709194D01*
X17051504Y-38652334D01*
X17046480Y-38581515D01*
X17080541Y-38519223D01*
X17089713Y-38511056D01*
X17094749Y-38507909D01*
X17101696Y-38501011D01*
X17214478Y-38389013D01*
X17219475Y-38384051D01*
X17224951Y-38375423D01*
X17309882Y-38241591D01*
X17313661Y-38235637D01*
X17372626Y-38070045D01*
X17393439Y-37895504D01*
X17375065Y-37720690D01*
X17372795Y-37714021D01*
X17320687Y-37560955D01*
X17320686Y-37560952D01*
X17318418Y-37554291D01*
X17247204Y-37438534D01*
X17230006Y-37410579D01*
X17230003Y-37410576D01*
X17226313Y-37404577D01*
X17103329Y-37278989D01*
X16955576Y-37183769D01*
X16948953Y-37181358D01*
X16948950Y-37181357D01*
X16797023Y-37126060D01*
X16797018Y-37126059D01*
X16790400Y-37123650D01*
X16752033Y-37118803D01*
X16723206Y-37115161D01*
X16658130Y-37086779D01*
X16618729Y-37027719D01*
X16612999Y-36990155D01*
X16612999Y-36645331D01*
X16612629Y-36638510D01*
X16607105Y-36587648D01*
X16603479Y-36572396D01*
X16558324Y-36451946D01*
X16549786Y-36436351D01*
X16473285Y-36334276D01*
X16460724Y-36321715D01*
X16358649Y-36245214D01*
X16343054Y-36236676D01*
X16222606Y-36191522D01*
X16207351Y-36187895D01*
X16156486Y-36182369D01*
X16149672Y-36182000D01*
X16123115Y-36182000D01*
X16107876Y-36186475D01*
X16106671Y-36187865D01*
X16105000Y-36195548D01*
X16105000Y-36331116D01*
X16084998Y-36399237D01*
X16031342Y-36445730D01*
X15961068Y-36455834D01*
X15896488Y-36426340D01*
X15878174Y-36406681D01*
X15856953Y-36378365D01*
X15818261Y-36326739D01*
X15754240Y-36278758D01*
X15711725Y-36221899D01*
X15708909Y-36213430D01*
X15700525Y-36184877D01*
X15699135Y-36183672D01*
X15691452Y-36182001D01*
X15660331Y-36182001D01*
X15653510Y-36182371D01*
X15594793Y-36188748D01*
X15594495Y-36186002D01*
X15565554Y-36186060D01*
X15565316Y-36188255D01*
X15506531Y-36181869D01*
X15503134Y-36181500D01*
X15006866Y-36181500D01*
X15003469Y-36181869D01*
X14967044Y-36185826D01*
X14944684Y-36188255D01*
X14944420Y-36185826D01*
X14915580Y-36185826D01*
X14915316Y-36188255D01*
X14856531Y-36181869D01*
X14853134Y-36181500D01*
X14356866Y-36181500D01*
X14353469Y-36181869D01*
X14317044Y-36185826D01*
X14294684Y-36188255D01*
X14294420Y-36185826D01*
X14265580Y-36185826D01*
X14265316Y-36188255D01*
X14206531Y-36181869D01*
X14203134Y-36181500D01*
X13706866Y-36181500D01*
X13703469Y-36181869D01*
X13667044Y-36185826D01*
X13644684Y-36188255D01*
X13644420Y-36185826D01*
X13615580Y-36185826D01*
X13615316Y-36188255D01*
X13556531Y-36181869D01*
X13553134Y-36181500D01*
X13529924Y-36181500D01*
X13461803Y-36161498D01*
X13440829Y-36144595D01*
X12821855Y-35525621D01*
X12812753Y-35515478D01*
X12792897Y-35490782D01*
X12789032Y-35485975D01*
X12750578Y-35453708D01*
X12746931Y-35450528D01*
X12745119Y-35448885D01*
X12742925Y-35446691D01*
X12709651Y-35419358D01*
X12708853Y-35418696D01*
X12637526Y-35358846D01*
X12632856Y-35356278D01*
X12628739Y-35352897D01*
X12546914Y-35309023D01*
X12545755Y-35308394D01*
X12469619Y-35266538D01*
X12469611Y-35266535D01*
X12464213Y-35263567D01*
X12459131Y-35261955D01*
X12454437Y-35259438D01*
X12365469Y-35232238D01*
X12364441Y-35231918D01*
X12275694Y-35203765D01*
X12270398Y-35203171D01*
X12265302Y-35201613D01*
X12172743Y-35192210D01*
X12171607Y-35192089D01*
X12137992Y-35188319D01*
X12125270Y-35186892D01*
X12125266Y-35186892D01*
X12121773Y-35186500D01*
X12118246Y-35186500D01*
X12117261Y-35186445D01*
X12111581Y-35185998D01*
X12082175Y-35183011D01*
X12074663Y-35182248D01*
X12074661Y-35182248D01*
X12068538Y-35181626D01*
X12026259Y-35185623D01*
X12022891Y-35185941D01*
X12011033Y-35186500D01*
X6354500Y-35186500D01*
X6286379Y-35166498D01*
X6239886Y-35112842D01*
X6228500Y-35060500D01*
X6228500Y-34491842D01*
X6229237Y-34478235D01*
X6232659Y-34446737D01*
X6232659Y-34446732D01*
X6233324Y-34440611D01*
X6231114Y-34415345D01*
X6228950Y-34390609D01*
X6228621Y-34385784D01*
X6228500Y-34383313D01*
X6228500Y-34380231D01*
X6225114Y-34345699D01*
X6224309Y-34337489D01*
X6224187Y-34336174D01*
X6220790Y-34297352D01*
X6216087Y-34243587D01*
X6214600Y-34238468D01*
X6214080Y-34233167D01*
X6187209Y-34144166D01*
X6186874Y-34143033D01*
X6162630Y-34059586D01*
X6162628Y-34059582D01*
X6160909Y-34053664D01*
X6158456Y-34048932D01*
X6156916Y-34043831D01*
X6136194Y-34004857D01*
X6113269Y-33961740D01*
X6112657Y-33960574D01*
X6072729Y-33883547D01*
X6069892Y-33878074D01*
X6066569Y-33873911D01*
X6064066Y-33869204D01*
X6005245Y-33797082D01*
X6004554Y-33796226D01*
X5973262Y-33757027D01*
X5970758Y-33754523D01*
X5970116Y-33753805D01*
X5966415Y-33749472D01*
X5939065Y-33715938D01*
X5903737Y-33686712D01*
X5894958Y-33678723D01*
X4610236Y-32394002D01*
X4576211Y-32331690D01*
X4574116Y-32290864D01*
X4578107Y-32255275D01*
X4578500Y-32251773D01*
X4578500Y-32248245D01*
X4578555Y-32247261D01*
X4579002Y-32241581D01*
X4583374Y-32198538D01*
X4579059Y-32152891D01*
X4578500Y-32141033D01*
X4578500Y-31959802D01*
X4598502Y-31891681D01*
X4628935Y-31858976D01*
X4676081Y-31823642D01*
X4683261Y-31818261D01*
X4770615Y-31701705D01*
X4821745Y-31565316D01*
X4828500Y-31503134D01*
X4828500Y-31397966D01*
X15813257Y-31397966D01*
X15843565Y-31532446D01*
X15846645Y-31542275D01*
X15926770Y-31739603D01*
X15931413Y-31748794D01*
X16042694Y-31930388D01*
X16048777Y-31938699D01*
X16188213Y-32099667D01*
X16195580Y-32106883D01*
X16359434Y-32242916D01*
X16367881Y-32248831D01*
X16551756Y-32356279D01*
X16561042Y-32360729D01*
X16760001Y-32436703D01*
X16769899Y-32439579D01*
X16873250Y-32460606D01*
X16887299Y-32459410D01*
X16891000Y-32449065D01*
X16891000Y-32448517D01*
X17399000Y-32448517D01*
X17403064Y-32462359D01*
X17416478Y-32464393D01*
X17423184Y-32463534D01*
X17433262Y-32461392D01*
X17637255Y-32400191D01*
X17646842Y-32396433D01*
X17838095Y-32302739D01*
X17846945Y-32297464D01*
X18020328Y-32173792D01*
X18028200Y-32167139D01*
X18179052Y-32016812D01*
X18185730Y-32008965D01*
X18310003Y-31836020D01*
X18315313Y-31827183D01*
X18409670Y-31636267D01*
X18413469Y-31626672D01*
X18475377Y-31422910D01*
X18477555Y-31412837D01*
X18478986Y-31401962D01*
X18476775Y-31387778D01*
X18463617Y-31384000D01*
X17417115Y-31384000D01*
X17401876Y-31388475D01*
X17400671Y-31389865D01*
X17399000Y-31397548D01*
X17399000Y-32448517D01*
X16891000Y-32448517D01*
X16891000Y-31402115D01*
X16886525Y-31386876D01*
X16885135Y-31385671D01*
X16877452Y-31384000D01*
X15828225Y-31384000D01*
X15814694Y-31387973D01*
X15813257Y-31397966D01*
X4828500Y-31397966D01*
X4828500Y-29406866D01*
X4821745Y-29344684D01*
X4770615Y-29208295D01*
X4683261Y-29091739D01*
X4566705Y-29004385D01*
X4430316Y-28953255D01*
X4368134Y-28946500D01*
X2771866Y-28946500D01*
X2709684Y-28953255D01*
X2573295Y-29004385D01*
X2495563Y-29062642D01*
X2429059Y-29087489D01*
X2359677Y-29072436D01*
X2344442Y-29062646D01*
X2328932Y-29051022D01*
X2286419Y-28994163D01*
X2278500Y-28950198D01*
X2278500Y-27882095D01*
X5577001Y-27882095D01*
X5577338Y-27888614D01*
X5587257Y-27984206D01*
X5590149Y-27997600D01*
X5641588Y-28151784D01*
X5647761Y-28164962D01*
X5733063Y-28302807D01*
X5742099Y-28314208D01*
X5856829Y-28428739D01*
X5868240Y-28437751D01*
X6006243Y-28522816D01*
X6019424Y-28528963D01*
X6173710Y-28580138D01*
X6187086Y-28583005D01*
X6281438Y-28592672D01*
X6287854Y-28593000D01*
X6712885Y-28593000D01*
X6728124Y-28588525D01*
X6729329Y-28587135D01*
X6731000Y-28579452D01*
X6731000Y-28574884D01*
X7239000Y-28574884D01*
X7243475Y-28590123D01*
X7244865Y-28591328D01*
X7252548Y-28592999D01*
X7682095Y-28592999D01*
X7688614Y-28592662D01*
X7784206Y-28582743D01*
X7797600Y-28579851D01*
X7951784Y-28528412D01*
X7964962Y-28522239D01*
X8102807Y-28436937D01*
X8114208Y-28427901D01*
X8228739Y-28313171D01*
X8237751Y-28301760D01*
X8322816Y-28163757D01*
X8328963Y-28150576D01*
X8380138Y-27996290D01*
X8383005Y-27982914D01*
X8392672Y-27888562D01*
X8393000Y-27882146D01*
X8393000Y-27782115D01*
X8388525Y-27766876D01*
X8387135Y-27765671D01*
X8379452Y-27764000D01*
X7257115Y-27764000D01*
X7241876Y-27768475D01*
X7240671Y-27769865D01*
X7239000Y-27777548D01*
X7239000Y-28574884D01*
X6731000Y-28574884D01*
X6731000Y-27782115D01*
X6726525Y-27766876D01*
X6725135Y-27765671D01*
X6717452Y-27764000D01*
X5595116Y-27764000D01*
X5579877Y-27768475D01*
X5578672Y-27769865D01*
X5577001Y-27777548D01*
X5577001Y-27882095D01*
X2278500Y-27882095D01*
X2278500Y-27237885D01*
X5577000Y-27237885D01*
X5581475Y-27253124D01*
X5582865Y-27254329D01*
X5590548Y-27256000D01*
X6712885Y-27256000D01*
X6728124Y-27251525D01*
X6729329Y-27250135D01*
X6731000Y-27242452D01*
X6731000Y-27237885D01*
X7239000Y-27237885D01*
X7243475Y-27253124D01*
X7244865Y-27254329D01*
X7252548Y-27256000D01*
X8374884Y-27256000D01*
X8390123Y-27251525D01*
X8391328Y-27250135D01*
X8392999Y-27242452D01*
X8392999Y-27137905D01*
X8392662Y-27131386D01*
X8382743Y-27035794D01*
X8379851Y-27022400D01*
X8362792Y-26971266D01*
X9697000Y-26971266D01*
X9697337Y-26977782D01*
X9706804Y-27069021D01*
X9709697Y-27082417D01*
X9758830Y-27229687D01*
X9765004Y-27242866D01*
X9846470Y-27374514D01*
X9855506Y-27385915D01*
X9965080Y-27495298D01*
X9976491Y-27504310D01*
X10108291Y-27585553D01*
X10121468Y-27591697D01*
X10268843Y-27640579D01*
X10282210Y-27643445D01*
X10371700Y-27652614D01*
X10385624Y-27648525D01*
X10386829Y-27647135D01*
X10388500Y-27639452D01*
X10388500Y-26942115D01*
X10384025Y-26926876D01*
X10382635Y-26925671D01*
X10374952Y-26924000D01*
X9715115Y-26924000D01*
X9699876Y-26928475D01*
X9698671Y-26929865D01*
X9697000Y-26937548D01*
X9697000Y-26971266D01*
X8362792Y-26971266D01*
X8328412Y-26868216D01*
X8322239Y-26855038D01*
X8236937Y-26717193D01*
X8227901Y-26705792D01*
X8113171Y-26591261D01*
X8101760Y-26582249D01*
X7963757Y-26497184D01*
X7950576Y-26491037D01*
X7796290Y-26439862D01*
X7782914Y-26436995D01*
X7688562Y-26427328D01*
X7682145Y-26427000D01*
X7257115Y-26427000D01*
X7241876Y-26431475D01*
X7240671Y-26432865D01*
X7239000Y-26440548D01*
X7239000Y-27237885D01*
X6731000Y-27237885D01*
X6731000Y-26445116D01*
X6726525Y-26429877D01*
X6725135Y-26428672D01*
X6717452Y-26427001D01*
X6287905Y-26427001D01*
X6281386Y-26427338D01*
X6185794Y-26437257D01*
X6172400Y-26440149D01*
X6018216Y-26491588D01*
X6005038Y-26497761D01*
X5867193Y-26583063D01*
X5855792Y-26592099D01*
X5741261Y-26706829D01*
X5732249Y-26718240D01*
X5647184Y-26856243D01*
X5641037Y-26869424D01*
X5589862Y-27023710D01*
X5586995Y-27037086D01*
X5577328Y-27131438D01*
X5577000Y-27137855D01*
X5577000Y-27237885D01*
X2278500Y-27237885D01*
X2278500Y-25789500D01*
X2298502Y-25721379D01*
X2352158Y-25674886D01*
X2404500Y-25663500D01*
X3218134Y-25663500D01*
X3280316Y-25656745D01*
X3416705Y-25605615D01*
X3533261Y-25518261D01*
X3620615Y-25401705D01*
X3662304Y-25290500D01*
X3668972Y-25272714D01*
X3668973Y-25272711D01*
X3671745Y-25265316D01*
X3672372Y-25259547D01*
X3707126Y-25198709D01*
X3770081Y-25165887D01*
X3794493Y-25163500D01*
X5545125Y-25163500D01*
X5613246Y-25183502D01*
X5652269Y-25223197D01*
X5736522Y-25359348D01*
X5861697Y-25484305D01*
X5867927Y-25488145D01*
X5867928Y-25488146D01*
X6005090Y-25572694D01*
X6012262Y-25577115D01*
X6069992Y-25596263D01*
X6173611Y-25630632D01*
X6173613Y-25630632D01*
X6180139Y-25632797D01*
X6186975Y-25633497D01*
X6186978Y-25633498D01*
X6226596Y-25637557D01*
X6284600Y-25643500D01*
X7685400Y-25643500D01*
X7688646Y-25643163D01*
X7688650Y-25643163D01*
X7784308Y-25633238D01*
X7784312Y-25633237D01*
X7791166Y-25632526D01*
X7797702Y-25630345D01*
X7797704Y-25630345D01*
X7929806Y-25586272D01*
X7958946Y-25576550D01*
X8109348Y-25483478D01*
X8114521Y-25478296D01*
X8114526Y-25478292D01*
X8157260Y-25435483D01*
X8219542Y-25401403D01*
X8246433Y-25398500D01*
X9722775Y-25398500D01*
X9790896Y-25418502D01*
X9830551Y-25459229D01*
X9843361Y-25480381D01*
X9964619Y-25601639D01*
X9971119Y-25605576D01*
X9971121Y-25605577D01*
X9985849Y-25614496D01*
X10033757Y-25666892D01*
X10045731Y-25736872D01*
X10017971Y-25802216D01*
X9986884Y-25829417D01*
X9975483Y-25836472D01*
X9964085Y-25845506D01*
X9854702Y-25955080D01*
X9845690Y-25966491D01*
X9764447Y-26098291D01*
X9758303Y-26111468D01*
X9709421Y-26258843D01*
X9706555Y-26272210D01*
X9697328Y-26362270D01*
X9697000Y-26368685D01*
X9697000Y-26397885D01*
X9701475Y-26413124D01*
X9702865Y-26414329D01*
X9710548Y-26416000D01*
X10770500Y-26416000D01*
X10838621Y-26436002D01*
X10885114Y-26489658D01*
X10896500Y-26542000D01*
X10896500Y-27634885D01*
X10900975Y-27650124D01*
X10902365Y-27651329D01*
X10909321Y-27652842D01*
X10912782Y-27652663D01*
X11004021Y-27643196D01*
X11017417Y-27640303D01*
X11164687Y-27591170D01*
X11177866Y-27584996D01*
X11309514Y-27503530D01*
X11320915Y-27494494D01*
X11340533Y-27474842D01*
X11402816Y-27440763D01*
X11473636Y-27445766D01*
X11518723Y-27474686D01*
X11538451Y-27494379D01*
X11544947Y-27500864D01*
X11551177Y-27504704D01*
X11551178Y-27504705D01*
X11574828Y-27519283D01*
X11689308Y-27589849D01*
X11696256Y-27592154D01*
X11696257Y-27592154D01*
X11843738Y-27641072D01*
X11843740Y-27641072D01*
X11850269Y-27643238D01*
X11950428Y-27653500D01*
X12484572Y-27653500D01*
X12487818Y-27653163D01*
X12487822Y-27653163D01*
X12521603Y-27649658D01*
X12585982Y-27642978D01*
X12746849Y-27589308D01*
X12891055Y-27500071D01*
X13010864Y-27380053D01*
X13099849Y-27235692D01*
X13107366Y-27213030D01*
X13151072Y-27081262D01*
X13151072Y-27081260D01*
X13153238Y-27074731D01*
X13163500Y-26974572D01*
X13163500Y-26809500D01*
X13183502Y-26741379D01*
X13237158Y-26694886D01*
X13289500Y-26683500D01*
X13290224Y-26683500D01*
X13309934Y-26685051D01*
X13329943Y-26688220D01*
X13337835Y-26687474D01*
X13373961Y-26684059D01*
X13385819Y-26683500D01*
X15660500Y-26683500D01*
X15728621Y-26703502D01*
X15775114Y-26757158D01*
X15786500Y-26809500D01*
X15786500Y-26948134D01*
X15793255Y-27010316D01*
X15844385Y-27146705D01*
X15931739Y-27263261D01*
X16048295Y-27350615D01*
X16056704Y-27353767D01*
X16056705Y-27353768D01*
X16165451Y-27394535D01*
X16222216Y-27437176D01*
X16246916Y-27503738D01*
X16231709Y-27573087D01*
X16212316Y-27599568D01*
X16103535Y-27713401D01*
X16085629Y-27732138D01*
X16082715Y-27736410D01*
X16082714Y-27736411D01*
X16059893Y-27769865D01*
X15959743Y-27916680D01*
X15928399Y-27984206D01*
X15870334Y-28109297D01*
X15865688Y-28119305D01*
X15805989Y-28334570D01*
X15782251Y-28556695D01*
X15782548Y-28561848D01*
X15782548Y-28561851D01*
X15788011Y-28656590D01*
X15795110Y-28779715D01*
X15796247Y-28784761D01*
X15796248Y-28784767D01*
X15816119Y-28872939D01*
X15844222Y-28997639D01*
X15880706Y-29087489D01*
X15925513Y-29197835D01*
X15928266Y-29204616D01*
X15930965Y-29209020D01*
X16018914Y-29352540D01*
X16044987Y-29395088D01*
X16191250Y-29563938D01*
X16363126Y-29706632D01*
X16422763Y-29741481D01*
X16436955Y-29749774D01*
X16485679Y-29801412D01*
X16498750Y-29871195D01*
X16472019Y-29936967D01*
X16431562Y-29970327D01*
X16423457Y-29974546D01*
X16414738Y-29980036D01*
X16244433Y-30107905D01*
X16236726Y-30114748D01*
X16089590Y-30268717D01*
X16083104Y-30276727D01*
X15963098Y-30452649D01*
X15958000Y-30461623D01*
X15868338Y-30654783D01*
X15864775Y-30664470D01*
X15809389Y-30864183D01*
X15810912Y-30872607D01*
X15823292Y-30876000D01*
X18463344Y-30876000D01*
X18476875Y-30872027D01*
X18478180Y-30862947D01*
X18436214Y-30695875D01*
X18432894Y-30686124D01*
X18347972Y-30490814D01*
X18343105Y-30481739D01*
X18227426Y-30302926D01*
X18221136Y-30294757D01*
X18077806Y-30137240D01*
X18070273Y-30130215D01*
X17903139Y-29998222D01*
X17894556Y-29992520D01*
X17857602Y-29972120D01*
X17807631Y-29921687D01*
X17792859Y-29852245D01*
X17817975Y-29785839D01*
X17845327Y-29759232D01*
X17870213Y-29741481D01*
X18024860Y-29631173D01*
X18183096Y-29473489D01*
X18196891Y-29454292D01*
X18310435Y-29296277D01*
X18313453Y-29292077D01*
X18320867Y-29277077D01*
X18410136Y-29096453D01*
X18410137Y-29096451D01*
X18412430Y-29091811D01*
X18454786Y-28952402D01*
X18475865Y-28883023D01*
X18475865Y-28883021D01*
X18477370Y-28878069D01*
X18506529Y-28656590D01*
X18508156Y-28590000D01*
X18489852Y-28367361D01*
X18461821Y-28255765D01*
X18464625Y-28184823D01*
X18494930Y-28135974D01*
X18655499Y-27975405D01*
X18717811Y-27941379D01*
X18744594Y-27938500D01*
X25961800Y-27938500D01*
X26029921Y-27958502D01*
X26049147Y-27974843D01*
X26049420Y-27974540D01*
X26054332Y-27978963D01*
X26058747Y-27983866D01*
X26213248Y-28096118D01*
X26219276Y-28098802D01*
X26219278Y-28098803D01*
X26265327Y-28119305D01*
X26387712Y-28173794D01*
X26481113Y-28193647D01*
X26568056Y-28212128D01*
X26568061Y-28212128D01*
X26574513Y-28213500D01*
X26630406Y-28213500D01*
X26698527Y-28233502D01*
X26719501Y-28250405D01*
X28113597Y-29644502D01*
X28147623Y-29706814D01*
X28142558Y-29777630D01*
X28100011Y-29834465D01*
X28063645Y-29853363D01*
X28051863Y-29857214D01*
X28042359Y-29861209D01*
X27853463Y-29959542D01*
X27844738Y-29965036D01*
X27674433Y-30092905D01*
X27666726Y-30099748D01*
X27519590Y-30253717D01*
X27513109Y-30261722D01*
X27408498Y-30415074D01*
X27353587Y-30460076D01*
X27283062Y-30468247D01*
X27219315Y-30436993D01*
X27198618Y-30412509D01*
X27117822Y-30287617D01*
X27117820Y-30287614D01*
X27115014Y-30283277D01*
X26964670Y-30118051D01*
X26960619Y-30114852D01*
X26960615Y-30114848D01*
X26793414Y-29982800D01*
X26793410Y-29982798D01*
X26789359Y-29979598D01*
X26780208Y-29974546D01*
X26705796Y-29933469D01*
X26593789Y-29871638D01*
X26588920Y-29869914D01*
X26588916Y-29869912D01*
X26388087Y-29798795D01*
X26388083Y-29798794D01*
X26383212Y-29797069D01*
X26378119Y-29796162D01*
X26378116Y-29796161D01*
X26168373Y-29758800D01*
X26168367Y-29758799D01*
X26163284Y-29757894D01*
X26089452Y-29756992D01*
X25945081Y-29755228D01*
X25945079Y-29755228D01*
X25939911Y-29755165D01*
X25719091Y-29788955D01*
X25506756Y-29858357D01*
X25308607Y-29961507D01*
X25304474Y-29964610D01*
X25304471Y-29964612D01*
X25134100Y-30092530D01*
X25129965Y-30095635D01*
X25126393Y-30099373D01*
X25034881Y-30195135D01*
X24975629Y-30257138D01*
X24868201Y-30414621D01*
X24813293Y-30459621D01*
X24742768Y-30467792D01*
X24679021Y-30436538D01*
X24658324Y-30412054D01*
X24577822Y-30287617D01*
X24577820Y-30287614D01*
X24575014Y-30283277D01*
X24424670Y-30118051D01*
X24420619Y-30114852D01*
X24420615Y-30114848D01*
X24253414Y-29982800D01*
X24253410Y-29982798D01*
X24249359Y-29979598D01*
X24240208Y-29974546D01*
X24165796Y-29933469D01*
X24053789Y-29871638D01*
X24048920Y-29869914D01*
X24048916Y-29869912D01*
X23848087Y-29798795D01*
X23848083Y-29798794D01*
X23843212Y-29797069D01*
X23838119Y-29796162D01*
X23838116Y-29796161D01*
X23628373Y-29758800D01*
X23628367Y-29758799D01*
X23623284Y-29757894D01*
X23549452Y-29756992D01*
X23405081Y-29755228D01*
X23405079Y-29755228D01*
X23399911Y-29755165D01*
X23179091Y-29788955D01*
X22966756Y-29858357D01*
X22768607Y-29961507D01*
X22764474Y-29964610D01*
X22764471Y-29964612D01*
X22594100Y-30092530D01*
X22589965Y-30095635D01*
X22586393Y-30099373D01*
X22494881Y-30195135D01*
X22435629Y-30257138D01*
X22432720Y-30261403D01*
X22432714Y-30261411D01*
X22347556Y-30386249D01*
X22309743Y-30441680D01*
X22215688Y-30644305D01*
X22155989Y-30859570D01*
X22132251Y-31081695D01*
X22145110Y-31304715D01*
X22146247Y-31309761D01*
X22146248Y-31309767D01*
X22162978Y-31384000D01*
X22194222Y-31522639D01*
X22214511Y-31572604D01*
X22269851Y-31708891D01*
X22278266Y-31729616D01*
X22327969Y-31810724D01*
X22392291Y-31915688D01*
X22394987Y-31920088D01*
X22541250Y-32088938D01*
X22649075Y-32178456D01*
X22700072Y-32220794D01*
X22713126Y-32231632D01*
X22906000Y-32344338D01*
X22910825Y-32346180D01*
X22910826Y-32346181D01*
X22968394Y-32368164D01*
X23114692Y-32424030D01*
X23119760Y-32425061D01*
X23119763Y-32425062D01*
X23210458Y-32443514D01*
X23333597Y-32468567D01*
X23338772Y-32468757D01*
X23338774Y-32468757D01*
X23551673Y-32476564D01*
X23551677Y-32476564D01*
X23556837Y-32476753D01*
X23561957Y-32476097D01*
X23561959Y-32476097D01*
X23773288Y-32449025D01*
X23773289Y-32449025D01*
X23778416Y-32448368D01*
X23784926Y-32446415D01*
X23987429Y-32385661D01*
X23987434Y-32385659D01*
X23992384Y-32384174D01*
X24192994Y-32285896D01*
X24374860Y-32156173D01*
X24533096Y-31998489D01*
X24541087Y-31987369D01*
X24663453Y-31817077D01*
X24664776Y-31818028D01*
X24711645Y-31774857D01*
X24781580Y-31762625D01*
X24847026Y-31790144D01*
X24874875Y-31821994D01*
X24934987Y-31920088D01*
X25081250Y-32088938D01*
X25189075Y-32178456D01*
X25240072Y-32220794D01*
X25253126Y-32231632D01*
X25446000Y-32344338D01*
X25450825Y-32346180D01*
X25450826Y-32346181D01*
X25508394Y-32368164D01*
X25654692Y-32424030D01*
X25659760Y-32425061D01*
X25659763Y-32425062D01*
X25750458Y-32443514D01*
X25873597Y-32468567D01*
X25878772Y-32468757D01*
X25878774Y-32468757D01*
X26091673Y-32476564D01*
X26091677Y-32476564D01*
X26096837Y-32476753D01*
X26101957Y-32476097D01*
X26101959Y-32476097D01*
X26313288Y-32449025D01*
X26313289Y-32449025D01*
X26318416Y-32448368D01*
X26324926Y-32446415D01*
X26527429Y-32385661D01*
X26527434Y-32385659D01*
X26532384Y-32384174D01*
X26732994Y-32285896D01*
X26914860Y-32156173D01*
X27073096Y-31998489D01*
X27081087Y-31987369D01*
X27203453Y-31817077D01*
X27204640Y-31817930D01*
X27251960Y-31774362D01*
X27321897Y-31762145D01*
X27387338Y-31789678D01*
X27415166Y-31821511D01*
X27472694Y-31915388D01*
X27478777Y-31923699D01*
X27618213Y-32084667D01*
X27625580Y-32091883D01*
X27789434Y-32227916D01*
X27797881Y-32233831D01*
X27981756Y-32341279D01*
X27991042Y-32345729D01*
X28190001Y-32421703D01*
X28199899Y-32424579D01*
X28303250Y-32445606D01*
X28317299Y-32444410D01*
X28321000Y-32434065D01*
X28321000Y-30987000D01*
X28341002Y-30918879D01*
X28394658Y-30872386D01*
X28447000Y-30861000D01*
X28703000Y-30861000D01*
X28771121Y-30881002D01*
X28817614Y-30934658D01*
X28829000Y-30987000D01*
X28829000Y-32433517D01*
X28833064Y-32447359D01*
X28846478Y-32449393D01*
X28853184Y-32448534D01*
X28863262Y-32446392D01*
X29049292Y-32390580D01*
X29120288Y-32390164D01*
X29180238Y-32428196D01*
X29210110Y-32492602D01*
X29211500Y-32511266D01*
X29211500Y-34211233D01*
X29210973Y-34222416D01*
X29209298Y-34229909D01*
X29209547Y-34237835D01*
X29209547Y-34237836D01*
X29211438Y-34297986D01*
X29211500Y-34301945D01*
X29211500Y-34329856D01*
X29211997Y-34333790D01*
X29211997Y-34333791D01*
X29212005Y-34333856D01*
X29212938Y-34345693D01*
X29214327Y-34389889D01*
X29219978Y-34409339D01*
X29223987Y-34428700D01*
X29226526Y-34448797D01*
X29229445Y-34456168D01*
X29229445Y-34456170D01*
X29242804Y-34489912D01*
X29246649Y-34501142D01*
X29258982Y-34543593D01*
X29263015Y-34550412D01*
X29263017Y-34550417D01*
X29269293Y-34561028D01*
X29277988Y-34578776D01*
X29285448Y-34597617D01*
X29290110Y-34604033D01*
X29290110Y-34604034D01*
X29311436Y-34633387D01*
X29317952Y-34643307D01*
X29336347Y-34674410D01*
X29340458Y-34681362D01*
X29354779Y-34695683D01*
X29367619Y-34710716D01*
X29379528Y-34727107D01*
X29385634Y-34732158D01*
X29413605Y-34755298D01*
X29422384Y-34763288D01*
X30802878Y-36143783D01*
X30836904Y-36206095D01*
X30839093Y-36219706D01*
X30856458Y-36384928D01*
X30915473Y-36566556D01*
X30918776Y-36572278D01*
X30918777Y-36572279D01*
X30936200Y-36602456D01*
X31010960Y-36731944D01*
X31138747Y-36873866D01*
X31293248Y-36986118D01*
X31299276Y-36988802D01*
X31299278Y-36988803D01*
X31461681Y-37061109D01*
X31467712Y-37063794D01*
X31561113Y-37083647D01*
X31648056Y-37102128D01*
X31648061Y-37102128D01*
X31654513Y-37103500D01*
X31845487Y-37103500D01*
X31851939Y-37102128D01*
X31851944Y-37102128D01*
X31938887Y-37083647D01*
X32032288Y-37063794D01*
X32038319Y-37061109D01*
X32200722Y-36988803D01*
X32200724Y-36988802D01*
X32206752Y-36986118D01*
X32361253Y-36873866D01*
X32489040Y-36731944D01*
X32563800Y-36602456D01*
X32581223Y-36572279D01*
X32581224Y-36572278D01*
X32584527Y-36566556D01*
X32643542Y-36384928D01*
X32650224Y-36321358D01*
X32662814Y-36201565D01*
X32663504Y-36195000D01*
X32643542Y-36005072D01*
X32584527Y-35823444D01*
X32489040Y-35658056D01*
X32361253Y-35516134D01*
X32206752Y-35403882D01*
X32200724Y-35401198D01*
X32200722Y-35401197D01*
X32038319Y-35328891D01*
X32038318Y-35328891D01*
X32032288Y-35326206D01*
X31938888Y-35306353D01*
X31851944Y-35287872D01*
X31851939Y-35287872D01*
X31845487Y-35286500D01*
X31789594Y-35286500D01*
X31721473Y-35266498D01*
X31700499Y-35249595D01*
X30690574Y-34239669D01*
X34202001Y-34239669D01*
X34202371Y-34246490D01*
X34207895Y-34297352D01*
X34211521Y-34312604D01*
X34256676Y-34433054D01*
X34265214Y-34448649D01*
X34341715Y-34550724D01*
X34354276Y-34563285D01*
X34456351Y-34639786D01*
X34471946Y-34648324D01*
X34592394Y-34693478D01*
X34607649Y-34697105D01*
X34658514Y-34702631D01*
X34665328Y-34703000D01*
X35287885Y-34703000D01*
X35303124Y-34698525D01*
X35304329Y-34697135D01*
X35306000Y-34689452D01*
X35306000Y-34684884D01*
X35814000Y-34684884D01*
X35818475Y-34700123D01*
X35819865Y-34701328D01*
X35827548Y-34702999D01*
X36454669Y-34702999D01*
X36461490Y-34702629D01*
X36512352Y-34697105D01*
X36527604Y-34693479D01*
X36648054Y-34648324D01*
X36663649Y-34639786D01*
X36765724Y-34563285D01*
X36778285Y-34550724D01*
X36854786Y-34448649D01*
X36863325Y-34433052D01*
X36904425Y-34323418D01*
X36947066Y-34266653D01*
X37013628Y-34241953D01*
X37082977Y-34257160D01*
X37117645Y-34285150D01*
X37143219Y-34314674D01*
X37150580Y-34321883D01*
X37314434Y-34457916D01*
X37322881Y-34463831D01*
X37506756Y-34571279D01*
X37516042Y-34575729D01*
X37715001Y-34651703D01*
X37724899Y-34654579D01*
X37828250Y-34675606D01*
X37842299Y-34674410D01*
X37846000Y-34664065D01*
X37846000Y-34663517D01*
X38354000Y-34663517D01*
X38358064Y-34677359D01*
X38371478Y-34679393D01*
X38378184Y-34678534D01*
X38388262Y-34676392D01*
X38592255Y-34615191D01*
X38601842Y-34611433D01*
X38793095Y-34517739D01*
X38801945Y-34512464D01*
X38975328Y-34388792D01*
X38983200Y-34382139D01*
X39134052Y-34231812D01*
X39140730Y-34223965D01*
X39268022Y-34046819D01*
X39269279Y-34047722D01*
X39316373Y-34004362D01*
X39386311Y-33992145D01*
X39451751Y-34019678D01*
X39479579Y-34051511D01*
X39481680Y-34054940D01*
X39539987Y-34150088D01*
X39686250Y-34318938D01*
X39858126Y-34461632D01*
X40051000Y-34574338D01*
X40055825Y-34576180D01*
X40055826Y-34576181D01*
X40092659Y-34590246D01*
X40259692Y-34654030D01*
X40264760Y-34655061D01*
X40264763Y-34655062D01*
X40359862Y-34674410D01*
X40478597Y-34698567D01*
X40483772Y-34698757D01*
X40483774Y-34698757D01*
X40696673Y-34706564D01*
X40696677Y-34706564D01*
X40701837Y-34706753D01*
X40706957Y-34706097D01*
X40706959Y-34706097D01*
X40918288Y-34679025D01*
X40918289Y-34679025D01*
X40923416Y-34678368D01*
X40928366Y-34676883D01*
X41132429Y-34615661D01*
X41132434Y-34615659D01*
X41137384Y-34614174D01*
X41337994Y-34515896D01*
X41519860Y-34386173D01*
X41566436Y-34339760D01*
X41642326Y-34264134D01*
X41678096Y-34228489D01*
X41681974Y-34223093D01*
X41808453Y-34047077D01*
X41809776Y-34048028D01*
X41856645Y-34004857D01*
X41926580Y-33992625D01*
X41992026Y-34020144D01*
X42019875Y-34051994D01*
X42021680Y-34054940D01*
X42079987Y-34150088D01*
X42226250Y-34318938D01*
X42398126Y-34461632D01*
X42591000Y-34574338D01*
X42595825Y-34576180D01*
X42595826Y-34576181D01*
X42632659Y-34590246D01*
X42799692Y-34654030D01*
X42804760Y-34655061D01*
X42804763Y-34655062D01*
X42899862Y-34674410D01*
X43018597Y-34698567D01*
X43023772Y-34698757D01*
X43023774Y-34698757D01*
X43236673Y-34706564D01*
X43236677Y-34706564D01*
X43241837Y-34706753D01*
X43246957Y-34706097D01*
X43246959Y-34706097D01*
X43458288Y-34679025D01*
X43458289Y-34679025D01*
X43463416Y-34678368D01*
X43468366Y-34676883D01*
X43672429Y-34615661D01*
X43672434Y-34615659D01*
X43677384Y-34614174D01*
X43877994Y-34515896D01*
X44059860Y-34386173D01*
X44106436Y-34339760D01*
X44182326Y-34264134D01*
X44218096Y-34228489D01*
X44221974Y-34223093D01*
X44348453Y-34047077D01*
X44349776Y-34048028D01*
X44396645Y-34004857D01*
X44466580Y-33992625D01*
X44532026Y-34020144D01*
X44559875Y-34051994D01*
X44561680Y-34054940D01*
X44619987Y-34150088D01*
X44766250Y-34318938D01*
X44938126Y-34461632D01*
X45131000Y-34574338D01*
X45135825Y-34576180D01*
X45135826Y-34576181D01*
X45172659Y-34590246D01*
X45339692Y-34654030D01*
X45344760Y-34655061D01*
X45344763Y-34655062D01*
X45439862Y-34674410D01*
X45558597Y-34698567D01*
X45563772Y-34698757D01*
X45563774Y-34698757D01*
X45776673Y-34706564D01*
X45776677Y-34706564D01*
X45781837Y-34706753D01*
X45786957Y-34706097D01*
X45786959Y-34706097D01*
X45998288Y-34679025D01*
X45998289Y-34679025D01*
X46003416Y-34678368D01*
X46008366Y-34676883D01*
X46212429Y-34615661D01*
X46212434Y-34615659D01*
X46217384Y-34614174D01*
X46417994Y-34515896D01*
X46599860Y-34386173D01*
X46646436Y-34339760D01*
X46722326Y-34264134D01*
X46758096Y-34228489D01*
X46761974Y-34223093D01*
X46885435Y-34051277D01*
X46888453Y-34047077D01*
X46892748Y-34038388D01*
X46985136Y-33851453D01*
X46985137Y-33851451D01*
X46987430Y-33846811D01*
X47052370Y-33633069D01*
X47081529Y-33411590D01*
X47083156Y-33345000D01*
X47064852Y-33122361D01*
X47010431Y-32905702D01*
X46921354Y-32700840D01*
X46800014Y-32513277D01*
X46649670Y-32348051D01*
X46645619Y-32344852D01*
X46645615Y-32344848D01*
X46478414Y-32212800D01*
X46478410Y-32212798D01*
X46474359Y-32209598D01*
X46469831Y-32207098D01*
X46370978Y-32152529D01*
X46278789Y-32101638D01*
X46273920Y-32099914D01*
X46273916Y-32099912D01*
X46073087Y-32028795D01*
X46073083Y-32028794D01*
X46068212Y-32027069D01*
X46063119Y-32026162D01*
X46063116Y-32026161D01*
X45853373Y-31988800D01*
X45853367Y-31988799D01*
X45848284Y-31987894D01*
X45774452Y-31986992D01*
X45630081Y-31985228D01*
X45630079Y-31985228D01*
X45624911Y-31985165D01*
X45404091Y-32018955D01*
X45191756Y-32088357D01*
X45156168Y-32106883D01*
X45017975Y-32178822D01*
X44993607Y-32191507D01*
X44989474Y-32194610D01*
X44989471Y-32194612D01*
X44821030Y-32321081D01*
X44814965Y-32325635D01*
X44811393Y-32329373D01*
X44683186Y-32463534D01*
X44660629Y-32487138D01*
X44553201Y-32644621D01*
X44498293Y-32689621D01*
X44427768Y-32697792D01*
X44364021Y-32666538D01*
X44343324Y-32642054D01*
X44262822Y-32517617D01*
X44262820Y-32517614D01*
X44260014Y-32513277D01*
X44109670Y-32348051D01*
X44105619Y-32344852D01*
X44105615Y-32344848D01*
X43938414Y-32212800D01*
X43938410Y-32212798D01*
X43934359Y-32209598D01*
X43929835Y-32207101D01*
X43929831Y-32207098D01*
X43878608Y-32178822D01*
X43828636Y-32128390D01*
X43813500Y-32068513D01*
X43813500Y-28018767D01*
X43814027Y-28007584D01*
X43815702Y-28000091D01*
X43814909Y-27974843D01*
X43813562Y-27932001D01*
X43813500Y-27928043D01*
X43813500Y-27900144D01*
X43812996Y-27896153D01*
X43812063Y-27884311D01*
X43811994Y-27882095D01*
X43810674Y-27840111D01*
X43808462Y-27832497D01*
X43808461Y-27832492D01*
X43805023Y-27820659D01*
X43801012Y-27801295D01*
X43799467Y-27789064D01*
X43798474Y-27781203D01*
X43795557Y-27773836D01*
X43795556Y-27773831D01*
X43782198Y-27740092D01*
X43778354Y-27728865D01*
X43768230Y-27694022D01*
X43766018Y-27686407D01*
X43755707Y-27668972D01*
X43747012Y-27651224D01*
X43739552Y-27632383D01*
X43713564Y-27596613D01*
X43707048Y-27586693D01*
X43688580Y-27555465D01*
X43688578Y-27555462D01*
X43684542Y-27548638D01*
X43670221Y-27534317D01*
X43657380Y-27519283D01*
X43650131Y-27509306D01*
X43645472Y-27502893D01*
X43611395Y-27474702D01*
X43602626Y-27466722D01*
X42626216Y-26490311D01*
X42592192Y-26428001D01*
X42594755Y-26364589D01*
X42605865Y-26328022D01*
X42607370Y-26323069D01*
X42636529Y-26101590D01*
X42638156Y-26035000D01*
X42619852Y-25812361D01*
X42565431Y-25595702D01*
X42476354Y-25390840D01*
X42411441Y-25290500D01*
X42357822Y-25207617D01*
X42357820Y-25207614D01*
X42355014Y-25203277D01*
X42204670Y-25038051D01*
X42200619Y-25034852D01*
X42200615Y-25034848D01*
X42033414Y-24902800D01*
X42033410Y-24902798D01*
X42029359Y-24899598D01*
X41987569Y-24876529D01*
X41937598Y-24826097D01*
X41922826Y-24756654D01*
X41947942Y-24690248D01*
X41975294Y-24663641D01*
X42150328Y-24538792D01*
X42158200Y-24532139D01*
X42309052Y-24381812D01*
X42315730Y-24373965D01*
X42440003Y-24201020D01*
X42445313Y-24192183D01*
X42539670Y-24001267D01*
X42543469Y-23991672D01*
X42605377Y-23787910D01*
X42607555Y-23777837D01*
X42608986Y-23766962D01*
X42606775Y-23752778D01*
X42593617Y-23749000D01*
X39958225Y-23749000D01*
X39944694Y-23752973D01*
X39943257Y-23762966D01*
X39973565Y-23897446D01*
X39976645Y-23907275D01*
X40056770Y-24104603D01*
X40061413Y-24113794D01*
X40172694Y-24295388D01*
X40178777Y-24303699D01*
X40318213Y-24464667D01*
X40325580Y-24471883D01*
X40489434Y-24607916D01*
X40497881Y-24613831D01*
X40566969Y-24654203D01*
X40615693Y-24705842D01*
X40628764Y-24775625D01*
X40602033Y-24841396D01*
X40561584Y-24874752D01*
X40548607Y-24881507D01*
X40544474Y-24884610D01*
X40544471Y-24884612D01*
X40374100Y-25012530D01*
X40369965Y-25015635D01*
X40366393Y-25019373D01*
X40239780Y-25151866D01*
X40215629Y-25177138D01*
X40089743Y-25361680D01*
X40064556Y-25415941D01*
X40009702Y-25534115D01*
X39995688Y-25564305D01*
X39935989Y-25779570D01*
X39912251Y-26001695D01*
X39912548Y-26006848D01*
X39912548Y-26006851D01*
X39918202Y-26104908D01*
X39925110Y-26224715D01*
X39926247Y-26229761D01*
X39926248Y-26229767D01*
X39946119Y-26317939D01*
X39974222Y-26442639D01*
X40058266Y-26649616D01*
X40091287Y-26703502D01*
X40156243Y-26809500D01*
X40174987Y-26840088D01*
X40321250Y-27008938D01*
X40493126Y-27151632D01*
X40535065Y-27176139D01*
X40566445Y-27194476D01*
X40615169Y-27246114D01*
X40628240Y-27315897D01*
X40601509Y-27381669D01*
X40561055Y-27415027D01*
X40548607Y-27421507D01*
X40544474Y-27424610D01*
X40544471Y-27424612D01*
X40386757Y-27543027D01*
X40369965Y-27555635D01*
X40327982Y-27599568D01*
X40261658Y-27668972D01*
X40215629Y-27717138D01*
X40089743Y-27901680D01*
X40063367Y-27958502D01*
X40001290Y-28092237D01*
X39995688Y-28104305D01*
X39935989Y-28319570D01*
X39912251Y-28541695D01*
X39912548Y-28546848D01*
X39912548Y-28546851D01*
X39918876Y-28656590D01*
X39925110Y-28764715D01*
X39926247Y-28769761D01*
X39926248Y-28769767D01*
X39928490Y-28779715D01*
X39974222Y-28982639D01*
X39976164Y-28987421D01*
X39976165Y-28987425D01*
X40001540Y-29049915D01*
X40008002Y-29114244D01*
X40009465Y-29114429D01*
X40008472Y-29122291D01*
X40006500Y-29129970D01*
X40006500Y-29150224D01*
X40004949Y-29169934D01*
X40001780Y-29189943D01*
X40002526Y-29197835D01*
X40005941Y-29233961D01*
X40006500Y-29245819D01*
X40006500Y-32066692D01*
X39986498Y-32134813D01*
X39938683Y-32178453D01*
X39913607Y-32191507D01*
X39909474Y-32194610D01*
X39909471Y-32194612D01*
X39741030Y-32321081D01*
X39734965Y-32325635D01*
X39731393Y-32329373D01*
X39603186Y-32463534D01*
X39580629Y-32487138D01*
X39473204Y-32644618D01*
X39472898Y-32645066D01*
X39417987Y-32690069D01*
X39347462Y-32698240D01*
X39283715Y-32666986D01*
X39263018Y-32642502D01*
X39182426Y-32517926D01*
X39176136Y-32509757D01*
X39032806Y-32352240D01*
X39025273Y-32345215D01*
X38858139Y-32213222D01*
X38849552Y-32207517D01*
X38663117Y-32104599D01*
X38653705Y-32100369D01*
X38452959Y-32029280D01*
X38442988Y-32026646D01*
X38371837Y-32013972D01*
X38358540Y-32015432D01*
X38354000Y-32029989D01*
X38354000Y-34663517D01*
X37846000Y-34663517D01*
X37846000Y-33617115D01*
X37841525Y-33601876D01*
X37840135Y-33600671D01*
X37832452Y-33599000D01*
X35832115Y-33599000D01*
X35816876Y-33603475D01*
X35815671Y-33604865D01*
X35814000Y-33612548D01*
X35814000Y-34684884D01*
X35306000Y-34684884D01*
X35306000Y-33617115D01*
X35301525Y-33601876D01*
X35300135Y-33600671D01*
X35292452Y-33599000D01*
X34220116Y-33599000D01*
X34204877Y-33603475D01*
X34203672Y-33604865D01*
X34202001Y-33612548D01*
X34202001Y-34239669D01*
X30690574Y-34239669D01*
X30515405Y-34064500D01*
X30481379Y-34002188D01*
X30478500Y-33975405D01*
X30478500Y-33072885D01*
X34202000Y-33072885D01*
X34206475Y-33088124D01*
X34207865Y-33089329D01*
X34215548Y-33091000D01*
X35287885Y-33091000D01*
X35303124Y-33086525D01*
X35304329Y-33085135D01*
X35306000Y-33077452D01*
X35306000Y-33072885D01*
X35814000Y-33072885D01*
X35818475Y-33088124D01*
X35819865Y-33089329D01*
X35827548Y-33091000D01*
X37827885Y-33091000D01*
X37843124Y-33086525D01*
X37844329Y-33085135D01*
X37846000Y-33077452D01*
X37846000Y-32028102D01*
X37842082Y-32014758D01*
X37827806Y-32012771D01*
X37789324Y-32018660D01*
X37779288Y-32021051D01*
X37576868Y-32087212D01*
X37567359Y-32091209D01*
X37378463Y-32189542D01*
X37369738Y-32195036D01*
X37199433Y-32322905D01*
X37191726Y-32329748D01*
X37114094Y-32410985D01*
X37052570Y-32446415D01*
X36981657Y-32442958D01*
X36923871Y-32401712D01*
X36905018Y-32368164D01*
X36863324Y-32256946D01*
X36854786Y-32241351D01*
X36778285Y-32139276D01*
X36765724Y-32126715D01*
X36663649Y-32050214D01*
X36648054Y-32041676D01*
X36527606Y-31996522D01*
X36512351Y-31992895D01*
X36461486Y-31987369D01*
X36454672Y-31987000D01*
X35832115Y-31987000D01*
X35816876Y-31991475D01*
X35815671Y-31992865D01*
X35814000Y-32000548D01*
X35814000Y-33072885D01*
X35306000Y-33072885D01*
X35306000Y-32005116D01*
X35301525Y-31989877D01*
X35300135Y-31988672D01*
X35292452Y-31987001D01*
X34665331Y-31987001D01*
X34658510Y-31987371D01*
X34607648Y-31992895D01*
X34592396Y-31996521D01*
X34471946Y-32041676D01*
X34456351Y-32050214D01*
X34354276Y-32126715D01*
X34341715Y-32139276D01*
X34265214Y-32241351D01*
X34256676Y-32256946D01*
X34211522Y-32377394D01*
X34207895Y-32392649D01*
X34202369Y-32443514D01*
X34202000Y-32450328D01*
X34202000Y-33072885D01*
X30478500Y-33072885D01*
X30478500Y-32599500D01*
X30498502Y-32531379D01*
X30552158Y-32484886D01*
X30604500Y-32473500D01*
X32013134Y-32473500D01*
X32075316Y-32466745D01*
X32211705Y-32415615D01*
X32328261Y-32328261D01*
X32415615Y-32211705D01*
X32466745Y-32075316D01*
X32473500Y-32013134D01*
X32473500Y-30216866D01*
X32466745Y-30154684D01*
X32415615Y-30018295D01*
X32408674Y-30009034D01*
X32407774Y-30006624D01*
X32405921Y-30003240D01*
X32406409Y-30002973D01*
X32383826Y-29942530D01*
X32383500Y-29933469D01*
X32383500Y-27383767D01*
X32384027Y-27372584D01*
X32385702Y-27365091D01*
X32383562Y-27297014D01*
X32383500Y-27293055D01*
X32383500Y-27265144D01*
X32382995Y-27261144D01*
X32382062Y-27249301D01*
X32380922Y-27213030D01*
X32380673Y-27205111D01*
X32375021Y-27185657D01*
X32371013Y-27166300D01*
X32369468Y-27154070D01*
X32369468Y-27154069D01*
X32368474Y-27146203D01*
X32362628Y-27131438D01*
X32352196Y-27105088D01*
X32348351Y-27093858D01*
X32338229Y-27059017D01*
X32338229Y-27059016D01*
X32336018Y-27051407D01*
X32331985Y-27044588D01*
X32331983Y-27044583D01*
X32325707Y-27033972D01*
X32317012Y-27016224D01*
X32309552Y-26997383D01*
X32283564Y-26961613D01*
X32277048Y-26951693D01*
X32258580Y-26920465D01*
X32258578Y-26920462D01*
X32254542Y-26913638D01*
X32240221Y-26899317D01*
X32227380Y-26884283D01*
X32220131Y-26874306D01*
X32215472Y-26867893D01*
X32181395Y-26839702D01*
X32172616Y-26831712D01*
X30998652Y-25657747D01*
X30991112Y-25649461D01*
X30987000Y-25642982D01*
X30976901Y-25633498D01*
X30937349Y-25596357D01*
X30934507Y-25593602D01*
X30914770Y-25573865D01*
X30911573Y-25571385D01*
X30902551Y-25563680D01*
X30876100Y-25538841D01*
X30870321Y-25533414D01*
X30863375Y-25529595D01*
X30863372Y-25529593D01*
X30852566Y-25523652D01*
X30836047Y-25512801D01*
X30827427Y-25506115D01*
X30820041Y-25500386D01*
X30812772Y-25497241D01*
X30812768Y-25497238D01*
X30779463Y-25482826D01*
X30768813Y-25477609D01*
X30730060Y-25456305D01*
X30710437Y-25451267D01*
X30691734Y-25444863D01*
X30680420Y-25439967D01*
X30680419Y-25439967D01*
X30673145Y-25436819D01*
X30665322Y-25435580D01*
X30665312Y-25435577D01*
X30629476Y-25429901D01*
X30617856Y-25427495D01*
X30582711Y-25418472D01*
X30582710Y-25418472D01*
X30575030Y-25416500D01*
X30554776Y-25416500D01*
X30535065Y-25414949D01*
X30522886Y-25413020D01*
X30515057Y-25411780D01*
X30507165Y-25412526D01*
X30471039Y-25415941D01*
X30459181Y-25416500D01*
X18629500Y-25416500D01*
X18561379Y-25396498D01*
X18514886Y-25342842D01*
X18503500Y-25290500D01*
X18503500Y-25151866D01*
X18496745Y-25089684D01*
X18445615Y-24953295D01*
X18358261Y-24836739D01*
X18241705Y-24749385D01*
X18105316Y-24698255D01*
X18076343Y-24695108D01*
X18072242Y-24694662D01*
X18006680Y-24667420D01*
X17966254Y-24609057D01*
X17963799Y-24538103D01*
X17973856Y-24513448D01*
X17973539Y-24513307D01*
X17976223Y-24507279D01*
X17979527Y-24501556D01*
X18038542Y-24319928D01*
X18058504Y-24130000D01*
X18038542Y-23940072D01*
X17979527Y-23758444D01*
X17974075Y-23749000D01*
X17887341Y-23598774D01*
X17884040Y-23593056D01*
X17842324Y-23546725D01*
X17760675Y-23456045D01*
X17760674Y-23456044D01*
X17756253Y-23451134D01*
X17601752Y-23338882D01*
X17595724Y-23336198D01*
X17595722Y-23336197D01*
X17433319Y-23263891D01*
X17433318Y-23263891D01*
X17427288Y-23261206D01*
X17332227Y-23241000D01*
X17246944Y-23222872D01*
X17246939Y-23222872D01*
X17240487Y-23221500D01*
X17049513Y-23221500D01*
X17043061Y-23222872D01*
X17043056Y-23222872D01*
X16957773Y-23241000D01*
X16862712Y-23261206D01*
X16856682Y-23263891D01*
X16856681Y-23263891D01*
X16694278Y-23336197D01*
X16694276Y-23336198D01*
X16688248Y-23338882D01*
X16533747Y-23451134D01*
X16529326Y-23456044D01*
X16529325Y-23456045D01*
X16447677Y-23546725D01*
X16405960Y-23593056D01*
X16402659Y-23598774D01*
X16315926Y-23749000D01*
X16310473Y-23758444D01*
X16251458Y-23940072D01*
X16250769Y-23946631D01*
X16250768Y-23946634D01*
X16243197Y-24018671D01*
X16216184Y-24084327D01*
X16157962Y-24124957D01*
X16117887Y-24131500D01*
X15504800Y-24131500D01*
X15436679Y-24111498D01*
X15390186Y-24057842D01*
X15380082Y-23987568D01*
X15395681Y-23942500D01*
X15436223Y-23872279D01*
X15436224Y-23872278D01*
X15439527Y-23866556D01*
X15498542Y-23684928D01*
X15499482Y-23675990D01*
X15517814Y-23501565D01*
X15518504Y-23495000D01*
X15503317Y-23350500D01*
X15499232Y-23311635D01*
X15499232Y-23311633D01*
X15498542Y-23305072D01*
X15439527Y-23123444D01*
X15436223Y-23117721D01*
X15433539Y-23111693D01*
X15435370Y-23110878D01*
X15420878Y-23051138D01*
X15444099Y-22984046D01*
X15499906Y-22940159D01*
X15533127Y-22931871D01*
X15541656Y-22930945D01*
X15572460Y-22927599D01*
X15572464Y-22927598D01*
X15580316Y-22926745D01*
X15716705Y-22875615D01*
X15833261Y-22788261D01*
X15869176Y-22740340D01*
X15926033Y-22697827D01*
X15996851Y-22692801D01*
X16059145Y-22726861D01*
X16070817Y-22740330D01*
X16106739Y-22788261D01*
X16223295Y-22875615D01*
X16359684Y-22926745D01*
X16421866Y-22933500D01*
X17518134Y-22933500D01*
X17580316Y-22926745D01*
X17716705Y-22875615D01*
X17833261Y-22788261D01*
X17869176Y-22740340D01*
X17926033Y-22697827D01*
X17996851Y-22692801D01*
X18059145Y-22726861D01*
X18070817Y-22740330D01*
X18106739Y-22788261D01*
X18223295Y-22875615D01*
X18359684Y-22926745D01*
X18421866Y-22933500D01*
X19518134Y-22933500D01*
X19580316Y-22926745D01*
X19716705Y-22875615D01*
X19833261Y-22788261D01*
X19920615Y-22671705D01*
X19971745Y-22535316D01*
X19978500Y-22473134D01*
X19978500Y-21853134D01*
X39916500Y-21853134D01*
X39923255Y-21915316D01*
X39974385Y-22051705D01*
X40061739Y-22168261D01*
X40178295Y-22255615D01*
X40186704Y-22258767D01*
X40186705Y-22258768D01*
X40295960Y-22299726D01*
X40352725Y-22342367D01*
X40377425Y-22408929D01*
X40362218Y-22478278D01*
X40342825Y-22504759D01*
X40219590Y-22633717D01*
X40213104Y-22641727D01*
X40093098Y-22817649D01*
X40088000Y-22826623D01*
X39998338Y-23019783D01*
X39994775Y-23029470D01*
X39939389Y-23229183D01*
X39940912Y-23237607D01*
X39953292Y-23241000D01*
X42593344Y-23241000D01*
X42606875Y-23237027D01*
X42608180Y-23227947D01*
X42566214Y-23060875D01*
X42562894Y-23051124D01*
X42477972Y-22855814D01*
X42473105Y-22846739D01*
X42357426Y-22667926D01*
X42351136Y-22659757D01*
X42207293Y-22501677D01*
X42176241Y-22437831D01*
X42184635Y-22367333D01*
X42229812Y-22312564D01*
X42256256Y-22298895D01*
X42363297Y-22258767D01*
X42371705Y-22255615D01*
X42488261Y-22168261D01*
X42575615Y-22051705D01*
X42626745Y-21915316D01*
X42633500Y-21853134D01*
X42633500Y-20056866D01*
X42626745Y-19994684D01*
X42575615Y-19858295D01*
X42488261Y-19741739D01*
X42371705Y-19654385D01*
X42235316Y-19603255D01*
X42173134Y-19596500D01*
X40376866Y-19596500D01*
X40314684Y-19603255D01*
X40178295Y-19654385D01*
X40061739Y-19741739D01*
X39974385Y-19858295D01*
X39923255Y-19994684D01*
X39916500Y-20056866D01*
X39916500Y-21853134D01*
X19978500Y-21853134D01*
X19978500Y-21121342D01*
X19998502Y-21053221D01*
X20052158Y-21006728D01*
X20122432Y-20996624D01*
X20148730Y-21003360D01*
X20202395Y-21023478D01*
X20217649Y-21027105D01*
X20268514Y-21032631D01*
X20275328Y-21033000D01*
X21297885Y-21033000D01*
X21313124Y-21028525D01*
X21314329Y-21027135D01*
X21316000Y-21019452D01*
X21316000Y-21014884D01*
X21824000Y-21014884D01*
X21828475Y-21030123D01*
X21829865Y-21031328D01*
X21837548Y-21032999D01*
X22864669Y-21032999D01*
X22871490Y-21032629D01*
X22922352Y-21027105D01*
X22937604Y-21023479D01*
X23058054Y-20978324D01*
X23073649Y-20969786D01*
X23175724Y-20893285D01*
X23188285Y-20880724D01*
X23264786Y-20778649D01*
X23273324Y-20763054D01*
X23318478Y-20642606D01*
X23322105Y-20627351D01*
X23327631Y-20576486D01*
X23328000Y-20569672D01*
X23328000Y-20297115D01*
X23323525Y-20281876D01*
X23322135Y-20280671D01*
X23314452Y-20279000D01*
X21842115Y-20279000D01*
X21826876Y-20283475D01*
X21825671Y-20284865D01*
X21824000Y-20292548D01*
X21824000Y-21014884D01*
X21316000Y-21014884D01*
X21316000Y-20297115D01*
X21311525Y-20281876D01*
X21310135Y-20280671D01*
X21302452Y-20279000D01*
X19898268Y-20279000D01*
X19830147Y-20258998D01*
X19822703Y-20253826D01*
X19757201Y-20204735D01*
X19716705Y-20174385D01*
X19580316Y-20123255D01*
X19518134Y-20116500D01*
X18421866Y-20116500D01*
X18359684Y-20123255D01*
X18223295Y-20174385D01*
X18106739Y-20261739D01*
X18070824Y-20309660D01*
X18013967Y-20352173D01*
X17943149Y-20357199D01*
X17880855Y-20323139D01*
X17869183Y-20309670D01*
X17833261Y-20261739D01*
X17716705Y-20174385D01*
X17580316Y-20123255D01*
X17518134Y-20116500D01*
X16421866Y-20116500D01*
X16359684Y-20123255D01*
X16223295Y-20174385D01*
X16106739Y-20261739D01*
X16070824Y-20309660D01*
X16013967Y-20352173D01*
X15943149Y-20357199D01*
X15880855Y-20323139D01*
X15869183Y-20309670D01*
X15833261Y-20261739D01*
X15716705Y-20174385D01*
X15580316Y-20123255D01*
X15518134Y-20116500D01*
X14421866Y-20116500D01*
X14359684Y-20123255D01*
X14223295Y-20174385D01*
X14106739Y-20261739D01*
X14070824Y-20309660D01*
X14013967Y-20352173D01*
X13943149Y-20357199D01*
X13880855Y-20323139D01*
X13869183Y-20309670D01*
X13833261Y-20261739D01*
X13716705Y-20174385D01*
X13580316Y-20123255D01*
X13518134Y-20116500D01*
X12558617Y-20116500D01*
X12490496Y-20096498D01*
X12469522Y-20079595D01*
X12298163Y-19908236D01*
X12290623Y-19899950D01*
X12286511Y-19893471D01*
X12236859Y-19846845D01*
X12234018Y-19844091D01*
X12214281Y-19824354D01*
X12211084Y-19821874D01*
X12202062Y-19814169D01*
X12169832Y-19783903D01*
X12162886Y-19780084D01*
X12162883Y-19780082D01*
X12152077Y-19774141D01*
X12135558Y-19763290D01*
X12129478Y-19758574D01*
X12119552Y-19750875D01*
X12112283Y-19747730D01*
X12112279Y-19747727D01*
X12078974Y-19733315D01*
X12068324Y-19728098D01*
X12029571Y-19706794D01*
X12009948Y-19701756D01*
X11991245Y-19695352D01*
X11979931Y-19690456D01*
X11979930Y-19690456D01*
X11972656Y-19687308D01*
X11964833Y-19686069D01*
X11964823Y-19686066D01*
X11928987Y-19680390D01*
X11917367Y-19677984D01*
X11882222Y-19668961D01*
X11882221Y-19668961D01*
X11874541Y-19666989D01*
X11854287Y-19666989D01*
X11834576Y-19665438D01*
X11822397Y-19663509D01*
X11814568Y-19662269D01*
X11806676Y-19663015D01*
X11770550Y-19666430D01*
X11758692Y-19666989D01*
X11710083Y-19666989D01*
X11641962Y-19646987D01*
X11620988Y-19630084D01*
X8165405Y-16174500D01*
X8131379Y-16112188D01*
X8128500Y-16085405D01*
X8128500Y-15476866D01*
X8121745Y-15414684D01*
X8070615Y-15278295D01*
X7983261Y-15161739D01*
X7935340Y-15125824D01*
X7892827Y-15068967D01*
X7887801Y-14998149D01*
X7921861Y-14935855D01*
X7935330Y-14924183D01*
X7983261Y-14888261D01*
X8070615Y-14771705D01*
X8074584Y-14761118D01*
X8082401Y-14740269D01*
X8125043Y-14683505D01*
X8191605Y-14658806D01*
X8200382Y-14658500D01*
X15225792Y-14658500D01*
X15293913Y-14678502D01*
X15314887Y-14695405D01*
X16976245Y-16356764D01*
X16983785Y-16365050D01*
X16987897Y-16371529D01*
X16993674Y-16376954D01*
X17037548Y-16418154D01*
X17040390Y-16420909D01*
X17060127Y-16440646D01*
X17063324Y-16443126D01*
X17072344Y-16450829D01*
X17104576Y-16481097D01*
X17111522Y-16484916D01*
X17111525Y-16484918D01*
X17122331Y-16490859D01*
X17138850Y-16501710D01*
X17154856Y-16514125D01*
X17162125Y-16517270D01*
X17162129Y-16517273D01*
X17195434Y-16531685D01*
X17206084Y-16536902D01*
X17244837Y-16558206D01*
X17252512Y-16560177D01*
X17252513Y-16560177D01*
X17264459Y-16563244D01*
X17283163Y-16569648D01*
X17283323Y-16569717D01*
X17301752Y-16577692D01*
X17309575Y-16578931D01*
X17309585Y-16578934D01*
X17345421Y-16584610D01*
X17357041Y-16587016D01*
X17388856Y-16595184D01*
X17399867Y-16598011D01*
X17420121Y-16598011D01*
X17439831Y-16599562D01*
X17459840Y-16602731D01*
X17467732Y-16601985D01*
X17486477Y-16600213D01*
X17503859Y-16598570D01*
X17515716Y-16598011D01*
X18801722Y-16598011D01*
X18812905Y-16598538D01*
X18820398Y-16600213D01*
X18828324Y-16599964D01*
X18828325Y-16599964D01*
X18888475Y-16598073D01*
X18892434Y-16598011D01*
X18920345Y-16598011D01*
X18924280Y-16597514D01*
X18924345Y-16597506D01*
X18936182Y-16596573D01*
X18968440Y-16595559D01*
X18972459Y-16595433D01*
X18980378Y-16595184D01*
X18999832Y-16589532D01*
X19019189Y-16585524D01*
X19031419Y-16583979D01*
X19031420Y-16583979D01*
X19039286Y-16582985D01*
X19046657Y-16580066D01*
X19046659Y-16580066D01*
X19080401Y-16566707D01*
X19091631Y-16562862D01*
X19126472Y-16552740D01*
X19126473Y-16552740D01*
X19134082Y-16550529D01*
X19140901Y-16546496D01*
X19140906Y-16546494D01*
X19151517Y-16540218D01*
X19169265Y-16531523D01*
X19188106Y-16524063D01*
X19208575Y-16509192D01*
X19223876Y-16498075D01*
X19233796Y-16491559D01*
X19265024Y-16473091D01*
X19265027Y-16473089D01*
X19271851Y-16469053D01*
X19286172Y-16454732D01*
X19301206Y-16441891D01*
X19311183Y-16434642D01*
X19317596Y-16429983D01*
X19345787Y-16395906D01*
X19353777Y-16387127D01*
X19596405Y-16144499D01*
X19658717Y-16110473D01*
X19729532Y-16115538D01*
X19786368Y-16158085D01*
X19811179Y-16224605D01*
X19811500Y-16233594D01*
X19811500Y-16573134D01*
X19818255Y-16635316D01*
X19869385Y-16771705D01*
X19956739Y-16888261D01*
X20004660Y-16924176D01*
X20047173Y-16981033D01*
X20052199Y-17051851D01*
X20018139Y-17114145D01*
X20004670Y-17125817D01*
X19956739Y-17161739D01*
X19869385Y-17278295D01*
X19818255Y-17414684D01*
X19811500Y-17476866D01*
X19811500Y-18573134D01*
X19818255Y-18635316D01*
X19869385Y-18771705D01*
X19956739Y-18888261D01*
X19963919Y-18893642D01*
X20005074Y-18924486D01*
X20047589Y-18981345D01*
X20052615Y-19052164D01*
X20018555Y-19114457D01*
X20005075Y-19126138D01*
X19964274Y-19156717D01*
X19951715Y-19169276D01*
X19875214Y-19271351D01*
X19866676Y-19286946D01*
X19821522Y-19407394D01*
X19817895Y-19422649D01*
X19812369Y-19473514D01*
X19812000Y-19480328D01*
X19812000Y-19752885D01*
X19816475Y-19768124D01*
X19817865Y-19769329D01*
X19825548Y-19771000D01*
X23131790Y-19771000D01*
X23199911Y-19791002D01*
X23220885Y-19807905D01*
X23299619Y-19886639D01*
X23446301Y-19975472D01*
X23453548Y-19977743D01*
X23453550Y-19977744D01*
X23499951Y-19992285D01*
X23609938Y-20026753D01*
X23683365Y-20033500D01*
X23686263Y-20033500D01*
X23940665Y-20033499D01*
X24196634Y-20033499D01*
X24199492Y-20033236D01*
X24199501Y-20033236D01*
X24235004Y-20029974D01*
X24270062Y-20026753D01*
X24278754Y-20024029D01*
X24426450Y-19977744D01*
X24426452Y-19977743D01*
X24433699Y-19975472D01*
X24580381Y-19886639D01*
X24676259Y-19790761D01*
X24738571Y-19756735D01*
X24809386Y-19761800D01*
X24854449Y-19790761D01*
X24944557Y-19880869D01*
X24956426Y-19890176D01*
X25090012Y-19971079D01*
X25103757Y-19977285D01*
X25253644Y-20024256D01*
X25266694Y-20026869D01*
X25321586Y-20031913D01*
X25333124Y-20028525D01*
X25334329Y-20027135D01*
X25336000Y-20019452D01*
X25336000Y-20014884D01*
X25844000Y-20014884D01*
X25848475Y-20030123D01*
X25849865Y-20031328D01*
X25854294Y-20032291D01*
X25913315Y-20026868D01*
X25926351Y-20024257D01*
X26076243Y-19977285D01*
X26089988Y-19971079D01*
X26223574Y-19890176D01*
X26235443Y-19880869D01*
X26345869Y-19770443D01*
X26355176Y-19758574D01*
X26436079Y-19624988D01*
X26442285Y-19611243D01*
X26489256Y-19461356D01*
X26491869Y-19448306D01*
X26497734Y-19384479D01*
X26498000Y-19378691D01*
X26498000Y-19322115D01*
X26493525Y-19306876D01*
X26492135Y-19305671D01*
X26484452Y-19304000D01*
X25862115Y-19304000D01*
X25846876Y-19308475D01*
X25845671Y-19309865D01*
X25844000Y-19317548D01*
X25844000Y-20014884D01*
X25336000Y-20014884D01*
X25336000Y-18777885D01*
X25844000Y-18777885D01*
X25848475Y-18793124D01*
X25849865Y-18794329D01*
X25857548Y-18796000D01*
X26479884Y-18796000D01*
X26495123Y-18791525D01*
X26496328Y-18790135D01*
X26497999Y-18782452D01*
X26497999Y-18721295D01*
X26497736Y-18715546D01*
X26491868Y-18651685D01*
X26489257Y-18638649D01*
X26442285Y-18488757D01*
X26436079Y-18475012D01*
X26355176Y-18341426D01*
X26345869Y-18329557D01*
X26235443Y-18219131D01*
X26223574Y-18209824D01*
X26089988Y-18128921D01*
X26076243Y-18122715D01*
X25926356Y-18075744D01*
X25913306Y-18073131D01*
X25858414Y-18068087D01*
X25846876Y-18071475D01*
X25845671Y-18072865D01*
X25844000Y-18080548D01*
X25844000Y-18777885D01*
X25336000Y-18777885D01*
X25336000Y-18085116D01*
X25331525Y-18069877D01*
X25330135Y-18068672D01*
X25325706Y-18067709D01*
X25266685Y-18073132D01*
X25253649Y-18075743D01*
X25103757Y-18122715D01*
X25090012Y-18128921D01*
X24956426Y-18209824D01*
X24944557Y-18219131D01*
X24854449Y-18309239D01*
X24792137Y-18343265D01*
X24721322Y-18338200D01*
X24676259Y-18309239D01*
X24580381Y-18213361D01*
X24433699Y-18124528D01*
X24426452Y-18122257D01*
X24426450Y-18122256D01*
X24337880Y-18094500D01*
X24270062Y-18073247D01*
X24196635Y-18066500D01*
X24178527Y-18066500D01*
X23904595Y-18066501D01*
X23836476Y-18046499D01*
X23815500Y-18029596D01*
X23632066Y-17846161D01*
X23418647Y-17632742D01*
X23411113Y-17624463D01*
X23407000Y-17617982D01*
X23368248Y-17581591D01*
X23332282Y-17520379D01*
X23328500Y-17489741D01*
X23328500Y-17476866D01*
X23321745Y-17414684D01*
X23270615Y-17278295D01*
X23183261Y-17161739D01*
X23135340Y-17125824D01*
X23092827Y-17068967D01*
X23087801Y-16998149D01*
X23121861Y-16935855D01*
X23135330Y-16924183D01*
X23183261Y-16888261D01*
X23232424Y-16822663D01*
X23289282Y-16780149D01*
X23359445Y-16774983D01*
X23399513Y-16783500D01*
X23590487Y-16783500D01*
X23596939Y-16782128D01*
X23596944Y-16782128D01*
X23735660Y-16752642D01*
X23777288Y-16743794D01*
X23783321Y-16741108D01*
X23783324Y-16741107D01*
X23838384Y-16716593D01*
X23908751Y-16707159D01*
X23954903Y-16723924D01*
X24074803Y-16796537D01*
X24081301Y-16800472D01*
X24088548Y-16802743D01*
X24088550Y-16802744D01*
X24152115Y-16822664D01*
X24244938Y-16851753D01*
X24318365Y-16858500D01*
X24321263Y-16858500D01*
X24575665Y-16858499D01*
X24831634Y-16858499D01*
X24834492Y-16858236D01*
X24834501Y-16858236D01*
X24870004Y-16854974D01*
X24905062Y-16851753D01*
X24911447Y-16849752D01*
X25061450Y-16802744D01*
X25061452Y-16802743D01*
X25068699Y-16800472D01*
X25215381Y-16711639D01*
X25310905Y-16616115D01*
X25373217Y-16582089D01*
X25444032Y-16587154D01*
X25489095Y-16616115D01*
X25584619Y-16711639D01*
X25731301Y-16800472D01*
X25738548Y-16802743D01*
X25738550Y-16802744D01*
X25802115Y-16822664D01*
X25894938Y-16851753D01*
X25968365Y-16858500D01*
X25971263Y-16858500D01*
X26225665Y-16858499D01*
X26481634Y-16858499D01*
X26484492Y-16858236D01*
X26484501Y-16858236D01*
X26520004Y-16854974D01*
X26555062Y-16851753D01*
X26561447Y-16849752D01*
X26711450Y-16802744D01*
X26711452Y-16802743D01*
X26718699Y-16800472D01*
X26725197Y-16796537D01*
X26845097Y-16723924D01*
X26913727Y-16705745D01*
X26961616Y-16716593D01*
X27016676Y-16741107D01*
X27016679Y-16741108D01*
X27022712Y-16743794D01*
X27064340Y-16752642D01*
X27203056Y-16782128D01*
X27203061Y-16782128D01*
X27209513Y-16783500D01*
X27400487Y-16783500D01*
X27406939Y-16782128D01*
X27406944Y-16782128D01*
X27545660Y-16752642D01*
X27587288Y-16743794D01*
X27593321Y-16741108D01*
X27593324Y-16741107D01*
X27648384Y-16716593D01*
X27718751Y-16707159D01*
X27764903Y-16723924D01*
X27884803Y-16796537D01*
X27891301Y-16800472D01*
X27898548Y-16802743D01*
X27898550Y-16802744D01*
X27962115Y-16822664D01*
X28054938Y-16851753D01*
X28128365Y-16858500D01*
X28131263Y-16858500D01*
X28385665Y-16858499D01*
X28641634Y-16858499D01*
X28644492Y-16858236D01*
X28644501Y-16858236D01*
X28692255Y-16853848D01*
X28715062Y-16851753D01*
X28721447Y-16849752D01*
X28782346Y-16830668D01*
X28853331Y-16829384D01*
X28909120Y-16861807D01*
X29114080Y-17066767D01*
X29121624Y-17075057D01*
X29125737Y-17081538D01*
X29131514Y-17086963D01*
X29175404Y-17128178D01*
X29178246Y-17130933D01*
X29197967Y-17150654D01*
X29201162Y-17153132D01*
X29210184Y-17160838D01*
X29242416Y-17191106D01*
X29249365Y-17194926D01*
X29260169Y-17200866D01*
X29276693Y-17211719D01*
X29292696Y-17224133D01*
X29333280Y-17241696D01*
X29343910Y-17246903D01*
X29382677Y-17268215D01*
X29390354Y-17270186D01*
X29390359Y-17270188D01*
X29402295Y-17273252D01*
X29421003Y-17279657D01*
X29439592Y-17287701D01*
X29447420Y-17288941D01*
X29447427Y-17288943D01*
X29483261Y-17294619D01*
X29494881Y-17297025D01*
X29526696Y-17305193D01*
X29537707Y-17308020D01*
X29557961Y-17308020D01*
X29577671Y-17309571D01*
X29597680Y-17312740D01*
X29605572Y-17311994D01*
X29624317Y-17310222D01*
X29641699Y-17308579D01*
X29653556Y-17308020D01*
X30373496Y-17308020D01*
X30384679Y-17308547D01*
X30392172Y-17310222D01*
X30400098Y-17309973D01*
X30400099Y-17309973D01*
X30460249Y-17308082D01*
X30464208Y-17308020D01*
X30492119Y-17308020D01*
X30496054Y-17307523D01*
X30496119Y-17307515D01*
X30507956Y-17306582D01*
X30540214Y-17305568D01*
X30544233Y-17305442D01*
X30552152Y-17305193D01*
X30571606Y-17299541D01*
X30590963Y-17295533D01*
X30603193Y-17293988D01*
X30603194Y-17293988D01*
X30611060Y-17292994D01*
X30618431Y-17290075D01*
X30618433Y-17290075D01*
X30652175Y-17276716D01*
X30663405Y-17272871D01*
X30698246Y-17262749D01*
X30698247Y-17262749D01*
X30705856Y-17260538D01*
X30712675Y-17256505D01*
X30712680Y-17256503D01*
X30723291Y-17250227D01*
X30741039Y-17241532D01*
X30759880Y-17234072D01*
X30780250Y-17219273D01*
X30795650Y-17208084D01*
X30805570Y-17201568D01*
X30836798Y-17183100D01*
X30836801Y-17183098D01*
X30843625Y-17179062D01*
X30857946Y-17164741D01*
X30872980Y-17151900D01*
X30874695Y-17150654D01*
X30889370Y-17139992D01*
X30917561Y-17105915D01*
X30925551Y-17097136D01*
X31507247Y-16515440D01*
X31515537Y-16507896D01*
X31522018Y-16503783D01*
X31541056Y-16483510D01*
X31568658Y-16454116D01*
X31571413Y-16451274D01*
X31591135Y-16431552D01*
X31593612Y-16428359D01*
X31601317Y-16419338D01*
X31603141Y-16417396D01*
X31631586Y-16387104D01*
X31637166Y-16376954D01*
X31641346Y-16369351D01*
X31652202Y-16352824D01*
X31659757Y-16343085D01*
X31659758Y-16343083D01*
X31664614Y-16336823D01*
X31682174Y-16296243D01*
X31687391Y-16285595D01*
X31704875Y-16253792D01*
X31704876Y-16253790D01*
X31708695Y-16246843D01*
X31713733Y-16227220D01*
X31720137Y-16208517D01*
X31725033Y-16197203D01*
X31725033Y-16197202D01*
X31728181Y-16189928D01*
X31729420Y-16182105D01*
X31729423Y-16182095D01*
X31735099Y-16146259D01*
X31737505Y-16134639D01*
X31746528Y-16099494D01*
X31746528Y-16099493D01*
X31748500Y-16091813D01*
X31748500Y-16071559D01*
X31750051Y-16051848D01*
X31751980Y-16039669D01*
X31753220Y-16031840D01*
X31749059Y-15987821D01*
X31748500Y-15975964D01*
X31748500Y-14672524D01*
X31768502Y-14604403D01*
X31780858Y-14588221D01*
X31854040Y-14506944D01*
X31912314Y-14406010D01*
X31946223Y-14347279D01*
X31946224Y-14347278D01*
X31949527Y-14341556D01*
X32008542Y-14159928D01*
X32011814Y-14128803D01*
X32027814Y-13976565D01*
X32028504Y-13970000D01*
X32021805Y-13906263D01*
X32009232Y-13786635D01*
X32009232Y-13786633D01*
X32008542Y-13780072D01*
X31949527Y-13598444D01*
X31920903Y-13548865D01*
X31857341Y-13438774D01*
X31854040Y-13433056D01*
X31845972Y-13424095D01*
X31730675Y-13296045D01*
X31730674Y-13296044D01*
X31726253Y-13291134D01*
X31610526Y-13207053D01*
X31577094Y-13182763D01*
X31577093Y-13182762D01*
X31571752Y-13178882D01*
X31565724Y-13176198D01*
X31565722Y-13176197D01*
X31403319Y-13103891D01*
X31403318Y-13103891D01*
X31397288Y-13101206D01*
X31303888Y-13081353D01*
X31216944Y-13062872D01*
X31216939Y-13062872D01*
X31210487Y-13061500D01*
X31019513Y-13061500D01*
X31013061Y-13062872D01*
X31013056Y-13062872D01*
X30926112Y-13081353D01*
X30832712Y-13101206D01*
X30826682Y-13103891D01*
X30826681Y-13103891D01*
X30719446Y-13151635D01*
X30658248Y-13178882D01*
X30657323Y-13176804D01*
X30598512Y-13191076D01*
X30531419Y-13167859D01*
X30487528Y-13112055D01*
X30478500Y-13065218D01*
X30478500Y-10170427D01*
X30498502Y-10102306D01*
X30539618Y-10062550D01*
X30542994Y-10060896D01*
X30724860Y-9931173D01*
X30883096Y-9773489D01*
X31013453Y-9592077D01*
X31017611Y-9583665D01*
X31110136Y-9396453D01*
X31110137Y-9396451D01*
X31112430Y-9391811D01*
X31172621Y-9193699D01*
X31175865Y-9183023D01*
X31175865Y-9183021D01*
X31177370Y-9178069D01*
X31206529Y-8956590D01*
X31207321Y-8924173D01*
X31208074Y-8893365D01*
X31208074Y-8893361D01*
X31208156Y-8890000D01*
X31189852Y-8667361D01*
X31135431Y-8450702D01*
X31046354Y-8245840D01*
X30987240Y-8154463D01*
X30927822Y-8062617D01*
X30927820Y-8062614D01*
X30925014Y-8058277D01*
X30774670Y-7893051D01*
X30770619Y-7889852D01*
X30770615Y-7889848D01*
X30603414Y-7757800D01*
X30603410Y-7757798D01*
X30599359Y-7754598D01*
X30557569Y-7731529D01*
X30507598Y-7681097D01*
X30492826Y-7611654D01*
X30517942Y-7545248D01*
X30545293Y-7518642D01*
X30594247Y-7483723D01*
X30602648Y-7473023D01*
X30595660Y-7459870D01*
X29857812Y-6722022D01*
X29843868Y-6714408D01*
X29842035Y-6714539D01*
X29835420Y-6718790D01*
X29091737Y-7462473D01*
X29084977Y-7474853D01*
X29090258Y-7481907D01*
X29136969Y-7509203D01*
X29185693Y-7560841D01*
X29198764Y-7630624D01*
X29172033Y-7696396D01*
X29131584Y-7729752D01*
X29118607Y-7736507D01*
X29114474Y-7739610D01*
X29114471Y-7739612D01*
X28944100Y-7867530D01*
X28939965Y-7870635D01*
X28936393Y-7874373D01*
X28813503Y-8002970D01*
X28785629Y-8032138D01*
X28678201Y-8189621D01*
X28623293Y-8234621D01*
X28552768Y-8242792D01*
X28489021Y-8211538D01*
X28468324Y-8187054D01*
X28387822Y-8062617D01*
X28387820Y-8062614D01*
X28385014Y-8058277D01*
X28234670Y-7893051D01*
X28230619Y-7889852D01*
X28230615Y-7889848D01*
X28063414Y-7757800D01*
X28063410Y-7757798D01*
X28059359Y-7754598D01*
X28018053Y-7731796D01*
X27968084Y-7681364D01*
X27953312Y-7611921D01*
X27978428Y-7545516D01*
X28005780Y-7518909D01*
X28067544Y-7474853D01*
X28184860Y-7391173D01*
X28195572Y-7380499D01*
X28339435Y-7237137D01*
X28343096Y-7233489D01*
X28473453Y-7052077D01*
X28474640Y-7052930D01*
X28521960Y-7009362D01*
X28591897Y-6997145D01*
X28657338Y-7024678D01*
X28685166Y-7056512D01*
X28711459Y-7099419D01*
X28721916Y-7108880D01*
X28730694Y-7105096D01*
X29755905Y-6079885D01*
X29818217Y-6045859D01*
X29889032Y-6050924D01*
X29934095Y-6079885D01*
X30955474Y-7101264D01*
X30967484Y-7107823D01*
X30979223Y-7098855D01*
X31010004Y-7056019D01*
X31015315Y-7047180D01*
X31109670Y-6856267D01*
X31113469Y-6846672D01*
X31175376Y-6642915D01*
X31177555Y-6632834D01*
X31205590Y-6419887D01*
X31206109Y-6413212D01*
X31207572Y-6353364D01*
X31207378Y-6346646D01*
X31189781Y-6132604D01*
X31188096Y-6122424D01*
X31136214Y-5915875D01*
X31132894Y-5906124D01*
X31084252Y-5794253D01*
X31075433Y-5723806D01*
X31106099Y-5659775D01*
X31166516Y-5622487D01*
X31199802Y-5618011D01*
X34025500Y-5618011D01*
X34093621Y-5638013D01*
X34140114Y-5691669D01*
X34151500Y-5744011D01*
X34151500Y-15656233D01*
X34150973Y-15667416D01*
X34149298Y-15674909D01*
X34149547Y-15682835D01*
X34149547Y-15682836D01*
X34151438Y-15742986D01*
X34151500Y-15746945D01*
X34151500Y-15774856D01*
X34151997Y-15778790D01*
X34151997Y-15778791D01*
X34152005Y-15778856D01*
X34152938Y-15790693D01*
X34154327Y-15834889D01*
X34159978Y-15854339D01*
X34163987Y-15873700D01*
X34166526Y-15893797D01*
X34169445Y-15901168D01*
X34169445Y-15901170D01*
X34182804Y-15934912D01*
X34186649Y-15946142D01*
X34198982Y-15988593D01*
X34203015Y-15995412D01*
X34203017Y-15995417D01*
X34209293Y-16006028D01*
X34217988Y-16023776D01*
X34225448Y-16042617D01*
X34230110Y-16049033D01*
X34230110Y-16049034D01*
X34251436Y-16078387D01*
X34257952Y-16088307D01*
X34274057Y-16115538D01*
X34280458Y-16126362D01*
X34294779Y-16140683D01*
X34307619Y-16155716D01*
X34319528Y-16172107D01*
X34341070Y-16189928D01*
X34353605Y-16200298D01*
X34362384Y-16208288D01*
X35881343Y-17727247D01*
X35888887Y-17735537D01*
X35893000Y-17742018D01*
X35898777Y-17747443D01*
X35942667Y-17788658D01*
X35945509Y-17791413D01*
X35965231Y-17811135D01*
X35968373Y-17813572D01*
X35968433Y-17813619D01*
X35977445Y-17821317D01*
X36003036Y-17845347D01*
X36009679Y-17851586D01*
X36016622Y-17855403D01*
X36027431Y-17861345D01*
X36043953Y-17872198D01*
X36059959Y-17884614D01*
X36067237Y-17887764D01*
X36067238Y-17887764D01*
X36100537Y-17902174D01*
X36111187Y-17907391D01*
X36149940Y-17928695D01*
X36157615Y-17930666D01*
X36157616Y-17930666D01*
X36169562Y-17933733D01*
X36188267Y-17940137D01*
X36206855Y-17948181D01*
X36214678Y-17949420D01*
X36214688Y-17949423D01*
X36250524Y-17955099D01*
X36262144Y-17957505D01*
X36287096Y-17963911D01*
X36304970Y-17968500D01*
X36325224Y-17968500D01*
X36344934Y-17970051D01*
X36364943Y-17973220D01*
X36372835Y-17972474D01*
X36408961Y-17969059D01*
X36420819Y-17968500D01*
X38960500Y-17968500D01*
X39028621Y-17988502D01*
X39075114Y-18042158D01*
X39086500Y-18094500D01*
X39086500Y-18183134D01*
X39093255Y-18245316D01*
X39144385Y-18381705D01*
X39231739Y-18498261D01*
X39348295Y-18585615D01*
X39484684Y-18636745D01*
X39546866Y-18643500D01*
X41043134Y-18643500D01*
X41105316Y-18636745D01*
X41241705Y-18585615D01*
X41358261Y-18498261D01*
X41445615Y-18381705D01*
X41496745Y-18245316D01*
X41503500Y-18183134D01*
X41503500Y-18179669D01*
X43587001Y-18179669D01*
X43587371Y-18186490D01*
X43592895Y-18237352D01*
X43596521Y-18252604D01*
X43641676Y-18373054D01*
X43650214Y-18388649D01*
X43726715Y-18490724D01*
X43739276Y-18503285D01*
X43841351Y-18579786D01*
X43856946Y-18588324D01*
X43977394Y-18633478D01*
X43992649Y-18637105D01*
X44043514Y-18642631D01*
X44050328Y-18643000D01*
X44522885Y-18643000D01*
X44538124Y-18638525D01*
X44539329Y-18637135D01*
X44541000Y-18629452D01*
X44541000Y-18624884D01*
X45049000Y-18624884D01*
X45053475Y-18640123D01*
X45054865Y-18641328D01*
X45062548Y-18642999D01*
X45539669Y-18642999D01*
X45546490Y-18642629D01*
X45597352Y-18637105D01*
X45612604Y-18633479D01*
X45733054Y-18588324D01*
X45748649Y-18579786D01*
X45850724Y-18503285D01*
X45863285Y-18490724D01*
X45939786Y-18388649D01*
X45948324Y-18373054D01*
X45993478Y-18252606D01*
X45997105Y-18237351D01*
X46002631Y-18186486D01*
X46003000Y-18179672D01*
X46003000Y-17607115D01*
X45998525Y-17591876D01*
X45997135Y-17590671D01*
X45989452Y-17589000D01*
X45067115Y-17589000D01*
X45051876Y-17593475D01*
X45050671Y-17594865D01*
X45049000Y-17602548D01*
X45049000Y-18624884D01*
X44541000Y-18624884D01*
X44541000Y-17607115D01*
X44536525Y-17591876D01*
X44535135Y-17590671D01*
X44527452Y-17589000D01*
X43605116Y-17589000D01*
X43589877Y-17593475D01*
X43588672Y-17594865D01*
X43587001Y-17602548D01*
X43587001Y-18179669D01*
X41503500Y-18179669D01*
X41503500Y-17062885D01*
X43587000Y-17062885D01*
X43591475Y-17078124D01*
X43592865Y-17079329D01*
X43600548Y-17081000D01*
X44522885Y-17081000D01*
X44538124Y-17076525D01*
X44539329Y-17075135D01*
X44541000Y-17067452D01*
X44541000Y-17062885D01*
X45049000Y-17062885D01*
X45053475Y-17078124D01*
X45054865Y-17079329D01*
X45062548Y-17081000D01*
X45984884Y-17081000D01*
X46000123Y-17076525D01*
X46001328Y-17075135D01*
X46002999Y-17067452D01*
X46002999Y-16490331D01*
X46002629Y-16483510D01*
X45997105Y-16432648D01*
X45993479Y-16417396D01*
X45948324Y-16296946D01*
X45939786Y-16281351D01*
X45863285Y-16179276D01*
X45850724Y-16166715D01*
X45748649Y-16090214D01*
X45733054Y-16081676D01*
X45612606Y-16036522D01*
X45597351Y-16032895D01*
X45546486Y-16027369D01*
X45539672Y-16027000D01*
X45067115Y-16027000D01*
X45051876Y-16031475D01*
X45050671Y-16032865D01*
X45049000Y-16040548D01*
X45049000Y-17062885D01*
X44541000Y-17062885D01*
X44541000Y-16045116D01*
X44536525Y-16029877D01*
X44535135Y-16028672D01*
X44527452Y-16027001D01*
X44050331Y-16027001D01*
X44043510Y-16027371D01*
X43992648Y-16032895D01*
X43977396Y-16036521D01*
X43856946Y-16081676D01*
X43841351Y-16090214D01*
X43739276Y-16166715D01*
X43726715Y-16179276D01*
X43650214Y-16281351D01*
X43641676Y-16296946D01*
X43596522Y-16417394D01*
X43592895Y-16432649D01*
X43587369Y-16483514D01*
X43587000Y-16490328D01*
X43587000Y-17062885D01*
X41503500Y-17062885D01*
X41503500Y-16486866D01*
X41496745Y-16424684D01*
X41445615Y-16288295D01*
X41358261Y-16171739D01*
X41241705Y-16084385D01*
X41105316Y-16033255D01*
X41043134Y-16026500D01*
X41043258Y-16025361D01*
X40980766Y-16003289D01*
X40937232Y-15947206D01*
X40928500Y-15901116D01*
X40928500Y-10768884D01*
X40948502Y-10700763D01*
X41002158Y-10654270D01*
X41043207Y-10644174D01*
X41043134Y-10643500D01*
X41105316Y-10636745D01*
X41241705Y-10585615D01*
X41358261Y-10498261D01*
X41445615Y-10381705D01*
X41496745Y-10245316D01*
X41503500Y-10183134D01*
X41503500Y-10179669D01*
X43587001Y-10179669D01*
X43587371Y-10186490D01*
X43592895Y-10237352D01*
X43596521Y-10252604D01*
X43641676Y-10373054D01*
X43650214Y-10388649D01*
X43726715Y-10490724D01*
X43739276Y-10503285D01*
X43841351Y-10579786D01*
X43856946Y-10588324D01*
X43977394Y-10633478D01*
X43992649Y-10637105D01*
X44043514Y-10642631D01*
X44050328Y-10643000D01*
X44522885Y-10643000D01*
X44538124Y-10638525D01*
X44539329Y-10637135D01*
X44541000Y-10629452D01*
X44541000Y-10624884D01*
X45049000Y-10624884D01*
X45053475Y-10640123D01*
X45054865Y-10641328D01*
X45062548Y-10642999D01*
X45539669Y-10642999D01*
X45546490Y-10642629D01*
X45597352Y-10637105D01*
X45612604Y-10633479D01*
X45733054Y-10588324D01*
X45748649Y-10579786D01*
X45850724Y-10503285D01*
X45863285Y-10490724D01*
X45939786Y-10388649D01*
X45948324Y-10373054D01*
X45993478Y-10252606D01*
X45997105Y-10237351D01*
X46002631Y-10186486D01*
X46003000Y-10179672D01*
X46003000Y-9607115D01*
X45998525Y-9591876D01*
X45997135Y-9590671D01*
X45989452Y-9589000D01*
X45067115Y-9589000D01*
X45051876Y-9593475D01*
X45050671Y-9594865D01*
X45049000Y-9602548D01*
X45049000Y-10624884D01*
X44541000Y-10624884D01*
X44541000Y-9607115D01*
X44536525Y-9591876D01*
X44535135Y-9590671D01*
X44527452Y-9589000D01*
X43605116Y-9589000D01*
X43589877Y-9593475D01*
X43588672Y-9594865D01*
X43587001Y-9602548D01*
X43587001Y-10179669D01*
X41503500Y-10179669D01*
X41503500Y-9074595D01*
X41523502Y-9006474D01*
X41540405Y-8985500D01*
X42152253Y-8373652D01*
X42160539Y-8366112D01*
X42167018Y-8362000D01*
X42176641Y-8351753D01*
X42213643Y-8312349D01*
X42216398Y-8309507D01*
X42236135Y-8289770D01*
X42238615Y-8286573D01*
X42246320Y-8277551D01*
X42271159Y-8251100D01*
X42276586Y-8245321D01*
X42280405Y-8238375D01*
X42280407Y-8238372D01*
X42286348Y-8227566D01*
X42297199Y-8211047D01*
X42304758Y-8201301D01*
X42309614Y-8195041D01*
X42312759Y-8187772D01*
X42312762Y-8187768D01*
X42327174Y-8154463D01*
X42332391Y-8143813D01*
X42353695Y-8105060D01*
X42358057Y-8088073D01*
X42394371Y-8027069D01*
X42413793Y-8012268D01*
X42437482Y-7997608D01*
X42437483Y-7997607D01*
X42443713Y-7993752D01*
X42448887Y-7988569D01*
X42454623Y-7984023D01*
X42456055Y-7985830D01*
X42508575Y-7957098D01*
X42579395Y-7962108D01*
X42615853Y-7985499D01*
X42616683Y-7984448D01*
X42633840Y-7997998D01*
X42766880Y-8080004D01*
X42780061Y-8086151D01*
X42928814Y-8135491D01*
X42942190Y-8138358D01*
X43033097Y-8147672D01*
X43038126Y-8147929D01*
X43053124Y-8143525D01*
X43054329Y-8142135D01*
X43056000Y-8134452D01*
X43056000Y-8129885D01*
X43564000Y-8129885D01*
X43568475Y-8145124D01*
X43594170Y-8167389D01*
X43594168Y-8167392D01*
X43608445Y-8175186D01*
X43642475Y-8237496D01*
X43637338Y-8308518D01*
X43596522Y-8417394D01*
X43592895Y-8432649D01*
X43587369Y-8483514D01*
X43587000Y-8490328D01*
X43587000Y-9062885D01*
X43591475Y-9078124D01*
X43592865Y-9079329D01*
X43600548Y-9081000D01*
X44522885Y-9081000D01*
X44538124Y-9076525D01*
X44539329Y-9075135D01*
X44541000Y-9067452D01*
X44541000Y-9062885D01*
X45049000Y-9062885D01*
X45053475Y-9078124D01*
X45054865Y-9079329D01*
X45062548Y-9081000D01*
X45984884Y-9081000D01*
X46000123Y-9076525D01*
X46001328Y-9075135D01*
X46002999Y-9067452D01*
X46002999Y-8490331D01*
X46002629Y-8483510D01*
X45997105Y-8432648D01*
X45993479Y-8417396D01*
X45948324Y-8296946D01*
X45939786Y-8281351D01*
X45863285Y-8179276D01*
X45850724Y-8166715D01*
X45748649Y-8090214D01*
X45733054Y-8081676D01*
X45612606Y-8036522D01*
X45597351Y-8032895D01*
X45546486Y-8027369D01*
X45539672Y-8027000D01*
X45067115Y-8027000D01*
X45051876Y-8031475D01*
X45050671Y-8032865D01*
X45049000Y-8040548D01*
X45049000Y-9062885D01*
X44541000Y-9062885D01*
X44541000Y-8045116D01*
X44536525Y-8029877D01*
X44535135Y-8028672D01*
X44527452Y-8027001D01*
X44244536Y-8027001D01*
X44176415Y-8006999D01*
X44129922Y-7953343D01*
X44119818Y-7883069D01*
X44137276Y-7834885D01*
X44200004Y-7733120D01*
X44206151Y-7719939D01*
X44255491Y-7571186D01*
X44258358Y-7557810D01*
X44267672Y-7466903D01*
X44268000Y-7460487D01*
X44268000Y-7437115D01*
X44263525Y-7421876D01*
X44262135Y-7420671D01*
X44254452Y-7419000D01*
X43582115Y-7419000D01*
X43566876Y-7423475D01*
X43565671Y-7424865D01*
X43564000Y-7432548D01*
X43564000Y-8129885D01*
X43056000Y-8129885D01*
X43056000Y-6892885D01*
X43564000Y-6892885D01*
X43568475Y-6908124D01*
X43569865Y-6909329D01*
X43577548Y-6911000D01*
X44249885Y-6911000D01*
X44265124Y-6906525D01*
X44266329Y-6905135D01*
X44268000Y-6897452D01*
X44268000Y-6869562D01*
X44267663Y-6863047D01*
X44258106Y-6770943D01*
X44255212Y-6757544D01*
X44205619Y-6608893D01*
X44199445Y-6595714D01*
X44117212Y-6462827D01*
X44108176Y-6451426D01*
X43997571Y-6341014D01*
X43986160Y-6332002D01*
X43853120Y-6249996D01*
X43839939Y-6243849D01*
X43691186Y-6194509D01*
X43677810Y-6191642D01*
X43586903Y-6182328D01*
X43581874Y-6182071D01*
X43566876Y-6186475D01*
X43565671Y-6187865D01*
X43564000Y-6195548D01*
X43564000Y-6892885D01*
X43056000Y-6892885D01*
X43056000Y-6200115D01*
X43051525Y-6184876D01*
X43050135Y-6183671D01*
X43042452Y-6182000D01*
X43039562Y-6182000D01*
X43033047Y-6182337D01*
X42940943Y-6191894D01*
X42927544Y-6194788D01*
X42778893Y-6244381D01*
X42765714Y-6250555D01*
X42632827Y-6332788D01*
X42615689Y-6346371D01*
X42614159Y-6344441D01*
X42562120Y-6372903D01*
X42491301Y-6367887D01*
X42454383Y-6344201D01*
X42453628Y-6345157D01*
X42447882Y-6340619D01*
X42442702Y-6335448D01*
X42436471Y-6331607D01*
X42303331Y-6249538D01*
X42303329Y-6249537D01*
X42297101Y-6245698D01*
X42134757Y-6191851D01*
X42127920Y-6191151D01*
X42127918Y-6191150D01*
X42086599Y-6186917D01*
X42033732Y-6181500D01*
X41486268Y-6181500D01*
X41483022Y-6181837D01*
X41483018Y-6181837D01*
X41453730Y-6184876D01*
X41383981Y-6192113D01*
X41375963Y-6194788D01*
X41228676Y-6243927D01*
X41228674Y-6243928D01*
X41221732Y-6246244D01*
X41215508Y-6250096D01*
X41215507Y-6250096D01*
X41083787Y-6331607D01*
X41076287Y-6336248D01*
X41071114Y-6341430D01*
X41066182Y-6346371D01*
X40955448Y-6457298D01*
X40865698Y-6602899D01*
X40811851Y-6765243D01*
X40801500Y-6866268D01*
X40801500Y-7463732D01*
X40812113Y-7566019D01*
X40866244Y-7728268D01*
X40870094Y-7734490D01*
X40873202Y-7741125D01*
X40870588Y-7742349D01*
X40885936Y-7798074D01*
X40864790Y-7865848D01*
X40849049Y-7885047D01*
X40744501Y-7989595D01*
X40682189Y-8023621D01*
X40655406Y-8026500D01*
X39546866Y-8026500D01*
X39484684Y-8033255D01*
X39348295Y-8084385D01*
X39231739Y-8171739D01*
X39144385Y-8288295D01*
X39093255Y-8424684D01*
X39086500Y-8486866D01*
X39086500Y-10183134D01*
X39093255Y-10245316D01*
X39144385Y-10381705D01*
X39231739Y-10498261D01*
X39348295Y-10585615D01*
X39484684Y-10636745D01*
X39546866Y-10643500D01*
X39546742Y-10644639D01*
X39609234Y-10666711D01*
X39652768Y-10722794D01*
X39661500Y-10768884D01*
X39661500Y-15901116D01*
X39641498Y-15969237D01*
X39587842Y-16015730D01*
X39546793Y-16025826D01*
X39546866Y-16026500D01*
X39484684Y-16033255D01*
X39348295Y-16084385D01*
X39231739Y-16171739D01*
X39144385Y-16288295D01*
X39093255Y-16424684D01*
X39086500Y-16486866D01*
X39086500Y-16575500D01*
X39066498Y-16643621D01*
X39012842Y-16690114D01*
X38960500Y-16701500D01*
X36699594Y-16701500D01*
X36631473Y-16681498D01*
X36610499Y-16664595D01*
X35455405Y-15509500D01*
X35421379Y-15447188D01*
X35418500Y-15420405D01*
X35418500Y-14369500D01*
X35438502Y-14301379D01*
X35492158Y-14254886D01*
X35544500Y-14243500D01*
X35655487Y-14243500D01*
X35661939Y-14242128D01*
X35661944Y-14242128D01*
X35748887Y-14223647D01*
X35842288Y-14203794D01*
X35848319Y-14201109D01*
X36010722Y-14128803D01*
X36010724Y-14128802D01*
X36016752Y-14126118D01*
X36171253Y-14013866D01*
X36268139Y-13906263D01*
X36294621Y-13876852D01*
X36294622Y-13876851D01*
X36299040Y-13871944D01*
X36394527Y-13706556D01*
X36453542Y-13524928D01*
X36456806Y-13493879D01*
X36472814Y-13341565D01*
X36473504Y-13335000D01*
X36461803Y-13223668D01*
X36454232Y-13151635D01*
X36454232Y-13151633D01*
X36453542Y-13145072D01*
X36394527Y-12963444D01*
X36378599Y-12935855D01*
X36323292Y-12840062D01*
X36299040Y-12798056D01*
X36277792Y-12774457D01*
X36175675Y-12661045D01*
X36175674Y-12661044D01*
X36171253Y-12656134D01*
X36016752Y-12543882D01*
X35942771Y-12510944D01*
X35888675Y-12464964D01*
X35868020Y-12395837D01*
X35868020Y-4450074D01*
X35888022Y-4381953D01*
X35904925Y-4360979D01*
X36742826Y-3523078D01*
X36794241Y-3491939D01*
X36827637Y-3481474D01*
X36871450Y-3467744D01*
X36871452Y-3467743D01*
X36878699Y-3465472D01*
X37025381Y-3376639D01*
X37146639Y-3255381D01*
X37235472Y-3108699D01*
X37286753Y-2945062D01*
X37293500Y-2871635D01*
X37293499Y-2208366D01*
X37293234Y-2205474D01*
X37287364Y-2141592D01*
X37286753Y-2134938D01*
X37278407Y-2108307D01*
X37237744Y-1978550D01*
X37237743Y-1978548D01*
X37235472Y-1971301D01*
X37146639Y-1824619D01*
X37025381Y-1703361D01*
X37001888Y-1689133D01*
X36953983Y-1636735D01*
X36942010Y-1566755D01*
X36969772Y-1501412D01*
X37000858Y-1474214D01*
X37012173Y-1467212D01*
X37023574Y-1458176D01*
X37133986Y-1347571D01*
X37142998Y-1336160D01*
X37225004Y-1203120D01*
X37231151Y-1189939D01*
X37280491Y-1041186D01*
X37283358Y-1027810D01*
X37292672Y-936903D01*
X37293000Y-930487D01*
X37293000Y-907115D01*
X37288525Y-891876D01*
X37287135Y-890671D01*
X37279452Y-889000D01*
X36207000Y-889000D01*
X36138879Y-868998D01*
X36092386Y-815342D01*
X36081000Y-763000D01*
X36081000Y-362885D01*
X36589000Y-362885D01*
X36593475Y-378124D01*
X36594865Y-379329D01*
X36602548Y-381000D01*
X37274885Y-381000D01*
X37290124Y-376525D01*
X37291329Y-375135D01*
X37293000Y-367452D01*
X37293000Y-339562D01*
X37292663Y-333047D01*
X37283106Y-240943D01*
X37280212Y-227544D01*
X37248571Y-132703D01*
X42975743Y-132703D01*
X43013268Y-417734D01*
X43089129Y-695036D01*
X43090813Y-698984D01*
X43192295Y-936903D01*
X43201923Y-959476D01*
X43251647Y-1042559D01*
X43344139Y-1197101D01*
X43349561Y-1206161D01*
X43529313Y-1430528D01*
X43596830Y-1494599D01*
X43723209Y-1614528D01*
X43737851Y-1628423D01*
X43971317Y-1796186D01*
X43975112Y-1798195D01*
X43975113Y-1798196D01*
X43996869Y-1809715D01*
X44225392Y-1930712D01*
X44495373Y-2029511D01*
X44776264Y-2090755D01*
X44804841Y-2093004D01*
X44999282Y-2108307D01*
X44999291Y-2108307D01*
X45001739Y-2108500D01*
X45157271Y-2108500D01*
X45159407Y-2108354D01*
X45159418Y-2108354D01*
X45367548Y-2094165D01*
X45367554Y-2094164D01*
X45371825Y-2093873D01*
X45376020Y-2093004D01*
X45376022Y-2093004D01*
X45512583Y-2064724D01*
X45653342Y-2035574D01*
X45924343Y-1939607D01*
X46179812Y-1807750D01*
X46183313Y-1805289D01*
X46183317Y-1805287D01*
X46323276Y-1706922D01*
X46415023Y-1642441D01*
X46607315Y-1463752D01*
X46622479Y-1449661D01*
X46622481Y-1449658D01*
X46625622Y-1446740D01*
X46807713Y-1224268D01*
X46957927Y-979142D01*
X47073483Y-715898D01*
X47152244Y-439406D01*
X47192751Y-154784D01*
X47192845Y-136951D01*
X47194235Y128417D01*
X47194235Y128424D01*
X47194257Y132703D01*
X47191046Y157097D01*
X47174804Y280462D01*
X47156732Y417734D01*
X47080871Y695036D01*
X47070295Y719830D01*
X46969763Y955524D01*
X46969761Y955528D01*
X46968077Y959476D01*
X46820439Y1206161D01*
X46640687Y1430528D01*
X46432149Y1628423D01*
X46198683Y1796186D01*
X46176843Y1807750D01*
X46153654Y1820028D01*
X45944608Y1930712D01*
X45674627Y2029511D01*
X45393736Y2090755D01*
X45362685Y2093199D01*
X45170718Y2108307D01*
X45170709Y2108307D01*
X45168261Y2108500D01*
X45012729Y2108500D01*
X45010593Y2108354D01*
X45010582Y2108354D01*
X44802452Y2094165D01*
X44802446Y2094164D01*
X44798175Y2093873D01*
X44793980Y2093004D01*
X44793978Y2093004D01*
X44657417Y2064724D01*
X44516658Y2035574D01*
X44245657Y1939607D01*
X43990188Y1807750D01*
X43986687Y1805289D01*
X43986683Y1805287D01*
X43976594Y1798196D01*
X43754977Y1642441D01*
X43544378Y1446740D01*
X43362287Y1224268D01*
X43212073Y979142D01*
X43096517Y715898D01*
X43017756Y439406D01*
X42977249Y154784D01*
X42977227Y150495D01*
X42977226Y150488D01*
X42975765Y-128417D01*
X42975743Y-132703D01*
X37248571Y-132703D01*
X37230619Y-78893D01*
X37224445Y-65714D01*
X37142212Y67173D01*
X37133176Y78574D01*
X37022571Y188986D01*
X37011160Y197998D01*
X36878120Y280004D01*
X36864939Y286151D01*
X36716186Y335491D01*
X36702810Y338358D01*
X36611903Y347672D01*
X36606874Y347929D01*
X36591876Y343525D01*
X36590671Y342135D01*
X36589000Y334452D01*
X36589000Y-362885D01*
X36081000Y-362885D01*
X36081000Y329885D01*
X36076525Y345124D01*
X36075135Y346329D01*
X36067452Y348000D01*
X36064562Y348000D01*
X36058047Y347663D01*
X35965943Y338106D01*
X35952544Y335212D01*
X35803893Y285619D01*
X35790714Y279445D01*
X35657827Y197212D01*
X35640689Y183629D01*
X35639159Y185559D01*
X35587120Y157097D01*
X35516301Y162113D01*
X35479383Y185799D01*
X35478628Y184843D01*
X35472882Y189381D01*
X35467702Y194552D01*
X35461471Y198393D01*
X35328331Y280462D01*
X35328329Y280463D01*
X35322101Y284302D01*
X35159757Y338149D01*
X35152920Y338849D01*
X35152918Y338850D01*
X35111599Y343083D01*
X35058732Y348500D01*
X34511268Y348500D01*
X34508022Y348163D01*
X34508018Y348163D01*
X34479010Y345153D01*
X34408981Y337887D01*
X34400963Y335212D01*
X34253676Y286073D01*
X34253674Y286072D01*
X34246732Y283756D01*
X34101287Y193752D01*
X34096114Y188570D01*
X34064696Y157097D01*
X33980448Y72702D01*
X33976608Y66472D01*
X33976607Y66471D01*
X33909325Y-42681D01*
X33890698Y-72899D01*
X33836851Y-235243D01*
X33826500Y-336268D01*
X33826500Y-933732D01*
X33837113Y-1036019D01*
X33891244Y-1198268D01*
X33895096Y-1204492D01*
X33895096Y-1204493D01*
X33976574Y-1336160D01*
X33981248Y-1343713D01*
X34069798Y-1432108D01*
X34070007Y-1432317D01*
X34104086Y-1494599D01*
X34106989Y-1521490D01*
X34106989Y-1638801D01*
X34086987Y-1706922D01*
X34070084Y-1727896D01*
X33973361Y-1824619D01*
X33884528Y-1971301D01*
X33833247Y-2134938D01*
X33826500Y-2208365D01*
X33826501Y-2871634D01*
X33826764Y-2874492D01*
X33826764Y-2874501D01*
X33827254Y-2879831D01*
X33833247Y-2945062D01*
X33884528Y-3108699D01*
X33973361Y-3255381D01*
X34070084Y-3352104D01*
X34104110Y-3414416D01*
X34106989Y-3441199D01*
X34106989Y-4225011D01*
X34086987Y-4293132D01*
X34033331Y-4339625D01*
X33980989Y-4351011D01*
X31270489Y-4351011D01*
X31202368Y-4331009D01*
X31155875Y-4277353D01*
X31145771Y-4207079D01*
X31149930Y-4188383D01*
X31175867Y-4103015D01*
X31177370Y-4098069D01*
X31206529Y-3876590D01*
X31208156Y-3810000D01*
X31189852Y-3587361D01*
X31135431Y-3370702D01*
X31046354Y-3165840D01*
X30925014Y-2978277D01*
X30774670Y-2813051D01*
X30770619Y-2809852D01*
X30770615Y-2809848D01*
X30603414Y-2677800D01*
X30603410Y-2677798D01*
X30599359Y-2674598D01*
X30403789Y-2566638D01*
X30398920Y-2564914D01*
X30398916Y-2564912D01*
X30198087Y-2493795D01*
X30198083Y-2493794D01*
X30193212Y-2492069D01*
X30188119Y-2491162D01*
X30188116Y-2491161D01*
X29978373Y-2453800D01*
X29978367Y-2453799D01*
X29973284Y-2452894D01*
X29899452Y-2451992D01*
X29755081Y-2450228D01*
X29755079Y-2450228D01*
X29749911Y-2450165D01*
X29529091Y-2483955D01*
X29316756Y-2553357D01*
X29286443Y-2569137D01*
X29196678Y-2615866D01*
X29118607Y-2656507D01*
X29114474Y-2659610D01*
X29114471Y-2659612D01*
X28944100Y-2787530D01*
X28939965Y-2790635D01*
X28848781Y-2886054D01*
X28806027Y-2930793D01*
X28744503Y-2966223D01*
X28673590Y-2962766D01*
X28615804Y-2921520D01*
X28600833Y-2897194D01*
X28598865Y-2892994D01*
X28596550Y-2886054D01*
X28503478Y-2735652D01*
X28378303Y-2610695D01*
X28304030Y-2564912D01*
X28233968Y-2521725D01*
X28233966Y-2521724D01*
X28227738Y-2517885D01*
X28067254Y-2464655D01*
X28066389Y-2464368D01*
X28066387Y-2464368D01*
X28059861Y-2462203D01*
X28053025Y-2461503D01*
X28053022Y-2461502D01*
X28009969Y-2457091D01*
X27955400Y-2451500D01*
X26654600Y-2451500D01*
X26651354Y-2451837D01*
X26651350Y-2451837D01*
X26555692Y-2461762D01*
X26555688Y-2461763D01*
X26548834Y-2462474D01*
X26542298Y-2464655D01*
X26542296Y-2464655D01*
X26479631Y-2485562D01*
X26381054Y-2518450D01*
X26230652Y-2611522D01*
X26225479Y-2616704D01*
X26167686Y-2674598D01*
X26105695Y-2736697D01*
X26101855Y-2742927D01*
X26101854Y-2742928D01*
X26017466Y-2879831D01*
X26012885Y-2887262D01*
X25957203Y-3055139D01*
X25946500Y-3159600D01*
X25946500Y-4220405D01*
X25926498Y-4288526D01*
X25909595Y-4309500D01*
X25809500Y-4409595D01*
X25747188Y-4443621D01*
X25720405Y-4446500D01*
X23240000Y-4446500D01*
X23171879Y-4426498D01*
X23125386Y-4372842D01*
X23114000Y-4320500D01*
X23114000Y3176000D01*
X23134002Y3244121D01*
X23187658Y3290614D01*
X23240000Y3302000D01*
X45035672Y3302000D01*
X45055057Y3300500D01*
X45069858Y3298195D01*
X45069861Y3298195D01*
X45078730Y3296814D01*
X45097411Y3299257D01*
X45120342Y3300148D01*
X45423557Y3284257D01*
X45436665Y3282880D01*
X45676285Y3244928D01*
X45765002Y3230877D01*
X45777902Y3228135D01*
X46099000Y3142097D01*
X46111536Y3138023D01*
X46384358Y3033297D01*
X46421876Y3018895D01*
X46433924Y3013531D01*
X46730120Y2862612D01*
X46741536Y2856021D01*
X47020334Y2674967D01*
X47030996Y2667221D01*
X47289344Y2458016D01*
X47299145Y2449190D01*
X47534190Y2214145D01*
X47543015Y2204345D01*
X47685787Y2028036D01*
X47752221Y1945996D01*
X47759967Y1935334D01*
X47941018Y1656541D01*
X47947612Y1645120D01*
X48098531Y1348924D01*
X48103895Y1336876D01*
X48223021Y1026544D01*
X48227097Y1014000D01*
X48313135Y692902D01*
X48315877Y680002D01*
X48356760Y421876D01*
X48367879Y351671D01*
X48369257Y338557D01*
X48383517Y66471D01*
X48384764Y42670D01*
X48383436Y16688D01*
X48383195Y15144D01*
X48383195Y15140D01*
X48381814Y6270D01*
X48382978Y-2632D01*
X48382978Y-2635D01*
X48385936Y-25251D01*
X48387000Y-41589D01*
X48387000Y-39955672D01*
X48385500Y-39975056D01*
X48381814Y-39998730D01*
X48384257Y-40017410D01*
X48385148Y-40040342D01*
X48371620Y-40298475D01*
X48369257Y-40343554D01*
X48367880Y-40356665D01*
X48354656Y-40440159D01*
X48315877Y-40685002D01*
X48313135Y-40697902D01*
X48227097Y-41019000D01*
X48223023Y-41031536D01*
X48219203Y-41041490D01*
X48103895Y-41341876D01*
X48098531Y-41353924D01*
X47947612Y-41650120D01*
X47941021Y-41661536D01*
X47759967Y-41940334D01*
X47752224Y-41950992D01*
X47543016Y-42209344D01*
X47534190Y-42219145D01*
X47299145Y-42454190D01*
X47289344Y-42463016D01*
X47030996Y-42672221D01*
X47020334Y-42679967D01*
X46741536Y-42861021D01*
X46730120Y-42867612D01*
X46433924Y-43018531D01*
X46421875Y-43023895D01*
X46111536Y-43143023D01*
X46099000Y-43147097D01*
X45777902Y-43233135D01*
X45765002Y-43235877D01*
X45676285Y-43249928D01*
X45436665Y-43287880D01*
X45423557Y-43289257D01*
X45127666Y-43304764D01*
X45101688Y-43303436D01*
X45100144Y-43303195D01*
X45100140Y-43303195D01*
X45091270Y-43301814D01*
X45082368Y-43302978D01*
X45082365Y-43302978D01*
X45059749Y-43305936D01*
X45043411Y-43307000D01*
X49328Y-43307000D01*
X29943Y-43305500D01*
X15142Y-43303195D01*
X15139Y-43303195D01*
X6270Y-43301814D01*
X-12411Y-43304257D01*
X-35342Y-43305148D01*
X-338557Y-43289257D01*
X-351665Y-43287880D01*
X-591285Y-43249928D01*
X-680002Y-43235877D01*
X-692902Y-43233135D01*
X-1014000Y-43147097D01*
X-1026536Y-43143023D01*
X-1336875Y-43023895D01*
X-1348924Y-43018531D01*
X-1645120Y-42867612D01*
X-1656536Y-42861021D01*
X-1935334Y-42679967D01*
X-1945996Y-42672221D01*
X-2204344Y-42463016D01*
X-2214145Y-42454190D01*
X-2449190Y-42219145D01*
X-2458016Y-42209344D01*
X-2667224Y-41950992D01*
X-2674967Y-41940334D01*
X-2856021Y-41661536D01*
X-2862612Y-41650120D01*
X-3013531Y-41353924D01*
X-3018895Y-41341876D01*
X-3134203Y-41041490D01*
X-3138023Y-41031536D01*
X-3142097Y-41019000D01*
X-3228135Y-40697902D01*
X-3230877Y-40685002D01*
X-3269656Y-40440159D01*
X-3282880Y-40356665D01*
X-3284257Y-40343554D01*
X-3286547Y-40299865D01*
X-3295045Y-40137703D01*
X-2109257Y-40137703D01*
X-2071732Y-40422734D01*
X-1995871Y-40700036D01*
X-1994187Y-40703984D01*
X-1953540Y-40799278D01*
X-1883077Y-40964476D01*
X-1735439Y-41211161D01*
X-1555687Y-41435528D01*
X-1347149Y-41633423D01*
X-1113683Y-41801186D01*
X-1109888Y-41803195D01*
X-1109887Y-41803196D01*
X-1088131Y-41814715D01*
X-859608Y-41935712D01*
X-589627Y-42034511D01*
X-308736Y-42095755D01*
X-280159Y-42098004D01*
X-85718Y-42113307D01*
X-85709Y-42113307D01*
X-83261Y-42113500D01*
X72271Y-42113500D01*
X74407Y-42113354D01*
X74418Y-42113354D01*
X282548Y-42099165D01*
X282554Y-42099164D01*
X286825Y-42098873D01*
X291020Y-42098004D01*
X291022Y-42098004D01*
X427584Y-42069723D01*
X568342Y-42040574D01*
X839343Y-41944607D01*
X1094812Y-41812750D01*
X1098313Y-41810289D01*
X1098317Y-41810287D01*
X1212417Y-41730096D01*
X1330023Y-41647441D01*
X1417117Y-41566508D01*
X1537479Y-41454661D01*
X1537481Y-41454658D01*
X1540622Y-41451740D01*
X1722713Y-41229268D01*
X1841964Y-41034669D01*
X9197001Y-41034669D01*
X9197371Y-41041490D01*
X9202895Y-41092352D01*
X9206521Y-41107604D01*
X9251676Y-41228054D01*
X9260214Y-41243649D01*
X9336715Y-41345724D01*
X9349276Y-41358285D01*
X9451351Y-41434786D01*
X9466946Y-41443324D01*
X9587394Y-41488478D01*
X9602649Y-41492105D01*
X9653514Y-41497631D01*
X9660328Y-41498000D01*
X10382885Y-41498000D01*
X10398124Y-41493525D01*
X10399329Y-41492135D01*
X10401000Y-41484452D01*
X10401000Y-41479884D01*
X10909000Y-41479884D01*
X10913475Y-41495123D01*
X10914865Y-41496328D01*
X10922548Y-41497999D01*
X11649669Y-41497999D01*
X11656490Y-41497629D01*
X11707352Y-41492105D01*
X11722604Y-41488479D01*
X11843054Y-41443324D01*
X11858648Y-41434786D01*
X11954435Y-41362998D01*
X12020941Y-41338150D01*
X12090324Y-41353203D01*
X12105565Y-41362998D01*
X12201352Y-41434786D01*
X12216946Y-41443324D01*
X12337394Y-41488478D01*
X12352649Y-41492105D01*
X12403514Y-41497631D01*
X12410328Y-41498000D01*
X13132885Y-41498000D01*
X13148124Y-41493525D01*
X13149329Y-41492135D01*
X13151000Y-41484452D01*
X13151000Y-41479884D01*
X13659000Y-41479884D01*
X13663475Y-41495123D01*
X13664865Y-41496328D01*
X13672548Y-41497999D01*
X14399669Y-41497999D01*
X14406490Y-41497629D01*
X14457352Y-41492105D01*
X14472604Y-41488479D01*
X14560770Y-41455427D01*
X14631578Y-41450244D01*
X14649230Y-41455427D01*
X14737394Y-41488478D01*
X14752649Y-41492105D01*
X14803514Y-41497631D01*
X14810328Y-41498000D01*
X15532885Y-41498000D01*
X15548124Y-41493525D01*
X15549329Y-41492135D01*
X15551000Y-41484452D01*
X15551000Y-41479884D01*
X16059000Y-41479884D01*
X16063475Y-41495123D01*
X16064865Y-41496328D01*
X16072548Y-41497999D01*
X16799669Y-41497999D01*
X16806490Y-41497629D01*
X16857352Y-41492105D01*
X16872604Y-41488479D01*
X16993054Y-41443324D01*
X17008648Y-41434786D01*
X17104435Y-41362998D01*
X17170941Y-41338150D01*
X17240324Y-41353203D01*
X17255565Y-41362998D01*
X17351352Y-41434786D01*
X17366946Y-41443324D01*
X17487394Y-41488478D01*
X17502649Y-41492105D01*
X17553514Y-41497631D01*
X17560328Y-41498000D01*
X18282885Y-41498000D01*
X18298124Y-41493525D01*
X18299329Y-41492135D01*
X18301000Y-41484452D01*
X18301000Y-41479884D01*
X18809000Y-41479884D01*
X18813475Y-41495123D01*
X18814865Y-41496328D01*
X18822548Y-41497999D01*
X19549669Y-41497999D01*
X19556490Y-41497629D01*
X19607352Y-41492105D01*
X19622604Y-41488479D01*
X19743054Y-41443324D01*
X19758649Y-41434786D01*
X19860724Y-41358285D01*
X19873285Y-41345724D01*
X19949786Y-41243649D01*
X19958324Y-41228054D01*
X20003478Y-41107606D01*
X20007105Y-41092351D01*
X20012631Y-41041486D01*
X20013000Y-41034672D01*
X20013000Y-40312115D01*
X20008525Y-40296876D01*
X20007135Y-40295671D01*
X19999452Y-40294000D01*
X18827115Y-40294000D01*
X18811876Y-40298475D01*
X18810671Y-40299865D01*
X18809000Y-40307548D01*
X18809000Y-41479884D01*
X18301000Y-41479884D01*
X18301000Y-40312115D01*
X18296525Y-40296876D01*
X18295135Y-40295671D01*
X18287452Y-40294000D01*
X16077115Y-40294000D01*
X16061876Y-40298475D01*
X16060671Y-40299865D01*
X16059000Y-40307548D01*
X16059000Y-41479884D01*
X15551000Y-41479884D01*
X15551000Y-40312115D01*
X15546525Y-40296876D01*
X15545135Y-40295671D01*
X15537452Y-40294000D01*
X13677115Y-40294000D01*
X13661876Y-40298475D01*
X13660671Y-40299865D01*
X13659000Y-40307548D01*
X13659000Y-41479884D01*
X13151000Y-41479884D01*
X13151000Y-40312115D01*
X13146525Y-40296876D01*
X13145135Y-40295671D01*
X13137452Y-40294000D01*
X10927115Y-40294000D01*
X10911876Y-40298475D01*
X10910671Y-40299865D01*
X10909000Y-40307548D01*
X10909000Y-41479884D01*
X10401000Y-41479884D01*
X10401000Y-40312115D01*
X10396525Y-40296876D01*
X10395135Y-40295671D01*
X10387452Y-40294000D01*
X9215116Y-40294000D01*
X9199877Y-40298475D01*
X9198672Y-40299865D01*
X9197001Y-40307548D01*
X9197001Y-41034669D01*
X1841964Y-41034669D01*
X1872927Y-40984142D01*
X1988483Y-40720898D01*
X2067244Y-40444406D01*
X2107751Y-40159784D01*
X2107845Y-40141951D01*
X2107867Y-40137703D01*
X42975743Y-40137703D01*
X43013268Y-40422734D01*
X43089129Y-40700036D01*
X43090813Y-40703984D01*
X43131460Y-40799278D01*
X43201923Y-40964476D01*
X43349561Y-41211161D01*
X43529313Y-41435528D01*
X43737851Y-41633423D01*
X43971317Y-41801186D01*
X43975112Y-41803195D01*
X43975113Y-41803196D01*
X43996869Y-41814715D01*
X44225392Y-41935712D01*
X44495373Y-42034511D01*
X44776264Y-42095755D01*
X44804841Y-42098004D01*
X44999282Y-42113307D01*
X44999291Y-42113307D01*
X45001739Y-42113500D01*
X45157271Y-42113500D01*
X45159407Y-42113354D01*
X45159418Y-42113354D01*
X45367548Y-42099165D01*
X45367554Y-42099164D01*
X45371825Y-42098873D01*
X45376020Y-42098004D01*
X45376022Y-42098004D01*
X45512584Y-42069723D01*
X45653342Y-42040574D01*
X45924343Y-41944607D01*
X46179812Y-41812750D01*
X46183313Y-41810289D01*
X46183317Y-41810287D01*
X46297417Y-41730096D01*
X46415023Y-41647441D01*
X46502117Y-41566508D01*
X46622479Y-41454661D01*
X46622481Y-41454658D01*
X46625622Y-41451740D01*
X46807713Y-41229268D01*
X46957927Y-40984142D01*
X47073483Y-40720898D01*
X47152244Y-40444406D01*
X47192751Y-40159784D01*
X47192845Y-40141951D01*
X47194235Y-39876583D01*
X47194235Y-39876576D01*
X47194257Y-39872297D01*
X47156732Y-39587266D01*
X47080871Y-39309964D01*
X46968077Y-39045524D01*
X46852223Y-38851946D01*
X46822643Y-38802521D01*
X46822640Y-38802517D01*
X46820439Y-38798839D01*
X46640687Y-38574472D01*
X46495549Y-38436741D01*
X46435258Y-38379527D01*
X46435255Y-38379525D01*
X46432149Y-38376577D01*
X46198683Y-38208814D01*
X46176843Y-38197250D01*
X46153654Y-38184972D01*
X45944608Y-38074288D01*
X45674627Y-37975489D01*
X45393736Y-37914245D01*
X45362685Y-37911801D01*
X45170718Y-37896693D01*
X45170709Y-37896693D01*
X45168261Y-37896500D01*
X45012729Y-37896500D01*
X45010593Y-37896646D01*
X45010582Y-37896646D01*
X44802452Y-37910835D01*
X44802446Y-37910836D01*
X44798175Y-37911127D01*
X44793980Y-37911996D01*
X44793978Y-37911996D01*
X44657417Y-37940276D01*
X44516658Y-37969426D01*
X44245657Y-38065393D01*
X43990188Y-38197250D01*
X43986687Y-38199711D01*
X43986683Y-38199713D01*
X43935569Y-38235637D01*
X43754977Y-38362559D01*
X43711177Y-38403261D01*
X43557578Y-38545994D01*
X43544378Y-38558260D01*
X43362287Y-38780732D01*
X43212073Y-39025858D01*
X43096517Y-39289102D01*
X43017756Y-39565594D01*
X42977249Y-39850216D01*
X42977227Y-39854505D01*
X42977226Y-39854512D01*
X42975765Y-40133417D01*
X42975743Y-40137703D01*
X2107867Y-40137703D01*
X2109235Y-39876583D01*
X2109235Y-39876576D01*
X2109257Y-39872297D01*
X2095511Y-39767885D01*
X9197000Y-39767885D01*
X9201475Y-39783124D01*
X9202865Y-39784329D01*
X9210548Y-39786000D01*
X10382885Y-39786000D01*
X10398124Y-39781525D01*
X10399329Y-39780135D01*
X10401000Y-39772452D01*
X10401000Y-38600116D01*
X10396525Y-38584877D01*
X10395135Y-38583672D01*
X10387452Y-38582001D01*
X9660331Y-38582001D01*
X9653510Y-38582371D01*
X9602648Y-38587895D01*
X9587396Y-38591521D01*
X9466946Y-38636676D01*
X9451351Y-38645214D01*
X9349276Y-38721715D01*
X9336715Y-38734276D01*
X9260214Y-38836351D01*
X9251676Y-38851946D01*
X9206522Y-38972394D01*
X9202895Y-38987649D01*
X9197369Y-39038514D01*
X9197000Y-39045328D01*
X9197000Y-39767885D01*
X2095511Y-39767885D01*
X2071732Y-39587266D01*
X1995871Y-39309964D01*
X1883077Y-39045524D01*
X1767223Y-38851946D01*
X1737643Y-38802521D01*
X1737640Y-38802517D01*
X1735439Y-38798839D01*
X1555687Y-38574472D01*
X1410549Y-38436741D01*
X1350258Y-38379527D01*
X1350255Y-38379525D01*
X1347149Y-38376577D01*
X1113683Y-38208814D01*
X1091843Y-38197250D01*
X1068654Y-38184972D01*
X859608Y-38074288D01*
X589627Y-37975489D01*
X308736Y-37914245D01*
X277685Y-37911801D01*
X85718Y-37896693D01*
X85709Y-37896693D01*
X83261Y-37896500D01*
X-72271Y-37896500D01*
X-74407Y-37896646D01*
X-74418Y-37896646D01*
X-282548Y-37910835D01*
X-282554Y-37910836D01*
X-286825Y-37911127D01*
X-291020Y-37911996D01*
X-291022Y-37911996D01*
X-427583Y-37940276D01*
X-568342Y-37969426D01*
X-839343Y-38065393D01*
X-1094812Y-38197250D01*
X-1098313Y-38199711D01*
X-1098317Y-38199713D01*
X-1149431Y-38235637D01*
X-1330023Y-38362559D01*
X-1373823Y-38403261D01*
X-1527422Y-38545994D01*
X-1540622Y-38558260D01*
X-1722713Y-38780732D01*
X-1872927Y-39025858D01*
X-1988483Y-39289102D01*
X-2067244Y-39565594D01*
X-2107751Y-39850216D01*
X-2107773Y-39854505D01*
X-2107774Y-39854512D01*
X-2109235Y-40133417D01*
X-2109257Y-40137703D01*
X-3295045Y-40137703D01*
X-3299764Y-40047666D01*
X-3298436Y-40021688D01*
X-3298195Y-40020144D01*
X-3298195Y-40020140D01*
X-3296814Y-40011270D01*
X-3298453Y-39998730D01*
X-3300936Y-39979749D01*
X-3302000Y-39963411D01*
X-3302000Y-36490438D01*
X2712000Y-36490438D01*
X2712337Y-36496953D01*
X2721894Y-36589057D01*
X2724788Y-36602456D01*
X2774381Y-36751107D01*
X2780555Y-36764286D01*
X2862788Y-36897173D01*
X2871824Y-36908574D01*
X2982429Y-37018986D01*
X2993840Y-37027998D01*
X3126880Y-37110004D01*
X3140061Y-37116151D01*
X3288814Y-37165491D01*
X3302190Y-37168358D01*
X3393097Y-37177672D01*
X3398126Y-37177929D01*
X3413124Y-37173525D01*
X3414329Y-37172135D01*
X3416000Y-37164452D01*
X3416000Y-36467115D01*
X3411525Y-36451876D01*
X3410135Y-36450671D01*
X3402452Y-36449000D01*
X2730115Y-36449000D01*
X2714876Y-36453475D01*
X2713671Y-36454865D01*
X2712000Y-36462548D01*
X2712000Y-36490438D01*
X-3302000Y-36490438D01*
X-3302000Y-35922885D01*
X2712000Y-35922885D01*
X2716475Y-35938124D01*
X2717865Y-35939329D01*
X2725548Y-35941000D01*
X3397885Y-35941000D01*
X3413124Y-35936525D01*
X3414329Y-35935135D01*
X3416000Y-35927452D01*
X3416000Y-35230115D01*
X3411525Y-35214876D01*
X3410135Y-35213671D01*
X3402452Y-35212000D01*
X3399562Y-35212000D01*
X3393047Y-35212337D01*
X3300943Y-35221894D01*
X3287544Y-35224788D01*
X3138893Y-35274381D01*
X3125714Y-35280555D01*
X2992827Y-35362788D01*
X2981426Y-35371824D01*
X2871014Y-35482429D01*
X2862002Y-35493840D01*
X2779996Y-35626880D01*
X2773849Y-35640061D01*
X2724509Y-35788814D01*
X2721642Y-35802190D01*
X2712328Y-35893097D01*
X2712000Y-35899514D01*
X2712000Y-35922885D01*
X-3302000Y-35922885D01*
X-3302000Y-33717095D01*
X-1287999Y-33717095D01*
X-1287662Y-33723614D01*
X-1277743Y-33819206D01*
X-1274851Y-33832600D01*
X-1223412Y-33986784D01*
X-1217239Y-33999962D01*
X-1131937Y-34137807D01*
X-1122901Y-34149208D01*
X-1008171Y-34263739D01*
X-996760Y-34272751D01*
X-858757Y-34357816D01*
X-845576Y-34363963D01*
X-691290Y-34415138D01*
X-677914Y-34418005D01*
X-583562Y-34427672D01*
X-577146Y-34428000D01*
X-477115Y-34428000D01*
X-461876Y-34423525D01*
X-460671Y-34422135D01*
X-459000Y-34414452D01*
X-459000Y-34409884D01*
X49000Y-34409884D01*
X53475Y-34425123D01*
X54865Y-34426328D01*
X62548Y-34427999D01*
X167095Y-34427999D01*
X173614Y-34427662D01*
X269206Y-34417743D01*
X282600Y-34414851D01*
X436784Y-34363412D01*
X449962Y-34357239D01*
X587807Y-34271937D01*
X599208Y-34262901D01*
X713739Y-34148171D01*
X722751Y-34136760D01*
X807816Y-33998757D01*
X813963Y-33985576D01*
X865138Y-33831290D01*
X868005Y-33817914D01*
X877672Y-33723562D01*
X878000Y-33717146D01*
X878000Y-33292115D01*
X873525Y-33276876D01*
X872135Y-33275671D01*
X864452Y-33274000D01*
X67115Y-33274000D01*
X51876Y-33278475D01*
X50671Y-33279865D01*
X49000Y-33287548D01*
X49000Y-34409884D01*
X-459000Y-34409884D01*
X-459000Y-33292115D01*
X-463475Y-33276876D01*
X-464865Y-33275671D01*
X-472548Y-33274000D01*
X-1269884Y-33274000D01*
X-1285123Y-33278475D01*
X-1286328Y-33279865D01*
X-1287999Y-33287548D01*
X-1287999Y-33717095D01*
X-3302000Y-33717095D01*
X-3302000Y-30182885D01*
X-2288000Y-30182885D01*
X-2283525Y-30198124D01*
X-2282135Y-30199329D01*
X-2274452Y-30201000D01*
X-1302115Y-30201000D01*
X-1286876Y-30196525D01*
X-1285671Y-30195135D01*
X-1284000Y-30187452D01*
X-1284000Y-28965116D01*
X-1288475Y-28949877D01*
X-1289865Y-28948672D01*
X-1297548Y-28947001D01*
X-1824669Y-28947001D01*
X-1831490Y-28947371D01*
X-1882352Y-28952895D01*
X-1897604Y-28956521D01*
X-2018054Y-29001676D01*
X-2033649Y-29010214D01*
X-2135724Y-29086715D01*
X-2148285Y-29099276D01*
X-2224786Y-29201351D01*
X-2233324Y-29216946D01*
X-2278478Y-29337394D01*
X-2282105Y-29352649D01*
X-2287631Y-29403514D01*
X-2288000Y-29410328D01*
X-2288000Y-30182885D01*
X-3302000Y-30182885D01*
X-3302000Y-15609183D01*
X-2605611Y-15609183D01*
X-2604088Y-15617607D01*
X-2591708Y-15621000D01*
X-1542115Y-15621000D01*
X-1526876Y-15616525D01*
X-1525671Y-15615135D01*
X-1524000Y-15607452D01*
X-1524000Y-15602885D01*
X-1016000Y-15602885D01*
X-1011525Y-15618124D01*
X-1010135Y-15619329D01*
X-1002452Y-15621000D01*
X48344Y-15621000D01*
X61875Y-15617027D01*
X63180Y-15607947D01*
X21214Y-15440875D01*
X17894Y-15431124D01*
X-67028Y-15235814D01*
X-71895Y-15226739D01*
X-187574Y-15047926D01*
X-193864Y-15039757D01*
X-337194Y-14882240D01*
X-344727Y-14875215D01*
X-511861Y-14743222D01*
X-520448Y-14737517D01*
X-706883Y-14634599D01*
X-716295Y-14630369D01*
X-917041Y-14559280D01*
X-927012Y-14556646D01*
X-998163Y-14543972D01*
X-1011460Y-14545432D01*
X-1016000Y-14559989D01*
X-1016000Y-15602885D01*
X-1524000Y-15602885D01*
X-1524000Y-14558102D01*
X-1527918Y-14544758D01*
X-1542194Y-14542771D01*
X-1580676Y-14548660D01*
X-1590712Y-14551051D01*
X-1793132Y-14617212D01*
X-1802641Y-14621209D01*
X-1991537Y-14719542D01*
X-2000262Y-14725036D01*
X-2170567Y-14852905D01*
X-2178274Y-14859748D01*
X-2325410Y-15013717D01*
X-2331896Y-15021727D01*
X-2451902Y-15197649D01*
X-2457000Y-15206623D01*
X-2546662Y-15399783D01*
X-2550225Y-15409470D01*
X-2605611Y-15609183D01*
X-3302000Y-15609183D01*
X-3302000Y-10424669D01*
X-2627999Y-10424669D01*
X-2627629Y-10431490D01*
X-2622105Y-10482352D01*
X-2618479Y-10497604D01*
X-2573324Y-10618054D01*
X-2564786Y-10633649D01*
X-2488285Y-10735724D01*
X-2475724Y-10748285D01*
X-2373649Y-10824786D01*
X-2358054Y-10833324D01*
X-2237606Y-10878478D01*
X-2222351Y-10882105D01*
X-2171486Y-10887631D01*
X-2164672Y-10888000D01*
X-1542115Y-10888000D01*
X-1526876Y-10883525D01*
X-1525671Y-10882135D01*
X-1524000Y-10874452D01*
X-1524000Y-10869884D01*
X-1016000Y-10869884D01*
X-1011525Y-10885123D01*
X-1010135Y-10886328D01*
X-1002452Y-10887999D01*
X-375331Y-10887999D01*
X-368510Y-10887629D01*
X-317648Y-10882105D01*
X-302396Y-10878479D01*
X-181946Y-10833324D01*
X-166351Y-10824786D01*
X-64276Y-10748285D01*
X-51715Y-10735724D01*
X24786Y-10633649D01*
X33324Y-10618054D01*
X78478Y-10497606D01*
X82105Y-10482351D01*
X87631Y-10431486D01*
X88000Y-10424672D01*
X88000Y-9802115D01*
X83525Y-9786876D01*
X82135Y-9785671D01*
X74452Y-9784000D01*
X-997885Y-9784000D01*
X-1013124Y-9788475D01*
X-1014329Y-9789865D01*
X-1016000Y-9797548D01*
X-1016000Y-10869884D01*
X-1524000Y-10869884D01*
X-1524000Y-9802115D01*
X-1528475Y-9786876D01*
X-1529865Y-9785671D01*
X-1537548Y-9784000D01*
X-2609884Y-9784000D01*
X-2625123Y-9788475D01*
X-2626328Y-9789865D01*
X-2627999Y-9797548D01*
X-2627999Y-10424669D01*
X-3302000Y-10424669D01*
X-3302000Y-132703D01*
X-2109257Y-132703D01*
X-2071732Y-417734D01*
X-1995871Y-695036D01*
X-1994187Y-698984D01*
X-1892705Y-936903D01*
X-1883077Y-959476D01*
X-1833353Y-1042559D01*
X-1740861Y-1197101D01*
X-1735439Y-1206161D01*
X-1555687Y-1430528D01*
X-1488170Y-1494599D01*
X-1361791Y-1614528D01*
X-1347149Y-1628423D01*
X-1113683Y-1796186D01*
X-1109888Y-1798195D01*
X-1109887Y-1798196D01*
X-1088131Y-1809715D01*
X-859608Y-1930712D01*
X-589627Y-2029511D01*
X-308736Y-2090755D01*
X-280159Y-2093004D01*
X-85718Y-2108307D01*
X-85709Y-2108307D01*
X-83261Y-2108500D01*
X72271Y-2108500D01*
X74407Y-2108354D01*
X74418Y-2108354D01*
X282548Y-2094165D01*
X282554Y-2094164D01*
X286825Y-2093873D01*
X291020Y-2093004D01*
X291022Y-2093004D01*
X427584Y-2064723D01*
X568342Y-2035574D01*
X839343Y-1939607D01*
X1094812Y-1807750D01*
X1098313Y-1805289D01*
X1098317Y-1805287D01*
X1238276Y-1706922D01*
X1330023Y-1642441D01*
X1522315Y-1463752D01*
X1537479Y-1449661D01*
X1537481Y-1449658D01*
X1540622Y-1446740D01*
X1722713Y-1224268D01*
X1872927Y-979142D01*
X1988483Y-715898D01*
X2067244Y-439406D01*
X2107751Y-154784D01*
X2107845Y-136951D01*
X2109235Y128417D01*
X2109235Y128424D01*
X2109257Y132703D01*
X2106046Y157097D01*
X2089804Y280462D01*
X2071732Y417734D01*
X1995871Y695036D01*
X1985295Y719830D01*
X1884763Y955524D01*
X1884761Y955528D01*
X1883077Y959476D01*
X1735439Y1206161D01*
X1555687Y1430528D01*
X1347149Y1628423D01*
X1113683Y1796186D01*
X1091843Y1807750D01*
X1068654Y1820028D01*
X859608Y1930712D01*
X589627Y2029511D01*
X308736Y2090755D01*
X277685Y2093199D01*
X85718Y2108307D01*
X85709Y2108307D01*
X83261Y2108500D01*
X-72271Y2108500D01*
X-74407Y2108354D01*
X-74418Y2108354D01*
X-282548Y2094165D01*
X-282554Y2094164D01*
X-286825Y2093873D01*
X-291020Y2093004D01*
X-291022Y2093004D01*
X-427584Y2064723D01*
X-568342Y2035574D01*
X-839343Y1939607D01*
X-1094812Y1807750D01*
X-1098313Y1805289D01*
X-1098317Y1805287D01*
X-1108406Y1798196D01*
X-1330023Y1642441D01*
X-1540622Y1446740D01*
X-1722713Y1224268D01*
X-1872927Y979142D01*
X-1988483Y715898D01*
X-2067244Y439406D01*
X-2107751Y154784D01*
X-2107773Y150495D01*
X-2107774Y150488D01*
X-2109235Y-128417D01*
X-2109257Y-132703D01*
X-3302000Y-132703D01*
X-3302000Y-49328D01*
X-3300500Y-29943D01*
X-3298195Y-15142D01*
X-3298195Y-15139D01*
X-3296814Y-6270D01*
X-3299257Y12411D01*
X-3300148Y35343D01*
X-3299764Y42670D01*
X-3284257Y338557D01*
X-3282879Y351671D01*
X-3271759Y421876D01*
X-3230877Y680002D01*
X-3228135Y692902D01*
X-3142097Y1014000D01*
X-3138021Y1026544D01*
X-3018895Y1336876D01*
X-3013531Y1348924D01*
X-2862612Y1645120D01*
X-2856018Y1656541D01*
X-2674967Y1935334D01*
X-2667221Y1945996D01*
X-2600786Y2028036D01*
X-2458015Y2204345D01*
X-2449190Y2214145D01*
X-2214145Y2449190D01*
X-2204344Y2458016D01*
X-1945996Y2667221D01*
X-1935334Y2674967D01*
X-1656536Y2856021D01*
X-1645120Y2862612D01*
X-1348924Y3013531D01*
X-1336876Y3018895D01*
X-1299358Y3033297D01*
X-1026536Y3138023D01*
X-1014000Y3142097D01*
X-692902Y3228135D01*
X-680002Y3230877D01*
X-591285Y3244928D01*
X-351665Y3282880D01*
X-338557Y3284257D01*
X-42666Y3299764D01*
X-16688Y3298436D01*
X-15144Y3298195D01*
X-15140Y3298195D01*
X-6270Y3296814D01*
X2632Y3297978D01*
X2635Y3297978D01*
X25251Y3300936D01*
X41589Y3302000D01*
X4700000Y3302000D01*
X4768121Y3281998D01*
G37*
%TD.AperFunction*%
%TD*%
M02*
