G04 #@! TF.GenerationSoftware,KiCad,Pcbnew,(6.0.0)*
G04 #@! TF.CreationDate,2022-11-09T00:59:33-05:00*
G04 #@! TF.ProjectId,esp8266 atmosphere sensor,65737038-3236-4362-9061-746d6f737068,rev?*
G04 #@! TF.SameCoordinates,Original*
G04 #@! TF.FileFunction,Copper,L3,Inr*
G04 #@! TF.FilePolarity,Positive*
%FSLAX46Y46*%
G04 Gerber Fmt 4.6, Leading zero omitted, Abs format (unit mm)*
G04 Created by KiCad (PCBNEW (6.0.0)) date 2022-11-09 00:59:33*
%MOMM*%
%LPD*%
G01*
G04 APERTURE LIST*
G04 Aperture macros list*
%AMRoundRect*
0 Rectangle with rounded corners*
0 $1 Rounding radius*
0 $2 $3 $4 $5 $6 $7 $8 $9 X,Y pos of 4 corners*
0 Add a 4 corners polygon primitive as box body*
4,1,4,$2,$3,$4,$5,$6,$7,$8,$9,$2,$3,0*
0 Add four circle primitives for the rounded corners*
1,1,$1+$1,$2,$3*
1,1,$1+$1,$4,$5*
1,1,$1+$1,$6,$7*
1,1,$1+$1,$8,$9*
0 Add four rect primitives between the rounded corners*
20,1,$1+$1,$2,$3,$4,$5,0*
20,1,$1+$1,$4,$5,$6,$7,0*
20,1,$1+$1,$6,$7,$8,$9,0*
20,1,$1+$1,$8,$9,$2,$3,0*%
G04 Aperture macros list end*
G04 #@! TA.AperFunction,ComponentPad*
%ADD10RoundRect,0.250000X-0.600000X-0.600000X0.600000X-0.600000X0.600000X0.600000X-0.600000X0.600000X0*%
G04 #@! TD*
G04 #@! TA.AperFunction,ComponentPad*
%ADD11C,1.700000*%
G04 #@! TD*
G04 #@! TA.AperFunction,ComponentPad*
%ADD12R,1.700000X1.700000*%
G04 #@! TD*
G04 #@! TA.AperFunction,ComponentPad*
%ADD13O,1.700000X1.700000*%
G04 #@! TD*
G04 #@! TA.AperFunction,ViaPad*
%ADD14C,0.800000*%
G04 #@! TD*
G04 APERTURE END LIST*
D10*
X27305000Y-3810000D03*
D11*
X29845000Y-3810000D03*
X27305000Y-6350000D03*
X29845000Y-6350000D03*
X27305000Y-8890000D03*
X29845000Y-8890000D03*
D12*
X35560000Y-33345000D03*
D13*
X38100000Y-33345000D03*
X40640000Y-33345000D03*
X43180000Y-33345000D03*
X45720000Y-33345000D03*
D12*
X17145000Y-31130000D03*
D13*
X17145000Y-28590000D03*
X17145000Y-26050000D03*
D12*
X31115000Y-31115000D03*
D13*
X28575000Y-31115000D03*
X26035000Y-31115000D03*
X23495000Y-31115000D03*
D12*
X41275000Y-20955000D03*
D13*
X41275000Y-23495000D03*
X41275000Y-26035000D03*
X41275000Y-28575000D03*
D12*
X-1270000Y-20955000D03*
D13*
X-1270000Y-18415000D03*
X-1270000Y-15875000D03*
D12*
X-1270000Y-9530000D03*
D13*
X-1270000Y-6990000D03*
D14*
X25654000Y1016000D03*
X45212000Y-8890000D03*
X40386000Y-5334000D03*
X40640000Y2032000D03*
X33274000Y-39624000D03*
X3556000Y-40132000D03*
X-2794000Y-28448000D03*
X35560000Y-7620000D03*
X8699000Y-23939000D03*
X29972000Y-17780000D03*
X9398000Y-14986000D03*
X29909480Y-13145480D03*
X1270000Y-7112000D03*
X4613000Y-20025000D03*
X10414000Y-6096000D03*
X25463000Y-14923000D03*
X762000Y-11938000D03*
X17272000Y-36322000D03*
X9398000Y-25146000D03*
X-508000Y-28702000D03*
X27940000Y-27686000D03*
X37338000Y-15240000D03*
X-508000Y-25908000D03*
X9652000Y-16764000D03*
X9207000Y-26861000D03*
X4801500Y-24408500D03*
X33070031Y-12395969D03*
X20320000Y-22860000D03*
X16002000Y-18034000D03*
X26797000Y-24511000D03*
X36513480Y-16826520D03*
X13616511Y-15902511D03*
X12867000Y-12025000D03*
X23368000Y-12192000D03*
X13264511Y-29915489D03*
X23622000Y-10160000D03*
G04 #@! TA.AperFunction,Conductor*
G36*
X4768121Y3789498D02*
G01*
X4814614Y3735842D01*
X4826000Y3683500D01*
X4826000Y-4572000D01*
X23114000Y-4572000D01*
X23114000Y-4463834D01*
X26254500Y-4463834D01*
X26257481Y-4495369D01*
X26302366Y-4623184D01*
X26307958Y-4630754D01*
X26307959Y-4630757D01*
X26370335Y-4715206D01*
X26382850Y-4732150D01*
X26390421Y-4737742D01*
X26484243Y-4807041D01*
X26484246Y-4807042D01*
X26491816Y-4812634D01*
X26619631Y-4857519D01*
X26627277Y-4858242D01*
X26627278Y-4858242D01*
X26633248Y-4858806D01*
X26651166Y-4860500D01*
X27958834Y-4860500D01*
X27976752Y-4858806D01*
X27982722Y-4858242D01*
X27982723Y-4858242D01*
X27990369Y-4857519D01*
X28118184Y-4812634D01*
X28125754Y-4807042D01*
X28125757Y-4807041D01*
X28219579Y-4737742D01*
X28227150Y-4732150D01*
X28239665Y-4715206D01*
X28302041Y-4630757D01*
X28302042Y-4630754D01*
X28307634Y-4623184D01*
X28352519Y-4495369D01*
X28355500Y-4463834D01*
X28355500Y-4396752D01*
X28375502Y-4328631D01*
X28429158Y-4282138D01*
X28499432Y-4272034D01*
X28564012Y-4301528D01*
X28598243Y-4349348D01*
X28626770Y-4419603D01*
X28631413Y-4428794D01*
X28711460Y-4559420D01*
X28721916Y-4568880D01*
X28730694Y-4565096D01*
X29472978Y-3822812D01*
X29479356Y-3811132D01*
X30209408Y-3811132D01*
X30209539Y-3812965D01*
X30213790Y-3819580D01*
X30955474Y-4561264D01*
X30967484Y-4567823D01*
X30979223Y-4558855D01*
X31010004Y-4516019D01*
X31015315Y-4507180D01*
X31109670Y-4316267D01*
X31113469Y-4306672D01*
X31175376Y-4102915D01*
X31177555Y-4092834D01*
X31205590Y-3879887D01*
X31206109Y-3873212D01*
X31207572Y-3813364D01*
X31207378Y-3806646D01*
X31189781Y-3592604D01*
X31188096Y-3582424D01*
X31136214Y-3375875D01*
X31132894Y-3366124D01*
X31047972Y-3170814D01*
X31043105Y-3161739D01*
X30978063Y-3061197D01*
X30967377Y-3051995D01*
X30957812Y-3056398D01*
X30217022Y-3797188D01*
X30209408Y-3811132D01*
X29479356Y-3811132D01*
X29480592Y-3808868D01*
X29480461Y-3807035D01*
X29476210Y-3800420D01*
X28734849Y-3059059D01*
X28723313Y-3052759D01*
X28711031Y-3062382D01*
X28663089Y-3132662D01*
X28658004Y-3141613D01*
X28595788Y-3275647D01*
X28548964Y-3329014D01*
X28480720Y-3348595D01*
X28412725Y-3328171D01*
X28366565Y-3274229D01*
X28355500Y-3222597D01*
X28355500Y-3156166D01*
X28352519Y-3124631D01*
X28307634Y-2996816D01*
X28302042Y-2989246D01*
X28302041Y-2989243D01*
X28232742Y-2895421D01*
X28227150Y-2887850D01*
X28210206Y-2875335D01*
X28125757Y-2812959D01*
X28125754Y-2812958D01*
X28118184Y-2807366D01*
X27990369Y-2762481D01*
X27982723Y-2761758D01*
X27982722Y-2761758D01*
X27976752Y-2761194D01*
X27958834Y-2759500D01*
X26651166Y-2759500D01*
X26633248Y-2761194D01*
X26627278Y-2761758D01*
X26627277Y-2761758D01*
X26619631Y-2762481D01*
X26491816Y-2807366D01*
X26484246Y-2812958D01*
X26484243Y-2812959D01*
X26399794Y-2875335D01*
X26382850Y-2887850D01*
X26377258Y-2895421D01*
X26307959Y-2989243D01*
X26307958Y-2989246D01*
X26302366Y-2996816D01*
X26257481Y-3124631D01*
X26254500Y-3156166D01*
X26254500Y-4463834D01*
X23114000Y-4463834D01*
X23114000Y-2686427D01*
X29086223Y-2686427D01*
X29092968Y-2698758D01*
X29832188Y-3437978D01*
X29846132Y-3445592D01*
X29847965Y-3445461D01*
X29854580Y-3441210D01*
X30598389Y-2697401D01*
X30605410Y-2684544D01*
X30598611Y-2675213D01*
X30594554Y-2672518D01*
X30408117Y-2569599D01*
X30398705Y-2565369D01*
X30197959Y-2494280D01*
X30187989Y-2491646D01*
X29978327Y-2454301D01*
X29968073Y-2453331D01*
X29755116Y-2450728D01*
X29744832Y-2451448D01*
X29534321Y-2483661D01*
X29524293Y-2486050D01*
X29321868Y-2552212D01*
X29312359Y-2556209D01*
X29123466Y-2654540D01*
X29114734Y-2660039D01*
X29094677Y-2675099D01*
X29086223Y-2686427D01*
X23114000Y-2686427D01*
X23114000Y-42095D01*
X43230028Y-42095D01*
X43255534Y-309431D01*
X43319364Y-570285D01*
X43420182Y-819192D01*
X43555875Y-1050938D01*
X43558728Y-1054505D01*
X43670225Y-1193925D01*
X43723601Y-1260669D01*
X43919846Y-1443991D01*
X44012039Y-1507948D01*
X44136746Y-1594461D01*
X44136751Y-1594464D01*
X44140499Y-1597064D01*
X44144584Y-1599096D01*
X44144587Y-1599098D01*
X44260718Y-1656872D01*
X44380938Y-1716680D01*
X44385272Y-1718101D01*
X44385275Y-1718102D01*
X44631793Y-1798915D01*
X44631798Y-1798916D01*
X44636126Y-1800335D01*
X44640617Y-1801115D01*
X44640618Y-1801115D01*
X44896936Y-1845620D01*
X44896944Y-1845621D01*
X44900717Y-1846276D01*
X44904554Y-1846467D01*
X44983996Y-1850422D01*
X44984004Y-1850422D01*
X44985567Y-1850500D01*
X45153223Y-1850500D01*
X45155491Y-1850335D01*
X45155503Y-1850335D01*
X45285823Y-1840879D01*
X45352846Y-1836016D01*
X45357301Y-1835032D01*
X45357304Y-1835032D01*
X45610620Y-1779105D01*
X45610624Y-1779104D01*
X45615080Y-1778120D01*
X45782617Y-1714646D01*
X45861941Y-1684593D01*
X45861944Y-1684592D01*
X45866211Y-1682975D01*
X46100976Y-1552574D01*
X46243254Y-1443991D01*
X46310833Y-1392417D01*
X46310837Y-1392413D01*
X46314458Y-1389650D01*
X46502185Y-1197614D01*
X46660225Y-980491D01*
X46747313Y-814963D01*
X46783140Y-746868D01*
X46783143Y-746862D01*
X46785265Y-742828D01*
X46844703Y-574515D01*
X46873165Y-493916D01*
X46873165Y-493915D01*
X46874688Y-489603D01*
X46926620Y-226122D01*
X46926847Y-221566D01*
X46939745Y37526D01*
X46939745Y37532D01*
X46939972Y42095D01*
X46914466Y309431D01*
X46895519Y386865D01*
X46851721Y565851D01*
X46850636Y570285D01*
X46845610Y582695D01*
X46751531Y814963D01*
X46751531Y814964D01*
X46749818Y819192D01*
X46614125Y1050938D01*
X46503211Y1189629D01*
X46449251Y1257103D01*
X46449250Y1257105D01*
X46446399Y1260669D01*
X46250154Y1443991D01*
X46118232Y1535509D01*
X46033254Y1594461D01*
X46033249Y1594464D01*
X46029501Y1597064D01*
X46025416Y1599096D01*
X46025413Y1599098D01*
X45853560Y1684593D01*
X45789062Y1716680D01*
X45784728Y1718101D01*
X45784725Y1718102D01*
X45538207Y1798915D01*
X45538202Y1798916D01*
X45533874Y1800335D01*
X45529382Y1801115D01*
X45273064Y1845620D01*
X45273056Y1845621D01*
X45269283Y1846276D01*
X45260622Y1846707D01*
X45186004Y1850422D01*
X45185996Y1850422D01*
X45184433Y1850500D01*
X45016777Y1850500D01*
X45014509Y1850335D01*
X45014497Y1850335D01*
X44895892Y1841729D01*
X44817154Y1836016D01*
X44812699Y1835032D01*
X44812696Y1835032D01*
X44559380Y1779105D01*
X44559376Y1779104D01*
X44554920Y1778120D01*
X44445829Y1736789D01*
X44308059Y1684593D01*
X44308056Y1684592D01*
X44303789Y1682975D01*
X44069024Y1552574D01*
X44017134Y1512973D01*
X43859167Y1392417D01*
X43859163Y1392413D01*
X43855542Y1389650D01*
X43667815Y1197614D01*
X43509775Y980491D01*
X43491560Y945869D01*
X43386860Y746868D01*
X43386857Y746862D01*
X43384735Y742828D01*
X43383215Y738523D01*
X43383213Y738519D01*
X43323804Y570285D01*
X43295312Y489603D01*
X43243380Y226122D01*
X43243153Y221569D01*
X43243153Y221566D01*
X43232119Y-99D01*
X43230028Y-42095D01*
X23114000Y-42095D01*
X23114000Y1016000D01*
X25048318Y1016000D01*
X25068956Y859238D01*
X25129464Y713159D01*
X25225718Y587718D01*
X25232264Y582695D01*
X25248437Y570285D01*
X25351159Y491464D01*
X25497238Y430956D01*
X25654000Y410318D01*
X25662188Y411396D01*
X25802574Y429878D01*
X25810762Y430956D01*
X25956841Y491464D01*
X26059563Y570285D01*
X26075736Y582695D01*
X26082282Y587718D01*
X26178536Y713159D01*
X26239044Y859238D01*
X26259682Y1016000D01*
X26239044Y1172762D01*
X26178536Y1318841D01*
X26082282Y1444282D01*
X25956841Y1540536D01*
X25810762Y1601044D01*
X25654000Y1621682D01*
X25497238Y1601044D01*
X25351159Y1540536D01*
X25225718Y1444282D01*
X25129464Y1318841D01*
X25068956Y1172762D01*
X25048318Y1016000D01*
X23114000Y1016000D01*
X23114000Y2032000D01*
X40034318Y2032000D01*
X40054956Y1875238D01*
X40115464Y1729159D01*
X40211718Y1603718D01*
X40337159Y1507464D01*
X40483238Y1446956D01*
X40491426Y1445878D01*
X40529390Y1440880D01*
X40640000Y1426318D01*
X40648188Y1427396D01*
X40788574Y1445878D01*
X40796762Y1446956D01*
X40942841Y1507464D01*
X41068282Y1603718D01*
X41164536Y1729159D01*
X41225044Y1875238D01*
X41245682Y2032000D01*
X41225044Y2188762D01*
X41164536Y2334841D01*
X41068282Y2460282D01*
X40942841Y2556536D01*
X40796762Y2617044D01*
X40640000Y2637682D01*
X40483238Y2617044D01*
X40337159Y2556536D01*
X40211718Y2460282D01*
X40115464Y2334841D01*
X40054956Y2188762D01*
X40034318Y2032000D01*
X23114000Y2032000D01*
X23114000Y3683500D01*
X23134002Y3751621D01*
X23187658Y3798114D01*
X23240000Y3809500D01*
X45081918Y3809500D01*
X45088101Y3809348D01*
X45237258Y3802020D01*
X45237669Y3801999D01*
X45459971Y3790349D01*
X45471865Y3789158D01*
X45520253Y3781980D01*
X45647841Y3763055D01*
X45648965Y3762883D01*
X45842320Y3732259D01*
X45853204Y3730038D01*
X46030869Y3685535D01*
X46032864Y3685018D01*
X46216757Y3635744D01*
X46226573Y3632679D01*
X46401145Y3570216D01*
X46403725Y3569259D01*
X46579474Y3501795D01*
X46588181Y3498071D01*
X46756715Y3418360D01*
X46760045Y3416724D01*
X46926729Y3331795D01*
X46934296Y3327606D01*
X47018540Y3277113D01*
X47094750Y3231434D01*
X47098597Y3229033D01*
X47131839Y3207446D01*
X47255007Y3127460D01*
X47261370Y3123041D01*
X47411961Y3011355D01*
X47416180Y3008083D01*
X47560822Y2890954D01*
X47566144Y2886394D01*
X47705136Y2760420D01*
X47709615Y2756155D01*
X47841155Y2624615D01*
X47845420Y2620136D01*
X47971394Y2481144D01*
X47975954Y2475822D01*
X48093083Y2331180D01*
X48096355Y2326961D01*
X48208041Y2176370D01*
X48212460Y2170007D01*
X48292446Y2046839D01*
X48314033Y2013597D01*
X48316434Y2009750D01*
X48397058Y1875238D01*
X48412602Y1849304D01*
X48416795Y1841729D01*
X48501724Y1675045D01*
X48503360Y1671715D01*
X48583071Y1503181D01*
X48586795Y1494474D01*
X48654259Y1318725D01*
X48655216Y1316145D01*
X48717679Y1141573D01*
X48720744Y1131757D01*
X48770018Y947864D01*
X48770533Y945876D01*
X48803326Y814963D01*
X48815036Y768214D01*
X48817259Y757320D01*
X48846212Y574515D01*
X48847876Y564010D01*
X48848063Y562788D01*
X48874158Y386865D01*
X48875349Y374971D01*
X48886999Y152669D01*
X48887020Y152258D01*
X48894348Y3101D01*
X48894500Y-3082D01*
X48894500Y-40001918D01*
X48894348Y-40008101D01*
X48887020Y-40157258D01*
X48886999Y-40157669D01*
X48875349Y-40379971D01*
X48874158Y-40391865D01*
X48848063Y-40567788D01*
X48847883Y-40568965D01*
X48817259Y-40762320D01*
X48815038Y-40773204D01*
X48770535Y-40950869D01*
X48770018Y-40952864D01*
X48720744Y-41136757D01*
X48717679Y-41146573D01*
X48655216Y-41321145D01*
X48654259Y-41323725D01*
X48625971Y-41397417D01*
X48586799Y-41499464D01*
X48583071Y-41508181D01*
X48503360Y-41676715D01*
X48501724Y-41680045D01*
X48416795Y-41846729D01*
X48412602Y-41854304D01*
X48316434Y-42014750D01*
X48314033Y-42018597D01*
X48212460Y-42175007D01*
X48208041Y-42181370D01*
X48096355Y-42331961D01*
X48093083Y-42336180D01*
X47975954Y-42480822D01*
X47971394Y-42486144D01*
X47845420Y-42625136D01*
X47841155Y-42629615D01*
X47709615Y-42761155D01*
X47705136Y-42765420D01*
X47566144Y-42891394D01*
X47560822Y-42895954D01*
X47416180Y-43013083D01*
X47411961Y-43016355D01*
X47261370Y-43128041D01*
X47255007Y-43132460D01*
X47131839Y-43212446D01*
X47098597Y-43234033D01*
X47094750Y-43236434D01*
X47018540Y-43282113D01*
X46934296Y-43332606D01*
X46926729Y-43336795D01*
X46760045Y-43421724D01*
X46756715Y-43423360D01*
X46588181Y-43503071D01*
X46579474Y-43506795D01*
X46403725Y-43574259D01*
X46401145Y-43575216D01*
X46226573Y-43637679D01*
X46216757Y-43640744D01*
X46032864Y-43690018D01*
X46030876Y-43690533D01*
X45853204Y-43735038D01*
X45842320Y-43737259D01*
X45648965Y-43767883D01*
X45647841Y-43768055D01*
X45520253Y-43786980D01*
X45471865Y-43794158D01*
X45459971Y-43795349D01*
X45237669Y-43806999D01*
X45237258Y-43807020D01*
X45088101Y-43814348D01*
X45081918Y-43814500D01*
X3082Y-43814500D01*
X-3101Y-43814348D01*
X-152258Y-43807020D01*
X-152669Y-43806999D01*
X-374971Y-43795349D01*
X-386865Y-43794158D01*
X-435253Y-43786980D01*
X-562841Y-43768055D01*
X-563965Y-43767883D01*
X-757320Y-43737259D01*
X-768204Y-43735038D01*
X-945876Y-43690533D01*
X-947864Y-43690018D01*
X-1131757Y-43640744D01*
X-1141573Y-43637679D01*
X-1316145Y-43575216D01*
X-1318725Y-43574259D01*
X-1494474Y-43506795D01*
X-1503181Y-43503071D01*
X-1671715Y-43423360D01*
X-1675045Y-43421724D01*
X-1841729Y-43336795D01*
X-1849296Y-43332606D01*
X-1933540Y-43282113D01*
X-2009750Y-43236434D01*
X-2013597Y-43234033D01*
X-2046839Y-43212446D01*
X-2170007Y-43132460D01*
X-2176370Y-43128041D01*
X-2326961Y-43016355D01*
X-2331180Y-43013083D01*
X-2475822Y-42895954D01*
X-2481144Y-42891394D01*
X-2620136Y-42765420D01*
X-2624615Y-42761155D01*
X-2756155Y-42629615D01*
X-2760420Y-42625136D01*
X-2886394Y-42486144D01*
X-2890954Y-42480822D01*
X-3008083Y-42336180D01*
X-3011355Y-42331961D01*
X-3123041Y-42181370D01*
X-3127460Y-42175007D01*
X-3229033Y-42018597D01*
X-3231434Y-42014750D01*
X-3327602Y-41854304D01*
X-3331795Y-41846729D01*
X-3416724Y-41680045D01*
X-3418360Y-41676715D01*
X-3498071Y-41508181D01*
X-3501799Y-41499464D01*
X-3540971Y-41397417D01*
X-3569259Y-41323725D01*
X-3570216Y-41321145D01*
X-3632679Y-41146573D01*
X-3635744Y-41136757D01*
X-3685018Y-40952864D01*
X-3685535Y-40950869D01*
X-3730038Y-40773204D01*
X-3732259Y-40762320D01*
X-3762883Y-40568965D01*
X-3763063Y-40567788D01*
X-3789158Y-40391865D01*
X-3790349Y-40379971D01*
X-3801999Y-40157669D01*
X-3802020Y-40157258D01*
X-3807432Y-40047095D01*
X-1854972Y-40047095D01*
X-1829466Y-40314431D01*
X-1828381Y-40318865D01*
X-1828380Y-40318871D01*
X-1766721Y-40570851D01*
X-1765636Y-40575285D01*
X-1664818Y-40824192D01*
X-1529125Y-41055938D01*
X-1418211Y-41194629D01*
X-1414775Y-41198925D01*
X-1361399Y-41265669D01*
X-1165154Y-41448991D01*
X-1092398Y-41499464D01*
X-948254Y-41599461D01*
X-948249Y-41599464D01*
X-944501Y-41602064D01*
X-940416Y-41604096D01*
X-940413Y-41604098D01*
X-824281Y-41661872D01*
X-704062Y-41721680D01*
X-699728Y-41723101D01*
X-699725Y-41723102D01*
X-453207Y-41803915D01*
X-453202Y-41803916D01*
X-448874Y-41805335D01*
X-444383Y-41806115D01*
X-444382Y-41806115D01*
X-188064Y-41850620D01*
X-188056Y-41850621D01*
X-184283Y-41851276D01*
X-180446Y-41851467D01*
X-101004Y-41855422D01*
X-100996Y-41855422D01*
X-99433Y-41855500D01*
X68223Y-41855500D01*
X70491Y-41855335D01*
X70503Y-41855335D01*
X200823Y-41845879D01*
X267846Y-41841016D01*
X272301Y-41840032D01*
X272304Y-41840032D01*
X525620Y-41784105D01*
X525624Y-41784104D01*
X530080Y-41783120D01*
X697617Y-41719646D01*
X776941Y-41689593D01*
X776944Y-41689592D01*
X781211Y-41687975D01*
X1015976Y-41557574D01*
X1067866Y-41517973D01*
X1225833Y-41397417D01*
X1225837Y-41397413D01*
X1229458Y-41394650D01*
X1417185Y-41202614D01*
X1575225Y-40985491D01*
X1686909Y-40773214D01*
X1698140Y-40751868D01*
X1698143Y-40751862D01*
X1700265Y-40747828D01*
X1759703Y-40579515D01*
X1788165Y-40498916D01*
X1788165Y-40498915D01*
X1789688Y-40494603D01*
X1841620Y-40231122D01*
X1845297Y-40157258D01*
X1850781Y-40047095D01*
X43230028Y-40047095D01*
X43255534Y-40314431D01*
X43256619Y-40318865D01*
X43256620Y-40318871D01*
X43318279Y-40570851D01*
X43319364Y-40575285D01*
X43420182Y-40824192D01*
X43555875Y-41055938D01*
X43666789Y-41194629D01*
X43670225Y-41198925D01*
X43723601Y-41265669D01*
X43919846Y-41448991D01*
X43992602Y-41499464D01*
X44136746Y-41599461D01*
X44136751Y-41599464D01*
X44140499Y-41602064D01*
X44144584Y-41604096D01*
X44144587Y-41604098D01*
X44260719Y-41661872D01*
X44380938Y-41721680D01*
X44385272Y-41723101D01*
X44385275Y-41723102D01*
X44631793Y-41803915D01*
X44631798Y-41803916D01*
X44636126Y-41805335D01*
X44640617Y-41806115D01*
X44640618Y-41806115D01*
X44896936Y-41850620D01*
X44896944Y-41850621D01*
X44900717Y-41851276D01*
X44904554Y-41851467D01*
X44983996Y-41855422D01*
X44984004Y-41855422D01*
X44985567Y-41855500D01*
X45153223Y-41855500D01*
X45155491Y-41855335D01*
X45155503Y-41855335D01*
X45285823Y-41845879D01*
X45352846Y-41841016D01*
X45357301Y-41840032D01*
X45357304Y-41840032D01*
X45610620Y-41784105D01*
X45610624Y-41784104D01*
X45615080Y-41783120D01*
X45782617Y-41719646D01*
X45861941Y-41689593D01*
X45861944Y-41689592D01*
X45866211Y-41687975D01*
X46100976Y-41557574D01*
X46152866Y-41517973D01*
X46310833Y-41397417D01*
X46310837Y-41397413D01*
X46314458Y-41394650D01*
X46502185Y-41202614D01*
X46660225Y-40985491D01*
X46771909Y-40773214D01*
X46783140Y-40751868D01*
X46783143Y-40751862D01*
X46785265Y-40747828D01*
X46844703Y-40579515D01*
X46873165Y-40498916D01*
X46873165Y-40498915D01*
X46874688Y-40494603D01*
X46926620Y-40231122D01*
X46930297Y-40157258D01*
X46939745Y-39967474D01*
X46939745Y-39967468D01*
X46939972Y-39962905D01*
X46914466Y-39695569D01*
X46850636Y-39434715D01*
X46749818Y-39185808D01*
X46614125Y-38954062D01*
X46503211Y-38815371D01*
X46449251Y-38747897D01*
X46449250Y-38747895D01*
X46446399Y-38744331D01*
X46250154Y-38561009D01*
X46090436Y-38450208D01*
X46033254Y-38410539D01*
X46033249Y-38410536D01*
X46029501Y-38407936D01*
X46025416Y-38405904D01*
X46025413Y-38405902D01*
X45853560Y-38320407D01*
X45789062Y-38288320D01*
X45784728Y-38286899D01*
X45784725Y-38286898D01*
X45538207Y-38206085D01*
X45538202Y-38206084D01*
X45533874Y-38204665D01*
X45529382Y-38203885D01*
X45273064Y-38159380D01*
X45273056Y-38159379D01*
X45269283Y-38158724D01*
X45260622Y-38158293D01*
X45186004Y-38154578D01*
X45185996Y-38154578D01*
X45184433Y-38154500D01*
X45016777Y-38154500D01*
X45014509Y-38154665D01*
X45014497Y-38154665D01*
X44884177Y-38164121D01*
X44817154Y-38168984D01*
X44812699Y-38169968D01*
X44812696Y-38169968D01*
X44559380Y-38225895D01*
X44559376Y-38225896D01*
X44554920Y-38226880D01*
X44504169Y-38246108D01*
X44308059Y-38320407D01*
X44308056Y-38320408D01*
X44303789Y-38322025D01*
X44069024Y-38452426D01*
X44065392Y-38455198D01*
X43859167Y-38612583D01*
X43859163Y-38612587D01*
X43855542Y-38615350D01*
X43667815Y-38807386D01*
X43509775Y-39024509D01*
X43507651Y-39028547D01*
X43386860Y-39258132D01*
X43386857Y-39258138D01*
X43384735Y-39262172D01*
X43383215Y-39266477D01*
X43383213Y-39266481D01*
X43323804Y-39434715D01*
X43295312Y-39515397D01*
X43243380Y-39778878D01*
X43243153Y-39783431D01*
X43243153Y-39783434D01*
X43232124Y-40005000D01*
X43230028Y-40047095D01*
X1850781Y-40047095D01*
X1854745Y-39967474D01*
X1854745Y-39967468D01*
X1854972Y-39962905D01*
X1829466Y-39695569D01*
X1765636Y-39434715D01*
X1664818Y-39185808D01*
X1529125Y-38954062D01*
X1418211Y-38815371D01*
X1364251Y-38747897D01*
X1364250Y-38747895D01*
X1361399Y-38744331D01*
X1165154Y-38561009D01*
X1005436Y-38450208D01*
X948254Y-38410539D01*
X948249Y-38410536D01*
X944501Y-38407936D01*
X940416Y-38405904D01*
X940413Y-38405902D01*
X768560Y-38320407D01*
X704062Y-38288320D01*
X699728Y-38286899D01*
X699725Y-38286898D01*
X453207Y-38206085D01*
X453202Y-38206084D01*
X448874Y-38204665D01*
X444382Y-38203885D01*
X188064Y-38159380D01*
X188056Y-38159379D01*
X184283Y-38158724D01*
X175622Y-38158293D01*
X101004Y-38154578D01*
X100996Y-38154578D01*
X99433Y-38154500D01*
X-68223Y-38154500D01*
X-70491Y-38154665D01*
X-70503Y-38154665D01*
X-200823Y-38164121D01*
X-267846Y-38168984D01*
X-272301Y-38169968D01*
X-272304Y-38169968D01*
X-525620Y-38225895D01*
X-525624Y-38225896D01*
X-530080Y-38226880D01*
X-580831Y-38246108D01*
X-776941Y-38320407D01*
X-776944Y-38320408D01*
X-781211Y-38322025D01*
X-1015976Y-38452426D01*
X-1019608Y-38455198D01*
X-1225833Y-38612583D01*
X-1225837Y-38612587D01*
X-1229458Y-38615350D01*
X-1417185Y-38807386D01*
X-1575225Y-39024509D01*
X-1577349Y-39028547D01*
X-1698140Y-39258132D01*
X-1698143Y-39258138D01*
X-1700265Y-39262172D01*
X-1701785Y-39266477D01*
X-1701787Y-39266481D01*
X-1761196Y-39434715D01*
X-1789688Y-39515397D01*
X-1841620Y-39778878D01*
X-1841847Y-39783431D01*
X-1841847Y-39783434D01*
X-1852876Y-40005000D01*
X-1854972Y-40047095D01*
X-3807432Y-40047095D01*
X-3809348Y-40008101D01*
X-3809500Y-40001918D01*
X-3809500Y-37923307D01*
X12075606Y-37923307D01*
X12104064Y-38064444D01*
X12169429Y-38192730D01*
X12175242Y-38199052D01*
X12175243Y-38199053D01*
X12180404Y-38204665D01*
X12266884Y-38298712D01*
X12389250Y-38374582D01*
X12527512Y-38414751D01*
X12534327Y-38415251D01*
X12535404Y-38415331D01*
X12535417Y-38415331D01*
X12537712Y-38415500D01*
X12641070Y-38415500D01*
X12645315Y-38414918D01*
X12645322Y-38414918D01*
X12704231Y-38406848D01*
X12747646Y-38400901D01*
X12802929Y-38376978D01*
X12871902Y-38347131D01*
X12871905Y-38347129D01*
X12879783Y-38343720D01*
X12991675Y-38253112D01*
X13075079Y-38135751D01*
X13123850Y-38000285D01*
X13129503Y-37923307D01*
X16075606Y-37923307D01*
X16104064Y-38064444D01*
X16169429Y-38192730D01*
X16175242Y-38199052D01*
X16175243Y-38199053D01*
X16180404Y-38204665D01*
X16266884Y-38298712D01*
X16389250Y-38374582D01*
X16527512Y-38414751D01*
X16534327Y-38415251D01*
X16535404Y-38415331D01*
X16535417Y-38415331D01*
X16537712Y-38415500D01*
X16641070Y-38415500D01*
X16645315Y-38414918D01*
X16645322Y-38414918D01*
X16704231Y-38406848D01*
X16747646Y-38400901D01*
X16802929Y-38376978D01*
X16871902Y-38347131D01*
X16871905Y-38347129D01*
X16879783Y-38343720D01*
X16991675Y-38253112D01*
X17075079Y-38135751D01*
X17123850Y-38000285D01*
X17134394Y-37856693D01*
X17105936Y-37715556D01*
X17040571Y-37587270D01*
X16943116Y-37481288D01*
X16820750Y-37405418D01*
X16682488Y-37365249D01*
X16675673Y-37364749D01*
X16674596Y-37364669D01*
X16674583Y-37364669D01*
X16672288Y-37364500D01*
X16568930Y-37364500D01*
X16564685Y-37365082D01*
X16564678Y-37365082D01*
X16505769Y-37373152D01*
X16462354Y-37379099D01*
X16454470Y-37382511D01*
X16454469Y-37382511D01*
X16338098Y-37432869D01*
X16338095Y-37432871D01*
X16330217Y-37436280D01*
X16218325Y-37526888D01*
X16134921Y-37644249D01*
X16086150Y-37779715D01*
X16075606Y-37923307D01*
X13129503Y-37923307D01*
X13134394Y-37856693D01*
X13105936Y-37715556D01*
X13040571Y-37587270D01*
X12943116Y-37481288D01*
X12820750Y-37405418D01*
X12682488Y-37365249D01*
X12675673Y-37364749D01*
X12674596Y-37364669D01*
X12674583Y-37364669D01*
X12672288Y-37364500D01*
X12568930Y-37364500D01*
X12564685Y-37365082D01*
X12564678Y-37365082D01*
X12505769Y-37373152D01*
X12462354Y-37379099D01*
X12454470Y-37382511D01*
X12454469Y-37382511D01*
X12338098Y-37432869D01*
X12338095Y-37432871D01*
X12330217Y-37436280D01*
X12218325Y-37526888D01*
X12134921Y-37644249D01*
X12086150Y-37779715D01*
X12075606Y-37923307D01*
X-3809500Y-37923307D01*
X-3809500Y-36322000D01*
X16666318Y-36322000D01*
X16686956Y-36478762D01*
X16747464Y-36624841D01*
X16843718Y-36750282D01*
X16969159Y-36846536D01*
X17115238Y-36907044D01*
X17272000Y-36927682D01*
X17280188Y-36926604D01*
X17420574Y-36908122D01*
X17428762Y-36907044D01*
X17574841Y-36846536D01*
X17700282Y-36750282D01*
X17796536Y-36624841D01*
X17857044Y-36478762D01*
X17877682Y-36322000D01*
X17857044Y-36165238D01*
X17796536Y-36019159D01*
X17700282Y-35893718D01*
X17574841Y-35797464D01*
X17428762Y-35736956D01*
X17272000Y-35716318D01*
X17115238Y-35736956D01*
X16969159Y-35797464D01*
X16843718Y-35893718D01*
X16747464Y-36019159D01*
X16686956Y-36165238D01*
X16666318Y-36322000D01*
X-3809500Y-36322000D01*
X-3809500Y-34214748D01*
X34509500Y-34214748D01*
X34510707Y-34220816D01*
X34514331Y-34239033D01*
X34521133Y-34273231D01*
X34565448Y-34339552D01*
X34631769Y-34383867D01*
X34643938Y-34386288D01*
X34643939Y-34386288D01*
X34684184Y-34394293D01*
X34690252Y-34395500D01*
X36429748Y-34395500D01*
X36435816Y-34394293D01*
X36476061Y-34386288D01*
X36476062Y-34386288D01*
X36488231Y-34383867D01*
X36554552Y-34339552D01*
X36598867Y-34273231D01*
X36605670Y-34239033D01*
X36609293Y-34220816D01*
X36610500Y-34214748D01*
X36610500Y-33330262D01*
X37044520Y-33330262D01*
X37061759Y-33535553D01*
X37118544Y-33733586D01*
X37121359Y-33739063D01*
X37121360Y-33739066D01*
X37142247Y-33779707D01*
X37212712Y-33916818D01*
X37340677Y-34078270D01*
X37497564Y-34211791D01*
X37677398Y-34312297D01*
X37761280Y-34339552D01*
X37867471Y-34374056D01*
X37867475Y-34374057D01*
X37873329Y-34375959D01*
X38077894Y-34400351D01*
X38084029Y-34399879D01*
X38084031Y-34399879D01*
X38156625Y-34394293D01*
X38283300Y-34384546D01*
X38289230Y-34382890D01*
X38289232Y-34382890D01*
X38475797Y-34330800D01*
X38475796Y-34330800D01*
X38481725Y-34329145D01*
X38487214Y-34326372D01*
X38487220Y-34326370D01*
X38660116Y-34239033D01*
X38665610Y-34236258D01*
X38827951Y-34109424D01*
X38962564Y-33953472D01*
X38983387Y-33916818D01*
X39061276Y-33779707D01*
X39064323Y-33774344D01*
X39129351Y-33578863D01*
X39155171Y-33374474D01*
X39155583Y-33345000D01*
X39154138Y-33330262D01*
X39584520Y-33330262D01*
X39601759Y-33535553D01*
X39658544Y-33733586D01*
X39661359Y-33739063D01*
X39661360Y-33739066D01*
X39682247Y-33779707D01*
X39752712Y-33916818D01*
X39880677Y-34078270D01*
X40037564Y-34211791D01*
X40217398Y-34312297D01*
X40301280Y-34339552D01*
X40407471Y-34374056D01*
X40407475Y-34374057D01*
X40413329Y-34375959D01*
X40617894Y-34400351D01*
X40624029Y-34399879D01*
X40624031Y-34399879D01*
X40696625Y-34394293D01*
X40823300Y-34384546D01*
X40829230Y-34382890D01*
X40829232Y-34382890D01*
X41015797Y-34330800D01*
X41015796Y-34330800D01*
X41021725Y-34329145D01*
X41027214Y-34326372D01*
X41027220Y-34326370D01*
X41200116Y-34239033D01*
X41205610Y-34236258D01*
X41367951Y-34109424D01*
X41502564Y-33953472D01*
X41523387Y-33916818D01*
X41601276Y-33779707D01*
X41604323Y-33774344D01*
X41669351Y-33578863D01*
X41695171Y-33374474D01*
X41695583Y-33345000D01*
X41694138Y-33330262D01*
X42124520Y-33330262D01*
X42141759Y-33535553D01*
X42198544Y-33733586D01*
X42201359Y-33739063D01*
X42201360Y-33739066D01*
X42222247Y-33779707D01*
X42292712Y-33916818D01*
X42420677Y-34078270D01*
X42577564Y-34211791D01*
X42757398Y-34312297D01*
X42841280Y-34339552D01*
X42947471Y-34374056D01*
X42947475Y-34374057D01*
X42953329Y-34375959D01*
X43157894Y-34400351D01*
X43164029Y-34399879D01*
X43164031Y-34399879D01*
X43236625Y-34394293D01*
X43363300Y-34384546D01*
X43369230Y-34382890D01*
X43369232Y-34382890D01*
X43555797Y-34330800D01*
X43555796Y-34330800D01*
X43561725Y-34329145D01*
X43567214Y-34326372D01*
X43567220Y-34326370D01*
X43740116Y-34239033D01*
X43745610Y-34236258D01*
X43907951Y-34109424D01*
X44042564Y-33953472D01*
X44063387Y-33916818D01*
X44141276Y-33779707D01*
X44144323Y-33774344D01*
X44209351Y-33578863D01*
X44235171Y-33374474D01*
X44235583Y-33345000D01*
X44234138Y-33330262D01*
X44664520Y-33330262D01*
X44681759Y-33535553D01*
X44738544Y-33733586D01*
X44741359Y-33739063D01*
X44741360Y-33739066D01*
X44762247Y-33779707D01*
X44832712Y-33916818D01*
X44960677Y-34078270D01*
X45117564Y-34211791D01*
X45297398Y-34312297D01*
X45381280Y-34339552D01*
X45487471Y-34374056D01*
X45487475Y-34374057D01*
X45493329Y-34375959D01*
X45697894Y-34400351D01*
X45704029Y-34399879D01*
X45704031Y-34399879D01*
X45776625Y-34394293D01*
X45903300Y-34384546D01*
X45909230Y-34382890D01*
X45909232Y-34382890D01*
X46095797Y-34330800D01*
X46095796Y-34330800D01*
X46101725Y-34329145D01*
X46107214Y-34326372D01*
X46107220Y-34326370D01*
X46280116Y-34239033D01*
X46285610Y-34236258D01*
X46447951Y-34109424D01*
X46582564Y-33953472D01*
X46603387Y-33916818D01*
X46681276Y-33779707D01*
X46684323Y-33774344D01*
X46749351Y-33578863D01*
X46775171Y-33374474D01*
X46775583Y-33345000D01*
X46755480Y-33139970D01*
X46695935Y-32942749D01*
X46599218Y-32760849D01*
X46525859Y-32670902D01*
X46472906Y-32605975D01*
X46472903Y-32605972D01*
X46469011Y-32601200D01*
X46451786Y-32586950D01*
X46315025Y-32473811D01*
X46315021Y-32473809D01*
X46310275Y-32469882D01*
X46129055Y-32371897D01*
X45932254Y-32310977D01*
X45926129Y-32310333D01*
X45926128Y-32310333D01*
X45733498Y-32290087D01*
X45733496Y-32290087D01*
X45727369Y-32289443D01*
X45640529Y-32297346D01*
X45528342Y-32307555D01*
X45528339Y-32307556D01*
X45522203Y-32308114D01*
X45324572Y-32366280D01*
X45142002Y-32461726D01*
X45137201Y-32465586D01*
X45137198Y-32465588D01*
X44986254Y-32586950D01*
X44981447Y-32590815D01*
X44849024Y-32748630D01*
X44846056Y-32754028D01*
X44846053Y-32754033D01*
X44839315Y-32766290D01*
X44749776Y-32929162D01*
X44687484Y-33125532D01*
X44686798Y-33131649D01*
X44686797Y-33131653D01*
X44665207Y-33324137D01*
X44664520Y-33330262D01*
X44234138Y-33330262D01*
X44215480Y-33139970D01*
X44155935Y-32942749D01*
X44059218Y-32760849D01*
X43985859Y-32670902D01*
X43932906Y-32605975D01*
X43932903Y-32605972D01*
X43929011Y-32601200D01*
X43911786Y-32586950D01*
X43775025Y-32473811D01*
X43775021Y-32473809D01*
X43770275Y-32469882D01*
X43589055Y-32371897D01*
X43392254Y-32310977D01*
X43386129Y-32310333D01*
X43386128Y-32310333D01*
X43193498Y-32290087D01*
X43193496Y-32290087D01*
X43187369Y-32289443D01*
X43100529Y-32297346D01*
X42988342Y-32307555D01*
X42988339Y-32307556D01*
X42982203Y-32308114D01*
X42784572Y-32366280D01*
X42602002Y-32461726D01*
X42597201Y-32465586D01*
X42597198Y-32465588D01*
X42446254Y-32586950D01*
X42441447Y-32590815D01*
X42309024Y-32748630D01*
X42306056Y-32754028D01*
X42306053Y-32754033D01*
X42299315Y-32766290D01*
X42209776Y-32929162D01*
X42147484Y-33125532D01*
X42146798Y-33131649D01*
X42146797Y-33131653D01*
X42125207Y-33324137D01*
X42124520Y-33330262D01*
X41694138Y-33330262D01*
X41675480Y-33139970D01*
X41615935Y-32942749D01*
X41519218Y-32760849D01*
X41445859Y-32670902D01*
X41392906Y-32605975D01*
X41392903Y-32605972D01*
X41389011Y-32601200D01*
X41371786Y-32586950D01*
X41235025Y-32473811D01*
X41235021Y-32473809D01*
X41230275Y-32469882D01*
X41049055Y-32371897D01*
X40852254Y-32310977D01*
X40846129Y-32310333D01*
X40846128Y-32310333D01*
X40653498Y-32290087D01*
X40653496Y-32290087D01*
X40647369Y-32289443D01*
X40560529Y-32297346D01*
X40448342Y-32307555D01*
X40448339Y-32307556D01*
X40442203Y-32308114D01*
X40244572Y-32366280D01*
X40062002Y-32461726D01*
X40057201Y-32465586D01*
X40057198Y-32465588D01*
X39906254Y-32586950D01*
X39901447Y-32590815D01*
X39769024Y-32748630D01*
X39766056Y-32754028D01*
X39766053Y-32754033D01*
X39759315Y-32766290D01*
X39669776Y-32929162D01*
X39607484Y-33125532D01*
X39606798Y-33131649D01*
X39606797Y-33131653D01*
X39585207Y-33324137D01*
X39584520Y-33330262D01*
X39154138Y-33330262D01*
X39135480Y-33139970D01*
X39075935Y-32942749D01*
X38979218Y-32760849D01*
X38905859Y-32670902D01*
X38852906Y-32605975D01*
X38852903Y-32605972D01*
X38849011Y-32601200D01*
X38831786Y-32586950D01*
X38695025Y-32473811D01*
X38695021Y-32473809D01*
X38690275Y-32469882D01*
X38509055Y-32371897D01*
X38312254Y-32310977D01*
X38306129Y-32310333D01*
X38306128Y-32310333D01*
X38113498Y-32290087D01*
X38113496Y-32290087D01*
X38107369Y-32289443D01*
X38020529Y-32297346D01*
X37908342Y-32307555D01*
X37908339Y-32307556D01*
X37902203Y-32308114D01*
X37704572Y-32366280D01*
X37522002Y-32461726D01*
X37517201Y-32465586D01*
X37517198Y-32465588D01*
X37366254Y-32586950D01*
X37361447Y-32590815D01*
X37229024Y-32748630D01*
X37226056Y-32754028D01*
X37226053Y-32754033D01*
X37219315Y-32766290D01*
X37129776Y-32929162D01*
X37067484Y-33125532D01*
X37066798Y-33131649D01*
X37066797Y-33131653D01*
X37045207Y-33324137D01*
X37044520Y-33330262D01*
X36610500Y-33330262D01*
X36610500Y-32475252D01*
X36598867Y-32416769D01*
X36554552Y-32350448D01*
X36488231Y-32306133D01*
X36476062Y-32303712D01*
X36476061Y-32303712D01*
X36435816Y-32295707D01*
X36429748Y-32294500D01*
X34690252Y-32294500D01*
X34684184Y-32295707D01*
X34643939Y-32303712D01*
X34643938Y-32303712D01*
X34631769Y-32306133D01*
X34565448Y-32350448D01*
X34521133Y-32416769D01*
X34509500Y-32475252D01*
X34509500Y-34214748D01*
X-3809500Y-34214748D01*
X-3809500Y-31999748D01*
X16094500Y-31999748D01*
X16095707Y-32005816D01*
X16100729Y-32031061D01*
X16106133Y-32058231D01*
X16150448Y-32124552D01*
X16160761Y-32131443D01*
X16197944Y-32156288D01*
X16216769Y-32168867D01*
X16228938Y-32171288D01*
X16228939Y-32171288D01*
X16269184Y-32179293D01*
X16275252Y-32180500D01*
X18014748Y-32180500D01*
X18020816Y-32179293D01*
X18061061Y-32171288D01*
X18061062Y-32171288D01*
X18073231Y-32168867D01*
X18092057Y-32156288D01*
X18129239Y-32131443D01*
X18139552Y-32124552D01*
X18183867Y-32058231D01*
X18189272Y-32031061D01*
X18194293Y-32005816D01*
X18195500Y-31999748D01*
X18195500Y-31100262D01*
X22439520Y-31100262D01*
X22456759Y-31305553D01*
X22513544Y-31503586D01*
X22516359Y-31509063D01*
X22516360Y-31509066D01*
X22537247Y-31549707D01*
X22607712Y-31686818D01*
X22735677Y-31848270D01*
X22892564Y-31981791D01*
X22897942Y-31984797D01*
X22897944Y-31984798D01*
X22936342Y-32006258D01*
X23072398Y-32082297D01*
X23156280Y-32109552D01*
X23262471Y-32144056D01*
X23262475Y-32144057D01*
X23268329Y-32145959D01*
X23472894Y-32170351D01*
X23479029Y-32169879D01*
X23479031Y-32169879D01*
X23551625Y-32164293D01*
X23678300Y-32154546D01*
X23684230Y-32152890D01*
X23684232Y-32152890D01*
X23870797Y-32100800D01*
X23870796Y-32100800D01*
X23876725Y-32099145D01*
X23882214Y-32096372D01*
X23882220Y-32096370D01*
X24055116Y-32009033D01*
X24060610Y-32006258D01*
X24068943Y-31999748D01*
X24218101Y-31883213D01*
X24222951Y-31879424D01*
X24357564Y-31723472D01*
X24378387Y-31686818D01*
X24456276Y-31549707D01*
X24459323Y-31544344D01*
X24524351Y-31348863D01*
X24550171Y-31144474D01*
X24550583Y-31115000D01*
X24549138Y-31100262D01*
X24979520Y-31100262D01*
X24996759Y-31305553D01*
X25053544Y-31503586D01*
X25056359Y-31509063D01*
X25056360Y-31509066D01*
X25077247Y-31549707D01*
X25147712Y-31686818D01*
X25275677Y-31848270D01*
X25432564Y-31981791D01*
X25437942Y-31984797D01*
X25437944Y-31984798D01*
X25476342Y-32006258D01*
X25612398Y-32082297D01*
X25696280Y-32109552D01*
X25802471Y-32144056D01*
X25802475Y-32144057D01*
X25808329Y-32145959D01*
X26012894Y-32170351D01*
X26019029Y-32169879D01*
X26019031Y-32169879D01*
X26091625Y-32164293D01*
X26218300Y-32154546D01*
X26224230Y-32152890D01*
X26224232Y-32152890D01*
X26410797Y-32100800D01*
X26410796Y-32100800D01*
X26416725Y-32099145D01*
X26422214Y-32096372D01*
X26422220Y-32096370D01*
X26595116Y-32009033D01*
X26600610Y-32006258D01*
X26608943Y-31999748D01*
X26758101Y-31883213D01*
X26762951Y-31879424D01*
X26897564Y-31723472D01*
X26918387Y-31686818D01*
X26996276Y-31549707D01*
X26999323Y-31544344D01*
X27064351Y-31348863D01*
X27090171Y-31144474D01*
X27090583Y-31115000D01*
X27089138Y-31100262D01*
X27519520Y-31100262D01*
X27536759Y-31305553D01*
X27593544Y-31503586D01*
X27596359Y-31509063D01*
X27596360Y-31509066D01*
X27617247Y-31549707D01*
X27687712Y-31686818D01*
X27815677Y-31848270D01*
X27972564Y-31981791D01*
X27977942Y-31984797D01*
X27977944Y-31984798D01*
X28016342Y-32006258D01*
X28152398Y-32082297D01*
X28236280Y-32109552D01*
X28342471Y-32144056D01*
X28342475Y-32144057D01*
X28348329Y-32145959D01*
X28552894Y-32170351D01*
X28559029Y-32169879D01*
X28559031Y-32169879D01*
X28631625Y-32164293D01*
X28758300Y-32154546D01*
X28764230Y-32152890D01*
X28764232Y-32152890D01*
X28950797Y-32100800D01*
X28950796Y-32100800D01*
X28956725Y-32099145D01*
X28962214Y-32096372D01*
X28962220Y-32096370D01*
X29135116Y-32009033D01*
X29140610Y-32006258D01*
X29148943Y-31999748D01*
X29168142Y-31984748D01*
X30064500Y-31984748D01*
X30065707Y-31990816D01*
X30069331Y-32009033D01*
X30076133Y-32043231D01*
X30120448Y-32109552D01*
X30186769Y-32153867D01*
X30198938Y-32156288D01*
X30198939Y-32156288D01*
X30239184Y-32164293D01*
X30245252Y-32165500D01*
X31984748Y-32165500D01*
X31990816Y-32164293D01*
X32031061Y-32156288D01*
X32031062Y-32156288D01*
X32043231Y-32153867D01*
X32109552Y-32109552D01*
X32153867Y-32043231D01*
X32160670Y-32009033D01*
X32164293Y-31990816D01*
X32165500Y-31984748D01*
X32165500Y-30245252D01*
X32160145Y-30218330D01*
X32156288Y-30198939D01*
X32156288Y-30198938D01*
X32153867Y-30186769D01*
X32109552Y-30120448D01*
X32065680Y-30091133D01*
X32053547Y-30083026D01*
X32043231Y-30076133D01*
X32031062Y-30073712D01*
X32031061Y-30073712D01*
X31990816Y-30065707D01*
X31984748Y-30064500D01*
X30245252Y-30064500D01*
X30239184Y-30065707D01*
X30198939Y-30073712D01*
X30198938Y-30073712D01*
X30186769Y-30076133D01*
X30176453Y-30083026D01*
X30164320Y-30091133D01*
X30120448Y-30120448D01*
X30076133Y-30186769D01*
X30073712Y-30198938D01*
X30073712Y-30198939D01*
X30069855Y-30218330D01*
X30064500Y-30245252D01*
X30064500Y-31984748D01*
X29168142Y-31984748D01*
X29298101Y-31883213D01*
X29302951Y-31879424D01*
X29437564Y-31723472D01*
X29458387Y-31686818D01*
X29536276Y-31549707D01*
X29539323Y-31544344D01*
X29604351Y-31348863D01*
X29630171Y-31144474D01*
X29630583Y-31115000D01*
X29610480Y-30909970D01*
X29550935Y-30712749D01*
X29454218Y-30530849D01*
X29380859Y-30440902D01*
X29327906Y-30375975D01*
X29327903Y-30375972D01*
X29324011Y-30371200D01*
X29290855Y-30343771D01*
X29170025Y-30243811D01*
X29170021Y-30243809D01*
X29165275Y-30239882D01*
X28984055Y-30141897D01*
X28787254Y-30080977D01*
X28781129Y-30080333D01*
X28781128Y-30080333D01*
X28588498Y-30060087D01*
X28588496Y-30060087D01*
X28582369Y-30059443D01*
X28495529Y-30067346D01*
X28383342Y-30077555D01*
X28383339Y-30077556D01*
X28377203Y-30078114D01*
X28179572Y-30136280D01*
X27997002Y-30231726D01*
X27992201Y-30235586D01*
X27992198Y-30235588D01*
X27851398Y-30348794D01*
X27836447Y-30360815D01*
X27704024Y-30518630D01*
X27701056Y-30524028D01*
X27701053Y-30524033D01*
X27694315Y-30536290D01*
X27604776Y-30699162D01*
X27542484Y-30895532D01*
X27541798Y-30901649D01*
X27541797Y-30901653D01*
X27520207Y-31094137D01*
X27519520Y-31100262D01*
X27089138Y-31100262D01*
X27070480Y-30909970D01*
X27010935Y-30712749D01*
X26914218Y-30530849D01*
X26840859Y-30440902D01*
X26787906Y-30375975D01*
X26787903Y-30375972D01*
X26784011Y-30371200D01*
X26750855Y-30343771D01*
X26630025Y-30243811D01*
X26630021Y-30243809D01*
X26625275Y-30239882D01*
X26444055Y-30141897D01*
X26247254Y-30080977D01*
X26241129Y-30080333D01*
X26241128Y-30080333D01*
X26048498Y-30060087D01*
X26048496Y-30060087D01*
X26042369Y-30059443D01*
X25955529Y-30067346D01*
X25843342Y-30077555D01*
X25843339Y-30077556D01*
X25837203Y-30078114D01*
X25639572Y-30136280D01*
X25457002Y-30231726D01*
X25452201Y-30235586D01*
X25452198Y-30235588D01*
X25311398Y-30348794D01*
X25296447Y-30360815D01*
X25164024Y-30518630D01*
X25161056Y-30524028D01*
X25161053Y-30524033D01*
X25154315Y-30536290D01*
X25064776Y-30699162D01*
X25002484Y-30895532D01*
X25001798Y-30901649D01*
X25001797Y-30901653D01*
X24980207Y-31094137D01*
X24979520Y-31100262D01*
X24549138Y-31100262D01*
X24530480Y-30909970D01*
X24470935Y-30712749D01*
X24374218Y-30530849D01*
X24300859Y-30440902D01*
X24247906Y-30375975D01*
X24247903Y-30375972D01*
X24244011Y-30371200D01*
X24210855Y-30343771D01*
X24090025Y-30243811D01*
X24090021Y-30243809D01*
X24085275Y-30239882D01*
X23904055Y-30141897D01*
X23707254Y-30080977D01*
X23701129Y-30080333D01*
X23701128Y-30080333D01*
X23508498Y-30060087D01*
X23508496Y-30060087D01*
X23502369Y-30059443D01*
X23415529Y-30067346D01*
X23303342Y-30077555D01*
X23303339Y-30077556D01*
X23297203Y-30078114D01*
X23099572Y-30136280D01*
X22917002Y-30231726D01*
X22912201Y-30235586D01*
X22912198Y-30235588D01*
X22771398Y-30348794D01*
X22756447Y-30360815D01*
X22624024Y-30518630D01*
X22621056Y-30524028D01*
X22621053Y-30524033D01*
X22614315Y-30536290D01*
X22524776Y-30699162D01*
X22462484Y-30895532D01*
X22461798Y-30901649D01*
X22461797Y-30901653D01*
X22440207Y-31094137D01*
X22439520Y-31100262D01*
X18195500Y-31100262D01*
X18195500Y-30260252D01*
X18183867Y-30201769D01*
X18139552Y-30135448D01*
X18073231Y-30091133D01*
X18061062Y-30088712D01*
X18061061Y-30088712D01*
X18020816Y-30080707D01*
X18014748Y-30079500D01*
X16275252Y-30079500D01*
X16269184Y-30080707D01*
X16228939Y-30088712D01*
X16228938Y-30088712D01*
X16216769Y-30091133D01*
X16150448Y-30135448D01*
X16106133Y-30201769D01*
X16094500Y-30260252D01*
X16094500Y-31999748D01*
X-3809500Y-31999748D01*
X-3809500Y-29915489D01*
X12658829Y-29915489D01*
X12679467Y-30072251D01*
X12739975Y-30218330D01*
X12836229Y-30343771D01*
X12961670Y-30440025D01*
X13107749Y-30500533D01*
X13264511Y-30521171D01*
X13272699Y-30520093D01*
X13413085Y-30501611D01*
X13421273Y-30500533D01*
X13567352Y-30440025D01*
X13692793Y-30343771D01*
X13789047Y-30218330D01*
X13849555Y-30072251D01*
X13870193Y-29915489D01*
X13849555Y-29758727D01*
X13789047Y-29612648D01*
X13692793Y-29487207D01*
X13567352Y-29390953D01*
X13421273Y-29330445D01*
X13397119Y-29327265D01*
X13272699Y-29310885D01*
X13264511Y-29309807D01*
X13256323Y-29310885D01*
X13131904Y-29327265D01*
X13107749Y-29330445D01*
X12961670Y-29390953D01*
X12836229Y-29487207D01*
X12739975Y-29612648D01*
X12679467Y-29758727D01*
X12658829Y-29915489D01*
X-3809500Y-29915489D01*
X-3809500Y-28702000D01*
X-1113682Y-28702000D01*
X-1093044Y-28858762D01*
X-1032536Y-29004841D01*
X-936282Y-29130282D01*
X-810841Y-29226536D01*
X-664762Y-29287044D01*
X-508000Y-29307682D01*
X-499812Y-29306604D01*
X-359426Y-29288122D01*
X-351238Y-29287044D01*
X-205159Y-29226536D01*
X-79718Y-29130282D01*
X16536Y-29004841D01*
X77044Y-28858762D01*
X97682Y-28702000D01*
X80997Y-28575262D01*
X16089520Y-28575262D01*
X16090036Y-28581406D01*
X16104984Y-28759411D01*
X16106759Y-28780553D01*
X16163544Y-28978586D01*
X16166359Y-28984063D01*
X16166360Y-28984066D01*
X16241505Y-29130282D01*
X16257712Y-29161818D01*
X16385677Y-29323270D01*
X16390370Y-29327264D01*
X16390371Y-29327265D01*
X16397821Y-29333605D01*
X16542564Y-29456791D01*
X16547942Y-29459797D01*
X16547944Y-29459798D01*
X16632481Y-29507044D01*
X16722398Y-29557297D01*
X16817238Y-29588113D01*
X16912471Y-29619056D01*
X16912475Y-29619057D01*
X16918329Y-29620959D01*
X17122894Y-29645351D01*
X17129029Y-29644879D01*
X17129031Y-29644879D01*
X17185039Y-29640569D01*
X17328300Y-29629546D01*
X17334230Y-29627890D01*
X17334232Y-29627890D01*
X17520797Y-29575800D01*
X17520796Y-29575800D01*
X17526725Y-29574145D01*
X17532214Y-29571372D01*
X17532220Y-29571370D01*
X17705116Y-29484033D01*
X17710610Y-29481258D01*
X17726258Y-29469033D01*
X17868101Y-29358213D01*
X17872951Y-29354424D01*
X17889920Y-29334766D01*
X18003540Y-29203134D01*
X18003540Y-29203133D01*
X18007564Y-29198472D01*
X18028387Y-29161818D01*
X18106276Y-29024707D01*
X18109323Y-29019344D01*
X18174351Y-28823863D01*
X18200171Y-28619474D01*
X18200583Y-28590000D01*
X18197667Y-28560262D01*
X40219520Y-28560262D01*
X40236759Y-28765553D01*
X40238458Y-28771478D01*
X40251725Y-28817744D01*
X40293544Y-28963586D01*
X40296359Y-28969063D01*
X40296360Y-28969066D01*
X40381795Y-29135305D01*
X40387712Y-29146818D01*
X40515677Y-29308270D01*
X40520370Y-29312264D01*
X40520371Y-29312265D01*
X40545446Y-29333605D01*
X40672564Y-29441791D01*
X40677942Y-29444797D01*
X40677944Y-29444798D01*
X40709563Y-29462469D01*
X40852398Y-29542297D01*
X40941875Y-29571370D01*
X41042471Y-29604056D01*
X41042475Y-29604057D01*
X41048329Y-29605959D01*
X41252894Y-29630351D01*
X41259029Y-29629879D01*
X41259031Y-29629879D01*
X41315039Y-29625569D01*
X41458300Y-29614546D01*
X41464230Y-29612890D01*
X41464232Y-29612890D01*
X41650797Y-29560800D01*
X41650796Y-29560800D01*
X41656725Y-29559145D01*
X41662214Y-29556372D01*
X41662220Y-29556370D01*
X41835116Y-29469033D01*
X41840610Y-29466258D01*
X41848879Y-29459798D01*
X41930562Y-29395980D01*
X42002951Y-29339424D01*
X42010702Y-29330445D01*
X42133540Y-29188134D01*
X42133540Y-29188133D01*
X42137564Y-29183472D01*
X42158387Y-29146818D01*
X42227755Y-29024707D01*
X42239323Y-29004344D01*
X42304351Y-28808863D01*
X42330171Y-28604474D01*
X42330422Y-28586494D01*
X42330534Y-28578522D01*
X42330534Y-28578518D01*
X42330583Y-28575000D01*
X42310480Y-28369970D01*
X42250935Y-28172749D01*
X42154218Y-27990849D01*
X42080859Y-27900902D01*
X42027906Y-27835975D01*
X42027903Y-27835972D01*
X42024011Y-27831200D01*
X42006786Y-27816950D01*
X41870025Y-27703811D01*
X41870021Y-27703809D01*
X41865275Y-27699882D01*
X41708427Y-27615075D01*
X41689474Y-27604827D01*
X41684055Y-27601897D01*
X41487254Y-27540977D01*
X41481129Y-27540333D01*
X41481128Y-27540333D01*
X41288498Y-27520087D01*
X41288496Y-27520087D01*
X41282369Y-27519443D01*
X41195529Y-27527346D01*
X41083342Y-27537555D01*
X41083339Y-27537556D01*
X41077203Y-27538114D01*
X40879572Y-27596280D01*
X40697002Y-27691726D01*
X40692201Y-27695586D01*
X40692198Y-27695588D01*
X40541254Y-27816950D01*
X40536447Y-27820815D01*
X40404024Y-27978630D01*
X40401056Y-27984028D01*
X40401053Y-27984033D01*
X40326242Y-28120116D01*
X40304776Y-28159162D01*
X40242484Y-28355532D01*
X40241798Y-28361649D01*
X40241797Y-28361653D01*
X40222061Y-28537609D01*
X40219520Y-28560262D01*
X18197667Y-28560262D01*
X18180480Y-28384970D01*
X18120935Y-28187749D01*
X18024218Y-28005849D01*
X17950859Y-27915902D01*
X17897906Y-27850975D01*
X17897903Y-27850972D01*
X17894011Y-27846200D01*
X17876786Y-27831950D01*
X17740025Y-27718811D01*
X17740021Y-27718809D01*
X17735275Y-27714882D01*
X17681859Y-27686000D01*
X27334318Y-27686000D01*
X27354956Y-27842762D01*
X27415464Y-27988841D01*
X27511718Y-28114282D01*
X27637159Y-28210536D01*
X27783238Y-28271044D01*
X27940000Y-28291682D01*
X27948188Y-28290604D01*
X28088574Y-28272122D01*
X28096762Y-28271044D01*
X28242841Y-28210536D01*
X28368282Y-28114282D01*
X28464536Y-27988841D01*
X28525044Y-27842762D01*
X28545682Y-27686000D01*
X28526505Y-27540333D01*
X28526122Y-27537426D01*
X28525044Y-27529238D01*
X28464536Y-27383159D01*
X28368282Y-27257718D01*
X28242841Y-27161464D01*
X28115053Y-27108532D01*
X28104391Y-27104116D01*
X28096762Y-27100956D01*
X27940000Y-27080318D01*
X27783238Y-27100956D01*
X27775609Y-27104116D01*
X27764947Y-27108532D01*
X27637159Y-27161464D01*
X27511718Y-27257718D01*
X27415464Y-27383159D01*
X27354956Y-27529238D01*
X27353878Y-27537426D01*
X27353495Y-27540333D01*
X27334318Y-27686000D01*
X17681859Y-27686000D01*
X17554055Y-27616897D01*
X17357254Y-27555977D01*
X17351129Y-27555333D01*
X17351128Y-27555333D01*
X17158498Y-27535087D01*
X17158496Y-27535087D01*
X17152369Y-27534443D01*
X17065529Y-27542346D01*
X16953342Y-27552555D01*
X16953339Y-27552556D01*
X16947203Y-27553114D01*
X16749572Y-27611280D01*
X16567002Y-27706726D01*
X16562201Y-27710586D01*
X16562198Y-27710588D01*
X16551971Y-27718811D01*
X16406447Y-27835815D01*
X16274024Y-27993630D01*
X16271056Y-27999028D01*
X16271053Y-27999033D01*
X16264315Y-28011290D01*
X16174776Y-28174162D01*
X16112484Y-28370532D01*
X16111798Y-28376649D01*
X16111797Y-28376653D01*
X16090513Y-28566406D01*
X16089520Y-28575262D01*
X80997Y-28575262D01*
X77044Y-28545238D01*
X16536Y-28399159D01*
X-79718Y-28273718D01*
X-205159Y-28177464D01*
X-351238Y-28116956D01*
X-508000Y-28096318D01*
X-664762Y-28116956D01*
X-810841Y-28177464D01*
X-936282Y-28273718D01*
X-1032536Y-28399159D01*
X-1093044Y-28545238D01*
X-1113682Y-28702000D01*
X-3809500Y-28702000D01*
X-3809500Y-26861000D01*
X8601318Y-26861000D01*
X8621956Y-27017762D01*
X8682464Y-27163841D01*
X8778718Y-27289282D01*
X8904159Y-27385536D01*
X9050238Y-27446044D01*
X9207000Y-27466682D01*
X9215188Y-27465604D01*
X9355574Y-27447122D01*
X9363762Y-27446044D01*
X9509841Y-27385536D01*
X9635282Y-27289282D01*
X9731536Y-27163841D01*
X9792044Y-27017762D01*
X9812682Y-26861000D01*
X9792044Y-26704238D01*
X9731536Y-26558159D01*
X9635282Y-26432718D01*
X9628494Y-26427509D01*
X9516392Y-26341491D01*
X9509841Y-26336464D01*
X9363762Y-26275956D01*
X9207000Y-26255318D01*
X9050238Y-26275956D01*
X8904159Y-26336464D01*
X8897608Y-26341491D01*
X8785507Y-26427509D01*
X8778718Y-26432718D01*
X8682464Y-26558159D01*
X8621956Y-26704238D01*
X8601318Y-26861000D01*
X-3809500Y-26861000D01*
X-3809500Y-25908000D01*
X-1113682Y-25908000D01*
X-1093044Y-26064762D01*
X-1032536Y-26210841D01*
X-936282Y-26336282D01*
X-929736Y-26341305D01*
X-900082Y-26364059D01*
X-810841Y-26432536D01*
X-664762Y-26493044D01*
X-508000Y-26513682D01*
X-499812Y-26512604D01*
X-359426Y-26494122D01*
X-351238Y-26493044D01*
X-205159Y-26432536D01*
X-115918Y-26364059D01*
X-86264Y-26341305D01*
X-79718Y-26336282D01*
X16536Y-26210841D01*
X77044Y-26064762D01*
X80928Y-26035262D01*
X16089520Y-26035262D01*
X16090036Y-26041406D01*
X16104984Y-26219411D01*
X16106759Y-26240553D01*
X16108458Y-26246478D01*
X16160368Y-26427509D01*
X16163544Y-26438586D01*
X16166359Y-26444063D01*
X16166360Y-26444066D01*
X16187247Y-26484707D01*
X16257712Y-26621818D01*
X16385677Y-26783270D01*
X16390370Y-26787264D01*
X16390371Y-26787265D01*
X16486631Y-26869188D01*
X16542564Y-26916791D01*
X16547942Y-26919797D01*
X16547944Y-26919798D01*
X16559503Y-26926258D01*
X16722398Y-27017297D01*
X16817238Y-27048113D01*
X16912471Y-27079056D01*
X16912475Y-27079057D01*
X16918329Y-27080959D01*
X17122894Y-27105351D01*
X17129029Y-27104879D01*
X17129031Y-27104879D01*
X17185039Y-27100569D01*
X17328300Y-27089546D01*
X17334230Y-27087890D01*
X17334232Y-27087890D01*
X17520797Y-27035800D01*
X17520796Y-27035800D01*
X17526725Y-27034145D01*
X17532214Y-27031372D01*
X17532220Y-27031370D01*
X17705116Y-26944033D01*
X17710610Y-26941258D01*
X17726258Y-26929033D01*
X17868101Y-26818213D01*
X17872951Y-26814424D01*
X17889920Y-26794766D01*
X18003540Y-26663134D01*
X18003540Y-26663133D01*
X18007564Y-26658472D01*
X18028387Y-26621818D01*
X18089816Y-26513682D01*
X18109323Y-26479344D01*
X18174351Y-26283863D01*
X18200171Y-26079474D01*
X18200583Y-26050000D01*
X18197667Y-26020262D01*
X40219520Y-26020262D01*
X40220036Y-26026406D01*
X40236074Y-26217392D01*
X40236759Y-26225553D01*
X40238458Y-26231478D01*
X40270004Y-26341491D01*
X40293544Y-26423586D01*
X40296359Y-26429063D01*
X40296360Y-26429066D01*
X40327616Y-26489884D01*
X40387712Y-26606818D01*
X40515677Y-26768270D01*
X40520370Y-26772264D01*
X40520371Y-26772265D01*
X40634256Y-26869188D01*
X40672564Y-26901791D01*
X40677942Y-26904797D01*
X40677944Y-26904798D01*
X40709563Y-26922469D01*
X40852398Y-27002297D01*
X40923474Y-27025391D01*
X41042471Y-27064056D01*
X41042475Y-27064057D01*
X41048329Y-27065959D01*
X41252894Y-27090351D01*
X41259029Y-27089879D01*
X41259031Y-27089879D01*
X41315039Y-27085569D01*
X41458300Y-27074546D01*
X41464230Y-27072890D01*
X41464232Y-27072890D01*
X41650797Y-27020800D01*
X41650796Y-27020800D01*
X41656725Y-27019145D01*
X41662214Y-27016372D01*
X41662220Y-27016370D01*
X41835116Y-26929033D01*
X41840610Y-26926258D01*
X41848879Y-26919798D01*
X41998101Y-26803213D01*
X42002951Y-26799424D01*
X42013447Y-26787265D01*
X42133540Y-26648134D01*
X42133540Y-26648133D01*
X42137564Y-26643472D01*
X42158387Y-26606818D01*
X42211907Y-26512604D01*
X42239323Y-26464344D01*
X42304351Y-26268863D01*
X42330171Y-26064474D01*
X42330422Y-26046494D01*
X42330534Y-26038522D01*
X42330534Y-26038518D01*
X42330583Y-26035000D01*
X42310480Y-25829970D01*
X42250935Y-25632749D01*
X42154218Y-25450849D01*
X42049911Y-25322956D01*
X42027906Y-25295975D01*
X42027903Y-25295972D01*
X42024011Y-25291200D01*
X42006786Y-25276950D01*
X41870025Y-25163811D01*
X41870021Y-25163809D01*
X41865275Y-25159882D01*
X41708427Y-25075075D01*
X41689474Y-25064827D01*
X41684055Y-25061897D01*
X41487254Y-25000977D01*
X41481129Y-25000333D01*
X41481128Y-25000333D01*
X41288498Y-24980087D01*
X41288496Y-24980087D01*
X41282369Y-24979443D01*
X41195529Y-24987346D01*
X41083342Y-24997555D01*
X41083339Y-24997556D01*
X41077203Y-24998114D01*
X40879572Y-25056280D01*
X40697002Y-25151726D01*
X40692201Y-25155586D01*
X40692198Y-25155588D01*
X40541254Y-25276950D01*
X40536447Y-25280815D01*
X40404024Y-25438630D01*
X40401056Y-25444028D01*
X40401053Y-25444033D01*
X40316076Y-25598608D01*
X40304776Y-25619162D01*
X40242484Y-25815532D01*
X40241798Y-25821649D01*
X40241797Y-25821653D01*
X40220207Y-26014137D01*
X40219520Y-26020262D01*
X18197667Y-26020262D01*
X18180480Y-25844970D01*
X18120935Y-25647749D01*
X18024218Y-25465849D01*
X17950859Y-25375902D01*
X17897906Y-25310975D01*
X17897903Y-25310972D01*
X17894011Y-25306200D01*
X17876786Y-25291950D01*
X17740025Y-25178811D01*
X17740021Y-25178809D01*
X17735275Y-25174882D01*
X17554055Y-25076897D01*
X17357254Y-25015977D01*
X17351129Y-25015333D01*
X17351128Y-25015333D01*
X17158498Y-24995087D01*
X17158496Y-24995087D01*
X17152369Y-24994443D01*
X17065529Y-25002346D01*
X16953342Y-25012555D01*
X16953339Y-25012556D01*
X16947203Y-25013114D01*
X16749572Y-25071280D01*
X16567002Y-25166726D01*
X16562201Y-25170586D01*
X16562198Y-25170588D01*
X16551971Y-25178811D01*
X16406447Y-25295815D01*
X16274024Y-25453630D01*
X16271056Y-25459028D01*
X16271053Y-25459033D01*
X16256083Y-25486264D01*
X16174776Y-25634162D01*
X16112484Y-25830532D01*
X16111798Y-25836649D01*
X16111797Y-25836653D01*
X16090513Y-26026406D01*
X16089520Y-26035262D01*
X80928Y-26035262D01*
X97682Y-25908000D01*
X77044Y-25751238D01*
X16536Y-25605159D01*
X-79718Y-25479718D01*
X-205159Y-25383464D01*
X-351238Y-25322956D01*
X-508000Y-25302318D01*
X-664762Y-25322956D01*
X-810841Y-25383464D01*
X-936282Y-25479718D01*
X-1032536Y-25605159D01*
X-1093044Y-25751238D01*
X-1113682Y-25908000D01*
X-3809500Y-25908000D01*
X-3809500Y-25146000D01*
X8792318Y-25146000D01*
X8812956Y-25302762D01*
X8873464Y-25448841D01*
X8969718Y-25574282D01*
X9095159Y-25670536D01*
X9241238Y-25731044D01*
X9398000Y-25751682D01*
X9406188Y-25750604D01*
X9546574Y-25732122D01*
X9554762Y-25731044D01*
X9700841Y-25670536D01*
X9826282Y-25574282D01*
X9922536Y-25448841D01*
X9983044Y-25302762D01*
X10003682Y-25146000D01*
X9984505Y-25000333D01*
X9984122Y-24997426D01*
X9983044Y-24989238D01*
X9922536Y-24843159D01*
X9826282Y-24717718D01*
X9700841Y-24621464D01*
X9554762Y-24560956D01*
X9398000Y-24540318D01*
X9241238Y-24560956D01*
X9095159Y-24621464D01*
X8969718Y-24717718D01*
X8873464Y-24843159D01*
X8812956Y-24989238D01*
X8811878Y-24997426D01*
X8811495Y-25000333D01*
X8792318Y-25146000D01*
X-3809500Y-25146000D01*
X-3809500Y-24408500D01*
X4195818Y-24408500D01*
X4216456Y-24565262D01*
X4276964Y-24711341D01*
X4281991Y-24717892D01*
X4360642Y-24820392D01*
X4373218Y-24836782D01*
X4498659Y-24933036D01*
X4644738Y-24993544D01*
X4652926Y-24994622D01*
X4715037Y-25002799D01*
X4801500Y-25014182D01*
X4809688Y-25013104D01*
X4950074Y-24994622D01*
X4958262Y-24993544D01*
X5104341Y-24933036D01*
X5229782Y-24836782D01*
X5242359Y-24820392D01*
X5321009Y-24717892D01*
X5326036Y-24711341D01*
X5386544Y-24565262D01*
X5393688Y-24511000D01*
X26191318Y-24511000D01*
X26211956Y-24667762D01*
X26272464Y-24813841D01*
X26368718Y-24939282D01*
X26494159Y-25035536D01*
X26640238Y-25096044D01*
X26797000Y-25116682D01*
X26805188Y-25115604D01*
X26945574Y-25097122D01*
X26953762Y-25096044D01*
X27099841Y-25035536D01*
X27225282Y-24939282D01*
X27321536Y-24813841D01*
X27382044Y-24667762D01*
X27402682Y-24511000D01*
X27386625Y-24389033D01*
X27383122Y-24362426D01*
X27382044Y-24354238D01*
X27321536Y-24208159D01*
X27241207Y-24103472D01*
X27230305Y-24089264D01*
X27225282Y-24082718D01*
X27099841Y-23986464D01*
X26953762Y-23925956D01*
X26797000Y-23905318D01*
X26640238Y-23925956D01*
X26494159Y-23986464D01*
X26368718Y-24082718D01*
X26363695Y-24089264D01*
X26352793Y-24103472D01*
X26272464Y-24208159D01*
X26211956Y-24354238D01*
X26210878Y-24362426D01*
X26207375Y-24389033D01*
X26191318Y-24511000D01*
X5393688Y-24511000D01*
X5407182Y-24408500D01*
X5386544Y-24251738D01*
X5326036Y-24105659D01*
X5229782Y-23980218D01*
X5104341Y-23883964D01*
X4958262Y-23823456D01*
X4801500Y-23802818D01*
X4644738Y-23823456D01*
X4498659Y-23883964D01*
X4373218Y-23980218D01*
X4276964Y-24105659D01*
X4216456Y-24251738D01*
X4195818Y-24408500D01*
X-3809500Y-24408500D01*
X-3809500Y-23480262D01*
X40219520Y-23480262D01*
X40236759Y-23685553D01*
X40293544Y-23883586D01*
X40296359Y-23889063D01*
X40296360Y-23889066D01*
X40314765Y-23924878D01*
X40387712Y-24066818D01*
X40515677Y-24228270D01*
X40672564Y-24361791D01*
X40852398Y-24462297D01*
X40947238Y-24493113D01*
X41042471Y-24524056D01*
X41042475Y-24524057D01*
X41048329Y-24525959D01*
X41252894Y-24550351D01*
X41259029Y-24549879D01*
X41259031Y-24549879D01*
X41315039Y-24545569D01*
X41458300Y-24534546D01*
X41464230Y-24532890D01*
X41464232Y-24532890D01*
X41650797Y-24480800D01*
X41650796Y-24480800D01*
X41656725Y-24479145D01*
X41662214Y-24476372D01*
X41662220Y-24476370D01*
X41835116Y-24389033D01*
X41840610Y-24386258D01*
X42002951Y-24259424D01*
X42009586Y-24251738D01*
X42133540Y-24108134D01*
X42133540Y-24108133D01*
X42137564Y-24103472D01*
X42152208Y-24077695D01*
X42207582Y-23980218D01*
X42239323Y-23924344D01*
X42304351Y-23728863D01*
X42330171Y-23524474D01*
X42330583Y-23495000D01*
X42310480Y-23289970D01*
X42250935Y-23092749D01*
X42154218Y-22910849D01*
X42080859Y-22820902D01*
X42027906Y-22755975D01*
X42027903Y-22755972D01*
X42024011Y-22751200D01*
X41966035Y-22703238D01*
X41870025Y-22623811D01*
X41870021Y-22623809D01*
X41865275Y-22619882D01*
X41684055Y-22521897D01*
X41487254Y-22460977D01*
X41481129Y-22460333D01*
X41481128Y-22460333D01*
X41288498Y-22440087D01*
X41288496Y-22440087D01*
X41282369Y-22439443D01*
X41195529Y-22447346D01*
X41083342Y-22457555D01*
X41083339Y-22457556D01*
X41077203Y-22458114D01*
X40879572Y-22516280D01*
X40697002Y-22611726D01*
X40692201Y-22615586D01*
X40692198Y-22615588D01*
X40541254Y-22736950D01*
X40536447Y-22740815D01*
X40404024Y-22898630D01*
X40401056Y-22904028D01*
X40401053Y-22904033D01*
X40307743Y-23073765D01*
X40304776Y-23079162D01*
X40242484Y-23275532D01*
X40241798Y-23281649D01*
X40241797Y-23281653D01*
X40230821Y-23379509D01*
X40219520Y-23480262D01*
X-3809500Y-23480262D01*
X-3809500Y-22860000D01*
X19714318Y-22860000D01*
X19734956Y-23016762D01*
X19795464Y-23162841D01*
X19891718Y-23288282D01*
X19898264Y-23293305D01*
X19927918Y-23316059D01*
X20017159Y-23384536D01*
X20163238Y-23445044D01*
X20320000Y-23465682D01*
X20328188Y-23464604D01*
X20468574Y-23446122D01*
X20476762Y-23445044D01*
X20622841Y-23384536D01*
X20712082Y-23316059D01*
X20741736Y-23293305D01*
X20748282Y-23288282D01*
X20844536Y-23162841D01*
X20905044Y-23016762D01*
X20925682Y-22860000D01*
X20905044Y-22703238D01*
X20844536Y-22557159D01*
X20748282Y-22431718D01*
X20622841Y-22335464D01*
X20476762Y-22274956D01*
X20320000Y-22254318D01*
X20163238Y-22274956D01*
X20017159Y-22335464D01*
X19891718Y-22431718D01*
X19795464Y-22557159D01*
X19734956Y-22703238D01*
X19714318Y-22860000D01*
X-3809500Y-22860000D01*
X-3809500Y-18682966D01*
X-2601743Y-18682966D01*
X-2571435Y-18817446D01*
X-2568355Y-18827275D01*
X-2488230Y-19024603D01*
X-2483587Y-19033794D01*
X-2372306Y-19215388D01*
X-2366223Y-19223699D01*
X-2226787Y-19384667D01*
X-2219420Y-19391883D01*
X-2055566Y-19527916D01*
X-2047119Y-19533831D01*
X-1863244Y-19641279D01*
X-1853957Y-19645729D01*
X-1814516Y-19660790D01*
X-1758013Y-19703778D01*
X-1733720Y-19770489D01*
X-1749350Y-19839743D01*
X-1799941Y-19889554D01*
X-1859465Y-19904500D01*
X-2139748Y-19904500D01*
X-2145816Y-19905707D01*
X-2186061Y-19913712D01*
X-2186062Y-19913712D01*
X-2198231Y-19916133D01*
X-2264552Y-19960448D01*
X-2308867Y-20026769D01*
X-2320500Y-20085252D01*
X-2320500Y-21824748D01*
X-2308867Y-21883231D01*
X-2264552Y-21949552D01*
X-2198231Y-21993867D01*
X-2186062Y-21996288D01*
X-2186061Y-21996288D01*
X-2145816Y-22004293D01*
X-2139748Y-22005500D01*
X-400252Y-22005500D01*
X-394184Y-22004293D01*
X-353939Y-21996288D01*
X-353938Y-21996288D01*
X-341769Y-21993867D01*
X-275448Y-21949552D01*
X-231133Y-21883231D01*
X-219500Y-21824748D01*
X40224500Y-21824748D01*
X40236133Y-21883231D01*
X40280448Y-21949552D01*
X40346769Y-21993867D01*
X40358938Y-21996288D01*
X40358939Y-21996288D01*
X40399184Y-22004293D01*
X40405252Y-22005500D01*
X42144748Y-22005500D01*
X42150816Y-22004293D01*
X42191061Y-21996288D01*
X42191062Y-21996288D01*
X42203231Y-21993867D01*
X42269552Y-21949552D01*
X42313867Y-21883231D01*
X42325500Y-21824748D01*
X42325500Y-20085252D01*
X42313867Y-20026769D01*
X42269552Y-19960448D01*
X42203231Y-19916133D01*
X42191062Y-19913712D01*
X42191061Y-19913712D01*
X42150816Y-19905707D01*
X42144748Y-19904500D01*
X40405252Y-19904500D01*
X40399184Y-19905707D01*
X40358939Y-19913712D01*
X40358938Y-19913712D01*
X40346769Y-19916133D01*
X40280448Y-19960448D01*
X40236133Y-20026769D01*
X40224500Y-20085252D01*
X40224500Y-21824748D01*
X-219500Y-21824748D01*
X-219500Y-20085252D01*
X-231133Y-20026769D01*
X-232315Y-20025000D01*
X4007318Y-20025000D01*
X4027956Y-20181762D01*
X4088464Y-20327841D01*
X4184718Y-20453282D01*
X4310159Y-20549536D01*
X4456238Y-20610044D01*
X4613000Y-20630682D01*
X4621188Y-20629604D01*
X4761574Y-20611122D01*
X4769762Y-20610044D01*
X4915841Y-20549536D01*
X5041282Y-20453282D01*
X5137536Y-20327841D01*
X5198044Y-20181762D01*
X5218682Y-20025000D01*
X5198044Y-19868238D01*
X5137536Y-19722159D01*
X5041282Y-19596718D01*
X4915841Y-19500464D01*
X4769762Y-19439956D01*
X4613000Y-19419318D01*
X4456238Y-19439956D01*
X4310159Y-19500464D01*
X4184718Y-19596718D01*
X4088464Y-19722159D01*
X4027956Y-19868238D01*
X4007318Y-20025000D01*
X-232315Y-20025000D01*
X-275448Y-19960448D01*
X-341769Y-19916133D01*
X-353938Y-19913712D01*
X-353939Y-19913712D01*
X-394184Y-19905707D01*
X-400252Y-19904500D01*
X-679893Y-19904500D01*
X-748014Y-19884498D01*
X-794507Y-19830842D01*
X-804611Y-19760568D01*
X-775117Y-19695988D01*
X-735325Y-19665349D01*
X-576910Y-19587742D01*
X-568055Y-19582464D01*
X-394672Y-19458792D01*
X-386800Y-19452139D01*
X-235948Y-19301812D01*
X-229270Y-19293965D01*
X-104997Y-19121020D01*
X-99687Y-19112183D01*
X-5330Y-18921267D01*
X-1531Y-18911672D01*
X60377Y-18707910D01*
X62555Y-18697837D01*
X63986Y-18686962D01*
X61775Y-18672778D01*
X48617Y-18669000D01*
X-2586775Y-18669000D01*
X-2600306Y-18672973D01*
X-2601743Y-18682966D01*
X-3809500Y-18682966D01*
X-3809500Y-18149183D01*
X-2605611Y-18149183D01*
X-2604088Y-18157607D01*
X-2591708Y-18161000D01*
X48344Y-18161000D01*
X61875Y-18157027D01*
X63180Y-18147947D01*
X34558Y-18034000D01*
X15396318Y-18034000D01*
X15416956Y-18190762D01*
X15477464Y-18336841D01*
X15573718Y-18462282D01*
X15699159Y-18558536D01*
X15845238Y-18619044D01*
X16002000Y-18639682D01*
X16010188Y-18638604D01*
X16150574Y-18620122D01*
X16158762Y-18619044D01*
X16304841Y-18558536D01*
X16430282Y-18462282D01*
X16526536Y-18336841D01*
X16587044Y-18190762D01*
X16607682Y-18034000D01*
X16587044Y-17877238D01*
X16526536Y-17731159D01*
X16430282Y-17605718D01*
X16304841Y-17509464D01*
X16158762Y-17448956D01*
X16002000Y-17428318D01*
X15845238Y-17448956D01*
X15699159Y-17509464D01*
X15573718Y-17605718D01*
X15477464Y-17731159D01*
X15416956Y-17877238D01*
X15396318Y-18034000D01*
X34558Y-18034000D01*
X21214Y-17980875D01*
X17894Y-17971124D01*
X-67028Y-17775814D01*
X-71895Y-17766739D01*
X-187574Y-17587926D01*
X-193864Y-17579757D01*
X-337194Y-17422240D01*
X-344727Y-17415215D01*
X-511861Y-17283222D01*
X-520448Y-17277517D01*
X-706883Y-17174599D01*
X-716295Y-17170369D01*
X-907969Y-17102493D01*
X-965505Y-17060899D01*
X-991421Y-16994801D01*
X-977487Y-16925185D01*
X-928128Y-16874154D01*
X-899794Y-16862362D01*
X-894210Y-16860803D01*
X-894201Y-16860800D01*
X-888275Y-16859145D01*
X-882786Y-16856372D01*
X-882780Y-16856370D01*
X-750048Y-16789322D01*
X-704390Y-16766258D01*
X-701500Y-16764000D01*
X9046318Y-16764000D01*
X9066956Y-16920762D01*
X9127464Y-17066841D01*
X9223718Y-17192282D01*
X9349159Y-17288536D01*
X9495238Y-17349044D01*
X9503426Y-17350122D01*
X9534523Y-17354216D01*
X9652000Y-17369682D01*
X9660188Y-17368604D01*
X9800574Y-17350122D01*
X9808762Y-17349044D01*
X9954841Y-17288536D01*
X10080282Y-17192282D01*
X10176536Y-17066841D01*
X10237044Y-16920762D01*
X10249451Y-16826520D01*
X35907798Y-16826520D01*
X35908876Y-16834708D01*
X35921210Y-16928391D01*
X35928436Y-16983282D01*
X35988944Y-17129361D01*
X36085198Y-17254802D01*
X36210639Y-17351056D01*
X36356718Y-17411564D01*
X36513480Y-17432202D01*
X36521668Y-17431124D01*
X36662054Y-17412642D01*
X36670242Y-17411564D01*
X36816321Y-17351056D01*
X36941762Y-17254802D01*
X37038016Y-17129361D01*
X37098524Y-16983282D01*
X37105751Y-16928391D01*
X37118084Y-16834708D01*
X37119162Y-16826520D01*
X37098524Y-16669758D01*
X37038016Y-16523679D01*
X36941762Y-16398238D01*
X36816321Y-16301984D01*
X36670242Y-16241476D01*
X36654960Y-16239464D01*
X36521668Y-16221916D01*
X36513480Y-16220838D01*
X36505292Y-16221916D01*
X36372001Y-16239464D01*
X36356718Y-16241476D01*
X36210639Y-16301984D01*
X36085198Y-16398238D01*
X35988944Y-16523679D01*
X35928436Y-16669758D01*
X35907798Y-16826520D01*
X10249451Y-16826520D01*
X10257682Y-16764000D01*
X10245275Y-16669758D01*
X10238122Y-16615426D01*
X10237044Y-16607238D01*
X10176536Y-16461159D01*
X10080282Y-16335718D01*
X9954841Y-16239464D01*
X9808762Y-16178956D01*
X9652000Y-16158318D01*
X9495238Y-16178956D01*
X9349159Y-16239464D01*
X9223718Y-16335718D01*
X9127464Y-16461159D01*
X9066956Y-16607238D01*
X9065878Y-16615426D01*
X9058725Y-16669758D01*
X9046318Y-16764000D01*
X-701500Y-16764000D01*
X-691019Y-16755812D01*
X-546899Y-16643213D01*
X-542049Y-16639424D01*
X-521334Y-16615426D01*
X-411460Y-16488134D01*
X-411460Y-16488133D01*
X-407436Y-16483472D01*
X-386613Y-16446818D01*
X-320702Y-16330793D01*
X-305677Y-16304344D01*
X-240649Y-16108863D01*
X-214829Y-15904474D01*
X-214802Y-15902511D01*
X13010829Y-15902511D01*
X13031467Y-16059273D01*
X13091975Y-16205352D01*
X13188229Y-16330793D01*
X13313670Y-16427047D01*
X13459749Y-16487555D01*
X13616511Y-16508193D01*
X13624699Y-16507115D01*
X13765085Y-16488633D01*
X13773273Y-16487555D01*
X13919352Y-16427047D01*
X14044793Y-16330793D01*
X14141047Y-16205352D01*
X14201555Y-16059273D01*
X14222193Y-15902511D01*
X14201555Y-15745749D01*
X14141047Y-15599670D01*
X14044793Y-15474229D01*
X13919352Y-15377975D01*
X13773273Y-15317467D01*
X13616511Y-15296829D01*
X13459749Y-15317467D01*
X13313670Y-15377975D01*
X13188229Y-15474229D01*
X13091975Y-15599670D01*
X13031467Y-15745749D01*
X13010829Y-15902511D01*
X-214802Y-15902511D01*
X-214417Y-15875000D01*
X-234520Y-15669970D01*
X-294065Y-15472749D01*
X-390782Y-15290849D01*
X-464141Y-15200902D01*
X-517094Y-15135975D01*
X-517097Y-15135972D01*
X-520989Y-15131200D01*
X-569067Y-15091426D01*
X-674975Y-15003811D01*
X-674979Y-15003809D01*
X-679725Y-14999882D01*
X-821916Y-14923000D01*
X24857318Y-14923000D01*
X24877956Y-15079762D01*
X24938464Y-15225841D01*
X25034718Y-15351282D01*
X25160159Y-15447536D01*
X25306238Y-15508044D01*
X25463000Y-15528682D01*
X25471188Y-15527604D01*
X25611574Y-15509122D01*
X25619762Y-15508044D01*
X25765841Y-15447536D01*
X25891282Y-15351282D01*
X25976671Y-15240000D01*
X36732318Y-15240000D01*
X36752956Y-15396762D01*
X36813464Y-15542841D01*
X36909718Y-15668282D01*
X36916264Y-15673305D01*
X36945918Y-15696059D01*
X37035159Y-15764536D01*
X37181238Y-15825044D01*
X37338000Y-15845682D01*
X37346188Y-15844604D01*
X37486574Y-15826122D01*
X37494762Y-15825044D01*
X37640841Y-15764536D01*
X37730082Y-15696059D01*
X37759736Y-15673305D01*
X37766282Y-15668282D01*
X37862536Y-15542841D01*
X37923044Y-15396762D01*
X37943682Y-15240000D01*
X37923044Y-15083238D01*
X37862536Y-14937159D01*
X37766282Y-14811718D01*
X37640841Y-14715464D01*
X37494762Y-14654956D01*
X37338000Y-14634318D01*
X37181238Y-14654956D01*
X37035159Y-14715464D01*
X36909718Y-14811718D01*
X36813464Y-14937159D01*
X36752956Y-15083238D01*
X36732318Y-15240000D01*
X25976671Y-15240000D01*
X25987536Y-15225841D01*
X26048044Y-15079762D01*
X26068682Y-14923000D01*
X26048044Y-14766238D01*
X25987536Y-14620159D01*
X25891282Y-14494718D01*
X25765841Y-14398464D01*
X25619762Y-14337956D01*
X25463000Y-14317318D01*
X25306238Y-14337956D01*
X25160159Y-14398464D01*
X25034718Y-14494718D01*
X24938464Y-14620159D01*
X24877956Y-14766238D01*
X24857318Y-14923000D01*
X-821916Y-14923000D01*
X-860945Y-14901897D01*
X-1057746Y-14840977D01*
X-1063871Y-14840333D01*
X-1063872Y-14840333D01*
X-1256502Y-14820087D01*
X-1256504Y-14820087D01*
X-1262631Y-14819443D01*
X-1349471Y-14827346D01*
X-1461658Y-14837555D01*
X-1461661Y-14837556D01*
X-1467797Y-14838114D01*
X-1665428Y-14896280D01*
X-1847998Y-14991726D01*
X-1852799Y-14995586D01*
X-1852802Y-14995588D01*
X-2003746Y-15116950D01*
X-2008553Y-15120815D01*
X-2140976Y-15278630D01*
X-2143944Y-15284028D01*
X-2143947Y-15284033D01*
X-2231069Y-15442509D01*
X-2240224Y-15459162D01*
X-2302516Y-15655532D01*
X-2303202Y-15661649D01*
X-2303203Y-15661653D01*
X-2313554Y-15753937D01*
X-2325480Y-15860262D01*
X-2324964Y-15866406D01*
X-2308768Y-16059273D01*
X-2308241Y-16065553D01*
X-2306542Y-16071478D01*
X-2256931Y-16244491D01*
X-2251456Y-16263586D01*
X-2248641Y-16269063D01*
X-2248640Y-16269066D01*
X-2167449Y-16427047D01*
X-2157288Y-16446818D01*
X-2029323Y-16608270D01*
X-1872436Y-16741791D01*
X-1867058Y-16744797D01*
X-1867056Y-16744798D01*
X-1835437Y-16762469D01*
X-1692602Y-16842297D01*
X-1627563Y-16863429D01*
X-1568958Y-16903502D01*
X-1541320Y-16968898D01*
X-1553426Y-17038855D01*
X-1601432Y-17091162D01*
X-1627354Y-17103027D01*
X-1793132Y-17157212D01*
X-1802641Y-17161209D01*
X-1991537Y-17259542D01*
X-2000262Y-17265036D01*
X-2170567Y-17392905D01*
X-2178274Y-17399748D01*
X-2325410Y-17553717D01*
X-2331896Y-17561727D01*
X-2451902Y-17737649D01*
X-2457000Y-17746623D01*
X-2546662Y-17939783D01*
X-2550225Y-17949470D01*
X-2605611Y-18149183D01*
X-3809500Y-18149183D01*
X-3809500Y-13145480D01*
X29303798Y-13145480D01*
X29324436Y-13302242D01*
X29384944Y-13448321D01*
X29481198Y-13573762D01*
X29606639Y-13670016D01*
X29752718Y-13730524D01*
X29909480Y-13751162D01*
X29917668Y-13750084D01*
X30058054Y-13731602D01*
X30066242Y-13730524D01*
X30212321Y-13670016D01*
X30337762Y-13573762D01*
X30434016Y-13448321D01*
X30494524Y-13302242D01*
X30515162Y-13145480D01*
X30494524Y-12988718D01*
X30491333Y-12981013D01*
X30437176Y-12850269D01*
X30434016Y-12842639D01*
X30337762Y-12717198D01*
X30212321Y-12620944D01*
X30066242Y-12560436D01*
X29909480Y-12539798D01*
X29752718Y-12560436D01*
X29606639Y-12620944D01*
X29481198Y-12717198D01*
X29384944Y-12842639D01*
X29381784Y-12850269D01*
X29327628Y-12981013D01*
X29324436Y-12988718D01*
X29303798Y-13145480D01*
X-3809500Y-13145480D01*
X-3809500Y-11938000D01*
X156318Y-11938000D01*
X176956Y-12094762D01*
X237464Y-12240841D01*
X333718Y-12366282D01*
X459159Y-12462536D01*
X605238Y-12523044D01*
X762000Y-12543682D01*
X770188Y-12542604D01*
X910574Y-12524122D01*
X918762Y-12523044D01*
X1064841Y-12462536D01*
X1190282Y-12366282D01*
X1286536Y-12240841D01*
X1347044Y-12094762D01*
X1356228Y-12025000D01*
X12261318Y-12025000D01*
X12281956Y-12181762D01*
X12342464Y-12327841D01*
X12438718Y-12453282D01*
X12564159Y-12549536D01*
X12710238Y-12610044D01*
X12718426Y-12611122D01*
X12769029Y-12617784D01*
X12867000Y-12630682D01*
X12875188Y-12629604D01*
X12907843Y-12625305D01*
X12964971Y-12617784D01*
X13015574Y-12611122D01*
X13023762Y-12610044D01*
X13169841Y-12549536D01*
X13295282Y-12453282D01*
X13391536Y-12327841D01*
X13447803Y-12192000D01*
X22762318Y-12192000D01*
X22782956Y-12348762D01*
X22843464Y-12494841D01*
X22939718Y-12620282D01*
X22946264Y-12625305D01*
X22975918Y-12648059D01*
X23065159Y-12716536D01*
X23211238Y-12777044D01*
X23368000Y-12797682D01*
X23376188Y-12796604D01*
X23516574Y-12778122D01*
X23524762Y-12777044D01*
X23670841Y-12716536D01*
X23760082Y-12648059D01*
X23789736Y-12625305D01*
X23796282Y-12620282D01*
X23892536Y-12494841D01*
X23933490Y-12395969D01*
X32464349Y-12395969D01*
X32484987Y-12552731D01*
X32488147Y-12560360D01*
X32489487Y-12563596D01*
X32545495Y-12698810D01*
X32641749Y-12824251D01*
X32767190Y-12920505D01*
X32913269Y-12981013D01*
X33070031Y-13001651D01*
X33078219Y-13000573D01*
X33218605Y-12982091D01*
X33226793Y-12981013D01*
X33372872Y-12920505D01*
X33498313Y-12824251D01*
X33594567Y-12698810D01*
X33650575Y-12563596D01*
X33651915Y-12560360D01*
X33655075Y-12552731D01*
X33675713Y-12395969D01*
X33655075Y-12239207D01*
X33594567Y-12093128D01*
X33498313Y-11967687D01*
X33372872Y-11871433D01*
X33226793Y-11810925D01*
X33070031Y-11790287D01*
X32913269Y-11810925D01*
X32767190Y-11871433D01*
X32641749Y-11967687D01*
X32545495Y-12093128D01*
X32484987Y-12239207D01*
X32464349Y-12395969D01*
X23933490Y-12395969D01*
X23953044Y-12348762D01*
X23973682Y-12192000D01*
X23953044Y-12035238D01*
X23892536Y-11889159D01*
X23796282Y-11763718D01*
X23670841Y-11667464D01*
X23524762Y-11606956D01*
X23496719Y-11603264D01*
X23446381Y-11596637D01*
X23368000Y-11586318D01*
X23289619Y-11596637D01*
X23239282Y-11603264D01*
X23211238Y-11606956D01*
X23065159Y-11667464D01*
X22939718Y-11763718D01*
X22843464Y-11889159D01*
X22782956Y-12035238D01*
X22762318Y-12192000D01*
X13447803Y-12192000D01*
X13452044Y-12181762D01*
X13472682Y-12025000D01*
X13452044Y-11868238D01*
X13391536Y-11722159D01*
X13295282Y-11596718D01*
X13281729Y-11586318D01*
X13176392Y-11505491D01*
X13169841Y-11500464D01*
X13023762Y-11439956D01*
X12867000Y-11419318D01*
X12710238Y-11439956D01*
X12564159Y-11500464D01*
X12557608Y-11505491D01*
X12452272Y-11586318D01*
X12438718Y-11596718D01*
X12342464Y-11722159D01*
X12281956Y-11868238D01*
X12261318Y-12025000D01*
X1356228Y-12025000D01*
X1367682Y-11938000D01*
X1347044Y-11781238D01*
X1286536Y-11635159D01*
X1190282Y-11509718D01*
X1064841Y-11413464D01*
X918762Y-11352956D01*
X762000Y-11332318D01*
X605238Y-11352956D01*
X459159Y-11413464D01*
X333718Y-11509718D01*
X237464Y-11635159D01*
X176956Y-11781238D01*
X156318Y-11938000D01*
X-3809500Y-11938000D01*
X-3809500Y-10399748D01*
X-2320500Y-10399748D01*
X-2308867Y-10458231D01*
X-2264552Y-10524552D01*
X-2198231Y-10568867D01*
X-2186062Y-10571288D01*
X-2186061Y-10571288D01*
X-2145816Y-10579293D01*
X-2139748Y-10580500D01*
X-400252Y-10580500D01*
X-394184Y-10579293D01*
X-353939Y-10571288D01*
X-353938Y-10571288D01*
X-341769Y-10568867D01*
X-275448Y-10524552D01*
X-231133Y-10458231D01*
X-219500Y-10399748D01*
X-219500Y-10160000D01*
X23016318Y-10160000D01*
X23036956Y-10316762D01*
X23097464Y-10462841D01*
X23102491Y-10469392D01*
X23186821Y-10579293D01*
X23193718Y-10588282D01*
X23319159Y-10684536D01*
X23465238Y-10745044D01*
X23622000Y-10765682D01*
X23630188Y-10764604D01*
X23770574Y-10746122D01*
X23778762Y-10745044D01*
X23924841Y-10684536D01*
X24050282Y-10588282D01*
X24057180Y-10579293D01*
X24141509Y-10469392D01*
X24146536Y-10462841D01*
X24207044Y-10316762D01*
X24227682Y-10160000D01*
X24207044Y-10003238D01*
X24146536Y-9857159D01*
X24078059Y-9767918D01*
X24055305Y-9738264D01*
X24050282Y-9731718D01*
X23924841Y-9635464D01*
X23778762Y-9574956D01*
X23622000Y-9554318D01*
X23465238Y-9574956D01*
X23319159Y-9635464D01*
X23193718Y-9731718D01*
X23188695Y-9738264D01*
X23165941Y-9767918D01*
X23097464Y-9857159D01*
X23036956Y-10003238D01*
X23016318Y-10160000D01*
X-219500Y-10160000D01*
X-219500Y-8875262D01*
X26249520Y-8875262D01*
X26266759Y-9080553D01*
X26268458Y-9086478D01*
X26300836Y-9199392D01*
X26323544Y-9278586D01*
X26326359Y-9284063D01*
X26326360Y-9284066D01*
X26346526Y-9323305D01*
X26417712Y-9461818D01*
X26545677Y-9623270D01*
X26702564Y-9756791D01*
X26882398Y-9857297D01*
X26977238Y-9888113D01*
X27072471Y-9919056D01*
X27072475Y-9919057D01*
X27078329Y-9920959D01*
X27282894Y-9945351D01*
X27289029Y-9944879D01*
X27289031Y-9944879D01*
X27345039Y-9940569D01*
X27488300Y-9929546D01*
X27494230Y-9927890D01*
X27494232Y-9927890D01*
X27680797Y-9875800D01*
X27680796Y-9875800D01*
X27686725Y-9874145D01*
X27692214Y-9871372D01*
X27692220Y-9871370D01*
X27865116Y-9784033D01*
X27870610Y-9781258D01*
X28032951Y-9654424D01*
X28052045Y-9632304D01*
X28163540Y-9503134D01*
X28163540Y-9503133D01*
X28167564Y-9498472D01*
X28188387Y-9461818D01*
X28266276Y-9324707D01*
X28269323Y-9319344D01*
X28334351Y-9123863D01*
X28360171Y-8919474D01*
X28360583Y-8890000D01*
X28359138Y-8875262D01*
X28789520Y-8875262D01*
X28806759Y-9080553D01*
X28808458Y-9086478D01*
X28840836Y-9199392D01*
X28863544Y-9278586D01*
X28866359Y-9284063D01*
X28866360Y-9284066D01*
X28886526Y-9323305D01*
X28957712Y-9461818D01*
X29085677Y-9623270D01*
X29242564Y-9756791D01*
X29422398Y-9857297D01*
X29517238Y-9888113D01*
X29612471Y-9919056D01*
X29612475Y-9919057D01*
X29618329Y-9920959D01*
X29822894Y-9945351D01*
X29829029Y-9944879D01*
X29829031Y-9944879D01*
X29885039Y-9940569D01*
X30028300Y-9929546D01*
X30034230Y-9927890D01*
X30034232Y-9927890D01*
X30220797Y-9875800D01*
X30220796Y-9875800D01*
X30226725Y-9874145D01*
X30232214Y-9871372D01*
X30232220Y-9871370D01*
X30405116Y-9784033D01*
X30410610Y-9781258D01*
X30572951Y-9654424D01*
X30592045Y-9632304D01*
X30703540Y-9503134D01*
X30703540Y-9503133D01*
X30707564Y-9498472D01*
X30728387Y-9461818D01*
X30806276Y-9324707D01*
X30809323Y-9319344D01*
X30874351Y-9123863D01*
X30900171Y-8919474D01*
X30900583Y-8890000D01*
X44606318Y-8890000D01*
X44626956Y-9046762D01*
X44687464Y-9192841D01*
X44783718Y-9318282D01*
X44909159Y-9414536D01*
X45055238Y-9475044D01*
X45212000Y-9495682D01*
X45220188Y-9494604D01*
X45360574Y-9476122D01*
X45368762Y-9475044D01*
X45514841Y-9414536D01*
X45640282Y-9318282D01*
X45736536Y-9192841D01*
X45797044Y-9046762D01*
X45817682Y-8890000D01*
X45797044Y-8733238D01*
X45736536Y-8587159D01*
X45640282Y-8461718D01*
X45514841Y-8365464D01*
X45368762Y-8304956D01*
X45212000Y-8284318D01*
X45055238Y-8304956D01*
X44909159Y-8365464D01*
X44783718Y-8461718D01*
X44687464Y-8587159D01*
X44626956Y-8733238D01*
X44606318Y-8890000D01*
X30900583Y-8890000D01*
X30880480Y-8684970D01*
X30820935Y-8487749D01*
X30724218Y-8305849D01*
X30650859Y-8215902D01*
X30597906Y-8150975D01*
X30597903Y-8150972D01*
X30594011Y-8146200D01*
X30472106Y-8045351D01*
X30440025Y-8018811D01*
X30440021Y-8018809D01*
X30435275Y-8014882D01*
X30254055Y-7916897D01*
X30057254Y-7855977D01*
X30051129Y-7855333D01*
X30051128Y-7855333D01*
X29858498Y-7835087D01*
X29858496Y-7835087D01*
X29852369Y-7834443D01*
X29765529Y-7842346D01*
X29653342Y-7852555D01*
X29653339Y-7852556D01*
X29647203Y-7853114D01*
X29449572Y-7911280D01*
X29267002Y-8006726D01*
X29262201Y-8010586D01*
X29262198Y-8010588D01*
X29219549Y-8044879D01*
X29106447Y-8135815D01*
X28974024Y-8293630D01*
X28971056Y-8299028D01*
X28971053Y-8299033D01*
X28881617Y-8461718D01*
X28874776Y-8474162D01*
X28812484Y-8670532D01*
X28811798Y-8676649D01*
X28811797Y-8676653D01*
X28806306Y-8725609D01*
X28789520Y-8875262D01*
X28359138Y-8875262D01*
X28340480Y-8684970D01*
X28280935Y-8487749D01*
X28184218Y-8305849D01*
X28110859Y-8215902D01*
X28057906Y-8150975D01*
X28057903Y-8150972D01*
X28054011Y-8146200D01*
X27932106Y-8045351D01*
X27900025Y-8018811D01*
X27900021Y-8018809D01*
X27895275Y-8014882D01*
X27714055Y-7916897D01*
X27517254Y-7855977D01*
X27511129Y-7855333D01*
X27511128Y-7855333D01*
X27318498Y-7835087D01*
X27318496Y-7835087D01*
X27312369Y-7834443D01*
X27225529Y-7842346D01*
X27113342Y-7852555D01*
X27113339Y-7852556D01*
X27107203Y-7853114D01*
X26909572Y-7911280D01*
X26727002Y-8006726D01*
X26722201Y-8010586D01*
X26722198Y-8010588D01*
X26679549Y-8044879D01*
X26566447Y-8135815D01*
X26434024Y-8293630D01*
X26431056Y-8299028D01*
X26431053Y-8299033D01*
X26341617Y-8461718D01*
X26334776Y-8474162D01*
X26272484Y-8670532D01*
X26271798Y-8676649D01*
X26271797Y-8676653D01*
X26266306Y-8725609D01*
X26249520Y-8875262D01*
X-219500Y-8875262D01*
X-219500Y-8660252D01*
X-231133Y-8601769D01*
X-275448Y-8535448D01*
X-341769Y-8491133D01*
X-353938Y-8488712D01*
X-353939Y-8488712D01*
X-394184Y-8480707D01*
X-400252Y-8479500D01*
X-2139748Y-8479500D01*
X-2145816Y-8480707D01*
X-2186061Y-8488712D01*
X-2186062Y-8488712D01*
X-2198231Y-8491133D01*
X-2264552Y-8535448D01*
X-2308867Y-8601769D01*
X-2320500Y-8660252D01*
X-2320500Y-10399748D01*
X-3809500Y-10399748D01*
X-3809500Y-6975262D01*
X-2325480Y-6975262D01*
X-2308241Y-7180553D01*
X-2306542Y-7186478D01*
X-2268484Y-7319201D01*
X-2251456Y-7378586D01*
X-2248641Y-7384063D01*
X-2248640Y-7384066D01*
X-2160103Y-7556341D01*
X-2157288Y-7561818D01*
X-2029323Y-7723270D01*
X-2024630Y-7727264D01*
X-2024629Y-7727265D01*
X-1877413Y-7852555D01*
X-1872436Y-7856791D01*
X-1692602Y-7957297D01*
X-1597762Y-7988113D01*
X-1502529Y-8019056D01*
X-1502525Y-8019057D01*
X-1496671Y-8020959D01*
X-1292106Y-8045351D01*
X-1285971Y-8044879D01*
X-1285969Y-8044879D01*
X-1229961Y-8040569D01*
X-1086700Y-8029546D01*
X-1080770Y-8027890D01*
X-1080768Y-8027890D01*
X-894203Y-7975800D01*
X-894204Y-7975800D01*
X-888275Y-7974145D01*
X-882786Y-7971372D01*
X-882780Y-7971370D01*
X-709884Y-7884033D01*
X-704390Y-7881258D01*
X-672031Y-7855977D01*
X-546899Y-7758213D01*
X-542049Y-7754424D01*
X-489792Y-7693884D01*
X-411460Y-7603134D01*
X-411460Y-7603133D01*
X-407436Y-7598472D01*
X-386613Y-7561818D01*
X-308724Y-7424707D01*
X-305677Y-7419344D01*
X-240649Y-7223863D01*
X-226518Y-7112000D01*
X664318Y-7112000D01*
X684956Y-7268762D01*
X745464Y-7414841D01*
X841718Y-7540282D01*
X848264Y-7545305D01*
X869784Y-7561818D01*
X967159Y-7636536D01*
X1113238Y-7697044D01*
X1270000Y-7717682D01*
X1278188Y-7716604D01*
X1418574Y-7698122D01*
X1426762Y-7697044D01*
X1572841Y-7636536D01*
X1670216Y-7561818D01*
X1691736Y-7545305D01*
X1698282Y-7540282D01*
X1794536Y-7414841D01*
X1855044Y-7268762D01*
X1875682Y-7112000D01*
X1860084Y-6993522D01*
X1856122Y-6963426D01*
X1855044Y-6955238D01*
X1794536Y-6809159D01*
X1698282Y-6683718D01*
X1572841Y-6587464D01*
X1426762Y-6526956D01*
X1270000Y-6506318D01*
X1113238Y-6526956D01*
X967159Y-6587464D01*
X841718Y-6683718D01*
X745464Y-6809159D01*
X684956Y-6955238D01*
X683878Y-6963426D01*
X679916Y-6993522D01*
X664318Y-7112000D01*
X-226518Y-7112000D01*
X-214829Y-7019474D01*
X-214417Y-6990000D01*
X-234520Y-6784970D01*
X-294065Y-6587749D01*
X-390782Y-6405849D01*
X-515637Y-6252762D01*
X-517094Y-6250975D01*
X-517097Y-6250972D01*
X-520989Y-6246200D01*
X-635941Y-6151103D01*
X-674975Y-6118811D01*
X-674979Y-6118809D01*
X-679725Y-6114882D01*
X-714647Y-6096000D01*
X9808318Y-6096000D01*
X9828956Y-6252762D01*
X9889464Y-6398841D01*
X9985718Y-6524282D01*
X10111159Y-6620536D01*
X10257238Y-6681044D01*
X10414000Y-6701682D01*
X10422188Y-6700604D01*
X10562574Y-6682122D01*
X10570762Y-6681044D01*
X10716841Y-6620536D01*
X10842282Y-6524282D01*
X10938536Y-6398841D01*
X10964871Y-6335262D01*
X26249520Y-6335262D01*
X26250036Y-6341406D01*
X26265883Y-6530116D01*
X26266759Y-6540553D01*
X26268458Y-6546478D01*
X26306371Y-6678695D01*
X26323544Y-6738586D01*
X26326359Y-6744063D01*
X26326360Y-6744066D01*
X26414897Y-6916341D01*
X26417712Y-6921818D01*
X26545677Y-7083270D01*
X26550370Y-7087264D01*
X26550371Y-7087265D01*
X26652768Y-7174411D01*
X26702564Y-7216791D01*
X26707942Y-7219797D01*
X26707944Y-7219798D01*
X26739563Y-7237469D01*
X26882398Y-7317297D01*
X26977238Y-7348113D01*
X27072471Y-7379056D01*
X27072475Y-7379057D01*
X27078329Y-7380959D01*
X27282894Y-7405351D01*
X27289029Y-7404879D01*
X27289031Y-7404879D01*
X27345039Y-7400569D01*
X27488300Y-7389546D01*
X27494230Y-7387890D01*
X27494232Y-7387890D01*
X27680797Y-7335800D01*
X27680796Y-7335800D01*
X27686725Y-7334145D01*
X27692214Y-7331372D01*
X27692220Y-7331370D01*
X27865116Y-7244033D01*
X27870610Y-7241258D01*
X27885385Y-7229715D01*
X28028101Y-7118213D01*
X28032951Y-7114424D01*
X28111885Y-7022978D01*
X28163540Y-6963134D01*
X28163540Y-6963133D01*
X28167564Y-6958472D01*
X28188387Y-6921818D01*
X28248051Y-6816789D01*
X28269323Y-6779344D01*
X28334351Y-6583863D01*
X28360171Y-6379474D01*
X28360583Y-6350000D01*
X28359138Y-6335262D01*
X28789520Y-6335262D01*
X28790036Y-6341406D01*
X28805883Y-6530116D01*
X28806759Y-6540553D01*
X28808458Y-6546478D01*
X28846371Y-6678695D01*
X28863544Y-6738586D01*
X28866359Y-6744063D01*
X28866360Y-6744066D01*
X28954897Y-6916341D01*
X28957712Y-6921818D01*
X29085677Y-7083270D01*
X29090370Y-7087264D01*
X29090371Y-7087265D01*
X29192768Y-7174411D01*
X29242564Y-7216791D01*
X29247942Y-7219797D01*
X29247944Y-7219798D01*
X29279563Y-7237469D01*
X29422398Y-7317297D01*
X29517238Y-7348113D01*
X29612471Y-7379056D01*
X29612475Y-7379057D01*
X29618329Y-7380959D01*
X29822894Y-7405351D01*
X29829029Y-7404879D01*
X29829031Y-7404879D01*
X29885039Y-7400569D01*
X30028300Y-7389546D01*
X30034230Y-7387890D01*
X30034232Y-7387890D01*
X30220797Y-7335800D01*
X30220796Y-7335800D01*
X30226725Y-7334145D01*
X30232214Y-7331372D01*
X30232220Y-7331370D01*
X30405116Y-7244033D01*
X30410610Y-7241258D01*
X30425385Y-7229715D01*
X30568101Y-7118213D01*
X30572951Y-7114424D01*
X30651885Y-7022978D01*
X30703540Y-6963134D01*
X30703540Y-6963133D01*
X30707564Y-6958472D01*
X30728387Y-6921818D01*
X30788051Y-6816789D01*
X30809323Y-6779344D01*
X30874351Y-6583863D01*
X30900171Y-6379474D01*
X30900583Y-6350000D01*
X30880480Y-6144970D01*
X30820935Y-5947749D01*
X30724218Y-5765849D01*
X30624344Y-5643392D01*
X30597906Y-5610975D01*
X30597903Y-5610972D01*
X30594011Y-5606200D01*
X30558099Y-5576491D01*
X30440025Y-5478811D01*
X30440021Y-5478809D01*
X30435275Y-5474882D01*
X30254055Y-5376897D01*
X30203183Y-5361150D01*
X30162263Y-5334000D01*
X39780318Y-5334000D01*
X39800956Y-5490762D01*
X39861464Y-5636841D01*
X39957718Y-5762282D01*
X40083159Y-5858536D01*
X40229238Y-5919044D01*
X40386000Y-5939682D01*
X40394188Y-5938604D01*
X40534574Y-5920122D01*
X40542762Y-5919044D01*
X40688841Y-5858536D01*
X40814282Y-5762282D01*
X40910536Y-5636841D01*
X40971044Y-5490762D01*
X40991682Y-5334000D01*
X40971044Y-5177238D01*
X40910536Y-5031159D01*
X40814282Y-4905718D01*
X40688841Y-4809464D01*
X40542762Y-4748956D01*
X40386000Y-4728318D01*
X40229238Y-4748956D01*
X40083159Y-4809464D01*
X39957718Y-4905718D01*
X39861464Y-5031159D01*
X39800956Y-5177238D01*
X39780318Y-5334000D01*
X30162263Y-5334000D01*
X30144025Y-5321899D01*
X30115477Y-5256895D01*
X30126605Y-5186776D01*
X30173876Y-5133804D01*
X30204235Y-5120099D01*
X30337255Y-5080191D01*
X30346842Y-5076433D01*
X30538098Y-4982738D01*
X30546944Y-4977465D01*
X30594247Y-4943723D01*
X30602648Y-4933023D01*
X30595660Y-4919870D01*
X29857812Y-4182022D01*
X29843868Y-4174408D01*
X29842035Y-4174539D01*
X29835420Y-4178790D01*
X29091737Y-4922473D01*
X29084977Y-4934853D01*
X29090258Y-4941907D01*
X29251756Y-5036279D01*
X29261042Y-5040729D01*
X29460001Y-5116703D01*
X29474866Y-5121022D01*
X29474289Y-5123008D01*
X29529260Y-5152082D01*
X29564110Y-5213936D01*
X29559988Y-5284813D01*
X29518201Y-5342209D01*
X29476930Y-5363228D01*
X29455489Y-5369538D01*
X29455484Y-5369540D01*
X29449572Y-5371280D01*
X29267002Y-5466726D01*
X29262201Y-5470586D01*
X29262198Y-5470588D01*
X29130481Y-5576491D01*
X29106447Y-5595815D01*
X28974024Y-5753630D01*
X28971056Y-5759028D01*
X28971053Y-5759033D01*
X28877743Y-5928765D01*
X28874776Y-5934162D01*
X28812484Y-6130532D01*
X28811798Y-6136649D01*
X28811797Y-6136653D01*
X28799692Y-6244574D01*
X28789520Y-6335262D01*
X28359138Y-6335262D01*
X28340480Y-6144970D01*
X28280935Y-5947749D01*
X28184218Y-5765849D01*
X28084344Y-5643392D01*
X28057906Y-5610975D01*
X28057903Y-5610972D01*
X28054011Y-5606200D01*
X28018099Y-5576491D01*
X27900025Y-5478811D01*
X27900021Y-5478809D01*
X27895275Y-5474882D01*
X27714055Y-5376897D01*
X27517254Y-5315977D01*
X27511129Y-5315333D01*
X27511128Y-5315333D01*
X27318498Y-5295087D01*
X27318496Y-5295087D01*
X27312369Y-5294443D01*
X27225529Y-5302346D01*
X27113342Y-5312555D01*
X27113339Y-5312556D01*
X27107203Y-5313114D01*
X26909572Y-5371280D01*
X26727002Y-5466726D01*
X26722201Y-5470586D01*
X26722198Y-5470588D01*
X26590481Y-5576491D01*
X26566447Y-5595815D01*
X26434024Y-5753630D01*
X26431056Y-5759028D01*
X26431053Y-5759033D01*
X26337743Y-5928765D01*
X26334776Y-5934162D01*
X26272484Y-6130532D01*
X26271798Y-6136649D01*
X26271797Y-6136653D01*
X26259692Y-6244574D01*
X26249520Y-6335262D01*
X10964871Y-6335262D01*
X10999044Y-6252762D01*
X11019682Y-6096000D01*
X11000797Y-5952555D01*
X11000122Y-5947426D01*
X10999044Y-5939238D01*
X10938536Y-5793159D01*
X10842282Y-5667718D01*
X10716841Y-5571464D01*
X10570762Y-5510956D01*
X10414000Y-5490318D01*
X10257238Y-5510956D01*
X10111159Y-5571464D01*
X9985718Y-5667718D01*
X9889464Y-5793159D01*
X9828956Y-5939238D01*
X9827878Y-5947426D01*
X9827203Y-5952555D01*
X9808318Y-6096000D01*
X-714647Y-6096000D01*
X-860945Y-6016897D01*
X-1057746Y-5955977D01*
X-1063871Y-5955333D01*
X-1063872Y-5955333D01*
X-1256502Y-5935087D01*
X-1256504Y-5935087D01*
X-1262631Y-5934443D01*
X-1349077Y-5942310D01*
X-1461658Y-5952555D01*
X-1461661Y-5952556D01*
X-1467797Y-5953114D01*
X-1665428Y-6011280D01*
X-1847998Y-6106726D01*
X-1852799Y-6110586D01*
X-1852802Y-6110588D01*
X-2003746Y-6231950D01*
X-2008553Y-6235815D01*
X-2140976Y-6393630D01*
X-2143944Y-6399028D01*
X-2143947Y-6399033D01*
X-2215564Y-6529305D01*
X-2240224Y-6574162D01*
X-2302516Y-6770532D01*
X-2303202Y-6776649D01*
X-2303203Y-6776653D01*
X-2306114Y-6802608D01*
X-2325480Y-6975262D01*
X-3809500Y-6975262D01*
X-3809500Y-42095D01*
X-1854972Y-42095D01*
X-1829466Y-309431D01*
X-1765636Y-570285D01*
X-1664818Y-819192D01*
X-1529125Y-1050938D01*
X-1526272Y-1054505D01*
X-1414775Y-1193925D01*
X-1361399Y-1260669D01*
X-1165154Y-1443991D01*
X-1072961Y-1507948D01*
X-948254Y-1594461D01*
X-948249Y-1594464D01*
X-944501Y-1597064D01*
X-940416Y-1599096D01*
X-940413Y-1599098D01*
X-824281Y-1656872D01*
X-704062Y-1716680D01*
X-699728Y-1718101D01*
X-699725Y-1718102D01*
X-453207Y-1798915D01*
X-453202Y-1798916D01*
X-448874Y-1800335D01*
X-444383Y-1801115D01*
X-444382Y-1801115D01*
X-188064Y-1845620D01*
X-188056Y-1845621D01*
X-184283Y-1846276D01*
X-180446Y-1846467D01*
X-101004Y-1850422D01*
X-100996Y-1850422D01*
X-99433Y-1850500D01*
X68223Y-1850500D01*
X70491Y-1850335D01*
X70503Y-1850335D01*
X200823Y-1840879D01*
X267846Y-1836016D01*
X272301Y-1835032D01*
X272304Y-1835032D01*
X525620Y-1779105D01*
X525624Y-1779104D01*
X530080Y-1778120D01*
X697617Y-1714646D01*
X776941Y-1684593D01*
X776944Y-1684592D01*
X781211Y-1682975D01*
X1015976Y-1552574D01*
X1158254Y-1443991D01*
X1225833Y-1392417D01*
X1225837Y-1392413D01*
X1229458Y-1389650D01*
X1417185Y-1197614D01*
X1575225Y-980491D01*
X1662313Y-814963D01*
X1698140Y-746868D01*
X1698143Y-746862D01*
X1700265Y-742828D01*
X1759703Y-574515D01*
X1788165Y-493916D01*
X1788165Y-493915D01*
X1789688Y-489603D01*
X1841620Y-226122D01*
X1841847Y-221566D01*
X1854745Y37526D01*
X1854745Y37532D01*
X1854972Y42095D01*
X1829466Y309431D01*
X1810519Y386865D01*
X1766721Y565851D01*
X1765636Y570285D01*
X1760610Y582695D01*
X1666531Y814963D01*
X1666531Y814964D01*
X1664818Y819192D01*
X1529125Y1050938D01*
X1418211Y1189629D01*
X1364251Y1257103D01*
X1364250Y1257105D01*
X1361399Y1260669D01*
X1165154Y1443991D01*
X1033232Y1535509D01*
X948254Y1594461D01*
X948249Y1594464D01*
X944501Y1597064D01*
X940416Y1599096D01*
X940413Y1599098D01*
X768560Y1684593D01*
X704062Y1716680D01*
X699728Y1718101D01*
X699725Y1718102D01*
X453207Y1798915D01*
X453202Y1798916D01*
X448874Y1800335D01*
X444382Y1801115D01*
X188064Y1845620D01*
X188056Y1845621D01*
X184283Y1846276D01*
X175622Y1846707D01*
X101004Y1850422D01*
X100996Y1850422D01*
X99433Y1850500D01*
X-68223Y1850500D01*
X-70491Y1850335D01*
X-70503Y1850335D01*
X-189108Y1841729D01*
X-267846Y1836016D01*
X-272301Y1835032D01*
X-272304Y1835032D01*
X-525620Y1779105D01*
X-525624Y1779104D01*
X-530080Y1778120D01*
X-639171Y1736789D01*
X-776941Y1684593D01*
X-776944Y1684592D01*
X-781211Y1682975D01*
X-1015976Y1552574D01*
X-1067866Y1512973D01*
X-1225833Y1392417D01*
X-1225837Y1392413D01*
X-1229458Y1389650D01*
X-1417185Y1197614D01*
X-1575225Y980491D01*
X-1593440Y945869D01*
X-1698140Y746868D01*
X-1698143Y746862D01*
X-1700265Y742828D01*
X-1701785Y738523D01*
X-1701787Y738519D01*
X-1761196Y570285D01*
X-1789688Y489603D01*
X-1841620Y226122D01*
X-1841847Y221569D01*
X-1841847Y221566D01*
X-1852881Y-99D01*
X-1854972Y-42095D01*
X-3809500Y-42095D01*
X-3809500Y-3082D01*
X-3809348Y3101D01*
X-3802020Y152258D01*
X-3801999Y152669D01*
X-3790349Y374971D01*
X-3789158Y386865D01*
X-3763063Y562788D01*
X-3762876Y564010D01*
X-3761212Y574515D01*
X-3732259Y757320D01*
X-3730036Y768214D01*
X-3718325Y814963D01*
X-3685533Y945876D01*
X-3685018Y947864D01*
X-3635744Y1131757D01*
X-3632679Y1141573D01*
X-3570216Y1316145D01*
X-3569259Y1318725D01*
X-3501795Y1494474D01*
X-3498071Y1503181D01*
X-3418360Y1671715D01*
X-3416724Y1675045D01*
X-3331795Y1841729D01*
X-3327602Y1849304D01*
X-3312057Y1875238D01*
X-3231434Y2009750D01*
X-3229033Y2013597D01*
X-3207446Y2046839D01*
X-3127460Y2170007D01*
X-3123041Y2176370D01*
X-3011355Y2326961D01*
X-3008083Y2331180D01*
X-2890954Y2475822D01*
X-2886394Y2481144D01*
X-2760420Y2620136D01*
X-2756155Y2624615D01*
X-2624615Y2756155D01*
X-2620136Y2760420D01*
X-2481144Y2886394D01*
X-2475822Y2890954D01*
X-2331180Y3008083D01*
X-2326961Y3011355D01*
X-2176370Y3123041D01*
X-2170007Y3127460D01*
X-2046839Y3207446D01*
X-2013597Y3229033D01*
X-2009750Y3231434D01*
X-1933540Y3277113D01*
X-1849296Y3327606D01*
X-1841729Y3331795D01*
X-1675045Y3416724D01*
X-1671715Y3418360D01*
X-1503181Y3498071D01*
X-1494474Y3501795D01*
X-1318725Y3569259D01*
X-1316145Y3570216D01*
X-1141573Y3632679D01*
X-1131757Y3635744D01*
X-947864Y3685018D01*
X-945869Y3685535D01*
X-768204Y3730038D01*
X-757320Y3732259D01*
X-563965Y3762883D01*
X-562841Y3763055D01*
X-435253Y3781980D01*
X-386865Y3789158D01*
X-374971Y3790349D01*
X-152669Y3801999D01*
X-152258Y3802020D01*
X-3101Y3809348D01*
X3082Y3809500D01*
X4700000Y3809500D01*
X4768121Y3789498D01*
G37*
G04 #@! TD.AperFunction*
M02*
