%FSLAX45Y45*%
G04 Gerber Fmt 4.5, Leading zero omitted, Abs format (unit mm)*
G04 Created by KiCad (PCBNEW (6.0.0)) date 2022-11-09 00:59:35*
%MOMM*%
%LPD*%
G01*
G04 APERTURE LIST*
%TA.AperFunction,Profile*%
%ADD10C,0.100000*%
%TD*%
%ADD11C,0.200000*%
%ADD12C,0.055000*%
%ADD13C,0.320000*%
G04 APERTURE END LIST*
D10*
X4508500Y-4381500D02*
G75*
G03*
X4889500Y-4000500I0J381000D01*
G01*
X0Y381000D02*
G75*
G03*
X-381000Y0I0J-381000D01*
G01*
X4889500Y0D02*
G75*
G03*
X4508500Y381000I-381000J0D01*
G01*
X4889500Y0D02*
X4889500Y-4000500D01*
X4508500Y-4381500D02*
X0Y-4381500D01*
X-381000Y-4000500D02*
X-381000Y0D01*
X0Y381000D02*
X4508500Y381000D01*
X-381000Y-4000500D02*
G75*
G03*
X0Y-4381500I381000J0D01*
G01*
D11*
D12*
X1233000Y-3761500D02*
X1288000Y-3816500D01*
X1288000Y-3761500D02*
X1233000Y-3816500D01*
X1633000Y-3761500D02*
X1688000Y-3816500D01*
X1688000Y-3761500D02*
X1633000Y-3816500D01*
D13*
X160000Y0D02*
G75*
G03*
X160000Y0I-160000J0D01*
G01*
X160000Y-4000500D02*
G75*
G03*
X160000Y-4000500I-160000J0D01*
G01*
X4668500Y0D02*
G75*
G03*
X4668500Y0I-160000J0D01*
G01*
X4668500Y-4000500D02*
G75*
G03*
X4668500Y-4000500I-160000J0D01*
G01*
D11*
X-128381Y-4696976D02*
X-128381Y-4496976D01*
X-80762Y-4496976D01*
X-52190Y-4506500D01*
X-33143Y-4525548D01*
X-23619Y-4544595D01*
X-14095Y-4582690D01*
X-14095Y-4611262D01*
X-23619Y-4649357D01*
X-33143Y-4668405D01*
X-52190Y-4687452D01*
X-80762Y-4696976D01*
X-128381Y-4696976D01*
X71619Y-4696976D02*
X71619Y-4563643D01*
X71619Y-4601738D02*
X81143Y-4582690D01*
X90667Y-4573167D01*
X109714Y-4563643D01*
X128762Y-4563643D01*
X195428Y-4696976D02*
X195428Y-4563643D01*
X195428Y-4496976D02*
X185905Y-4506500D01*
X195428Y-4516024D01*
X204952Y-4506500D01*
X195428Y-4496976D01*
X195428Y-4516024D01*
X319238Y-4696976D02*
X300190Y-4687452D01*
X290667Y-4668405D01*
X290667Y-4496976D01*
X424000Y-4696976D02*
X404952Y-4687452D01*
X395428Y-4668405D01*
X395428Y-4496976D01*
X652571Y-4696976D02*
X652571Y-4496976D01*
X719238Y-4639833D01*
X785905Y-4496976D01*
X785905Y-4696976D01*
X966857Y-4696976D02*
X966857Y-4592214D01*
X957333Y-4573167D01*
X938286Y-4563643D01*
X900190Y-4563643D01*
X881143Y-4573167D01*
X966857Y-4687452D02*
X947809Y-4696976D01*
X900190Y-4696976D01*
X881143Y-4687452D01*
X871619Y-4668405D01*
X871619Y-4649357D01*
X881143Y-4630310D01*
X900190Y-4620786D01*
X947809Y-4620786D01*
X966857Y-4611262D01*
X1062095Y-4563643D02*
X1062095Y-4763643D01*
X1062095Y-4573167D02*
X1081143Y-4563643D01*
X1119238Y-4563643D01*
X1138286Y-4573167D01*
X1147810Y-4582690D01*
X1157333Y-4601738D01*
X1157333Y-4658881D01*
X1147810Y-4677929D01*
X1138286Y-4687452D01*
X1119238Y-4696976D01*
X1081143Y-4696976D01*
X1062095Y-4687452D01*
X1243048Y-4677929D02*
X1252571Y-4687452D01*
X1243048Y-4696976D01*
X1233524Y-4687452D01*
X1243048Y-4677929D01*
X1243048Y-4696976D01*
X1243048Y-4573167D02*
X1252571Y-4582690D01*
X1243048Y-4592214D01*
X1233524Y-4582690D01*
X1243048Y-4573167D01*
X1243048Y-4592214D01*
D12*
X-441000Y-4999000D02*
X-386000Y-5054000D01*
X-386000Y-4999000D02*
X-441000Y-5054000D01*
D11*
X-90286Y-4916976D02*
X-71238Y-4916976D01*
X-52190Y-4926500D01*
X-42667Y-4936024D01*
X-33143Y-4955071D01*
X-23619Y-4993167D01*
X-23619Y-5040786D01*
X-33143Y-5078881D01*
X-42667Y-5097929D01*
X-52190Y-5107452D01*
X-71238Y-5116976D01*
X-90286Y-5116976D01*
X-109333Y-5107452D01*
X-118857Y-5097929D01*
X-128381Y-5078881D01*
X-137905Y-5040786D01*
X-137905Y-4993167D01*
X-128381Y-4955071D01*
X-118857Y-4936024D01*
X-109333Y-4926500D01*
X-90286Y-4916976D01*
X62095Y-5097929D02*
X71619Y-5107452D01*
X62095Y-5116976D01*
X52571Y-5107452D01*
X62095Y-5097929D01*
X62095Y-5116976D01*
X252571Y-4916976D02*
X157333Y-4916976D01*
X147810Y-5012214D01*
X157333Y-5002690D01*
X176381Y-4993167D01*
X224000Y-4993167D01*
X243048Y-5002690D01*
X252571Y-5012214D01*
X262095Y-5031262D01*
X262095Y-5078881D01*
X252571Y-5097929D01*
X243048Y-5107452D01*
X224000Y-5116976D01*
X176381Y-5116976D01*
X157333Y-5107452D01*
X147810Y-5097929D01*
X443048Y-4916976D02*
X347810Y-4916976D01*
X338286Y-5012214D01*
X347810Y-5002690D01*
X366857Y-4993167D01*
X414476Y-4993167D01*
X433524Y-5002690D01*
X443048Y-5012214D01*
X452571Y-5031262D01*
X452571Y-5078881D01*
X443048Y-5097929D01*
X433524Y-5107452D01*
X414476Y-5116976D01*
X366857Y-5116976D01*
X347810Y-5107452D01*
X338286Y-5097929D01*
X576381Y-4916976D02*
X595429Y-4916976D01*
X614476Y-4926500D01*
X624000Y-4936024D01*
X633524Y-4955071D01*
X643048Y-4993167D01*
X643048Y-5040786D01*
X633524Y-5078881D01*
X624000Y-5097929D01*
X614476Y-5107452D01*
X595429Y-5116976D01*
X576381Y-5116976D01*
X557333Y-5107452D01*
X547810Y-5097929D01*
X538286Y-5078881D01*
X528762Y-5040786D01*
X528762Y-4993167D01*
X538286Y-4955071D01*
X547810Y-4936024D01*
X557333Y-4926500D01*
X576381Y-4916976D01*
X728762Y-5116976D02*
X728762Y-4983643D01*
X728762Y-5002690D02*
X738286Y-4993167D01*
X757333Y-4983643D01*
X785905Y-4983643D01*
X804952Y-4993167D01*
X814476Y-5012214D01*
X814476Y-5116976D01*
X814476Y-5012214D02*
X824000Y-4993167D01*
X843048Y-4983643D01*
X871619Y-4983643D01*
X890667Y-4993167D01*
X900190Y-5012214D01*
X900190Y-5116976D01*
X995428Y-5116976D02*
X995428Y-4983643D01*
X995428Y-5002690D02*
X1004952Y-4993167D01*
X1024000Y-4983643D01*
X1052571Y-4983643D01*
X1071619Y-4993167D01*
X1081143Y-5012214D01*
X1081143Y-5116976D01*
X1081143Y-5012214D02*
X1090667Y-4993167D01*
X1109714Y-4983643D01*
X1138286Y-4983643D01*
X1157333Y-4993167D01*
X1166857Y-5012214D01*
X1166857Y-5116976D01*
X1557333Y-4907452D02*
X1385905Y-5164595D01*
X1814476Y-4916976D02*
X1833524Y-4916976D01*
X1852571Y-4926500D01*
X1862095Y-4936024D01*
X1871619Y-4955071D01*
X1881143Y-4993167D01*
X1881143Y-5040786D01*
X1871619Y-5078881D01*
X1862095Y-5097929D01*
X1852571Y-5107452D01*
X1833524Y-5116976D01*
X1814476Y-5116976D01*
X1795428Y-5107452D01*
X1785905Y-5097929D01*
X1776381Y-5078881D01*
X1766857Y-5040786D01*
X1766857Y-4993167D01*
X1776381Y-4955071D01*
X1785905Y-4936024D01*
X1795428Y-4926500D01*
X1814476Y-4916976D01*
X1966857Y-5097929D02*
X1976381Y-5107452D01*
X1966857Y-5116976D01*
X1957333Y-5107452D01*
X1966857Y-5097929D01*
X1966857Y-5116976D01*
X2100190Y-4916976D02*
X2119238Y-4916976D01*
X2138286Y-4926500D01*
X2147810Y-4936024D01*
X2157333Y-4955071D01*
X2166857Y-4993167D01*
X2166857Y-5040786D01*
X2157333Y-5078881D01*
X2147810Y-5097929D01*
X2138286Y-5107452D01*
X2119238Y-5116976D01*
X2100190Y-5116976D01*
X2081143Y-5107452D01*
X2071619Y-5097929D01*
X2062095Y-5078881D01*
X2052571Y-5040786D01*
X2052571Y-4993167D01*
X2062095Y-4955071D01*
X2071619Y-4936024D01*
X2081143Y-4926500D01*
X2100190Y-4916976D01*
X2243048Y-4936024D02*
X2252571Y-4926500D01*
X2271619Y-4916976D01*
X2319238Y-4916976D01*
X2338286Y-4926500D01*
X2347810Y-4936024D01*
X2357333Y-4955071D01*
X2357333Y-4974119D01*
X2347810Y-5002690D01*
X2233524Y-5116976D01*
X2357333Y-5116976D01*
X2547810Y-5116976D02*
X2433524Y-5116976D01*
X2490667Y-5116976D02*
X2490667Y-4916976D01*
X2471619Y-4945548D01*
X2452571Y-4964595D01*
X2433524Y-4974119D01*
X2614476Y-4916976D02*
X2747810Y-4916976D01*
X2662095Y-5116976D01*
X2814476Y-4916976D02*
X2814476Y-4955071D01*
X2890667Y-4916976D02*
X2890667Y-4955071D01*
X3185905Y-5193167D02*
X3176381Y-5183643D01*
X3157333Y-5155071D01*
X3147809Y-5136024D01*
X3138286Y-5107452D01*
X3128762Y-5059833D01*
X3128762Y-5021738D01*
X3138286Y-4974119D01*
X3147809Y-4945548D01*
X3157333Y-4926500D01*
X3176381Y-4897929D01*
X3185905Y-4888405D01*
X3252571Y-4936024D02*
X3262095Y-4926500D01*
X3281143Y-4916976D01*
X3328762Y-4916976D01*
X3347809Y-4926500D01*
X3357333Y-4936024D01*
X3366857Y-4955071D01*
X3366857Y-4974119D01*
X3357333Y-5002690D01*
X3243048Y-5116976D01*
X3366857Y-5116976D01*
X3604952Y-5116976D02*
X3604952Y-4916976D01*
X3690667Y-5116976D02*
X3690667Y-5012214D01*
X3681143Y-4993167D01*
X3662095Y-4983643D01*
X3633524Y-4983643D01*
X3614476Y-4993167D01*
X3604952Y-5002690D01*
X3814476Y-5116976D02*
X3795428Y-5107452D01*
X3785905Y-5097929D01*
X3776381Y-5078881D01*
X3776381Y-5021738D01*
X3785905Y-5002690D01*
X3795428Y-4993167D01*
X3814476Y-4983643D01*
X3843048Y-4983643D01*
X3862095Y-4993167D01*
X3871619Y-5002690D01*
X3881143Y-5021738D01*
X3881143Y-5078881D01*
X3871619Y-5097929D01*
X3862095Y-5107452D01*
X3843048Y-5116976D01*
X3814476Y-5116976D01*
X3995428Y-5116976D02*
X3976381Y-5107452D01*
X3966857Y-5088405D01*
X3966857Y-4916976D01*
X4147809Y-5107452D02*
X4128762Y-5116976D01*
X4090667Y-5116976D01*
X4071619Y-5107452D01*
X4062095Y-5088405D01*
X4062095Y-5012214D01*
X4071619Y-4993167D01*
X4090667Y-4983643D01*
X4128762Y-4983643D01*
X4147809Y-4993167D01*
X4157333Y-5012214D01*
X4157333Y-5031262D01*
X4062095Y-5050310D01*
X4233524Y-5107452D02*
X4252571Y-5116976D01*
X4290667Y-5116976D01*
X4309714Y-5107452D01*
X4319238Y-5088405D01*
X4319238Y-5078881D01*
X4309714Y-5059833D01*
X4290667Y-5050310D01*
X4262095Y-5050310D01*
X4243048Y-5040786D01*
X4233524Y-5021738D01*
X4233524Y-5012214D01*
X4243048Y-4993167D01*
X4262095Y-4983643D01*
X4290667Y-4983643D01*
X4309714Y-4993167D01*
X4385905Y-5193167D02*
X4395429Y-5183643D01*
X4414476Y-5155071D01*
X4424000Y-5136024D01*
X4433524Y-5107452D01*
X4443048Y-5059833D01*
X4443048Y-5021738D01*
X4433524Y-4974119D01*
X4424000Y-4945548D01*
X4414476Y-4926500D01*
X4395429Y-4897929D01*
X4385905Y-4888405D01*
X4747810Y-5193167D02*
X4738286Y-5183643D01*
X4719238Y-5155071D01*
X4709714Y-5136024D01*
X4700190Y-5107452D01*
X4690667Y-5059833D01*
X4690667Y-5021738D01*
X4700190Y-4974119D01*
X4709714Y-4945548D01*
X4719238Y-4926500D01*
X4738286Y-4897929D01*
X4747810Y-4888405D01*
X4824000Y-4983643D02*
X4824000Y-5116976D01*
X4824000Y-5002690D02*
X4833524Y-4993167D01*
X4852571Y-4983643D01*
X4881143Y-4983643D01*
X4900190Y-4993167D01*
X4909714Y-5012214D01*
X4909714Y-5116976D01*
X5033524Y-5116976D02*
X5014476Y-5107452D01*
X5004952Y-5097929D01*
X4995429Y-5078881D01*
X4995429Y-5021738D01*
X5004952Y-5002690D01*
X5014476Y-4993167D01*
X5033524Y-4983643D01*
X5062095Y-4983643D01*
X5081143Y-4993167D01*
X5090667Y-5002690D01*
X5100190Y-5021738D01*
X5100190Y-5078881D01*
X5090667Y-5097929D01*
X5081143Y-5107452D01*
X5062095Y-5116976D01*
X5033524Y-5116976D01*
X5157333Y-4983643D02*
X5233524Y-4983643D01*
X5185905Y-4916976D02*
X5185905Y-5088405D01*
X5195429Y-5107452D01*
X5214476Y-5116976D01*
X5233524Y-5116976D01*
X5452571Y-4983643D02*
X5452571Y-5183643D01*
X5452571Y-4993167D02*
X5471619Y-4983643D01*
X5509714Y-4983643D01*
X5528762Y-4993167D01*
X5538286Y-5002690D01*
X5547810Y-5021738D01*
X5547810Y-5078881D01*
X5538286Y-5097929D01*
X5528762Y-5107452D01*
X5509714Y-5116976D01*
X5471619Y-5116976D01*
X5452571Y-5107452D01*
X5662095Y-5116976D02*
X5643048Y-5107452D01*
X5633524Y-5088405D01*
X5633524Y-4916976D01*
X5824000Y-5116976D02*
X5824000Y-5012214D01*
X5814476Y-4993167D01*
X5795428Y-4983643D01*
X5757333Y-4983643D01*
X5738286Y-4993167D01*
X5824000Y-5107452D02*
X5804952Y-5116976D01*
X5757333Y-5116976D01*
X5738286Y-5107452D01*
X5728762Y-5088405D01*
X5728762Y-5069357D01*
X5738286Y-5050310D01*
X5757333Y-5040786D01*
X5804952Y-5040786D01*
X5824000Y-5031262D01*
X5890667Y-4983643D02*
X5966857Y-4983643D01*
X5919238Y-4916976D02*
X5919238Y-5088405D01*
X5928762Y-5107452D01*
X5947809Y-5116976D01*
X5966857Y-5116976D01*
X6109714Y-5107452D02*
X6090667Y-5116976D01*
X6052571Y-5116976D01*
X6033524Y-5107452D01*
X6024000Y-5088405D01*
X6024000Y-5012214D01*
X6033524Y-4993167D01*
X6052571Y-4983643D01*
X6090667Y-4983643D01*
X6109714Y-4993167D01*
X6119238Y-5012214D01*
X6119238Y-5031262D01*
X6024000Y-5050310D01*
X6290667Y-5116976D02*
X6290667Y-4916976D01*
X6290667Y-5107452D02*
X6271619Y-5116976D01*
X6233524Y-5116976D01*
X6214476Y-5107452D01*
X6204952Y-5097929D01*
X6195428Y-5078881D01*
X6195428Y-5021738D01*
X6204952Y-5002690D01*
X6214476Y-4993167D01*
X6233524Y-4983643D01*
X6271619Y-4983643D01*
X6290667Y-4993167D01*
X6366857Y-5193167D02*
X6376381Y-5183643D01*
X6395428Y-5155071D01*
X6404952Y-5136024D01*
X6414476Y-5107452D01*
X6424000Y-5059833D01*
X6424000Y-5021738D01*
X6414476Y-4974119D01*
X6404952Y-4945548D01*
X6395428Y-4926500D01*
X6376381Y-4897929D01*
X6366857Y-4888405D01*
X-386000Y-5290500D02*
G75*
G03*
X-386000Y-5290500I-100000J0D01*
G01*
X-147429Y-5180976D02*
X-23619Y-5180976D01*
X-90286Y-5257167D01*
X-61714Y-5257167D01*
X-42667Y-5266690D01*
X-33143Y-5276214D01*
X-23619Y-5295262D01*
X-23619Y-5342881D01*
X-33143Y-5361929D01*
X-42667Y-5371452D01*
X-61714Y-5380976D01*
X-118857Y-5380976D01*
X-137905Y-5371452D01*
X-147429Y-5361929D01*
X62095Y-5361929D02*
X71619Y-5371452D01*
X62095Y-5380976D01*
X52571Y-5371452D01*
X62095Y-5361929D01*
X62095Y-5380976D01*
X147810Y-5200024D02*
X157333Y-5190500D01*
X176381Y-5180976D01*
X224000Y-5180976D01*
X243048Y-5190500D01*
X252571Y-5200024D01*
X262095Y-5219071D01*
X262095Y-5238119D01*
X252571Y-5266690D01*
X138286Y-5380976D01*
X262095Y-5380976D01*
X385905Y-5180976D02*
X404952Y-5180976D01*
X424000Y-5190500D01*
X433524Y-5200024D01*
X443048Y-5219071D01*
X452571Y-5257167D01*
X452571Y-5304786D01*
X443048Y-5342881D01*
X433524Y-5361929D01*
X424000Y-5371452D01*
X404952Y-5380976D01*
X385905Y-5380976D01*
X366857Y-5371452D01*
X357333Y-5361929D01*
X347810Y-5342881D01*
X338286Y-5304786D01*
X338286Y-5257167D01*
X347810Y-5219071D01*
X357333Y-5200024D01*
X366857Y-5190500D01*
X385905Y-5180976D01*
X576381Y-5180976D02*
X595429Y-5180976D01*
X614476Y-5190500D01*
X624000Y-5200024D01*
X633524Y-5219071D01*
X643048Y-5257167D01*
X643048Y-5304786D01*
X633524Y-5342881D01*
X624000Y-5361929D01*
X614476Y-5371452D01*
X595429Y-5380976D01*
X576381Y-5380976D01*
X557333Y-5371452D01*
X547810Y-5361929D01*
X538286Y-5342881D01*
X528762Y-5304786D01*
X528762Y-5257167D01*
X538286Y-5219071D01*
X547810Y-5200024D01*
X557333Y-5190500D01*
X576381Y-5180976D01*
X728762Y-5380976D02*
X728762Y-5247643D01*
X728762Y-5266690D02*
X738286Y-5257167D01*
X757333Y-5247643D01*
X785905Y-5247643D01*
X804952Y-5257167D01*
X814476Y-5276214D01*
X814476Y-5380976D01*
X814476Y-5276214D02*
X824000Y-5257167D01*
X843048Y-5247643D01*
X871619Y-5247643D01*
X890667Y-5257167D01*
X900190Y-5276214D01*
X900190Y-5380976D01*
X995428Y-5380976D02*
X995428Y-5247643D01*
X995428Y-5266690D02*
X1004952Y-5257167D01*
X1024000Y-5247643D01*
X1052571Y-5247643D01*
X1071619Y-5257167D01*
X1081143Y-5276214D01*
X1081143Y-5380976D01*
X1081143Y-5276214D02*
X1090667Y-5257167D01*
X1109714Y-5247643D01*
X1138286Y-5247643D01*
X1157333Y-5257167D01*
X1166857Y-5276214D01*
X1166857Y-5380976D01*
X1557333Y-5171452D02*
X1385905Y-5428595D01*
X1814476Y-5180976D02*
X1833524Y-5180976D01*
X1852571Y-5190500D01*
X1862095Y-5200024D01*
X1871619Y-5219071D01*
X1881143Y-5257167D01*
X1881143Y-5304786D01*
X1871619Y-5342881D01*
X1862095Y-5361929D01*
X1852571Y-5371452D01*
X1833524Y-5380976D01*
X1814476Y-5380976D01*
X1795428Y-5371452D01*
X1785905Y-5361929D01*
X1776381Y-5342881D01*
X1766857Y-5304786D01*
X1766857Y-5257167D01*
X1776381Y-5219071D01*
X1785905Y-5200024D01*
X1795428Y-5190500D01*
X1814476Y-5180976D01*
X1966857Y-5361929D02*
X1976381Y-5371452D01*
X1966857Y-5380976D01*
X1957333Y-5371452D01*
X1966857Y-5361929D01*
X1966857Y-5380976D01*
X2166857Y-5380976D02*
X2052571Y-5380976D01*
X2109714Y-5380976D02*
X2109714Y-5180976D01*
X2090667Y-5209548D01*
X2071619Y-5228595D01*
X2052571Y-5238119D01*
X2243048Y-5200024D02*
X2252571Y-5190500D01*
X2271619Y-5180976D01*
X2319238Y-5180976D01*
X2338286Y-5190500D01*
X2347810Y-5200024D01*
X2357333Y-5219071D01*
X2357333Y-5238119D01*
X2347810Y-5266690D01*
X2233524Y-5380976D01*
X2357333Y-5380976D01*
X2528762Y-5180976D02*
X2490667Y-5180976D01*
X2471619Y-5190500D01*
X2462095Y-5200024D01*
X2443048Y-5228595D01*
X2433524Y-5266690D01*
X2433524Y-5342881D01*
X2443048Y-5361929D01*
X2452571Y-5371452D01*
X2471619Y-5380976D01*
X2509714Y-5380976D01*
X2528762Y-5371452D01*
X2538286Y-5361929D01*
X2547810Y-5342881D01*
X2547810Y-5295262D01*
X2538286Y-5276214D01*
X2528762Y-5266690D01*
X2509714Y-5257167D01*
X2471619Y-5257167D01*
X2452571Y-5266690D01*
X2443048Y-5276214D01*
X2433524Y-5295262D01*
X2671619Y-5180976D02*
X2690667Y-5180976D01*
X2709714Y-5190500D01*
X2719238Y-5200024D01*
X2728762Y-5219071D01*
X2738286Y-5257167D01*
X2738286Y-5304786D01*
X2728762Y-5342881D01*
X2719238Y-5361929D01*
X2709714Y-5371452D01*
X2690667Y-5380976D01*
X2671619Y-5380976D01*
X2652571Y-5371452D01*
X2643048Y-5361929D01*
X2633524Y-5342881D01*
X2624000Y-5304786D01*
X2624000Y-5257167D01*
X2633524Y-5219071D01*
X2643048Y-5200024D01*
X2652571Y-5190500D01*
X2671619Y-5180976D01*
X2814476Y-5180976D02*
X2814476Y-5219071D01*
X2890667Y-5180976D02*
X2890667Y-5219071D01*
X3185905Y-5457167D02*
X3176381Y-5447643D01*
X3157333Y-5419071D01*
X3147809Y-5400024D01*
X3138286Y-5371452D01*
X3128762Y-5323833D01*
X3128762Y-5285738D01*
X3138286Y-5238119D01*
X3147809Y-5209548D01*
X3157333Y-5190500D01*
X3176381Y-5161929D01*
X3185905Y-5152405D01*
X3347809Y-5247643D02*
X3347809Y-5380976D01*
X3300190Y-5171452D02*
X3252571Y-5314310D01*
X3376381Y-5314310D01*
X3604952Y-5380976D02*
X3604952Y-5180976D01*
X3690667Y-5380976D02*
X3690667Y-5276214D01*
X3681143Y-5257167D01*
X3662095Y-5247643D01*
X3633524Y-5247643D01*
X3614476Y-5257167D01*
X3604952Y-5266690D01*
X3814476Y-5380976D02*
X3795428Y-5371452D01*
X3785905Y-5361929D01*
X3776381Y-5342881D01*
X3776381Y-5285738D01*
X3785905Y-5266690D01*
X3795428Y-5257167D01*
X3814476Y-5247643D01*
X3843048Y-5247643D01*
X3862095Y-5257167D01*
X3871619Y-5266690D01*
X3881143Y-5285738D01*
X3881143Y-5342881D01*
X3871619Y-5361929D01*
X3862095Y-5371452D01*
X3843048Y-5380976D01*
X3814476Y-5380976D01*
X3995428Y-5380976D02*
X3976381Y-5371452D01*
X3966857Y-5352405D01*
X3966857Y-5180976D01*
X4147809Y-5371452D02*
X4128762Y-5380976D01*
X4090667Y-5380976D01*
X4071619Y-5371452D01*
X4062095Y-5352405D01*
X4062095Y-5276214D01*
X4071619Y-5257167D01*
X4090667Y-5247643D01*
X4128762Y-5247643D01*
X4147809Y-5257167D01*
X4157333Y-5276214D01*
X4157333Y-5295262D01*
X4062095Y-5314310D01*
X4233524Y-5371452D02*
X4252571Y-5380976D01*
X4290667Y-5380976D01*
X4309714Y-5371452D01*
X4319238Y-5352405D01*
X4319238Y-5342881D01*
X4309714Y-5323833D01*
X4290667Y-5314310D01*
X4262095Y-5314310D01*
X4243048Y-5304786D01*
X4233524Y-5285738D01*
X4233524Y-5276214D01*
X4243048Y-5257167D01*
X4262095Y-5247643D01*
X4290667Y-5247643D01*
X4309714Y-5257167D01*
X4385905Y-5457167D02*
X4395429Y-5447643D01*
X4414476Y-5419071D01*
X4424000Y-5400024D01*
X4433524Y-5371452D01*
X4443048Y-5323833D01*
X4443048Y-5285738D01*
X4433524Y-5238119D01*
X4424000Y-5209548D01*
X4414476Y-5190500D01*
X4395429Y-5161929D01*
X4385905Y-5152405D01*
X4747810Y-5457167D02*
X4738286Y-5447643D01*
X4719238Y-5419071D01*
X4709714Y-5400024D01*
X4700190Y-5371452D01*
X4690667Y-5323833D01*
X4690667Y-5285738D01*
X4700190Y-5238119D01*
X4709714Y-5209548D01*
X4719238Y-5190500D01*
X4738286Y-5161929D01*
X4747810Y-5152405D01*
X4824000Y-5247643D02*
X4824000Y-5380976D01*
X4824000Y-5266690D02*
X4833524Y-5257167D01*
X4852571Y-5247643D01*
X4881143Y-5247643D01*
X4900190Y-5257167D01*
X4909714Y-5276214D01*
X4909714Y-5380976D01*
X5033524Y-5380976D02*
X5014476Y-5371452D01*
X5004952Y-5361929D01*
X4995429Y-5342881D01*
X4995429Y-5285738D01*
X5004952Y-5266690D01*
X5014476Y-5257167D01*
X5033524Y-5247643D01*
X5062095Y-5247643D01*
X5081143Y-5257167D01*
X5090667Y-5266690D01*
X5100190Y-5285738D01*
X5100190Y-5342881D01*
X5090667Y-5361929D01*
X5081143Y-5371452D01*
X5062095Y-5380976D01*
X5033524Y-5380976D01*
X5157333Y-5247643D02*
X5233524Y-5247643D01*
X5185905Y-5180976D02*
X5185905Y-5352405D01*
X5195429Y-5371452D01*
X5214476Y-5380976D01*
X5233524Y-5380976D01*
X5452571Y-5247643D02*
X5452571Y-5447643D01*
X5452571Y-5257167D02*
X5471619Y-5247643D01*
X5509714Y-5247643D01*
X5528762Y-5257167D01*
X5538286Y-5266690D01*
X5547810Y-5285738D01*
X5547810Y-5342881D01*
X5538286Y-5361929D01*
X5528762Y-5371452D01*
X5509714Y-5380976D01*
X5471619Y-5380976D01*
X5452571Y-5371452D01*
X5662095Y-5380976D02*
X5643048Y-5371452D01*
X5633524Y-5352405D01*
X5633524Y-5180976D01*
X5824000Y-5380976D02*
X5824000Y-5276214D01*
X5814476Y-5257167D01*
X5795428Y-5247643D01*
X5757333Y-5247643D01*
X5738286Y-5257167D01*
X5824000Y-5371452D02*
X5804952Y-5380976D01*
X5757333Y-5380976D01*
X5738286Y-5371452D01*
X5728762Y-5352405D01*
X5728762Y-5333357D01*
X5738286Y-5314310D01*
X5757333Y-5304786D01*
X5804952Y-5304786D01*
X5824000Y-5295262D01*
X5890667Y-5247643D02*
X5966857Y-5247643D01*
X5919238Y-5180976D02*
X5919238Y-5352405D01*
X5928762Y-5371452D01*
X5947809Y-5380976D01*
X5966857Y-5380976D01*
X6109714Y-5371452D02*
X6090667Y-5380976D01*
X6052571Y-5380976D01*
X6033524Y-5371452D01*
X6024000Y-5352405D01*
X6024000Y-5276214D01*
X6033524Y-5257167D01*
X6052571Y-5247643D01*
X6090667Y-5247643D01*
X6109714Y-5257167D01*
X6119238Y-5276214D01*
X6119238Y-5295262D01*
X6024000Y-5314310D01*
X6290667Y-5380976D02*
X6290667Y-5180976D01*
X6290667Y-5371452D02*
X6271619Y-5380976D01*
X6233524Y-5380976D01*
X6214476Y-5371452D01*
X6204952Y-5361929D01*
X6195428Y-5342881D01*
X6195428Y-5285738D01*
X6204952Y-5266690D01*
X6214476Y-5257167D01*
X6233524Y-5247643D01*
X6271619Y-5247643D01*
X6290667Y-5257167D01*
X6366857Y-5457167D02*
X6376381Y-5447643D01*
X6395428Y-5419071D01*
X6404952Y-5400024D01*
X6414476Y-5371452D01*
X6424000Y-5323833D01*
X6424000Y-5285738D01*
X6414476Y-5238119D01*
X6404952Y-5209548D01*
X6395428Y-5190500D01*
X6376381Y-5161929D01*
X6366857Y-5152405D01*
M02*
