M48
; DRILL file {KiCad (6.0.0)} date Wed Nov  9 00:59:35 2022
; FORMAT={-:-/ absolute / metric / decimal}
; #@! TF.CreationDate,2022-11-09T00:59:35-05:00
; #@! TF.GenerationSoftware,Kicad,Pcbnew,(6.0.0)
; #@! TF.FileFunction,Plated,1,4,PTH
FMAT,2
METRIC
; #@! TA.AperFunction,Plated,PTH,ViaDrill
T1C0.400
; #@! TA.AperFunction,Plated,PTH,ComponentDrill
T2C1.000
%
G90
G05
T1
X-2.794Y-28.448
X-0.508Y-25.908
X-0.508Y-28.702
X0.762Y-11.938
X1.27Y-7.112
X3.556Y-40.132
X4.613Y-20.025
X4.801Y-24.409
X8.699Y-23.939
X9.207Y-26.861
X9.398Y-14.986
X9.398Y-25.146
X9.652Y-16.764
X10.414Y-6.096
X12.867Y-12.025
X13.265Y-29.915
X13.617Y-15.903
X16.002Y-18.034
X17.272Y-36.322
X20.32Y-22.86
X23.368Y-12.192
X23.622Y-10.16
X25.463Y-14.923
X25.654Y1.016
X26.797Y-24.511
X27.94Y-27.686
X29.909Y-13.145
X29.972Y-17.78
X33.07Y-12.396
X33.274Y-39.624
X35.56Y-7.62
X36.513Y-16.827
X37.338Y-15.24
X40.386Y-5.334
X40.64Y2.032
X45.212Y-8.89
T2
X-1.27Y-6.99
X-1.27Y-9.53
X-1.27Y-15.875
X-1.27Y-18.415
X-1.27Y-20.955
X17.145Y-26.05
X17.145Y-28.59
X17.145Y-31.13
X23.495Y-31.115
X26.035Y-31.115
X27.305Y-3.81
X27.305Y-6.35
X27.305Y-8.89
X28.575Y-31.115
X29.845Y-3.81
X29.845Y-6.35
X29.845Y-8.89
X31.115Y-31.115
X35.56Y-33.345
X38.1Y-33.345
X40.64Y-33.345
X41.275Y-20.955
X41.275Y-23.495
X41.275Y-26.035
X41.275Y-28.575
X43.18Y-33.345
X45.72Y-33.345
T0
M30
