%TF.GenerationSoftware,KiCad,Pcbnew,(6.0.0)*%
%TF.CreationDate,2022-03-13T20:52:07-04:00*%
%TF.ProjectId,esp8266 atmosphere sensor,65737038-3236-4362-9061-746d6f737068,rev?*%
%TF.SameCoordinates,Original*%
%TF.FileFunction,Copper,L2,Bot*%
%TF.FilePolarity,Positive*%
%FSLAX46Y46*%
G04 Gerber Fmt 4.6, Leading zero omitted, Abs format (unit mm)*
G04 Created by KiCad (PCBNEW (6.0.0)) date 2022-03-13 20:52:07*
%MOMM*%
%LPD*%
G01*
G04 APERTURE LIST*
G04 Aperture macros list*
%AMRoundRect*
0 Rectangle with rounded corners*
0 $1 Rounding radius*
0 $2 $3 $4 $5 $6 $7 $8 $9 X,Y pos of 4 corners*
0 Add a 4 corners polygon primitive as box body*
4,1,4,$2,$3,$4,$5,$6,$7,$8,$9,$2,$3,0*
0 Add four circle primitives for the rounded corners*
1,1,$1+$1,$2,$3*
1,1,$1+$1,$4,$5*
1,1,$1+$1,$6,$7*
1,1,$1+$1,$8,$9*
0 Add four rect primitives between the rounded corners*
20,1,$1+$1,$2,$3,$4,$5,0*
20,1,$1+$1,$4,$5,$6,$7,0*
20,1,$1+$1,$6,$7,$8,$9,0*
20,1,$1+$1,$8,$9,$2,$3,0*%
G04 Aperture macros list end*
%TA.AperFunction,ComponentPad*%
%ADD10RoundRect,0.250000X-0.600000X-0.600000X0.600000X-0.600000X0.600000X0.600000X-0.600000X0.600000X0*%
%TD*%
%TA.AperFunction,ComponentPad*%
%ADD11C,1.700000*%
%TD*%
%TA.AperFunction,ComponentPad*%
%ADD12R,1.700000X1.700000*%
%TD*%
%TA.AperFunction,ComponentPad*%
%ADD13O,1.700000X1.700000*%
%TD*%
%TA.AperFunction,SMDPad,CuDef*%
%ADD14RoundRect,0.200000X-0.200000X-0.275000X0.200000X-0.275000X0.200000X0.275000X-0.200000X0.275000X0*%
%TD*%
%TA.AperFunction,SMDPad,CuDef*%
%ADD15RoundRect,0.200000X0.200000X0.275000X-0.200000X0.275000X-0.200000X-0.275000X0.200000X-0.275000X0*%
%TD*%
%TA.AperFunction,SMDPad,CuDef*%
%ADD16RoundRect,0.225000X-0.225000X-0.250000X0.225000X-0.250000X0.225000X0.250000X-0.225000X0.250000X0*%
%TD*%
%TA.AperFunction,SMDPad,CuDef*%
%ADD17RoundRect,0.200000X-0.275000X0.200000X-0.275000X-0.200000X0.275000X-0.200000X0.275000X0.200000X0*%
%TD*%
%TA.AperFunction,SMDPad,CuDef*%
%ADD18RoundRect,0.225000X0.225000X0.250000X-0.225000X0.250000X-0.225000X-0.250000X0.225000X-0.250000X0*%
%TD*%
%TA.AperFunction,SMDPad,CuDef*%
%ADD19RoundRect,0.250000X-2.500000X0.250000X-2.500000X-0.250000X2.500000X-0.250000X2.500000X0.250000X0*%
%TD*%
%TA.AperFunction,SMDPad,CuDef*%
%ADD20RoundRect,0.250000X-1.250000X0.550000X-1.250000X-0.550000X1.250000X-0.550000X1.250000X0.550000X0*%
%TD*%
%TA.AperFunction,SMDPad,CuDef*%
%ADD21RoundRect,0.250000X2.500000X-0.250000X2.500000X0.250000X-2.500000X0.250000X-2.500000X-0.250000X0*%
%TD*%
%TA.AperFunction,SMDPad,CuDef*%
%ADD22RoundRect,0.250000X1.250000X-0.550000X1.250000X0.550000X-1.250000X0.550000X-1.250000X-0.550000X0*%
%TD*%
%TA.AperFunction,SMDPad,CuDef*%
%ADD23RoundRect,0.200000X0.275000X-0.200000X0.275000X0.200000X-0.275000X0.200000X-0.275000X-0.200000X0*%
%TD*%
%TA.AperFunction,SMDPad,CuDef*%
%ADD24RoundRect,0.250000X-0.250000X-2.500000X0.250000X-2.500000X0.250000X2.500000X-0.250000X2.500000X0*%
%TD*%
%TA.AperFunction,SMDPad,CuDef*%
%ADD25RoundRect,0.250000X-0.550000X-1.250000X0.550000X-1.250000X0.550000X1.250000X-0.550000X1.250000X0*%
%TD*%
%TA.AperFunction,ViaPad*%
%ADD26C,0.800000*%
%TD*%
%TA.AperFunction,Conductor*%
%ADD27C,0.250000*%
%TD*%
%TA.AperFunction,Conductor*%
%ADD28C,1.000000*%
%TD*%
G04 APERTURE END LIST*
D10*
%TO.P,J1,1,Pin_1*%
%TO.N,/ESP_RST*%
X27305000Y-3810000D03*
D11*
%TO.P,J1,2,Pin_2*%
%TO.N,+5V*%
X29845000Y-3810000D03*
%TO.P,J1,3,Pin_3*%
%TO.N,/ESP_IO1*%
X27305000Y-6350000D03*
%TO.P,J1,4,Pin_4*%
%TO.N,GND*%
X29845000Y-6350000D03*
%TO.P,J1,5,Pin_5*%
%TO.N,/ESP_IO3*%
X27305000Y-8890000D03*
%TO.P,J1,6,Pin_6*%
%TO.N,/ESP_IO0*%
X29845000Y-8890000D03*
%TD*%
D12*
%TO.P,J3,1,Pin_1*%
%TO.N,GND*%
X35560000Y-33345000D03*
D13*
%TO.P,J3,2,Pin_2*%
X38100000Y-33345000D03*
%TO.P,J3,3,Pin_3*%
%TO.N,/ESP_IO4*%
X40640000Y-33345000D03*
%TO.P,J3,4,Pin_4*%
%TO.N,/ESP_IO5*%
X43180000Y-33345000D03*
%TO.P,J3,5,Pin_5*%
%TO.N,+3V3*%
X45720000Y-33345000D03*
%TD*%
D12*
%TO.P,J5,1,Pin_1*%
%TO.N,+3V3*%
X17145000Y-26050000D03*
D13*
%TO.P,J5,2,Pin_2*%
%TO.N,/ESP_IO13*%
X17145000Y-28590000D03*
%TO.P,J5,3,Pin_3*%
%TO.N,GND*%
X17145000Y-31130000D03*
%TD*%
D12*
%TO.P,J4,1,Pin_1*%
%TO.N,+3V3*%
X31115000Y-31115000D03*
D13*
%TO.P,J4,2,Pin_2*%
%TO.N,GND*%
X28575000Y-31115000D03*
%TO.P,J4,3,Pin_3*%
%TO.N,/ESP_IO5*%
X26035000Y-31115000D03*
%TO.P,J4,4,Pin_4*%
%TO.N,/ESP_IO4*%
X23495000Y-31115000D03*
%TD*%
D12*
%TO.P,J7,1,Pin_1*%
%TO.N,+3V3*%
X41275000Y-20955000D03*
D13*
%TO.P,J7,2,Pin_2*%
%TO.N,GND*%
X41275000Y-23495000D03*
%TO.P,J7,3,Pin_3*%
%TO.N,/ESP_IO5*%
X41275000Y-26035000D03*
%TO.P,J7,4,Pin_4*%
%TO.N,/ESP_IO4*%
X41275000Y-28575000D03*
%TD*%
D12*
%TO.P,J8,1,Pin_1*%
%TO.N,+3V3*%
X-1270000Y-20955000D03*
D13*
%TO.P,J8,2,Pin_2*%
%TO.N,+5V*%
X-1270000Y-18415000D03*
%TO.P,J8,3,Pin_3*%
%TO.N,GND*%
X-1270000Y-15875000D03*
%TD*%
D12*
%TO.P,J6,1,Pin_1*%
%TO.N,GND*%
X-1270000Y-9530000D03*
D13*
%TO.P,J6,2,Pin_2*%
%TO.N,/Analog_In*%
X-1270000Y-6990000D03*
%TD*%
D14*
%TO.P,R12,1*%
%TO.N,+5V*%
X7430000Y-33655000D03*
%TO.P,R12,2*%
%TO.N,Net-(J10-Pad3)*%
X9080000Y-33655000D03*
%TD*%
D15*
%TO.P,R16,1*%
%TO.N,Net-(J11-Pad3)*%
X35750000Y-36195000D03*
%TO.P,R16,2*%
%TO.N,/ESP_IO13*%
X34100000Y-36195000D03*
%TD*%
%TO.P,R19,1*%
%TO.N,Net-(J12-Pad3)*%
X34480000Y-16510000D03*
%TO.P,R19,2*%
%TO.N,/ESP_IO14*%
X32830000Y-16510000D03*
%TD*%
D16*
%TO.P,C11,1*%
%TO.N,/ESP_IO4*%
X10655000Y-15240000D03*
%TO.P,C11,2*%
%TO.N,GND*%
X12205000Y-15240000D03*
%TD*%
D15*
%TO.P,R14,1*%
%TO.N,+3V3*%
X11493000Y-25654000D03*
%TO.P,R14,2*%
%TO.N,/ESP_IO5*%
X9843000Y-25654000D03*
%TD*%
D17*
%TO.P,R17,1*%
%TO.N,+3V3*%
X20320000Y-32195000D03*
%TO.P,R17,2*%
%TO.N,/ESP_IO12*%
X20320000Y-33845000D03*
%TD*%
D14*
%TO.P,R21,1*%
%TO.N,+5V*%
X37275000Y-4445000D03*
%TO.P,R21,2*%
%TO.N,Net-(J13-Pad3)*%
X38925000Y-4445000D03*
%TD*%
D18*
%TO.P,C5,1*%
%TO.N,/ESP_IO2*%
X17285000Y-5842000D03*
%TO.P,C5,2*%
%TO.N,GND*%
X15735000Y-5842000D03*
%TD*%
D19*
%TO.P,J9,1,Pin_1*%
%TO.N,/ESP_IO2*%
X9525000Y-3175000D03*
%TO.P,J9,2,Pin_2*%
%TO.N,GND*%
X9525000Y-5175000D03*
%TO.P,J9,3,Pin_3*%
%TO.N,Net-(J9-Pad3)*%
X9525000Y-7175000D03*
D20*
%TO.P,J9,MP*%
%TO.N,GND*%
X7275000Y-775000D03*
X7275000Y-9575000D03*
%TD*%
D15*
%TO.P,R22,1*%
%TO.N,Net-(J13-Pad3)*%
X38925000Y-6350000D03*
%TO.P,R22,2*%
%TO.N,/ESP_IO2*%
X37275000Y-6350000D03*
%TD*%
D14*
%TO.P,R13,1*%
%TO.N,Net-(J10-Pad3)*%
X7430000Y-31750000D03*
%TO.P,R13,2*%
%TO.N,/ESP_IO12*%
X9080000Y-31750000D03*
%TD*%
D18*
%TO.P,C8,1*%
%TO.N,/ESP_IO13*%
X29985000Y-25685476D03*
%TO.P,C8,2*%
%TO.N,GND*%
X28435000Y-25685476D03*
%TD*%
D19*
%TO.P,J14,1,Pin_1*%
%TO.N,/ESP_IO4*%
X6215000Y-15145000D03*
%TO.P,J14,2,Pin_2*%
%TO.N,GND*%
X6215000Y-17145000D03*
%TO.P,J14,3,Pin_3*%
%TO.N,Net-(J14-Pad3)*%
X6215000Y-19145000D03*
D20*
%TO.P,J14,MP*%
%TO.N,GND*%
X3965000Y-21545000D03*
X3965000Y-12745000D03*
%TD*%
D14*
%TO.P,R4,1*%
%TO.N,+5V*%
X10605000Y-11684000D03*
%TO.P,R4,2*%
%TO.N,Net-(J9-Pad3)*%
X12255000Y-11684000D03*
%TD*%
D18*
%TO.P,C7,1*%
%TO.N,/ESP_IO12*%
X20460000Y-35560000D03*
%TO.P,C7,2*%
%TO.N,GND*%
X18910000Y-35560000D03*
%TD*%
D19*
%TO.P,J10,1,Pin_1*%
%TO.N,/ESP_IO5*%
X3040000Y-27210000D03*
%TO.P,J10,2,Pin_2*%
%TO.N,GND*%
X3040000Y-29210000D03*
%TO.P,J10,3,Pin_3*%
%TO.N,Net-(J10-Pad3)*%
X3040000Y-31210000D03*
D20*
%TO.P,J10,MP*%
%TO.N,GND*%
X790000Y-24810000D03*
X790000Y-33610000D03*
%TD*%
D14*
%TO.P,R24,1*%
%TO.N,+5V*%
X8065000Y-23622000D03*
%TO.P,R24,2*%
%TO.N,Net-(J14-Pad3)*%
X9715000Y-23622000D03*
%TD*%
%TO.P,R23,1*%
%TO.N,+3V3*%
X37410000Y-13525476D03*
%TO.P,R23,2*%
%TO.N,/ESP_IO14*%
X39060000Y-13525476D03*
%TD*%
%TO.P,R25,1*%
%TO.N,Net-(J14-Pad3)*%
X10605000Y-19050000D03*
%TO.P,R25,2*%
%TO.N,/ESP_IO5*%
X12255000Y-19050000D03*
%TD*%
D21*
%TO.P,J12,1,Pin_1*%
%TO.N,/ESP_IO13*%
X34425000Y-25495000D03*
%TO.P,J12,2,Pin_2*%
%TO.N,GND*%
X34425000Y-23495000D03*
%TO.P,J12,3,Pin_3*%
%TO.N,Net-(J12-Pad3)*%
X34425000Y-21495000D03*
D22*
%TO.P,J12,MP*%
%TO.N,GND*%
X36675000Y-19095000D03*
X36675000Y-27895000D03*
%TD*%
D23*
%TO.P,R15,1*%
%TO.N,+5V*%
X34290000Y-40195000D03*
%TO.P,R15,2*%
%TO.N,Net-(J11-Pad3)*%
X34290000Y-38545000D03*
%TD*%
D18*
%TO.P,C10,1*%
%TO.N,/ESP_IO14*%
X39010000Y-11620476D03*
%TO.P,C10,2*%
%TO.N,GND*%
X37460000Y-11620476D03*
%TD*%
D21*
%TO.P,J13,1,Pin_1*%
%TO.N,/ESP_IO14*%
X43315000Y-11525000D03*
%TO.P,J13,2,Pin_2*%
%TO.N,GND*%
X43315000Y-9525000D03*
%TO.P,J13,3,Pin_3*%
%TO.N,Net-(J13-Pad3)*%
X43315000Y-7525000D03*
D22*
%TO.P,J13,MP*%
%TO.N,GND*%
X45565000Y-13925000D03*
X45565000Y-5125000D03*
%TD*%
D15*
%TO.P,R18,1*%
%TO.N,+5V*%
X39560000Y-16510000D03*
%TO.P,R18,2*%
%TO.N,Net-(J12-Pad3)*%
X37910000Y-16510000D03*
%TD*%
D14*
%TO.P,R26,1*%
%TO.N,+3V3*%
X10605000Y-13335000D03*
%TO.P,R26,2*%
%TO.N,/ESP_IO4*%
X12255000Y-13335000D03*
%TD*%
D24*
%TO.P,J11,1,Pin_1*%
%TO.N,/ESP_IO12*%
X25305000Y-37600000D03*
%TO.P,J11,2,Pin_2*%
%TO.N,GND*%
X27305000Y-37600000D03*
%TO.P,J11,3,Pin_3*%
%TO.N,Net-(J11-Pad3)*%
X29305000Y-37600000D03*
D25*
%TO.P,J11,MP*%
%TO.N,GND*%
X22905000Y-39850000D03*
X31705000Y-39850000D03*
%TD*%
D15*
%TO.P,R20,1*%
%TO.N,+3V3*%
X30035000Y-27590476D03*
%TO.P,R20,2*%
%TO.N,/ESP_IO13*%
X28385000Y-27590476D03*
%TD*%
D17*
%TO.P,R6,1*%
%TO.N,Net-(J9-Pad3)*%
X13716000Y-7430000D03*
%TO.P,R6,2*%
%TO.N,/ESP_IO4*%
X13716000Y-9080000D03*
%TD*%
D15*
%TO.P,R7,1*%
%TO.N,+3V3*%
X17335000Y-7366000D03*
%TO.P,R7,2*%
%TO.N,/ESP_IO2*%
X15685000Y-7366000D03*
%TD*%
D16*
%TO.P,C6,1*%
%TO.N,/ESP_IO5*%
X7480000Y-27305000D03*
%TO.P,C6,2*%
%TO.N,GND*%
X9030000Y-27305000D03*
%TD*%
D26*
%TO.N,GND*%
X44704000Y-19812000D03*
X3556000Y-2794000D03*
X22860000Y-35560000D03*
X-1270000Y-27940000D03*
X1905000Y-17145000D03*
X21082000Y-39878000D03*
%TO.N,+5V*%
X8255000Y-36195000D03*
%TO.N,+3V3*%
X35560000Y-13335000D03*
X8389511Y-13200489D03*
X27305000Y-15875000D03*
X19050000Y-6096000D03*
%TO.N,/ESP_IO14*%
X31115000Y-13970000D03*
%TO.N,/ESP_IO12*%
X14605000Y-23495000D03*
%TO.N,/ESP_IO13*%
X26670000Y-27305000D03*
X17145000Y-24130000D03*
X31750000Y-36195000D03*
%TO.N,/ESP_IO2*%
X23495000Y-15875000D03*
%TO.N,/ESP_IO4*%
X19050000Y-13970000D03*
%TO.N,/ESP_IO5*%
X18415000Y-12065000D03*
X17780000Y-15240000D03*
%TD*%
D27*
%TO.N,GND*%
X15685000Y-5892000D02*
X15735000Y-5842000D01*
X5575000Y-775000D02*
X3556000Y-2794000D01*
X23729520Y-40674520D02*
X22905000Y-39850000D01*
X22877000Y-39878000D02*
X21082000Y-39878000D01*
X30880480Y-40674520D02*
X23729520Y-40674520D01*
X31705000Y-39850000D02*
X30880480Y-40674520D01*
X10192000Y-5842000D02*
X9525000Y-5175000D01*
X15735000Y-5842000D02*
X10192000Y-5842000D01*
X22905000Y-39850000D02*
X22877000Y-39878000D01*
X7275000Y-775000D02*
X5575000Y-775000D01*
%TO.N,+5V*%
X37275000Y-4445000D02*
X36640000Y-3810000D01*
D28*
X29845000Y-3810000D02*
X29845000Y-2607919D01*
X-2540000Y-34290000D02*
X-2540000Y-24130000D01*
X279511Y-3530489D02*
X279511Y-5359511D01*
X-75978Y-22860000D02*
X279511Y-22504511D01*
X34290000Y-42545000D02*
X40640000Y-42545000D01*
X3810000Y3048000D02*
X3810000Y0D01*
X47625000Y-34290000D02*
X47625000Y-16510000D01*
X279511Y-5359511D02*
X279511Y-16865489D01*
D27*
X6622493Y-22052493D02*
X8065000Y-23495000D01*
D28*
X29845000Y-2607919D02*
X23927100Y3309980D01*
D27*
X10605000Y-11430000D02*
X10605000Y-9714520D01*
X8890000Y-7999520D02*
X2919520Y-7999520D01*
X6622493Y-21590000D02*
X5072982Y-20040489D01*
D28*
X279511Y-16865489D02*
X-1270000Y-18415000D01*
X4071980Y3309980D02*
X3810000Y3048000D01*
X-1270000Y-22860000D02*
X-75978Y-22860000D01*
X279511Y-18762430D02*
X-67919Y-18415000D01*
X23927100Y3309980D02*
X4071980Y3309980D01*
X-67919Y-18415000D02*
X-1270000Y-18415000D01*
D27*
X7430000Y-36005000D02*
X7620000Y-36195000D01*
X5072982Y-20040489D02*
X914511Y-20040489D01*
D28*
X8255000Y-36195000D02*
X7620000Y-36195000D01*
X279511Y-22504511D02*
X279511Y-20675489D01*
X8255000Y-42545000D02*
X34290000Y-42545000D01*
X3810000Y0D02*
X279511Y-3530489D01*
D27*
X7430000Y-33655000D02*
X7430000Y-36005000D01*
D28*
X46355000Y-35560000D02*
X47625000Y-34290000D01*
D27*
X34290000Y-40195000D02*
X34290000Y-42545000D01*
D28*
X41275000Y-38100000D02*
X43815000Y-35560000D01*
X43815000Y-35560000D02*
X46355000Y-35560000D01*
X8255000Y-36195000D02*
X8255000Y-42545000D01*
X279511Y-20675489D02*
X279511Y-18762430D01*
D27*
X2919520Y-7999520D02*
X279511Y-5359511D01*
X36640000Y-3810000D02*
X29845000Y-3810000D01*
D28*
X-635000Y-36195000D02*
X-2540000Y-34290000D01*
D27*
X6622493Y-21590000D02*
X6622493Y-22052493D01*
D28*
X41275000Y-41910000D02*
X41275000Y-38100000D01*
D27*
X39560000Y-16510000D02*
X47625000Y-16510000D01*
D28*
X40640000Y-42545000D02*
X41275000Y-41910000D01*
D27*
X10605000Y-9714520D02*
X8890000Y-7999520D01*
D28*
X-2540000Y-24130000D02*
X-1270000Y-22860000D01*
D27*
X914511Y-20040489D02*
X279511Y-20675489D01*
D28*
X7620000Y-36195000D02*
X-635000Y-36195000D01*
D27*
%TO.N,+3V3*%
X35560000Y-13335000D02*
X35470489Y-13245489D01*
X19050000Y-7366000D02*
X17335000Y-7366000D01*
X45720000Y-21590000D02*
X45720000Y-33345000D01*
X31115000Y-28670476D02*
X30035000Y-27590476D01*
X8389511Y-13200489D02*
X10470489Y-13200489D01*
X10470489Y-13200489D02*
X10605000Y-13335000D01*
X31687027Y-22319520D02*
X27305000Y-17937493D01*
X16429511Y-29764511D02*
X15875000Y-29210000D01*
X31115000Y-31115000D02*
X31115000Y-28670476D01*
X41275000Y-20955000D02*
X45085000Y-20955000D01*
X41275000Y-20955000D02*
X39910480Y-22319520D01*
X35470489Y-13245489D02*
X29934511Y-13245489D01*
X19304000Y-7112000D02*
X19304000Y-6096000D01*
X19304000Y-7112000D02*
X19050000Y-7366000D01*
X45085000Y-20955000D02*
X45720000Y-21590000D01*
X39910480Y-22319520D02*
X31687027Y-22319520D01*
X45720000Y-33345000D02*
X43490000Y-31115000D01*
X37219524Y-13335000D02*
X37410000Y-13525476D01*
X11493000Y-25654000D02*
X11889000Y-26050000D01*
X17889511Y-29764511D02*
X16429511Y-29764511D01*
X29934511Y-13245489D02*
X27305000Y-15875000D01*
X43490000Y-31115000D02*
X31115000Y-31115000D01*
X20320000Y-32195000D02*
X17889511Y-29764511D01*
X15875000Y-29210000D02*
X15875000Y-27320000D01*
X11889000Y-26050000D02*
X17145000Y-26050000D01*
X15875000Y-27320000D02*
X17145000Y-26050000D01*
X27305000Y-17937493D02*
X27305000Y-15875000D01*
X35560000Y-13335000D02*
X37219524Y-13335000D01*
%TO.N,/ESP_IO14*%
X31115000Y-14795000D02*
X31115000Y-13970000D01*
X39010000Y-11620476D02*
X39010000Y-13475476D01*
X38260480Y-14324996D02*
X39060000Y-13525476D01*
X43315000Y-11525000D02*
X39105476Y-11525000D01*
X39105476Y-11525000D02*
X39010000Y-11620476D01*
X31115000Y-13970000D02*
X31469996Y-14324996D01*
X31469996Y-14324996D02*
X38260480Y-14324996D01*
X32830000Y-16510000D02*
X31115000Y-14795000D01*
X39010000Y-13475476D02*
X39060000Y-13525476D01*
%TO.N,/ESP_IO12*%
X11205479Y-37240479D02*
X10160000Y-36195000D01*
X10160000Y-32385000D02*
X10160000Y-36195000D01*
X20544521Y-37240479D02*
X11205479Y-37240479D01*
X20460000Y-33985000D02*
X20320000Y-33845000D01*
X10668000Y-30162000D02*
X9080000Y-31750000D01*
X24945479Y-37240479D02*
X20544521Y-37240479D01*
X9080000Y-31750000D02*
X9525000Y-31750000D01*
X14605000Y-23495000D02*
X12065000Y-23495000D01*
X10668000Y-24892000D02*
X10668000Y-30162000D01*
X9525000Y-31750000D02*
X10160000Y-32385000D01*
X20460000Y-35560000D02*
X20460000Y-37155958D01*
X20460000Y-37155958D02*
X20544521Y-37240479D01*
X12065000Y-23495000D02*
X10668000Y-24892000D01*
X25305000Y-37600000D02*
X24945479Y-37240479D01*
X20460000Y-35560000D02*
X20460000Y-33985000D01*
%TO.N,/ESP_IO13*%
X17574022Y-24130000D02*
X18415000Y-24970978D01*
X29985000Y-25990476D02*
X28385000Y-27590476D01*
X18415000Y-27320000D02*
X17145000Y-28590000D01*
X28385000Y-27590476D02*
X28099524Y-27305000D01*
X18415000Y-24970978D02*
X18415000Y-27320000D01*
X30175476Y-25495000D02*
X29985000Y-25685476D01*
X17145000Y-24130000D02*
X17574022Y-24130000D01*
X29985000Y-25685476D02*
X29985000Y-25990476D01*
X34425000Y-25495000D02*
X30175476Y-25495000D01*
X31750000Y-36195000D02*
X34100000Y-36195000D01*
X28099524Y-27305000D02*
X26670000Y-27305000D01*
%TO.N,/ESP_IO2*%
X15761000Y-7366000D02*
X17285000Y-5842000D01*
X15685000Y-7366000D02*
X15761000Y-7366000D01*
X24130000Y-10795000D02*
X23495000Y-11430000D01*
X12846247Y-4933753D02*
X11087493Y-3175000D01*
X12954974Y-5042480D02*
X12846247Y-4933753D01*
X16485480Y-5042480D02*
X12954974Y-5042480D01*
X17285000Y-5842000D02*
X16485480Y-5042480D01*
X23495000Y-15875000D02*
X15685000Y-8065000D01*
X11087493Y-3175000D02*
X9525000Y-3175000D01*
X15685000Y-8065000D02*
X15685000Y-7366000D01*
X23495000Y-11430000D02*
X23495000Y-15875000D01*
X37275000Y-6350000D02*
X32385000Y-6350000D01*
X32385000Y-6350000D02*
X32385000Y-8011010D01*
X29601010Y-10795000D02*
X24130000Y-10795000D01*
X32385000Y-8011010D02*
X29601010Y-10795000D01*
%TO.N,/ESP_IO4*%
X12255000Y-13335000D02*
X13112500Y-12477500D01*
X10655000Y-14935000D02*
X12255000Y-13335000D01*
X43216979Y-34969031D02*
X44354511Y-33831499D01*
X33874291Y-34969031D02*
X43216979Y-34969031D01*
X10655000Y-15240000D02*
X10655000Y-14935000D01*
X24447500Y-32067500D02*
X25326490Y-32067500D01*
X31739780Y-32834520D02*
X33874291Y-34969031D01*
X42235000Y-31750000D02*
X40640000Y-33345000D01*
X25326490Y-32067500D02*
X26093510Y-32834520D01*
X19050000Y-13970000D02*
X14160000Y-9080000D01*
X6215000Y-15145000D02*
X10560000Y-15145000D01*
X43489282Y-31750000D02*
X42235000Y-31750000D01*
X13970000Y-11620000D02*
X13112500Y-12477500D01*
X23495000Y-31115000D02*
X24447500Y-32067500D01*
X10560000Y-15145000D02*
X10655000Y-15240000D01*
X14160000Y-9080000D02*
X13970000Y-9080000D01*
X44354511Y-33831499D02*
X44354511Y-32615229D01*
X26093510Y-32834520D02*
X31739780Y-32834520D01*
X19050000Y-26670000D02*
X23495000Y-31115000D01*
X19050000Y-26670000D02*
X19050000Y-13970000D01*
X44354511Y-32615229D02*
X43489282Y-31750000D01*
X13970000Y-9080000D02*
X13970000Y-11620000D01*
%TO.N,/ESP_IO5*%
X3040000Y-27210000D02*
X7385000Y-27210000D01*
X27305000Y-32385000D02*
X31925978Y-32385000D01*
X12255000Y-19050000D02*
X16510000Y-19050000D01*
X42005489Y-34519511D02*
X43180000Y-33345000D01*
X10439520Y-24358480D02*
X9843000Y-24955000D01*
X12308217Y-19103217D02*
X12308217Y-22224282D01*
X9843000Y-24955000D02*
X9843000Y-25654000D01*
X10439520Y-23596480D02*
X10439520Y-24358480D01*
X7480000Y-27305000D02*
X9131000Y-25654000D01*
X17780000Y-15240000D02*
X17780000Y-17780000D01*
X12255000Y-19050000D02*
X12308217Y-19103217D01*
X34060489Y-34519511D02*
X42005489Y-34519511D01*
X12308217Y-22224282D02*
X11811718Y-22224282D01*
X16510000Y-19050000D02*
X17780000Y-17780000D01*
X18415000Y-12065000D02*
X19774511Y-13424511D01*
X19774511Y-24854511D02*
X26035000Y-31115000D01*
X19774511Y-13424511D02*
X19774511Y-24854511D01*
X7385000Y-27210000D02*
X7480000Y-27305000D01*
X26035000Y-31115000D02*
X27305000Y-32385000D01*
X31925978Y-32385000D02*
X34060489Y-34519511D01*
X11811718Y-22224282D02*
X10439520Y-23596480D01*
X9131000Y-25654000D02*
X9843000Y-25654000D01*
%TO.N,Net-(J9-Pad3)*%
X12065000Y-11240000D02*
X12065000Y-7620000D01*
X13715000Y-7175000D02*
X13970000Y-7430000D01*
X12255000Y-11430000D02*
X12065000Y-11240000D01*
X9525000Y-7175000D02*
X13715000Y-7175000D01*
%TO.N,Net-(J10-Pad3)*%
X7430000Y-32005000D02*
X7430000Y-31750000D01*
X3580000Y-31750000D02*
X3040000Y-31210000D01*
X9080000Y-33655000D02*
X7430000Y-32005000D01*
X7430000Y-31750000D02*
X3580000Y-31750000D01*
%TO.N,Net-(J11-Pad3)*%
X33345000Y-37600000D02*
X34290000Y-38545000D01*
X29305000Y-37600000D02*
X33345000Y-37600000D01*
X34290000Y-38100000D02*
X35750000Y-36640000D01*
X35750000Y-36640000D02*
X35750000Y-36195000D01*
X34290000Y-38545000D02*
X34290000Y-38100000D01*
%TO.N,Net-(J12-Pad3)*%
X37910000Y-16510000D02*
X34480000Y-16510000D01*
X34425000Y-16565000D02*
X34480000Y-16510000D01*
X34425000Y-21495000D02*
X34425000Y-16565000D01*
%TO.N,Net-(J13-Pad3)*%
X40100000Y-7525000D02*
X38925000Y-6350000D01*
X38925000Y-6350000D02*
X38925000Y-4445000D01*
X43315000Y-7525000D02*
X40100000Y-7525000D01*
%TO.N,Net-(J14-Pad3)*%
X9715000Y-23495000D02*
X10605000Y-22605000D01*
X6215000Y-19145000D02*
X10510000Y-19145000D01*
X10510000Y-19145000D02*
X10605000Y-19050000D01*
X10605000Y-22605000D02*
X10605000Y-19050000D01*
%TD*%
%TA.AperFunction,Conductor*%
%TO.N,GND*%
G36*
X19124861Y-27642507D02*
G01*
X19138164Y-27654068D01*
X22144778Y-30660682D01*
X22178804Y-30722994D01*
X22177100Y-30783448D01*
X22155989Y-30859570D01*
X22155441Y-30864700D01*
X22155440Y-30864704D01*
X22150293Y-30912866D01*
X22132251Y-31081695D01*
X22132548Y-31086848D01*
X22132548Y-31086851D01*
X22144060Y-31286500D01*
X22145110Y-31304715D01*
X22146247Y-31309761D01*
X22146248Y-31309767D01*
X22157031Y-31357614D01*
X22194222Y-31522639D01*
X22234854Y-31622704D01*
X22266769Y-31701301D01*
X22278266Y-31729616D01*
X22394987Y-31920088D01*
X22541250Y-32088938D01*
X22713126Y-32231632D01*
X22906000Y-32344338D01*
X22910825Y-32346180D01*
X22910826Y-32346181D01*
X22955345Y-32363181D01*
X23114692Y-32424030D01*
X23119760Y-32425061D01*
X23119763Y-32425062D01*
X23218214Y-32445092D01*
X23333597Y-32468567D01*
X23338772Y-32468757D01*
X23338774Y-32468757D01*
X23551673Y-32476564D01*
X23551677Y-32476564D01*
X23556837Y-32476753D01*
X23561957Y-32476097D01*
X23561959Y-32476097D01*
X23773288Y-32449025D01*
X23773289Y-32449025D01*
X23778416Y-32448368D01*
X23783367Y-32446883D01*
X23783370Y-32446882D01*
X23823959Y-32434705D01*
X23894955Y-32434289D01*
X23954860Y-32473510D01*
X23955500Y-32474518D01*
X23961281Y-32479946D01*
X23961282Y-32479948D01*
X24005167Y-32521158D01*
X24008009Y-32523913D01*
X24027730Y-32543634D01*
X24030925Y-32546112D01*
X24039947Y-32553818D01*
X24072179Y-32584086D01*
X24079128Y-32587906D01*
X24089932Y-32593846D01*
X24106456Y-32604699D01*
X24122459Y-32617113D01*
X24163043Y-32634676D01*
X24173673Y-32639883D01*
X24212440Y-32661195D01*
X24220117Y-32663166D01*
X24220122Y-32663168D01*
X24232058Y-32666232D01*
X24250766Y-32672637D01*
X24269355Y-32680681D01*
X24277180Y-32681920D01*
X24277182Y-32681921D01*
X24313019Y-32687597D01*
X24324640Y-32690004D01*
X24356720Y-32698240D01*
X24367470Y-32701000D01*
X24387731Y-32701000D01*
X24407440Y-32702551D01*
X24427443Y-32705719D01*
X24435335Y-32704973D01*
X24440562Y-32704479D01*
X24471454Y-32701559D01*
X24483311Y-32701000D01*
X25011895Y-32701000D01*
X25080016Y-32721002D01*
X25100991Y-32737905D01*
X25356302Y-32993217D01*
X25589863Y-33226778D01*
X25597397Y-33235057D01*
X25601510Y-33241538D01*
X25617551Y-33256601D01*
X25651161Y-33288163D01*
X25654003Y-33290918D01*
X25673740Y-33310655D01*
X25676937Y-33313135D01*
X25685957Y-33320838D01*
X25718189Y-33351106D01*
X25725135Y-33354925D01*
X25725138Y-33354927D01*
X25735944Y-33360868D01*
X25752463Y-33371719D01*
X25768469Y-33384134D01*
X25775738Y-33387279D01*
X25775742Y-33387282D01*
X25809047Y-33401694D01*
X25819697Y-33406911D01*
X25858450Y-33428215D01*
X25866125Y-33430186D01*
X25866126Y-33430186D01*
X25878072Y-33433253D01*
X25896777Y-33439657D01*
X25915365Y-33447701D01*
X25923188Y-33448940D01*
X25923198Y-33448943D01*
X25959034Y-33454619D01*
X25970654Y-33457025D01*
X26005799Y-33466048D01*
X26013480Y-33468020D01*
X26033734Y-33468020D01*
X26053444Y-33469571D01*
X26073453Y-33472740D01*
X26081345Y-33471994D01*
X26117471Y-33468579D01*
X26129329Y-33468020D01*
X31425186Y-33468020D01*
X31493307Y-33488022D01*
X31514281Y-33504925D01*
X33326241Y-35316885D01*
X33360267Y-35379197D01*
X33355202Y-35450012D01*
X33338913Y-35479067D01*
X33338361Y-35479619D01*
X33334426Y-35486117D01*
X33325551Y-35500771D01*
X33273154Y-35548678D01*
X33217775Y-35561500D01*
X32458200Y-35561500D01*
X32390079Y-35541498D01*
X32370853Y-35525157D01*
X32370580Y-35525460D01*
X32365668Y-35521037D01*
X32361253Y-35516134D01*
X32270244Y-35450012D01*
X32212094Y-35407763D01*
X32212093Y-35407762D01*
X32206752Y-35403882D01*
X32200724Y-35401198D01*
X32200722Y-35401197D01*
X32038319Y-35328891D01*
X32038318Y-35328891D01*
X32032288Y-35326206D01*
X31937227Y-35306000D01*
X31851944Y-35287872D01*
X31851939Y-35287872D01*
X31845487Y-35286500D01*
X31654513Y-35286500D01*
X31648061Y-35287872D01*
X31648056Y-35287872D01*
X31562773Y-35306000D01*
X31467712Y-35326206D01*
X31461682Y-35328891D01*
X31461681Y-35328891D01*
X31299278Y-35401197D01*
X31299276Y-35401198D01*
X31293248Y-35403882D01*
X31287907Y-35407762D01*
X31287906Y-35407763D01*
X31237843Y-35444136D01*
X31138747Y-35516134D01*
X31134326Y-35521044D01*
X31134325Y-35521045D01*
X31023079Y-35644597D01*
X31010960Y-35658056D01*
X30959918Y-35746463D01*
X30920926Y-35814000D01*
X30915473Y-35823444D01*
X30856458Y-36005072D01*
X30836496Y-36195000D01*
X30837186Y-36201565D01*
X30853535Y-36357113D01*
X30856458Y-36384928D01*
X30915473Y-36566556D01*
X30918776Y-36572278D01*
X30918777Y-36572279D01*
X30938811Y-36606979D01*
X31010960Y-36731944D01*
X31032793Y-36756192D01*
X31063509Y-36820198D01*
X31054744Y-36890651D01*
X31009281Y-36945182D01*
X30939155Y-36966500D01*
X30439500Y-36966500D01*
X30371379Y-36946498D01*
X30324886Y-36892842D01*
X30313500Y-36840500D01*
X30313500Y-35049600D01*
X30308735Y-35003676D01*
X30303238Y-34950692D01*
X30303237Y-34950688D01*
X30302526Y-34943834D01*
X30293795Y-34917662D01*
X30248868Y-34783002D01*
X30246550Y-34776054D01*
X30153478Y-34625652D01*
X30128493Y-34600710D01*
X30033483Y-34505866D01*
X30028303Y-34500695D01*
X30020372Y-34495806D01*
X29883968Y-34411725D01*
X29883966Y-34411724D01*
X29877738Y-34407885D01*
X29780875Y-34375757D01*
X29716389Y-34354368D01*
X29716387Y-34354368D01*
X29709861Y-34352203D01*
X29703025Y-34351503D01*
X29703022Y-34351502D01*
X29659969Y-34347091D01*
X29605400Y-34341500D01*
X29004600Y-34341500D01*
X29001354Y-34341837D01*
X29001350Y-34341837D01*
X28905692Y-34351762D01*
X28905688Y-34351763D01*
X28898834Y-34352474D01*
X28892298Y-34354655D01*
X28892296Y-34354655D01*
X28768026Y-34396115D01*
X28731054Y-34408450D01*
X28580652Y-34501522D01*
X28455695Y-34626697D01*
X28411962Y-34697646D01*
X28411961Y-34697647D01*
X28359189Y-34745140D01*
X28289117Y-34756564D01*
X28223994Y-34728290D01*
X28197557Y-34697834D01*
X28156937Y-34632193D01*
X28147901Y-34620792D01*
X28033171Y-34506261D01*
X28021760Y-34497249D01*
X27883757Y-34412184D01*
X27870576Y-34406037D01*
X27716290Y-34354862D01*
X27702914Y-34351995D01*
X27608562Y-34342328D01*
X27602145Y-34342000D01*
X27577115Y-34342000D01*
X27561876Y-34346475D01*
X27560671Y-34347865D01*
X27559000Y-34355548D01*
X27559000Y-40839884D01*
X27563475Y-40855123D01*
X27564865Y-40856328D01*
X27572548Y-40857999D01*
X27602095Y-40857999D01*
X27608614Y-40857662D01*
X27704206Y-40847743D01*
X27717600Y-40844851D01*
X27871784Y-40793412D01*
X27884962Y-40787239D01*
X28022807Y-40701937D01*
X28034208Y-40692901D01*
X28148739Y-40578171D01*
X28157751Y-40566760D01*
X28197451Y-40502354D01*
X28250223Y-40454861D01*
X28320294Y-40443437D01*
X28385418Y-40471711D01*
X28411854Y-40502166D01*
X28456522Y-40574348D01*
X28581697Y-40699305D01*
X28587927Y-40703145D01*
X28587928Y-40703146D01*
X28725288Y-40787816D01*
X28732262Y-40792115D01*
X28753858Y-40799278D01*
X28893611Y-40845632D01*
X28893613Y-40845632D01*
X28900139Y-40847797D01*
X28906975Y-40848497D01*
X28906978Y-40848498D01*
X28950031Y-40852909D01*
X29004600Y-40858500D01*
X29605400Y-40858500D01*
X29608646Y-40858163D01*
X29608650Y-40858163D01*
X29704308Y-40848238D01*
X29704312Y-40848237D01*
X29711166Y-40847526D01*
X29717702Y-40845345D01*
X29717704Y-40845345D01*
X29855782Y-40799278D01*
X29878946Y-40791550D01*
X30029348Y-40698478D01*
X30154305Y-40573303D01*
X30163741Y-40557995D01*
X30216513Y-40510502D01*
X30286585Y-40499078D01*
X30351709Y-40527352D01*
X30391208Y-40586346D01*
X30397001Y-40624111D01*
X30397001Y-41147095D01*
X30397338Y-41153614D01*
X30407257Y-41249206D01*
X30410149Y-41262600D01*
X30446188Y-41370624D01*
X30448772Y-41441574D01*
X30412588Y-41502658D01*
X30349124Y-41534482D01*
X30326664Y-41536500D01*
X24283397Y-41536500D01*
X24215276Y-41516498D01*
X24168783Y-41462842D01*
X24158679Y-41392568D01*
X24163804Y-41370832D01*
X24200138Y-41261290D01*
X24203005Y-41247914D01*
X24212672Y-41153562D01*
X24213000Y-41147146D01*
X24213000Y-40623880D01*
X24233002Y-40555759D01*
X24286658Y-40509266D01*
X24356932Y-40499162D01*
X24421512Y-40528656D01*
X24446143Y-40557575D01*
X24456522Y-40574348D01*
X24581697Y-40699305D01*
X24587927Y-40703145D01*
X24587928Y-40703146D01*
X24725288Y-40787816D01*
X24732262Y-40792115D01*
X24753858Y-40799278D01*
X24893611Y-40845632D01*
X24893613Y-40845632D01*
X24900139Y-40847797D01*
X24906975Y-40848497D01*
X24906978Y-40848498D01*
X24950031Y-40852909D01*
X25004600Y-40858500D01*
X25605400Y-40858500D01*
X25608646Y-40858163D01*
X25608650Y-40858163D01*
X25704308Y-40848238D01*
X25704312Y-40848237D01*
X25711166Y-40847526D01*
X25717702Y-40845345D01*
X25717704Y-40845345D01*
X25855782Y-40799278D01*
X25878946Y-40791550D01*
X26029348Y-40698478D01*
X26154305Y-40573303D01*
X26198040Y-40502352D01*
X26250811Y-40454860D01*
X26320883Y-40443436D01*
X26386006Y-40471710D01*
X26412443Y-40502166D01*
X26453063Y-40567807D01*
X26462099Y-40579208D01*
X26576829Y-40693739D01*
X26588240Y-40702751D01*
X26726243Y-40787816D01*
X26739424Y-40793963D01*
X26893710Y-40845138D01*
X26907086Y-40848005D01*
X27001438Y-40857672D01*
X27007854Y-40858000D01*
X27032885Y-40858000D01*
X27048124Y-40853525D01*
X27049329Y-40852135D01*
X27051000Y-40844452D01*
X27051000Y-34360116D01*
X27046525Y-34344877D01*
X27045135Y-34343672D01*
X27037452Y-34342001D01*
X27007905Y-34342001D01*
X27001386Y-34342338D01*
X26905794Y-34352257D01*
X26892400Y-34355149D01*
X26738216Y-34406588D01*
X26725038Y-34412761D01*
X26587193Y-34498063D01*
X26575792Y-34507099D01*
X26461261Y-34621829D01*
X26452249Y-34633240D01*
X26412549Y-34697646D01*
X26359777Y-34745139D01*
X26289706Y-34756563D01*
X26224582Y-34728289D01*
X26198145Y-34697833D01*
X26157332Y-34631880D01*
X26153478Y-34625652D01*
X26128493Y-34600710D01*
X26033483Y-34505866D01*
X26028303Y-34500695D01*
X26020372Y-34495806D01*
X25883968Y-34411725D01*
X25883966Y-34411724D01*
X25877738Y-34407885D01*
X25780875Y-34375757D01*
X25716389Y-34354368D01*
X25716387Y-34354368D01*
X25709861Y-34352203D01*
X25703025Y-34351503D01*
X25703022Y-34351502D01*
X25659969Y-34347091D01*
X25605400Y-34341500D01*
X25004600Y-34341500D01*
X25001354Y-34341837D01*
X25001350Y-34341837D01*
X24905692Y-34351762D01*
X24905688Y-34351763D01*
X24898834Y-34352474D01*
X24892298Y-34354655D01*
X24892296Y-34354655D01*
X24768026Y-34396115D01*
X24731054Y-34408450D01*
X24580652Y-34501522D01*
X24455695Y-34626697D01*
X24451855Y-34632927D01*
X24451854Y-34632928D01*
X24372332Y-34761937D01*
X24362885Y-34777262D01*
X24360581Y-34784209D01*
X24316205Y-34918000D01*
X24307203Y-34945139D01*
X24296500Y-35049600D01*
X24296500Y-36480979D01*
X24276498Y-36549100D01*
X24222842Y-36595593D01*
X24170500Y-36606979D01*
X21228837Y-36606979D01*
X21160716Y-36586977D01*
X21114223Y-36533321D01*
X21104119Y-36463047D01*
X21133613Y-36398467D01*
X21143737Y-36388776D01*
X21143713Y-36388752D01*
X21253209Y-36279065D01*
X21264552Y-36267702D01*
X21305320Y-36201565D01*
X21350462Y-36128331D01*
X21350463Y-36128329D01*
X21354302Y-36122101D01*
X21408149Y-35959757D01*
X21418500Y-35858732D01*
X21418500Y-35261268D01*
X21415539Y-35232725D01*
X21412509Y-35203530D01*
X21407887Y-35158981D01*
X21371394Y-35049600D01*
X21356073Y-35003676D01*
X21356072Y-35003674D01*
X21353756Y-34996732D01*
X21335166Y-34966690D01*
X21267606Y-34857515D01*
X21263752Y-34851287D01*
X21142702Y-34730448D01*
X21140330Y-34728986D01*
X21100345Y-34672588D01*
X21093500Y-34631624D01*
X21093500Y-34600710D01*
X21113502Y-34532589D01*
X21130405Y-34511615D01*
X21156639Y-34485381D01*
X21245472Y-34338699D01*
X21248541Y-34328908D01*
X21294752Y-34181446D01*
X21296753Y-34175062D01*
X21303500Y-34101635D01*
X21303499Y-33588366D01*
X21303234Y-33585474D01*
X21297364Y-33521592D01*
X21296753Y-33514938D01*
X21271927Y-33435719D01*
X21247744Y-33358550D01*
X21247743Y-33358548D01*
X21245472Y-33351301D01*
X21156639Y-33204619D01*
X21061115Y-33109095D01*
X21027089Y-33046783D01*
X21032154Y-32975968D01*
X21061115Y-32930905D01*
X21156639Y-32835381D01*
X21245472Y-32688699D01*
X21250806Y-32671680D01*
X21278963Y-32581829D01*
X21296753Y-32525062D01*
X21303500Y-32451635D01*
X21303499Y-31938366D01*
X21302179Y-31923990D01*
X21297364Y-31871592D01*
X21296753Y-31864938D01*
X21284921Y-31827183D01*
X21247744Y-31708550D01*
X21247743Y-31708548D01*
X21245472Y-31701301D01*
X21156639Y-31554619D01*
X21035381Y-31433361D01*
X20888699Y-31344528D01*
X20881452Y-31342257D01*
X20881450Y-31342256D01*
X20815164Y-31321483D01*
X20725062Y-31293247D01*
X20651635Y-31286500D01*
X20633526Y-31286500D01*
X20359594Y-31286501D01*
X20291475Y-31266499D01*
X20270500Y-31249596D01*
X19337866Y-30316961D01*
X18393163Y-29372258D01*
X18385623Y-29363972D01*
X18381511Y-29357493D01*
X18375734Y-29352068D01*
X18370680Y-29345959D01*
X18373263Y-29343822D01*
X18345066Y-29295823D01*
X18347910Y-29224884D01*
X18354330Y-29209368D01*
X18366458Y-29184829D01*
X18412430Y-29091811D01*
X18454200Y-28954329D01*
X18475865Y-28883023D01*
X18475865Y-28883021D01*
X18477370Y-28878069D01*
X18506529Y-28656590D01*
X18506611Y-28653240D01*
X18508074Y-28593365D01*
X18508074Y-28593361D01*
X18508156Y-28590000D01*
X18489852Y-28367361D01*
X18461821Y-28255765D01*
X18464625Y-28184823D01*
X18494930Y-28135974D01*
X18807247Y-27823657D01*
X18815537Y-27816113D01*
X18822018Y-27812000D01*
X18868659Y-27762332D01*
X18871413Y-27759491D01*
X18891134Y-27739770D01*
X18893612Y-27736575D01*
X18901318Y-27727553D01*
X18926158Y-27701101D01*
X18931586Y-27695321D01*
X18938653Y-27682466D01*
X18988995Y-27632406D01*
X19058411Y-27617510D01*
X19124861Y-27642507D01*
G37*
%TD.AperFunction*%
%TA.AperFunction,Conductor*%
G36*
X8299032Y-34367154D02*
G01*
X8344095Y-34396115D01*
X8439619Y-34491639D01*
X8586301Y-34580472D01*
X8593548Y-34582743D01*
X8593550Y-34582744D01*
X8633499Y-34595263D01*
X8749938Y-34631753D01*
X8823365Y-34638500D01*
X8826263Y-34638500D01*
X9080665Y-34638499D01*
X9336634Y-34638499D01*
X9339497Y-34638236D01*
X9339518Y-34638235D01*
X9388971Y-34633691D01*
X9458637Y-34647376D01*
X9509844Y-34696553D01*
X9526500Y-34759162D01*
X9526500Y-36116233D01*
X9525973Y-36127416D01*
X9524298Y-36134909D01*
X9524547Y-36142835D01*
X9524547Y-36142836D01*
X9526438Y-36202986D01*
X9526500Y-36206945D01*
X9526500Y-36234856D01*
X9526997Y-36238790D01*
X9526997Y-36238791D01*
X9527005Y-36238856D01*
X9527938Y-36250693D01*
X9529327Y-36294889D01*
X9533585Y-36309545D01*
X9534978Y-36314339D01*
X9538987Y-36333700D01*
X9541526Y-36353797D01*
X9544445Y-36361168D01*
X9544445Y-36361170D01*
X9557804Y-36394912D01*
X9561649Y-36406142D01*
X9571490Y-36440015D01*
X9573982Y-36448593D01*
X9578015Y-36455412D01*
X9578017Y-36455417D01*
X9584293Y-36466028D01*
X9592988Y-36483776D01*
X9600448Y-36502617D01*
X9605110Y-36509033D01*
X9605110Y-36509034D01*
X9626436Y-36538387D01*
X9632952Y-36548307D01*
X9647430Y-36572787D01*
X9655458Y-36586362D01*
X9669779Y-36600683D01*
X9682619Y-36615716D01*
X9694528Y-36632107D01*
X9700634Y-36637158D01*
X9728605Y-36660298D01*
X9737384Y-36668288D01*
X10701822Y-37632726D01*
X10709366Y-37641016D01*
X10713479Y-37647497D01*
X10719256Y-37652922D01*
X10763146Y-37694137D01*
X10765988Y-37696892D01*
X10785710Y-37716614D01*
X10788834Y-37719037D01*
X10788838Y-37719041D01*
X10788903Y-37719091D01*
X10797924Y-37726796D01*
X10830158Y-37757065D01*
X10837106Y-37760884D01*
X10837108Y-37760886D01*
X10847911Y-37766825D01*
X10864438Y-37777681D01*
X10874177Y-37785236D01*
X10874179Y-37785237D01*
X10880439Y-37790093D01*
X10921019Y-37807653D01*
X10931667Y-37812870D01*
X10970419Y-37834174D01*
X10978095Y-37836145D01*
X10978098Y-37836146D01*
X10990041Y-37839212D01*
X11008746Y-37845616D01*
X11027334Y-37853660D01*
X11035157Y-37854899D01*
X11035167Y-37854902D01*
X11071003Y-37860578D01*
X11082623Y-37862984D01*
X11117768Y-37872007D01*
X11125449Y-37873979D01*
X11145703Y-37873979D01*
X11165413Y-37875530D01*
X11185422Y-37878699D01*
X11193314Y-37877953D01*
X11229440Y-37874538D01*
X11241298Y-37873979D01*
X11702005Y-37873979D01*
X11770126Y-37893981D01*
X11816619Y-37947637D01*
X11827315Y-37986809D01*
X11834198Y-38052303D01*
X11834199Y-38052308D01*
X11834935Y-38059310D01*
X11837204Y-38065976D01*
X11837205Y-38065979D01*
X11885745Y-38208562D01*
X11891582Y-38225709D01*
X11895272Y-38231707D01*
X11895273Y-38231709D01*
X11979994Y-38369421D01*
X11979997Y-38369424D01*
X11983687Y-38375423D01*
X12106671Y-38501011D01*
X12254424Y-38596231D01*
X12261047Y-38598642D01*
X12261050Y-38598643D01*
X12412977Y-38653940D01*
X12412982Y-38653941D01*
X12419600Y-38656350D01*
X12555354Y-38673500D01*
X12649201Y-38673500D01*
X12779682Y-38658864D01*
X12786902Y-38656350D01*
X12853772Y-38633063D01*
X12945681Y-38601057D01*
X13094749Y-38507909D01*
X13101696Y-38501011D01*
X13164433Y-38438710D01*
X13219475Y-38384051D01*
X13224951Y-38375423D01*
X13256052Y-38326414D01*
X13313661Y-38235637D01*
X13342743Y-38153967D01*
X13370264Y-38076679D01*
X13370265Y-38076677D01*
X13372626Y-38070045D01*
X13374606Y-38053447D01*
X13382760Y-37985060D01*
X13410688Y-37919787D01*
X13469471Y-37879974D01*
X13507874Y-37873979D01*
X15702005Y-37873979D01*
X15770126Y-37893981D01*
X15816619Y-37947637D01*
X15827315Y-37986809D01*
X15834198Y-38052303D01*
X15834199Y-38052308D01*
X15834935Y-38059310D01*
X15837204Y-38065976D01*
X15837205Y-38065979D01*
X15885745Y-38208562D01*
X15891582Y-38225709D01*
X15895272Y-38231707D01*
X15895273Y-38231709D01*
X15979994Y-38369421D01*
X15979997Y-38369424D01*
X15983687Y-38375423D01*
X16106671Y-38501011D01*
X16254424Y-38596231D01*
X16261047Y-38598642D01*
X16261050Y-38598643D01*
X16412977Y-38653940D01*
X16412982Y-38653941D01*
X16419600Y-38656350D01*
X16555354Y-38673500D01*
X16649201Y-38673500D01*
X16779682Y-38658864D01*
X16786902Y-38656350D01*
X16853772Y-38633063D01*
X16945681Y-38601057D01*
X17094749Y-38507909D01*
X17101696Y-38501011D01*
X17164433Y-38438710D01*
X17219475Y-38384051D01*
X17224951Y-38375423D01*
X17256052Y-38326414D01*
X17313661Y-38235637D01*
X17342743Y-38153967D01*
X17370264Y-38076679D01*
X17370265Y-38076677D01*
X17372626Y-38070045D01*
X17374606Y-38053447D01*
X17382760Y-37985060D01*
X17410688Y-37919787D01*
X17469471Y-37879974D01*
X17507874Y-37873979D01*
X20484745Y-37873979D01*
X20504455Y-37875530D01*
X20524464Y-37878699D01*
X20532356Y-37877953D01*
X20568482Y-37874538D01*
X20580340Y-37873979D01*
X21704863Y-37873979D01*
X21772984Y-37893981D01*
X21819477Y-37947637D01*
X21829581Y-38017911D01*
X21800087Y-38082491D01*
X21794036Y-38088997D01*
X21761261Y-38121829D01*
X21752249Y-38133240D01*
X21667184Y-38271243D01*
X21661037Y-38284424D01*
X21609862Y-38438710D01*
X21606995Y-38452086D01*
X21597328Y-38546438D01*
X21597000Y-38552855D01*
X21597000Y-39577885D01*
X21601475Y-39593124D01*
X21602865Y-39594329D01*
X21610548Y-39596000D01*
X23033000Y-39596000D01*
X23101121Y-39616002D01*
X23147614Y-39669658D01*
X23159000Y-39722000D01*
X23159000Y-39978000D01*
X23138998Y-40046121D01*
X23085342Y-40092614D01*
X23033000Y-40104000D01*
X21615116Y-40104000D01*
X21599877Y-40108475D01*
X21598672Y-40109865D01*
X21597001Y-40117548D01*
X21597001Y-41147095D01*
X21597338Y-41153614D01*
X21607257Y-41249206D01*
X21610149Y-41262600D01*
X21646188Y-41370624D01*
X21648772Y-41441574D01*
X21612588Y-41502658D01*
X21549124Y-41534482D01*
X21526664Y-41536500D01*
X9389500Y-41536500D01*
X9321379Y-41516498D01*
X9274886Y-41462842D01*
X9263500Y-41410500D01*
X9263500Y-36254873D01*
X9264190Y-36241703D01*
X9267711Y-36208204D01*
X9267711Y-36208202D01*
X9268355Y-36202075D01*
X9263782Y-36151827D01*
X9263500Y-36147793D01*
X9263500Y-36145231D01*
X9259105Y-36100404D01*
X9259023Y-36099529D01*
X9257048Y-36077830D01*
X9250430Y-36005112D01*
X9249427Y-36001703D01*
X9249080Y-35998167D01*
X9221611Y-35907187D01*
X9221414Y-35906525D01*
X9194590Y-35815381D01*
X9192942Y-35812228D01*
X9191916Y-35808831D01*
X9188611Y-35802614D01*
X9147331Y-35724978D01*
X9146922Y-35724201D01*
X9127997Y-35688000D01*
X9102960Y-35640110D01*
X9100735Y-35637342D01*
X9099066Y-35634204D01*
X9039770Y-35561500D01*
X9039059Y-35560628D01*
X9038506Y-35559944D01*
X8982898Y-35490782D01*
X8982892Y-35490776D01*
X8979032Y-35485975D01*
X8976311Y-35483692D01*
X8974065Y-35480938D01*
X8900864Y-35420381D01*
X8900329Y-35419935D01*
X8848028Y-35376049D01*
X8832247Y-35362807D01*
X8832244Y-35362805D01*
X8827526Y-35358846D01*
X8824411Y-35357134D01*
X8821675Y-35354870D01*
X8738101Y-35309682D01*
X8737363Y-35309279D01*
X8698448Y-35287885D01*
X8654213Y-35263567D01*
X8650830Y-35262494D01*
X8647701Y-35260802D01*
X8556974Y-35232718D01*
X8556158Y-35232462D01*
X8471565Y-35205627D01*
X8471561Y-35205626D01*
X8465694Y-35203765D01*
X8462163Y-35203369D01*
X8458768Y-35202318D01*
X8364293Y-35192389D01*
X8363579Y-35192311D01*
X8311773Y-35186500D01*
X8309200Y-35186500D01*
X8305224Y-35186180D01*
X8268204Y-35182289D01*
X8268202Y-35182289D01*
X8262075Y-35181645D01*
X8214430Y-35185981D01*
X8203010Y-35186500D01*
X8189500Y-35186500D01*
X8121379Y-35166498D01*
X8074886Y-35112842D01*
X8063500Y-35060500D01*
X8063500Y-34550710D01*
X8083502Y-34482589D01*
X8100405Y-34461615D01*
X8165905Y-34396115D01*
X8228217Y-34362089D01*
X8299032Y-34367154D01*
G37*
%TD.AperFunction*%
%TA.AperFunction,Conductor*%
G36*
X33202557Y-38356177D02*
G01*
X33219408Y-38370314D01*
X33269595Y-38420501D01*
X33303621Y-38482813D01*
X33306500Y-38509596D01*
X33306501Y-38656350D01*
X33306501Y-38801634D01*
X33306764Y-38804492D01*
X33306764Y-38804501D01*
X33310026Y-38840004D01*
X33313247Y-38875062D01*
X33315246Y-38881440D01*
X33315246Y-38881441D01*
X33361737Y-39029792D01*
X33364528Y-39038699D01*
X33453361Y-39185381D01*
X33548885Y-39280905D01*
X33582911Y-39343217D01*
X33577846Y-39414032D01*
X33548885Y-39459095D01*
X33453361Y-39554619D01*
X33364528Y-39701301D01*
X33313247Y-39864938D01*
X33306500Y-39938365D01*
X33306501Y-40451634D01*
X33306764Y-40454492D01*
X33306764Y-40454501D01*
X33310026Y-40490004D01*
X33313247Y-40525062D01*
X33315246Y-40531440D01*
X33315246Y-40531441D01*
X33330314Y-40579521D01*
X33364528Y-40688699D01*
X33453361Y-40835381D01*
X33574619Y-40956639D01*
X33581120Y-40960576D01*
X33595771Y-40969449D01*
X33643678Y-41021846D01*
X33656500Y-41077225D01*
X33656500Y-41410500D01*
X33636498Y-41478621D01*
X33582842Y-41525114D01*
X33530500Y-41536500D01*
X33083397Y-41536500D01*
X33015276Y-41516498D01*
X32968783Y-41462842D01*
X32958679Y-41392568D01*
X32963804Y-41370832D01*
X33000138Y-41261290D01*
X33003005Y-41247914D01*
X33012672Y-41153562D01*
X33013000Y-41147146D01*
X33013000Y-40122115D01*
X33008525Y-40106876D01*
X33007135Y-40105671D01*
X32999452Y-40104000D01*
X31577000Y-40104000D01*
X31508879Y-40083998D01*
X31462386Y-40030342D01*
X31451000Y-39978000D01*
X31451000Y-39722000D01*
X31471002Y-39653879D01*
X31524658Y-39607386D01*
X31577000Y-39596000D01*
X32994884Y-39596000D01*
X33010123Y-39591525D01*
X33011328Y-39590135D01*
X33012999Y-39582452D01*
X33012999Y-38552905D01*
X33012662Y-38546388D01*
X33004986Y-38472413D01*
X33017851Y-38402592D01*
X33066421Y-38350809D01*
X33135277Y-38333507D01*
X33202557Y-38356177D01*
G37*
%TD.AperFunction*%
%TA.AperFunction,Conductor*%
G36*
X11653731Y-26644514D02*
G01*
X11653941Y-26643695D01*
X11658357Y-26644829D01*
X11673562Y-26648733D01*
X11692266Y-26655137D01*
X11696997Y-26657184D01*
X11710855Y-26663181D01*
X11718678Y-26664420D01*
X11718688Y-26664423D01*
X11754524Y-26670099D01*
X11766144Y-26672505D01*
X11801289Y-26681528D01*
X11808970Y-26683500D01*
X11829224Y-26683500D01*
X11848934Y-26685051D01*
X11868943Y-26688220D01*
X11876835Y-26687474D01*
X11912961Y-26684059D01*
X11924819Y-26683500D01*
X15311405Y-26683500D01*
X15379526Y-26703502D01*
X15426019Y-26757158D01*
X15436123Y-26827432D01*
X15406629Y-26892012D01*
X15403107Y-26895795D01*
X15401670Y-26897425D01*
X15398865Y-26900230D01*
X15396385Y-26903427D01*
X15388682Y-26912447D01*
X15358414Y-26944679D01*
X15354595Y-26951625D01*
X15354593Y-26951628D01*
X15348652Y-26962434D01*
X15337801Y-26978953D01*
X15325386Y-26994959D01*
X15322241Y-27002228D01*
X15322238Y-27002232D01*
X15307826Y-27035537D01*
X15302609Y-27046187D01*
X15281305Y-27084940D01*
X15279334Y-27092615D01*
X15279334Y-27092616D01*
X15276267Y-27104562D01*
X15269863Y-27123266D01*
X15261819Y-27141855D01*
X15260580Y-27149678D01*
X15260577Y-27149688D01*
X15254901Y-27185524D01*
X15252495Y-27197144D01*
X15250248Y-27205896D01*
X15241500Y-27239970D01*
X15241500Y-27260224D01*
X15239949Y-27279934D01*
X15236780Y-27299943D01*
X15237526Y-27307835D01*
X15240941Y-27343961D01*
X15241500Y-27355819D01*
X15241500Y-29131233D01*
X15240973Y-29142416D01*
X15239298Y-29149909D01*
X15239547Y-29157835D01*
X15239547Y-29157836D01*
X15241438Y-29217986D01*
X15241500Y-29221945D01*
X15241500Y-29249856D01*
X15241997Y-29253790D01*
X15241997Y-29253791D01*
X15242005Y-29253856D01*
X15242938Y-29265693D01*
X15244327Y-29309889D01*
X15249978Y-29329339D01*
X15253987Y-29348700D01*
X15256526Y-29368797D01*
X15259445Y-29376168D01*
X15259445Y-29376170D01*
X15272804Y-29409912D01*
X15276649Y-29421142D01*
X15288982Y-29463593D01*
X15293015Y-29470412D01*
X15293017Y-29470417D01*
X15299293Y-29481028D01*
X15307988Y-29498776D01*
X15315448Y-29517617D01*
X15320110Y-29524033D01*
X15320110Y-29524034D01*
X15341436Y-29553387D01*
X15347952Y-29563307D01*
X15370458Y-29601362D01*
X15384779Y-29615683D01*
X15397619Y-29630716D01*
X15409528Y-29647107D01*
X15441413Y-29673484D01*
X15443593Y-29675288D01*
X15452374Y-29683278D01*
X15925864Y-30156769D01*
X15933398Y-30165048D01*
X15937511Y-30171529D01*
X15980457Y-30211858D01*
X15987162Y-30218154D01*
X15990004Y-30220909D01*
X15994148Y-30225053D01*
X16028174Y-30287365D01*
X16023109Y-30358180D01*
X16009142Y-30385152D01*
X15963093Y-30452657D01*
X15958000Y-30461623D01*
X15868338Y-30654783D01*
X15864775Y-30664470D01*
X15809389Y-30864183D01*
X15810912Y-30872607D01*
X15823292Y-30876000D01*
X17273000Y-30876000D01*
X17341121Y-30896002D01*
X17387614Y-30949658D01*
X17399000Y-31002000D01*
X17399000Y-32448517D01*
X17403064Y-32462359D01*
X17416478Y-32464393D01*
X17423184Y-32463534D01*
X17433262Y-32461392D01*
X17637255Y-32400191D01*
X17646842Y-32396433D01*
X17838095Y-32302739D01*
X17846945Y-32297464D01*
X18020328Y-32173792D01*
X18028200Y-32167139D01*
X18179052Y-32016812D01*
X18185730Y-32008965D01*
X18310003Y-31836020D01*
X18315313Y-31827183D01*
X18409670Y-31636267D01*
X18413469Y-31626672D01*
X18455456Y-31488479D01*
X18494397Y-31429115D01*
X18559251Y-31400228D01*
X18629427Y-31410990D01*
X18665109Y-31436013D01*
X19299595Y-32070499D01*
X19333621Y-32132811D01*
X19336500Y-32159594D01*
X19336501Y-32312257D01*
X19336501Y-32451634D01*
X19336764Y-32454492D01*
X19336764Y-32454501D01*
X19339763Y-32487138D01*
X19343247Y-32525062D01*
X19345246Y-32531440D01*
X19345246Y-32531441D01*
X19389495Y-32672638D01*
X19394528Y-32688699D01*
X19483361Y-32835381D01*
X19578885Y-32930905D01*
X19612911Y-32993217D01*
X19607846Y-33064032D01*
X19578885Y-33109095D01*
X19483361Y-33204619D01*
X19394528Y-33351301D01*
X19343247Y-33514938D01*
X19336500Y-33588365D01*
X19336501Y-34101634D01*
X19336764Y-34104492D01*
X19336764Y-34104501D01*
X19340026Y-34140004D01*
X19343247Y-34175062D01*
X19345246Y-34181440D01*
X19345246Y-34181441D01*
X19391460Y-34328908D01*
X19394528Y-34338699D01*
X19398463Y-34345196D01*
X19398465Y-34345201D01*
X19433419Y-34402918D01*
X19451598Y-34471547D01*
X19429787Y-34539111D01*
X19374911Y-34584156D01*
X19304392Y-34592383D01*
X19297949Y-34590773D01*
X19297911Y-34590951D01*
X19277810Y-34586642D01*
X19186903Y-34577328D01*
X19181874Y-34577071D01*
X19166876Y-34581475D01*
X19165671Y-34582865D01*
X19164000Y-34590548D01*
X19164000Y-35688000D01*
X19143998Y-35756121D01*
X19090342Y-35802614D01*
X19038000Y-35814000D01*
X17970115Y-35814000D01*
X17954876Y-35818475D01*
X17953671Y-35819865D01*
X17952000Y-35827548D01*
X17952000Y-35855438D01*
X17952337Y-35861953D01*
X17961894Y-35954057D01*
X17964788Y-35967456D01*
X18014381Y-36116107D01*
X18020555Y-36129286D01*
X18102788Y-36262173D01*
X18111824Y-36273574D01*
X18227609Y-36389157D01*
X18226109Y-36390660D01*
X18261101Y-36440018D01*
X18264331Y-36510941D01*
X18228704Y-36572351D01*
X18165532Y-36604752D01*
X18141945Y-36606979D01*
X11520074Y-36606979D01*
X11451953Y-36586977D01*
X11430978Y-36570074D01*
X10830404Y-35969499D01*
X10796379Y-35907187D01*
X10793500Y-35880404D01*
X10793500Y-35287885D01*
X17952000Y-35287885D01*
X17956475Y-35303124D01*
X17957865Y-35304329D01*
X17965548Y-35306000D01*
X18637885Y-35306000D01*
X18653124Y-35301525D01*
X18654329Y-35300135D01*
X18656000Y-35292452D01*
X18656000Y-34595115D01*
X18651525Y-34579876D01*
X18650135Y-34578671D01*
X18642452Y-34577000D01*
X18639562Y-34577000D01*
X18633047Y-34577337D01*
X18540943Y-34586894D01*
X18527544Y-34589788D01*
X18378893Y-34639381D01*
X18365714Y-34645555D01*
X18232827Y-34727788D01*
X18221426Y-34736824D01*
X18111014Y-34847429D01*
X18102002Y-34858840D01*
X18019996Y-34991880D01*
X18013849Y-35005061D01*
X17964509Y-35153814D01*
X17961642Y-35167190D01*
X17952328Y-35258097D01*
X17952000Y-35264514D01*
X17952000Y-35287885D01*
X10793500Y-35287885D01*
X10793500Y-32463768D01*
X10794027Y-32452585D01*
X10795702Y-32445092D01*
X10795363Y-32434289D01*
X10793562Y-32377002D01*
X10793500Y-32373044D01*
X10793500Y-32345144D01*
X10792996Y-32341153D01*
X10792063Y-32329311D01*
X10791948Y-32325635D01*
X10790674Y-32285111D01*
X10788461Y-32277493D01*
X10785021Y-32265652D01*
X10781012Y-32246293D01*
X10780585Y-32242916D01*
X10778474Y-32226203D01*
X10775558Y-32218837D01*
X10775556Y-32218831D01*
X10762200Y-32185098D01*
X10758355Y-32173868D01*
X10748230Y-32139017D01*
X10748230Y-32139016D01*
X10746019Y-32131407D01*
X10735705Y-32113966D01*
X10727008Y-32096213D01*
X10722472Y-32084758D01*
X10719552Y-32077383D01*
X10693563Y-32041612D01*
X10687047Y-32031692D01*
X10683548Y-32025776D01*
X10664542Y-31993638D01*
X10650221Y-31979317D01*
X10637380Y-31964283D01*
X10630132Y-31954307D01*
X10625472Y-31947893D01*
X10591401Y-31919707D01*
X10582622Y-31911718D01*
X10287499Y-31616595D01*
X10253473Y-31554283D01*
X10258538Y-31483468D01*
X10287499Y-31438405D01*
X10327938Y-31397966D01*
X15813257Y-31397966D01*
X15843565Y-31532446D01*
X15846645Y-31542275D01*
X15926770Y-31739603D01*
X15931413Y-31748794D01*
X16042694Y-31930388D01*
X16048777Y-31938699D01*
X16188213Y-32099667D01*
X16195580Y-32106883D01*
X16359434Y-32242916D01*
X16367881Y-32248831D01*
X16551756Y-32356279D01*
X16561042Y-32360729D01*
X16760001Y-32436703D01*
X16769899Y-32439579D01*
X16873250Y-32460606D01*
X16887299Y-32459410D01*
X16891000Y-32449065D01*
X16891000Y-31402115D01*
X16886525Y-31386876D01*
X16885135Y-31385671D01*
X16877452Y-31384000D01*
X15828225Y-31384000D01*
X15814694Y-31387973D01*
X15813257Y-31397966D01*
X10327938Y-31397966D01*
X11060247Y-30665657D01*
X11068537Y-30658113D01*
X11075018Y-30654000D01*
X11086598Y-30641669D01*
X11121658Y-30604333D01*
X11124413Y-30601491D01*
X11144134Y-30581770D01*
X11146612Y-30578575D01*
X11154318Y-30569553D01*
X11179158Y-30543101D01*
X11184586Y-30537321D01*
X11194346Y-30519568D01*
X11205199Y-30503045D01*
X11212753Y-30493306D01*
X11217613Y-30487041D01*
X11235176Y-30446457D01*
X11240383Y-30435827D01*
X11261695Y-30397060D01*
X11263666Y-30389383D01*
X11263668Y-30389378D01*
X11266732Y-30377442D01*
X11273138Y-30358730D01*
X11278033Y-30347419D01*
X11281181Y-30340145D01*
X11282421Y-30332317D01*
X11282423Y-30332310D01*
X11288099Y-30296476D01*
X11290505Y-30284856D01*
X11299528Y-30249711D01*
X11299528Y-30249710D01*
X11301500Y-30242030D01*
X11301500Y-30221776D01*
X11303051Y-30202065D01*
X11303141Y-30201500D01*
X11306220Y-30182057D01*
X11302059Y-30138038D01*
X11301500Y-30126181D01*
X11301500Y-26763500D01*
X11321502Y-26695379D01*
X11375158Y-26648886D01*
X11427499Y-26637500D01*
X11584841Y-26637499D01*
X11616954Y-26637499D01*
X11653731Y-26644514D01*
G37*
%TD.AperFunction*%
%TA.AperFunction,Conductor*%
G36*
X1916418Y-20693991D02*
G01*
X1962911Y-20747647D01*
X1973015Y-20817921D01*
X1970896Y-20826898D01*
X1971304Y-20826985D01*
X1966995Y-20847086D01*
X1957328Y-20941438D01*
X1957000Y-20947855D01*
X1957000Y-21272885D01*
X1961475Y-21288124D01*
X1962865Y-21289329D01*
X1970548Y-21291000D01*
X4093000Y-21291000D01*
X4161121Y-21311002D01*
X4207614Y-21364658D01*
X4219000Y-21417000D01*
X4219000Y-22834884D01*
X4223475Y-22850123D01*
X4224865Y-22851328D01*
X4232548Y-22852999D01*
X5262095Y-22852999D01*
X5268614Y-22852662D01*
X5364206Y-22842743D01*
X5377600Y-22839851D01*
X5531784Y-22788412D01*
X5544962Y-22782239D01*
X5682807Y-22696937D01*
X5694208Y-22687901D01*
X5808739Y-22573171D01*
X5817751Y-22561760D01*
X5897052Y-22433109D01*
X5949824Y-22385616D01*
X6019896Y-22374192D01*
X6085019Y-22402466D01*
X6112765Y-22435087D01*
X6117951Y-22443855D01*
X6132272Y-22458176D01*
X6145112Y-22473209D01*
X6157021Y-22489600D01*
X6163125Y-22494650D01*
X6163130Y-22494655D01*
X6191091Y-22517786D01*
X6199872Y-22525776D01*
X7119596Y-23445501D01*
X7153621Y-23507813D01*
X7156500Y-23534596D01*
X7156501Y-23749000D01*
X7156501Y-23953634D01*
X7163247Y-24027062D01*
X7165246Y-24033440D01*
X7165246Y-24033441D01*
X7210470Y-24177749D01*
X7214528Y-24190699D01*
X7303361Y-24337381D01*
X7424619Y-24458639D01*
X7571301Y-24547472D01*
X7578548Y-24549743D01*
X7578550Y-24549744D01*
X7632654Y-24566699D01*
X7734938Y-24598753D01*
X7808365Y-24605500D01*
X7811263Y-24605500D01*
X8065665Y-24605499D01*
X8321634Y-24605499D01*
X8324492Y-24605236D01*
X8324501Y-24605236D01*
X8361298Y-24601855D01*
X8395062Y-24598753D01*
X8413168Y-24593079D01*
X8551450Y-24549744D01*
X8551452Y-24549743D01*
X8558699Y-24547472D01*
X8705381Y-24458639D01*
X8800905Y-24363115D01*
X8863217Y-24329089D01*
X8934032Y-24334154D01*
X8979095Y-24363115D01*
X9074619Y-24458639D01*
X9120623Y-24486500D01*
X9210089Y-24540682D01*
X9257996Y-24593079D01*
X9269969Y-24663059D01*
X9255230Y-24709163D01*
X9253467Y-24712370D01*
X9249305Y-24719940D01*
X9247334Y-24727615D01*
X9247334Y-24727616D01*
X9244267Y-24739562D01*
X9237863Y-24758266D01*
X9229819Y-24776855D01*
X9226548Y-24775439D01*
X9199993Y-24814735D01*
X9202619Y-24817361D01*
X9081361Y-24938619D01*
X9077424Y-24945120D01*
X9057866Y-24977414D01*
X9005469Y-25025321D01*
X8981421Y-25034185D01*
X8980068Y-25034532D01*
X8972203Y-25035526D01*
X8964833Y-25038444D01*
X8931098Y-25051800D01*
X8919868Y-25055645D01*
X8885358Y-25065671D01*
X8877407Y-25067981D01*
X8870584Y-25072016D01*
X8859966Y-25078295D01*
X8842213Y-25086992D01*
X8835415Y-25089684D01*
X8823383Y-25094448D01*
X8816968Y-25099109D01*
X8787612Y-25120437D01*
X8777695Y-25126951D01*
X8739638Y-25149458D01*
X8725317Y-25163779D01*
X8710284Y-25176619D01*
X8693893Y-25188528D01*
X8688842Y-25194634D01*
X8665702Y-25222605D01*
X8657712Y-25231384D01*
X7604500Y-26284595D01*
X7542188Y-26318621D01*
X7515405Y-26321500D01*
X7206268Y-26321500D01*
X7203022Y-26321837D01*
X7203018Y-26321837D01*
X7168917Y-26325375D01*
X7103981Y-26332113D01*
X7082937Y-26339134D01*
X6948676Y-26383927D01*
X6948674Y-26383928D01*
X6941732Y-26386244D01*
X6796287Y-26476248D01*
X6791114Y-26481430D01*
X6733127Y-26539518D01*
X6670844Y-26573597D01*
X6643954Y-26576500D01*
X6264899Y-26576500D01*
X6196778Y-26556498D01*
X6157755Y-26516803D01*
X6142981Y-26492928D01*
X6138478Y-26485652D01*
X6013303Y-26360695D01*
X5978325Y-26339134D01*
X5868968Y-26271725D01*
X5868966Y-26271724D01*
X5862738Y-26267885D01*
X5731999Y-26224521D01*
X5701389Y-26214368D01*
X5701387Y-26214368D01*
X5694861Y-26212203D01*
X5688025Y-26211503D01*
X5688022Y-26211502D01*
X5644969Y-26207091D01*
X5590400Y-26201500D01*
X2563737Y-26201500D01*
X2495616Y-26181498D01*
X2449123Y-26127842D01*
X2439019Y-26057568D01*
X2468513Y-25992988D01*
X2497434Y-25968356D01*
X2507807Y-25961937D01*
X2519208Y-25952901D01*
X2633739Y-25838171D01*
X2642751Y-25826760D01*
X2727816Y-25688757D01*
X2733963Y-25675576D01*
X2785138Y-25521290D01*
X2788005Y-25507914D01*
X2797672Y-25413562D01*
X2798000Y-25407146D01*
X2798000Y-25082115D01*
X2793525Y-25066876D01*
X2792135Y-25065671D01*
X2784452Y-25064000D01*
X-1199884Y-25064000D01*
X-1215123Y-25068475D01*
X-1216328Y-25069865D01*
X-1217999Y-25077548D01*
X-1217999Y-25407095D01*
X-1217662Y-25413614D01*
X-1207743Y-25509206D01*
X-1204851Y-25522600D01*
X-1153412Y-25676784D01*
X-1147239Y-25689962D01*
X-1061937Y-25827807D01*
X-1052901Y-25839208D01*
X-938171Y-25953739D01*
X-926760Y-25962751D01*
X-788757Y-26047816D01*
X-775576Y-26053963D01*
X-621290Y-26105138D01*
X-607914Y-26108005D01*
X-513562Y-26117672D01*
X-507146Y-26118000D01*
X16120Y-26118000D01*
X84241Y-26138002D01*
X130734Y-26191658D01*
X140838Y-26261932D01*
X111344Y-26326512D01*
X82425Y-26351143D01*
X65652Y-26361522D01*
X60479Y-26366704D01*
X37128Y-26390096D01*
X-59305Y-26486697D01*
X-63145Y-26492927D01*
X-63146Y-26492928D01*
X-137605Y-26613723D01*
X-152115Y-26637262D01*
X-166797Y-26681528D01*
X-186937Y-26742249D01*
X-207797Y-26805139D01*
X-208497Y-26811975D01*
X-208498Y-26811978D01*
X-210081Y-26827432D01*
X-218500Y-26909600D01*
X-218500Y-27510400D01*
X-218163Y-27513646D01*
X-218163Y-27513650D01*
X-208816Y-27603732D01*
X-207526Y-27616166D01*
X-205345Y-27622702D01*
X-205345Y-27622704D01*
X-165118Y-27743277D01*
X-151550Y-27783946D01*
X-58478Y-27934348D01*
X66697Y-28059305D01*
X137648Y-28103040D01*
X185140Y-28155811D01*
X196564Y-28225883D01*
X168290Y-28291006D01*
X137834Y-28317443D01*
X72193Y-28358063D01*
X60792Y-28367099D01*
X-53739Y-28481829D01*
X-62751Y-28493240D01*
X-147816Y-28631243D01*
X-153963Y-28644424D01*
X-205138Y-28798710D01*
X-208005Y-28812086D01*
X-217672Y-28906438D01*
X-218000Y-28912855D01*
X-218000Y-28937885D01*
X-213525Y-28953124D01*
X-212135Y-28954329D01*
X-204452Y-28956000D01*
X6279884Y-28956000D01*
X6295123Y-28951525D01*
X6296328Y-28950135D01*
X6297999Y-28942452D01*
X6297999Y-28912905D01*
X6297662Y-28906386D01*
X6287743Y-28810794D01*
X6284851Y-28797400D01*
X6233412Y-28643216D01*
X6227239Y-28630038D01*
X6141937Y-28492193D01*
X6132901Y-28480792D01*
X6018171Y-28366261D01*
X6006760Y-28357249D01*
X5942354Y-28317549D01*
X5894861Y-28264777D01*
X5883437Y-28194706D01*
X5911711Y-28129582D01*
X5942167Y-28103145D01*
X5942339Y-28103039D01*
X6014348Y-28058478D01*
X6139305Y-27933303D01*
X6157749Y-27903382D01*
X6210522Y-27855890D01*
X6265008Y-27843500D01*
X6500715Y-27843500D01*
X6568836Y-27863502D01*
X6607856Y-27903193D01*
X6676248Y-28013713D01*
X6797298Y-28134552D01*
X6803528Y-28138392D01*
X6803529Y-28138393D01*
X6935020Y-28219445D01*
X6942899Y-28224302D01*
X7105243Y-28278149D01*
X7112080Y-28278849D01*
X7112082Y-28278850D01*
X7153401Y-28283083D01*
X7206268Y-28288500D01*
X7753732Y-28288500D01*
X7756978Y-28288163D01*
X7756982Y-28288163D01*
X7791083Y-28284625D01*
X7856019Y-28277887D01*
X7922326Y-28255765D01*
X8011324Y-28226073D01*
X8011326Y-28226072D01*
X8018268Y-28223756D01*
X8044058Y-28207797D01*
X8157485Y-28137606D01*
X8163713Y-28133752D01*
X8168886Y-28128570D01*
X8174623Y-28124023D01*
X8176055Y-28125830D01*
X8228575Y-28097098D01*
X8299395Y-28102108D01*
X8335853Y-28125499D01*
X8336683Y-28124448D01*
X8353840Y-28137998D01*
X8486880Y-28220004D01*
X8500061Y-28226151D01*
X8648814Y-28275491D01*
X8662190Y-28278358D01*
X8753097Y-28287672D01*
X8758126Y-28287929D01*
X8773124Y-28283525D01*
X8774329Y-28282135D01*
X8776000Y-28274452D01*
X8776000Y-27177000D01*
X8796002Y-27108879D01*
X8849658Y-27062386D01*
X8902000Y-27051000D01*
X9158000Y-27051000D01*
X9226121Y-27071002D01*
X9272614Y-27124658D01*
X9284000Y-27177000D01*
X9284000Y-28269885D01*
X9288475Y-28285124D01*
X9289865Y-28286329D01*
X9297548Y-28288000D01*
X9300438Y-28288000D01*
X9306953Y-28287663D01*
X9399057Y-28278106D01*
X9412456Y-28275212D01*
X9561107Y-28225619D01*
X9574286Y-28219445D01*
X9707173Y-28137212D01*
X9718574Y-28128176D01*
X9819327Y-28027247D01*
X9881609Y-27993168D01*
X9952429Y-27998171D01*
X10009302Y-28040668D01*
X10034171Y-28107167D01*
X10034500Y-28116265D01*
X10034500Y-29847405D01*
X10014498Y-29915526D01*
X9997595Y-29936501D01*
X9204499Y-30729596D01*
X9142187Y-30763621D01*
X9115404Y-30766500D01*
X8841386Y-30766501D01*
X8823366Y-30766501D01*
X8820508Y-30766764D01*
X8820499Y-30766764D01*
X8784996Y-30770026D01*
X8749938Y-30773247D01*
X8743560Y-30775246D01*
X8743559Y-30775246D01*
X8593550Y-30822256D01*
X8593548Y-30822257D01*
X8586301Y-30824528D01*
X8439619Y-30913361D01*
X8344095Y-31008885D01*
X8281783Y-31042911D01*
X8210968Y-31037846D01*
X8165905Y-31008885D01*
X8070381Y-30913361D01*
X7923699Y-30824528D01*
X7916452Y-30822257D01*
X7916450Y-30822256D01*
X7836802Y-30797296D01*
X7760062Y-30773247D01*
X7686635Y-30766500D01*
X7683737Y-30766500D01*
X7429335Y-30766501D01*
X7173366Y-30766501D01*
X7170508Y-30766764D01*
X7170499Y-30766764D01*
X7134996Y-30770026D01*
X7099938Y-30773247D01*
X7093560Y-30775246D01*
X7093559Y-30775246D01*
X6943550Y-30822256D01*
X6943548Y-30822257D01*
X6936301Y-30824528D01*
X6789619Y-30913361D01*
X6668361Y-31034619D01*
X6664424Y-31041120D01*
X6655551Y-31055771D01*
X6603154Y-31103678D01*
X6547775Y-31116500D01*
X6424500Y-31116500D01*
X6356379Y-31096498D01*
X6309886Y-31042842D01*
X6298500Y-30990500D01*
X6298500Y-30909600D01*
X6297089Y-30896002D01*
X6288238Y-30810692D01*
X6288237Y-30810688D01*
X6287526Y-30803834D01*
X6277322Y-30773247D01*
X6238761Y-30657668D01*
X6231550Y-30636054D01*
X6138478Y-30485652D01*
X6013303Y-30360695D01*
X5942352Y-30316960D01*
X5894860Y-30264189D01*
X5883436Y-30194117D01*
X5911710Y-30128994D01*
X5942166Y-30102557D01*
X6007807Y-30061937D01*
X6019208Y-30052901D01*
X6133739Y-29938171D01*
X6142751Y-29926760D01*
X6227816Y-29788757D01*
X6233963Y-29775576D01*
X6285138Y-29621290D01*
X6288005Y-29607914D01*
X6297672Y-29513562D01*
X6298000Y-29507146D01*
X6298000Y-29482115D01*
X6293525Y-29466876D01*
X6292135Y-29465671D01*
X6284452Y-29464000D01*
X-199884Y-29464000D01*
X-215123Y-29468475D01*
X-216328Y-29469865D01*
X-217999Y-29477548D01*
X-217999Y-29507095D01*
X-217662Y-29513614D01*
X-207743Y-29609206D01*
X-204851Y-29622600D01*
X-153412Y-29776784D01*
X-147239Y-29789962D01*
X-61937Y-29927807D01*
X-52901Y-29939208D01*
X61829Y-30053739D01*
X73240Y-30062751D01*
X137646Y-30102451D01*
X185139Y-30155223D01*
X196563Y-30225294D01*
X168289Y-30290418D01*
X137834Y-30316854D01*
X65652Y-30361522D01*
X60479Y-30366704D01*
X30176Y-30397060D01*
X-59305Y-30486697D01*
X-63145Y-30492927D01*
X-63146Y-30492928D01*
X-130065Y-30601491D01*
X-152115Y-30637262D01*
X-157667Y-30654000D01*
X-200603Y-30783451D01*
X-207797Y-30805139D01*
X-218500Y-30909600D01*
X-218500Y-31510400D01*
X-218163Y-31513646D01*
X-218163Y-31513650D01*
X-209151Y-31600500D01*
X-207526Y-31616166D01*
X-151550Y-31783946D01*
X-58478Y-31934348D01*
X66697Y-32059305D01*
X72927Y-32063145D01*
X72928Y-32063146D01*
X82005Y-32068741D01*
X129498Y-32121513D01*
X140922Y-32191585D01*
X112648Y-32256709D01*
X53654Y-32296208D01*
X15889Y-32302001D01*
X-507095Y-32302001D01*
X-513614Y-32302338D01*
X-609206Y-32312257D01*
X-622600Y-32315149D01*
X-776784Y-32366588D01*
X-789962Y-32372761D01*
X-927807Y-32458063D01*
X-939208Y-32467099D01*
X-1053739Y-32581829D01*
X-1062751Y-32593240D01*
X-1147816Y-32731243D01*
X-1153963Y-32744424D01*
X-1205138Y-32898710D01*
X-1208005Y-32912086D01*
X-1217672Y-33006438D01*
X-1218000Y-33012855D01*
X-1218000Y-33337885D01*
X-1213525Y-33353124D01*
X-1212135Y-33354329D01*
X-1204452Y-33356000D01*
X2779884Y-33356000D01*
X2795123Y-33351525D01*
X2796328Y-33350135D01*
X2797999Y-33342452D01*
X2797999Y-33012905D01*
X2797662Y-33006386D01*
X2787743Y-32910794D01*
X2784851Y-32897400D01*
X2733412Y-32743216D01*
X2727239Y-32730038D01*
X2641937Y-32592193D01*
X2632901Y-32580792D01*
X2518171Y-32466261D01*
X2506760Y-32457249D01*
X2497855Y-32451760D01*
X2450362Y-32398988D01*
X2438938Y-32328916D01*
X2467212Y-32263792D01*
X2526206Y-32224293D01*
X2563971Y-32218500D01*
X3103586Y-32218500D01*
X3171707Y-32238502D01*
X3189839Y-32252650D01*
X3204679Y-32266586D01*
X3211628Y-32270406D01*
X3222432Y-32276346D01*
X3238956Y-32287199D01*
X3254959Y-32299613D01*
X3295543Y-32317176D01*
X3306173Y-32322383D01*
X3344940Y-32343695D01*
X3352617Y-32345666D01*
X3352622Y-32345668D01*
X3364558Y-32348732D01*
X3383266Y-32355137D01*
X3401855Y-32363181D01*
X3409683Y-32364421D01*
X3409690Y-32364423D01*
X3445524Y-32370099D01*
X3457144Y-32372505D01*
X3492289Y-32381528D01*
X3499970Y-32383500D01*
X3520224Y-32383500D01*
X3539934Y-32385051D01*
X3559943Y-32388220D01*
X3567835Y-32387474D01*
X3603961Y-32384059D01*
X3615819Y-32383500D01*
X6547775Y-32383500D01*
X6615896Y-32403502D01*
X6655551Y-32444229D01*
X6668361Y-32465381D01*
X6789619Y-32586639D01*
X6796121Y-32590576D01*
X6796120Y-32590576D01*
X6802969Y-32594724D01*
X6850876Y-32647121D01*
X6862849Y-32717101D01*
X6835088Y-32782445D01*
X6802969Y-32810276D01*
X6789619Y-32818361D01*
X6668361Y-32939619D01*
X6579528Y-33086301D01*
X6528247Y-33249938D01*
X6521500Y-33323365D01*
X6521501Y-33986634D01*
X6528247Y-34060062D01*
X6530246Y-34066440D01*
X6530246Y-34066441D01*
X6574341Y-34207146D01*
X6579528Y-34223699D01*
X6668361Y-34370381D01*
X6759595Y-34461615D01*
X6793621Y-34523927D01*
X6796500Y-34550710D01*
X6796500Y-35060500D01*
X6776498Y-35128621D01*
X6722842Y-35175114D01*
X6670500Y-35186500D01*
X-165076Y-35186500D01*
X-233197Y-35166498D01*
X-254171Y-35149595D01*
X-270671Y-35133095D01*
X-304697Y-35070783D01*
X-299632Y-34999968D01*
X-257085Y-34943132D01*
X-190565Y-34918321D01*
X-181576Y-34918000D01*
X517885Y-34918000D01*
X533124Y-34913525D01*
X534329Y-34912135D01*
X536000Y-34904452D01*
X536000Y-34899884D01*
X1044000Y-34899884D01*
X1048475Y-34915123D01*
X1049865Y-34916328D01*
X1057548Y-34917999D01*
X2087095Y-34917999D01*
X2093614Y-34917662D01*
X2189206Y-34907743D01*
X2202600Y-34904851D01*
X2356784Y-34853412D01*
X2369962Y-34847239D01*
X2507807Y-34761937D01*
X2519208Y-34752901D01*
X2633739Y-34638171D01*
X2642751Y-34626760D01*
X2727816Y-34488757D01*
X2733963Y-34475576D01*
X2785138Y-34321290D01*
X2788005Y-34307914D01*
X2797672Y-34213562D01*
X2798000Y-34207146D01*
X2798000Y-33882115D01*
X2793525Y-33866876D01*
X2792135Y-33865671D01*
X2784452Y-33864000D01*
X1062115Y-33864000D01*
X1046876Y-33868475D01*
X1045671Y-33869865D01*
X1044000Y-33877548D01*
X1044000Y-34899884D01*
X536000Y-34899884D01*
X536000Y-33882115D01*
X531525Y-33866876D01*
X530135Y-33865671D01*
X522452Y-33864000D01*
X-1199884Y-33864000D01*
X-1215123Y-33868475D01*
X-1216328Y-33869865D01*
X-1217999Y-33877548D01*
X-1217999Y-33881577D01*
X-1238001Y-33949698D01*
X-1291657Y-33996191D01*
X-1361931Y-34006295D01*
X-1426511Y-33976801D01*
X-1433094Y-33970672D01*
X-1494595Y-33909171D01*
X-1528621Y-33846859D01*
X-1531500Y-33820076D01*
X-1531500Y-24599925D01*
X-1511498Y-24531804D01*
X-1494595Y-24510830D01*
X-1433095Y-24449330D01*
X-1370783Y-24415304D01*
X-1299968Y-24420369D01*
X-1243132Y-24462916D01*
X-1218321Y-24529436D01*
X-1218022Y-24537810D01*
X-1213525Y-24553124D01*
X-1212135Y-24554329D01*
X-1204452Y-24556000D01*
X2779884Y-24556000D01*
X2795123Y-24551525D01*
X2796328Y-24550135D01*
X2797999Y-24542452D01*
X2797999Y-24212905D01*
X2797662Y-24206386D01*
X2787743Y-24110794D01*
X2784851Y-24097400D01*
X2733412Y-23943216D01*
X2727239Y-23930038D01*
X2641937Y-23792193D01*
X2632901Y-23780792D01*
X2518171Y-23666261D01*
X2506760Y-23657249D01*
X2368757Y-23572184D01*
X2355576Y-23566037D01*
X2201290Y-23514862D01*
X2187914Y-23511995D01*
X2093562Y-23502328D01*
X2087146Y-23502000D01*
X1012446Y-23502001D01*
X944325Y-23481999D01*
X897832Y-23428343D01*
X887728Y-23358069D01*
X917221Y-23293489D01*
X923351Y-23286906D01*
X948898Y-23261359D01*
X959028Y-23252269D01*
X988536Y-23228543D01*
X1020831Y-23190055D01*
X1023989Y-23186436D01*
X1025635Y-23184621D01*
X1027820Y-23182436D01*
X1029775Y-23180056D01*
X1029784Y-23180046D01*
X1055060Y-23149275D01*
X1055902Y-23148260D01*
X1103089Y-23092024D01*
X1115665Y-23077037D01*
X1118234Y-23072363D01*
X1121613Y-23068250D01*
X1125568Y-23060875D01*
X1165466Y-22986464D01*
X1166095Y-22985304D01*
X1207975Y-22909125D01*
X1207976Y-22909123D01*
X1210944Y-22903724D01*
X1212556Y-22898642D01*
X1215073Y-22893948D01*
X1242273Y-22804980D01*
X1242619Y-22803869D01*
X1242982Y-22802727D01*
X1270746Y-22715205D01*
X1271340Y-22709909D01*
X1272898Y-22704813D01*
X1282301Y-22612254D01*
X1282422Y-22611118D01*
X1286192Y-22577503D01*
X1287619Y-22564781D01*
X1287619Y-22564777D01*
X1288011Y-22561284D01*
X1288011Y-22557757D01*
X1288066Y-22556772D01*
X1288513Y-22551092D01*
X1291896Y-22517786D01*
X1292263Y-22514174D01*
X1292263Y-22514172D01*
X1292885Y-22508049D01*
X1288570Y-22462402D01*
X1288011Y-22450544D01*
X1288011Y-22142095D01*
X1957001Y-22142095D01*
X1957338Y-22148614D01*
X1967257Y-22244206D01*
X1970149Y-22257600D01*
X2021588Y-22411784D01*
X2027761Y-22424962D01*
X2113063Y-22562807D01*
X2122099Y-22574208D01*
X2236829Y-22688739D01*
X2248240Y-22697751D01*
X2386243Y-22782816D01*
X2399424Y-22788963D01*
X2553710Y-22840138D01*
X2567086Y-22843005D01*
X2661438Y-22852672D01*
X2667854Y-22853000D01*
X3692885Y-22853000D01*
X3708124Y-22848525D01*
X3709329Y-22847135D01*
X3711000Y-22839452D01*
X3711000Y-21817115D01*
X3706525Y-21801876D01*
X3705135Y-21800671D01*
X3697452Y-21799000D01*
X1975116Y-21799000D01*
X1959877Y-21803475D01*
X1958672Y-21804865D01*
X1957001Y-21812548D01*
X1957001Y-22142095D01*
X1288011Y-22142095D01*
X1288011Y-20799989D01*
X1308013Y-20731868D01*
X1361669Y-20685375D01*
X1414011Y-20673989D01*
X1848297Y-20673989D01*
X1916418Y-20693991D01*
G37*
%TD.AperFunction*%
%TA.AperFunction,Conductor*%
G36*
X34629009Y-31768502D02*
G01*
X34675502Y-31822158D01*
X34685606Y-31892432D01*
X34656112Y-31957012D01*
X34599004Y-31991643D01*
X34599793Y-31993748D01*
X34471946Y-32041676D01*
X34456351Y-32050214D01*
X34354276Y-32126715D01*
X34341715Y-32139276D01*
X34265214Y-32241351D01*
X34256676Y-32256946D01*
X34211522Y-32377394D01*
X34207895Y-32392649D01*
X34202369Y-32443514D01*
X34202000Y-32450328D01*
X34202000Y-33072885D01*
X34206475Y-33088124D01*
X34207865Y-33089329D01*
X34215548Y-33091000D01*
X38228000Y-33091000D01*
X38296121Y-33111002D01*
X38342614Y-33164658D01*
X38354000Y-33217000D01*
X38354000Y-33473000D01*
X38333998Y-33541121D01*
X38280342Y-33587614D01*
X38228000Y-33599000D01*
X34220116Y-33599000D01*
X34186930Y-33608744D01*
X34157395Y-33627724D01*
X34086399Y-33627722D01*
X34032805Y-33595922D01*
X32510405Y-32073522D01*
X32476379Y-32011210D01*
X32473500Y-31984427D01*
X32473500Y-31874500D01*
X32493502Y-31806379D01*
X32547158Y-31759886D01*
X32599500Y-31748500D01*
X34560888Y-31748500D01*
X34629009Y-31768502D01*
G37*
%TD.AperFunction*%
%TA.AperFunction,Conductor*%
G36*
X37095896Y-17163502D02*
G01*
X37135551Y-17204229D01*
X37148361Y-17225381D01*
X37269619Y-17346639D01*
X37416301Y-17435472D01*
X37423548Y-17437743D01*
X37423550Y-17437744D01*
X37458071Y-17448562D01*
X37579938Y-17486753D01*
X37653365Y-17493500D01*
X37656263Y-17493500D01*
X37910665Y-17493499D01*
X38166634Y-17493499D01*
X38169492Y-17493236D01*
X38169501Y-17493236D01*
X38205004Y-17489974D01*
X38240062Y-17486753D01*
X38246447Y-17484752D01*
X38396450Y-17437744D01*
X38396452Y-17437743D01*
X38403699Y-17435472D01*
X38550381Y-17346639D01*
X38645905Y-17251115D01*
X38708217Y-17217089D01*
X38779032Y-17222154D01*
X38824095Y-17251115D01*
X38919619Y-17346639D01*
X39066301Y-17435472D01*
X39073548Y-17437743D01*
X39073550Y-17437744D01*
X39108071Y-17448562D01*
X39229938Y-17486753D01*
X39303365Y-17493500D01*
X39306263Y-17493500D01*
X39560665Y-17493499D01*
X39816634Y-17493499D01*
X39819492Y-17493236D01*
X39819501Y-17493236D01*
X39855004Y-17489974D01*
X39890062Y-17486753D01*
X39896447Y-17484752D01*
X40046450Y-17437744D01*
X40046452Y-17437743D01*
X40053699Y-17435472D01*
X40200381Y-17346639D01*
X40321639Y-17225381D01*
X40334449Y-17204229D01*
X40386846Y-17156322D01*
X40442225Y-17143500D01*
X46490500Y-17143500D01*
X46558621Y-17163502D01*
X46605114Y-17217158D01*
X46616500Y-17269500D01*
X46616500Y-32074585D01*
X46596498Y-32142706D01*
X46542842Y-32189199D01*
X46472568Y-32199303D01*
X46429609Y-32184895D01*
X46419979Y-32179579D01*
X46418608Y-32178822D01*
X46368637Y-32128391D01*
X46353500Y-32068513D01*
X46353500Y-21668768D01*
X46354027Y-21657585D01*
X46355702Y-21650092D01*
X46353562Y-21582001D01*
X46353500Y-21578044D01*
X46353500Y-21550144D01*
X46352996Y-21546153D01*
X46352063Y-21534311D01*
X46352063Y-21534292D01*
X46350674Y-21490111D01*
X46348461Y-21482493D01*
X46345021Y-21470652D01*
X46341012Y-21451293D01*
X46340846Y-21449983D01*
X46338474Y-21431203D01*
X46335558Y-21423837D01*
X46335556Y-21423831D01*
X46322200Y-21390098D01*
X46318355Y-21378868D01*
X46308230Y-21344017D01*
X46308228Y-21344012D01*
X46306019Y-21336407D01*
X46295705Y-21318966D01*
X46287008Y-21301213D01*
X46282472Y-21289758D01*
X46279552Y-21282383D01*
X46253563Y-21246612D01*
X46247047Y-21236692D01*
X46228578Y-21205463D01*
X46224542Y-21198638D01*
X46210221Y-21184317D01*
X46197380Y-21169283D01*
X46190132Y-21159307D01*
X46185472Y-21152893D01*
X46151407Y-21124712D01*
X46142626Y-21116722D01*
X45588647Y-20562742D01*
X45581113Y-20554463D01*
X45577000Y-20547982D01*
X45527348Y-20501356D01*
X45524507Y-20498602D01*
X45504770Y-20478865D01*
X45501573Y-20476385D01*
X45492551Y-20468680D01*
X45466100Y-20443841D01*
X45460321Y-20438414D01*
X45453375Y-20434595D01*
X45453372Y-20434593D01*
X45442566Y-20428652D01*
X45426047Y-20417801D01*
X45425583Y-20417441D01*
X45410041Y-20405386D01*
X45402772Y-20402241D01*
X45402768Y-20402238D01*
X45369463Y-20387826D01*
X45358813Y-20382609D01*
X45320060Y-20361305D01*
X45300437Y-20356267D01*
X45281734Y-20349863D01*
X45270420Y-20344967D01*
X45270419Y-20344967D01*
X45263145Y-20341819D01*
X45255322Y-20340580D01*
X45255312Y-20340577D01*
X45219476Y-20334901D01*
X45207856Y-20332495D01*
X45172711Y-20323472D01*
X45172710Y-20323472D01*
X45165030Y-20321500D01*
X45144776Y-20321500D01*
X45125065Y-20319949D01*
X45112886Y-20318020D01*
X45105057Y-20316780D01*
X45097165Y-20317526D01*
X45061039Y-20320941D01*
X45049181Y-20321500D01*
X42759500Y-20321500D01*
X42691379Y-20301498D01*
X42644886Y-20247842D01*
X42633500Y-20195500D01*
X42633500Y-20056866D01*
X42626745Y-19994684D01*
X42575615Y-19858295D01*
X42488261Y-19741739D01*
X42371705Y-19654385D01*
X42235316Y-19603255D01*
X42173134Y-19596500D01*
X40376866Y-19596500D01*
X40314684Y-19603255D01*
X40178295Y-19654385D01*
X40061739Y-19741739D01*
X39974385Y-19858295D01*
X39923255Y-19994684D01*
X39916500Y-20056866D01*
X39916500Y-21365405D01*
X39896498Y-21433526D01*
X39879595Y-21454500D01*
X39684980Y-21649115D01*
X39622668Y-21683141D01*
X39595885Y-21686020D01*
X37809500Y-21686020D01*
X37741379Y-21666018D01*
X37694886Y-21612362D01*
X37683500Y-21560020D01*
X37683500Y-21194600D01*
X37682433Y-21184313D01*
X37673238Y-21095692D01*
X37673237Y-21095688D01*
X37672526Y-21088834D01*
X37616550Y-20921054D01*
X37523478Y-20770652D01*
X37398303Y-20645695D01*
X37382995Y-20636259D01*
X37335502Y-20583487D01*
X37324078Y-20513415D01*
X37352352Y-20448291D01*
X37411346Y-20408792D01*
X37449111Y-20402999D01*
X37972095Y-20402999D01*
X37978614Y-20402662D01*
X38074206Y-20392743D01*
X38087600Y-20389851D01*
X38241784Y-20338412D01*
X38254962Y-20332239D01*
X38392807Y-20246937D01*
X38404208Y-20237901D01*
X38518739Y-20123171D01*
X38527751Y-20111760D01*
X38612816Y-19973757D01*
X38618963Y-19960576D01*
X38670138Y-19806290D01*
X38673005Y-19792914D01*
X38682672Y-19698562D01*
X38683000Y-19692146D01*
X38683000Y-19367115D01*
X38678525Y-19351876D01*
X38677135Y-19350671D01*
X38669452Y-19349000D01*
X36547000Y-19349000D01*
X36478879Y-19328998D01*
X36432386Y-19275342D01*
X36421000Y-19223000D01*
X36421000Y-18822885D01*
X36929000Y-18822885D01*
X36933475Y-18838124D01*
X36934865Y-18839329D01*
X36942548Y-18841000D01*
X38664884Y-18841000D01*
X38680123Y-18836525D01*
X38681328Y-18835135D01*
X38682999Y-18827452D01*
X38682999Y-18497905D01*
X38682662Y-18491386D01*
X38672743Y-18395794D01*
X38669851Y-18382400D01*
X38618412Y-18228216D01*
X38612239Y-18215038D01*
X38526937Y-18077193D01*
X38517901Y-18065792D01*
X38403171Y-17951261D01*
X38391760Y-17942249D01*
X38253757Y-17857184D01*
X38240576Y-17851037D01*
X38086290Y-17799862D01*
X38072914Y-17796995D01*
X37978562Y-17787328D01*
X37972145Y-17787000D01*
X36947115Y-17787000D01*
X36931876Y-17791475D01*
X36930671Y-17792865D01*
X36929000Y-17800548D01*
X36929000Y-18822885D01*
X36421000Y-18822885D01*
X36421000Y-17805116D01*
X36416525Y-17789877D01*
X36415135Y-17788672D01*
X36407452Y-17787001D01*
X35377905Y-17787001D01*
X35371386Y-17787338D01*
X35275794Y-17797257D01*
X35262395Y-17800150D01*
X35224377Y-17812834D01*
X35153427Y-17815420D01*
X35092343Y-17779236D01*
X35060518Y-17715772D01*
X35058500Y-17693311D01*
X35058500Y-17455113D01*
X35078502Y-17386992D01*
X35109280Y-17357017D01*
X35107904Y-17355262D01*
X35113880Y-17350576D01*
X35120381Y-17346639D01*
X35241639Y-17225381D01*
X35254449Y-17204229D01*
X35306846Y-17156322D01*
X35362225Y-17143500D01*
X37027775Y-17143500D01*
X37095896Y-17163502D01*
G37*
%TD.AperFunction*%
%TA.AperFunction,Conductor*%
G36*
X45055057Y3300500D02*
G01*
X45069858Y3298195D01*
X45069861Y3298195D01*
X45078730Y3296814D01*
X45097411Y3299257D01*
X45120342Y3300148D01*
X45423557Y3284257D01*
X45436665Y3282880D01*
X45654984Y3248302D01*
X45765002Y3230877D01*
X45777902Y3228135D01*
X46099000Y3142097D01*
X46111536Y3138023D01*
X46352810Y3045407D01*
X46421876Y3018895D01*
X46433924Y3013531D01*
X46730120Y2862612D01*
X46741536Y2856021D01*
X47020334Y2674967D01*
X47030996Y2667221D01*
X47289344Y2458016D01*
X47299145Y2449190D01*
X47534190Y2214145D01*
X47543015Y2204345D01*
X47685787Y2028036D01*
X47752221Y1945996D01*
X47759967Y1935334D01*
X47941018Y1656541D01*
X47947612Y1645120D01*
X48098531Y1348924D01*
X48103895Y1336876D01*
X48223021Y1026544D01*
X48227097Y1014000D01*
X48313135Y692902D01*
X48315877Y680002D01*
X48356760Y421876D01*
X48367879Y351671D01*
X48369257Y338557D01*
X48384484Y48022D01*
X48384764Y42670D01*
X48383436Y16688D01*
X48383195Y15144D01*
X48383195Y15140D01*
X48381814Y6270D01*
X48382978Y-2632D01*
X48382978Y-2635D01*
X48385936Y-25251D01*
X48387000Y-41589D01*
X48387000Y-15565372D01*
X48366998Y-15633493D01*
X48313342Y-15679986D01*
X48243068Y-15690090D01*
X48192574Y-15670614D01*
X48191675Y-15669870D01*
X48017701Y-15575802D01*
X47828768Y-15517318D01*
X47822643Y-15516674D01*
X47822642Y-15516674D01*
X47638204Y-15497289D01*
X47638202Y-15497289D01*
X47632075Y-15496645D01*
X47549576Y-15504153D01*
X47441251Y-15514011D01*
X47441248Y-15514012D01*
X47435112Y-15514570D01*
X47429206Y-15516308D01*
X47429202Y-15516309D01*
X47364853Y-15535248D01*
X47245381Y-15570410D01*
X47239923Y-15573263D01*
X47239919Y-15573265D01*
X47166676Y-15611556D01*
X47070110Y-15662040D01*
X46915975Y-15785968D01*
X46877776Y-15831492D01*
X46818667Y-15870818D01*
X46781255Y-15876500D01*
X40442225Y-15876500D01*
X40374104Y-15856498D01*
X40334449Y-15815771D01*
X40325576Y-15801120D01*
X40321639Y-15794619D01*
X40200381Y-15673361D01*
X40053699Y-15584528D01*
X40046452Y-15582257D01*
X40046450Y-15582256D01*
X39947241Y-15551166D01*
X39890062Y-15533247D01*
X39816635Y-15526500D01*
X39813737Y-15526500D01*
X39559335Y-15526501D01*
X39303366Y-15526501D01*
X39300508Y-15526764D01*
X39300499Y-15526764D01*
X39264996Y-15530026D01*
X39229938Y-15533247D01*
X39223560Y-15535246D01*
X39223559Y-15535246D01*
X39073550Y-15582256D01*
X39073548Y-15582257D01*
X39066301Y-15584528D01*
X38919619Y-15673361D01*
X38824095Y-15768885D01*
X38761783Y-15802911D01*
X38690968Y-15797846D01*
X38645905Y-15768885D01*
X38550381Y-15673361D01*
X38403699Y-15584528D01*
X38396452Y-15582257D01*
X38396450Y-15582256D01*
X38297241Y-15551166D01*
X38240062Y-15533247D01*
X38166635Y-15526500D01*
X38163737Y-15526500D01*
X37909335Y-15526501D01*
X37653366Y-15526501D01*
X37650508Y-15526764D01*
X37650499Y-15526764D01*
X37614996Y-15530026D01*
X37579938Y-15533247D01*
X37573560Y-15535246D01*
X37573559Y-15535246D01*
X37423550Y-15582256D01*
X37423548Y-15582257D01*
X37416301Y-15584528D01*
X37269619Y-15673361D01*
X37148361Y-15794619D01*
X37144424Y-15801120D01*
X37135551Y-15815771D01*
X37083154Y-15863678D01*
X37027775Y-15876500D01*
X35362225Y-15876500D01*
X35294104Y-15856498D01*
X35254449Y-15815771D01*
X35245576Y-15801120D01*
X35241639Y-15794619D01*
X35120381Y-15673361D01*
X34973699Y-15584528D01*
X34966452Y-15582257D01*
X34966450Y-15582256D01*
X34867241Y-15551166D01*
X34810062Y-15533247D01*
X34736635Y-15526500D01*
X34733737Y-15526500D01*
X34479335Y-15526501D01*
X34223366Y-15526501D01*
X34220508Y-15526764D01*
X34220499Y-15526764D01*
X34184996Y-15530026D01*
X34149938Y-15533247D01*
X34143560Y-15535246D01*
X34143559Y-15535246D01*
X33993550Y-15582256D01*
X33993548Y-15582257D01*
X33986301Y-15584528D01*
X33839619Y-15673361D01*
X33744095Y-15768885D01*
X33681783Y-15802911D01*
X33610968Y-15797846D01*
X33565905Y-15768885D01*
X33470381Y-15673361D01*
X33323699Y-15584528D01*
X33316452Y-15582257D01*
X33316450Y-15582256D01*
X33217241Y-15551166D01*
X33160062Y-15533247D01*
X33086635Y-15526500D01*
X33068526Y-15526500D01*
X32794595Y-15526501D01*
X32726476Y-15506499D01*
X32705501Y-15489596D01*
X32389496Y-15173591D01*
X32355470Y-15111279D01*
X32360535Y-15040464D01*
X32403082Y-14983628D01*
X32469602Y-14958817D01*
X32478591Y-14958496D01*
X38181713Y-14958496D01*
X38192896Y-14959023D01*
X38200389Y-14960698D01*
X38208315Y-14960449D01*
X38208316Y-14960449D01*
X38268466Y-14958558D01*
X38272425Y-14958496D01*
X38300336Y-14958496D01*
X38304271Y-14957999D01*
X38304336Y-14957991D01*
X38316173Y-14957058D01*
X38348431Y-14956044D01*
X38352450Y-14955918D01*
X38360369Y-14955669D01*
X38379823Y-14950017D01*
X38399180Y-14946009D01*
X38411410Y-14944464D01*
X38411411Y-14944464D01*
X38419277Y-14943470D01*
X38426648Y-14940551D01*
X38426650Y-14940551D01*
X38460392Y-14927192D01*
X38471622Y-14923347D01*
X38506463Y-14913225D01*
X38506464Y-14913225D01*
X38514073Y-14911014D01*
X38520892Y-14906981D01*
X38520897Y-14906979D01*
X38531508Y-14900703D01*
X38549256Y-14892008D01*
X38568097Y-14884548D01*
X38603867Y-14858560D01*
X38613787Y-14852044D01*
X38645015Y-14833576D01*
X38645018Y-14833574D01*
X38651842Y-14829538D01*
X38666163Y-14815217D01*
X38681197Y-14802376D01*
X38691174Y-14795127D01*
X38697587Y-14790468D01*
X38702638Y-14784363D01*
X38702643Y-14784358D01*
X38725779Y-14756392D01*
X38733767Y-14747614D01*
X38935500Y-14545881D01*
X38979059Y-14522095D01*
X43557001Y-14522095D01*
X43557338Y-14528614D01*
X43567257Y-14624206D01*
X43570149Y-14637600D01*
X43621588Y-14791784D01*
X43627761Y-14804962D01*
X43713063Y-14942807D01*
X43722099Y-14954208D01*
X43836829Y-15068739D01*
X43848240Y-15077751D01*
X43986243Y-15162816D01*
X43999424Y-15168963D01*
X44153710Y-15220138D01*
X44167086Y-15223005D01*
X44261438Y-15232672D01*
X44267854Y-15233000D01*
X45292885Y-15233000D01*
X45308124Y-15228525D01*
X45309329Y-15227135D01*
X45311000Y-15219452D01*
X45311000Y-15214884D01*
X45819000Y-15214884D01*
X45823475Y-15230123D01*
X45824865Y-15231328D01*
X45832548Y-15232999D01*
X46862095Y-15232999D01*
X46868614Y-15232662D01*
X46964206Y-15222743D01*
X46977600Y-15219851D01*
X47131784Y-15168412D01*
X47144962Y-15162239D01*
X47282807Y-15076937D01*
X47294208Y-15067901D01*
X47408739Y-14953171D01*
X47417751Y-14941760D01*
X47502816Y-14803757D01*
X47508963Y-14790576D01*
X47560138Y-14636290D01*
X47563005Y-14622914D01*
X47572672Y-14528562D01*
X47573000Y-14522146D01*
X47573000Y-14197115D01*
X47568525Y-14181876D01*
X47567135Y-14180671D01*
X47559452Y-14179000D01*
X45837115Y-14179000D01*
X45821876Y-14183475D01*
X45820671Y-14184865D01*
X45819000Y-14192548D01*
X45819000Y-15214884D01*
X45311000Y-15214884D01*
X45311000Y-14197115D01*
X45306525Y-14181876D01*
X45305135Y-14180671D01*
X45297452Y-14179000D01*
X43575116Y-14179000D01*
X43559877Y-14183475D01*
X43558672Y-14184865D01*
X43557001Y-14192548D01*
X43557001Y-14522095D01*
X38979059Y-14522095D01*
X38997812Y-14511855D01*
X39024595Y-14508976D01*
X39298614Y-14508975D01*
X39316634Y-14508975D01*
X39319492Y-14508712D01*
X39319501Y-14508712D01*
X39355004Y-14505450D01*
X39390062Y-14502229D01*
X39397810Y-14499801D01*
X39546450Y-14453220D01*
X39546452Y-14453219D01*
X39553699Y-14450948D01*
X39700381Y-14362115D01*
X39821639Y-14240857D01*
X39910472Y-14094175D01*
X39961753Y-13930538D01*
X39968500Y-13857111D01*
X39968499Y-13193842D01*
X39961753Y-13120414D01*
X39938509Y-13046243D01*
X39912744Y-12964026D01*
X39912743Y-12964024D01*
X39910472Y-12956777D01*
X39821639Y-12810095D01*
X39700381Y-12688837D01*
X39693882Y-12684901D01*
X39691751Y-12683230D01*
X39650488Y-12625456D01*
X39643500Y-12584078D01*
X39643500Y-12548855D01*
X39663502Y-12480734D01*
X39689894Y-12451592D01*
X39693713Y-12449228D01*
X39702606Y-12440320D01*
X39809381Y-12333358D01*
X39814552Y-12328178D01*
X39882230Y-12218384D01*
X39935002Y-12170891D01*
X39989490Y-12158500D01*
X40090101Y-12158500D01*
X40158222Y-12178502D01*
X40197245Y-12218197D01*
X40216522Y-12249348D01*
X40341697Y-12374305D01*
X40347927Y-12378145D01*
X40347928Y-12378146D01*
X40449953Y-12441035D01*
X40492262Y-12467115D01*
X40568573Y-12492426D01*
X40653611Y-12520632D01*
X40653613Y-12520632D01*
X40660139Y-12522797D01*
X40666975Y-12523497D01*
X40666978Y-12523498D01*
X40710031Y-12527909D01*
X40764600Y-12533500D01*
X43791263Y-12533500D01*
X43859384Y-12553502D01*
X43905877Y-12607158D01*
X43915981Y-12677432D01*
X43886487Y-12742012D01*
X43857566Y-12766644D01*
X43847193Y-12773063D01*
X43835792Y-12782099D01*
X43721261Y-12896829D01*
X43712249Y-12908240D01*
X43627184Y-13046243D01*
X43621037Y-13059424D01*
X43569862Y-13213710D01*
X43566995Y-13227086D01*
X43557328Y-13321438D01*
X43557000Y-13327855D01*
X43557000Y-13652885D01*
X43561475Y-13668124D01*
X43562865Y-13669329D01*
X43570548Y-13671000D01*
X47554884Y-13671000D01*
X47570123Y-13666525D01*
X47571328Y-13665135D01*
X47572999Y-13657452D01*
X47572999Y-13327905D01*
X47572662Y-13321386D01*
X47562743Y-13225794D01*
X47559851Y-13212400D01*
X47508412Y-13058216D01*
X47502239Y-13045038D01*
X47416937Y-12907193D01*
X47407901Y-12895792D01*
X47293171Y-12781261D01*
X47281760Y-12772249D01*
X47143757Y-12687184D01*
X47130576Y-12681037D01*
X46976290Y-12629862D01*
X46962914Y-12626995D01*
X46868562Y-12617328D01*
X46862145Y-12617000D01*
X46338880Y-12617000D01*
X46270759Y-12596998D01*
X46224266Y-12543342D01*
X46214162Y-12473068D01*
X46243656Y-12408488D01*
X46272575Y-12383857D01*
X46289348Y-12373478D01*
X46414305Y-12248303D01*
X46418146Y-12242072D01*
X46503275Y-12103968D01*
X46503276Y-12103966D01*
X46507115Y-12097738D01*
X46557762Y-11945041D01*
X46560632Y-11936389D01*
X46560632Y-11936387D01*
X46562797Y-11929861D01*
X46563559Y-11922429D01*
X46568013Y-11878951D01*
X46573500Y-11825400D01*
X46573500Y-11224600D01*
X46573163Y-11221350D01*
X46563238Y-11125692D01*
X46563237Y-11125688D01*
X46562526Y-11118834D01*
X46560324Y-11112232D01*
X46508868Y-10958002D01*
X46506550Y-10951054D01*
X46413478Y-10800652D01*
X46288303Y-10675695D01*
X46217352Y-10631960D01*
X46169860Y-10579189D01*
X46158436Y-10509117D01*
X46186710Y-10443994D01*
X46217166Y-10417557D01*
X46282807Y-10376937D01*
X46294208Y-10367901D01*
X46408739Y-10253171D01*
X46417751Y-10241760D01*
X46502816Y-10103757D01*
X46508963Y-10090576D01*
X46560138Y-9936290D01*
X46563005Y-9922914D01*
X46572672Y-9828562D01*
X46573000Y-9822146D01*
X46573000Y-9797115D01*
X46568525Y-9781876D01*
X46567135Y-9780671D01*
X46559452Y-9779000D01*
X40075116Y-9779000D01*
X40059877Y-9783475D01*
X40058672Y-9784865D01*
X40057001Y-9792548D01*
X40057001Y-9822095D01*
X40057338Y-9828614D01*
X40067257Y-9924206D01*
X40070149Y-9937600D01*
X40121588Y-10091784D01*
X40127761Y-10104962D01*
X40213063Y-10242807D01*
X40222099Y-10254208D01*
X40336829Y-10368739D01*
X40348240Y-10377751D01*
X40412646Y-10417451D01*
X40460139Y-10470223D01*
X40471563Y-10540294D01*
X40443289Y-10605418D01*
X40412834Y-10631854D01*
X40340652Y-10676522D01*
X40215695Y-10801697D01*
X40211855Y-10807927D01*
X40197251Y-10831618D01*
X40144478Y-10879110D01*
X40089992Y-10891500D01*
X39845581Y-10891500D01*
X39777460Y-10871498D01*
X39756564Y-10854674D01*
X39697883Y-10796096D01*
X39692702Y-10790924D01*
X39686471Y-10787083D01*
X39553331Y-10705014D01*
X39553329Y-10705013D01*
X39547101Y-10701174D01*
X39384757Y-10647327D01*
X39377920Y-10646627D01*
X39377918Y-10646626D01*
X39336599Y-10642393D01*
X39283732Y-10636976D01*
X38736268Y-10636976D01*
X38733022Y-10637313D01*
X38733018Y-10637313D01*
X38703730Y-10640352D01*
X38633981Y-10647589D01*
X38625963Y-10650264D01*
X38478676Y-10699403D01*
X38478674Y-10699404D01*
X38471732Y-10701720D01*
X38465508Y-10705572D01*
X38465507Y-10705572D01*
X38436384Y-10723594D01*
X38326287Y-10791724D01*
X38321114Y-10796906D01*
X38315377Y-10801453D01*
X38313945Y-10799646D01*
X38261425Y-10828378D01*
X38190605Y-10823368D01*
X38154147Y-10799977D01*
X38153317Y-10801028D01*
X38136160Y-10787478D01*
X38003120Y-10705472D01*
X37989939Y-10699325D01*
X37841186Y-10649985D01*
X37827810Y-10647118D01*
X37736903Y-10637804D01*
X37731874Y-10637547D01*
X37716876Y-10641951D01*
X37715671Y-10643341D01*
X37714000Y-10651024D01*
X37714000Y-11748476D01*
X37693998Y-11816597D01*
X37640342Y-11863090D01*
X37588000Y-11874476D01*
X36520115Y-11874476D01*
X36504876Y-11878951D01*
X36503671Y-11880341D01*
X36502000Y-11888024D01*
X36502000Y-11915914D01*
X36502337Y-11922429D01*
X36511894Y-12014533D01*
X36514788Y-12027932D01*
X36564381Y-12176583D01*
X36570555Y-12189762D01*
X36652788Y-12322649D01*
X36661824Y-12334050D01*
X36772429Y-12444462D01*
X36783840Y-12453474D01*
X36793845Y-12459641D01*
X36841338Y-12512413D01*
X36852762Y-12582485D01*
X36824488Y-12647609D01*
X36793000Y-12674677D01*
X36778800Y-12683277D01*
X36713530Y-12701500D01*
X36268200Y-12701500D01*
X36200079Y-12681498D01*
X36180853Y-12665157D01*
X36180580Y-12665460D01*
X36175668Y-12661037D01*
X36171253Y-12656134D01*
X36110408Y-12611927D01*
X36022094Y-12547763D01*
X36022093Y-12547762D01*
X36016752Y-12543882D01*
X36010724Y-12541198D01*
X36010722Y-12541197D01*
X35848319Y-12468891D01*
X35848318Y-12468891D01*
X35842288Y-12466206D01*
X35724998Y-12441275D01*
X35661944Y-12427872D01*
X35661939Y-12427872D01*
X35655487Y-12426500D01*
X35464513Y-12426500D01*
X35458061Y-12427872D01*
X35458056Y-12427872D01*
X35395002Y-12441275D01*
X35277712Y-12466206D01*
X35271682Y-12468891D01*
X35271681Y-12468891D01*
X35109278Y-12541197D01*
X35109276Y-12541198D01*
X35103248Y-12543882D01*
X35097907Y-12547762D01*
X35097906Y-12547763D01*
X35042628Y-12587925D01*
X34968567Y-12611989D01*
X30013278Y-12611989D01*
X30002095Y-12611462D01*
X29994602Y-12609787D01*
X29986676Y-12610036D01*
X29986675Y-12610036D01*
X29926525Y-12611927D01*
X29922566Y-12611989D01*
X29894655Y-12611989D01*
X29890721Y-12612486D01*
X29890720Y-12612486D01*
X29890655Y-12612494D01*
X29878818Y-12613427D01*
X29847001Y-12614427D01*
X29842540Y-12614567D01*
X29834621Y-12614816D01*
X29818088Y-12619619D01*
X29815169Y-12620467D01*
X29795817Y-12624475D01*
X29788746Y-12625369D01*
X29775714Y-12627015D01*
X29768345Y-12629932D01*
X29768343Y-12629933D01*
X29734608Y-12643289D01*
X29723380Y-12647134D01*
X29680918Y-12659471D01*
X29674095Y-12663506D01*
X29674093Y-12663507D01*
X29663483Y-12669782D01*
X29645735Y-12678477D01*
X29626894Y-12685937D01*
X29620478Y-12690599D01*
X29620477Y-12690599D01*
X29591124Y-12711925D01*
X29581204Y-12718441D01*
X29549976Y-12736909D01*
X29549973Y-12736911D01*
X29543149Y-12740947D01*
X29528828Y-12755268D01*
X29513795Y-12768108D01*
X29497404Y-12780017D01*
X29492353Y-12786123D01*
X29469213Y-12814094D01*
X29461223Y-12822873D01*
X27354500Y-14929595D01*
X27292188Y-14963621D01*
X27265405Y-14966500D01*
X27209513Y-14966500D01*
X27203061Y-14967872D01*
X27203056Y-14967872D01*
X27117773Y-14986000D01*
X27022712Y-15006206D01*
X27016682Y-15008891D01*
X27016681Y-15008891D01*
X26854278Y-15081197D01*
X26854276Y-15081198D01*
X26848248Y-15083882D01*
X26842907Y-15087762D01*
X26842906Y-15087763D01*
X26813629Y-15109034D01*
X26693747Y-15196134D01*
X26689326Y-15201044D01*
X26689325Y-15201045D01*
X26635974Y-15260298D01*
X26565960Y-15338056D01*
X26562659Y-15343774D01*
X26474027Y-15497289D01*
X26470473Y-15503444D01*
X26411458Y-15685072D01*
X26410768Y-15691633D01*
X26410768Y-15691635D01*
X26400336Y-15790890D01*
X26391496Y-15875000D01*
X26392186Y-15881565D01*
X26398590Y-15942491D01*
X26411458Y-16064928D01*
X26470473Y-16246556D01*
X26565960Y-16411944D01*
X26639137Y-16493215D01*
X26669853Y-16557221D01*
X26671500Y-16577524D01*
X26671500Y-17858726D01*
X26670973Y-17869909D01*
X26669298Y-17877402D01*
X26669547Y-17885328D01*
X26669547Y-17885329D01*
X26671438Y-17945479D01*
X26671500Y-17949438D01*
X26671500Y-17977349D01*
X26671997Y-17981283D01*
X26671997Y-17981284D01*
X26672005Y-17981349D01*
X26672938Y-17993186D01*
X26674327Y-18037382D01*
X26677519Y-18048368D01*
X26679978Y-18056832D01*
X26683987Y-18076193D01*
X26686526Y-18096290D01*
X26689445Y-18103661D01*
X26689445Y-18103663D01*
X26702804Y-18137405D01*
X26706649Y-18148635D01*
X26709826Y-18159570D01*
X26718982Y-18191086D01*
X26723015Y-18197905D01*
X26723017Y-18197910D01*
X26729293Y-18208521D01*
X26737988Y-18226269D01*
X26745448Y-18245110D01*
X26750110Y-18251526D01*
X26750110Y-18251527D01*
X26771436Y-18280880D01*
X26777952Y-18290800D01*
X26788648Y-18308885D01*
X26800458Y-18328855D01*
X26814779Y-18343176D01*
X26827619Y-18358209D01*
X26839528Y-18374600D01*
X26865147Y-18395794D01*
X26873605Y-18402791D01*
X26882384Y-18410781D01*
X31183375Y-22711773D01*
X31190915Y-22720059D01*
X31195027Y-22726538D01*
X31220814Y-22750753D01*
X31256779Y-22811964D01*
X31253942Y-22882904D01*
X31241822Y-22908717D01*
X31237185Y-22916240D01*
X31231037Y-22929424D01*
X31179862Y-23083710D01*
X31176995Y-23097086D01*
X31167328Y-23191438D01*
X31167000Y-23197855D01*
X31167000Y-23222885D01*
X31171475Y-23238124D01*
X31172865Y-23239329D01*
X31180548Y-23241000D01*
X37664884Y-23241000D01*
X37680123Y-23236525D01*
X37681328Y-23235135D01*
X37682999Y-23227452D01*
X37682999Y-23197905D01*
X37682662Y-23191388D01*
X37672352Y-23092024D01*
X37685217Y-23022202D01*
X37733788Y-22970420D01*
X37797679Y-22953020D01*
X39831713Y-22953020D01*
X39842897Y-22953547D01*
X39850389Y-22955222D01*
X39858316Y-22954973D01*
X39861661Y-22955289D01*
X39927597Y-22981613D01*
X39968835Y-23039405D01*
X39971221Y-23114403D01*
X39939389Y-23229184D01*
X39940912Y-23237607D01*
X39953292Y-23241000D01*
X42593344Y-23241000D01*
X42606875Y-23237027D01*
X42608180Y-23227947D01*
X42566214Y-23060875D01*
X42562894Y-23051124D01*
X42477972Y-22855814D01*
X42473105Y-22846739D01*
X42357426Y-22667926D01*
X42351136Y-22659757D01*
X42207293Y-22501677D01*
X42176241Y-22437831D01*
X42184635Y-22367333D01*
X42229812Y-22312564D01*
X42256256Y-22298895D01*
X42363297Y-22258767D01*
X42371705Y-22255615D01*
X42488261Y-22168261D01*
X42575615Y-22051705D01*
X42626745Y-21915316D01*
X42633500Y-21853134D01*
X42633500Y-21714500D01*
X42653502Y-21646379D01*
X42707158Y-21599886D01*
X42759500Y-21588500D01*
X44770406Y-21588500D01*
X44838527Y-21608502D01*
X44859501Y-21625405D01*
X45049595Y-21815499D01*
X45083621Y-21877811D01*
X45086500Y-21904594D01*
X45086500Y-31511405D01*
X45066498Y-31579526D01*
X45012842Y-31626019D01*
X44942568Y-31636123D01*
X44877988Y-31606629D01*
X44871405Y-31600500D01*
X43993652Y-30722747D01*
X43986112Y-30714461D01*
X43982000Y-30707982D01*
X43932348Y-30661356D01*
X43929507Y-30658602D01*
X43909770Y-30638865D01*
X43906573Y-30636385D01*
X43897551Y-30628680D01*
X43871100Y-30603841D01*
X43865321Y-30598414D01*
X43858375Y-30594595D01*
X43858372Y-30594593D01*
X43847566Y-30588652D01*
X43831047Y-30577801D01*
X43830583Y-30577441D01*
X43815041Y-30565386D01*
X43807772Y-30562241D01*
X43807768Y-30562238D01*
X43774463Y-30547826D01*
X43763813Y-30542609D01*
X43725060Y-30521305D01*
X43705437Y-30516267D01*
X43686734Y-30509863D01*
X43675420Y-30504967D01*
X43675419Y-30504967D01*
X43668145Y-30501819D01*
X43660322Y-30500580D01*
X43660312Y-30500577D01*
X43624476Y-30494901D01*
X43612856Y-30492495D01*
X43577711Y-30483472D01*
X43577710Y-30483472D01*
X43570030Y-30481500D01*
X43549776Y-30481500D01*
X43530065Y-30479949D01*
X43528904Y-30479765D01*
X43510057Y-30476780D01*
X43502165Y-30477526D01*
X43466039Y-30480941D01*
X43454181Y-30481500D01*
X32599500Y-30481500D01*
X32531379Y-30461498D01*
X32484886Y-30407842D01*
X32473500Y-30355500D01*
X32473500Y-30216866D01*
X32466745Y-30154684D01*
X32415615Y-30018295D01*
X32328261Y-29901739D01*
X32211705Y-29814385D01*
X32075316Y-29763255D01*
X32013134Y-29756500D01*
X31874500Y-29756500D01*
X31806379Y-29736498D01*
X31759886Y-29682842D01*
X31748500Y-29630500D01*
X31748500Y-28749244D01*
X31749027Y-28738061D01*
X31750702Y-28730568D01*
X31748562Y-28662477D01*
X31748500Y-28658520D01*
X31748500Y-28630620D01*
X31747996Y-28626629D01*
X31747063Y-28614787D01*
X31746941Y-28610880D01*
X31745674Y-28570587D01*
X31740021Y-28551128D01*
X31736012Y-28531769D01*
X31735846Y-28530459D01*
X31733474Y-28511679D01*
X31730558Y-28504313D01*
X31730556Y-28504307D01*
X31725721Y-28492095D01*
X34667001Y-28492095D01*
X34667338Y-28498614D01*
X34677257Y-28594206D01*
X34680149Y-28607600D01*
X34731588Y-28761784D01*
X34737761Y-28774962D01*
X34823063Y-28912807D01*
X34832099Y-28924208D01*
X34946829Y-29038739D01*
X34958240Y-29047751D01*
X35096243Y-29132816D01*
X35109424Y-29138963D01*
X35263710Y-29190138D01*
X35277086Y-29193005D01*
X35371438Y-29202672D01*
X35377854Y-29203000D01*
X36402885Y-29203000D01*
X36418124Y-29198525D01*
X36419329Y-29197135D01*
X36421000Y-29189452D01*
X36421000Y-29184884D01*
X36929000Y-29184884D01*
X36933475Y-29200123D01*
X36934865Y-29201328D01*
X36942548Y-29202999D01*
X37972095Y-29202999D01*
X37978614Y-29202662D01*
X38074206Y-29192743D01*
X38087600Y-29189851D01*
X38241784Y-29138412D01*
X38254962Y-29132239D01*
X38392807Y-29046937D01*
X38404208Y-29037901D01*
X38518739Y-28923171D01*
X38527751Y-28911760D01*
X38612816Y-28773757D01*
X38618963Y-28760576D01*
X38670138Y-28606290D01*
X38673005Y-28592914D01*
X38678253Y-28541695D01*
X39912251Y-28541695D01*
X39912548Y-28546848D01*
X39912548Y-28546851D01*
X39918876Y-28656590D01*
X39925110Y-28764715D01*
X39926247Y-28769761D01*
X39926248Y-28769767D01*
X39946119Y-28857939D01*
X39974222Y-28982639D01*
X40012461Y-29076811D01*
X40045362Y-29157836D01*
X40058266Y-29189616D01*
X40064705Y-29200123D01*
X40170189Y-29372258D01*
X40174987Y-29380088D01*
X40321250Y-29548938D01*
X40431770Y-29640693D01*
X40483064Y-29683278D01*
X40493126Y-29691632D01*
X40686000Y-29804338D01*
X40690825Y-29806180D01*
X40690826Y-29806181D01*
X40726415Y-29819771D01*
X40894692Y-29884030D01*
X40899760Y-29885061D01*
X40899763Y-29885062D01*
X40981734Y-29901739D01*
X41113597Y-29928567D01*
X41118772Y-29928757D01*
X41118774Y-29928757D01*
X41331673Y-29936564D01*
X41331677Y-29936564D01*
X41336837Y-29936753D01*
X41341957Y-29936097D01*
X41341959Y-29936097D01*
X41553288Y-29909025D01*
X41553289Y-29909025D01*
X41558416Y-29908368D01*
X41563366Y-29906883D01*
X41767429Y-29845661D01*
X41767434Y-29845659D01*
X41772384Y-29844174D01*
X41972994Y-29745896D01*
X42154860Y-29616173D01*
X42161852Y-29609206D01*
X42303075Y-29468475D01*
X42313096Y-29458489D01*
X42339933Y-29421142D01*
X42440435Y-29281277D01*
X42443453Y-29277077D01*
X42449077Y-29265699D01*
X42540136Y-29081453D01*
X42540137Y-29081451D01*
X42542430Y-29076811D01*
X42586160Y-28932880D01*
X42605865Y-28868023D01*
X42605865Y-28868021D01*
X42607370Y-28863069D01*
X42636529Y-28641590D01*
X42637184Y-28614787D01*
X42638074Y-28578365D01*
X42638074Y-28578361D01*
X42638156Y-28575000D01*
X42619852Y-28352361D01*
X42565431Y-28135702D01*
X42476354Y-27930840D01*
X42418845Y-27841944D01*
X42357822Y-27747617D01*
X42357820Y-27747614D01*
X42355014Y-27743277D01*
X42204670Y-27578051D01*
X42200619Y-27574852D01*
X42200615Y-27574848D01*
X42033414Y-27442800D01*
X42033410Y-27442798D01*
X42029359Y-27439598D01*
X41988053Y-27416796D01*
X41938084Y-27366364D01*
X41923312Y-27296921D01*
X41948428Y-27230516D01*
X41975780Y-27203909D01*
X42019603Y-27172650D01*
X42154860Y-27076173D01*
X42209447Y-27021777D01*
X42286814Y-26944679D01*
X42313096Y-26918489D01*
X42319484Y-26909600D01*
X42440435Y-26741277D01*
X42443453Y-26737077D01*
X42464062Y-26695379D01*
X42540136Y-26541453D01*
X42540137Y-26541451D01*
X42542430Y-26536811D01*
X42597546Y-26355405D01*
X42605865Y-26328023D01*
X42605865Y-26328021D01*
X42607370Y-26323069D01*
X42636529Y-26101590D01*
X42638156Y-26035000D01*
X42619852Y-25812361D01*
X42565431Y-25595702D01*
X42476354Y-25390840D01*
X42388859Y-25255593D01*
X42357822Y-25207617D01*
X42357820Y-25207614D01*
X42355014Y-25203277D01*
X42204670Y-25038051D01*
X42200619Y-25034852D01*
X42200615Y-25034848D01*
X42033414Y-24902800D01*
X42033410Y-24902798D01*
X42029359Y-24899598D01*
X42018092Y-24893378D01*
X41987569Y-24876529D01*
X41937598Y-24826097D01*
X41922826Y-24756654D01*
X41947942Y-24690248D01*
X41975294Y-24663641D01*
X42150328Y-24538792D01*
X42158200Y-24532139D01*
X42309052Y-24381812D01*
X42315730Y-24373965D01*
X42440003Y-24201020D01*
X42445313Y-24192183D01*
X42539670Y-24001267D01*
X42543469Y-23991672D01*
X42605377Y-23787910D01*
X42607555Y-23777837D01*
X42608986Y-23766962D01*
X42606775Y-23752778D01*
X42593617Y-23749000D01*
X39958225Y-23749000D01*
X39944694Y-23752973D01*
X39943257Y-23762966D01*
X39973565Y-23897446D01*
X39976645Y-23907275D01*
X40056770Y-24104603D01*
X40061413Y-24113794D01*
X40172694Y-24295388D01*
X40178777Y-24303699D01*
X40318213Y-24464667D01*
X40325580Y-24471883D01*
X40489434Y-24607916D01*
X40497881Y-24613831D01*
X40566969Y-24654203D01*
X40615693Y-24705842D01*
X40628764Y-24775625D01*
X40602033Y-24841396D01*
X40561584Y-24874752D01*
X40548607Y-24881507D01*
X40544474Y-24884610D01*
X40544471Y-24884612D01*
X40420391Y-24977774D01*
X40369965Y-25015635D01*
X40366393Y-25019373D01*
X40236721Y-25155067D01*
X40215629Y-25177138D01*
X40212715Y-25181410D01*
X40212714Y-25181411D01*
X40181497Y-25227173D01*
X40089743Y-25361680D01*
X39995688Y-25564305D01*
X39935989Y-25779570D01*
X39912251Y-26001695D01*
X39912548Y-26006848D01*
X39912548Y-26006851D01*
X39918011Y-26101590D01*
X39925110Y-26224715D01*
X39926247Y-26229761D01*
X39926248Y-26229767D01*
X39946119Y-26317939D01*
X39974222Y-26442639D01*
X40032974Y-26587328D01*
X40053250Y-26637262D01*
X40058266Y-26649616D01*
X40174987Y-26840088D01*
X40321250Y-27008938D01*
X40405846Y-27079171D01*
X40481350Y-27141855D01*
X40493126Y-27151632D01*
X40561162Y-27191389D01*
X40566445Y-27194476D01*
X40615169Y-27246114D01*
X40628240Y-27315897D01*
X40601509Y-27381669D01*
X40561055Y-27415027D01*
X40548607Y-27421507D01*
X40544474Y-27424610D01*
X40544471Y-27424612D01*
X40376298Y-27550880D01*
X40369965Y-27555635D01*
X40366393Y-27559373D01*
X40227461Y-27704757D01*
X40215629Y-27717138D01*
X40212715Y-27721410D01*
X40212714Y-27721411D01*
X40148416Y-27815668D01*
X40089743Y-27901680D01*
X40075064Y-27933303D01*
X40001290Y-28092237D01*
X39995688Y-28104305D01*
X39935989Y-28319570D01*
X39912251Y-28541695D01*
X38678253Y-28541695D01*
X38682672Y-28498562D01*
X38683000Y-28492146D01*
X38683000Y-28167115D01*
X38678525Y-28151876D01*
X38677135Y-28150671D01*
X38669452Y-28149000D01*
X36947115Y-28149000D01*
X36931876Y-28153475D01*
X36930671Y-28154865D01*
X36929000Y-28162548D01*
X36929000Y-29184884D01*
X36421000Y-29184884D01*
X36421000Y-28167115D01*
X36416525Y-28151876D01*
X36415135Y-28150671D01*
X36407452Y-28149000D01*
X34685116Y-28149000D01*
X34669877Y-28153475D01*
X34668672Y-28154865D01*
X34667001Y-28162548D01*
X34667001Y-28492095D01*
X31725721Y-28492095D01*
X31717200Y-28470574D01*
X31713355Y-28459344D01*
X31703230Y-28424493D01*
X31703230Y-28424492D01*
X31701019Y-28416883D01*
X31690705Y-28399442D01*
X31682008Y-28381689D01*
X31677472Y-28370234D01*
X31674552Y-28362859D01*
X31656746Y-28338351D01*
X31648563Y-28327088D01*
X31642047Y-28317168D01*
X31624899Y-28288172D01*
X31619542Y-28279114D01*
X31605221Y-28264793D01*
X31592380Y-28249759D01*
X31585131Y-28239782D01*
X31580472Y-28233369D01*
X31574368Y-28228319D01*
X31574363Y-28228314D01*
X31546402Y-28205183D01*
X31537621Y-28197193D01*
X30980404Y-27639975D01*
X30946379Y-27577663D01*
X30943500Y-27550880D01*
X30943499Y-27261725D01*
X30943499Y-27258842D01*
X30936753Y-27185414D01*
X30912742Y-27108794D01*
X30887744Y-27029026D01*
X30887743Y-27029024D01*
X30885472Y-27021777D01*
X30796639Y-26875095D01*
X30675381Y-26753837D01*
X30652371Y-26739901D01*
X30604463Y-26687505D01*
X30592489Y-26617526D01*
X30620249Y-26552182D01*
X30651335Y-26524982D01*
X30662486Y-26518082D01*
X30662490Y-26518079D01*
X30668713Y-26514228D01*
X30789552Y-26393178D01*
X30793826Y-26386244D01*
X30875462Y-26253807D01*
X30875463Y-26253805D01*
X30879302Y-26247577D01*
X30890163Y-26214832D01*
X30930594Y-26156472D01*
X30996159Y-26129236D01*
X31009756Y-26128500D01*
X31200101Y-26128500D01*
X31268222Y-26148502D01*
X31307245Y-26188197D01*
X31326522Y-26219348D01*
X31451697Y-26344305D01*
X31457927Y-26348145D01*
X31457928Y-26348146D01*
X31539387Y-26398358D01*
X31602262Y-26437115D01*
X31633346Y-26447425D01*
X31763611Y-26490632D01*
X31763613Y-26490632D01*
X31770139Y-26492797D01*
X31776975Y-26493497D01*
X31776978Y-26493498D01*
X31820031Y-26497909D01*
X31874600Y-26503500D01*
X34901263Y-26503500D01*
X34969384Y-26523502D01*
X35015877Y-26577158D01*
X35025981Y-26647432D01*
X34996487Y-26712012D01*
X34967566Y-26736644D01*
X34957193Y-26743063D01*
X34945792Y-26752099D01*
X34831261Y-26866829D01*
X34822249Y-26878240D01*
X34737184Y-27016243D01*
X34731037Y-27029424D01*
X34679862Y-27183710D01*
X34676995Y-27197086D01*
X34667328Y-27291438D01*
X34667000Y-27297855D01*
X34667000Y-27622885D01*
X34671475Y-27638124D01*
X34672865Y-27639329D01*
X34680548Y-27641000D01*
X38664884Y-27641000D01*
X38680123Y-27636525D01*
X38681328Y-27635135D01*
X38682999Y-27627452D01*
X38682999Y-27297905D01*
X38682662Y-27291386D01*
X38672743Y-27195794D01*
X38669851Y-27182400D01*
X38618412Y-27028216D01*
X38612239Y-27015038D01*
X38526937Y-26877193D01*
X38517901Y-26865792D01*
X38403171Y-26751261D01*
X38391760Y-26742249D01*
X38253757Y-26657184D01*
X38240576Y-26651037D01*
X38086290Y-26599862D01*
X38072914Y-26596995D01*
X37978562Y-26587328D01*
X37972145Y-26587000D01*
X37448880Y-26587000D01*
X37380759Y-26566998D01*
X37334266Y-26513342D01*
X37324162Y-26443068D01*
X37353656Y-26378488D01*
X37382575Y-26353857D01*
X37399348Y-26343478D01*
X37524305Y-26218303D01*
X37528497Y-26211502D01*
X37613275Y-26073968D01*
X37613276Y-26073966D01*
X37617115Y-26067738D01*
X37651658Y-25963594D01*
X37670632Y-25906389D01*
X37670632Y-25906387D01*
X37672797Y-25899861D01*
X37674669Y-25881597D01*
X37679118Y-25838171D01*
X37683500Y-25795400D01*
X37683500Y-25194600D01*
X37681688Y-25177138D01*
X37673238Y-25095692D01*
X37673237Y-25095688D01*
X37672526Y-25088834D01*
X37670285Y-25082115D01*
X37618868Y-24928002D01*
X37616550Y-24921054D01*
X37523478Y-24770652D01*
X37398303Y-24645695D01*
X37327352Y-24601960D01*
X37279860Y-24549189D01*
X37268436Y-24479117D01*
X37296710Y-24413994D01*
X37327166Y-24387557D01*
X37392807Y-24346937D01*
X37404208Y-24337901D01*
X37518739Y-24223171D01*
X37527751Y-24211760D01*
X37612816Y-24073757D01*
X37618963Y-24060576D01*
X37670138Y-23906290D01*
X37673005Y-23892914D01*
X37682672Y-23798562D01*
X37683000Y-23792146D01*
X37683000Y-23767115D01*
X37678525Y-23751876D01*
X37677135Y-23750671D01*
X37669452Y-23749000D01*
X31185116Y-23749000D01*
X31169877Y-23753475D01*
X31168672Y-23754865D01*
X31167001Y-23762548D01*
X31167001Y-23792095D01*
X31167338Y-23798614D01*
X31177257Y-23894206D01*
X31180149Y-23907600D01*
X31231588Y-24061784D01*
X31237761Y-24074962D01*
X31323063Y-24212807D01*
X31332099Y-24224208D01*
X31446829Y-24338739D01*
X31458240Y-24347751D01*
X31522646Y-24387451D01*
X31570139Y-24440223D01*
X31581563Y-24510294D01*
X31553289Y-24575418D01*
X31522834Y-24601854D01*
X31450652Y-24646522D01*
X31445479Y-24651704D01*
X31419919Y-24677309D01*
X31325695Y-24771697D01*
X31321855Y-24777927D01*
X31307251Y-24801618D01*
X31254478Y-24849110D01*
X31199992Y-24861500D01*
X30712462Y-24861500D01*
X30646346Y-24842760D01*
X30528331Y-24770014D01*
X30528329Y-24770013D01*
X30522101Y-24766174D01*
X30359757Y-24712327D01*
X30352920Y-24711627D01*
X30352918Y-24711626D01*
X30311599Y-24707393D01*
X30258732Y-24701976D01*
X29711268Y-24701976D01*
X29708022Y-24702313D01*
X29708018Y-24702313D01*
X29678730Y-24705352D01*
X29608981Y-24712589D01*
X29600963Y-24715264D01*
X29453676Y-24764403D01*
X29453674Y-24764404D01*
X29446732Y-24766720D01*
X29440508Y-24770572D01*
X29440507Y-24770572D01*
X29364897Y-24817361D01*
X29301287Y-24856724D01*
X29296114Y-24861906D01*
X29290377Y-24866453D01*
X29288945Y-24864646D01*
X29236425Y-24893378D01*
X29165605Y-24888368D01*
X29129147Y-24864977D01*
X29128317Y-24866028D01*
X29111160Y-24852478D01*
X28978120Y-24770472D01*
X28964939Y-24764325D01*
X28816186Y-24714985D01*
X28802810Y-24712118D01*
X28711903Y-24702804D01*
X28706874Y-24702547D01*
X28691876Y-24706951D01*
X28690671Y-24708341D01*
X28689000Y-24716024D01*
X28689000Y-25813476D01*
X28668998Y-25881597D01*
X28615342Y-25928090D01*
X28563000Y-25939476D01*
X27495115Y-25939476D01*
X27479876Y-25943951D01*
X27478671Y-25945341D01*
X27477000Y-25953024D01*
X27477000Y-25980914D01*
X27477337Y-25987429D01*
X27486894Y-26079533D01*
X27489788Y-26092932D01*
X27539381Y-26241583D01*
X27545555Y-26254762D01*
X27627788Y-26387649D01*
X27636824Y-26399050D01*
X27694201Y-26456327D01*
X27728280Y-26518609D01*
X27723277Y-26589430D01*
X27680780Y-26646302D01*
X27614281Y-26671171D01*
X27605183Y-26671500D01*
X27378200Y-26671500D01*
X27310079Y-26651498D01*
X27290853Y-26635157D01*
X27290580Y-26635460D01*
X27285668Y-26631037D01*
X27281253Y-26626134D01*
X27241147Y-26596995D01*
X27132094Y-26517763D01*
X27132093Y-26517762D01*
X27126752Y-26513882D01*
X27120724Y-26511198D01*
X27120722Y-26511197D01*
X26958319Y-26438891D01*
X26958318Y-26438891D01*
X26952288Y-26436206D01*
X26858887Y-26416353D01*
X26771944Y-26397872D01*
X26771939Y-26397872D01*
X26765487Y-26396500D01*
X26574513Y-26396500D01*
X26568061Y-26397872D01*
X26568056Y-26397872D01*
X26481113Y-26416353D01*
X26387712Y-26436206D01*
X26381682Y-26438891D01*
X26381681Y-26438891D01*
X26219278Y-26511197D01*
X26219276Y-26511198D01*
X26213248Y-26513882D01*
X26207907Y-26517762D01*
X26207906Y-26517763D01*
X26181689Y-26536811D01*
X26058747Y-26626134D01*
X26054326Y-26631044D01*
X26054325Y-26631045D01*
X25940773Y-26757158D01*
X25930960Y-26768056D01*
X25927659Y-26773774D01*
X25865408Y-26881596D01*
X25835473Y-26933444D01*
X25776458Y-27115072D01*
X25775768Y-27121633D01*
X25775768Y-27121635D01*
X25769244Y-27183710D01*
X25756496Y-27305000D01*
X25757186Y-27311565D01*
X25770381Y-27437104D01*
X25776458Y-27494928D01*
X25835473Y-27676556D01*
X25838776Y-27682278D01*
X25838777Y-27682279D01*
X25858903Y-27717138D01*
X25930960Y-27841944D01*
X25935378Y-27846851D01*
X25935379Y-27846852D01*
X26023275Y-27944470D01*
X26058747Y-27983866D01*
X26213248Y-28096118D01*
X26219276Y-28098802D01*
X26219278Y-28098803D01*
X26381681Y-28171109D01*
X26387712Y-28173794D01*
X26481113Y-28193647D01*
X26568056Y-28212128D01*
X26568061Y-28212128D01*
X26574513Y-28213500D01*
X26765487Y-28213500D01*
X26771939Y-28212128D01*
X26771944Y-28212128D01*
X26858888Y-28193647D01*
X26952288Y-28173794D01*
X26958319Y-28171109D01*
X27120722Y-28098803D01*
X27120724Y-28098802D01*
X27126752Y-28096118D01*
X27172134Y-28063146D01*
X27275909Y-27987749D01*
X27275911Y-27987747D01*
X27281253Y-27983866D01*
X27285675Y-27978955D01*
X27289860Y-27975187D01*
X27353868Y-27944470D01*
X27424321Y-27953233D01*
X27478853Y-27998696D01*
X27494405Y-28031143D01*
X27534528Y-28159175D01*
X27623361Y-28305857D01*
X27744619Y-28427115D01*
X27891301Y-28515948D01*
X27898548Y-28518219D01*
X27898550Y-28518220D01*
X27957080Y-28536562D01*
X28054938Y-28567229D01*
X28128365Y-28573976D01*
X28131263Y-28573976D01*
X28385665Y-28573975D01*
X28641634Y-28573975D01*
X28644492Y-28573712D01*
X28644501Y-28573712D01*
X28680004Y-28570450D01*
X28715062Y-28567229D01*
X28728656Y-28562969D01*
X28871450Y-28518220D01*
X28871452Y-28518219D01*
X28878699Y-28515948D01*
X29025381Y-28427115D01*
X29120905Y-28331591D01*
X29183217Y-28297565D01*
X29254032Y-28302630D01*
X29299095Y-28331591D01*
X29394619Y-28427115D01*
X29541301Y-28515948D01*
X29548548Y-28518219D01*
X29548550Y-28518220D01*
X29607080Y-28536562D01*
X29704938Y-28567229D01*
X29778365Y-28573976D01*
X29796474Y-28573976D01*
X30070406Y-28573975D01*
X30138525Y-28593977D01*
X30159500Y-28610880D01*
X30444595Y-28895975D01*
X30478621Y-28958287D01*
X30481500Y-28985070D01*
X30481500Y-29630500D01*
X30461498Y-29698621D01*
X30407842Y-29745114D01*
X30355500Y-29756500D01*
X30216866Y-29756500D01*
X30154684Y-29763255D01*
X30018295Y-29814385D01*
X29901739Y-29901739D01*
X29814385Y-30018295D01*
X29811233Y-30026703D01*
X29811232Y-30026705D01*
X29769722Y-30137433D01*
X29727081Y-30194198D01*
X29660519Y-30218898D01*
X29591170Y-30203691D01*
X29558546Y-30178004D01*
X29507799Y-30122234D01*
X29500273Y-30115215D01*
X29333139Y-29983222D01*
X29324552Y-29977517D01*
X29138117Y-29874599D01*
X29128705Y-29870369D01*
X28927959Y-29799280D01*
X28917988Y-29796646D01*
X28846837Y-29783972D01*
X28833540Y-29785432D01*
X28829000Y-29799989D01*
X28829000Y-31243000D01*
X28808998Y-31311121D01*
X28755342Y-31357614D01*
X28703000Y-31369000D01*
X28447000Y-31369000D01*
X28378879Y-31348998D01*
X28332386Y-31295342D01*
X28321000Y-31243000D01*
X28321000Y-29798102D01*
X28317082Y-29784758D01*
X28302806Y-29782771D01*
X28264324Y-29788660D01*
X28254288Y-29791051D01*
X28051868Y-29857212D01*
X28042359Y-29861209D01*
X27853463Y-29959542D01*
X27844738Y-29965036D01*
X27674433Y-30092905D01*
X27666726Y-30099748D01*
X27519590Y-30253717D01*
X27513109Y-30261722D01*
X27408498Y-30415074D01*
X27353587Y-30460076D01*
X27283062Y-30468247D01*
X27219315Y-30436993D01*
X27198618Y-30412509D01*
X27117822Y-30287617D01*
X27117820Y-30287614D01*
X27115014Y-30283277D01*
X26964670Y-30118051D01*
X26960619Y-30114852D01*
X26960615Y-30114848D01*
X26793414Y-29982800D01*
X26793410Y-29982798D01*
X26789359Y-29979598D01*
X26753028Y-29959542D01*
X26711403Y-29936564D01*
X26593789Y-29871638D01*
X26588920Y-29869914D01*
X26588916Y-29869912D01*
X26388087Y-29798795D01*
X26388083Y-29798794D01*
X26383212Y-29797069D01*
X26378119Y-29796162D01*
X26378116Y-29796161D01*
X26168373Y-29758800D01*
X26168367Y-29758799D01*
X26163284Y-29757894D01*
X26089452Y-29756992D01*
X25945081Y-29755228D01*
X25945079Y-29755228D01*
X25939911Y-29755165D01*
X25719091Y-29788955D01*
X25706532Y-29793060D01*
X25635568Y-29795210D01*
X25578294Y-29762389D01*
X21229266Y-25413361D01*
X27477000Y-25413361D01*
X27481475Y-25428600D01*
X27482865Y-25429805D01*
X27490548Y-25431476D01*
X28162885Y-25431476D01*
X28178124Y-25427001D01*
X28179329Y-25425611D01*
X28181000Y-25417928D01*
X28181000Y-24720591D01*
X28176525Y-24705352D01*
X28175135Y-24704147D01*
X28167452Y-24702476D01*
X28164562Y-24702476D01*
X28158047Y-24702813D01*
X28065943Y-24712370D01*
X28052544Y-24715264D01*
X27903893Y-24764857D01*
X27890714Y-24771031D01*
X27757827Y-24853264D01*
X27746426Y-24862300D01*
X27636014Y-24972905D01*
X27627002Y-24984316D01*
X27544996Y-25117356D01*
X27538849Y-25130537D01*
X27489509Y-25279290D01*
X27486642Y-25292666D01*
X27477328Y-25383573D01*
X27477000Y-25389990D01*
X27477000Y-25413361D01*
X21229266Y-25413361D01*
X20444916Y-24629011D01*
X20410890Y-24566699D01*
X20408011Y-24539916D01*
X20408011Y-13988106D01*
X20428013Y-13919985D01*
X20481669Y-13873492D01*
X20551943Y-13863388D01*
X20616523Y-13892882D01*
X20623106Y-13899011D01*
X22547878Y-15823783D01*
X22581904Y-15886095D01*
X22584093Y-15899706D01*
X22601458Y-16064928D01*
X22660473Y-16246556D01*
X22755960Y-16411944D01*
X22883747Y-16553866D01*
X23038248Y-16666118D01*
X23044276Y-16668802D01*
X23044278Y-16668803D01*
X23206681Y-16741109D01*
X23212712Y-16743794D01*
X23306112Y-16763647D01*
X23393056Y-16782128D01*
X23393061Y-16782128D01*
X23399513Y-16783500D01*
X23590487Y-16783500D01*
X23596939Y-16782128D01*
X23596944Y-16782128D01*
X23683888Y-16763647D01*
X23777288Y-16743794D01*
X23783319Y-16741109D01*
X23945722Y-16668803D01*
X23945724Y-16668802D01*
X23951752Y-16666118D01*
X24106253Y-16553866D01*
X24234040Y-16411944D01*
X24329527Y-16246556D01*
X24388542Y-16064928D01*
X24401411Y-15942491D01*
X24407814Y-15881565D01*
X24408504Y-15875000D01*
X24399664Y-15790890D01*
X24389232Y-15691635D01*
X24389232Y-15691633D01*
X24388542Y-15685072D01*
X24329527Y-15503444D01*
X24325974Y-15497289D01*
X24237341Y-15343774D01*
X24234040Y-15338056D01*
X24160863Y-15256785D01*
X24130147Y-15192779D01*
X24128500Y-15172476D01*
X24128500Y-11744594D01*
X24148502Y-11676473D01*
X24165405Y-11655499D01*
X24355499Y-11465405D01*
X24417811Y-11431379D01*
X24444594Y-11428500D01*
X29522243Y-11428500D01*
X29533426Y-11429027D01*
X29540919Y-11430702D01*
X29548845Y-11430453D01*
X29548846Y-11430453D01*
X29608996Y-11428562D01*
X29612955Y-11428500D01*
X29640866Y-11428500D01*
X29644801Y-11428003D01*
X29644866Y-11427995D01*
X29656703Y-11427062D01*
X29688961Y-11426048D01*
X29692980Y-11425922D01*
X29700899Y-11425673D01*
X29720353Y-11420021D01*
X29739710Y-11416013D01*
X29751940Y-11414468D01*
X29751941Y-11414468D01*
X29759807Y-11413474D01*
X29767178Y-11410555D01*
X29767180Y-11410555D01*
X29800922Y-11397196D01*
X29812152Y-11393351D01*
X29846993Y-11383229D01*
X29846994Y-11383229D01*
X29854603Y-11381018D01*
X29861422Y-11376985D01*
X29861427Y-11376983D01*
X29872038Y-11370707D01*
X29889786Y-11362012D01*
X29908627Y-11354552D01*
X29915617Y-11349474D01*
X29917149Y-11348361D01*
X36502000Y-11348361D01*
X36506475Y-11363600D01*
X36507865Y-11364805D01*
X36515548Y-11366476D01*
X37187885Y-11366476D01*
X37203124Y-11362001D01*
X37204329Y-11360611D01*
X37206000Y-11352928D01*
X37206000Y-10655591D01*
X37201525Y-10640352D01*
X37200135Y-10639147D01*
X37192452Y-10637476D01*
X37189562Y-10637476D01*
X37183047Y-10637813D01*
X37090943Y-10647370D01*
X37077544Y-10650264D01*
X36928893Y-10699857D01*
X36915714Y-10706031D01*
X36782827Y-10788264D01*
X36771426Y-10797300D01*
X36661014Y-10907905D01*
X36652002Y-10919316D01*
X36569996Y-11052356D01*
X36563849Y-11065537D01*
X36514509Y-11214290D01*
X36511642Y-11227666D01*
X36502328Y-11318573D01*
X36502000Y-11324990D01*
X36502000Y-11348361D01*
X29917149Y-11348361D01*
X29944397Y-11328564D01*
X29954317Y-11322048D01*
X29985545Y-11303580D01*
X29985548Y-11303578D01*
X29992372Y-11299542D01*
X30006693Y-11285221D01*
X30021727Y-11272380D01*
X30031704Y-11265131D01*
X30038117Y-11260472D01*
X30066308Y-11226395D01*
X30074298Y-11217616D01*
X32777247Y-8514667D01*
X32785537Y-8507123D01*
X32792018Y-8503010D01*
X32838659Y-8453342D01*
X32841413Y-8450501D01*
X32861134Y-8430780D01*
X32863612Y-8427585D01*
X32871318Y-8418563D01*
X32883693Y-8405385D01*
X32901586Y-8386331D01*
X32911346Y-8368578D01*
X32922199Y-8352055D01*
X32929753Y-8342316D01*
X32934613Y-8336051D01*
X32952176Y-8295467D01*
X32957383Y-8284837D01*
X32978695Y-8246070D01*
X32980666Y-8238393D01*
X32980668Y-8238388D01*
X32983732Y-8226452D01*
X32990138Y-8207740D01*
X32995034Y-8196427D01*
X32998181Y-8189155D01*
X33001864Y-8165905D01*
X33005097Y-8145491D01*
X33007504Y-8133870D01*
X33016528Y-8098721D01*
X33016528Y-8098720D01*
X33018500Y-8091040D01*
X33018500Y-8070779D01*
X33020051Y-8051068D01*
X33021979Y-8038895D01*
X33023219Y-8031067D01*
X33019059Y-7987056D01*
X33018500Y-7975199D01*
X33018500Y-7109500D01*
X33038502Y-7041379D01*
X33092158Y-6994886D01*
X33144500Y-6983500D01*
X36392775Y-6983500D01*
X36460896Y-7003502D01*
X36500551Y-7044229D01*
X36513361Y-7065381D01*
X36634619Y-7186639D01*
X36781301Y-7275472D01*
X36788548Y-7277743D01*
X36788550Y-7277744D01*
X36828122Y-7290145D01*
X36944938Y-7326753D01*
X37018365Y-7333500D01*
X37021263Y-7333500D01*
X37275665Y-7333499D01*
X37531634Y-7333499D01*
X37534492Y-7333236D01*
X37534501Y-7333236D01*
X37570004Y-7329974D01*
X37605062Y-7326753D01*
X37633526Y-7317833D01*
X37761450Y-7277744D01*
X37761452Y-7277743D01*
X37768699Y-7275472D01*
X37915381Y-7186639D01*
X38010905Y-7091115D01*
X38073217Y-7057089D01*
X38144032Y-7062154D01*
X38189095Y-7091115D01*
X38284619Y-7186639D01*
X38431301Y-7275472D01*
X38438548Y-7277743D01*
X38438550Y-7277744D01*
X38478122Y-7290145D01*
X38594938Y-7326753D01*
X38668365Y-7333500D01*
X38686473Y-7333500D01*
X38960405Y-7333499D01*
X39028524Y-7353501D01*
X39049500Y-7370404D01*
X39325733Y-7646638D01*
X39596353Y-7917258D01*
X39603887Y-7925537D01*
X39608000Y-7932018D01*
X39655645Y-7976759D01*
X39657651Y-7978643D01*
X39660493Y-7981398D01*
X39680230Y-8001135D01*
X39683427Y-8003615D01*
X39692447Y-8011318D01*
X39724679Y-8041586D01*
X39731625Y-8045405D01*
X39731628Y-8045407D01*
X39742434Y-8051348D01*
X39758953Y-8062199D01*
X39774959Y-8074614D01*
X39782228Y-8077759D01*
X39782232Y-8077762D01*
X39815537Y-8092174D01*
X39826187Y-8097391D01*
X39864940Y-8118695D01*
X39872615Y-8120666D01*
X39872616Y-8120666D01*
X39884562Y-8123733D01*
X39903266Y-8130137D01*
X39911893Y-8133870D01*
X39921855Y-8138181D01*
X39929678Y-8139420D01*
X39929688Y-8139423D01*
X39965524Y-8145099D01*
X39977144Y-8147505D01*
X40012289Y-8156528D01*
X40019970Y-8158500D01*
X40040224Y-8158500D01*
X40059934Y-8160051D01*
X40079943Y-8163220D01*
X40087835Y-8162474D01*
X40095758Y-8162723D01*
X40095654Y-8166021D01*
X40150495Y-8176657D01*
X40199771Y-8222279D01*
X40216522Y-8249348D01*
X40341697Y-8374305D01*
X40412648Y-8418040D01*
X40460140Y-8470811D01*
X40471564Y-8540883D01*
X40443290Y-8606006D01*
X40412834Y-8632443D01*
X40347193Y-8673063D01*
X40335792Y-8682099D01*
X40221261Y-8796829D01*
X40212249Y-8808240D01*
X40127184Y-8946243D01*
X40121037Y-8959424D01*
X40069862Y-9113710D01*
X40066995Y-9127086D01*
X40057328Y-9221438D01*
X40057000Y-9227855D01*
X40057000Y-9252885D01*
X40061475Y-9268124D01*
X40062865Y-9269329D01*
X40070548Y-9271000D01*
X46554884Y-9271000D01*
X46570123Y-9266525D01*
X46571328Y-9265135D01*
X46572999Y-9257452D01*
X46572999Y-9227905D01*
X46572662Y-9221386D01*
X46562743Y-9125794D01*
X46559851Y-9112400D01*
X46508412Y-8958216D01*
X46502239Y-8945038D01*
X46416937Y-8807193D01*
X46407901Y-8795792D01*
X46293171Y-8681261D01*
X46281760Y-8672249D01*
X46217354Y-8632549D01*
X46169861Y-8579777D01*
X46158437Y-8509706D01*
X46186711Y-8444582D01*
X46217167Y-8418145D01*
X46217339Y-8418039D01*
X46289348Y-8373478D01*
X46320020Y-8342753D01*
X46409134Y-8253483D01*
X46414305Y-8248303D01*
X46418679Y-8241207D01*
X46503275Y-8103968D01*
X46503276Y-8103966D01*
X46507115Y-8097738D01*
X46539157Y-8001135D01*
X46560632Y-7936389D01*
X46560632Y-7936387D01*
X46562797Y-7929861D01*
X46564089Y-7917258D01*
X46571658Y-7843380D01*
X46573500Y-7825400D01*
X46573500Y-7224600D01*
X46569970Y-7190576D01*
X46563238Y-7125692D01*
X46563237Y-7125688D01*
X46562526Y-7118834D01*
X46558853Y-7107823D01*
X46508868Y-6958002D01*
X46506550Y-6951054D01*
X46413478Y-6800652D01*
X46288303Y-6675695D01*
X46272995Y-6666259D01*
X46225502Y-6613487D01*
X46214078Y-6543415D01*
X46242352Y-6478291D01*
X46301346Y-6438792D01*
X46339111Y-6432999D01*
X46862095Y-6432999D01*
X46868614Y-6432662D01*
X46964206Y-6422743D01*
X46977600Y-6419851D01*
X47131784Y-6368412D01*
X47144962Y-6362239D01*
X47282807Y-6276937D01*
X47294208Y-6267901D01*
X47408739Y-6153171D01*
X47417751Y-6141760D01*
X47502816Y-6003757D01*
X47508963Y-5990576D01*
X47560138Y-5836290D01*
X47563005Y-5822914D01*
X47572672Y-5728561D01*
X47573000Y-5722146D01*
X47573000Y-5397115D01*
X47568525Y-5381876D01*
X47567135Y-5380671D01*
X47559452Y-5379000D01*
X43575116Y-5379000D01*
X43559877Y-5383475D01*
X43558672Y-5384865D01*
X43557001Y-5392548D01*
X43557001Y-5722095D01*
X43557338Y-5728614D01*
X43567257Y-5824206D01*
X43570149Y-5837600D01*
X43621588Y-5991784D01*
X43627761Y-6004962D01*
X43713063Y-6142807D01*
X43722099Y-6154208D01*
X43836829Y-6268739D01*
X43848240Y-6277751D01*
X43857145Y-6283240D01*
X43904638Y-6336012D01*
X43916062Y-6406084D01*
X43887788Y-6471208D01*
X43828794Y-6510707D01*
X43791029Y-6516500D01*
X40764600Y-6516500D01*
X40761354Y-6516837D01*
X40761350Y-6516837D01*
X40665692Y-6526762D01*
X40665688Y-6526763D01*
X40658834Y-6527474D01*
X40652298Y-6529655D01*
X40652296Y-6529655D01*
X40520194Y-6573728D01*
X40491054Y-6583450D01*
X40340652Y-6676522D01*
X40335479Y-6681704D01*
X40333219Y-6683968D01*
X40331292Y-6685022D01*
X40329742Y-6686251D01*
X40329532Y-6685986D01*
X40270937Y-6718047D01*
X40200117Y-6713044D01*
X40154951Y-6684045D01*
X39870405Y-6399499D01*
X39836379Y-6337187D01*
X39833500Y-6310404D01*
X39833499Y-6021249D01*
X39833499Y-6018366D01*
X39833193Y-6015027D01*
X39829114Y-5970635D01*
X39826753Y-5944938D01*
X39823241Y-5933730D01*
X39777744Y-5788550D01*
X39777743Y-5788548D01*
X39775472Y-5781301D01*
X39686639Y-5634619D01*
X39595405Y-5543385D01*
X39561379Y-5481073D01*
X39558500Y-5454290D01*
X39558500Y-5340710D01*
X39578502Y-5272589D01*
X39595405Y-5251615D01*
X39686639Y-5160381D01*
X39775472Y-5013699D01*
X39786274Y-4979232D01*
X39805046Y-4919329D01*
X39825868Y-4852885D01*
X43557000Y-4852885D01*
X43561475Y-4868124D01*
X43562865Y-4869329D01*
X43570548Y-4871000D01*
X45292885Y-4871000D01*
X45308124Y-4866525D01*
X45309329Y-4865135D01*
X45311000Y-4857452D01*
X45311000Y-4852885D01*
X45819000Y-4852885D01*
X45823475Y-4868124D01*
X45824865Y-4869329D01*
X45832548Y-4871000D01*
X47554884Y-4871000D01*
X47570123Y-4866525D01*
X47571328Y-4865135D01*
X47572999Y-4857452D01*
X47572999Y-4527905D01*
X47572662Y-4521386D01*
X47562743Y-4425794D01*
X47559851Y-4412400D01*
X47508412Y-4258216D01*
X47502239Y-4245038D01*
X47416937Y-4107193D01*
X47407901Y-4095792D01*
X47293171Y-3981261D01*
X47281760Y-3972249D01*
X47143757Y-3887184D01*
X47130576Y-3881037D01*
X46976290Y-3829862D01*
X46962914Y-3826995D01*
X46868562Y-3817328D01*
X46862145Y-3817000D01*
X45837115Y-3817000D01*
X45821876Y-3821475D01*
X45820671Y-3822865D01*
X45819000Y-3830548D01*
X45819000Y-4852885D01*
X45311000Y-4852885D01*
X45311000Y-3835116D01*
X45306525Y-3819877D01*
X45305135Y-3818672D01*
X45297452Y-3817001D01*
X44267905Y-3817001D01*
X44261386Y-3817338D01*
X44165794Y-3827257D01*
X44152400Y-3830149D01*
X43998216Y-3881588D01*
X43985038Y-3887761D01*
X43847193Y-3973063D01*
X43835792Y-3982099D01*
X43721261Y-4096829D01*
X43712249Y-4108240D01*
X43627184Y-4246243D01*
X43621037Y-4259424D01*
X43569862Y-4413710D01*
X43566995Y-4427086D01*
X43557328Y-4521438D01*
X43557000Y-4527855D01*
X43557000Y-4852885D01*
X39825868Y-4852885D01*
X39826753Y-4850062D01*
X39833500Y-4776635D01*
X39833499Y-4113366D01*
X39831885Y-4095792D01*
X39827364Y-4046592D01*
X39826753Y-4039938D01*
X39805796Y-3973063D01*
X39777744Y-3883550D01*
X39777743Y-3883548D01*
X39775472Y-3876301D01*
X39686639Y-3729619D01*
X39565381Y-3608361D01*
X39418699Y-3519528D01*
X39411452Y-3517257D01*
X39411450Y-3517256D01*
X39305125Y-3483936D01*
X39255062Y-3468247D01*
X39181635Y-3461500D01*
X39178737Y-3461500D01*
X38924335Y-3461501D01*
X38668366Y-3461501D01*
X38665508Y-3461764D01*
X38665499Y-3461764D01*
X38629996Y-3465026D01*
X38594938Y-3468247D01*
X38588560Y-3470246D01*
X38588559Y-3470246D01*
X38438550Y-3517256D01*
X38438548Y-3517257D01*
X38431301Y-3519528D01*
X38284619Y-3608361D01*
X38189095Y-3703885D01*
X38126783Y-3737911D01*
X38055968Y-3732846D01*
X38010905Y-3703885D01*
X37915381Y-3608361D01*
X37768699Y-3519528D01*
X37761452Y-3517257D01*
X37761450Y-3517256D01*
X37655125Y-3483936D01*
X37605062Y-3468247D01*
X37531635Y-3461500D01*
X37513527Y-3461500D01*
X37239596Y-3461501D01*
X37171477Y-3441499D01*
X37150502Y-3424596D01*
X37143648Y-3417742D01*
X37136113Y-3409462D01*
X37132000Y-3402982D01*
X37082348Y-3356356D01*
X37079507Y-3353602D01*
X37059770Y-3333865D01*
X37056573Y-3331385D01*
X37047551Y-3323680D01*
X37021100Y-3298841D01*
X37015321Y-3293414D01*
X37008375Y-3289595D01*
X37008372Y-3289593D01*
X36997566Y-3283652D01*
X36981047Y-3272801D01*
X36980583Y-3272441D01*
X36965041Y-3260386D01*
X36957772Y-3257241D01*
X36957768Y-3257238D01*
X36924463Y-3242826D01*
X36913813Y-3237609D01*
X36875060Y-3216305D01*
X36855437Y-3211267D01*
X36836734Y-3204863D01*
X36825420Y-3199967D01*
X36825419Y-3199967D01*
X36818145Y-3196819D01*
X36810322Y-3195580D01*
X36810312Y-3195577D01*
X36774476Y-3189901D01*
X36762856Y-3187495D01*
X36727711Y-3178472D01*
X36727710Y-3178472D01*
X36720030Y-3176500D01*
X36699776Y-3176500D01*
X36680065Y-3174949D01*
X36667886Y-3173020D01*
X36660057Y-3171780D01*
X36652165Y-3172526D01*
X36616039Y-3175941D01*
X36604181Y-3176500D01*
X31121805Y-3176500D01*
X31053684Y-3156498D01*
X31016013Y-3118940D01*
X30973894Y-3053834D01*
X30925014Y-2978277D01*
X30919466Y-2972180D01*
X30886306Y-2935737D01*
X30855254Y-2871891D01*
X30853500Y-2850938D01*
X30853500Y-2669769D01*
X30854237Y-2656161D01*
X30857659Y-2624658D01*
X30858325Y-2618531D01*
X30853947Y-2568489D01*
X30853621Y-2563707D01*
X30853500Y-2561229D01*
X30853500Y-2558150D01*
X30853201Y-2555096D01*
X30853200Y-2555085D01*
X30849313Y-2515448D01*
X30849191Y-2514134D01*
X30844609Y-2461762D01*
X30841087Y-2421506D01*
X30839600Y-2416387D01*
X30839080Y-2411086D01*
X30812209Y-2322085D01*
X30811874Y-2320952D01*
X30787630Y-2237505D01*
X30787628Y-2237501D01*
X30785909Y-2231583D01*
X30783456Y-2226851D01*
X30781916Y-2221750D01*
X30738269Y-2139659D01*
X30737657Y-2138493D01*
X30697729Y-2061466D01*
X30694892Y-2055993D01*
X30691569Y-2051830D01*
X30689066Y-2047123D01*
X30675448Y-2030425D01*
X30630261Y-1975021D01*
X30629433Y-1973994D01*
X30600469Y-1937711D01*
X30600464Y-1937706D01*
X30598262Y-1934947D01*
X30595761Y-1932446D01*
X30595119Y-1931728D01*
X30591406Y-1927380D01*
X30583642Y-1917860D01*
X30564065Y-1893857D01*
X30559323Y-1889934D01*
X30559321Y-1889932D01*
X30528727Y-1864622D01*
X30519947Y-1856632D01*
X28796018Y-132703D01*
X42975743Y-132703D01*
X42976302Y-136947D01*
X42976302Y-136951D01*
X42985313Y-205398D01*
X43013268Y-417734D01*
X43089129Y-695036D01*
X43090813Y-698984D01*
X43103146Y-727897D01*
X43201923Y-959476D01*
X43349561Y-1206161D01*
X43529313Y-1430528D01*
X43737851Y-1628423D01*
X43971317Y-1796186D01*
X43975112Y-1798195D01*
X43975113Y-1798196D01*
X43996869Y-1809715D01*
X44225392Y-1930712D01*
X44495373Y-2029511D01*
X44776264Y-2090755D01*
X44804841Y-2093004D01*
X44999282Y-2108307D01*
X44999291Y-2108307D01*
X45001739Y-2108500D01*
X45157271Y-2108500D01*
X45159407Y-2108354D01*
X45159418Y-2108354D01*
X45367548Y-2094165D01*
X45367554Y-2094164D01*
X45371825Y-2093873D01*
X45376020Y-2093004D01*
X45376022Y-2093004D01*
X45595584Y-2047535D01*
X45653342Y-2035574D01*
X45924343Y-1939607D01*
X46179812Y-1807750D01*
X46183313Y-1805289D01*
X46183317Y-1805287D01*
X46297417Y-1725096D01*
X46415023Y-1642441D01*
X46625622Y-1446740D01*
X46807713Y-1224268D01*
X46957927Y-979142D01*
X47073483Y-715898D01*
X47083161Y-681925D01*
X47151068Y-443534D01*
X47152244Y-439406D01*
X47192751Y-154784D01*
X47192845Y-136951D01*
X47194235Y128417D01*
X47194235Y128424D01*
X47194257Y132703D01*
X47156732Y417734D01*
X47142455Y469924D01*
X47082003Y690897D01*
X47080871Y695036D01*
X47070295Y719830D01*
X46969763Y955524D01*
X46969761Y955528D01*
X46968077Y959476D01*
X46820439Y1206161D01*
X46640687Y1430528D01*
X46432149Y1628423D01*
X46198683Y1796186D01*
X46176843Y1807750D01*
X46153654Y1820028D01*
X45944608Y1930712D01*
X45674627Y2029511D01*
X45393736Y2090755D01*
X45362685Y2093199D01*
X45170718Y2108307D01*
X45170709Y2108307D01*
X45168261Y2108500D01*
X45012729Y2108500D01*
X45010593Y2108354D01*
X45010582Y2108354D01*
X44802452Y2094165D01*
X44802446Y2094164D01*
X44798175Y2093873D01*
X44793980Y2093004D01*
X44793978Y2093004D01*
X44657417Y2064724D01*
X44516658Y2035574D01*
X44245657Y1939607D01*
X43990188Y1807750D01*
X43986687Y1805289D01*
X43986683Y1805287D01*
X43976594Y1798196D01*
X43754977Y1642441D01*
X43544378Y1446740D01*
X43362287Y1224268D01*
X43212073Y979142D01*
X43096517Y715898D01*
X43017756Y439406D01*
X42977249Y154784D01*
X42977227Y150495D01*
X42977226Y150488D01*
X42975765Y-128417D01*
X42975743Y-132703D01*
X28796018Y-132703D01*
X28193391Y469924D01*
X25576409Y3086905D01*
X25542383Y3149217D01*
X25547448Y3220032D01*
X25589995Y3276868D01*
X25656515Y3301679D01*
X25665504Y3302000D01*
X45035672Y3302000D01*
X45055057Y3300500D01*
G37*
%TD.AperFunction*%
%TA.AperFunction,Conductor*%
G36*
X2750741Y3281998D02*
G01*
X2797234Y3228342D01*
X2807975Y3163269D01*
X2807218Y3155815D01*
X2807089Y3154604D01*
X2801500Y3104773D01*
X2801500Y3101246D01*
X2801445Y3100261D01*
X2800998Y3094581D01*
X2796626Y3051538D01*
X2797206Y3045407D01*
X2800941Y3005891D01*
X2801500Y2994033D01*
X2801500Y469924D01*
X2781498Y401803D01*
X2764595Y380829D01*
X2323811Y-59955D01*
X2261499Y-93981D01*
X2190684Y-88916D01*
X2133848Y-46369D01*
X2109037Y20151D01*
X2108718Y29800D01*
X2109235Y128417D01*
X2109235Y128424D01*
X2109257Y132703D01*
X2071732Y417734D01*
X2057455Y469924D01*
X1997003Y690897D01*
X1995871Y695036D01*
X1985295Y719830D01*
X1884763Y955524D01*
X1884761Y955528D01*
X1883077Y959476D01*
X1735439Y1206161D01*
X1555687Y1430528D01*
X1347149Y1628423D01*
X1113683Y1796186D01*
X1091843Y1807750D01*
X1068654Y1820028D01*
X859608Y1930712D01*
X589627Y2029511D01*
X308736Y2090755D01*
X277685Y2093199D01*
X85718Y2108307D01*
X85709Y2108307D01*
X83261Y2108500D01*
X-72271Y2108500D01*
X-74407Y2108354D01*
X-74418Y2108354D01*
X-282548Y2094165D01*
X-282554Y2094164D01*
X-286825Y2093873D01*
X-291020Y2093004D01*
X-291022Y2093004D01*
X-427584Y2064723D01*
X-568342Y2035574D01*
X-839343Y1939607D01*
X-1094812Y1807750D01*
X-1098313Y1805289D01*
X-1098317Y1805287D01*
X-1108406Y1798196D01*
X-1330023Y1642441D01*
X-1540622Y1446740D01*
X-1722713Y1224268D01*
X-1872927Y979142D01*
X-1988483Y715898D01*
X-2067244Y439406D01*
X-2107751Y154784D01*
X-2107773Y150495D01*
X-2107774Y150488D01*
X-2109235Y-128417D01*
X-2109257Y-132703D01*
X-2108698Y-136947D01*
X-2108698Y-136951D01*
X-2099687Y-205398D01*
X-2071732Y-417734D01*
X-1995871Y-695036D01*
X-1994187Y-698984D01*
X-1981854Y-727897D01*
X-1883077Y-959476D01*
X-1735439Y-1206161D01*
X-1555687Y-1430528D01*
X-1347149Y-1628423D01*
X-1113683Y-1796186D01*
X-1109888Y-1798195D01*
X-1109887Y-1798196D01*
X-1088131Y-1809715D01*
X-859608Y-1930712D01*
X-589627Y-2029511D01*
X-308736Y-2090755D01*
X-280159Y-2093004D01*
X-85718Y-2108307D01*
X-85709Y-2108307D01*
X-83261Y-2108500D01*
X-28924Y-2108500D01*
X39197Y-2128502D01*
X85690Y-2182158D01*
X95794Y-2252432D01*
X66300Y-2317012D01*
X60171Y-2323595D01*
X-389868Y-2773634D01*
X-400011Y-2782736D01*
X-429514Y-2806457D01*
X-433481Y-2811185D01*
X-461780Y-2844910D01*
X-464961Y-2848558D01*
X-466604Y-2850370D01*
X-468798Y-2852564D01*
X-496131Y-2885838D01*
X-496793Y-2886636D01*
X-556643Y-2957963D01*
X-559211Y-2962633D01*
X-562592Y-2966750D01*
X-593629Y-3024634D01*
X-606466Y-3048575D01*
X-607095Y-3049734D01*
X-648951Y-3125870D01*
X-648954Y-3125878D01*
X-651922Y-3131276D01*
X-653534Y-3136358D01*
X-656051Y-3141052D01*
X-683251Y-3230020D01*
X-683571Y-3231048D01*
X-711724Y-3319795D01*
X-712318Y-3325091D01*
X-713876Y-3330187D01*
X-721270Y-3402982D01*
X-723271Y-3422676D01*
X-723400Y-3423882D01*
X-727170Y-3457497D01*
X-727648Y-3461764D01*
X-728989Y-3473716D01*
X-728989Y-3477243D01*
X-729044Y-3478228D01*
X-729491Y-3483908D01*
X-733863Y-3526951D01*
X-733283Y-3533082D01*
X-729548Y-3572598D01*
X-728989Y-3584456D01*
X-728989Y-5562057D01*
X-748991Y-5630178D01*
X-802647Y-5676671D01*
X-872921Y-5686775D01*
X-897044Y-5680831D01*
X-921788Y-5672069D01*
X-926877Y-5671162D01*
X-926879Y-5671162D01*
X-1136627Y-5633800D01*
X-1136633Y-5633799D01*
X-1141716Y-5632894D01*
X-1215548Y-5631992D01*
X-1359919Y-5630228D01*
X-1359921Y-5630228D01*
X-1365089Y-5630165D01*
X-1585909Y-5663955D01*
X-1798244Y-5733357D01*
X-1802836Y-5735747D01*
X-1802835Y-5735747D01*
X-1916864Y-5795107D01*
X-1996393Y-5836507D01*
X-2000526Y-5839610D01*
X-2000529Y-5839612D01*
X-2170900Y-5967530D01*
X-2175035Y-5970635D01*
X-2182052Y-5977978D01*
X-2307783Y-6109548D01*
X-2329371Y-6132138D01*
X-2332285Y-6136410D01*
X-2332286Y-6136411D01*
X-2383670Y-6211737D01*
X-2455257Y-6316680D01*
X-2478128Y-6365951D01*
X-2520335Y-6456880D01*
X-2549312Y-6519305D01*
X-2609011Y-6734570D01*
X-2632749Y-6956695D01*
X-2632452Y-6961848D01*
X-2632452Y-6961851D01*
X-2621564Y-7150689D01*
X-2619890Y-7179715D01*
X-2618753Y-7184761D01*
X-2618752Y-7184767D01*
X-2599197Y-7271537D01*
X-2570778Y-7397639D01*
X-2516965Y-7530165D01*
X-2501559Y-7568105D01*
X-2486734Y-7604616D01*
X-2460983Y-7646638D01*
X-2375882Y-7785510D01*
X-2370013Y-7795088D01*
X-2223750Y-7963938D01*
X-2219775Y-7967238D01*
X-2219769Y-7967244D01*
X-2214575Y-7971556D01*
X-2174941Y-8030460D01*
X-2173445Y-8101441D01*
X-2210561Y-8161962D01*
X-2250832Y-8186480D01*
X-2358054Y-8226676D01*
X-2373649Y-8235214D01*
X-2475724Y-8311715D01*
X-2488285Y-8324276D01*
X-2564786Y-8426351D01*
X-2573324Y-8441946D01*
X-2618478Y-8562394D01*
X-2622105Y-8577649D01*
X-2627631Y-8628514D01*
X-2628000Y-8635328D01*
X-2628000Y-9257885D01*
X-2623525Y-9273124D01*
X-2622135Y-9274329D01*
X-2614452Y-9276000D01*
X-1142000Y-9276000D01*
X-1073879Y-9296002D01*
X-1027386Y-9349658D01*
X-1016000Y-9402000D01*
X-1016000Y-10869884D01*
X-1011525Y-10885123D01*
X-1010135Y-10886328D01*
X-1002452Y-10887999D01*
X-854989Y-10887999D01*
X-786868Y-10908001D01*
X-740375Y-10961657D01*
X-728989Y-11013999D01*
X-728989Y-14447587D01*
X-748991Y-14515708D01*
X-802647Y-14562201D01*
X-872921Y-14572305D01*
X-897049Y-14566360D01*
X-917041Y-14559280D01*
X-927012Y-14556646D01*
X-998163Y-14543972D01*
X-1011460Y-14545432D01*
X-1016000Y-14559989D01*
X-1016000Y-16003000D01*
X-1036002Y-16071121D01*
X-1089658Y-16117614D01*
X-1142000Y-16129000D01*
X-2586775Y-16129000D01*
X-2600306Y-16132973D01*
X-2601743Y-16142966D01*
X-2571435Y-16277446D01*
X-2568355Y-16287275D01*
X-2488230Y-16484603D01*
X-2483587Y-16493794D01*
X-2372306Y-16675388D01*
X-2366223Y-16683699D01*
X-2226787Y-16844667D01*
X-2219420Y-16851883D01*
X-2055566Y-16987916D01*
X-2047119Y-16993831D01*
X-1978031Y-17034203D01*
X-1929307Y-17085842D01*
X-1916236Y-17155625D01*
X-1942967Y-17221396D01*
X-1983416Y-17254752D01*
X-1996393Y-17261507D01*
X-2000526Y-17264610D01*
X-2000529Y-17264612D01*
X-2123601Y-17357017D01*
X-2175035Y-17395635D01*
X-2205903Y-17427936D01*
X-2262109Y-17486753D01*
X-2329371Y-17557138D01*
X-2332285Y-17561410D01*
X-2332286Y-17561411D01*
X-2392500Y-17649681D01*
X-2455257Y-17741680D01*
X-2488285Y-17812834D01*
X-2532743Y-17908611D01*
X-2549312Y-17944305D01*
X-2609011Y-18159570D01*
X-2632749Y-18381695D01*
X-2632452Y-18386848D01*
X-2632452Y-18386851D01*
X-2622133Y-18565821D01*
X-2619890Y-18604715D01*
X-2618753Y-18609761D01*
X-2618752Y-18609767D01*
X-2596254Y-18709595D01*
X-2570778Y-18822639D01*
X-2486734Y-19029616D01*
X-2370013Y-19220088D01*
X-2223750Y-19388938D01*
X-2219770Y-19392242D01*
X-2215019Y-19396187D01*
X-2175384Y-19455090D01*
X-2173887Y-19526071D01*
X-2211003Y-19586593D01*
X-2251275Y-19611112D01*
X-2266997Y-19617006D01*
X-2366705Y-19654385D01*
X-2483261Y-19741739D01*
X-2570615Y-19858295D01*
X-2621745Y-19994684D01*
X-2628500Y-20056866D01*
X-2628500Y-21853134D01*
X-2621745Y-21915316D01*
X-2570615Y-22051705D01*
X-2483261Y-22168261D01*
X-2366705Y-22255615D01*
X-2350038Y-22261863D01*
X-2293274Y-22304506D01*
X-2268575Y-22371067D01*
X-2283783Y-22440416D01*
X-2305171Y-22468937D01*
X-3086905Y-23250671D01*
X-3149217Y-23284697D01*
X-3220032Y-23279632D01*
X-3276868Y-23237085D01*
X-3301679Y-23170565D01*
X-3302000Y-23161576D01*
X-3302000Y-15609183D01*
X-2605611Y-15609183D01*
X-2604088Y-15617607D01*
X-2591708Y-15621000D01*
X-1542115Y-15621000D01*
X-1526876Y-15616525D01*
X-1525671Y-15615135D01*
X-1524000Y-15607452D01*
X-1524000Y-14558102D01*
X-1527918Y-14544758D01*
X-1542194Y-14542771D01*
X-1580676Y-14548660D01*
X-1590712Y-14551051D01*
X-1793132Y-14617212D01*
X-1802641Y-14621209D01*
X-1991537Y-14719542D01*
X-2000262Y-14725036D01*
X-2170567Y-14852905D01*
X-2178274Y-14859748D01*
X-2325410Y-15013717D01*
X-2331896Y-15021727D01*
X-2451902Y-15197649D01*
X-2457000Y-15206623D01*
X-2546662Y-15399783D01*
X-2550225Y-15409470D01*
X-2605611Y-15609183D01*
X-3302000Y-15609183D01*
X-3302000Y-10424669D01*
X-2627999Y-10424669D01*
X-2627629Y-10431490D01*
X-2622105Y-10482352D01*
X-2618479Y-10497604D01*
X-2573324Y-10618054D01*
X-2564786Y-10633649D01*
X-2488285Y-10735724D01*
X-2475724Y-10748285D01*
X-2373649Y-10824786D01*
X-2358054Y-10833324D01*
X-2237606Y-10878478D01*
X-2222351Y-10882105D01*
X-2171486Y-10887631D01*
X-2164672Y-10888000D01*
X-1542115Y-10888000D01*
X-1526876Y-10883525D01*
X-1525671Y-10882135D01*
X-1524000Y-10874452D01*
X-1524000Y-9802115D01*
X-1528475Y-9786876D01*
X-1529865Y-9785671D01*
X-1537548Y-9784000D01*
X-2609884Y-9784000D01*
X-2625123Y-9788475D01*
X-2626328Y-9789865D01*
X-2627999Y-9797548D01*
X-2627999Y-10424669D01*
X-3302000Y-10424669D01*
X-3302000Y-49328D01*
X-3300500Y-29943D01*
X-3298195Y-15142D01*
X-3298195Y-15139D01*
X-3296814Y-6270D01*
X-3299257Y12411D01*
X-3300148Y35343D01*
X-3299764Y42670D01*
X-3284257Y338557D01*
X-3282879Y351671D01*
X-3271759Y421876D01*
X-3230877Y680002D01*
X-3228135Y692902D01*
X-3142097Y1014000D01*
X-3138021Y1026544D01*
X-3018895Y1336876D01*
X-3013531Y1348924D01*
X-2862612Y1645120D01*
X-2856018Y1656541D01*
X-2674967Y1935334D01*
X-2667221Y1945996D01*
X-2600786Y2028036D01*
X-2458015Y2204345D01*
X-2449190Y2214145D01*
X-2214145Y2449190D01*
X-2204344Y2458016D01*
X-1945996Y2667221D01*
X-1935334Y2674967D01*
X-1656536Y2856021D01*
X-1645120Y2862612D01*
X-1348924Y3013531D01*
X-1336876Y3018895D01*
X-1267810Y3045407D01*
X-1026536Y3138023D01*
X-1014000Y3142097D01*
X-692902Y3228135D01*
X-680002Y3230877D01*
X-569984Y3248302D01*
X-351665Y3282880D01*
X-338557Y3284257D01*
X-42666Y3299764D01*
X-16688Y3298436D01*
X-15144Y3298195D01*
X-15140Y3298195D01*
X-6270Y3296814D01*
X2632Y3297978D01*
X2635Y3297978D01*
X25251Y3300936D01*
X41589Y3302000D01*
X2682620Y3302000D01*
X2750741Y3281998D01*
G37*
%TD.AperFunction*%
%TA.AperFunction,Conductor*%
G36*
X1496523Y-7472881D02*
G01*
X1503106Y-7479010D01*
X2415863Y-8391767D01*
X2423407Y-8400057D01*
X2427520Y-8406538D01*
X2433297Y-8411963D01*
X2477187Y-8453178D01*
X2480029Y-8455933D01*
X2499751Y-8475655D01*
X2502875Y-8478078D01*
X2502879Y-8478082D01*
X2502944Y-8478132D01*
X2511965Y-8485837D01*
X2544199Y-8516106D01*
X2551147Y-8519925D01*
X2551149Y-8519927D01*
X2561952Y-8525866D01*
X2578479Y-8536722D01*
X2588218Y-8544277D01*
X2588220Y-8544278D01*
X2594480Y-8549134D01*
X2635060Y-8566694D01*
X2645708Y-8571911D01*
X2671884Y-8586301D01*
X2684460Y-8593215D01*
X2692136Y-8595186D01*
X2692139Y-8595187D01*
X2704082Y-8598253D01*
X2722786Y-8604657D01*
X2725904Y-8606006D01*
X2741375Y-8612701D01*
X2749198Y-8613940D01*
X2749208Y-8613943D01*
X2785044Y-8619619D01*
X2796664Y-8622025D01*
X2831809Y-8631048D01*
X2839490Y-8633020D01*
X2859744Y-8633020D01*
X2879454Y-8634571D01*
X2899463Y-8637740D01*
X2907355Y-8636994D01*
X2943481Y-8633579D01*
X2955339Y-8633020D01*
X5181836Y-8633020D01*
X5249957Y-8653022D01*
X5296450Y-8706678D01*
X5306554Y-8776952D01*
X5301429Y-8798687D01*
X5279863Y-8863707D01*
X5276995Y-8877086D01*
X5267328Y-8971438D01*
X5267000Y-8977855D01*
X5267000Y-9302885D01*
X5271475Y-9318124D01*
X5272865Y-9319329D01*
X5280548Y-9321000D01*
X9263386Y-9321000D01*
X9331507Y-9341002D01*
X9352481Y-9357905D01*
X9934595Y-9940019D01*
X9968621Y-10002331D01*
X9971500Y-10029114D01*
X9971500Y-10788290D01*
X9951498Y-10856411D01*
X9934595Y-10877385D01*
X9843361Y-10968619D01*
X9754528Y-11115301D01*
X9752257Y-11122548D01*
X9752256Y-11122550D01*
X9740487Y-11160106D01*
X9703247Y-11278938D01*
X9696500Y-11352365D01*
X9696501Y-12015634D01*
X9696764Y-12018492D01*
X9696764Y-12018501D01*
X9700026Y-12054004D01*
X9703247Y-12089062D01*
X9705246Y-12095440D01*
X9705246Y-12095441D01*
X9751198Y-12242072D01*
X9754528Y-12252699D01*
X9758462Y-12259195D01*
X9758463Y-12259197D01*
X9829030Y-12375718D01*
X9847209Y-12444348D01*
X9825398Y-12511911D01*
X9770522Y-12556957D01*
X9721254Y-12566989D01*
X9097711Y-12566989D01*
X9029590Y-12546987D01*
X9010364Y-12530646D01*
X9010091Y-12530949D01*
X9005179Y-12526526D01*
X9000764Y-12521623D01*
X8944485Y-12480734D01*
X8851605Y-12413252D01*
X8851604Y-12413251D01*
X8846263Y-12409371D01*
X8840235Y-12406687D01*
X8840233Y-12406686D01*
X8677830Y-12334380D01*
X8677829Y-12334380D01*
X8671799Y-12331695D01*
X8578399Y-12311842D01*
X8491455Y-12293361D01*
X8491450Y-12293361D01*
X8484998Y-12291989D01*
X8294024Y-12291989D01*
X8287572Y-12293361D01*
X8287567Y-12293361D01*
X8200623Y-12311842D01*
X8107223Y-12331695D01*
X8101193Y-12334380D01*
X8101192Y-12334380D01*
X7938789Y-12406686D01*
X7938787Y-12406687D01*
X7932759Y-12409371D01*
X7927418Y-12413251D01*
X7927417Y-12413252D01*
X7889177Y-12441035D01*
X7778258Y-12521623D01*
X7773837Y-12526533D01*
X7773836Y-12526534D01*
X7660637Y-12652255D01*
X7650471Y-12663545D01*
X7554984Y-12828933D01*
X7495969Y-13010561D01*
X7495279Y-13017122D01*
X7495279Y-13017124D01*
X7484423Y-13120414D01*
X7476007Y-13200489D01*
X7476697Y-13207054D01*
X7490896Y-13342146D01*
X7495969Y-13390417D01*
X7554984Y-13572045D01*
X7650471Y-13737433D01*
X7654889Y-13742340D01*
X7654890Y-13742341D01*
X7683583Y-13774208D01*
X7778258Y-13879355D01*
X7783600Y-13883236D01*
X7783602Y-13883238D01*
X7791174Y-13888739D01*
X7811293Y-13903356D01*
X7818461Y-13908564D01*
X7861815Y-13964786D01*
X7867890Y-14035522D01*
X7834759Y-14098314D01*
X7772939Y-14133225D01*
X7744400Y-14136500D01*
X5738737Y-14136500D01*
X5670616Y-14116498D01*
X5624123Y-14062842D01*
X5614019Y-13992568D01*
X5643513Y-13927988D01*
X5672434Y-13903356D01*
X5682807Y-13896937D01*
X5694208Y-13887901D01*
X5808739Y-13773171D01*
X5817751Y-13761760D01*
X5902816Y-13623757D01*
X5908963Y-13610576D01*
X5960138Y-13456290D01*
X5963005Y-13442914D01*
X5972672Y-13348562D01*
X5973000Y-13342146D01*
X5973000Y-13017115D01*
X5968525Y-13001876D01*
X5967135Y-13000671D01*
X5959452Y-12999000D01*
X1975116Y-12999000D01*
X1959877Y-13003475D01*
X1958672Y-13004865D01*
X1957001Y-13012548D01*
X1957001Y-13342095D01*
X1957338Y-13348614D01*
X1967257Y-13444206D01*
X1970149Y-13457600D01*
X2021588Y-13611784D01*
X2027761Y-13624962D01*
X2113063Y-13762807D01*
X2122099Y-13774208D01*
X2236829Y-13888739D01*
X2248240Y-13897751D01*
X2386243Y-13982816D01*
X2399424Y-13988963D01*
X2553710Y-14040138D01*
X2567086Y-14043005D01*
X2661438Y-14052672D01*
X2667854Y-14053000D01*
X3191120Y-14053000D01*
X3259241Y-14073002D01*
X3305734Y-14126658D01*
X3315838Y-14196932D01*
X3286344Y-14261512D01*
X3257425Y-14286143D01*
X3240652Y-14296522D01*
X3115695Y-14421697D01*
X3111855Y-14427927D01*
X3111854Y-14427928D01*
X3029087Y-14562201D01*
X3022885Y-14572262D01*
X2996436Y-14652005D01*
X2974035Y-14719542D01*
X2967203Y-14740139D01*
X2956500Y-14844600D01*
X2956500Y-15445400D01*
X2956837Y-15448646D01*
X2956837Y-15448650D01*
X2966513Y-15541903D01*
X2967474Y-15551166D01*
X2969655Y-15557702D01*
X2969655Y-15557704D01*
X2997030Y-15639757D01*
X3023450Y-15718946D01*
X3116522Y-15869348D01*
X3241697Y-15994305D01*
X3312648Y-16038040D01*
X3360140Y-16090811D01*
X3371564Y-16160883D01*
X3343290Y-16226006D01*
X3312834Y-16252443D01*
X3247193Y-16293063D01*
X3235792Y-16302099D01*
X3121261Y-16416829D01*
X3112249Y-16428240D01*
X3027184Y-16566243D01*
X3021037Y-16579424D01*
X2969862Y-16733710D01*
X2966995Y-16747086D01*
X2957328Y-16841438D01*
X2957000Y-16847855D01*
X2957000Y-16872885D01*
X2961475Y-16888124D01*
X2962865Y-16889329D01*
X2970548Y-16891000D01*
X9454884Y-16891000D01*
X9470123Y-16886525D01*
X9471328Y-16885135D01*
X9472999Y-16877452D01*
X9472999Y-16847905D01*
X9472662Y-16841386D01*
X9462743Y-16745794D01*
X9459851Y-16732400D01*
X9408412Y-16578216D01*
X9402239Y-16565038D01*
X9316937Y-16427193D01*
X9307901Y-16415792D01*
X9193171Y-16301261D01*
X9181760Y-16292249D01*
X9117354Y-16252549D01*
X9069861Y-16199777D01*
X9058437Y-16129706D01*
X9086711Y-16064582D01*
X9117167Y-16038145D01*
X9117339Y-16038039D01*
X9189348Y-15993478D01*
X9314305Y-15868303D01*
X9332749Y-15838382D01*
X9385522Y-15790890D01*
X9440008Y-15778500D01*
X9675715Y-15778500D01*
X9743836Y-15798502D01*
X9782856Y-15838193D01*
X9851248Y-15948713D01*
X9972298Y-16069552D01*
X9978528Y-16073392D01*
X9978529Y-16073393D01*
X10110020Y-16154445D01*
X10117899Y-16159302D01*
X10280243Y-16213149D01*
X10287080Y-16213849D01*
X10287082Y-16213850D01*
X10328401Y-16218083D01*
X10381268Y-16223500D01*
X10928732Y-16223500D01*
X10931978Y-16223163D01*
X10931982Y-16223163D01*
X10966083Y-16219625D01*
X11031019Y-16212887D01*
X11184726Y-16161606D01*
X11186324Y-16161073D01*
X11186326Y-16161072D01*
X11193268Y-16158756D01*
X11218785Y-16142966D01*
X11332485Y-16072606D01*
X11338713Y-16068752D01*
X11343886Y-16063570D01*
X11349623Y-16059023D01*
X11351055Y-16060830D01*
X11403575Y-16032098D01*
X11474395Y-16037108D01*
X11510853Y-16060499D01*
X11511683Y-16059448D01*
X11528840Y-16072998D01*
X11661880Y-16155004D01*
X11675061Y-16161151D01*
X11823814Y-16210491D01*
X11837190Y-16213358D01*
X11928097Y-16222672D01*
X11933126Y-16222929D01*
X11948124Y-16218525D01*
X11949329Y-16217135D01*
X11951000Y-16209452D01*
X11951000Y-16204885D01*
X12459000Y-16204885D01*
X12463475Y-16220124D01*
X12464865Y-16221329D01*
X12472548Y-16223000D01*
X12475438Y-16223000D01*
X12481953Y-16222663D01*
X12574057Y-16213106D01*
X12587456Y-16210212D01*
X12736107Y-16160619D01*
X12749286Y-16154445D01*
X12882173Y-16072212D01*
X12893574Y-16063176D01*
X13003986Y-15952571D01*
X13012998Y-15941160D01*
X13095004Y-15808120D01*
X13101151Y-15794939D01*
X13150491Y-15646186D01*
X13153358Y-15632810D01*
X13162672Y-15541903D01*
X13163000Y-15535486D01*
X13163000Y-15512115D01*
X13158525Y-15496876D01*
X13157135Y-15495671D01*
X13149452Y-15494000D01*
X12477115Y-15494000D01*
X12461876Y-15498475D01*
X12460671Y-15499865D01*
X12459000Y-15507548D01*
X12459000Y-16204885D01*
X11951000Y-16204885D01*
X11951000Y-15112000D01*
X11971002Y-15043879D01*
X12024658Y-14997386D01*
X12077000Y-14986000D01*
X13144885Y-14986000D01*
X13160124Y-14981525D01*
X13161329Y-14980135D01*
X13163000Y-14972452D01*
X13163000Y-14944562D01*
X13162663Y-14938047D01*
X13153106Y-14845943D01*
X13150212Y-14832544D01*
X13100619Y-14683893D01*
X13094445Y-14670714D01*
X13012212Y-14537827D01*
X13003176Y-14526426D01*
X12892571Y-14416014D01*
X12881160Y-14407002D01*
X12871155Y-14400835D01*
X12823662Y-14348063D01*
X12812238Y-14277991D01*
X12840512Y-14212867D01*
X12872000Y-14185799D01*
X12883226Y-14179000D01*
X12895381Y-14171639D01*
X13016639Y-14050381D01*
X13105472Y-13903699D01*
X13111886Y-13883234D01*
X13154752Y-13746446D01*
X13156753Y-13740062D01*
X13163500Y-13666635D01*
X13163499Y-13374595D01*
X13183501Y-13306476D01*
X13200404Y-13285500D01*
X13588635Y-12897270D01*
X13588638Y-12897266D01*
X14362258Y-12123647D01*
X14370537Y-12116113D01*
X14377018Y-12112000D01*
X14423644Y-12062348D01*
X14426398Y-12059507D01*
X14446135Y-12039770D01*
X14448615Y-12036573D01*
X14456320Y-12027551D01*
X14462007Y-12021495D01*
X14486586Y-11995321D01*
X14490405Y-11988375D01*
X14490407Y-11988372D01*
X14496348Y-11977566D01*
X14507199Y-11961047D01*
X14514758Y-11951301D01*
X14519614Y-11945041D01*
X14522759Y-11937772D01*
X14522762Y-11937768D01*
X14537174Y-11904463D01*
X14542391Y-11893813D01*
X14563695Y-11855060D01*
X14568733Y-11835437D01*
X14575137Y-11816734D01*
X14580033Y-11805420D01*
X14580033Y-11805419D01*
X14583181Y-11798145D01*
X14584420Y-11790322D01*
X14584423Y-11790312D01*
X14590099Y-11754476D01*
X14592505Y-11742856D01*
X14601528Y-11707711D01*
X14601528Y-11707710D01*
X14603500Y-11700030D01*
X14603500Y-11679776D01*
X14605051Y-11660065D01*
X14606980Y-11647886D01*
X14608220Y-11640057D01*
X14604059Y-11596038D01*
X14603500Y-11584181D01*
X14603500Y-10723594D01*
X14623502Y-10655473D01*
X14677158Y-10608980D01*
X14747432Y-10598876D01*
X14812012Y-10628370D01*
X14818595Y-10634499D01*
X18102878Y-13918782D01*
X18136904Y-13981094D01*
X18139093Y-13994707D01*
X18155121Y-14147203D01*
X18156458Y-14159928D01*
X18159837Y-14170327D01*
X18169746Y-14200824D01*
X18171774Y-14271791D01*
X18135111Y-14332589D01*
X18071399Y-14363915D01*
X18023716Y-14363007D01*
X17881944Y-14332872D01*
X17881939Y-14332872D01*
X17875487Y-14331500D01*
X17684513Y-14331500D01*
X17678061Y-14332872D01*
X17678056Y-14332872D01*
X17591113Y-14351353D01*
X17497712Y-14371206D01*
X17491682Y-14373891D01*
X17491681Y-14373891D01*
X17329278Y-14446197D01*
X17329276Y-14446198D01*
X17323248Y-14448882D01*
X17168747Y-14561134D01*
X17164326Y-14566044D01*
X17164325Y-14566045D01*
X17158689Y-14572305D01*
X17040960Y-14703056D01*
X16994020Y-14784358D01*
X16950494Y-14859748D01*
X16945473Y-14868444D01*
X16886458Y-15050072D01*
X16885768Y-15056633D01*
X16885768Y-15056635D01*
X16871544Y-15191973D01*
X16866496Y-15240000D01*
X16867186Y-15246565D01*
X16883290Y-15399783D01*
X16886458Y-15429928D01*
X16945473Y-15611556D01*
X16948776Y-15617278D01*
X16948777Y-15617279D01*
X16957744Y-15632810D01*
X17040960Y-15776944D01*
X17114137Y-15858215D01*
X17144853Y-15922221D01*
X17146500Y-15942524D01*
X17146500Y-17465405D01*
X17126498Y-17533526D01*
X17109595Y-17554500D01*
X16284500Y-18379595D01*
X16222188Y-18413621D01*
X16195405Y-18416500D01*
X13137225Y-18416500D01*
X13069104Y-18396498D01*
X13029449Y-18355771D01*
X13020576Y-18341120D01*
X13016639Y-18334619D01*
X12895381Y-18213361D01*
X12748699Y-18124528D01*
X12741452Y-18122257D01*
X12741450Y-18122256D01*
X12639232Y-18090223D01*
X12585062Y-18073247D01*
X12511635Y-18066500D01*
X12508737Y-18066500D01*
X12254335Y-18066501D01*
X11998366Y-18066501D01*
X11995508Y-18066764D01*
X11995499Y-18066764D01*
X11959996Y-18070026D01*
X11924938Y-18073247D01*
X11918560Y-18075246D01*
X11918559Y-18075246D01*
X11768550Y-18122256D01*
X11768548Y-18122257D01*
X11761301Y-18124528D01*
X11614619Y-18213361D01*
X11519095Y-18308885D01*
X11456783Y-18342911D01*
X11385968Y-18337846D01*
X11340905Y-18308885D01*
X11245381Y-18213361D01*
X11098699Y-18124528D01*
X11091452Y-18122257D01*
X11091450Y-18122256D01*
X10989232Y-18090223D01*
X10935062Y-18073247D01*
X10861635Y-18066500D01*
X10858737Y-18066500D01*
X10604335Y-18066501D01*
X10348366Y-18066501D01*
X10345508Y-18066764D01*
X10345499Y-18066764D01*
X10309996Y-18070026D01*
X10274938Y-18073247D01*
X10268560Y-18075246D01*
X10268559Y-18075246D01*
X10118550Y-18122256D01*
X10118548Y-18122257D01*
X10111301Y-18124528D01*
X9964619Y-18213361D01*
X9843361Y-18334619D01*
X9839424Y-18341120D01*
X9773017Y-18450771D01*
X9720620Y-18498678D01*
X9665241Y-18511500D01*
X9439899Y-18511500D01*
X9371778Y-18491498D01*
X9332755Y-18451803D01*
X9317332Y-18426880D01*
X9313478Y-18420652D01*
X9188303Y-18295695D01*
X9117352Y-18251960D01*
X9069860Y-18199189D01*
X9058436Y-18129117D01*
X9086710Y-18063994D01*
X9117166Y-18037557D01*
X9182807Y-17996937D01*
X9194208Y-17987901D01*
X9308739Y-17873171D01*
X9317751Y-17861760D01*
X9402816Y-17723757D01*
X9408963Y-17710576D01*
X9460138Y-17556290D01*
X9463005Y-17542914D01*
X9472672Y-17448562D01*
X9473000Y-17442146D01*
X9473000Y-17417115D01*
X9468525Y-17401876D01*
X9467135Y-17400671D01*
X9459452Y-17399000D01*
X2975116Y-17399000D01*
X2959877Y-17403475D01*
X2958672Y-17404865D01*
X2957001Y-17412548D01*
X2957001Y-17442095D01*
X2957338Y-17448614D01*
X2967257Y-17544206D01*
X2970149Y-17557600D01*
X3021588Y-17711784D01*
X3027761Y-17724962D01*
X3113063Y-17862807D01*
X3122099Y-17874208D01*
X3236829Y-17988739D01*
X3248240Y-17997751D01*
X3312646Y-18037451D01*
X3360139Y-18090223D01*
X3371563Y-18160294D01*
X3343289Y-18225418D01*
X3312834Y-18251854D01*
X3240652Y-18296522D01*
X3115695Y-18421697D01*
X3111855Y-18427927D01*
X3111854Y-18427928D01*
X3068720Y-18497905D01*
X3022885Y-18572262D01*
X2967203Y-18740139D01*
X2966503Y-18746975D01*
X2966502Y-18746978D01*
X2963832Y-18773041D01*
X2956500Y-18844600D01*
X2956500Y-19280989D01*
X2936498Y-19349110D01*
X2882842Y-19395603D01*
X2830500Y-19406989D01*
X1414011Y-19406989D01*
X1345890Y-19386987D01*
X1299397Y-19333331D01*
X1288011Y-19280989D01*
X1288011Y-18824272D01*
X1288748Y-18810665D01*
X1292170Y-18779167D01*
X1292170Y-18779162D01*
X1292835Y-18773041D01*
X1289957Y-18740139D01*
X1288461Y-18723039D01*
X1288132Y-18718214D01*
X1288011Y-18715743D01*
X1288011Y-18712661D01*
X1283820Y-18669919D01*
X1283698Y-18668604D01*
X1280875Y-18636343D01*
X1275598Y-18576017D01*
X1274111Y-18570898D01*
X1273591Y-18565597D01*
X1246717Y-18476586D01*
X1246361Y-18475383D01*
X1228957Y-18415479D01*
X1220420Y-18386093D01*
X1217966Y-18381359D01*
X1216427Y-18376261D01*
X1200266Y-18345866D01*
X1172827Y-18294261D01*
X1172213Y-18293093D01*
X1132237Y-18215971D01*
X1132236Y-18215970D01*
X1129403Y-18210504D01*
X1126080Y-18206341D01*
X1123577Y-18201634D01*
X1064756Y-18129512D01*
X1064065Y-18128656D01*
X1032773Y-18089457D01*
X1030269Y-18086953D01*
X1029627Y-18086235D01*
X1025926Y-18081902D01*
X998576Y-18048368D01*
X985297Y-18037382D01*
X963253Y-18019146D01*
X954474Y-18011157D01*
X846371Y-17903054D01*
X812345Y-17840742D01*
X817410Y-17769927D01*
X846371Y-17724864D01*
X948895Y-17622340D01*
X959038Y-17613238D01*
X983729Y-17593386D01*
X988536Y-17589521D01*
X1020823Y-17551043D01*
X1023978Y-17547427D01*
X1025634Y-17545601D01*
X1027820Y-17543415D01*
X1029775Y-17541035D01*
X1029784Y-17541025D01*
X1055087Y-17510221D01*
X1055929Y-17509206D01*
X1111705Y-17442734D01*
X1115665Y-17438015D01*
X1118234Y-17433341D01*
X1121613Y-17429228D01*
X1165486Y-17347404D01*
X1166095Y-17346282D01*
X1207975Y-17270103D01*
X1207976Y-17270101D01*
X1210944Y-17264702D01*
X1212556Y-17259620D01*
X1215073Y-17254926D01*
X1242273Y-17165958D01*
X1242619Y-17164847D01*
X1245324Y-17156322D01*
X1270746Y-17076183D01*
X1271340Y-17070887D01*
X1272898Y-17065791D01*
X1282296Y-16973267D01*
X1282416Y-16972147D01*
X1288011Y-16922262D01*
X1288011Y-16918735D01*
X1288067Y-16917732D01*
X1288514Y-16912048D01*
X1292884Y-16869027D01*
X1288570Y-16823388D01*
X1288011Y-16811532D01*
X1288011Y-12472885D01*
X1957000Y-12472885D01*
X1961475Y-12488124D01*
X1962865Y-12489329D01*
X1970548Y-12491000D01*
X3692885Y-12491000D01*
X3708124Y-12486525D01*
X3709329Y-12485135D01*
X3711000Y-12477452D01*
X3711000Y-12472885D01*
X4219000Y-12472885D01*
X4223475Y-12488124D01*
X4224865Y-12489329D01*
X4232548Y-12491000D01*
X5954884Y-12491000D01*
X5970123Y-12486525D01*
X5971328Y-12485135D01*
X5972999Y-12477452D01*
X5972999Y-12147905D01*
X5972662Y-12141386D01*
X5962743Y-12045794D01*
X5959851Y-12032400D01*
X5908412Y-11878216D01*
X5902239Y-11865038D01*
X5816937Y-11727193D01*
X5807901Y-11715792D01*
X5693171Y-11601261D01*
X5681760Y-11592249D01*
X5543757Y-11507184D01*
X5530576Y-11501037D01*
X5376290Y-11449862D01*
X5362914Y-11446995D01*
X5268562Y-11437328D01*
X5262145Y-11437000D01*
X4237115Y-11437000D01*
X4221876Y-11441475D01*
X4220671Y-11442865D01*
X4219000Y-11450548D01*
X4219000Y-12472885D01*
X3711000Y-12472885D01*
X3711000Y-11455116D01*
X3706525Y-11439877D01*
X3705135Y-11438672D01*
X3697452Y-11437001D01*
X2667905Y-11437001D01*
X2661386Y-11437338D01*
X2565794Y-11447257D01*
X2552400Y-11450149D01*
X2398216Y-11501588D01*
X2385038Y-11507761D01*
X2247193Y-11593063D01*
X2235792Y-11602099D01*
X2121261Y-11716829D01*
X2112249Y-11728240D01*
X2027184Y-11866243D01*
X2021037Y-11879424D01*
X1969862Y-12033710D01*
X1966995Y-12047086D01*
X1957328Y-12141438D01*
X1957000Y-12147855D01*
X1957000Y-12472885D01*
X1288011Y-12472885D01*
X1288011Y-10172095D01*
X5267001Y-10172095D01*
X5267338Y-10178614D01*
X5277257Y-10274206D01*
X5280149Y-10287600D01*
X5331588Y-10441784D01*
X5337761Y-10454962D01*
X5423063Y-10592807D01*
X5432099Y-10604208D01*
X5546829Y-10718739D01*
X5558240Y-10727751D01*
X5696243Y-10812816D01*
X5709424Y-10818963D01*
X5863710Y-10870138D01*
X5877086Y-10873005D01*
X5971438Y-10882672D01*
X5977854Y-10883000D01*
X7002885Y-10883000D01*
X7018124Y-10878525D01*
X7019329Y-10877135D01*
X7021000Y-10869452D01*
X7021000Y-10864884D01*
X7529000Y-10864884D01*
X7533475Y-10880123D01*
X7534865Y-10881328D01*
X7542548Y-10882999D01*
X8572095Y-10882999D01*
X8578614Y-10882662D01*
X8674206Y-10872743D01*
X8687600Y-10869851D01*
X8841784Y-10818412D01*
X8854962Y-10812239D01*
X8992807Y-10726937D01*
X9004208Y-10717901D01*
X9118739Y-10603171D01*
X9127751Y-10591760D01*
X9212816Y-10453757D01*
X9218963Y-10440576D01*
X9270138Y-10286290D01*
X9273005Y-10272914D01*
X9282672Y-10178562D01*
X9283000Y-10172146D01*
X9283000Y-9847115D01*
X9278525Y-9831876D01*
X9277135Y-9830671D01*
X9269452Y-9829000D01*
X7547115Y-9829000D01*
X7531876Y-9833475D01*
X7530671Y-9834865D01*
X7529000Y-9842548D01*
X7529000Y-10864884D01*
X7021000Y-10864884D01*
X7021000Y-9847115D01*
X7016525Y-9831876D01*
X7015135Y-9830671D01*
X7007452Y-9829000D01*
X5285116Y-9829000D01*
X5269877Y-9833475D01*
X5268672Y-9834865D01*
X5267001Y-9842548D01*
X5267001Y-10172095D01*
X1288011Y-10172095D01*
X1288011Y-7568105D01*
X1308013Y-7499984D01*
X1361669Y-7453491D01*
X1431943Y-7443387D01*
X1496523Y-7472881D01*
G37*
%TD.AperFunction*%
%TA.AperFunction,Conductor*%
G36*
X36308621Y-4463502D02*
G01*
X36355114Y-4517158D01*
X36366500Y-4569499D01*
X36366501Y-4689292D01*
X36366501Y-4776634D01*
X36366764Y-4779492D01*
X36366764Y-4779501D01*
X36367172Y-4783938D01*
X36373247Y-4850062D01*
X36375246Y-4856440D01*
X36375246Y-4856441D01*
X36413727Y-4979232D01*
X36424528Y-5013699D01*
X36513361Y-5160381D01*
X36634619Y-5281639D01*
X36641121Y-5285576D01*
X36641120Y-5285576D01*
X36647969Y-5289724D01*
X36695876Y-5342121D01*
X36707849Y-5412101D01*
X36680088Y-5477445D01*
X36647969Y-5505276D01*
X36634619Y-5513361D01*
X36513361Y-5634619D01*
X36509424Y-5641120D01*
X36500551Y-5655771D01*
X36448154Y-5703678D01*
X36392775Y-5716500D01*
X32456793Y-5716500D01*
X32433184Y-5714268D01*
X32432881Y-5714210D01*
X32432877Y-5714210D01*
X32425094Y-5712725D01*
X32369049Y-5716251D01*
X32361138Y-5716500D01*
X32345144Y-5716500D01*
X32329270Y-5718506D01*
X32321410Y-5719248D01*
X32293951Y-5720976D01*
X32273263Y-5722277D01*
X32273262Y-5722277D01*
X32265350Y-5722775D01*
X32257809Y-5725225D01*
X32257513Y-5725321D01*
X32234369Y-5730494D01*
X32234065Y-5730532D01*
X32234060Y-5730533D01*
X32226203Y-5731526D01*
X32218838Y-5734442D01*
X32218834Y-5734443D01*
X32173989Y-5752199D01*
X32166570Y-5754871D01*
X32113125Y-5772236D01*
X32106429Y-5776486D01*
X32106428Y-5776486D01*
X32106169Y-5776650D01*
X32085042Y-5787415D01*
X32084754Y-5787529D01*
X32084749Y-5787532D01*
X32077383Y-5790448D01*
X32070975Y-5795104D01*
X32070969Y-5795107D01*
X32031948Y-5823458D01*
X32025411Y-5827901D01*
X31977982Y-5858000D01*
X31972556Y-5863778D01*
X31972555Y-5863779D01*
X31972341Y-5864007D01*
X31954554Y-5879688D01*
X31954309Y-5879866D01*
X31954307Y-5879868D01*
X31947893Y-5884528D01*
X31942839Y-5890637D01*
X31942838Y-5890638D01*
X31912097Y-5927796D01*
X31906866Y-5933730D01*
X31873842Y-5968898D01*
X31873840Y-5968901D01*
X31868414Y-5974679D01*
X31864445Y-5981899D01*
X31851119Y-6001506D01*
X31850920Y-6001746D01*
X31850916Y-6001753D01*
X31845867Y-6007856D01*
X31827259Y-6047400D01*
X31821953Y-6058676D01*
X31818371Y-6065708D01*
X31791305Y-6114940D01*
X31789335Y-6122615D01*
X31789332Y-6122621D01*
X31789256Y-6122919D01*
X31781224Y-6145228D01*
X31781094Y-6145503D01*
X31781091Y-6145511D01*
X31777717Y-6152682D01*
X31767195Y-6207843D01*
X31765471Y-6215558D01*
X31751500Y-6269970D01*
X31751500Y-6278207D01*
X31749268Y-6301816D01*
X31747725Y-6309906D01*
X31750319Y-6351132D01*
X31751251Y-6365951D01*
X31751500Y-6373862D01*
X31751500Y-7696415D01*
X31731498Y-7764536D01*
X31714595Y-7785510D01*
X31238243Y-8261862D01*
X31175931Y-8295888D01*
X31105116Y-8290823D01*
X31048280Y-8248276D01*
X31043367Y-8241223D01*
X30952938Y-8101441D01*
X30927822Y-8062617D01*
X30927820Y-8062614D01*
X30925014Y-8058277D01*
X30774670Y-7893051D01*
X30770619Y-7889852D01*
X30770615Y-7889848D01*
X30603414Y-7757800D01*
X30603410Y-7757798D01*
X30599359Y-7754598D01*
X30557569Y-7731529D01*
X30507598Y-7681097D01*
X30492826Y-7611654D01*
X30517942Y-7545248D01*
X30545293Y-7518642D01*
X30594247Y-7483723D01*
X30602648Y-7473023D01*
X30595660Y-7459870D01*
X29857812Y-6722022D01*
X29843868Y-6714408D01*
X29842035Y-6714539D01*
X29835420Y-6718790D01*
X29091737Y-7462473D01*
X29084977Y-7474853D01*
X29090258Y-7481907D01*
X29136969Y-7509203D01*
X29185693Y-7560841D01*
X29198764Y-7630624D01*
X29172033Y-7696396D01*
X29131584Y-7729752D01*
X29118607Y-7736507D01*
X29114474Y-7739610D01*
X29114471Y-7739612D01*
X28947562Y-7864931D01*
X28939965Y-7870635D01*
X28883367Y-7929861D01*
X28804566Y-8012322D01*
X28785629Y-8032138D01*
X28678201Y-8189621D01*
X28623293Y-8234621D01*
X28552768Y-8242792D01*
X28489021Y-8211538D01*
X28468324Y-8187054D01*
X28387822Y-8062617D01*
X28387820Y-8062614D01*
X28385014Y-8058277D01*
X28234670Y-7893051D01*
X28230619Y-7889852D01*
X28230615Y-7889848D01*
X28063414Y-7757800D01*
X28063410Y-7757798D01*
X28059359Y-7754598D01*
X28018053Y-7731796D01*
X27968084Y-7681364D01*
X27953312Y-7611921D01*
X27978428Y-7545516D01*
X28005780Y-7518909D01*
X28070309Y-7472881D01*
X28184860Y-7391173D01*
X28229128Y-7347060D01*
X28312563Y-7263915D01*
X28343096Y-7233489D01*
X28349484Y-7224600D01*
X28473453Y-7052077D01*
X28474640Y-7052930D01*
X28521960Y-7009362D01*
X28591897Y-6997145D01*
X28657338Y-7024678D01*
X28685166Y-7056512D01*
X28711459Y-7099419D01*
X28721916Y-7108880D01*
X28730694Y-7105096D01*
X29472978Y-6362812D01*
X29479356Y-6351132D01*
X30209408Y-6351132D01*
X30209539Y-6352965D01*
X30213790Y-6359580D01*
X30955474Y-7101264D01*
X30967484Y-7107823D01*
X30979223Y-7098855D01*
X31010004Y-7056019D01*
X31015315Y-7047180D01*
X31109670Y-6856267D01*
X31113469Y-6846672D01*
X31175376Y-6642915D01*
X31177555Y-6632834D01*
X31205590Y-6419887D01*
X31206109Y-6413212D01*
X31207572Y-6353364D01*
X31207378Y-6346646D01*
X31189781Y-6132604D01*
X31188096Y-6122424D01*
X31136214Y-5915875D01*
X31132894Y-5906124D01*
X31047972Y-5710814D01*
X31043105Y-5701739D01*
X30978063Y-5601197D01*
X30967377Y-5591995D01*
X30957812Y-5596398D01*
X30217022Y-6337188D01*
X30209408Y-6351132D01*
X29479356Y-6351132D01*
X29480592Y-6348868D01*
X29480461Y-6347035D01*
X29476210Y-6340420D01*
X28734849Y-5599059D01*
X28723313Y-5592759D01*
X28711031Y-5602382D01*
X28678499Y-5650072D01*
X28623587Y-5695075D01*
X28553063Y-5703246D01*
X28489316Y-5671992D01*
X28468618Y-5647508D01*
X28387822Y-5522617D01*
X28387820Y-5522614D01*
X28385014Y-5518277D01*
X28234670Y-5353051D01*
X28192006Y-5319357D01*
X28150944Y-5261441D01*
X28147712Y-5190518D01*
X28183337Y-5129107D01*
X28216647Y-5106376D01*
X28222007Y-5103865D01*
X28228946Y-5101550D01*
X28379348Y-5008478D01*
X28504305Y-4883303D01*
X28513214Y-4868851D01*
X28593276Y-4738966D01*
X28597115Y-4732738D01*
X28599418Y-4725795D01*
X28601763Y-4720766D01*
X28648680Y-4667481D01*
X28716958Y-4648021D01*
X28784918Y-4668564D01*
X28811194Y-4691520D01*
X28887428Y-4779526D01*
X28891250Y-4783938D01*
X29063126Y-4926632D01*
X29136955Y-4969774D01*
X29185679Y-5021412D01*
X29198750Y-5091195D01*
X29172019Y-5156967D01*
X29131562Y-5190327D01*
X29123460Y-5194544D01*
X29114734Y-5200039D01*
X29094677Y-5215099D01*
X29086223Y-5226427D01*
X29092968Y-5238758D01*
X29832188Y-5977978D01*
X29846132Y-5985592D01*
X29847965Y-5985461D01*
X29854580Y-5981210D01*
X30598389Y-5237401D01*
X30605410Y-5224544D01*
X30598611Y-5215213D01*
X30594559Y-5212521D01*
X30557602Y-5192120D01*
X30507631Y-5141687D01*
X30492859Y-5072245D01*
X30517975Y-5005839D01*
X30545327Y-4979232D01*
X30568797Y-4962491D01*
X30724860Y-4851173D01*
X30737580Y-4838498D01*
X30812632Y-4763707D01*
X30883096Y-4693489D01*
X30924793Y-4635462D01*
X31010435Y-4516277D01*
X31013453Y-4512077D01*
X31015746Y-4507437D01*
X31017446Y-4504608D01*
X31069674Y-4456518D01*
X31125451Y-4443500D01*
X36240500Y-4443500D01*
X36308621Y-4463502D01*
G37*
%TD.AperFunction*%
%TA.AperFunction,Conductor*%
G36*
X4793902Y-620362D02*
G01*
X4824417Y-684466D01*
X4826000Y-704376D01*
X4826000Y-4572000D01*
X6168907Y-4572000D01*
X6237028Y-4592002D01*
X6283521Y-4645658D01*
X6293625Y-4715932D01*
X6288500Y-4737667D01*
X6279863Y-4763707D01*
X6276995Y-4777086D01*
X6267328Y-4871438D01*
X6267000Y-4877855D01*
X6267000Y-4902885D01*
X6271475Y-4918124D01*
X6272865Y-4919329D01*
X6280548Y-4921000D01*
X9653000Y-4921000D01*
X9721121Y-4941002D01*
X9767614Y-4994658D01*
X9779000Y-5047000D01*
X9779000Y-5303000D01*
X9758998Y-5371121D01*
X9705342Y-5417614D01*
X9653000Y-5429000D01*
X6285116Y-5429000D01*
X6269877Y-5433475D01*
X6268672Y-5434865D01*
X6267001Y-5442548D01*
X6267001Y-5472095D01*
X6267338Y-5478614D01*
X6277257Y-5574206D01*
X6280149Y-5587600D01*
X6331588Y-5741784D01*
X6337761Y-5754962D01*
X6423063Y-5892807D01*
X6432099Y-5904208D01*
X6546829Y-6018739D01*
X6558240Y-6027751D01*
X6622646Y-6067451D01*
X6670139Y-6120223D01*
X6681563Y-6190294D01*
X6653289Y-6255418D01*
X6622834Y-6281854D01*
X6550652Y-6326522D01*
X6425695Y-6451697D01*
X6421855Y-6457927D01*
X6421854Y-6457928D01*
X6365284Y-6549702D01*
X6332885Y-6602262D01*
X6308254Y-6676522D01*
X6279762Y-6762425D01*
X6277203Y-6770139D01*
X6276503Y-6776975D01*
X6276502Y-6776978D01*
X6272091Y-6820031D01*
X6266500Y-6874600D01*
X6266500Y-7240020D01*
X6246498Y-7308141D01*
X6192842Y-7354634D01*
X6140500Y-7366020D01*
X3234114Y-7366020D01*
X3165993Y-7346018D01*
X3145019Y-7329115D01*
X1324916Y-5509011D01*
X1290890Y-5446699D01*
X1288011Y-5419916D01*
X1288011Y-4000414D01*
X1308013Y-3932293D01*
X1324916Y-3911319D01*
X4479379Y-756855D01*
X4489522Y-747753D01*
X4514218Y-727897D01*
X4519025Y-724032D01*
X4551320Y-685544D01*
X4554478Y-681925D01*
X4556124Y-680110D01*
X4558309Y-677925D01*
X4560264Y-675545D01*
X4560273Y-675535D01*
X4585549Y-644764D01*
X4586390Y-643750D01*
X4603477Y-623386D01*
X4662587Y-584059D01*
X4733574Y-582931D01*
X4793902Y-620362D01*
G37*
%TD.AperFunction*%
%TA.AperFunction,Conductor*%
G36*
X12863859Y-5673135D02*
G01*
X12867258Y-5674008D01*
X12867268Y-5674009D01*
X12874944Y-5675980D01*
X12895198Y-5675980D01*
X12914908Y-5677531D01*
X12934917Y-5680700D01*
X12942809Y-5679954D01*
X12968441Y-5677531D01*
X12978936Y-5676539D01*
X12990793Y-5675980D01*
X15863000Y-5675980D01*
X15931121Y-5695982D01*
X15977614Y-5749638D01*
X15989000Y-5801980D01*
X15989000Y-5970000D01*
X15968998Y-6038121D01*
X15915342Y-6084614D01*
X15863000Y-6096000D01*
X14795115Y-6096000D01*
X14779876Y-6100475D01*
X14778671Y-6101865D01*
X14777000Y-6109548D01*
X14777000Y-6137438D01*
X14777337Y-6143953D01*
X14786894Y-6236057D01*
X14789788Y-6249456D01*
X14839381Y-6398107D01*
X14845555Y-6411286D01*
X14917540Y-6527613D01*
X14936378Y-6596065D01*
X14918172Y-6659187D01*
X14834528Y-6797301D01*
X14823439Y-6832686D01*
X14783984Y-6891706D01*
X14718880Y-6920026D01*
X14648800Y-6908654D01*
X14595430Y-6860276D01*
X14578719Y-6832683D01*
X14552639Y-6789619D01*
X14431381Y-6668361D01*
X14284699Y-6579528D01*
X14277452Y-6577257D01*
X14277450Y-6577256D01*
X14211164Y-6556483D01*
X14121062Y-6528247D01*
X14047635Y-6521500D01*
X14044737Y-6521500D01*
X13715140Y-6521501D01*
X13384366Y-6521501D01*
X13381508Y-6521764D01*
X13381499Y-6521764D01*
X13345996Y-6525026D01*
X13310938Y-6528247D01*
X13304560Y-6530246D01*
X13304559Y-6530246D01*
X13287047Y-6535734D01*
X13249368Y-6541500D01*
X12749899Y-6541500D01*
X12681778Y-6521498D01*
X12642755Y-6481803D01*
X12627332Y-6456880D01*
X12623478Y-6450652D01*
X12498303Y-6325695D01*
X12427352Y-6281960D01*
X12379860Y-6229189D01*
X12368436Y-6159117D01*
X12396710Y-6093994D01*
X12427166Y-6067557D01*
X12492807Y-6026937D01*
X12504208Y-6017901D01*
X12618739Y-5903171D01*
X12627751Y-5891760D01*
X12712816Y-5753757D01*
X12718333Y-5741927D01*
X12765251Y-5688642D01*
X12833528Y-5669181D01*
X12863859Y-5673135D01*
G37*
%TD.AperFunction*%
%TD*%
M02*
