%TF.GenerationSoftware,KiCad,Pcbnew,(6.0.0)*%
%TF.CreationDate,2022-01-24T17:46:17-05:00*%
%TF.ProjectId,esp32 breakout2,65737033-3220-4627-9265-616b6f757432,rev?*%
%TF.SameCoordinates,Original*%
%TF.FileFunction,Legend,Bot*%
%TF.FilePolarity,Positive*%
%FSLAX46Y46*%
G04 Gerber Fmt 4.6, Leading zero omitted, Abs format (unit mm)*
G04 Created by KiCad (PCBNEW (6.0.0)) date 2022-01-24 17:46:17*
%MOMM*%
%LPD*%
G01*
G04 APERTURE LIST*
%ADD10C,0.150000*%
%ADD11C,0.300000*%
G04 APERTURE END LIST*
D10*
X166838380Y-106061142D02*
X167838380Y-106394476D01*
X166838380Y-106727809D01*
X167838380Y-107489714D02*
X166838380Y-107489714D01*
X167790761Y-107489714D02*
X167838380Y-107394476D01*
X167838380Y-107204000D01*
X167790761Y-107108761D01*
X167743142Y-107061142D01*
X167647904Y-107013523D01*
X167362190Y-107013523D01*
X167266952Y-107061142D01*
X167219333Y-107108761D01*
X167171714Y-107204000D01*
X167171714Y-107394476D01*
X167219333Y-107489714D01*
X167838380Y-108394476D02*
X166838380Y-108394476D01*
X167790761Y-108394476D02*
X167838380Y-108299238D01*
X167838380Y-108108761D01*
X167790761Y-108013523D01*
X167743142Y-107965904D01*
X167647904Y-107918285D01*
X167362190Y-107918285D01*
X167266952Y-107965904D01*
X167219333Y-108013523D01*
X167171714Y-108108761D01*
X167171714Y-108299238D01*
X167219333Y-108394476D01*
X167933619Y-108632571D02*
X167933619Y-109394476D01*
X166838380Y-109632571D02*
X167647904Y-109632571D01*
X167743142Y-109680190D01*
X167790761Y-109727809D01*
X167838380Y-109823047D01*
X167838380Y-110013523D01*
X167790761Y-110108761D01*
X167743142Y-110156380D01*
X167647904Y-110204000D01*
X166838380Y-110204000D01*
X172918380Y-107331047D02*
X171918380Y-107331047D01*
X171918380Y-107997714D02*
X171918380Y-108188190D01*
X171966000Y-108283428D01*
X172061238Y-108378666D01*
X172251714Y-108426285D01*
X172585047Y-108426285D01*
X172775523Y-108378666D01*
X172870761Y-108283428D01*
X172918380Y-108188190D01*
X172918380Y-107997714D01*
X172870761Y-107902476D01*
X172775523Y-107807238D01*
X172585047Y-107759619D01*
X172251714Y-107759619D01*
X172061238Y-107807238D01*
X171966000Y-107902476D01*
X171918380Y-107997714D01*
X173013619Y-108616761D02*
X173013619Y-109378666D01*
X171918380Y-109807238D02*
X171918380Y-109902476D01*
X171966000Y-109997714D01*
X172013619Y-110045333D01*
X172108857Y-110092952D01*
X172299333Y-110140571D01*
X172537428Y-110140571D01*
X172727904Y-110092952D01*
X172823142Y-110045333D01*
X172870761Y-109997714D01*
X172918380Y-109902476D01*
X172918380Y-109807238D01*
X172870761Y-109712000D01*
X172823142Y-109664380D01*
X172727904Y-109616761D01*
X172537428Y-109569142D01*
X172299333Y-109569142D01*
X172108857Y-109616761D01*
X172013619Y-109664380D01*
X171966000Y-109712000D01*
X171918380Y-109807238D01*
X143518000Y-116451142D02*
X143470380Y-116355904D01*
X143470380Y-116213047D01*
X143518000Y-116070190D01*
X143613238Y-115974952D01*
X143708476Y-115927333D01*
X143898952Y-115879714D01*
X144041809Y-115879714D01*
X144232285Y-115927333D01*
X144327523Y-115974952D01*
X144422761Y-116070190D01*
X144470380Y-116213047D01*
X144470380Y-116308285D01*
X144422761Y-116451142D01*
X144375142Y-116498761D01*
X144041809Y-116498761D01*
X144041809Y-116308285D01*
X143803714Y-116927333D02*
X144470380Y-116927333D01*
X143898952Y-116927333D02*
X143851333Y-116974952D01*
X143803714Y-117070190D01*
X143803714Y-117213047D01*
X143851333Y-117308285D01*
X143946571Y-117355904D01*
X144470380Y-117355904D01*
X144470380Y-118260666D02*
X143470380Y-118260666D01*
X144422761Y-118260666D02*
X144470380Y-118165428D01*
X144470380Y-117974952D01*
X144422761Y-117879714D01*
X144375142Y-117832095D01*
X144279904Y-117784476D01*
X143994190Y-117784476D01*
X143898952Y-117832095D01*
X143851333Y-117879714D01*
X143803714Y-117974952D01*
X143803714Y-118165428D01*
X143851333Y-118260666D01*
X169426000Y-108323142D02*
X169378380Y-108227904D01*
X169378380Y-108085047D01*
X169426000Y-107942190D01*
X169521238Y-107846952D01*
X169616476Y-107799333D01*
X169806952Y-107751714D01*
X169949809Y-107751714D01*
X170140285Y-107799333D01*
X170235523Y-107846952D01*
X170330761Y-107942190D01*
X170378380Y-108085047D01*
X170378380Y-108180285D01*
X170330761Y-108323142D01*
X170283142Y-108370761D01*
X169949809Y-108370761D01*
X169949809Y-108180285D01*
X169711714Y-108799333D02*
X170378380Y-108799333D01*
X169806952Y-108799333D02*
X169759333Y-108846952D01*
X169711714Y-108942190D01*
X169711714Y-109085047D01*
X169759333Y-109180285D01*
X169854571Y-109227904D01*
X170378380Y-109227904D01*
X170378380Y-110132666D02*
X169378380Y-110132666D01*
X170330761Y-110132666D02*
X170378380Y-110037428D01*
X170378380Y-109846952D01*
X170330761Y-109751714D01*
X170283142Y-109704095D01*
X170187904Y-109656476D01*
X169902190Y-109656476D01*
X169806952Y-109704095D01*
X169759333Y-109751714D01*
X169711714Y-109846952D01*
X169711714Y-110037428D01*
X169759333Y-110132666D01*
X143470380Y-107934285D02*
X143470380Y-108505714D01*
X144470380Y-108220000D02*
X143470380Y-108220000D01*
X144375142Y-109410476D02*
X144422761Y-109362857D01*
X144470380Y-109220000D01*
X144470380Y-109124761D01*
X144422761Y-108981904D01*
X144327523Y-108886666D01*
X144232285Y-108839047D01*
X144041809Y-108791428D01*
X143898952Y-108791428D01*
X143708476Y-108839047D01*
X143613238Y-108886666D01*
X143518000Y-108981904D01*
X143470380Y-109124761D01*
X143470380Y-109220000D01*
X143518000Y-109362857D01*
X143565619Y-109410476D01*
X144470380Y-109839047D02*
X143470380Y-109839047D01*
X144470380Y-110410476D02*
X143898952Y-109981904D01*
X143470380Y-110410476D02*
X144041809Y-109839047D01*
X151566571Y-108989904D02*
X151566571Y-109323238D01*
X152090380Y-109466095D02*
X152090380Y-108989904D01*
X151090380Y-108989904D01*
X151090380Y-109466095D01*
X152090380Y-109894666D02*
X151090380Y-109894666D01*
X152090380Y-110466095D01*
X151090380Y-110466095D01*
X146058000Y-116451142D02*
X146010380Y-116355904D01*
X146010380Y-116213047D01*
X146058000Y-116070190D01*
X146153238Y-115974952D01*
X146248476Y-115927333D01*
X146438952Y-115879714D01*
X146581809Y-115879714D01*
X146772285Y-115927333D01*
X146867523Y-115974952D01*
X146962761Y-116070190D01*
X147010380Y-116213047D01*
X147010380Y-116308285D01*
X146962761Y-116451142D01*
X146915142Y-116498761D01*
X146581809Y-116498761D01*
X146581809Y-116308285D01*
X146343714Y-116927333D02*
X147010380Y-116927333D01*
X146438952Y-116927333D02*
X146391333Y-116974952D01*
X146343714Y-117070190D01*
X146343714Y-117213047D01*
X146391333Y-117308285D01*
X146486571Y-117355904D01*
X147010380Y-117355904D01*
X147010380Y-118260666D02*
X146010380Y-118260666D01*
X146962761Y-118260666D02*
X147010380Y-118165428D01*
X147010380Y-117974952D01*
X146962761Y-117879714D01*
X146915142Y-117832095D01*
X146819904Y-117784476D01*
X146534190Y-117784476D01*
X146438952Y-117832095D01*
X146391333Y-117879714D01*
X146343714Y-117974952D01*
X146343714Y-118165428D01*
X146391333Y-118260666D01*
X140930380Y-107886666D02*
X140930380Y-108458095D01*
X141930380Y-108172380D02*
X140930380Y-108172380D01*
X141930380Y-108791428D02*
X140930380Y-108791428D01*
X141644666Y-109124761D01*
X140930380Y-109458095D01*
X141930380Y-109458095D01*
X141882761Y-109886666D02*
X141930380Y-110029523D01*
X141930380Y-110267619D01*
X141882761Y-110362857D01*
X141835142Y-110410476D01*
X141739904Y-110458095D01*
X141644666Y-110458095D01*
X141549428Y-110410476D01*
X141501809Y-110362857D01*
X141454190Y-110267619D01*
X141406571Y-110077142D01*
X141358952Y-109981904D01*
X141311333Y-109934285D01*
X141216095Y-109886666D01*
X141120857Y-109886666D01*
X141025619Y-109934285D01*
X140978000Y-109981904D01*
X140930380Y-110077142D01*
X140930380Y-110315238D01*
X140978000Y-110458095D01*
X172664380Y-115990761D02*
X172188190Y-115657428D01*
X172664380Y-115419333D02*
X171664380Y-115419333D01*
X171664380Y-115800285D01*
X171712000Y-115895523D01*
X171759619Y-115943142D01*
X171854857Y-115990761D01*
X171997714Y-115990761D01*
X172092952Y-115943142D01*
X172140571Y-115895523D01*
X172188190Y-115800285D01*
X172188190Y-115419333D01*
X172664380Y-116324095D02*
X171997714Y-116847904D01*
X171997714Y-116324095D02*
X172664380Y-116847904D01*
X172664380Y-117228857D02*
X171664380Y-117228857D01*
X171664380Y-117466952D01*
X171712000Y-117609809D01*
X171807238Y-117705047D01*
X171902476Y-117752666D01*
X172092952Y-117800285D01*
X172235809Y-117800285D01*
X172426285Y-117752666D01*
X172521523Y-117705047D01*
X172616761Y-117609809D01*
X172664380Y-117466952D01*
X172664380Y-117228857D01*
X150884000Y-116451142D02*
X150836380Y-116355904D01*
X150836380Y-116213047D01*
X150884000Y-116070190D01*
X150979238Y-115974952D01*
X151074476Y-115927333D01*
X151264952Y-115879714D01*
X151407809Y-115879714D01*
X151598285Y-115927333D01*
X151693523Y-115974952D01*
X151788761Y-116070190D01*
X151836380Y-116213047D01*
X151836380Y-116308285D01*
X151788761Y-116451142D01*
X151741142Y-116498761D01*
X151407809Y-116498761D01*
X151407809Y-116308285D01*
X151169714Y-116927333D02*
X151836380Y-116927333D01*
X151264952Y-116927333D02*
X151217333Y-116974952D01*
X151169714Y-117070190D01*
X151169714Y-117213047D01*
X151217333Y-117308285D01*
X151312571Y-117355904D01*
X151836380Y-117355904D01*
X151836380Y-118260666D02*
X150836380Y-118260666D01*
X151788761Y-118260666D02*
X151836380Y-118165428D01*
X151836380Y-117974952D01*
X151788761Y-117879714D01*
X151741142Y-117832095D01*
X151645904Y-117784476D01*
X151360190Y-117784476D01*
X151264952Y-117832095D01*
X151217333Y-117879714D01*
X151169714Y-117974952D01*
X151169714Y-118165428D01*
X151217333Y-118260666D01*
X146010380Y-107910476D02*
X146010380Y-108481904D01*
X147010380Y-108196190D02*
X146010380Y-108196190D01*
X147010380Y-108815238D02*
X146010380Y-108815238D01*
X146010380Y-109053333D01*
X146058000Y-109196190D01*
X146153238Y-109291428D01*
X146248476Y-109339047D01*
X146438952Y-109386666D01*
X146581809Y-109386666D01*
X146772285Y-109339047D01*
X146867523Y-109291428D01*
X146962761Y-109196190D01*
X147010380Y-109053333D01*
X147010380Y-108815238D01*
X146010380Y-110005714D02*
X146010380Y-110196190D01*
X146058000Y-110291428D01*
X146153238Y-110386666D01*
X146343714Y-110434285D01*
X146677047Y-110434285D01*
X146867523Y-110386666D01*
X146962761Y-110291428D01*
X147010380Y-110196190D01*
X147010380Y-110005714D01*
X146962761Y-109910476D01*
X146867523Y-109815238D01*
X146677047Y-109767619D01*
X146343714Y-109767619D01*
X146153238Y-109815238D01*
X146058000Y-109910476D01*
X146010380Y-110005714D01*
X138898380Y-114332000D02*
X139898380Y-114665333D01*
X138898380Y-114998666D01*
X139898380Y-115760571D02*
X138898380Y-115760571D01*
X139850761Y-115760571D02*
X139898380Y-115665333D01*
X139898380Y-115474857D01*
X139850761Y-115379619D01*
X139803142Y-115332000D01*
X139707904Y-115284380D01*
X139422190Y-115284380D01*
X139326952Y-115332000D01*
X139279333Y-115379619D01*
X139231714Y-115474857D01*
X139231714Y-115665333D01*
X139279333Y-115760571D01*
X139898380Y-116665333D02*
X138898380Y-116665333D01*
X139850761Y-116665333D02*
X139898380Y-116570095D01*
X139898380Y-116379619D01*
X139850761Y-116284380D01*
X139803142Y-116236761D01*
X139707904Y-116189142D01*
X139422190Y-116189142D01*
X139326952Y-116236761D01*
X139279333Y-116284380D01*
X139231714Y-116379619D01*
X139231714Y-116570095D01*
X139279333Y-116665333D01*
X139993619Y-116903428D02*
X139993619Y-117665333D01*
X138898380Y-118189142D02*
X139612666Y-118189142D01*
X139755523Y-118141523D01*
X139850761Y-118046285D01*
X139898380Y-117903428D01*
X139898380Y-117808190D01*
D11*
X180764285Y-116177142D02*
X180550000Y-116248571D01*
X180192857Y-116248571D01*
X180050000Y-116177142D01*
X179978571Y-116105714D01*
X179907142Y-115962857D01*
X179907142Y-115820000D01*
X179978571Y-115677142D01*
X180050000Y-115605714D01*
X180192857Y-115534285D01*
X180478571Y-115462857D01*
X180621428Y-115391428D01*
X180692857Y-115320000D01*
X180764285Y-115177142D01*
X180764285Y-115034285D01*
X180692857Y-114891428D01*
X180621428Y-114820000D01*
X180478571Y-114748571D01*
X180121428Y-114748571D01*
X179907142Y-114820000D01*
X178692857Y-116177142D02*
X178835714Y-116248571D01*
X179121428Y-116248571D01*
X179264285Y-116177142D01*
X179335714Y-116034285D01*
X179335714Y-115462857D01*
X179264285Y-115320000D01*
X179121428Y-115248571D01*
X178835714Y-115248571D01*
X178692857Y-115320000D01*
X178621428Y-115462857D01*
X178621428Y-115605714D01*
X179335714Y-115748571D01*
X177978571Y-116248571D02*
X177978571Y-115248571D01*
X177978571Y-115534285D02*
X177907142Y-115391428D01*
X177835714Y-115320000D01*
X177692857Y-115248571D01*
X177550000Y-115248571D01*
X177050000Y-116248571D02*
X177050000Y-115248571D01*
X177050000Y-114748571D02*
X177121428Y-114820000D01*
X177050000Y-114891428D01*
X176978571Y-114820000D01*
X177050000Y-114748571D01*
X177050000Y-114891428D01*
X175692857Y-116248571D02*
X175692857Y-115462857D01*
X175764285Y-115320000D01*
X175907142Y-115248571D01*
X176192857Y-115248571D01*
X176335714Y-115320000D01*
X175692857Y-116177142D02*
X175835714Y-116248571D01*
X176192857Y-116248571D01*
X176335714Y-116177142D01*
X176407142Y-116034285D01*
X176407142Y-115891428D01*
X176335714Y-115748571D01*
X176192857Y-115677142D01*
X175835714Y-115677142D01*
X175692857Y-115605714D01*
X174764285Y-116248571D02*
X174907142Y-116177142D01*
X174978571Y-116034285D01*
X174978571Y-114748571D01*
D10*
X167314571Y-115593904D02*
X167314571Y-115927238D01*
X167838380Y-116070095D02*
X167838380Y-115593904D01*
X166838380Y-115593904D01*
X166838380Y-116070095D01*
X167838380Y-116498666D02*
X166838380Y-116498666D01*
X167838380Y-117070095D01*
X166838380Y-117070095D01*
D11*
X157960000Y-114748571D02*
X157960000Y-115820000D01*
X158031428Y-116034285D01*
X158174285Y-116177142D01*
X158388571Y-116248571D01*
X158531428Y-116248571D01*
X157460000Y-114748571D02*
X156602857Y-114748571D01*
X157031428Y-116248571D02*
X157031428Y-114748571D01*
X156174285Y-115820000D02*
X155460000Y-115820000D01*
X156317142Y-116248571D02*
X155817142Y-114748571D01*
X155317142Y-116248571D01*
X154031428Y-114820000D02*
X154174285Y-114748571D01*
X154388571Y-114748571D01*
X154602857Y-114820000D01*
X154745714Y-114962857D01*
X154817142Y-115105714D01*
X154888571Y-115391428D01*
X154888571Y-115605714D01*
X154817142Y-115891428D01*
X154745714Y-116034285D01*
X154602857Y-116177142D01*
X154388571Y-116248571D01*
X154245714Y-116248571D01*
X154031428Y-116177142D01*
X153960000Y-116105714D01*
X153960000Y-115605714D01*
X154245714Y-115605714D01*
D10*
X148598000Y-116451142D02*
X148550380Y-116355904D01*
X148550380Y-116213047D01*
X148598000Y-116070190D01*
X148693238Y-115974952D01*
X148788476Y-115927333D01*
X148978952Y-115879714D01*
X149121809Y-115879714D01*
X149312285Y-115927333D01*
X149407523Y-115974952D01*
X149502761Y-116070190D01*
X149550380Y-116213047D01*
X149550380Y-116308285D01*
X149502761Y-116451142D01*
X149455142Y-116498761D01*
X149121809Y-116498761D01*
X149121809Y-116308285D01*
X148883714Y-116927333D02*
X149550380Y-116927333D01*
X148978952Y-116927333D02*
X148931333Y-116974952D01*
X148883714Y-117070190D01*
X148883714Y-117213047D01*
X148931333Y-117308285D01*
X149026571Y-117355904D01*
X149550380Y-117355904D01*
X149550380Y-118260666D02*
X148550380Y-118260666D01*
X149502761Y-118260666D02*
X149550380Y-118165428D01*
X149550380Y-117974952D01*
X149502761Y-117879714D01*
X149455142Y-117832095D01*
X149359904Y-117784476D01*
X149074190Y-117784476D01*
X148978952Y-117832095D01*
X148931333Y-117879714D01*
X148883714Y-117974952D01*
X148883714Y-118165428D01*
X148931333Y-118260666D01*
X169378380Y-115395523D02*
X169378380Y-115966952D01*
X170378380Y-115681238D02*
X169378380Y-115681238D01*
X170378380Y-116205047D02*
X169711714Y-116728857D01*
X169711714Y-116205047D02*
X170378380Y-116728857D01*
X170378380Y-117109809D02*
X169378380Y-117109809D01*
X169378380Y-117347904D01*
X169426000Y-117490761D01*
X169521238Y-117586000D01*
X169616476Y-117633619D01*
X169806952Y-117681238D01*
X169949809Y-117681238D01*
X170140285Y-117633619D01*
X170235523Y-117586000D01*
X170330761Y-117490761D01*
X170378380Y-117347904D01*
X170378380Y-117109809D01*
X148550380Y-107942190D02*
X148550380Y-108513619D01*
X149550380Y-108227904D02*
X148550380Y-108227904D01*
X149550380Y-108846952D02*
X148550380Y-108846952D01*
X148550380Y-109085047D01*
X148598000Y-109227904D01*
X148693238Y-109323142D01*
X148788476Y-109370761D01*
X148978952Y-109418380D01*
X149121809Y-109418380D01*
X149312285Y-109370761D01*
X149407523Y-109323142D01*
X149502761Y-109227904D01*
X149550380Y-109085047D01*
X149550380Y-108846952D01*
X149550380Y-109846952D02*
X148550380Y-109846952D01*
M02*
