M48
; DRILL file {KiCad (6.0.0)} date Mon Jan 24 17:46:19 2022
; FORMAT={-:-/ absolute / metric / decimal}
; #@! TF.CreationDate,2022-01-24T17:46:19-05:00
; #@! TF.GenerationSoftware,Kicad,Pcbnew,(6.0.0)
; #@! TF.FileFunction,Plated,1,2,PTH
FMAT,2
METRIC
; #@! TA.AperFunction,Plated,PTH,ViaDrill
T1C0.400
; #@! TA.AperFunction,Plated,PTH,ComponentDrill
T2C0.800
; #@! TA.AperFunction,Plated,PTH,ComponentDrill
T3C1.000
%
G90
G05
T1
X130.302Y-62.738
X133.096Y-68.072
X136.017Y-62.611
X136.017Y-65.151
X137.922Y-68.072
X139.319Y-63.881
X142.748Y-59.436
X145.796Y-67.818
X145.796Y-68.834
X145.796Y-69.85
X145.796Y-71.12
X145.796Y-72.136
X145.796Y-73.152
X145.796Y-74.168
X146.177Y-100.965
X147.32Y-58.166
X149.733Y-100.965
X149.86Y-53.848
X149.86Y-57.912
X152.4Y-75.438
X152.4Y-78.994
X154.432Y-100.076
X154.94Y-82.804
X154.94Y-87.122
X155.194Y-85.852
X155.194Y-88.646
X155.448Y-84.328
X155.448Y-89.916
X155.956Y-101.854
X156.972Y-99.06
X158.115Y-107.199
X159.131Y-108.077
X159.893Y-102.743
X160.147Y-109.093
X160.909Y-110.109
X161.798Y-97.536
X162.687Y-53.721
X162.814Y-85.852
X162.941Y-77.343
X163.068Y-91.44
X164.707Y-52.832
X164.846Y-88.646
X165.1Y-91.44
X168.91Y-73.406
X172.847Y-53.721
X172.847Y-54.991
X173.101Y-58.801
X173.101Y-61.341
X173.101Y-62.611
X173.101Y-65.151
X173.101Y-66.421
X173.736Y-96.52
X174.356Y-105.551
X174.356Y-109.601
X175.895Y-105.537
X175.895Y-109.601
X177.165Y-105.537
X177.165Y-109.601
X177.927Y-63.881
X178.054Y-73.406
X178.435Y-105.537
X178.435Y-109.601
X179.197Y-67.691
X179.997Y-60.662
X180.086Y-76.2
X180.594Y-77.216
X181.102Y-72.644
X181.356Y-65.786
X183.388Y-56.896
T2
X183.674Y-96.266
X185.674Y-96.266
X188.082Y-100.33
X190.082Y-100.33
T3
X124.206Y-52.578
X124.206Y-55.118
X124.206Y-57.658
X124.206Y-60.198
X124.206Y-62.738
X124.206Y-65.278
X124.206Y-67.818
X124.206Y-70.358
X124.206Y-72.898
X124.206Y-75.438
X124.206Y-77.978
X124.206Y-80.518
X124.206Y-83.058
X124.206Y-85.598
X124.206Y-88.138
X124.206Y-90.678
X124.206Y-93.218
X124.206Y-95.758
X124.206Y-98.298
X124.206Y-100.838
X124.206Y-103.378
X124.206Y-105.918
X124.206Y-108.458
X124.206Y-110.998
X124.206Y-113.538
X124.206Y-116.078
X137.541Y-104.521
X140.081Y-104.521
X141.346Y-111.877
X141.346Y-114.417
X142.621Y-104.521
X143.886Y-111.877
X143.886Y-114.417
X146.426Y-111.877
X146.426Y-114.417
X148.966Y-111.877
X148.966Y-114.417
X151.506Y-111.877
X151.506Y-114.417
X164.196Y-104.267
X166.736Y-104.267
X167.254Y-111.623
X167.254Y-114.163
X169.276Y-104.267
X169.794Y-111.623
X169.794Y-114.163
X171.74Y-88.444
X171.74Y-94.944
X172.334Y-111.623
X172.334Y-114.163
X176.24Y-88.444
X176.24Y-94.944
X183.18Y-105.659
X183.18Y-108.199
X185.72Y-105.659
X185.72Y-108.199
X188.26Y-105.659
X188.26Y-108.199
T0
M30
