%TF.GenerationSoftware,KiCad,Pcbnew,(6.0.0)*%
%TF.CreationDate,2022-01-24T17:46:17-05:00*%
%TF.ProjectId,esp32 breakout2,65737033-3220-4627-9265-616b6f757432,rev?*%
%TF.SameCoordinates,Original*%
%TF.FileFunction,Soldermask,Top*%
%TF.FilePolarity,Negative*%
%FSLAX46Y46*%
G04 Gerber Fmt 4.6, Leading zero omitted, Abs format (unit mm)*
G04 Created by KiCad (PCBNEW (6.0.0)) date 2022-01-24 17:46:17*
%MOMM*%
%LPD*%
G01*
G04 APERTURE LIST*
G04 Aperture macros list*
%AMRoundRect*
0 Rectangle with rounded corners*
0 $1 Rounding radius*
0 $2 $3 $4 $5 $6 $7 $8 $9 X,Y pos of 4 corners*
0 Add a 4 corners polygon primitive as box body*
4,1,4,$2,$3,$4,$5,$6,$7,$8,$9,$2,$3,0*
0 Add four circle primitives for the rounded corners*
1,1,$1+$1,$2,$3*
1,1,$1+$1,$4,$5*
1,1,$1+$1,$6,$7*
1,1,$1+$1,$8,$9*
0 Add four rect primitives between the rounded corners*
20,1,$1+$1,$2,$3,$4,$5,0*
20,1,$1+$1,$4,$5,$6,$7,0*
20,1,$1+$1,$6,$7,$8,$9,0*
20,1,$1+$1,$8,$9,$2,$3,0*%
G04 Aperture macros list end*
%ADD10RoundRect,0.200000X0.275000X-0.200000X0.275000X0.200000X-0.275000X0.200000X-0.275000X-0.200000X0*%
%ADD11RoundRect,0.225000X0.250000X-0.225000X0.250000X0.225000X-0.250000X0.225000X-0.250000X-0.225000X0*%
%ADD12RoundRect,0.225000X-0.225000X-0.250000X0.225000X-0.250000X0.225000X0.250000X-0.225000X0.250000X0*%
%ADD13R,1.700000X1.700000*%
%ADD14O,1.700000X1.700000*%
%ADD15RoundRect,0.225000X0.225000X0.250000X-0.225000X0.250000X-0.225000X-0.250000X0.225000X-0.250000X0*%
%ADD16RoundRect,0.250000X0.600000X-0.600000X0.600000X0.600000X-0.600000X0.600000X-0.600000X-0.600000X0*%
%ADD17C,1.700000*%
%ADD18C,3.200000*%
%ADD19R,1.600000X1.600000*%
%ADD20C,1.600000*%
%ADD21R,1.500000X2.000000*%
%ADD22R,3.800000X2.000000*%
%ADD23R,2.000000X0.900000*%
%ADD24R,1.330000X1.330000*%
%ADD25RoundRect,0.200000X-0.275000X0.200000X-0.275000X-0.200000X0.275000X-0.200000X0.275000X0.200000X0*%
%ADD26RoundRect,0.218750X-0.218750X-0.256250X0.218750X-0.256250X0.218750X0.256250X-0.218750X0.256250X0*%
%ADD27RoundRect,0.200000X0.200000X0.275000X-0.200000X0.275000X-0.200000X-0.275000X0.200000X-0.275000X0*%
G04 APERTURE END LIST*
D10*
%TO.C,R6*%
X149733000Y-106870000D03*
X149733000Y-105220000D03*
%TD*%
D11*
%TO.C,C6*%
X168910000Y-90437000D03*
X168910000Y-88887000D03*
%TD*%
D12*
%TO.C,C5*%
X167246000Y-107061000D03*
X168796000Y-107061000D03*
%TD*%
D13*
%TO.C,J1*%
X142621000Y-104521000D03*
D14*
X140081000Y-104521000D03*
X137541000Y-104521000D03*
%TD*%
D15*
%TO.C,C2*%
X140094000Y-107315000D03*
X138544000Y-107315000D03*
%TD*%
D16*
%TO.C,J4*%
X141346000Y-114417500D03*
D17*
X141346000Y-111877500D03*
X143886000Y-114417500D03*
X143886000Y-111877500D03*
X146426000Y-114417500D03*
X146426000Y-111877500D03*
X148966000Y-114417500D03*
X148966000Y-111877500D03*
X151506000Y-114417500D03*
X151506000Y-111877500D03*
%TD*%
D18*
%TO.C,H2*%
X189484000Y-115824000D03*
%TD*%
%TO.C,H1*%
X189484000Y-54356000D03*
%TD*%
D19*
%TO.C,C4*%
X185674000Y-96266000D03*
D20*
X183674000Y-96266000D03*
%TD*%
D13*
%TO.C,J3*%
X188259888Y-105659000D03*
D14*
X188259888Y-108199000D03*
X185719888Y-105659000D03*
X185719888Y-108199000D03*
X183179888Y-105659000D03*
X183179888Y-108199000D03*
%TD*%
D21*
%TO.C,U2*%
X183434888Y-91288000D03*
D22*
X185734888Y-84988000D03*
D21*
X185734888Y-91288000D03*
X188034888Y-91288000D03*
%TD*%
D23*
%TO.C,IC1*%
X158886000Y-52446000D03*
X158886000Y-53716000D03*
X158886000Y-54986000D03*
X158886000Y-56256000D03*
X158886000Y-57526000D03*
X158886000Y-58796000D03*
X158886000Y-60066000D03*
X158886000Y-61336000D03*
X158886000Y-62606000D03*
X158886000Y-63876000D03*
X158886000Y-65146000D03*
X158886000Y-66416000D03*
X158886000Y-67686000D03*
X158886000Y-68956000D03*
X158886000Y-70226000D03*
X158886000Y-71496000D03*
X158886000Y-72766000D03*
X158886000Y-74036000D03*
X158886000Y-75306000D03*
X175886000Y-75306000D03*
X175886000Y-74036000D03*
X175886000Y-72766000D03*
X175886000Y-71496000D03*
X175886000Y-70226000D03*
X175886000Y-68956000D03*
X175886000Y-67686000D03*
X175886000Y-66416000D03*
X175886000Y-65146000D03*
X175886000Y-63876000D03*
X175886000Y-62606000D03*
X175886000Y-61336000D03*
X175886000Y-60066000D03*
X175886000Y-58796000D03*
X175886000Y-57526000D03*
X175886000Y-56256000D03*
X175886000Y-54986000D03*
X175886000Y-53716000D03*
X175886000Y-52446000D03*
D24*
X166386000Y-59946000D03*
X164551000Y-58111000D03*
X164551000Y-59946000D03*
X164551000Y-61781000D03*
X166386000Y-61781000D03*
X168221000Y-61781000D03*
X168221000Y-59946000D03*
X168221000Y-58111000D03*
X166386000Y-58111000D03*
%TD*%
D11*
%TO.C,C1*%
X153416000Y-55893000D03*
X153416000Y-54343000D03*
%TD*%
D19*
%TO.C,C3*%
X188081775Y-100330000D03*
D20*
X190081775Y-100330000D03*
%TD*%
D25*
%TO.C,R1*%
X155448000Y-54293000D03*
X155448000Y-55943000D03*
%TD*%
D26*
%TO.C,D1*%
X182661388Y-82296000D03*
X184236388Y-82296000D03*
%TD*%
D10*
%TO.C,R9*%
X179578000Y-74739000D03*
X179578000Y-73089000D03*
%TD*%
%TO.C,R3*%
X147955000Y-106870000D03*
X147955000Y-105220000D03*
%TD*%
%TO.C,R2*%
X146177000Y-106870000D03*
X146177000Y-105220000D03*
%TD*%
D16*
%TO.C,J5*%
X167254000Y-114163500D03*
D17*
X167254000Y-111623500D03*
X169794000Y-114163500D03*
X169794000Y-111623500D03*
X172334000Y-114163500D03*
X172334000Y-111623500D03*
%TD*%
D13*
%TO.C,J2*%
X169276000Y-104267000D03*
D14*
X166736000Y-104267000D03*
X164196000Y-104267000D03*
%TD*%
D27*
%TO.C,R4*%
X187829888Y-82296000D03*
X186179888Y-82296000D03*
%TD*%
D10*
%TO.C,R5*%
X179832000Y-70675000D03*
X179832000Y-69025000D03*
%TD*%
D17*
%TO.C,SW1*%
X176240000Y-88444000D03*
X176240000Y-94944000D03*
X171740000Y-88444000D03*
X171740000Y-94944000D03*
%TD*%
D13*
%TO.C,J6*%
X124206000Y-116078000D03*
D14*
X124206000Y-113538000D03*
X124206000Y-110998000D03*
X124206000Y-108458000D03*
X124206000Y-105918000D03*
X124206000Y-103378000D03*
X124206000Y-100838000D03*
X124206000Y-98298000D03*
X124206000Y-95758000D03*
X124206000Y-93218000D03*
X124206000Y-90678000D03*
X124206000Y-88138000D03*
X124206000Y-85598000D03*
X124206000Y-83058000D03*
X124206000Y-80518000D03*
X124206000Y-77978000D03*
X124206000Y-75438000D03*
X124206000Y-72898000D03*
X124206000Y-70358000D03*
X124206000Y-67818000D03*
X124206000Y-65278000D03*
X124206000Y-62738000D03*
X124206000Y-60198000D03*
X124206000Y-57658000D03*
X124206000Y-55118000D03*
X124206000Y-52578000D03*
%TD*%
M02*
