%TF.GenerationSoftware,KiCad,Pcbnew,(6.0.0)*%
%TF.CreationDate,2022-01-24T17:46:17-05:00*%
%TF.ProjectId,esp32 breakout2,65737033-3220-4627-9265-616b6f757432,rev?*%
%TF.SameCoordinates,Original*%
%TF.FileFunction,Legend,Top*%
%TF.FilePolarity,Positive*%
%FSLAX46Y46*%
G04 Gerber Fmt 4.6, Leading zero omitted, Abs format (unit mm)*
G04 Created by KiCad (PCBNEW (6.0.0)) date 2022-01-24 17:46:17*
%MOMM*%
%LPD*%
G01*
G04 APERTURE LIST*
%ADD10C,0.150000*%
%ADD11C,0.300000*%
%ADD12C,0.254000*%
%ADD13C,0.120000*%
%ADD14C,0.100000*%
G04 APERTURE END LIST*
D10*
X126150952Y-107910380D02*
X126770000Y-107910380D01*
X126436666Y-108291333D01*
X126579523Y-108291333D01*
X126674761Y-108338952D01*
X126722380Y-108386571D01*
X126770000Y-108481809D01*
X126770000Y-108719904D01*
X126722380Y-108815142D01*
X126674761Y-108862761D01*
X126579523Y-108910380D01*
X126293809Y-108910380D01*
X126198571Y-108862761D01*
X126150952Y-108815142D01*
X128531904Y-108910380D02*
X128198571Y-108434190D01*
X127960476Y-108910380D02*
X127960476Y-107910380D01*
X128341428Y-107910380D01*
X128436666Y-107958000D01*
X128484285Y-108005619D01*
X128531904Y-108100857D01*
X128531904Y-108243714D01*
X128484285Y-108338952D01*
X128436666Y-108386571D01*
X128341428Y-108434190D01*
X127960476Y-108434190D01*
X128865238Y-108910380D02*
X129389047Y-108243714D01*
X128865238Y-108243714D02*
X129389047Y-108910380D01*
X129770000Y-108910380D02*
X129770000Y-107910380D01*
X130008095Y-107910380D01*
X130150952Y-107958000D01*
X130246190Y-108053238D01*
X130293809Y-108148476D01*
X130341428Y-108338952D01*
X130341428Y-108481809D01*
X130293809Y-108672285D01*
X130246190Y-108767523D01*
X130150952Y-108862761D01*
X130008095Y-108910380D01*
X129770000Y-108910380D01*
X126238095Y-74985619D02*
X126285714Y-74938000D01*
X126380952Y-74890380D01*
X126619047Y-74890380D01*
X126714285Y-74938000D01*
X126761904Y-74985619D01*
X126809523Y-75080857D01*
X126809523Y-75176095D01*
X126761904Y-75318952D01*
X126190476Y-75890380D01*
X126809523Y-75890380D01*
X127142857Y-74890380D02*
X127761904Y-74890380D01*
X127428571Y-75271333D01*
X127571428Y-75271333D01*
X127666666Y-75318952D01*
X127714285Y-75366571D01*
X127761904Y-75461809D01*
X127761904Y-75699904D01*
X127714285Y-75795142D01*
X127666666Y-75842761D01*
X127571428Y-75890380D01*
X127285714Y-75890380D01*
X127190476Y-75842761D01*
X127142857Y-75795142D01*
X126238095Y-67365619D02*
X126285714Y-67318000D01*
X126380952Y-67270380D01*
X126619047Y-67270380D01*
X126714285Y-67318000D01*
X126761904Y-67365619D01*
X126809523Y-67460857D01*
X126809523Y-67556095D01*
X126761904Y-67698952D01*
X126190476Y-68270380D01*
X126809523Y-68270380D01*
X127142857Y-67270380D02*
X127809523Y-67270380D01*
X127380952Y-68270380D01*
X126206285Y-110545619D02*
X126253904Y-110498000D01*
X126349142Y-110450380D01*
X126587238Y-110450380D01*
X126682476Y-110498000D01*
X126730095Y-110545619D01*
X126777714Y-110640857D01*
X126777714Y-110736095D01*
X126730095Y-110878952D01*
X126158666Y-111450380D01*
X126777714Y-111450380D01*
D11*
X140892285Y-81196571D02*
X140892285Y-80410857D01*
X140820857Y-80268000D01*
X140678000Y-80196571D01*
X140392285Y-80196571D01*
X140249428Y-80268000D01*
X140892285Y-81125142D02*
X140749428Y-81196571D01*
X140392285Y-81196571D01*
X140249428Y-81125142D01*
X140178000Y-80982285D01*
X140178000Y-80839428D01*
X140249428Y-80696571D01*
X140392285Y-80625142D01*
X140749428Y-80625142D01*
X140892285Y-80553714D01*
X141606571Y-81196571D02*
X141606571Y-79696571D01*
X141606571Y-80268000D02*
X141749428Y-80196571D01*
X142035142Y-80196571D01*
X142178000Y-80268000D01*
X142249428Y-80339428D01*
X142320857Y-80482285D01*
X142320857Y-80910857D01*
X142249428Y-81053714D01*
X142178000Y-81125142D01*
X142035142Y-81196571D01*
X141749428Y-81196571D01*
X141606571Y-81125142D01*
X142820857Y-80196571D02*
X143606571Y-80196571D01*
X142820857Y-81196571D01*
X143606571Y-81196571D01*
X144178000Y-81196571D02*
X144178000Y-80196571D01*
X144178000Y-80339428D02*
X144249428Y-80268000D01*
X144392285Y-80196571D01*
X144606571Y-80196571D01*
X144749428Y-80268000D01*
X144820857Y-80410857D01*
X144820857Y-81196571D01*
X144820857Y-80410857D02*
X144892285Y-80268000D01*
X145035142Y-80196571D01*
X145249428Y-80196571D01*
X145392285Y-80268000D01*
X145463714Y-80410857D01*
X145463714Y-81196571D01*
X146820857Y-81196571D02*
X146820857Y-80410857D01*
X146749428Y-80268000D01*
X146606571Y-80196571D01*
X146320857Y-80196571D01*
X146178000Y-80268000D01*
X146820857Y-81125142D02*
X146678000Y-81196571D01*
X146320857Y-81196571D01*
X146178000Y-81125142D01*
X146106571Y-80982285D01*
X146106571Y-80839428D01*
X146178000Y-80696571D01*
X146320857Y-80625142D01*
X146678000Y-80625142D01*
X146820857Y-80553714D01*
X147535142Y-80196571D02*
X147535142Y-81196571D01*
X147535142Y-80339428D02*
X147606571Y-80268000D01*
X147749428Y-80196571D01*
X147963714Y-80196571D01*
X148106571Y-80268000D01*
X148178000Y-80410857D01*
X148178000Y-81196571D01*
X148820857Y-79839428D02*
X148892285Y-79768000D01*
X149035142Y-79696571D01*
X149392285Y-79696571D01*
X149535142Y-79768000D01*
X149606571Y-79839428D01*
X149678000Y-79982285D01*
X149678000Y-80125142D01*
X149606571Y-80339428D01*
X148749428Y-81196571D01*
X149678000Y-81196571D01*
X150320857Y-81196571D02*
X150320857Y-79696571D01*
X150463714Y-80625142D02*
X150892285Y-81196571D01*
X150892285Y-80196571D02*
X150320857Y-80768000D01*
X151535142Y-81053714D02*
X151606571Y-81125142D01*
X151535142Y-81196571D01*
X151463714Y-81125142D01*
X151535142Y-81053714D01*
X151535142Y-81196571D01*
X152106571Y-80196571D02*
X152392285Y-81196571D01*
X152678000Y-80482285D01*
X152963714Y-81196571D01*
X153249428Y-80196571D01*
X154035142Y-81196571D02*
X153892285Y-81125142D01*
X153820857Y-81053714D01*
X153749428Y-80910857D01*
X153749428Y-80482285D01*
X153820857Y-80339428D01*
X153892285Y-80268000D01*
X154035142Y-80196571D01*
X154249428Y-80196571D01*
X154392285Y-80268000D01*
X154463714Y-80339428D01*
X154535142Y-80482285D01*
X154535142Y-80910857D01*
X154463714Y-81053714D01*
X154392285Y-81125142D01*
X154249428Y-81196571D01*
X154035142Y-81196571D01*
X155178000Y-81196571D02*
X155178000Y-80196571D01*
X155178000Y-80482285D02*
X155249428Y-80339428D01*
X155320857Y-80268000D01*
X155463714Y-80196571D01*
X155606571Y-80196571D01*
X156749428Y-81196571D02*
X156749428Y-79696571D01*
X156749428Y-81125142D02*
X156606571Y-81196571D01*
X156320857Y-81196571D01*
X156178000Y-81125142D01*
X156106571Y-81053714D01*
X156035142Y-80910857D01*
X156035142Y-80482285D01*
X156106571Y-80339428D01*
X156178000Y-80268000D01*
X156320857Y-80196571D01*
X156606571Y-80196571D01*
X156749428Y-80268000D01*
X157463714Y-80196571D02*
X157463714Y-81696571D01*
X157463714Y-80268000D02*
X157606571Y-80196571D01*
X157892285Y-80196571D01*
X158035142Y-80268000D01*
X158106571Y-80339428D01*
X158178000Y-80482285D01*
X158178000Y-80910857D01*
X158106571Y-81053714D01*
X158035142Y-81125142D01*
X157892285Y-81196571D01*
X157606571Y-81196571D01*
X157463714Y-81125142D01*
X158820857Y-81196571D02*
X158820857Y-80196571D01*
X158820857Y-80482285D02*
X158892285Y-80339428D01*
X158963714Y-80268000D01*
X159106571Y-80196571D01*
X159249428Y-80196571D01*
X160320857Y-81125142D02*
X160178000Y-81196571D01*
X159892285Y-81196571D01*
X159749428Y-81125142D01*
X159678000Y-80982285D01*
X159678000Y-80410857D01*
X159749428Y-80268000D01*
X159892285Y-80196571D01*
X160178000Y-80196571D01*
X160320857Y-80268000D01*
X160392285Y-80410857D01*
X160392285Y-80553714D01*
X159678000Y-80696571D01*
X160963714Y-81125142D02*
X161106571Y-81196571D01*
X161392285Y-81196571D01*
X161535142Y-81125142D01*
X161606571Y-80982285D01*
X161606571Y-80910857D01*
X161535142Y-80768000D01*
X161392285Y-80696571D01*
X161178000Y-80696571D01*
X161035142Y-80625142D01*
X160963714Y-80482285D01*
X160963714Y-80410857D01*
X161035142Y-80268000D01*
X161178000Y-80196571D01*
X161392285Y-80196571D01*
X161535142Y-80268000D01*
X162178000Y-81125142D02*
X162320857Y-81196571D01*
X162606571Y-81196571D01*
X162749428Y-81125142D01*
X162820857Y-80982285D01*
X162820857Y-80910857D01*
X162749428Y-80768000D01*
X162606571Y-80696571D01*
X162392285Y-80696571D01*
X162249428Y-80625142D01*
X162178000Y-80482285D01*
X162178000Y-80410857D01*
X162249428Y-80268000D01*
X162392285Y-80196571D01*
X162606571Y-80196571D01*
X162749428Y-80268000D01*
X163463714Y-81053714D02*
X163535142Y-81125142D01*
X163463714Y-81196571D01*
X163392285Y-81125142D01*
X163463714Y-81053714D01*
X163463714Y-81196571D01*
X164820857Y-81125142D02*
X164678000Y-81196571D01*
X164392285Y-81196571D01*
X164249428Y-81125142D01*
X164178000Y-81053714D01*
X164106571Y-80910857D01*
X164106571Y-80482285D01*
X164178000Y-80339428D01*
X164249428Y-80268000D01*
X164392285Y-80196571D01*
X164678000Y-80196571D01*
X164820857Y-80268000D01*
X165678000Y-81196571D02*
X165535142Y-81125142D01*
X165463714Y-81053714D01*
X165392285Y-80910857D01*
X165392285Y-80482285D01*
X165463714Y-80339428D01*
X165535142Y-80268000D01*
X165678000Y-80196571D01*
X165892285Y-80196571D01*
X166035142Y-80268000D01*
X166106571Y-80339428D01*
X166178000Y-80482285D01*
X166178000Y-80910857D01*
X166106571Y-81053714D01*
X166035142Y-81125142D01*
X165892285Y-81196571D01*
X165678000Y-81196571D01*
X166820857Y-81196571D02*
X166820857Y-80196571D01*
X166820857Y-80339428D02*
X166892285Y-80268000D01*
X167035142Y-80196571D01*
X167249428Y-80196571D01*
X167392285Y-80268000D01*
X167463714Y-80410857D01*
X167463714Y-81196571D01*
X167463714Y-80410857D02*
X167535142Y-80268000D01*
X167678000Y-80196571D01*
X167892285Y-80196571D01*
X168035142Y-80268000D01*
X168106571Y-80410857D01*
X168106571Y-81196571D01*
D10*
X166330380Y-102726857D02*
X167330380Y-102393523D01*
X166330380Y-102060190D01*
X167330380Y-101298285D02*
X166330380Y-101298285D01*
X167282761Y-101298285D02*
X167330380Y-101393523D01*
X167330380Y-101584000D01*
X167282761Y-101679238D01*
X167235142Y-101726857D01*
X167139904Y-101774476D01*
X166854190Y-101774476D01*
X166758952Y-101726857D01*
X166711333Y-101679238D01*
X166663714Y-101584000D01*
X166663714Y-101393523D01*
X166711333Y-101298285D01*
X167330380Y-100393523D02*
X166330380Y-100393523D01*
X167282761Y-100393523D02*
X167330380Y-100488761D01*
X167330380Y-100679238D01*
X167282761Y-100774476D01*
X167235142Y-100822095D01*
X167139904Y-100869714D01*
X166854190Y-100869714D01*
X166758952Y-100822095D01*
X166711333Y-100774476D01*
X166663714Y-100679238D01*
X166663714Y-100488761D01*
X166711333Y-100393523D01*
X167425619Y-100155428D02*
X167425619Y-99393523D01*
X166330380Y-99155428D02*
X167139904Y-99155428D01*
X167235142Y-99107809D01*
X167282761Y-99060190D01*
X167330380Y-98964952D01*
X167330380Y-98774476D01*
X167282761Y-98679238D01*
X167235142Y-98631619D01*
X167139904Y-98584000D01*
X166330380Y-98584000D01*
X136493904Y-84732761D02*
X136398666Y-84780380D01*
X136208190Y-84780380D01*
X136112952Y-84732761D01*
X136065333Y-84637523D01*
X136065333Y-84256571D01*
X136112952Y-84161333D01*
X136208190Y-84113714D01*
X136398666Y-84113714D01*
X136493904Y-84161333D01*
X136541523Y-84256571D01*
X136541523Y-84351809D01*
X136065333Y-84447047D01*
X136922476Y-84732761D02*
X137017714Y-84780380D01*
X137208190Y-84780380D01*
X137303428Y-84732761D01*
X137351047Y-84637523D01*
X137351047Y-84589904D01*
X137303428Y-84494666D01*
X137208190Y-84447047D01*
X137065333Y-84447047D01*
X136970095Y-84399428D01*
X136922476Y-84304190D01*
X136922476Y-84256571D01*
X136970095Y-84161333D01*
X137065333Y-84113714D01*
X137208190Y-84113714D01*
X137303428Y-84161333D01*
X137779619Y-84113714D02*
X137779619Y-85113714D01*
X137779619Y-84161333D02*
X137874857Y-84113714D01*
X138065333Y-84113714D01*
X138160571Y-84161333D01*
X138208190Y-84208952D01*
X138255809Y-84304190D01*
X138255809Y-84589904D01*
X138208190Y-84685142D01*
X138160571Y-84732761D01*
X138065333Y-84780380D01*
X137874857Y-84780380D01*
X137779619Y-84732761D01*
X138589142Y-83780380D02*
X139208190Y-83780380D01*
X138874857Y-84161333D01*
X139017714Y-84161333D01*
X139112952Y-84208952D01*
X139160571Y-84256571D01*
X139208190Y-84351809D01*
X139208190Y-84589904D01*
X139160571Y-84685142D01*
X139112952Y-84732761D01*
X139017714Y-84780380D01*
X138732000Y-84780380D01*
X138636761Y-84732761D01*
X138589142Y-84685142D01*
X139589142Y-83875619D02*
X139636761Y-83828000D01*
X139732000Y-83780380D01*
X139970095Y-83780380D01*
X140065333Y-83828000D01*
X140112952Y-83875619D01*
X140160571Y-83970857D01*
X140160571Y-84066095D01*
X140112952Y-84208952D01*
X139541523Y-84780380D01*
X140160571Y-84780380D01*
X141351047Y-84780380D02*
X141351047Y-83780380D01*
X141351047Y-84161333D02*
X141446285Y-84113714D01*
X141636761Y-84113714D01*
X141732000Y-84161333D01*
X141779619Y-84208952D01*
X141827238Y-84304190D01*
X141827238Y-84589904D01*
X141779619Y-84685142D01*
X141732000Y-84732761D01*
X141636761Y-84780380D01*
X141446285Y-84780380D01*
X141351047Y-84732761D01*
X142255809Y-84780380D02*
X142255809Y-84113714D01*
X142255809Y-84304190D02*
X142303428Y-84208952D01*
X142351047Y-84161333D01*
X142446285Y-84113714D01*
X142541523Y-84113714D01*
X143255809Y-84732761D02*
X143160571Y-84780380D01*
X142970095Y-84780380D01*
X142874857Y-84732761D01*
X142827238Y-84637523D01*
X142827238Y-84256571D01*
X142874857Y-84161333D01*
X142970095Y-84113714D01*
X143160571Y-84113714D01*
X143255809Y-84161333D01*
X143303428Y-84256571D01*
X143303428Y-84351809D01*
X142827238Y-84447047D01*
X144160571Y-84780380D02*
X144160571Y-84256571D01*
X144112952Y-84161333D01*
X144017714Y-84113714D01*
X143827238Y-84113714D01*
X143732000Y-84161333D01*
X144160571Y-84732761D02*
X144065333Y-84780380D01*
X143827238Y-84780380D01*
X143732000Y-84732761D01*
X143684380Y-84637523D01*
X143684380Y-84542285D01*
X143732000Y-84447047D01*
X143827238Y-84399428D01*
X144065333Y-84399428D01*
X144160571Y-84351809D01*
X144636761Y-84780380D02*
X144636761Y-83780380D01*
X144732000Y-84399428D02*
X145017714Y-84780380D01*
X145017714Y-84113714D02*
X144636761Y-84494666D01*
X145589142Y-84780380D02*
X145493904Y-84732761D01*
X145446285Y-84685142D01*
X145398666Y-84589904D01*
X145398666Y-84304190D01*
X145446285Y-84208952D01*
X145493904Y-84161333D01*
X145589142Y-84113714D01*
X145732000Y-84113714D01*
X145827238Y-84161333D01*
X145874857Y-84208952D01*
X145922476Y-84304190D01*
X145922476Y-84589904D01*
X145874857Y-84685142D01*
X145827238Y-84732761D01*
X145732000Y-84780380D01*
X145589142Y-84780380D01*
X146779619Y-84113714D02*
X146779619Y-84780380D01*
X146351047Y-84113714D02*
X146351047Y-84637523D01*
X146398666Y-84732761D01*
X146493904Y-84780380D01*
X146636761Y-84780380D01*
X146732000Y-84732761D01*
X146779619Y-84685142D01*
X147112952Y-84113714D02*
X147493904Y-84113714D01*
X147255809Y-83780380D02*
X147255809Y-84637523D01*
X147303428Y-84732761D01*
X147398666Y-84780380D01*
X147493904Y-84780380D01*
X138136666Y-86066380D02*
X138374761Y-87066380D01*
X138565238Y-86352095D01*
X138755714Y-87066380D01*
X138993809Y-86066380D01*
X139946190Y-87066380D02*
X139612857Y-86590190D01*
X139374761Y-87066380D02*
X139374761Y-86066380D01*
X139755714Y-86066380D01*
X139850952Y-86114000D01*
X139898571Y-86161619D01*
X139946190Y-86256857D01*
X139946190Y-86399714D01*
X139898571Y-86494952D01*
X139850952Y-86542571D01*
X139755714Y-86590190D01*
X139374761Y-86590190D01*
X140565238Y-86066380D02*
X140755714Y-86066380D01*
X140850952Y-86114000D01*
X140946190Y-86209238D01*
X140993809Y-86399714D01*
X140993809Y-86733047D01*
X140946190Y-86923523D01*
X140850952Y-87018761D01*
X140755714Y-87066380D01*
X140565238Y-87066380D01*
X140470000Y-87018761D01*
X140374761Y-86923523D01*
X140327142Y-86733047D01*
X140327142Y-86399714D01*
X140374761Y-86209238D01*
X140470000Y-86114000D01*
X140565238Y-86066380D01*
X141279523Y-86066380D02*
X141612857Y-87066380D01*
X141946190Y-86066380D01*
X142279523Y-86542571D02*
X142612857Y-86542571D01*
X142755714Y-87066380D02*
X142279523Y-87066380D01*
X142279523Y-86066380D01*
X142755714Y-86066380D01*
X143755714Y-87066380D02*
X143422380Y-86590190D01*
X143184285Y-87066380D02*
X143184285Y-86066380D01*
X143565238Y-86066380D01*
X143660476Y-86114000D01*
X143708095Y-86161619D01*
X143755714Y-86256857D01*
X143755714Y-86399714D01*
X143708095Y-86494952D01*
X143660476Y-86542571D01*
X143565238Y-86590190D01*
X143184285Y-86590190D01*
X126190476Y-62190380D02*
X126809523Y-62190380D01*
X126476190Y-62571333D01*
X126619047Y-62571333D01*
X126714285Y-62618952D01*
X126761904Y-62666571D01*
X126809523Y-62761809D01*
X126809523Y-62999904D01*
X126761904Y-63095142D01*
X126714285Y-63142761D01*
X126619047Y-63190380D01*
X126333333Y-63190380D01*
X126238095Y-63142761D01*
X126190476Y-63095142D01*
X127142857Y-62190380D02*
X127761904Y-62190380D01*
X127428571Y-62571333D01*
X127571428Y-62571333D01*
X127666666Y-62618952D01*
X127714285Y-62666571D01*
X127761904Y-62761809D01*
X127761904Y-62999904D01*
X127714285Y-63095142D01*
X127666666Y-63142761D01*
X127571428Y-63190380D01*
X127285714Y-63190380D01*
X127190476Y-63142761D01*
X127142857Y-63095142D01*
X126809523Y-83510380D02*
X126238095Y-83510380D01*
X126523809Y-83510380D02*
X126523809Y-82510380D01*
X126428571Y-82653238D01*
X126333333Y-82748476D01*
X126238095Y-82796095D01*
X127285714Y-83510380D02*
X127476190Y-83510380D01*
X127571428Y-83462761D01*
X127619047Y-83415142D01*
X127714285Y-83272285D01*
X127761904Y-83081809D01*
X127761904Y-82700857D01*
X127714285Y-82605619D01*
X127666666Y-82558000D01*
X127571428Y-82510380D01*
X127380952Y-82510380D01*
X127285714Y-82558000D01*
X127238095Y-82605619D01*
X127190476Y-82700857D01*
X127190476Y-82938952D01*
X127238095Y-83034190D01*
X127285714Y-83081809D01*
X127380952Y-83129428D01*
X127571428Y-83129428D01*
X127666666Y-83081809D01*
X127714285Y-83034190D01*
X127761904Y-82938952D01*
X126238095Y-69905619D02*
X126285714Y-69858000D01*
X126380952Y-69810380D01*
X126619047Y-69810380D01*
X126714285Y-69858000D01*
X126761904Y-69905619D01*
X126809523Y-70000857D01*
X126809523Y-70096095D01*
X126761904Y-70238952D01*
X126190476Y-70810380D01*
X126809523Y-70810380D01*
X127666666Y-69810380D02*
X127476190Y-69810380D01*
X127380952Y-69858000D01*
X127333333Y-69905619D01*
X127238095Y-70048476D01*
X127190476Y-70238952D01*
X127190476Y-70619904D01*
X127238095Y-70715142D01*
X127285714Y-70762761D01*
X127380952Y-70810380D01*
X127571428Y-70810380D01*
X127666666Y-70762761D01*
X127714285Y-70715142D01*
X127761904Y-70619904D01*
X127761904Y-70381809D01*
X127714285Y-70286571D01*
X127666666Y-70238952D01*
X127571428Y-70191333D01*
X127380952Y-70191333D01*
X127285714Y-70238952D01*
X127238095Y-70286571D01*
X127190476Y-70381809D01*
X168870380Y-101996857D02*
X168870380Y-102473047D01*
X169346571Y-102520666D01*
X169298952Y-102473047D01*
X169251333Y-102377809D01*
X169251333Y-102139714D01*
X169298952Y-102044476D01*
X169346571Y-101996857D01*
X169441809Y-101949238D01*
X169679904Y-101949238D01*
X169775142Y-101996857D01*
X169822761Y-102044476D01*
X169870380Y-102139714D01*
X169870380Y-102377809D01*
X169822761Y-102473047D01*
X169775142Y-102520666D01*
X169203714Y-101615904D02*
X169870380Y-101377809D01*
X169203714Y-101139714D01*
X126809523Y-86050380D02*
X126238095Y-86050380D01*
X126523809Y-86050380D02*
X126523809Y-85050380D01*
X126428571Y-85193238D01*
X126333333Y-85288476D01*
X126238095Y-85336095D01*
X127380952Y-85478952D02*
X127285714Y-85431333D01*
X127238095Y-85383714D01*
X127190476Y-85288476D01*
X127190476Y-85240857D01*
X127238095Y-85145619D01*
X127285714Y-85098000D01*
X127380952Y-85050380D01*
X127571428Y-85050380D01*
X127666666Y-85098000D01*
X127714285Y-85145619D01*
X127761904Y-85240857D01*
X127761904Y-85288476D01*
X127714285Y-85383714D01*
X127666666Y-85431333D01*
X127571428Y-85478952D01*
X127380952Y-85478952D01*
X127285714Y-85526571D01*
X127238095Y-85574190D01*
X127190476Y-85669428D01*
X127190476Y-85859904D01*
X127238095Y-85955142D01*
X127285714Y-86002761D01*
X127380952Y-86050380D01*
X127571428Y-86050380D01*
X127666666Y-86002761D01*
X127714285Y-85955142D01*
X127761904Y-85859904D01*
X127761904Y-85669428D01*
X127714285Y-85574190D01*
X127666666Y-85526571D01*
X127571428Y-85478952D01*
X126238095Y-77525619D02*
X126285714Y-77478000D01*
X126380952Y-77430380D01*
X126619047Y-77430380D01*
X126714285Y-77478000D01*
X126761904Y-77525619D01*
X126809523Y-77620857D01*
X126809523Y-77716095D01*
X126761904Y-77858952D01*
X126190476Y-78430380D01*
X126809523Y-78430380D01*
X127190476Y-77525619D02*
X127238095Y-77478000D01*
X127333333Y-77430380D01*
X127571428Y-77430380D01*
X127666666Y-77478000D01*
X127714285Y-77525619D01*
X127761904Y-77620857D01*
X127761904Y-77716095D01*
X127714285Y-77858952D01*
X127142857Y-78430380D01*
X127761904Y-78430380D01*
X126682476Y-105703714D02*
X126682476Y-106370380D01*
X126444380Y-105322761D02*
X126206285Y-106037047D01*
X126825333Y-106037047D01*
X126809523Y-88590380D02*
X126238095Y-88590380D01*
X126523809Y-88590380D02*
X126523809Y-87590380D01*
X126428571Y-87733238D01*
X126333333Y-87828476D01*
X126238095Y-87876095D01*
X127142857Y-87590380D02*
X127809523Y-87590380D01*
X127380952Y-88590380D01*
X126571619Y-98750380D02*
X126000190Y-98750380D01*
X126285904Y-98750380D02*
X126285904Y-97750380D01*
X126190666Y-97893238D01*
X126095428Y-97988476D01*
X126000190Y-98036095D01*
X126904952Y-97750380D02*
X127524000Y-97750380D01*
X127190666Y-98131333D01*
X127333523Y-98131333D01*
X127428761Y-98178952D01*
X127476380Y-98226571D01*
X127524000Y-98321809D01*
X127524000Y-98559904D01*
X127476380Y-98655142D01*
X127428761Y-98702761D01*
X127333523Y-98750380D01*
X127047809Y-98750380D01*
X126952571Y-98702761D01*
X126904952Y-98655142D01*
X128571619Y-97750380D02*
X129143047Y-97750380D01*
X128857333Y-98750380D02*
X128857333Y-97750380D01*
X130047809Y-98655142D02*
X130000190Y-98702761D01*
X129857333Y-98750380D01*
X129762095Y-98750380D01*
X129619238Y-98702761D01*
X129524000Y-98607523D01*
X129476380Y-98512285D01*
X129428761Y-98321809D01*
X129428761Y-98178952D01*
X129476380Y-97988476D01*
X129524000Y-97893238D01*
X129619238Y-97798000D01*
X129762095Y-97750380D01*
X129857333Y-97750380D01*
X130000190Y-97798000D01*
X130047809Y-97845619D01*
X130476380Y-98750380D02*
X130476380Y-97750380D01*
X131047809Y-98750380D02*
X130619238Y-98178952D01*
X131047809Y-97750380D02*
X130476380Y-98321809D01*
X126238095Y-80065619D02*
X126285714Y-80018000D01*
X126380952Y-79970380D01*
X126619047Y-79970380D01*
X126714285Y-80018000D01*
X126761904Y-80065619D01*
X126809523Y-80160857D01*
X126809523Y-80256095D01*
X126761904Y-80398952D01*
X126190476Y-80970380D01*
X126809523Y-80970380D01*
X127761904Y-80970380D02*
X127190476Y-80970380D01*
X127476190Y-80970380D02*
X127476190Y-79970380D01*
X127380952Y-80113238D01*
X127285714Y-80208476D01*
X127190476Y-80256095D01*
X126579523Y-101290380D02*
X126008095Y-101290380D01*
X126293809Y-101290380D02*
X126293809Y-100290380D01*
X126198571Y-100433238D01*
X126103333Y-100528476D01*
X126008095Y-100576095D01*
X126960476Y-100385619D02*
X127008095Y-100338000D01*
X127103333Y-100290380D01*
X127341428Y-100290380D01*
X127436666Y-100338000D01*
X127484285Y-100385619D01*
X127531904Y-100480857D01*
X127531904Y-100576095D01*
X127484285Y-100718952D01*
X126912857Y-101290380D01*
X127531904Y-101290380D01*
X128579523Y-100290380D02*
X129150952Y-100290380D01*
X128865238Y-101290380D02*
X128865238Y-100290380D01*
X129484285Y-101290380D02*
X129484285Y-100290380D01*
X129722380Y-100290380D01*
X129865238Y-100338000D01*
X129960476Y-100433238D01*
X130008095Y-100528476D01*
X130055714Y-100718952D01*
X130055714Y-100861809D01*
X130008095Y-101052285D01*
X129960476Y-101147523D01*
X129865238Y-101242761D01*
X129722380Y-101290380D01*
X129484285Y-101290380D01*
X130484285Y-101290380D02*
X130484285Y-100290380D01*
X126238095Y-72445619D02*
X126285714Y-72398000D01*
X126380952Y-72350380D01*
X126619047Y-72350380D01*
X126714285Y-72398000D01*
X126761904Y-72445619D01*
X126809523Y-72540857D01*
X126809523Y-72636095D01*
X126761904Y-72778952D01*
X126190476Y-73350380D01*
X126809523Y-73350380D01*
X127714285Y-72350380D02*
X127238095Y-72350380D01*
X127190476Y-72826571D01*
X127238095Y-72778952D01*
X127333333Y-72731333D01*
X127571428Y-72731333D01*
X127666666Y-72778952D01*
X127714285Y-72826571D01*
X127761904Y-72921809D01*
X127761904Y-73159904D01*
X127714285Y-73255142D01*
X127666666Y-73302761D01*
X127571428Y-73350380D01*
X127333333Y-73350380D01*
X127238095Y-73302761D01*
X127190476Y-73255142D01*
X126190476Y-57110380D02*
X126809523Y-57110380D01*
X126476190Y-57491333D01*
X126619047Y-57491333D01*
X126714285Y-57538952D01*
X126761904Y-57586571D01*
X126809523Y-57681809D01*
X126809523Y-57919904D01*
X126761904Y-58015142D01*
X126714285Y-58062761D01*
X126619047Y-58110380D01*
X126333333Y-58110380D01*
X126238095Y-58062761D01*
X126190476Y-58015142D01*
X127714285Y-57110380D02*
X127238095Y-57110380D01*
X127190476Y-57586571D01*
X127238095Y-57538952D01*
X127333333Y-57491333D01*
X127571428Y-57491333D01*
X127666666Y-57538952D01*
X127714285Y-57586571D01*
X127761904Y-57681809D01*
X127761904Y-57919904D01*
X127714285Y-58015142D01*
X127666666Y-58062761D01*
X127571428Y-58110380D01*
X127333333Y-58110380D01*
X127238095Y-58062761D01*
X127190476Y-58015142D01*
D11*
X171815428Y-85768571D02*
X171815428Y-84768571D01*
X171815428Y-85054285D02*
X171886857Y-84911428D01*
X171958285Y-84840000D01*
X172101142Y-84768571D01*
X172244000Y-84768571D01*
X173315428Y-85697142D02*
X173172571Y-85768571D01*
X172886857Y-85768571D01*
X172744000Y-85697142D01*
X172672571Y-85554285D01*
X172672571Y-84982857D01*
X172744000Y-84840000D01*
X172886857Y-84768571D01*
X173172571Y-84768571D01*
X173315428Y-84840000D01*
X173386857Y-84982857D01*
X173386857Y-85125714D01*
X172672571Y-85268571D01*
X173958285Y-85697142D02*
X174101142Y-85768571D01*
X174386857Y-85768571D01*
X174529714Y-85697142D01*
X174601142Y-85554285D01*
X174601142Y-85482857D01*
X174529714Y-85340000D01*
X174386857Y-85268571D01*
X174172571Y-85268571D01*
X174029714Y-85197142D01*
X173958285Y-85054285D01*
X173958285Y-84982857D01*
X174029714Y-84840000D01*
X174172571Y-84768571D01*
X174386857Y-84768571D01*
X174529714Y-84840000D01*
X175815428Y-85697142D02*
X175672571Y-85768571D01*
X175386857Y-85768571D01*
X175244000Y-85697142D01*
X175172571Y-85554285D01*
X175172571Y-84982857D01*
X175244000Y-84840000D01*
X175386857Y-84768571D01*
X175672571Y-84768571D01*
X175815428Y-84840000D01*
X175886857Y-84982857D01*
X175886857Y-85125714D01*
X175172571Y-85268571D01*
X176315428Y-84768571D02*
X176886857Y-84768571D01*
X176529714Y-84268571D02*
X176529714Y-85554285D01*
X176601142Y-85697142D01*
X176744000Y-85768571D01*
X176886857Y-85768571D01*
D10*
X187666380Y-110886857D02*
X187666380Y-111363047D01*
X188142571Y-111410666D01*
X188094952Y-111363047D01*
X188047333Y-111267809D01*
X188047333Y-111029714D01*
X188094952Y-110934476D01*
X188142571Y-110886857D01*
X188237809Y-110839238D01*
X188475904Y-110839238D01*
X188571142Y-110886857D01*
X188618761Y-110934476D01*
X188666380Y-111029714D01*
X188666380Y-111267809D01*
X188618761Y-111363047D01*
X188571142Y-111410666D01*
X187999714Y-110505904D02*
X188666380Y-110267809D01*
X187999714Y-110029714D01*
X126730095Y-102830380D02*
X126253904Y-102830380D01*
X126206285Y-103306571D01*
X126253904Y-103258952D01*
X126349142Y-103211333D01*
X126587238Y-103211333D01*
X126682476Y-103258952D01*
X126730095Y-103306571D01*
X126777714Y-103401809D01*
X126777714Y-103639904D01*
X126730095Y-103735142D01*
X126682476Y-103782761D01*
X126587238Y-103830380D01*
X126349142Y-103830380D01*
X126253904Y-103782761D01*
X126206285Y-103735142D01*
X126524000Y-96210380D02*
X125952571Y-96210380D01*
X126238285Y-96210380D02*
X126238285Y-95210380D01*
X126143047Y-95353238D01*
X126047809Y-95448476D01*
X125952571Y-95496095D01*
X127381142Y-95543714D02*
X127381142Y-96210380D01*
X127143047Y-95162761D02*
X126904952Y-95877047D01*
X127524000Y-95877047D01*
X128524000Y-95210380D02*
X129095428Y-95210380D01*
X128809714Y-96210380D02*
X128809714Y-95210380D01*
X129428761Y-96210380D02*
X129428761Y-95210380D01*
X129762095Y-95924666D01*
X130095428Y-95210380D01*
X130095428Y-96210380D01*
X130524000Y-96162761D02*
X130666857Y-96210380D01*
X130904952Y-96210380D01*
X131000190Y-96162761D01*
X131047809Y-96115142D01*
X131095428Y-96019904D01*
X131095428Y-95924666D01*
X131047809Y-95829428D01*
X131000190Y-95781809D01*
X130904952Y-95734190D01*
X130714476Y-95686571D01*
X130619238Y-95638952D01*
X130571619Y-95591333D01*
X130524000Y-95496095D01*
X130524000Y-95400857D01*
X130571619Y-95305619D01*
X130619238Y-95258000D01*
X130714476Y-95210380D01*
X130952571Y-95210380D01*
X131095428Y-95258000D01*
X126444380Y-115784380D02*
X126539619Y-115784380D01*
X126634857Y-115832000D01*
X126682476Y-115879619D01*
X126730095Y-115974857D01*
X126777714Y-116165333D01*
X126777714Y-116403428D01*
X126730095Y-116593904D01*
X126682476Y-116689142D01*
X126634857Y-116736761D01*
X126539619Y-116784380D01*
X126444380Y-116784380D01*
X126349142Y-116736761D01*
X126301523Y-116689142D01*
X126253904Y-116593904D01*
X126206285Y-116403428D01*
X126206285Y-116165333D01*
X126253904Y-115974857D01*
X126301523Y-115879619D01*
X126349142Y-115832000D01*
X126444380Y-115784380D01*
X126809523Y-91130380D02*
X126238095Y-91130380D01*
X126523809Y-91130380D02*
X126523809Y-90130380D01*
X126428571Y-90273238D01*
X126333333Y-90368476D01*
X126238095Y-90416095D01*
X127666666Y-90130380D02*
X127476190Y-90130380D01*
X127380952Y-90178000D01*
X127333333Y-90225619D01*
X127238095Y-90368476D01*
X127190476Y-90558952D01*
X127190476Y-90939904D01*
X127238095Y-91035142D01*
X127285714Y-91082761D01*
X127380952Y-91130380D01*
X127571428Y-91130380D01*
X127666666Y-91082761D01*
X127714285Y-91035142D01*
X127761904Y-90939904D01*
X127761904Y-90701809D01*
X127714285Y-90606571D01*
X127666666Y-90558952D01*
X127571428Y-90511333D01*
X127380952Y-90511333D01*
X127285714Y-90558952D01*
X127238095Y-90606571D01*
X127190476Y-90701809D01*
X182634000Y-111894857D02*
X182586380Y-111990095D01*
X182586380Y-112132952D01*
X182634000Y-112275809D01*
X182729238Y-112371047D01*
X182824476Y-112418666D01*
X183014952Y-112466285D01*
X183157809Y-112466285D01*
X183348285Y-112418666D01*
X183443523Y-112371047D01*
X183538761Y-112275809D01*
X183586380Y-112132952D01*
X183586380Y-112037714D01*
X183538761Y-111894857D01*
X183491142Y-111847238D01*
X183157809Y-111847238D01*
X183157809Y-112037714D01*
X182919714Y-111418666D02*
X183586380Y-111418666D01*
X183014952Y-111418666D02*
X182967333Y-111371047D01*
X182919714Y-111275809D01*
X182919714Y-111132952D01*
X182967333Y-111037714D01*
X183062571Y-110990095D01*
X183586380Y-110990095D01*
X183586380Y-110085333D02*
X182586380Y-110085333D01*
X183538761Y-110085333D02*
X183586380Y-110180571D01*
X183586380Y-110371047D01*
X183538761Y-110466285D01*
X183491142Y-110513904D01*
X183395904Y-110561523D01*
X183110190Y-110561523D01*
X183014952Y-110513904D01*
X182967333Y-110466285D01*
X182919714Y-110371047D01*
X182919714Y-110180571D01*
X182967333Y-110085333D01*
X126190476Y-54570380D02*
X126809523Y-54570380D01*
X126476190Y-54951333D01*
X126619047Y-54951333D01*
X126714285Y-54998952D01*
X126761904Y-55046571D01*
X126809523Y-55141809D01*
X126809523Y-55379904D01*
X126761904Y-55475142D01*
X126714285Y-55522761D01*
X126619047Y-55570380D01*
X126333333Y-55570380D01*
X126238095Y-55522761D01*
X126190476Y-55475142D01*
X127666666Y-54570380D02*
X127476190Y-54570380D01*
X127380952Y-54618000D01*
X127333333Y-54665619D01*
X127238095Y-54808476D01*
X127190476Y-54998952D01*
X127190476Y-55379904D01*
X127238095Y-55475142D01*
X127285714Y-55522761D01*
X127380952Y-55570380D01*
X127571428Y-55570380D01*
X127666666Y-55522761D01*
X127714285Y-55475142D01*
X127761904Y-55379904D01*
X127761904Y-55141809D01*
X127714285Y-55046571D01*
X127666666Y-54998952D01*
X127571428Y-54951333D01*
X127380952Y-54951333D01*
X127285714Y-54998952D01*
X127238095Y-55046571D01*
X127190476Y-55141809D01*
X136866380Y-102790476D02*
X136866380Y-102171428D01*
X137247333Y-102504761D01*
X137247333Y-102361904D01*
X137294952Y-102266666D01*
X137342571Y-102219047D01*
X137437809Y-102171428D01*
X137675904Y-102171428D01*
X137771142Y-102219047D01*
X137818761Y-102266666D01*
X137866380Y-102361904D01*
X137866380Y-102647619D01*
X137818761Y-102742857D01*
X137771142Y-102790476D01*
X137199714Y-101838095D02*
X137866380Y-101600000D01*
X137199714Y-101361904D01*
X136866380Y-101076190D02*
X136866380Y-100457142D01*
X137247333Y-100790476D01*
X137247333Y-100647619D01*
X137294952Y-100552380D01*
X137342571Y-100504761D01*
X137437809Y-100457142D01*
X137675904Y-100457142D01*
X137771142Y-100504761D01*
X137818761Y-100552380D01*
X137866380Y-100647619D01*
X137866380Y-100933333D01*
X137818761Y-101028571D01*
X137771142Y-101076190D01*
X126547809Y-93670380D02*
X125976380Y-93670380D01*
X126262095Y-93670380D02*
X126262095Y-92670380D01*
X126166857Y-92813238D01*
X126071619Y-92908476D01*
X125976380Y-92956095D01*
X127452571Y-92670380D02*
X126976380Y-92670380D01*
X126928761Y-93146571D01*
X126976380Y-93098952D01*
X127071619Y-93051333D01*
X127309714Y-93051333D01*
X127404952Y-93098952D01*
X127452571Y-93146571D01*
X127500190Y-93241809D01*
X127500190Y-93479904D01*
X127452571Y-93575142D01*
X127404952Y-93622761D01*
X127309714Y-93670380D01*
X127071619Y-93670380D01*
X126976380Y-93622761D01*
X126928761Y-93575142D01*
X128547809Y-92670380D02*
X129119238Y-92670380D01*
X128833523Y-93670380D02*
X128833523Y-92670380D01*
X129452571Y-93670380D02*
X129452571Y-92670380D01*
X129690666Y-92670380D01*
X129833523Y-92718000D01*
X129928761Y-92813238D01*
X129976380Y-92908476D01*
X130024000Y-93098952D01*
X130024000Y-93241809D01*
X129976380Y-93432285D01*
X129928761Y-93527523D01*
X129833523Y-93622761D01*
X129690666Y-93670380D01*
X129452571Y-93670380D01*
X130643047Y-92670380D02*
X130833523Y-92670380D01*
X130928761Y-92718000D01*
X131024000Y-92813238D01*
X131071619Y-93003714D01*
X131071619Y-93337047D01*
X131024000Y-93527523D01*
X130928761Y-93622761D01*
X130833523Y-93670380D01*
X130643047Y-93670380D01*
X130547809Y-93622761D01*
X130452571Y-93527523D01*
X130404952Y-93337047D01*
X130404952Y-93003714D01*
X130452571Y-92813238D01*
X130547809Y-92718000D01*
X130643047Y-92670380D01*
X142200380Y-102250857D02*
X142200380Y-102727047D01*
X142676571Y-102774666D01*
X142628952Y-102727047D01*
X142581333Y-102631809D01*
X142581333Y-102393714D01*
X142628952Y-102298476D01*
X142676571Y-102250857D01*
X142771809Y-102203238D01*
X143009904Y-102203238D01*
X143105142Y-102250857D01*
X143152761Y-102298476D01*
X143200380Y-102393714D01*
X143200380Y-102631809D01*
X143152761Y-102727047D01*
X143105142Y-102774666D01*
X142533714Y-101869904D02*
X143200380Y-101631809D01*
X142533714Y-101393714D01*
X126889047Y-113990380D02*
X126317619Y-113990380D01*
X126603333Y-113990380D02*
X126603333Y-112990380D01*
X126508095Y-113133238D01*
X126412857Y-113228476D01*
X126317619Y-113276095D01*
X127936666Y-112990380D02*
X128508095Y-112990380D01*
X128222380Y-113990380D02*
X128222380Y-112990380D01*
X128746190Y-113990380D02*
X129270000Y-113323714D01*
X128746190Y-113323714D02*
X129270000Y-113990380D01*
X129650952Y-113990380D02*
X129650952Y-112990380D01*
X129889047Y-112990380D01*
X130031904Y-113038000D01*
X130127142Y-113133238D01*
X130174761Y-113228476D01*
X130222380Y-113418952D01*
X130222380Y-113561809D01*
X130174761Y-113752285D01*
X130127142Y-113847523D01*
X130031904Y-113942761D01*
X129889047Y-113990380D01*
X129650952Y-113990380D01*
X126190476Y-52030380D02*
X126809523Y-52030380D01*
X126476190Y-52411333D01*
X126619047Y-52411333D01*
X126714285Y-52458952D01*
X126761904Y-52506571D01*
X126809523Y-52601809D01*
X126809523Y-52839904D01*
X126761904Y-52935142D01*
X126714285Y-52982761D01*
X126619047Y-53030380D01*
X126333333Y-53030380D01*
X126238095Y-52982761D01*
X126190476Y-52935142D01*
X127285714Y-53030380D02*
X127476190Y-53030380D01*
X127571428Y-52982761D01*
X127619047Y-52935142D01*
X127714285Y-52792285D01*
X127761904Y-52601809D01*
X127761904Y-52220857D01*
X127714285Y-52125619D01*
X127666666Y-52078000D01*
X127571428Y-52030380D01*
X127380952Y-52030380D01*
X127285714Y-52078000D01*
X127238095Y-52125619D01*
X127190476Y-52220857D01*
X127190476Y-52458952D01*
X127238095Y-52554190D01*
X127285714Y-52601809D01*
X127380952Y-52649428D01*
X127571428Y-52649428D01*
X127666666Y-52601809D01*
X127714285Y-52554190D01*
X127761904Y-52458952D01*
X163790380Y-102536476D02*
X163790380Y-101917428D01*
X164171333Y-102250761D01*
X164171333Y-102107904D01*
X164218952Y-102012666D01*
X164266571Y-101965047D01*
X164361809Y-101917428D01*
X164599904Y-101917428D01*
X164695142Y-101965047D01*
X164742761Y-102012666D01*
X164790380Y-102107904D01*
X164790380Y-102393619D01*
X164742761Y-102488857D01*
X164695142Y-102536476D01*
X164123714Y-101584095D02*
X164790380Y-101346000D01*
X164123714Y-101107904D01*
X163790380Y-100822190D02*
X163790380Y-100203142D01*
X164171333Y-100536476D01*
X164171333Y-100393619D01*
X164218952Y-100298380D01*
X164266571Y-100250761D01*
X164361809Y-100203142D01*
X164599904Y-100203142D01*
X164695142Y-100250761D01*
X164742761Y-100298380D01*
X164790380Y-100393619D01*
X164790380Y-100679333D01*
X164742761Y-100774571D01*
X164695142Y-100822190D01*
X126190476Y-59650380D02*
X126809523Y-59650380D01*
X126476190Y-60031333D01*
X126619047Y-60031333D01*
X126714285Y-60078952D01*
X126761904Y-60126571D01*
X126809523Y-60221809D01*
X126809523Y-60459904D01*
X126761904Y-60555142D01*
X126714285Y-60602761D01*
X126619047Y-60650380D01*
X126333333Y-60650380D01*
X126238095Y-60602761D01*
X126190476Y-60555142D01*
X127666666Y-59983714D02*
X127666666Y-60650380D01*
X127428571Y-59602761D02*
X127190476Y-60317047D01*
X127809523Y-60317047D01*
X185380380Y-112442476D02*
X185380380Y-111823428D01*
X185761333Y-112156761D01*
X185761333Y-112013904D01*
X185808952Y-111918666D01*
X185856571Y-111871047D01*
X185951809Y-111823428D01*
X186189904Y-111823428D01*
X186285142Y-111871047D01*
X186332761Y-111918666D01*
X186380380Y-112013904D01*
X186380380Y-112299619D01*
X186332761Y-112394857D01*
X186285142Y-112442476D01*
X185713714Y-111490095D02*
X186380380Y-111252000D01*
X185713714Y-111013904D01*
X185380380Y-110728190D02*
X185380380Y-110109142D01*
X185761333Y-110442476D01*
X185761333Y-110299619D01*
X185808952Y-110204380D01*
X185856571Y-110156761D01*
X185951809Y-110109142D01*
X186189904Y-110109142D01*
X186285142Y-110156761D01*
X186332761Y-110204380D01*
X186380380Y-110299619D01*
X186380380Y-110585333D01*
X186332761Y-110680571D01*
X186285142Y-110728190D01*
X126190476Y-64730380D02*
X126809523Y-64730380D01*
X126476190Y-65111333D01*
X126619047Y-65111333D01*
X126714285Y-65158952D01*
X126761904Y-65206571D01*
X126809523Y-65301809D01*
X126809523Y-65539904D01*
X126761904Y-65635142D01*
X126714285Y-65682761D01*
X126619047Y-65730380D01*
X126333333Y-65730380D01*
X126238095Y-65682761D01*
X126190476Y-65635142D01*
X127190476Y-64825619D02*
X127238095Y-64778000D01*
X127333333Y-64730380D01*
X127571428Y-64730380D01*
X127666666Y-64778000D01*
X127714285Y-64825619D01*
X127761904Y-64920857D01*
X127761904Y-65016095D01*
X127714285Y-65158952D01*
X127142857Y-65730380D01*
X127761904Y-65730380D01*
X139660380Y-102838000D02*
X140660380Y-102504666D01*
X139660380Y-102171333D01*
X140660380Y-101409428D02*
X139660380Y-101409428D01*
X140612761Y-101409428D02*
X140660380Y-101504666D01*
X140660380Y-101695142D01*
X140612761Y-101790380D01*
X140565142Y-101838000D01*
X140469904Y-101885619D01*
X140184190Y-101885619D01*
X140088952Y-101838000D01*
X140041333Y-101790380D01*
X139993714Y-101695142D01*
X139993714Y-101504666D01*
X140041333Y-101409428D01*
X140660380Y-100504666D02*
X139660380Y-100504666D01*
X140612761Y-100504666D02*
X140660380Y-100599904D01*
X140660380Y-100790380D01*
X140612761Y-100885619D01*
X140565142Y-100933238D01*
X140469904Y-100980857D01*
X140184190Y-100980857D01*
X140088952Y-100933238D01*
X140041333Y-100885619D01*
X139993714Y-100790380D01*
X139993714Y-100599904D01*
X140041333Y-100504666D01*
X140755619Y-100266571D02*
X140755619Y-99504666D01*
X139660380Y-98980857D02*
X140374666Y-98980857D01*
X140517523Y-99028476D01*
X140612761Y-99123714D01*
X140660380Y-99266571D01*
X140660380Y-99361809D01*
%TO.C,R6*%
X150185380Y-103687476D02*
X150185380Y-104258904D01*
X150185380Y-103973190D02*
X149185380Y-103973190D01*
X149328238Y-104068428D01*
X149423476Y-104163666D01*
X149471095Y-104258904D01*
X149185380Y-103068428D02*
X149185380Y-102973190D01*
X149233000Y-102877952D01*
X149280619Y-102830333D01*
X149375857Y-102782714D01*
X149566333Y-102735095D01*
X149804428Y-102735095D01*
X149994904Y-102782714D01*
X150090142Y-102830333D01*
X150137761Y-102877952D01*
X150185380Y-102973190D01*
X150185380Y-103068428D01*
X150137761Y-103163666D01*
X150090142Y-103211285D01*
X149994904Y-103258904D01*
X149804428Y-103306523D01*
X149566333Y-103306523D01*
X149375857Y-103258904D01*
X149280619Y-103211285D01*
X149233000Y-103163666D01*
X149185380Y-103068428D01*
X150185380Y-102306523D02*
X149185380Y-102306523D01*
X150185380Y-101735095D02*
X149613952Y-102163666D01*
X149185380Y-101735095D02*
X149756809Y-102306523D01*
%TO.C,C6*%
X169362380Y-93305238D02*
X169362380Y-93876666D01*
X169362380Y-93590952D02*
X168362380Y-93590952D01*
X168505238Y-93686190D01*
X168600476Y-93781428D01*
X168648095Y-93876666D01*
X168695714Y-92876666D02*
X169362380Y-92876666D01*
X168790952Y-92876666D02*
X168743333Y-92829047D01*
X168695714Y-92733809D01*
X168695714Y-92590952D01*
X168743333Y-92495714D01*
X168838571Y-92448095D01*
X169362380Y-92448095D01*
X168838571Y-91638571D02*
X168838571Y-91971904D01*
X169362380Y-91971904D02*
X168362380Y-91971904D01*
X168362380Y-91495714D01*
%TO.C,C5*%
X162568142Y-106513380D02*
X162663380Y-106513380D01*
X162758619Y-106561000D01*
X162806238Y-106608619D01*
X162853857Y-106703857D01*
X162901476Y-106894333D01*
X162901476Y-107132428D01*
X162853857Y-107322904D01*
X162806238Y-107418142D01*
X162758619Y-107465761D01*
X162663380Y-107513380D01*
X162568142Y-107513380D01*
X162472904Y-107465761D01*
X162425285Y-107418142D01*
X162377666Y-107322904D01*
X162330047Y-107132428D01*
X162330047Y-106894333D01*
X162377666Y-106703857D01*
X162425285Y-106608619D01*
X162472904Y-106561000D01*
X162568142Y-106513380D01*
X163330047Y-107418142D02*
X163377666Y-107465761D01*
X163330047Y-107513380D01*
X163282428Y-107465761D01*
X163330047Y-107418142D01*
X163330047Y-107513380D01*
X164330047Y-107513380D02*
X163758619Y-107513380D01*
X164044333Y-107513380D02*
X164044333Y-106513380D01*
X163949095Y-106656238D01*
X163853857Y-106751476D01*
X163758619Y-106799095D01*
X165187190Y-106846714D02*
X165187190Y-107513380D01*
X164758619Y-106846714D02*
X164758619Y-107370523D01*
X164806238Y-107465761D01*
X164901476Y-107513380D01*
X165044333Y-107513380D01*
X165139571Y-107465761D01*
X165187190Y-107418142D01*
X165996714Y-106989571D02*
X165663380Y-106989571D01*
X165663380Y-107513380D02*
X165663380Y-106513380D01*
X166139571Y-106513380D01*
%TO.C,C2*%
X141486142Y-106513380D02*
X141581380Y-106513380D01*
X141676619Y-106561000D01*
X141724238Y-106608619D01*
X141771857Y-106703857D01*
X141819476Y-106894333D01*
X141819476Y-107132428D01*
X141771857Y-107322904D01*
X141724238Y-107418142D01*
X141676619Y-107465761D01*
X141581380Y-107513380D01*
X141486142Y-107513380D01*
X141390904Y-107465761D01*
X141343285Y-107418142D01*
X141295666Y-107322904D01*
X141248047Y-107132428D01*
X141248047Y-106894333D01*
X141295666Y-106703857D01*
X141343285Y-106608619D01*
X141390904Y-106561000D01*
X141486142Y-106513380D01*
X142248047Y-107418142D02*
X142295666Y-107465761D01*
X142248047Y-107513380D01*
X142200428Y-107465761D01*
X142248047Y-107418142D01*
X142248047Y-107513380D01*
X143248047Y-107513380D02*
X142676619Y-107513380D01*
X142962333Y-107513380D02*
X142962333Y-106513380D01*
X142867095Y-106656238D01*
X142771857Y-106751476D01*
X142676619Y-106799095D01*
X144105190Y-106846714D02*
X144105190Y-107513380D01*
X143676619Y-106846714D02*
X143676619Y-107370523D01*
X143724238Y-107465761D01*
X143819476Y-107513380D01*
X143962333Y-107513380D01*
X144057571Y-107465761D01*
X144105190Y-107418142D01*
X144914714Y-106989571D02*
X144581380Y-106989571D01*
X144581380Y-107513380D02*
X144581380Y-106513380D01*
X145057571Y-106513380D01*
%TO.C,C4*%
X189079142Y-96432666D02*
X189126761Y-96480285D01*
X189174380Y-96623142D01*
X189174380Y-96718380D01*
X189126761Y-96861238D01*
X189031523Y-96956476D01*
X188936285Y-97004095D01*
X188745809Y-97051714D01*
X188602952Y-97051714D01*
X188412476Y-97004095D01*
X188317238Y-96956476D01*
X188222000Y-96861238D01*
X188174380Y-96718380D01*
X188174380Y-96623142D01*
X188222000Y-96480285D01*
X188269619Y-96432666D01*
X188507714Y-95575523D02*
X189174380Y-95575523D01*
X188126761Y-95813619D02*
X188841047Y-96051714D01*
X188841047Y-95432666D01*
X180141619Y-97908857D02*
X180094000Y-97861238D01*
X180046380Y-97766000D01*
X180046380Y-97527904D01*
X180094000Y-97432666D01*
X180141619Y-97385047D01*
X180236857Y-97337428D01*
X180332095Y-97337428D01*
X180474952Y-97385047D01*
X181046380Y-97956476D01*
X181046380Y-97337428D01*
X180141619Y-96956476D02*
X180094000Y-96908857D01*
X180046380Y-96813619D01*
X180046380Y-96575523D01*
X180094000Y-96480285D01*
X180141619Y-96432666D01*
X180236857Y-96385047D01*
X180332095Y-96385047D01*
X180474952Y-96432666D01*
X181046380Y-97004095D01*
X181046380Y-96385047D01*
X180379714Y-95527904D02*
X181046380Y-95527904D01*
X180379714Y-95956476D02*
X180903523Y-95956476D01*
X180998761Y-95908857D01*
X181046380Y-95813619D01*
X181046380Y-95670761D01*
X180998761Y-95575523D01*
X180951142Y-95527904D01*
X180522571Y-94718380D02*
X180522571Y-95051714D01*
X181046380Y-95051714D02*
X180046380Y-95051714D01*
X180046380Y-94575523D01*
%TO.C,U2*%
X180687268Y-88899904D02*
X181496792Y-88899904D01*
X181592030Y-88852285D01*
X181639649Y-88804666D01*
X181687268Y-88709428D01*
X181687268Y-88518952D01*
X181639649Y-88423714D01*
X181592030Y-88376095D01*
X181496792Y-88328476D01*
X180687268Y-88328476D01*
X180782507Y-87899904D02*
X180734888Y-87852285D01*
X180687268Y-87757047D01*
X180687268Y-87518952D01*
X180734888Y-87423714D01*
X180782507Y-87376095D01*
X180877745Y-87328476D01*
X180972983Y-87328476D01*
X181115840Y-87376095D01*
X181687268Y-87947523D01*
X181687268Y-87328476D01*
D12*
%TO.C,IC1*%
X165896238Y-65852523D02*
X165896238Y-64582523D01*
X167226714Y-65731571D02*
X167166238Y-65792047D01*
X166984809Y-65852523D01*
X166863857Y-65852523D01*
X166682428Y-65792047D01*
X166561476Y-65671095D01*
X166501000Y-65550142D01*
X166440523Y-65308238D01*
X166440523Y-65126809D01*
X166501000Y-64884904D01*
X166561476Y-64763952D01*
X166682428Y-64643000D01*
X166863857Y-64582523D01*
X166984809Y-64582523D01*
X167166238Y-64643000D01*
X167226714Y-64703476D01*
X168436238Y-65852523D02*
X167710523Y-65852523D01*
X168073380Y-65852523D02*
X168073380Y-64582523D01*
X167952428Y-64763952D01*
X167831476Y-64884904D01*
X167710523Y-64945380D01*
D10*
%TO.C,C1*%
X152868380Y-60316857D02*
X152868380Y-60221619D01*
X152916000Y-60126380D01*
X152963619Y-60078761D01*
X153058857Y-60031142D01*
X153249333Y-59983523D01*
X153487428Y-59983523D01*
X153677904Y-60031142D01*
X153773142Y-60078761D01*
X153820761Y-60126380D01*
X153868380Y-60221619D01*
X153868380Y-60316857D01*
X153820761Y-60412095D01*
X153773142Y-60459714D01*
X153677904Y-60507333D01*
X153487428Y-60554952D01*
X153249333Y-60554952D01*
X153058857Y-60507333D01*
X152963619Y-60459714D01*
X152916000Y-60412095D01*
X152868380Y-60316857D01*
X153773142Y-59554952D02*
X153820761Y-59507333D01*
X153868380Y-59554952D01*
X153820761Y-59602571D01*
X153773142Y-59554952D01*
X153868380Y-59554952D01*
X153868380Y-58554952D02*
X153868380Y-59126380D01*
X153868380Y-58840666D02*
X152868380Y-58840666D01*
X153011238Y-58935904D01*
X153106476Y-59031142D01*
X153154095Y-59126380D01*
X153201714Y-57697809D02*
X153868380Y-57697809D01*
X153201714Y-58126380D02*
X153725523Y-58126380D01*
X153820761Y-58078761D01*
X153868380Y-57983523D01*
X153868380Y-57840666D01*
X153820761Y-57745428D01*
X153773142Y-57697809D01*
X153344571Y-56888285D02*
X153344571Y-57221619D01*
X153868380Y-57221619D02*
X152868380Y-57221619D01*
X152868380Y-56745428D01*
%TO.C,C3*%
X184314030Y-101512666D02*
X184361649Y-101560285D01*
X184409268Y-101703142D01*
X184409268Y-101798380D01*
X184361649Y-101941238D01*
X184266411Y-102036476D01*
X184171173Y-102084095D01*
X183980697Y-102131714D01*
X183837840Y-102131714D01*
X183647364Y-102084095D01*
X183552126Y-102036476D01*
X183456888Y-101941238D01*
X183409268Y-101798380D01*
X183409268Y-101703142D01*
X183456888Y-101560285D01*
X183504507Y-101512666D01*
X183409268Y-101179333D02*
X183409268Y-100560285D01*
X183790221Y-100893619D01*
X183790221Y-100750761D01*
X183837840Y-100655523D01*
X183885459Y-100607904D01*
X183980697Y-100560285D01*
X184218792Y-100560285D01*
X184314030Y-100607904D01*
X184361649Y-100655523D01*
X184409268Y-100750761D01*
X184409268Y-101036476D01*
X184361649Y-101131714D01*
X184314030Y-101179333D01*
X185933268Y-102417428D02*
X185933268Y-102988857D01*
X185933268Y-102703142D02*
X184933268Y-102703142D01*
X185076126Y-102798380D01*
X185171364Y-102893619D01*
X185218983Y-102988857D01*
X184933268Y-101798380D02*
X184933268Y-101703142D01*
X184980888Y-101607904D01*
X185028507Y-101560285D01*
X185123745Y-101512666D01*
X185314221Y-101465047D01*
X185552316Y-101465047D01*
X185742792Y-101512666D01*
X185838030Y-101560285D01*
X185885649Y-101607904D01*
X185933268Y-101703142D01*
X185933268Y-101798380D01*
X185885649Y-101893619D01*
X185838030Y-101941238D01*
X185742792Y-101988857D01*
X185552316Y-102036476D01*
X185314221Y-102036476D01*
X185123745Y-101988857D01*
X185028507Y-101941238D01*
X184980888Y-101893619D01*
X184933268Y-101798380D01*
X185266602Y-100607904D02*
X185933268Y-100607904D01*
X185266602Y-101036476D02*
X185790411Y-101036476D01*
X185885649Y-100988857D01*
X185933268Y-100893619D01*
X185933268Y-100750761D01*
X185885649Y-100655523D01*
X185838030Y-100607904D01*
X185409459Y-99798380D02*
X185409459Y-100131714D01*
X185933268Y-100131714D02*
X184933268Y-100131714D01*
X184933268Y-99655523D01*
%TO.C,R1*%
X155900380Y-58856476D02*
X155900380Y-59427904D01*
X155900380Y-59142190D02*
X154900380Y-59142190D01*
X155043238Y-59237428D01*
X155138476Y-59332666D01*
X155186095Y-59427904D01*
X154995619Y-58475523D02*
X154948000Y-58427904D01*
X154900380Y-58332666D01*
X154900380Y-58094571D01*
X154948000Y-57999333D01*
X154995619Y-57951714D01*
X155090857Y-57904095D01*
X155186095Y-57904095D01*
X155328952Y-57951714D01*
X155900380Y-58523142D01*
X155900380Y-57904095D01*
X155900380Y-57475523D02*
X154900380Y-57475523D01*
X155900380Y-56904095D02*
X155328952Y-57332666D01*
X154900380Y-56904095D02*
X155471809Y-57475523D01*
%TO.C,D1*%
X179229047Y-81224380D02*
X178895714Y-80748190D01*
X178657619Y-81224380D02*
X178657619Y-80224380D01*
X179038571Y-80224380D01*
X179133809Y-80272000D01*
X179181428Y-80319619D01*
X179229047Y-80414857D01*
X179229047Y-80557714D01*
X179181428Y-80652952D01*
X179133809Y-80700571D01*
X179038571Y-80748190D01*
X178657619Y-80748190D01*
X179657619Y-80700571D02*
X179990952Y-80700571D01*
X180133809Y-81224380D02*
X179657619Y-81224380D01*
X179657619Y-80224380D01*
X180133809Y-80224380D01*
X180562380Y-81224380D02*
X180562380Y-80224380D01*
X180800476Y-80224380D01*
X180943333Y-80272000D01*
X181038571Y-80367238D01*
X181086190Y-80462476D01*
X181133809Y-80652952D01*
X181133809Y-80795809D01*
X181086190Y-80986285D01*
X181038571Y-81081523D01*
X180943333Y-81176761D01*
X180800476Y-81224380D01*
X180562380Y-81224380D01*
X182800476Y-81224380D02*
X182324285Y-81224380D01*
X182324285Y-80224380D01*
X183133809Y-80700571D02*
X183467142Y-80700571D01*
X183610000Y-81224380D02*
X183133809Y-81224380D01*
X183133809Y-80224380D01*
X183610000Y-80224380D01*
X184038571Y-81224380D02*
X184038571Y-80224380D01*
X184276666Y-80224380D01*
X184419523Y-80272000D01*
X184514761Y-80367238D01*
X184562380Y-80462476D01*
X184610000Y-80652952D01*
X184610000Y-80795809D01*
X184562380Y-80986285D01*
X184514761Y-81081523D01*
X184419523Y-81176761D01*
X184276666Y-81224380D01*
X184038571Y-81224380D01*
%TO.C,R9*%
X180460380Y-74175904D02*
X180460380Y-74652095D01*
X180936571Y-74699714D01*
X180888952Y-74652095D01*
X180841333Y-74556857D01*
X180841333Y-74318761D01*
X180888952Y-74223523D01*
X180936571Y-74175904D01*
X181031809Y-74128285D01*
X181269904Y-74128285D01*
X181365142Y-74175904D01*
X181412761Y-74223523D01*
X181460380Y-74318761D01*
X181460380Y-74556857D01*
X181412761Y-74652095D01*
X181365142Y-74699714D01*
X181460380Y-73699714D02*
X180460380Y-73699714D01*
X181460380Y-73128285D02*
X180888952Y-73556857D01*
X180460380Y-73128285D02*
X181031809Y-73699714D01*
%TO.C,R3*%
X148407380Y-103687476D02*
X148407380Y-104258904D01*
X148407380Y-103973190D02*
X147407380Y-103973190D01*
X147550238Y-104068428D01*
X147645476Y-104163666D01*
X147693095Y-104258904D01*
X147407380Y-103068428D02*
X147407380Y-102973190D01*
X147455000Y-102877952D01*
X147502619Y-102830333D01*
X147597857Y-102782714D01*
X147788333Y-102735095D01*
X148026428Y-102735095D01*
X148216904Y-102782714D01*
X148312142Y-102830333D01*
X148359761Y-102877952D01*
X148407380Y-102973190D01*
X148407380Y-103068428D01*
X148359761Y-103163666D01*
X148312142Y-103211285D01*
X148216904Y-103258904D01*
X148026428Y-103306523D01*
X147788333Y-103306523D01*
X147597857Y-103258904D01*
X147502619Y-103211285D01*
X147455000Y-103163666D01*
X147407380Y-103068428D01*
X148407380Y-102306523D02*
X147407380Y-102306523D01*
X148407380Y-101735095D02*
X147835952Y-102163666D01*
X147407380Y-101735095D02*
X147978809Y-102306523D01*
%TO.C,R2*%
X146629380Y-103687476D02*
X146629380Y-104258904D01*
X146629380Y-103973190D02*
X145629380Y-103973190D01*
X145772238Y-104068428D01*
X145867476Y-104163666D01*
X145915095Y-104258904D01*
X145629380Y-103068428D02*
X145629380Y-102973190D01*
X145677000Y-102877952D01*
X145724619Y-102830333D01*
X145819857Y-102782714D01*
X146010333Y-102735095D01*
X146248428Y-102735095D01*
X146438904Y-102782714D01*
X146534142Y-102830333D01*
X146581761Y-102877952D01*
X146629380Y-102973190D01*
X146629380Y-103068428D01*
X146581761Y-103163666D01*
X146534142Y-103211285D01*
X146438904Y-103258904D01*
X146248428Y-103306523D01*
X146010333Y-103306523D01*
X145819857Y-103258904D01*
X145724619Y-103211285D01*
X145677000Y-103163666D01*
X145629380Y-103068428D01*
X146629380Y-102306523D02*
X145629380Y-102306523D01*
X146629380Y-101735095D02*
X146057952Y-102163666D01*
X145629380Y-101735095D02*
X146200809Y-102306523D01*
%TO.C,R4*%
X185504888Y-80413619D02*
X185552507Y-80366000D01*
X185647745Y-80318380D01*
X185885840Y-80318380D01*
X185981078Y-80366000D01*
X186028697Y-80413619D01*
X186076316Y-80508857D01*
X186076316Y-80604095D01*
X186028697Y-80746952D01*
X185457268Y-81318380D01*
X186076316Y-81318380D01*
X186504888Y-81223142D02*
X186552507Y-81270761D01*
X186504888Y-81318380D01*
X186457268Y-81270761D01*
X186504888Y-81223142D01*
X186504888Y-81318380D01*
X186933459Y-80413619D02*
X186981078Y-80366000D01*
X187076316Y-80318380D01*
X187314411Y-80318380D01*
X187409649Y-80366000D01*
X187457268Y-80413619D01*
X187504888Y-80508857D01*
X187504888Y-80604095D01*
X187457268Y-80746952D01*
X186885840Y-81318380D01*
X187504888Y-81318380D01*
X187933459Y-81318380D02*
X187933459Y-80318380D01*
X188504888Y-81318380D02*
X188076316Y-80746952D01*
X188504888Y-80318380D02*
X187933459Y-80889809D01*
%TO.C,R5*%
X180714380Y-70111904D02*
X180714380Y-70588095D01*
X181190571Y-70635714D01*
X181142952Y-70588095D01*
X181095333Y-70492857D01*
X181095333Y-70254761D01*
X181142952Y-70159523D01*
X181190571Y-70111904D01*
X181285809Y-70064285D01*
X181523904Y-70064285D01*
X181619142Y-70111904D01*
X181666761Y-70159523D01*
X181714380Y-70254761D01*
X181714380Y-70492857D01*
X181666761Y-70588095D01*
X181619142Y-70635714D01*
X181714380Y-69635714D02*
X180714380Y-69635714D01*
X181714380Y-69064285D02*
X181142952Y-69492857D01*
X180714380Y-69064285D02*
X181285809Y-69635714D01*
%TO.C,G\u002A\u002A\u002A*%
G36*
X138307386Y-78870344D02*
G01*
X138373412Y-78936691D01*
X138431650Y-78995914D01*
X138481359Y-79047228D01*
X138521798Y-79089850D01*
X138552226Y-79122993D01*
X138571901Y-79145875D01*
X138580081Y-79157709D01*
X138580157Y-79159026D01*
X138572559Y-79168655D01*
X138556029Y-79189371D01*
X138532523Y-79218735D01*
X138503999Y-79254313D01*
X138472413Y-79293668D01*
X138439723Y-79334363D01*
X138407885Y-79373962D01*
X138378857Y-79410029D01*
X138354595Y-79440128D01*
X138337056Y-79461821D01*
X138328763Y-79471995D01*
X138317205Y-79486179D01*
X138297996Y-79509974D01*
X138274322Y-79539426D01*
X138260303Y-79556917D01*
X138206234Y-79624447D01*
X138252728Y-79717481D01*
X138272311Y-79757476D01*
X138290017Y-79795103D01*
X138303741Y-79825804D01*
X138310810Y-79843341D01*
X138322397Y-79876166D01*
X138071038Y-80127637D01*
X138016643Y-80181923D01*
X137966023Y-80232185D01*
X137920496Y-80277133D01*
X137881381Y-80315478D01*
X137849993Y-80345931D01*
X137827652Y-80367202D01*
X137815674Y-80378003D01*
X137814041Y-80379108D01*
X137806518Y-80372224D01*
X137803134Y-80365376D01*
X137798758Y-80345365D01*
X137797865Y-80332288D01*
X137795187Y-80310138D01*
X137787934Y-80275975D01*
X137777275Y-80234170D01*
X137764381Y-80189092D01*
X137750420Y-80145113D01*
X137739529Y-80114343D01*
X137709099Y-80040207D01*
X137675524Y-79973571D01*
X137635988Y-79907904D01*
X137598207Y-79849038D01*
X137598207Y-78939895D01*
X137626847Y-78915123D01*
X137652112Y-78893779D01*
X137680846Y-78870197D01*
X137689783Y-78863018D01*
X137706658Y-78849504D01*
X137734517Y-78827119D01*
X137770834Y-78797896D01*
X137813081Y-78763870D01*
X137858733Y-78727073D01*
X137875898Y-78713230D01*
X138027717Y-78590774D01*
X138307386Y-78870344D01*
G37*
G36*
X135338039Y-78632436D02*
G01*
X135359745Y-78649380D01*
X135391924Y-78674852D01*
X135431637Y-78706493D01*
X135475947Y-78741943D01*
X135521915Y-78778845D01*
X135566603Y-78814837D01*
X135607074Y-78847561D01*
X135640389Y-78874657D01*
X135663609Y-78893766D01*
X135666660Y-78896318D01*
X135683377Y-78909992D01*
X135707250Y-78929099D01*
X135722881Y-78941454D01*
X135761670Y-78971942D01*
X135822710Y-78938960D01*
X135862563Y-78918444D01*
X135908624Y-78896224D01*
X135950994Y-78877075D01*
X135951406Y-78876898D01*
X136019062Y-78847817D01*
X136274765Y-79103411D01*
X136329525Y-79158287D01*
X136380271Y-79209411D01*
X136425723Y-79255474D01*
X136464603Y-79295168D01*
X136495632Y-79327185D01*
X136517533Y-79350216D01*
X136529025Y-79362953D01*
X136530469Y-79365038D01*
X136522716Y-79369601D01*
X136502983Y-79374453D01*
X136489235Y-79376664D01*
X136453307Y-79383141D01*
X136406734Y-79393772D01*
X136355279Y-79407030D01*
X136304702Y-79421387D01*
X136260765Y-79435316D01*
X136240640Y-79442578D01*
X136188897Y-79464823D01*
X136131151Y-79493198D01*
X136075039Y-79523761D01*
X136030425Y-79551083D01*
X135986123Y-79580475D01*
X135065412Y-79580475D01*
X135051990Y-79559991D01*
X135037597Y-79540040D01*
X135026957Y-79527438D01*
X135017649Y-79516665D01*
X134999724Y-79495006D01*
X134975383Y-79465155D01*
X134946828Y-79429803D01*
X134931895Y-79411199D01*
X134898581Y-79369657D01*
X134865064Y-79327937D01*
X134834702Y-79290214D01*
X134810853Y-79260662D01*
X134805627Y-79254208D01*
X134782144Y-79224827D01*
X134760527Y-79197078D01*
X134745185Y-79176627D01*
X134744374Y-79175494D01*
X134725937Y-79149602D01*
X135284775Y-78591540D01*
X135338039Y-78632436D01*
G37*
G36*
X135954492Y-81443189D02*
G01*
X135976321Y-81458119D01*
X136003311Y-81476838D01*
X136005796Y-81478574D01*
X136074943Y-81522323D01*
X136152439Y-81563821D01*
X136229436Y-81598426D01*
X136248343Y-81605745D01*
X136284061Y-81618119D01*
X136325303Y-81630990D01*
X136367759Y-81643177D01*
X136407119Y-81653502D01*
X136439073Y-81660782D01*
X136459311Y-81663837D01*
X136460532Y-81663865D01*
X136469124Y-81669842D01*
X136488736Y-81687008D01*
X136518174Y-81714216D01*
X136556240Y-81750318D01*
X136601740Y-81794168D01*
X136653477Y-81844618D01*
X136710255Y-81900520D01*
X136770880Y-81960728D01*
X136793620Y-81983441D01*
X137113108Y-82303016D01*
X137107761Y-82350204D01*
X137104565Y-82378214D01*
X137100018Y-82417812D01*
X137094772Y-82463338D01*
X137090354Y-82501562D01*
X137084285Y-82555271D01*
X137077764Y-82615060D01*
X137071756Y-82671977D01*
X137068782Y-82701220D01*
X137064394Y-82743885D01*
X137060078Y-82783518D01*
X137056417Y-82814867D01*
X137054529Y-82829261D01*
X137049791Y-82861814D01*
X136262891Y-82861814D01*
X136258152Y-82829261D01*
X136255318Y-82807030D01*
X136251415Y-82772768D01*
X136247027Y-82731727D01*
X136243925Y-82701220D01*
X136238532Y-82649312D01*
X136231977Y-82589664D01*
X136225313Y-82531753D01*
X136222207Y-82505902D01*
X136216408Y-82455843D01*
X136210754Y-82402369D01*
X136206060Y-82353404D01*
X136204034Y-82329362D01*
X136200244Y-82293393D01*
X136195417Y-82266247D01*
X136190264Y-82251545D01*
X136188493Y-82250004D01*
X136162768Y-82242254D01*
X136126974Y-82230632D01*
X136085887Y-82216787D01*
X136044284Y-82202363D01*
X136006942Y-82189008D01*
X135978637Y-82178367D01*
X135968388Y-82174151D01*
X135931495Y-82157858D01*
X135931495Y-81793158D01*
X135931591Y-81701036D01*
X135931906Y-81625002D01*
X135932478Y-81563781D01*
X135933346Y-81516100D01*
X135934548Y-81480686D01*
X135936123Y-81456265D01*
X135938110Y-81441565D01*
X135940546Y-81435310D01*
X135942346Y-81435143D01*
X135954492Y-81443189D01*
G37*
G36*
X137054529Y-78215420D02*
G01*
X137057364Y-78237651D01*
X137061266Y-78271914D01*
X137065654Y-78312954D01*
X137068757Y-78343462D01*
X137074149Y-78395369D01*
X137080705Y-78455018D01*
X137087369Y-78512929D01*
X137090475Y-78538780D01*
X137096273Y-78588838D01*
X137101928Y-78642312D01*
X137106622Y-78691277D01*
X137108648Y-78715320D01*
X137112438Y-78751289D01*
X137117264Y-78778435D01*
X137122418Y-78793136D01*
X137124188Y-78794677D01*
X137149913Y-78802428D01*
X137185708Y-78814049D01*
X137226794Y-78827895D01*
X137268397Y-78842318D01*
X137305739Y-78855674D01*
X137334044Y-78866315D01*
X137344294Y-78870531D01*
X137381187Y-78886824D01*
X137381187Y-79251011D01*
X137381137Y-79328622D01*
X137380994Y-79400574D01*
X137380770Y-79465074D01*
X137380473Y-79520329D01*
X137380117Y-79564546D01*
X137379710Y-79595930D01*
X137379264Y-79612690D01*
X137379017Y-79615030D01*
X137371435Y-79610347D01*
X137352792Y-79597881D01*
X137326270Y-79579776D01*
X137307400Y-79566755D01*
X137191310Y-79496675D01*
X137065706Y-79440275D01*
X136932993Y-79398608D01*
X136912424Y-79393648D01*
X136847318Y-79378563D01*
X136523944Y-79056359D01*
X136200569Y-78734154D01*
X136205419Y-78690722D01*
X136208397Y-78664377D01*
X136212754Y-78626232D01*
X136217868Y-78581732D01*
X136222327Y-78543120D01*
X136228396Y-78489411D01*
X136234918Y-78429621D01*
X136240925Y-78372705D01*
X136243900Y-78343462D01*
X136248287Y-78300796D01*
X136252603Y-78261163D01*
X136256265Y-78229815D01*
X136258152Y-78215420D01*
X136262891Y-78182867D01*
X137049791Y-78182867D01*
X137054529Y-78215420D01*
G37*
G36*
X136137479Y-80195170D02*
G01*
X136182915Y-80116627D01*
X136242703Y-80042349D01*
X136261365Y-80022742D01*
X136334627Y-79957793D01*
X136412991Y-79907972D01*
X136500082Y-79871108D01*
X136530393Y-79861691D01*
X136568888Y-79851276D01*
X136600279Y-79844919D01*
X136630898Y-79841961D01*
X136667080Y-79841736D01*
X136707094Y-79843209D01*
X136783080Y-79850002D01*
X136848180Y-79863862D01*
X136908005Y-79886449D01*
X136968167Y-79919419D01*
X136971036Y-79921214D01*
X137036465Y-79972327D01*
X137092304Y-80036467D01*
X137136966Y-80111253D01*
X137168860Y-80194304D01*
X137178162Y-80231534D01*
X137184673Y-80274089D01*
X137188166Y-80322630D01*
X137188775Y-80372999D01*
X137186633Y-80421038D01*
X137181876Y-80462590D01*
X137174636Y-80493497D01*
X137169355Y-80504905D01*
X137155086Y-80526681D01*
X136356853Y-80526681D01*
X136357158Y-80563575D01*
X136365673Y-80646333D01*
X136389001Y-80723712D01*
X136425917Y-80793660D01*
X136475197Y-80854123D01*
X136535617Y-80903049D01*
X136571920Y-80923690D01*
X136600396Y-80937478D01*
X136622778Y-80946715D01*
X136643826Y-80952312D01*
X136668302Y-80955181D01*
X136700966Y-80956233D01*
X136742685Y-80956380D01*
X136788502Y-80956056D01*
X136821514Y-80954620D01*
X136846274Y-80951375D01*
X136867332Y-80945626D01*
X136889242Y-80936676D01*
X136898023Y-80932626D01*
X136934029Y-80912771D01*
X136975747Y-80885265D01*
X137017452Y-80854290D01*
X137053418Y-80824027D01*
X137072194Y-80805417D01*
X137089853Y-80791128D01*
X137108374Y-80789219D01*
X137131019Y-80800277D01*
X137156209Y-80820542D01*
X137193888Y-80853979D01*
X137163836Y-80903656D01*
X137105496Y-80984246D01*
X137036021Y-81052289D01*
X136956735Y-81106702D01*
X136868965Y-81146405D01*
X136864349Y-81147994D01*
X136828336Y-81159109D01*
X136794676Y-81166480D01*
X136757496Y-81170992D01*
X136710925Y-81173533D01*
X136691064Y-81174126D01*
X136645101Y-81174519D01*
X136600701Y-81173520D01*
X136563441Y-81171331D01*
X136541948Y-81168755D01*
X136470983Y-81150088D01*
X136397402Y-81120187D01*
X136328505Y-81082074D01*
X136321732Y-81077647D01*
X136252831Y-81021628D01*
X136194071Y-80952762D01*
X136146009Y-80872683D01*
X136109204Y-80783020D01*
X136084215Y-80685408D01*
X136071601Y-80581477D01*
X136071920Y-80472859D01*
X136082605Y-80379108D01*
X136084564Y-80370427D01*
X136356523Y-80370427D01*
X136593240Y-80370378D01*
X136659461Y-80370044D01*
X136720483Y-80369122D01*
X136773809Y-80367695D01*
X136816943Y-80365846D01*
X136847387Y-80363656D01*
X136861617Y-80361536D01*
X136893190Y-80346391D01*
X136913398Y-80320702D01*
X136923229Y-80282768D01*
X136924557Y-80253236D01*
X136915583Y-80191517D01*
X136890921Y-80134158D01*
X136852132Y-80083575D01*
X136800782Y-80042184D01*
X136780402Y-80030458D01*
X136735130Y-80014932D01*
X136681764Y-80009305D01*
X136626386Y-80013451D01*
X136575078Y-80027245D01*
X136557764Y-80035067D01*
X136500567Y-80073970D01*
X136450713Y-80126330D01*
X136410478Y-80188999D01*
X136382141Y-80258827D01*
X136374611Y-80288233D01*
X136368280Y-80317636D01*
X136362773Y-80342802D01*
X136360962Y-80350895D01*
X136356523Y-80370427D01*
X136084564Y-80370427D01*
X136104630Y-80281491D01*
X136137479Y-80195170D01*
G37*
G36*
X135477645Y-79797591D02*
G01*
X135553680Y-79797906D01*
X135614901Y-79798478D01*
X135662582Y-79799346D01*
X135697996Y-79800548D01*
X135722416Y-79802123D01*
X135737117Y-79804110D01*
X135743371Y-79806546D01*
X135743538Y-79808346D01*
X135735493Y-79820492D01*
X135720563Y-79842321D01*
X135701843Y-79869311D01*
X135700108Y-79871796D01*
X135656358Y-79940943D01*
X135614861Y-80018439D01*
X135580255Y-80095436D01*
X135572936Y-80114343D01*
X135560563Y-80150061D01*
X135547692Y-80191303D01*
X135535504Y-80233759D01*
X135525180Y-80273119D01*
X135517900Y-80305073D01*
X135514844Y-80325311D01*
X135514816Y-80326532D01*
X135508796Y-80336052D01*
X135491674Y-80356154D01*
X135464862Y-80385439D01*
X135429772Y-80422505D01*
X135387813Y-80465954D01*
X135340396Y-80514385D01*
X135288934Y-80566400D01*
X135234836Y-80620597D01*
X135179513Y-80675578D01*
X135124377Y-80729943D01*
X135070838Y-80782292D01*
X135020307Y-80831225D01*
X134974196Y-80875343D01*
X134933914Y-80913246D01*
X134900874Y-80943534D01*
X134876485Y-80964807D01*
X134862159Y-80975666D01*
X134859373Y-80976782D01*
X134837774Y-80974805D01*
X134816013Y-80972464D01*
X134738079Y-80963458D01*
X134674492Y-80956164D01*
X134622357Y-80950261D01*
X134578779Y-80945427D01*
X134540864Y-80941340D01*
X134505716Y-80937678D01*
X134477462Y-80934820D01*
X134434797Y-80930417D01*
X134395165Y-80926088D01*
X134363816Y-80922419D01*
X134349420Y-80920529D01*
X134316867Y-80915791D01*
X134316867Y-80128891D01*
X134349420Y-80124152D01*
X134371651Y-80121318D01*
X134405914Y-80117415D01*
X134446954Y-80113027D01*
X134477462Y-80109925D01*
X134529369Y-80104532D01*
X134589018Y-80097977D01*
X134646929Y-80091313D01*
X134672780Y-80088207D01*
X134722838Y-80082408D01*
X134776312Y-80076754D01*
X134825277Y-80072060D01*
X134849320Y-80070034D01*
X134885289Y-80066244D01*
X134912435Y-80061417D01*
X134927136Y-80056264D01*
X134928677Y-80054493D01*
X134936428Y-80028768D01*
X134948049Y-79992974D01*
X134961895Y-79951887D01*
X134976318Y-79910284D01*
X134989674Y-79872942D01*
X135000315Y-79844637D01*
X135004531Y-79834388D01*
X135020824Y-79797495D01*
X135385523Y-79797495D01*
X135477645Y-79797591D01*
G37*
G36*
X135504335Y-80664527D02*
G01*
X135509414Y-80683466D01*
X135510458Y-80689446D01*
X135538590Y-80821415D01*
X135580231Y-80947660D01*
X135634255Y-81065138D01*
X135676190Y-81136462D01*
X135714475Y-81195644D01*
X135714475Y-82104787D01*
X135685834Y-82129558D01*
X135660552Y-82150902D01*
X135631804Y-82174459D01*
X135622898Y-82181595D01*
X135605701Y-82195331D01*
X135577625Y-82217827D01*
X135541317Y-82246961D01*
X135499424Y-82280607D01*
X135454593Y-82316643D01*
X135445370Y-82324060D01*
X135402303Y-82358679D01*
X135363548Y-82389793D01*
X135331245Y-82415690D01*
X135307529Y-82434657D01*
X135294539Y-82444981D01*
X135293026Y-82446157D01*
X135284847Y-82441764D01*
X135265372Y-82425643D01*
X135235388Y-82398534D01*
X135195678Y-82361179D01*
X135147026Y-82314320D01*
X135090218Y-82258697D01*
X135026038Y-82195053D01*
X135004344Y-82173386D01*
X134724774Y-81893717D01*
X134847082Y-81741898D01*
X134883335Y-81696922D01*
X134916636Y-81655653D01*
X134945196Y-81620306D01*
X134967226Y-81593094D01*
X134980936Y-81576231D01*
X134983850Y-81572686D01*
X134995433Y-81558508D01*
X135014666Y-81534712D01*
X135038363Y-81505248D01*
X135052473Y-81487647D01*
X135106637Y-81420000D01*
X135068355Y-81344444D01*
X135048361Y-81304217D01*
X135028356Y-81262696D01*
X135011746Y-81226989D01*
X135007364Y-81217176D01*
X134984653Y-81165463D01*
X135238829Y-80911178D01*
X135293554Y-80856573D01*
X135344531Y-80805987D01*
X135390445Y-80760702D01*
X135429985Y-80721999D01*
X135461836Y-80691163D01*
X135484687Y-80669474D01*
X135497224Y-80658216D01*
X135499177Y-80656893D01*
X135504335Y-80664527D01*
G37*
G36*
X138480143Y-80070576D02*
G01*
X138509968Y-80073882D01*
X138551141Y-80078542D01*
X138597770Y-80083885D01*
X138635562Y-80088261D01*
X138689268Y-80094358D01*
X138749055Y-80100902D01*
X138805969Y-80106922D01*
X138835220Y-80109900D01*
X138877885Y-80114287D01*
X138917518Y-80118603D01*
X138948867Y-80122265D01*
X138963261Y-80124152D01*
X138995814Y-80128891D01*
X138995814Y-80915791D01*
X138963261Y-80920529D01*
X138941030Y-80923364D01*
X138906768Y-80927266D01*
X138865727Y-80931654D01*
X138835220Y-80934757D01*
X138783312Y-80940149D01*
X138723664Y-80946705D01*
X138665753Y-80953369D01*
X138639902Y-80956475D01*
X138589843Y-80962273D01*
X138536369Y-80967928D01*
X138487404Y-80972622D01*
X138463362Y-80974648D01*
X138427411Y-80978436D01*
X138400259Y-80983262D01*
X138385536Y-80988413D01*
X138383983Y-80990188D01*
X138374236Y-81022643D01*
X138360543Y-81064966D01*
X138345054Y-81110770D01*
X138329917Y-81153666D01*
X138320156Y-81179911D01*
X138297603Y-81238506D01*
X137934884Y-81238506D01*
X137857427Y-81238415D01*
X137785625Y-81238156D01*
X137721278Y-81237748D01*
X137666183Y-81237211D01*
X137622137Y-81236563D01*
X137590940Y-81235825D01*
X137574387Y-81235016D01*
X137572164Y-81234582D01*
X137576786Y-81226113D01*
X137589032Y-81207212D01*
X137606474Y-81181602D01*
X137610742Y-81175471D01*
X137656905Y-81102605D01*
X137699866Y-81022100D01*
X137735020Y-80942711D01*
X137739745Y-80930338D01*
X137753314Y-80891143D01*
X137766879Y-80847289D01*
X137779274Y-80803114D01*
X137789337Y-80762955D01*
X137795903Y-80731149D01*
X137797865Y-80713809D01*
X137804001Y-80702983D01*
X137822443Y-80680569D01*
X137853242Y-80646513D01*
X137896450Y-80600761D01*
X137952118Y-80543258D01*
X138020298Y-80473950D01*
X138101041Y-80392783D01*
X138113379Y-80380442D01*
X138428894Y-80065016D01*
X138480143Y-80070576D01*
G37*
G36*
X137790051Y-81455937D02*
G01*
X138236245Y-81456347D01*
X138275309Y-81505643D01*
X138296961Y-81532886D01*
X138316167Y-81556910D01*
X138328763Y-81572508D01*
X138339877Y-81586210D01*
X138359148Y-81610100D01*
X138384640Y-81641769D01*
X138414418Y-81678806D01*
X138446547Y-81718801D01*
X138479093Y-81759344D01*
X138510121Y-81798025D01*
X138537696Y-81832434D01*
X138559883Y-81860160D01*
X138574746Y-81878794D01*
X138580157Y-81885656D01*
X138575764Y-81893835D01*
X138559643Y-81913309D01*
X138532534Y-81943294D01*
X138495179Y-81983004D01*
X138448320Y-82031655D01*
X138392697Y-82088463D01*
X138329053Y-82152643D01*
X138307386Y-82174337D01*
X138027717Y-82453908D01*
X137875898Y-82331599D01*
X137830922Y-82295347D01*
X137789653Y-82262046D01*
X137754306Y-82233486D01*
X137727094Y-82211456D01*
X137710231Y-82197745D01*
X137706686Y-82194832D01*
X137692508Y-82183249D01*
X137668712Y-82164016D01*
X137639248Y-82140318D01*
X137621647Y-82126208D01*
X137554000Y-82072045D01*
X137478444Y-82110326D01*
X137438514Y-82130184D01*
X137397580Y-82149928D01*
X137362601Y-82166220D01*
X137352820Y-82170591D01*
X137302751Y-82192575D01*
X137046007Y-81936269D01*
X136991277Y-81881448D01*
X136940722Y-81830451D01*
X136895595Y-81784568D01*
X136857146Y-81745090D01*
X136826630Y-81713304D01*
X136805297Y-81690503D01*
X136794402Y-81677976D01*
X136793269Y-81675957D01*
X136803287Y-81672624D01*
X136825511Y-81667860D01*
X136852679Y-81663102D01*
X136981993Y-81633751D01*
X137109178Y-81587530D01*
X137233033Y-81524905D01*
X137277885Y-81497601D01*
X137343858Y-81455526D01*
X137790051Y-81455937D01*
G37*
D13*
%TO.C,R6*%
X149210500Y-106282258D02*
X149210500Y-105807742D01*
X150255500Y-106282258D02*
X150255500Y-105807742D01*
%TO.C,C6*%
X169420000Y-89802580D02*
X169420000Y-89521420D01*
X168400000Y-89802580D02*
X168400000Y-89521420D01*
%TO.C,C5*%
X167880420Y-106551000D02*
X168161580Y-106551000D01*
X167880420Y-107571000D02*
X168161580Y-107571000D01*
%TO.C,G\u002A\u002A\u002A*%
G36*
X150254604Y-86840084D02*
G01*
X150268038Y-86845643D01*
X150285721Y-86854697D01*
X150297637Y-86862371D01*
X150300859Y-86866103D01*
X150297110Y-86872956D01*
X150287104Y-86886800D01*
X150272699Y-86905116D01*
X150266211Y-86913025D01*
X150231564Y-86954766D01*
X150211510Y-86942539D01*
X150182073Y-86931323D01*
X150151339Y-86931030D01*
X150122211Y-86940808D01*
X150097596Y-86959807D01*
X150083618Y-86980039D01*
X150079326Y-86989062D01*
X150076009Y-86998136D01*
X150073541Y-87008943D01*
X150071797Y-87023165D01*
X150070651Y-87042483D01*
X150069980Y-87068579D01*
X150069657Y-87103135D01*
X150069557Y-87147833D01*
X150069552Y-87169148D01*
X150069552Y-87330364D01*
X149969527Y-87330364D01*
X149969527Y-86836492D01*
X150069552Y-86836492D01*
X150069552Y-86887479D01*
X150094510Y-86866115D01*
X150129677Y-86843909D01*
X150169812Y-86831965D01*
X150212320Y-86830588D01*
X150254604Y-86840084D01*
G37*
G36*
X152264657Y-86841579D02*
G01*
X152300685Y-86860426D01*
X152303377Y-86865283D01*
X152300490Y-86873879D01*
X152291049Y-86887992D01*
X152274080Y-86909397D01*
X152273301Y-86910346D01*
X152237206Y-86954221D01*
X152212728Y-86941462D01*
X152181401Y-86931525D01*
X152149879Y-86932753D01*
X152120887Y-86944292D01*
X152097153Y-86965290D01*
X152087245Y-86980722D01*
X152083882Y-86988595D01*
X152081277Y-86998474D01*
X152079335Y-87011944D01*
X152077964Y-87030591D01*
X152077070Y-87056000D01*
X152076559Y-87089757D01*
X152076338Y-87133446D01*
X152076305Y-87166261D01*
X152076295Y-87330364D01*
X151976271Y-87330364D01*
X151976271Y-86836492D01*
X152076295Y-86836492D01*
X152076295Y-86880889D01*
X152098163Y-86864210D01*
X152136140Y-86842756D01*
X152178323Y-86831800D01*
X152222050Y-86831391D01*
X152264657Y-86841579D01*
G37*
G36*
X152347295Y-86047486D02*
G01*
X152384683Y-86055594D01*
X152412158Y-86068421D01*
X152432720Y-86081129D01*
X152420520Y-86097784D01*
X152409374Y-86112055D01*
X152394083Y-86130505D01*
X152384309Y-86141863D01*
X152360297Y-86169286D01*
X152340512Y-86159054D01*
X152315575Y-86151096D01*
X152286885Y-86149181D01*
X152259775Y-86153232D01*
X152243180Y-86160468D01*
X152232270Y-86167898D01*
X152223622Y-86175178D01*
X152216943Y-86183801D01*
X152211940Y-86195263D01*
X152208320Y-86211055D01*
X152205791Y-86232674D01*
X152204058Y-86261612D01*
X152202830Y-86299364D01*
X152201813Y-86347424D01*
X152201326Y-86373878D01*
X152198200Y-86545796D01*
X152146625Y-86547611D01*
X152095050Y-86549427D01*
X152095050Y-86048293D01*
X152146625Y-86050108D01*
X152198200Y-86051924D01*
X152201326Y-86076400D01*
X152203804Y-86091413D01*
X152206912Y-86095819D01*
X152212185Y-86091481D01*
X152212969Y-86090542D01*
X152238175Y-86069131D01*
X152270995Y-86054593D01*
X152308384Y-86047265D01*
X152347295Y-86047486D01*
G37*
G36*
X149094312Y-86048798D02*
G01*
X149094312Y-86097965D01*
X149125362Y-86077070D01*
X149165543Y-86056547D01*
X149207145Y-86046892D01*
X149248346Y-86047514D01*
X149287328Y-86057821D01*
X149322270Y-86077222D01*
X149351352Y-86105125D01*
X149372756Y-86140939D01*
X149379452Y-86159668D01*
X149383827Y-86182517D01*
X149386986Y-86214754D01*
X149388928Y-86253334D01*
X149389651Y-86295209D01*
X149389156Y-86337333D01*
X149387441Y-86376661D01*
X149384505Y-86410146D01*
X149380348Y-86434742D01*
X149379536Y-86437763D01*
X149362086Y-86476746D01*
X149335496Y-86508870D01*
X149301758Y-86532972D01*
X149262864Y-86547887D01*
X149220806Y-86552451D01*
X149189771Y-86548693D01*
X149167560Y-86541327D01*
X149142338Y-86529433D01*
X149127132Y-86520443D01*
X149094312Y-86498781D01*
X149094312Y-86689886D01*
X149094410Y-86745612D01*
X149094734Y-86789893D01*
X149095329Y-86823785D01*
X149096239Y-86848346D01*
X149097508Y-86864631D01*
X149099180Y-86873698D01*
X149101299Y-86876602D01*
X149102126Y-86876376D01*
X149112225Y-86869746D01*
X149126666Y-86859586D01*
X149128695Y-86858116D01*
X149164462Y-86839430D01*
X149204609Y-86830657D01*
X149246208Y-86831566D01*
X149286329Y-86841927D01*
X149322044Y-86861508D01*
X149337206Y-86874557D01*
X149349897Y-86887460D01*
X149360116Y-86899126D01*
X149368145Y-86911054D01*
X149374265Y-86924744D01*
X149378760Y-86941694D01*
X149381912Y-86963404D01*
X149384002Y-86991373D01*
X149385314Y-87027100D01*
X149386129Y-87072085D01*
X149386729Y-87127827D01*
X149386827Y-87138129D01*
X149388646Y-87330364D01*
X149288109Y-87330364D01*
X149288100Y-87166261D01*
X149287966Y-87111995D01*
X149287397Y-87068721D01*
X149286127Y-87034927D01*
X149283893Y-87009103D01*
X149280429Y-86989738D01*
X149275472Y-86975322D01*
X149268756Y-86964344D01*
X149260018Y-86955294D01*
X149249751Y-86947214D01*
X149222380Y-86934325D01*
X149191479Y-86931062D01*
X149160488Y-86936771D01*
X149132851Y-86950799D01*
X149112008Y-86972494D01*
X149111397Y-86973461D01*
X149107203Y-86980706D01*
X149103920Y-86988412D01*
X149101413Y-86998172D01*
X149099549Y-87011577D01*
X149098195Y-87030222D01*
X149097217Y-87055697D01*
X149096481Y-87089597D01*
X149095855Y-87133512D01*
X149095502Y-87163135D01*
X149093566Y-87330364D01*
X148994287Y-87330364D01*
X148994287Y-86311623D01*
X149093912Y-86311623D01*
X149097243Y-86351414D01*
X149105033Y-86387046D01*
X149117301Y-86415379D01*
X149123296Y-86423764D01*
X149143881Y-86439372D01*
X149171349Y-86448293D01*
X149201777Y-86450127D01*
X149231244Y-86444480D01*
X149248309Y-86436429D01*
X149261924Y-86426073D01*
X149271790Y-86413347D01*
X149278468Y-86396193D01*
X149282518Y-86372556D01*
X149284502Y-86340380D01*
X149284984Y-86301986D01*
X149284699Y-86264724D01*
X149283677Y-86237514D01*
X149281669Y-86217916D01*
X149278425Y-86203489D01*
X149273714Y-86191828D01*
X149257298Y-86168914D01*
X149234605Y-86155064D01*
X149204142Y-86149596D01*
X149181847Y-86150032D01*
X149159125Y-86152336D01*
X149144522Y-86156372D01*
X149133655Y-86163959D01*
X149124800Y-86173694D01*
X149110484Y-86198709D01*
X149100551Y-86232130D01*
X149095021Y-86270815D01*
X149093912Y-86311623D01*
X148994287Y-86311623D01*
X148994287Y-86048798D01*
X149094312Y-86048798D01*
G37*
G36*
X152856994Y-86217537D02*
G01*
X152874106Y-86164495D01*
X152899239Y-86120780D01*
X152932169Y-86086633D01*
X152972671Y-86062291D01*
X153015267Y-86048995D01*
X153064392Y-86045200D01*
X153112096Y-86053477D01*
X153156916Y-86073394D01*
X153194516Y-86101789D01*
X153218249Y-86127071D01*
X153235270Y-86153451D01*
X153246639Y-86183731D01*
X153253417Y-86220718D01*
X153256622Y-86266039D01*
X153259186Y-86336369D01*
X152951511Y-86336369D01*
X152951511Y-86353799D01*
X152955703Y-86375144D01*
X152966490Y-86399823D01*
X152981184Y-86422790D01*
X152996750Y-86438748D01*
X153016254Y-86447555D01*
X153043149Y-86452956D01*
X153072681Y-86454513D01*
X153100095Y-86451786D01*
X153109955Y-86449217D01*
X153130103Y-86440624D01*
X153151265Y-86428850D01*
X153154816Y-86426524D01*
X153177443Y-86411169D01*
X153211388Y-86440170D01*
X153228093Y-86455098D01*
X153240211Y-86467179D01*
X153245302Y-86473966D01*
X153245333Y-86474207D01*
X153240910Y-86480868D01*
X153229731Y-86491882D01*
X153223250Y-86497447D01*
X153177918Y-86526941D01*
X153127452Y-86545787D01*
X153074105Y-86553426D01*
X153020130Y-86549295D01*
X153017152Y-86548708D01*
X152968788Y-86533074D01*
X152928048Y-86507624D01*
X152895298Y-86472724D01*
X152870903Y-86428741D01*
X152858300Y-86389969D01*
X152854012Y-86363379D01*
X152851549Y-86329025D01*
X152850946Y-86291519D01*
X152852238Y-86255472D01*
X152852278Y-86255099D01*
X152951511Y-86255099D01*
X153159203Y-86255099D01*
X153154909Y-86231656D01*
X153143114Y-86195713D01*
X153123028Y-86168311D01*
X153095667Y-86150359D01*
X153062051Y-86142768D01*
X153055202Y-86142571D01*
X153026697Y-86145620D01*
X153002480Y-86153698D01*
X153001581Y-86154170D01*
X152982437Y-86169933D01*
X152965765Y-86193124D01*
X152954550Y-86218786D01*
X152951511Y-86237328D01*
X152951511Y-86255099D01*
X152852278Y-86255099D01*
X152855460Y-86225494D01*
X152856994Y-86217537D01*
G37*
G36*
X149483894Y-86165101D02*
G01*
X149505798Y-86124073D01*
X149526152Y-86099288D01*
X149562052Y-86071782D01*
X149603372Y-86054143D01*
X149647907Y-86046332D01*
X149693448Y-86048312D01*
X149737787Y-86060044D01*
X149778717Y-86081489D01*
X149806090Y-86104165D01*
X149832648Y-86136759D01*
X149851600Y-86174594D01*
X149863514Y-86219407D01*
X149868960Y-86272930D01*
X149869455Y-86297297D01*
X149869502Y-86336369D01*
X149556359Y-86336369D01*
X149560532Y-86359812D01*
X149571862Y-86395670D01*
X149591116Y-86424031D01*
X149616314Y-86442645D01*
X149652809Y-86453639D01*
X149692307Y-86453834D01*
X149732179Y-86443592D01*
X149769796Y-86423275D01*
X149772864Y-86421052D01*
X149780121Y-86416788D01*
X149787438Y-86416842D01*
X149797584Y-86422362D01*
X149813330Y-86434494D01*
X149821488Y-86441185D01*
X149857349Y-86470777D01*
X149828857Y-86496966D01*
X149806872Y-86514007D01*
X149781673Y-86529062D01*
X149767701Y-86535376D01*
X149732580Y-86545114D01*
X149692941Y-86550766D01*
X149654307Y-86551811D01*
X149626516Y-86548715D01*
X149583452Y-86534874D01*
X149544373Y-86512949D01*
X149521209Y-86493443D01*
X149495244Y-86458730D01*
X149476207Y-86416000D01*
X149464068Y-86367625D01*
X149458797Y-86315975D01*
X149460364Y-86263424D01*
X149461729Y-86255099D01*
X149557238Y-86255099D01*
X149763226Y-86255099D01*
X149763226Y-86237328D01*
X149758339Y-86213179D01*
X149745667Y-86187635D01*
X149728195Y-86165653D01*
X149713156Y-86154170D01*
X149684414Y-86144494D01*
X149652499Y-86142741D01*
X149622371Y-86148794D01*
X149606299Y-86156720D01*
X149584016Y-86178597D01*
X149567796Y-86209361D01*
X149560906Y-86234781D01*
X149557238Y-86255099D01*
X149461729Y-86255099D01*
X149468740Y-86212342D01*
X149483894Y-86165101D01*
G37*
G36*
X152661509Y-86044847D02*
G01*
X152685168Y-86048973D01*
X152695236Y-86051443D01*
X152735930Y-86065886D01*
X152774014Y-86086751D01*
X152804813Y-86111425D01*
X152807551Y-86114254D01*
X152817071Y-86125261D01*
X152818440Y-86132479D01*
X152812160Y-86141144D01*
X152810316Y-86143195D01*
X152797847Y-86155426D01*
X152781083Y-86170039D01*
X152775342Y-86174697D01*
X152752336Y-86192942D01*
X152723527Y-86172636D01*
X152704529Y-86160754D01*
X152686578Y-86154086D01*
X152664017Y-86150829D01*
X152652761Y-86150096D01*
X152612789Y-86151986D01*
X152580968Y-86162800D01*
X152556104Y-86183155D01*
X152539468Y-86208574D01*
X152531785Y-86225631D01*
X152527075Y-86242228D01*
X152524651Y-86262334D01*
X152523823Y-86289915D01*
X152523784Y-86298860D01*
X152524284Y-86329618D01*
X152526301Y-86351822D01*
X152530469Y-86369391D01*
X152537424Y-86386244D01*
X152538192Y-86387825D01*
X152558541Y-86416264D01*
X152586235Y-86436349D01*
X152618967Y-86447672D01*
X152654431Y-86449831D01*
X152690322Y-86442417D01*
X152724332Y-86425027D01*
X152729273Y-86421423D01*
X152751728Y-86404296D01*
X152775038Y-86422782D01*
X152792005Y-86437044D01*
X152806622Y-86450658D01*
X152810257Y-86454459D01*
X152818232Y-86464513D01*
X152817684Y-86471808D01*
X152810257Y-86480882D01*
X152785455Y-86502747D01*
X152753092Y-86523273D01*
X152718013Y-86539538D01*
X152706201Y-86543619D01*
X152677901Y-86551074D01*
X152652670Y-86553908D01*
X152624978Y-86552394D01*
X152600997Y-86548867D01*
X152563084Y-86537771D01*
X152524798Y-86518577D01*
X152491687Y-86494200D01*
X152485283Y-86488062D01*
X152458355Y-86452354D01*
X152438320Y-86408106D01*
X152425743Y-86357558D01*
X152421187Y-86302952D01*
X152424978Y-86248132D01*
X152438010Y-86191468D01*
X152459298Y-86144168D01*
X152488973Y-86106091D01*
X152527166Y-86077097D01*
X152574008Y-86057047D01*
X152612129Y-86048238D01*
X152639430Y-86044690D01*
X152661509Y-86044847D01*
G37*
G36*
X151696230Y-86220023D02*
G01*
X151696826Y-86271054D01*
X151697463Y-86311104D01*
X151698263Y-86341694D01*
X151699342Y-86364346D01*
X151700819Y-86380580D01*
X151702814Y-86391918D01*
X151705445Y-86399882D01*
X151708831Y-86405993D01*
X151710967Y-86408994D01*
X151732121Y-86432186D01*
X151754753Y-86445097D01*
X151782631Y-86449738D01*
X151787515Y-86449845D01*
X151822195Y-86445554D01*
X151849314Y-86431627D01*
X151870032Y-86407387D01*
X151874683Y-86398980D01*
X151878974Y-86390003D01*
X151882291Y-86380969D01*
X151884759Y-86370197D01*
X151886504Y-86356008D01*
X151887649Y-86336721D01*
X151888321Y-86310655D01*
X151888644Y-86276131D01*
X151888744Y-86231468D01*
X151888749Y-86210014D01*
X151888749Y-86048798D01*
X151988774Y-86048798D01*
X151988774Y-86548921D01*
X151888749Y-86548921D01*
X151888749Y-86499754D01*
X151857699Y-86520650D01*
X151816748Y-86541917D01*
X151774322Y-86552291D01*
X151732687Y-86551289D01*
X151723083Y-86549307D01*
X151679802Y-86532638D01*
X151643647Y-86505845D01*
X151615395Y-86469573D01*
X151606235Y-86452022D01*
X151602111Y-86442638D01*
X151598862Y-86433436D01*
X151596383Y-86422855D01*
X151594569Y-86409328D01*
X151593318Y-86391292D01*
X151592523Y-86367183D01*
X151592080Y-86335436D01*
X151591886Y-86294487D01*
X151591835Y-86242771D01*
X151591833Y-86236344D01*
X151591801Y-86051924D01*
X151643092Y-86050113D01*
X151694384Y-86048302D01*
X151696230Y-86220023D01*
G37*
G36*
X151472160Y-87141731D02*
G01*
X151489204Y-87104661D01*
X151516470Y-87074461D01*
X151551166Y-87052873D01*
X151564641Y-87047518D01*
X151579849Y-87043665D01*
X151599330Y-87040992D01*
X151625625Y-87039178D01*
X151661272Y-87037901D01*
X151671508Y-87037639D01*
X151763718Y-87035395D01*
X151763718Y-86999151D01*
X151761906Y-86972354D01*
X151756080Y-86954986D01*
X151752778Y-86950416D01*
X151733483Y-86936661D01*
X151706317Y-86927843D01*
X151674722Y-86923950D01*
X151642142Y-86924970D01*
X151612017Y-86930890D01*
X151587791Y-86941698D01*
X151577083Y-86951041D01*
X151571803Y-86955568D01*
X151565094Y-86955431D01*
X151554425Y-86949615D01*
X151537263Y-86937106D01*
X151531759Y-86932889D01*
X151513957Y-86918545D01*
X151500878Y-86906775D01*
X151495007Y-86899840D01*
X151494902Y-86899369D01*
X151500034Y-86889735D01*
X151513395Y-86876921D01*
X151531931Y-86863137D01*
X151552592Y-86850593D01*
X151572323Y-86841500D01*
X151576934Y-86839971D01*
X151610419Y-86833434D01*
X151650894Y-86830642D01*
X151693431Y-86831574D01*
X151733099Y-86836206D01*
X151753603Y-86840788D01*
X151786910Y-86854802D01*
X151816988Y-86876037D01*
X151840895Y-86901853D01*
X151855686Y-86929610D01*
X151856832Y-86933391D01*
X151858948Y-86947792D01*
X151860719Y-86973654D01*
X151862110Y-87009939D01*
X151863087Y-87055609D01*
X151863618Y-87109627D01*
X151863708Y-87144380D01*
X151863743Y-87330364D01*
X151763718Y-87330364D01*
X151763718Y-87291743D01*
X151744770Y-87307687D01*
X151725426Y-87320380D01*
X151704052Y-87329657D01*
X151702572Y-87330088D01*
X151671789Y-87335122D01*
X151635335Y-87335914D01*
X151599050Y-87332670D01*
X151568775Y-87325592D01*
X151568277Y-87325415D01*
X151528546Y-87305309D01*
X151497830Y-87277522D01*
X151476896Y-87243519D01*
X151466511Y-87204767D01*
X151467018Y-87181890D01*
X151563868Y-87181890D01*
X151568943Y-87206406D01*
X151583430Y-87224436D01*
X151602582Y-87233062D01*
X151620019Y-87236948D01*
X151629310Y-87239129D01*
X151647551Y-87240973D01*
X151671875Y-87240227D01*
X151697737Y-87237400D01*
X151720592Y-87233004D01*
X151735897Y-87227552D01*
X151736727Y-87227041D01*
X151752007Y-87211765D01*
X151760746Y-87189220D01*
X151763708Y-87157370D01*
X151763718Y-87154914D01*
X151763718Y-87124063D01*
X151685163Y-87124063D01*
X151642674Y-87124933D01*
X151611100Y-87128020D01*
X151588942Y-87134037D01*
X151574704Y-87143699D01*
X151566887Y-87157719D01*
X151563994Y-87176813D01*
X151563868Y-87181890D01*
X151467018Y-87181890D01*
X151467442Y-87162733D01*
X151472160Y-87141731D01*
G37*
G36*
X149475497Y-87123197D02*
G01*
X149493051Y-87091966D01*
X149504538Y-87079071D01*
X149521312Y-87065137D01*
X149539137Y-87054814D01*
X149560320Y-87047508D01*
X149587170Y-87042623D01*
X149621996Y-87039565D01*
X149664765Y-87037805D01*
X149756975Y-87035179D01*
X149756975Y-87001065D01*
X149755762Y-86979354D01*
X149752660Y-86961205D01*
X149750220Y-86954331D01*
X149736268Y-86940349D01*
X149712852Y-86930125D01*
X149682706Y-86924657D01*
X149667310Y-86924014D01*
X149632413Y-86925474D01*
X149606847Y-86930342D01*
X149587730Y-86939351D01*
X149578723Y-86946518D01*
X149562834Y-86961244D01*
X149525496Y-86932248D01*
X149507604Y-86917767D01*
X149494389Y-86905955D01*
X149488307Y-86899031D01*
X149488159Y-86898491D01*
X149492539Y-86892123D01*
X149503830Y-86880729D01*
X149514560Y-86871132D01*
X149540909Y-86852543D01*
X149570575Y-86840034D01*
X149605985Y-86833008D01*
X149649568Y-86830870D01*
X149675980Y-86831479D01*
X149708514Y-86833268D01*
X149732330Y-86835986D01*
X149751213Y-86840373D01*
X149768947Y-86847171D01*
X149778099Y-86851477D01*
X149812718Y-86873763D01*
X149837557Y-86902681D01*
X149851002Y-86930265D01*
X149853708Y-86941811D01*
X149855988Y-86961444D01*
X149857887Y-86990040D01*
X149859452Y-87028473D01*
X149860725Y-87077620D01*
X149861753Y-87138355D01*
X149861792Y-87141255D01*
X149864349Y-87330364D01*
X149756975Y-87330364D01*
X149756975Y-87291743D01*
X149738026Y-87307687D01*
X149718683Y-87320380D01*
X149697309Y-87329657D01*
X149695828Y-87330088D01*
X149666599Y-87334875D01*
X149631582Y-87335812D01*
X149596842Y-87333020D01*
X149571455Y-87327616D01*
X149531089Y-87309586D01*
X149498420Y-87283802D01*
X149475078Y-87251757D01*
X149466723Y-87231740D01*
X149461322Y-87197167D01*
X149462501Y-87183599D01*
X149557257Y-87183599D01*
X149564156Y-87204733D01*
X149579535Y-87222711D01*
X149602359Y-87234911D01*
X149610418Y-87237036D01*
X149629672Y-87239214D01*
X149655293Y-87239796D01*
X149682829Y-87238946D01*
X149707831Y-87236827D01*
X149725845Y-87233600D01*
X149728549Y-87232712D01*
X149741665Y-87221439D01*
X149751275Y-87200494D01*
X149756396Y-87172452D01*
X149756975Y-87158272D01*
X149756975Y-87123094D01*
X149673063Y-87125141D01*
X149638897Y-87126111D01*
X149614852Y-87127340D01*
X149598551Y-87129238D01*
X149587613Y-87132213D01*
X149579659Y-87136676D01*
X149573039Y-87142344D01*
X149559873Y-87161929D01*
X149557257Y-87183599D01*
X149462501Y-87183599D01*
X149464583Y-87159625D01*
X149475497Y-87123197D01*
G37*
G36*
X150864993Y-86046866D02*
G01*
X150900637Y-86052275D01*
X150933668Y-86059958D01*
X150956464Y-86067902D01*
X150980117Y-86079462D01*
X151001322Y-86091807D01*
X151017357Y-86103151D01*
X151025498Y-86111712D01*
X151025994Y-86113442D01*
X151022224Y-86120483D01*
X151012270Y-86134032D01*
X150998238Y-86151233D01*
X150997362Y-86152261D01*
X150968687Y-86185826D01*
X150933984Y-86166241D01*
X150903154Y-86153083D01*
X150868288Y-86144912D01*
X150833299Y-86142109D01*
X150802099Y-86145058D01*
X150783074Y-86151511D01*
X150763593Y-86166755D01*
X150753470Y-86185678D01*
X150752969Y-86205409D01*
X150762354Y-86223077D01*
X150775585Y-86233017D01*
X150790993Y-86238231D01*
X150813941Y-86242876D01*
X150839470Y-86245950D01*
X150839572Y-86245958D01*
X150891511Y-86251225D01*
X150932705Y-86258565D01*
X150964838Y-86268699D01*
X150989596Y-86282351D01*
X151008663Y-86300241D01*
X151023725Y-86323092D01*
X151024924Y-86325383D01*
X151036066Y-86357406D01*
X151040401Y-86393819D01*
X151037763Y-86429604D01*
X151029302Y-86457098D01*
X151007979Y-86488060D01*
X150976943Y-86513812D01*
X150938152Y-86533634D01*
X150893563Y-86546800D01*
X150845133Y-86552589D01*
X150794821Y-86550276D01*
X150782227Y-86548356D01*
X150757655Y-86542252D01*
X150729134Y-86532572D01*
X150708164Y-86523800D01*
X150685295Y-86511956D01*
X150662422Y-86498200D01*
X150642168Y-86484355D01*
X150627159Y-86472242D01*
X150620020Y-86463685D01*
X150619766Y-86462437D01*
X150624172Y-86456578D01*
X150635719Y-86444995D01*
X150652020Y-86430063D01*
X150654092Y-86428239D01*
X150688338Y-86398204D01*
X150716459Y-86417552D01*
X150754532Y-86439264D01*
X150793364Y-86451304D01*
X150837777Y-86455144D01*
X150839478Y-86455148D01*
X150880015Y-86452206D01*
X150909687Y-86443297D01*
X150928679Y-86428300D01*
X150937179Y-86407094D01*
X150937327Y-86391399D01*
X150933565Y-86376105D01*
X150924649Y-86364542D01*
X150908918Y-86355940D01*
X150884711Y-86349525D01*
X150850366Y-86344527D01*
X150832439Y-86342656D01*
X150781491Y-86335892D01*
X150741236Y-86326022D01*
X150710083Y-86312253D01*
X150686437Y-86293793D01*
X150668707Y-86269849D01*
X150662760Y-86258225D01*
X150655509Y-86235819D01*
X150651411Y-86210215D01*
X150651082Y-86202686D01*
X150656006Y-86158007D01*
X150671189Y-86120461D01*
X150696596Y-86090083D01*
X150732194Y-86066908D01*
X150777948Y-86050969D01*
X150804966Y-86045672D01*
X150831511Y-86044432D01*
X150864993Y-86046866D01*
G37*
G36*
X150310236Y-87086554D02*
G01*
X150310534Y-87035432D01*
X150311735Y-86994955D01*
X150314295Y-86963270D01*
X150318671Y-86938528D01*
X150325322Y-86918877D01*
X150334704Y-86902465D01*
X150347274Y-86887443D01*
X150363188Y-86872230D01*
X150394730Y-86848925D01*
X150428105Y-86835481D01*
X150467283Y-86830433D01*
X150476627Y-86830302D01*
X150504083Y-86833443D01*
X150533133Y-86841674D01*
X150559405Y-86853342D01*
X150578526Y-86866796D01*
X150581380Y-86869881D01*
X150590540Y-86878273D01*
X150595314Y-86880253D01*
X150597033Y-86874315D01*
X150598695Y-86857758D01*
X150600193Y-86832464D01*
X150601420Y-86800317D01*
X150602268Y-86763201D01*
X150602363Y-86756785D01*
X150604058Y-86633317D01*
X150652508Y-86631491D01*
X150700957Y-86629665D01*
X150700957Y-87330364D01*
X150600932Y-87330364D01*
X150600932Y-87308483D01*
X150599274Y-87292086D01*
X150593775Y-87287470D01*
X150583648Y-87294290D01*
X150579171Y-87298975D01*
X150562795Y-87311019D01*
X150538305Y-87322148D01*
X150510078Y-87330859D01*
X150482487Y-87335651D01*
X150470978Y-87336122D01*
X150446154Y-87333683D01*
X150421202Y-87328243D01*
X150415795Y-87326505D01*
X150382657Y-87309135D01*
X150352302Y-87283005D01*
X150328805Y-87251791D01*
X150324851Y-87244388D01*
X150319907Y-87233724D01*
X150316223Y-87223291D01*
X150313615Y-87211095D01*
X150311897Y-87195143D01*
X150310886Y-87173442D01*
X150310396Y-87143999D01*
X150310278Y-87113486D01*
X150408056Y-87113486D01*
X150412603Y-87155552D01*
X150422300Y-87187685D01*
X150437431Y-87210740D01*
X150458281Y-87225566D01*
X150464451Y-87228097D01*
X150497227Y-87235449D01*
X150528004Y-87231832D01*
X150548365Y-87223811D01*
X150566363Y-87213296D01*
X150579519Y-87200413D01*
X150588537Y-87183164D01*
X150594121Y-87159550D01*
X150596976Y-87127573D01*
X150597804Y-87085233D01*
X150597805Y-87083428D01*
X150597546Y-87048439D01*
X150596547Y-87023222D01*
X150594476Y-87005052D01*
X150591003Y-86991206D01*
X150585794Y-86978958D01*
X150584875Y-86977152D01*
X150566249Y-86953231D01*
X150541259Y-86937665D01*
X150512662Y-86930486D01*
X150483212Y-86931724D01*
X150455665Y-86941411D01*
X150432776Y-86959578D01*
X150422028Y-86975312D01*
X150415445Y-86994902D01*
X150410862Y-87025000D01*
X150408372Y-87060638D01*
X150408056Y-87113486D01*
X150310278Y-87113486D01*
X150310244Y-87104820D01*
X150310236Y-87086554D01*
G37*
G36*
X148507924Y-86201908D02*
G01*
X148518378Y-86166103D01*
X148534249Y-86135849D01*
X148556248Y-86108975D01*
X148565719Y-86099789D01*
X148605089Y-86071134D01*
X148648116Y-86053034D01*
X148693003Y-86045129D01*
X148737955Y-86047056D01*
X148781176Y-86058456D01*
X148820871Y-86078967D01*
X148855243Y-86108228D01*
X148882497Y-86145878D01*
X148891926Y-86165377D01*
X148899106Y-86190811D01*
X148904084Y-86225300D01*
X148906863Y-86265595D01*
X148907445Y-86308443D01*
X148905834Y-86350595D01*
X148902031Y-86388798D01*
X148896041Y-86419802D01*
X148891695Y-86432896D01*
X148869178Y-86472289D01*
X148838097Y-86505732D01*
X148801070Y-86530783D01*
X148775483Y-86541277D01*
X148738255Y-86549121D01*
X148697686Y-86551788D01*
X148662458Y-86549036D01*
X148617470Y-86534863D01*
X148576457Y-86509032D01*
X148560899Y-86495091D01*
X148537617Y-86467840D01*
X148520568Y-86437065D01*
X148509113Y-86400692D01*
X148502611Y-86356644D01*
X148500424Y-86302846D01*
X148500416Y-86298860D01*
X148603566Y-86298860D01*
X148604347Y-86339214D01*
X148607187Y-86369524D01*
X148612830Y-86392180D01*
X148622023Y-86409574D01*
X148635509Y-86424094D01*
X148644969Y-86431678D01*
X148672617Y-86445083D01*
X148705090Y-86449697D01*
X148738301Y-86445496D01*
X148768158Y-86432454D01*
X148768193Y-86432431D01*
X148783929Y-86417791D01*
X148795182Y-86396494D01*
X148802390Y-86367015D01*
X148805991Y-86327827D01*
X148806604Y-86298622D01*
X148806359Y-86265832D01*
X148805189Y-86242421D01*
X148802657Y-86225273D01*
X148798328Y-86211271D01*
X148792675Y-86199059D01*
X148773162Y-86173171D01*
X148747431Y-86156271D01*
X148717961Y-86148361D01*
X148687228Y-86149446D01*
X148657709Y-86159528D01*
X148631882Y-86178609D01*
X148616407Y-86198856D01*
X148610893Y-86209818D01*
X148607198Y-86222236D01*
X148604976Y-86238807D01*
X148603882Y-86262228D01*
X148603568Y-86295198D01*
X148603566Y-86298860D01*
X148500416Y-86298860D01*
X148502174Y-86245437D01*
X148507924Y-86201908D01*
G37*
G36*
X151198897Y-87005002D02*
G01*
X151213066Y-87048228D01*
X151226158Y-87087047D01*
X151237658Y-87120018D01*
X151247048Y-87145696D01*
X151253813Y-87162638D01*
X151257434Y-87169400D01*
X151257744Y-87169395D01*
X151260441Y-87162314D01*
X151265879Y-87144806D01*
X151273581Y-87118524D01*
X151283070Y-87085124D01*
X151293867Y-87046260D01*
X151304192Y-87008409D01*
X151315730Y-86965880D01*
X151326300Y-86927149D01*
X151335434Y-86893913D01*
X151342664Y-86867867D01*
X151347522Y-86850707D01*
X151349463Y-86844306D01*
X151356500Y-86839953D01*
X151374142Y-86837390D01*
X151403263Y-86836495D01*
X151405593Y-86836492D01*
X151432597Y-86836977D01*
X151448722Y-86838595D01*
X151455557Y-86841595D01*
X151455810Y-86844306D01*
X151453068Y-86852505D01*
X151447194Y-86870612D01*
X151438836Y-86896618D01*
X151428638Y-86928513D01*
X151417248Y-86964288D01*
X151417133Y-86964649D01*
X151403173Y-87008526D01*
X151386840Y-87059767D01*
X151369585Y-87113832D01*
X151352855Y-87166180D01*
X151340824Y-87203770D01*
X151300272Y-87330364D01*
X151210124Y-87330364D01*
X151160625Y-87164315D01*
X151147580Y-87120932D01*
X151135537Y-87081601D01*
X151124992Y-87047880D01*
X151116436Y-87021325D01*
X151110366Y-87003492D01*
X151107274Y-86995938D01*
X151107145Y-86995806D01*
X151104412Y-87000899D01*
X151098679Y-87016504D01*
X151090431Y-87041128D01*
X151080155Y-87073276D01*
X151068337Y-87111454D01*
X151055463Y-87154166D01*
X151053643Y-87160291D01*
X151004123Y-87327238D01*
X150958726Y-87329076D01*
X150932579Y-87329366D01*
X150917095Y-87327492D01*
X150910583Y-87323237D01*
X150910413Y-87322825D01*
X150907099Y-87312944D01*
X150900681Y-87293200D01*
X150891648Y-87265135D01*
X150880488Y-87230289D01*
X150867692Y-87190204D01*
X150853747Y-87146421D01*
X150839143Y-87100480D01*
X150824369Y-87053923D01*
X150809913Y-87008290D01*
X150796265Y-86965123D01*
X150783914Y-86925962D01*
X150773348Y-86892349D01*
X150765056Y-86865824D01*
X150759528Y-86847929D01*
X150757252Y-86840205D01*
X150757221Y-86840029D01*
X150762992Y-86838426D01*
X150778387Y-86837203D01*
X150800526Y-86836550D01*
X150810065Y-86836492D01*
X150862909Y-86836492D01*
X150868448Y-86856810D01*
X150871600Y-86868430D01*
X150877486Y-86890182D01*
X150885582Y-86920124D01*
X150895362Y-86956316D01*
X150906303Y-86996819D01*
X150914065Y-87025565D01*
X150925233Y-87066475D01*
X150935456Y-87103062D01*
X150944258Y-87133694D01*
X150951165Y-87156741D01*
X150955701Y-87170573D01*
X150957270Y-87173917D01*
X150959908Y-87168185D01*
X150965805Y-87152040D01*
X150974449Y-87126989D01*
X150985330Y-87094542D01*
X150997936Y-87056207D01*
X151011757Y-87013491D01*
X151013927Y-87006724D01*
X151067459Y-86839618D01*
X151105839Y-86837764D01*
X151144219Y-86835911D01*
X151198897Y-87005002D01*
G37*
G36*
X151101506Y-86240460D02*
G01*
X151106502Y-86201000D01*
X151114405Y-86169404D01*
X151116555Y-86163796D01*
X151139754Y-86123152D01*
X151170843Y-86090667D01*
X151208002Y-86066621D01*
X151249414Y-86051294D01*
X151293257Y-86044968D01*
X151337715Y-86047922D01*
X151380966Y-86060438D01*
X151421192Y-86082796D01*
X151453529Y-86111813D01*
X151471421Y-86133655D01*
X151484676Y-86155350D01*
X151493932Y-86179289D01*
X151499824Y-86207867D01*
X151502988Y-86243476D01*
X151504061Y-86288509D01*
X151504076Y-86301986D01*
X151503784Y-86339881D01*
X151502898Y-86367993D01*
X151501118Y-86389039D01*
X151498143Y-86405735D01*
X151493674Y-86420799D01*
X151489811Y-86431035D01*
X151471370Y-86464013D01*
X151444392Y-86495539D01*
X151412615Y-86521797D01*
X151386858Y-86536182D01*
X151352214Y-86546546D01*
X151311970Y-86551441D01*
X151272045Y-86550265D01*
X151262256Y-86548858D01*
X151216169Y-86534832D01*
X151175489Y-86510331D01*
X151142048Y-86476762D01*
X151119063Y-86438669D01*
X151109981Y-86410055D01*
X151103654Y-86372582D01*
X151100112Y-86329596D01*
X151099614Y-86298622D01*
X151201217Y-86298622D01*
X151202648Y-86344243D01*
X151207290Y-86379237D01*
X151215962Y-86405248D01*
X151229484Y-86423919D01*
X151248675Y-86436895D01*
X151274355Y-86445820D01*
X151274593Y-86445881D01*
X151311133Y-86449735D01*
X151344176Y-86442316D01*
X151363136Y-86431466D01*
X151379187Y-86417558D01*
X151390564Y-86402017D01*
X151398008Y-86382462D01*
X151402256Y-86356510D01*
X151404048Y-86321778D01*
X151404255Y-86298860D01*
X151403996Y-86264861D01*
X151402989Y-86240662D01*
X151400888Y-86223566D01*
X151397345Y-86210874D01*
X151392015Y-86199891D01*
X151391414Y-86198856D01*
X151368888Y-86171289D01*
X151340170Y-86154568D01*
X151305487Y-86148825D01*
X151304771Y-86148823D01*
X151268643Y-86153473D01*
X151240344Y-86167670D01*
X151219209Y-86191788D01*
X151215146Y-86199059D01*
X151208871Y-86212870D01*
X151204778Y-86227081D01*
X151202430Y-86244809D01*
X151201393Y-86269170D01*
X151201217Y-86298622D01*
X151099614Y-86298622D01*
X151099386Y-86284440D01*
X151101506Y-86240460D01*
G37*
G36*
X152344023Y-86931243D02*
G01*
X152371117Y-86891736D01*
X152405701Y-86861773D01*
X152447421Y-86841742D01*
X152495924Y-86832027D01*
X152502192Y-86831572D01*
X152554552Y-86833762D01*
X152600924Y-86846766D01*
X152640865Y-86870336D01*
X152673934Y-86904225D01*
X152695860Y-86940040D01*
X152704994Y-86959609D01*
X152711105Y-86976495D01*
X152714949Y-86994369D01*
X152717280Y-87016901D01*
X152718853Y-87047763D01*
X152719051Y-87052836D01*
X152721777Y-87124063D01*
X152412232Y-87124063D01*
X152415723Y-87150091D01*
X152425956Y-87181845D01*
X152446246Y-87208784D01*
X152474449Y-87228814D01*
X152507567Y-87239702D01*
X152535311Y-87239929D01*
X152567054Y-87233553D01*
X152597300Y-87222108D01*
X152618837Y-87208629D01*
X152637080Y-87193278D01*
X152670828Y-87221952D01*
X152687777Y-87236762D01*
X152700471Y-87248625D01*
X152706301Y-87255097D01*
X152706374Y-87255256D01*
X152703209Y-87262774D01*
X152691698Y-87274394D01*
X152674413Y-87288124D01*
X152653925Y-87301974D01*
X152632807Y-87313955D01*
X152626716Y-87316895D01*
X152595620Y-87327135D01*
X152558094Y-87333480D01*
X152518902Y-87335604D01*
X152482808Y-87333181D01*
X152460765Y-87328229D01*
X152420568Y-87311912D01*
X152389273Y-87291475D01*
X152363364Y-87264242D01*
X152348506Y-87242842D01*
X152329988Y-87203828D01*
X152317521Y-87156463D01*
X152311588Y-87103588D01*
X152312669Y-87048044D01*
X152313715Y-87037349D01*
X152313871Y-87036541D01*
X152412232Y-87036541D01*
X152619867Y-87036541D01*
X152615995Y-87016224D01*
X152603943Y-86979287D01*
X152584100Y-86951292D01*
X152557408Y-86933018D01*
X152524808Y-86925240D01*
X152506083Y-86925577D01*
X152471879Y-86934467D01*
X152444280Y-86953012D01*
X152424919Y-86979679D01*
X152415723Y-87010513D01*
X152412232Y-87036541D01*
X152313871Y-87036541D01*
X152324771Y-86979909D01*
X152344023Y-86931243D01*
G37*
G36*
X150941147Y-82335406D02*
G01*
X150991844Y-82335508D01*
X151032396Y-82335748D01*
X151063982Y-82336181D01*
X151087781Y-82336864D01*
X151104972Y-82337854D01*
X151116734Y-82339207D01*
X151124246Y-82340980D01*
X151128686Y-82343228D01*
X151131235Y-82346010D01*
X151132108Y-82347505D01*
X151134678Y-82356210D01*
X151139204Y-82375795D01*
X151145398Y-82404839D01*
X151152971Y-82441921D01*
X151161633Y-82485621D01*
X151171095Y-82534520D01*
X151181068Y-82587196D01*
X151182715Y-82596004D01*
X151192763Y-82648967D01*
X151202416Y-82698209D01*
X151211379Y-82742339D01*
X151219355Y-82779968D01*
X151226050Y-82809705D01*
X151231165Y-82830161D01*
X151234407Y-82839946D01*
X151234759Y-82840457D01*
X151243050Y-82845406D01*
X151261149Y-82854103D01*
X151287202Y-82865788D01*
X151319352Y-82879700D01*
X151355746Y-82895079D01*
X151394530Y-82911166D01*
X151433848Y-82927200D01*
X151471846Y-82942422D01*
X151506669Y-82956071D01*
X151536463Y-82967387D01*
X151559374Y-82975611D01*
X151573546Y-82979981D01*
X151576449Y-82980485D01*
X151585327Y-82977783D01*
X151602018Y-82969093D01*
X151626931Y-82954158D01*
X151660477Y-82932719D01*
X151703064Y-82904517D01*
X151755103Y-82869294D01*
X151785329Y-82848601D01*
X151837697Y-82812641D01*
X151880738Y-82783134D01*
X151915437Y-82759465D01*
X151942782Y-82741019D01*
X151963759Y-82727181D01*
X151979353Y-82717336D01*
X151990552Y-82710870D01*
X151998342Y-82707169D01*
X152003709Y-82705616D01*
X152007639Y-82705597D01*
X152011120Y-82706499D01*
X152012570Y-82706967D01*
X152020560Y-82712500D01*
X152035784Y-82725775D01*
X152057068Y-82745596D01*
X152083237Y-82770767D01*
X152113115Y-82800092D01*
X152145527Y-82832373D01*
X152179298Y-82866415D01*
X152213254Y-82901023D01*
X152246218Y-82934999D01*
X152277015Y-82967147D01*
X152304472Y-82996271D01*
X152327411Y-83021176D01*
X152344659Y-83040664D01*
X152355040Y-83053539D01*
X152357615Y-83058199D01*
X152354175Y-83066076D01*
X152344375Y-83083008D01*
X152328993Y-83107784D01*
X152308809Y-83139195D01*
X152284600Y-83176031D01*
X152257147Y-83217082D01*
X152227227Y-83261138D01*
X152223207Y-83267009D01*
X152182854Y-83326317D01*
X152149586Y-83376165D01*
X152123476Y-83416440D01*
X152104595Y-83447026D01*
X152093018Y-83467809D01*
X152088815Y-83478674D01*
X152088798Y-83479039D01*
X152091265Y-83490109D01*
X152098147Y-83510451D01*
X152108667Y-83538271D01*
X152122049Y-83571776D01*
X152137517Y-83609174D01*
X152154294Y-83648672D01*
X152171604Y-83688476D01*
X152188669Y-83726794D01*
X152204714Y-83761833D01*
X152218962Y-83791799D01*
X152230636Y-83814900D01*
X152238960Y-83829343D01*
X152242200Y-83833235D01*
X152251142Y-83836301D01*
X152270912Y-83841253D01*
X152300031Y-83847780D01*
X152337017Y-83855570D01*
X152380392Y-83864311D01*
X152428676Y-83873689D01*
X152476633Y-83882699D01*
X152528208Y-83892325D01*
X152576311Y-83901474D01*
X152619453Y-83909851D01*
X152656144Y-83917158D01*
X152684892Y-83923099D01*
X152704209Y-83927378D01*
X152712389Y-83929600D01*
X152726455Y-83935510D01*
X152726455Y-84185037D01*
X152726424Y-84247644D01*
X152726298Y-84298903D01*
X152726026Y-84339969D01*
X152725559Y-84371997D01*
X152724848Y-84396144D01*
X152723842Y-84413563D01*
X152722492Y-84425409D01*
X152720748Y-84432839D01*
X152718561Y-84437007D01*
X152715881Y-84439069D01*
X152715515Y-84439233D01*
X152707027Y-84441428D01*
X152687696Y-84445615D01*
X152658973Y-84451504D01*
X152622310Y-84458806D01*
X152579156Y-84467233D01*
X152530964Y-84476496D01*
X152479886Y-84486173D01*
X152417302Y-84498073D01*
X152366124Y-84508106D01*
X152325429Y-84516480D01*
X152294294Y-84523406D01*
X152271796Y-84529095D01*
X152257011Y-84533757D01*
X152249017Y-84537601D01*
X152247399Y-84539108D01*
X152243171Y-84547448D01*
X152234987Y-84565875D01*
X152223493Y-84592850D01*
X152209333Y-84626836D01*
X152193154Y-84666294D01*
X152175600Y-84709684D01*
X152169757Y-84724250D01*
X152146766Y-84782390D01*
X152128743Y-84829565D01*
X152115535Y-84866215D01*
X152106988Y-84892780D01*
X152102947Y-84909701D01*
X152102675Y-84915813D01*
X152106784Y-84924820D01*
X152117228Y-84942777D01*
X152133175Y-84968391D01*
X152153791Y-85000366D01*
X152178245Y-85037409D01*
X152205704Y-85078226D01*
X152231526Y-85116001D01*
X152260757Y-85158746D01*
X152287592Y-85198557D01*
X152311223Y-85234192D01*
X152330844Y-85264411D01*
X152345648Y-85287972D01*
X152354828Y-85303635D01*
X152357615Y-85309948D01*
X152353317Y-85316628D01*
X152341062Y-85331065D01*
X152321804Y-85352246D01*
X152296498Y-85379158D01*
X152266098Y-85410790D01*
X152231561Y-85446130D01*
X152193840Y-85484165D01*
X152183656Y-85494343D01*
X152138398Y-85539362D01*
X152101083Y-85576140D01*
X152070928Y-85605390D01*
X152047149Y-85627827D01*
X152028962Y-85644161D01*
X152015583Y-85655106D01*
X152006229Y-85661376D01*
X152000115Y-85663681D01*
X151997673Y-85663458D01*
X151989838Y-85658975D01*
X151972983Y-85648229D01*
X151948375Y-85632066D01*
X151917281Y-85611330D01*
X151880970Y-85586865D01*
X151840708Y-85559514D01*
X151804985Y-85535082D01*
X151762442Y-85506128D01*
X151722776Y-85479574D01*
X151687250Y-85456232D01*
X151657128Y-85436915D01*
X151633673Y-85422434D01*
X151618149Y-85413601D01*
X151612152Y-85411141D01*
X151602529Y-85413990D01*
X151584245Y-85421827D01*
X151559579Y-85433591D01*
X151530814Y-85448219D01*
X151517747Y-85455128D01*
X151488011Y-85470520D01*
X151461454Y-85483313D01*
X151440329Y-85492494D01*
X151426887Y-85497047D01*
X151423996Y-85497325D01*
X151420606Y-85494452D01*
X151415281Y-85486185D01*
X151407738Y-85471879D01*
X151397691Y-85450888D01*
X151384857Y-85422569D01*
X151368951Y-85386276D01*
X151349691Y-85341365D01*
X151326790Y-85287190D01*
X151299967Y-85223107D01*
X151268935Y-85148472D01*
X151247390Y-85096449D01*
X151219701Y-85029343D01*
X151193469Y-84965434D01*
X151169081Y-84905689D01*
X151146927Y-84851076D01*
X151127393Y-84802561D01*
X151110869Y-84761111D01*
X151097743Y-84727694D01*
X151088403Y-84703276D01*
X151083237Y-84688824D01*
X151082301Y-84685273D01*
X151087759Y-84673847D01*
X151102657Y-84660321D01*
X151108870Y-84656067D01*
X151126656Y-84644132D01*
X151150060Y-84627793D01*
X151174684Y-84610131D01*
X151180392Y-84605960D01*
X151241133Y-84553961D01*
X151292184Y-84494842D01*
X151333213Y-84429777D01*
X151363886Y-84359939D01*
X151383874Y-84286501D01*
X151392842Y-84210636D01*
X151390458Y-84133516D01*
X151376391Y-84056314D01*
X151354669Y-83990684D01*
X151335103Y-83947811D01*
X151312112Y-83909186D01*
X151283393Y-83871485D01*
X151246644Y-83831386D01*
X151238589Y-83823248D01*
X151183189Y-83773993D01*
X151125487Y-83735533D01*
X151062639Y-83706173D01*
X151016660Y-83690870D01*
X150971965Y-83681565D01*
X150919790Y-83676421D01*
X150864444Y-83675439D01*
X150810236Y-83678619D01*
X150761475Y-83685961D01*
X150741592Y-83690870D01*
X150667943Y-83718327D01*
X150599930Y-83756104D01*
X150538567Y-83803119D01*
X150484869Y-83858286D01*
X150439850Y-83920523D01*
X150404525Y-83988745D01*
X150379907Y-84061870D01*
X150375233Y-84082288D01*
X150365205Y-84160841D01*
X150367194Y-84238763D01*
X150380726Y-84314831D01*
X150405328Y-84387825D01*
X150440528Y-84456520D01*
X150485853Y-84519696D01*
X150540829Y-84576131D01*
X150577860Y-84605960D01*
X150602114Y-84623478D01*
X150626222Y-84640425D01*
X150645788Y-84653721D01*
X150649382Y-84656067D01*
X150666766Y-84669750D01*
X150675398Y-84682090D01*
X150675951Y-84685273D01*
X150673612Y-84692954D01*
X150666855Y-84711210D01*
X150656067Y-84739075D01*
X150641637Y-84775580D01*
X150623953Y-84819760D01*
X150603403Y-84870647D01*
X150580376Y-84927273D01*
X150555260Y-84988673D01*
X150528443Y-85053880D01*
X150510862Y-85096449D01*
X150477071Y-85177973D01*
X150447664Y-85248543D01*
X150422357Y-85308804D01*
X150400866Y-85359400D01*
X150382907Y-85400977D01*
X150368197Y-85434179D01*
X150356450Y-85459651D01*
X150347383Y-85478039D01*
X150340712Y-85489986D01*
X150336152Y-85496138D01*
X150334256Y-85497325D01*
X150324888Y-85495117D01*
X150306850Y-85487838D01*
X150282394Y-85476502D01*
X150253773Y-85462123D01*
X150240504Y-85455128D01*
X150210676Y-85439594D01*
X150183967Y-85426468D01*
X150162659Y-85416812D01*
X150149031Y-85411687D01*
X150146100Y-85411141D01*
X150138246Y-85414579D01*
X150121396Y-85424350D01*
X150096813Y-85439642D01*
X150065761Y-85459644D01*
X150029503Y-85483542D01*
X149989302Y-85510526D01*
X149953267Y-85535082D01*
X149910677Y-85564193D01*
X149870980Y-85591125D01*
X149835443Y-85615033D01*
X149805333Y-85635073D01*
X149781918Y-85650400D01*
X149766464Y-85660169D01*
X149760578Y-85663458D01*
X149756034Y-85663190D01*
X149748720Y-85659387D01*
X149737852Y-85651336D01*
X149722647Y-85638324D01*
X149702321Y-85619638D01*
X149676090Y-85594566D01*
X149643169Y-85562395D01*
X149602776Y-85522412D01*
X149574595Y-85494343D01*
X149536205Y-85455775D01*
X149500750Y-85419639D01*
X149469186Y-85386948D01*
X149442468Y-85358715D01*
X149421549Y-85335950D01*
X149407386Y-85319668D01*
X149400934Y-85310879D01*
X149400637Y-85309948D01*
X149404080Y-85302434D01*
X149413871Y-85285907D01*
X149429204Y-85261609D01*
X149449271Y-85230781D01*
X149473266Y-85194662D01*
X149500383Y-85154495D01*
X149526726Y-85116001D01*
X149556129Y-85072944D01*
X149583256Y-85032529D01*
X149607274Y-84996050D01*
X149627351Y-84964802D01*
X149642653Y-84940078D01*
X149652348Y-84923173D01*
X149655576Y-84915813D01*
X149654435Y-84905039D01*
X149648889Y-84884911D01*
X149638786Y-84854990D01*
X149623969Y-84814836D01*
X149604286Y-84764008D01*
X149588495Y-84724250D01*
X149570635Y-84679920D01*
X149553942Y-84639027D01*
X149539062Y-84603110D01*
X149526638Y-84573708D01*
X149517317Y-84552358D01*
X149511744Y-84540600D01*
X149510853Y-84539108D01*
X149505591Y-84535560D01*
X149493950Y-84531289D01*
X149475007Y-84526085D01*
X149447839Y-84519736D01*
X149411523Y-84512034D01*
X149365136Y-84502767D01*
X149307755Y-84491726D01*
X149278366Y-84486173D01*
X149226623Y-84476369D01*
X149178488Y-84467116D01*
X149135411Y-84458702D01*
X149098843Y-84451416D01*
X149070235Y-84445547D01*
X149051039Y-84441385D01*
X149042736Y-84439233D01*
X149039992Y-84437351D01*
X149037747Y-84433504D01*
X149035952Y-84426537D01*
X149034556Y-84415295D01*
X149033511Y-84398623D01*
X149032766Y-84375366D01*
X149032272Y-84344368D01*
X149031979Y-84304474D01*
X149031837Y-84254530D01*
X149031797Y-84193380D01*
X149031796Y-84185037D01*
X149031796Y-83935510D01*
X149045862Y-83929600D01*
X149055116Y-83927125D01*
X149075181Y-83922713D01*
X149104568Y-83916660D01*
X149141787Y-83909264D01*
X149185347Y-83900820D01*
X149233759Y-83891626D01*
X149281618Y-83882699D01*
X149333136Y-83873008D01*
X149381120Y-83863665D01*
X149424090Y-83854982D01*
X149460567Y-83847271D01*
X149489070Y-83840846D01*
X149508119Y-83836017D01*
X149516051Y-83833235D01*
X149521787Y-83825366D01*
X149531377Y-83807676D01*
X149544044Y-83781958D01*
X149559012Y-83750004D01*
X149575504Y-83713609D01*
X149592744Y-83674564D01*
X149609955Y-83634663D01*
X149626360Y-83595699D01*
X149641183Y-83559465D01*
X149653648Y-83527753D01*
X149662978Y-83502357D01*
X149668397Y-83485070D01*
X149669453Y-83479039D01*
X149665739Y-83468831D01*
X149654645Y-83448699D01*
X149636244Y-83418756D01*
X149610608Y-83379116D01*
X149577810Y-83329896D01*
X149537922Y-83271208D01*
X149535045Y-83267009D01*
X149504863Y-83222652D01*
X149477045Y-83181143D01*
X149452372Y-83143693D01*
X149431622Y-83111510D01*
X149415573Y-83085805D01*
X149405005Y-83067787D01*
X149400697Y-83058667D01*
X149400637Y-83058199D01*
X149404916Y-83051244D01*
X149416968Y-83036754D01*
X149435619Y-83015924D01*
X149459693Y-82989950D01*
X149488016Y-82960030D01*
X149519412Y-82927359D01*
X149552706Y-82893134D01*
X149586722Y-82858550D01*
X149620287Y-82824804D01*
X149652224Y-82793093D01*
X149681359Y-82764611D01*
X149706516Y-82740557D01*
X149726520Y-82722125D01*
X149740196Y-82710512D01*
X149745682Y-82706967D01*
X149749344Y-82705885D01*
X149753143Y-82705541D01*
X149758065Y-82706549D01*
X149765096Y-82709523D01*
X149775224Y-82715079D01*
X149789434Y-82723831D01*
X149808712Y-82736393D01*
X149834047Y-82753381D01*
X149866424Y-82775409D01*
X149906830Y-82803091D01*
X149956252Y-82837042D01*
X149973606Y-82848970D01*
X150030558Y-82887858D01*
X150077848Y-82919582D01*
X150115878Y-82944396D01*
X150145052Y-82962554D01*
X150165772Y-82974311D01*
X150178440Y-82979922D01*
X150181797Y-82980505D01*
X150191764Y-82977986D01*
X150211254Y-82971293D01*
X150238412Y-82961186D01*
X150271379Y-82948425D01*
X150308298Y-82933772D01*
X150347311Y-82917987D01*
X150386561Y-82901832D01*
X150424190Y-82886066D01*
X150458340Y-82871451D01*
X150487153Y-82858748D01*
X150508773Y-82848716D01*
X150521342Y-82842118D01*
X150523437Y-82840591D01*
X150526367Y-82832782D01*
X150531213Y-82814058D01*
X150537680Y-82785812D01*
X150545470Y-82749436D01*
X150554288Y-82706320D01*
X150563836Y-82657856D01*
X150573818Y-82605436D01*
X150575559Y-82596108D01*
X150585562Y-82542957D01*
X150595106Y-82493349D01*
X150603901Y-82448706D01*
X150611659Y-82410450D01*
X150618091Y-82380002D01*
X150622906Y-82358783D01*
X150625818Y-82348217D01*
X150626087Y-82347610D01*
X150628149Y-82344535D01*
X150631509Y-82342024D01*
X150637345Y-82340019D01*
X150646837Y-82338464D01*
X150661166Y-82337302D01*
X150681510Y-82336476D01*
X150709048Y-82335928D01*
X150744962Y-82335603D01*
X150790430Y-82335442D01*
X150846631Y-82335388D01*
X150879126Y-82335385D01*
X150941147Y-82335406D01*
G37*
G36*
X150210442Y-86048882D02*
G01*
X150246102Y-86059112D01*
X150253972Y-86062819D01*
X150288855Y-86085184D01*
X150314806Y-86113025D01*
X150333344Y-86145697D01*
X150337470Y-86155130D01*
X150340745Y-86164541D01*
X150343289Y-86175486D01*
X150345218Y-86189524D01*
X150346651Y-86208211D01*
X150347704Y-86233104D01*
X150348497Y-86265759D01*
X150349146Y-86307735D01*
X150349770Y-86360587D01*
X150349799Y-86363199D01*
X150351853Y-86549443D01*
X150299787Y-86547619D01*
X150247720Y-86545796D01*
X150244595Y-86377004D01*
X150243575Y-86325895D01*
X150242549Y-86285741D01*
X150241394Y-86254997D01*
X150239989Y-86232116D01*
X150238209Y-86215551D01*
X150235933Y-86203755D01*
X150233038Y-86195182D01*
X150229681Y-86188742D01*
X150209871Y-86165841D01*
X150183501Y-86152765D01*
X150151109Y-86148823D01*
X150117441Y-86152614D01*
X150091657Y-86164786D01*
X150071404Y-86186537D01*
X150068592Y-86190869D01*
X150064193Y-86198343D01*
X150060752Y-86205994D01*
X150058127Y-86215420D01*
X150056179Y-86228222D01*
X150054768Y-86246000D01*
X150053755Y-86270355D01*
X150052999Y-86302886D01*
X150052361Y-86345193D01*
X150051906Y-86381693D01*
X150049890Y-86548921D01*
X149950772Y-86548921D01*
X149950772Y-86048798D01*
X150050797Y-86048798D01*
X150050797Y-86073804D01*
X150052096Y-86091629D01*
X150056851Y-86097696D01*
X150066349Y-86092500D01*
X150075655Y-86083339D01*
X150101534Y-86064183D01*
X150134838Y-86051800D01*
X150172247Y-86046572D01*
X150210442Y-86048882D01*
G37*
%TO.C,J1*%
X141351000Y-105851000D02*
X136211000Y-105851000D01*
X143951000Y-103191000D02*
X143951000Y-104521000D01*
X141351000Y-103191000D02*
X136211000Y-103191000D01*
X142621000Y-103191000D02*
X143951000Y-103191000D01*
X136211000Y-103191000D02*
X136211000Y-105851000D01*
X141351000Y-103191000D02*
X141351000Y-105851000D01*
%TO.C,C2*%
X139459580Y-106805000D02*
X139178420Y-106805000D01*
X139459580Y-107825000D02*
X139178420Y-107825000D01*
%TO.C,J4*%
X136136000Y-108587500D02*
X156716000Y-108587500D01*
X144376000Y-117707500D02*
X144376000Y-116397500D01*
X156716000Y-117707500D02*
X136136000Y-117707500D01*
X141846000Y-119097500D02*
X141346000Y-118097500D01*
X136136000Y-117707500D02*
X136136000Y-108587500D01*
X144376000Y-116397500D02*
X137436000Y-116397500D01*
X156716000Y-108587500D02*
X156716000Y-117707500D01*
X155416000Y-109897500D02*
X155416000Y-116397500D01*
X148476000Y-116397500D02*
X148476000Y-117707500D01*
X155416000Y-116397500D02*
X148476000Y-116397500D01*
X137436000Y-109897500D02*
X155416000Y-109897500D01*
X148476000Y-116397500D02*
X148476000Y-116397500D01*
X141346000Y-118097500D02*
X140846000Y-119097500D01*
X137436000Y-116397500D02*
X137436000Y-109897500D01*
X140846000Y-119097500D02*
X141846000Y-119097500D01*
%TO.C,C4*%
X183433000Y-98534000D02*
X183433000Y-97306000D01*
X184274000Y-98816000D02*
X184274000Y-97306000D01*
X182793000Y-98051000D02*
X182793000Y-97306000D01*
X182153000Y-96943000D02*
X182153000Y-95589000D01*
X182713000Y-97965000D02*
X182713000Y-97306000D01*
X184394000Y-95226000D02*
X184394000Y-93701000D01*
X183153000Y-95226000D02*
X183153000Y-94171000D01*
X182993000Y-98237000D02*
X182993000Y-97306000D01*
X182913000Y-98167000D02*
X182913000Y-97306000D01*
X183233000Y-98415000D02*
X183233000Y-97306000D01*
X182953000Y-98203000D02*
X182953000Y-97306000D01*
X183353000Y-98490000D02*
X183353000Y-97306000D01*
X183073000Y-98301000D02*
X183073000Y-97306000D01*
X184194000Y-95226000D02*
X184194000Y-93730000D01*
X183753000Y-98680000D02*
X183753000Y-97306000D01*
X183513000Y-98576000D02*
X183513000Y-97306000D01*
X187228775Y-97991000D02*
X187228775Y-97491000D01*
X182233000Y-97181000D02*
X182233000Y-95351000D01*
X182113000Y-96784000D02*
X182113000Y-95748000D01*
X184434000Y-95226000D02*
X184434000Y-93697000D01*
X183593000Y-98614000D02*
X183593000Y-97306000D01*
X182313000Y-97364000D02*
X182313000Y-95168000D01*
X182793000Y-95226000D02*
X182793000Y-94481000D01*
X182353000Y-97444000D02*
X182353000Y-95088000D01*
X183633000Y-95226000D02*
X183633000Y-93901000D01*
X182953000Y-95226000D02*
X182953000Y-94329000D01*
X182713000Y-95226000D02*
X182713000Y-94567000D01*
X184354000Y-95226000D02*
X184354000Y-93705000D01*
X182873000Y-95226000D02*
X182873000Y-94402000D01*
X183873000Y-95226000D02*
X183873000Y-93811000D01*
X184594000Y-98845000D02*
X184594000Y-97306000D01*
X182073000Y-96550000D02*
X182073000Y-95982000D01*
X184394000Y-98831000D02*
X184394000Y-97306000D01*
X182513000Y-97709000D02*
X182513000Y-94823000D01*
X184434000Y-98835000D02*
X184434000Y-97306000D01*
X183513000Y-95226000D02*
X183513000Y-93956000D01*
X184234000Y-98809000D02*
X184234000Y-97306000D01*
X184074000Y-95226000D02*
X184074000Y-93755000D01*
X183833000Y-98708000D02*
X183833000Y-97306000D01*
X182673000Y-95226000D02*
X182673000Y-94613000D01*
X183913000Y-98734000D02*
X183913000Y-97306000D01*
X184314000Y-98822000D02*
X184314000Y-97306000D01*
X184634000Y-95226000D02*
X184634000Y-93686000D01*
X183073000Y-95226000D02*
X183073000Y-94231000D01*
X182553000Y-97766000D02*
X182553000Y-94766000D01*
X183793000Y-95226000D02*
X183793000Y-93838000D01*
X184194000Y-98802000D02*
X184194000Y-97306000D01*
X184474000Y-95226000D02*
X184474000Y-93693000D01*
X182753000Y-98009000D02*
X182753000Y-97306000D01*
X183633000Y-98631000D02*
X183633000Y-97306000D01*
X183994000Y-98757000D02*
X183994000Y-97306000D01*
X184234000Y-95226000D02*
X184234000Y-93723000D01*
X182633000Y-97871000D02*
X182633000Y-94661000D01*
X182473000Y-97649000D02*
X182473000Y-94883000D01*
X182873000Y-98130000D02*
X182873000Y-97306000D01*
X184154000Y-95226000D02*
X184154000Y-93738000D01*
X184314000Y-95226000D02*
X184314000Y-93710000D01*
X183353000Y-95226000D02*
X183353000Y-94042000D01*
X184074000Y-98777000D02*
X184074000Y-97306000D01*
X183753000Y-95226000D02*
X183753000Y-93852000D01*
X182833000Y-95226000D02*
X182833000Y-94440000D01*
X183873000Y-98721000D02*
X183873000Y-97306000D01*
X183113000Y-98331000D02*
X183113000Y-97306000D01*
X184274000Y-95226000D02*
X184274000Y-93716000D01*
X183793000Y-98694000D02*
X183793000Y-97306000D01*
X183153000Y-98361000D02*
X183153000Y-97306000D01*
X183553000Y-98595000D02*
X183553000Y-97306000D01*
X183313000Y-95226000D02*
X183313000Y-94066000D01*
X183833000Y-95226000D02*
X183833000Y-93824000D01*
X184034000Y-95226000D02*
X184034000Y-93765000D01*
X182393000Y-97517000D02*
X182393000Y-95015000D01*
X184554000Y-98844000D02*
X184554000Y-97306000D01*
X182833000Y-98092000D02*
X182833000Y-97306000D01*
X184674000Y-95226000D02*
X184674000Y-93686000D01*
X182433000Y-97585000D02*
X182433000Y-94947000D01*
X183393000Y-95226000D02*
X183393000Y-94019000D01*
X183673000Y-98648000D02*
X183673000Y-97306000D01*
X184114000Y-98786000D02*
X184114000Y-97306000D01*
X183953000Y-98746000D02*
X183953000Y-97306000D01*
X183593000Y-95226000D02*
X183593000Y-93918000D01*
X184114000Y-95226000D02*
X184114000Y-93746000D01*
X183193000Y-95226000D02*
X183193000Y-94144000D01*
X184554000Y-95226000D02*
X184554000Y-93688000D01*
X183713000Y-98664000D02*
X183713000Y-97306000D01*
X183994000Y-95226000D02*
X183994000Y-93775000D01*
X183953000Y-95226000D02*
X183953000Y-93786000D01*
X182673000Y-97919000D02*
X182673000Y-97306000D01*
X184154000Y-98794000D02*
X184154000Y-97306000D01*
X183473000Y-95226000D02*
X183473000Y-93976000D01*
X183553000Y-95226000D02*
X183553000Y-93937000D01*
X182593000Y-97820000D02*
X182593000Y-94712000D01*
X183473000Y-98556000D02*
X183473000Y-97306000D01*
X183313000Y-98466000D02*
X183313000Y-97306000D01*
X184674000Y-98846000D02*
X184674000Y-97306000D01*
X183273000Y-98441000D02*
X183273000Y-97306000D01*
X182193000Y-97071000D02*
X182193000Y-95461000D01*
X184354000Y-98827000D02*
X184354000Y-97306000D01*
X183033000Y-95226000D02*
X183033000Y-94262000D01*
X184634000Y-98846000D02*
X184634000Y-97306000D01*
X183713000Y-95226000D02*
X183713000Y-93868000D01*
X183673000Y-95226000D02*
X183673000Y-93884000D01*
X184514000Y-95226000D02*
X184514000Y-93690000D01*
X187478775Y-97741000D02*
X186978775Y-97741000D01*
X183913000Y-95226000D02*
X183913000Y-93798000D01*
X182993000Y-95226000D02*
X182993000Y-94295000D01*
X184474000Y-98839000D02*
X184474000Y-97306000D01*
X183273000Y-95226000D02*
X183273000Y-94091000D01*
X182753000Y-95226000D02*
X182753000Y-94523000D01*
X184594000Y-95226000D02*
X184594000Y-93687000D01*
X182273000Y-97277000D02*
X182273000Y-95255000D01*
X183113000Y-95226000D02*
X183113000Y-94201000D01*
X184514000Y-98842000D02*
X184514000Y-97306000D01*
X183193000Y-98388000D02*
X183193000Y-97306000D01*
X183233000Y-95226000D02*
X183233000Y-94117000D01*
X182913000Y-95226000D02*
X182913000Y-94365000D01*
X183033000Y-98270000D02*
X183033000Y-97306000D01*
X183393000Y-98513000D02*
X183393000Y-97306000D01*
X183433000Y-95226000D02*
X183433000Y-93998000D01*
X184034000Y-98767000D02*
X184034000Y-97306000D01*
X187294000Y-96266000D02*
G75*
G03*
X187294000Y-96266000I-2620000J0D01*
G01*
%TO.C,J3*%
X189589888Y-106929000D02*
X189589888Y-109529000D01*
X189589888Y-104329000D02*
X189589888Y-105659000D01*
X181849888Y-104329000D02*
X181849888Y-109529000D01*
X186989888Y-104329000D02*
X181849888Y-104329000D01*
X189589888Y-109529000D02*
X181849888Y-109529000D01*
X188259888Y-104329000D02*
X189589888Y-104329000D01*
X186989888Y-106929000D02*
X189589888Y-106929000D01*
X186989888Y-104329000D02*
X186989888Y-106929000D01*
%TO.C,U2*%
X189144888Y-86228000D02*
X187884888Y-86228000D01*
X182324888Y-86228000D02*
X183584888Y-86228000D01*
X182324888Y-92238000D02*
X182324888Y-86228000D01*
X189144888Y-89988000D02*
X189144888Y-86228000D01*
D14*
%TO.C,IC1*%
X158386000Y-51206000D02*
X158386000Y-45006000D01*
X157386000Y-52506000D02*
X157386000Y-52506000D01*
X158386000Y-45006000D02*
X176386000Y-45006000D01*
X158386000Y-76406000D02*
X176386000Y-76406000D01*
X157486000Y-52506000D02*
X157486000Y-52506000D01*
X176386000Y-45006000D02*
X176386000Y-51206000D01*
X157486000Y-52506000D02*
G75*
G03*
X157386000Y-52506000I-50000J0D01*
G01*
X157386000Y-52506000D02*
G75*
G03*
X157486000Y-52506000I50000J0D01*
G01*
D13*
%TO.C,C1*%
X153926000Y-55258580D02*
X153926000Y-54977420D01*
X152906000Y-55258580D02*
X152906000Y-54977420D01*
%TO.C,C3*%
X190162775Y-97982000D02*
X190162775Y-99290000D01*
X190482775Y-101370000D02*
X190482775Y-102505000D01*
X189161775Y-101370000D02*
X189161775Y-102909000D01*
X190402775Y-101370000D02*
X190402775Y-102554000D01*
X190402775Y-98106000D02*
X190402775Y-99290000D01*
X190682775Y-98295000D02*
X190682775Y-99290000D01*
X189962775Y-101370000D02*
X189962775Y-102758000D01*
X191042775Y-98631000D02*
X191042775Y-99290000D01*
X190762775Y-101370000D02*
X190762775Y-102301000D01*
X190522775Y-101370000D02*
X190522775Y-102479000D01*
X189922775Y-97888000D02*
X189922775Y-99290000D01*
X191162775Y-98776000D02*
X191162775Y-101884000D01*
X189121775Y-97750000D02*
X189121775Y-99290000D01*
X189802775Y-97850000D02*
X189802775Y-99290000D01*
X189521775Y-101370000D02*
X189521775Y-102873000D01*
X190242775Y-98020000D02*
X190242775Y-99290000D01*
X190122775Y-101370000D02*
X190122775Y-102695000D01*
X190642775Y-101370000D02*
X190642775Y-102395000D01*
X191082775Y-98677000D02*
X191082775Y-99290000D01*
X189681775Y-101370000D02*
X189681775Y-102841000D01*
X190082775Y-97948000D02*
X190082775Y-99290000D01*
X189882775Y-97875000D02*
X189882775Y-99290000D01*
X189201775Y-97752000D02*
X189201775Y-99290000D01*
X189842775Y-101370000D02*
X189842775Y-102798000D01*
X190082775Y-101370000D02*
X190082775Y-102712000D01*
X190042775Y-97932000D02*
X190042775Y-99290000D01*
X191522775Y-99415000D02*
X191522775Y-101245000D01*
X191082775Y-101370000D02*
X191082775Y-101983000D01*
X189802775Y-101370000D02*
X189802775Y-102810000D01*
X189761775Y-101370000D02*
X189761775Y-102821000D01*
X189401775Y-97769000D02*
X189401775Y-99290000D01*
X190762775Y-98359000D02*
X190762775Y-99290000D01*
X190802775Y-98393000D02*
X190802775Y-99290000D01*
X190362775Y-98083000D02*
X190362775Y-99290000D01*
X189361775Y-101370000D02*
X189361775Y-102895000D01*
X189882775Y-101370000D02*
X189882775Y-102785000D01*
X190802775Y-101370000D02*
X190802775Y-102267000D01*
X189681775Y-97819000D02*
X189681775Y-99290000D01*
X190882775Y-101370000D02*
X190882775Y-102194000D01*
X191042775Y-101370000D02*
X191042775Y-102029000D01*
X191482775Y-99319000D02*
X191482775Y-101341000D01*
X189241775Y-97754000D02*
X189241775Y-99290000D01*
X190002775Y-97916000D02*
X190002775Y-99290000D01*
X190682775Y-101370000D02*
X190682775Y-102365000D01*
X190282775Y-101370000D02*
X190282775Y-102620000D01*
X189321775Y-101370000D02*
X189321775Y-102899000D01*
X189201775Y-101370000D02*
X189201775Y-102908000D01*
X190322775Y-98062000D02*
X190322775Y-99290000D01*
X190362775Y-101370000D02*
X190362775Y-102577000D01*
X189922775Y-101370000D02*
X189922775Y-102772000D01*
X189641775Y-101370000D02*
X189641775Y-102850000D01*
X190242775Y-101370000D02*
X190242775Y-102640000D01*
X190722775Y-101370000D02*
X190722775Y-102334000D01*
X189561775Y-101370000D02*
X189561775Y-102866000D01*
X190602775Y-98235000D02*
X190602775Y-99290000D01*
X189481775Y-97780000D02*
X189481775Y-99290000D01*
X191402775Y-99152000D02*
X191402775Y-101508000D01*
X190842775Y-98429000D02*
X190842775Y-99290000D01*
X190322775Y-101370000D02*
X190322775Y-102598000D01*
X190042775Y-101370000D02*
X190042775Y-102728000D01*
X190922775Y-98504000D02*
X190922775Y-99290000D01*
X189161775Y-97751000D02*
X189161775Y-99290000D01*
X191282775Y-98947000D02*
X191282775Y-101713000D01*
X189321775Y-97761000D02*
X189321775Y-99290000D01*
X190202775Y-101370000D02*
X190202775Y-102659000D01*
X189081775Y-101370000D02*
X189081775Y-102910000D01*
X190962775Y-101370000D02*
X190962775Y-102115000D01*
X189721775Y-101370000D02*
X189721775Y-102831000D01*
X189561775Y-97794000D02*
X189561775Y-99290000D01*
X189241775Y-101370000D02*
X189241775Y-102906000D01*
X186527000Y-98605000D02*
X186527000Y-99105000D01*
X190922775Y-101370000D02*
X190922775Y-102156000D01*
X189521775Y-97787000D02*
X189521775Y-99290000D01*
X189721775Y-97829000D02*
X189721775Y-99290000D01*
X190002775Y-101370000D02*
X190002775Y-102744000D01*
X189081775Y-97750000D02*
X189081775Y-99290000D01*
X191002775Y-98587000D02*
X191002775Y-99290000D01*
X190882775Y-98466000D02*
X190882775Y-99290000D01*
X191562775Y-99525000D02*
X191562775Y-101135000D01*
X190202775Y-98001000D02*
X190202775Y-99290000D01*
X190562775Y-101370000D02*
X190562775Y-102452000D01*
X191122775Y-98725000D02*
X191122775Y-101935000D01*
X190162775Y-101370000D02*
X190162775Y-102678000D01*
X189601775Y-101370000D02*
X189601775Y-102858000D01*
X191642775Y-99812000D02*
X191642775Y-100848000D01*
X190442775Y-98130000D02*
X190442775Y-99290000D01*
X186277000Y-98855000D02*
X186777000Y-98855000D01*
X189281775Y-101370000D02*
X189281775Y-102903000D01*
X189761775Y-97839000D02*
X189761775Y-99290000D01*
X189361775Y-97765000D02*
X189361775Y-99290000D01*
X190282775Y-98040000D02*
X190282775Y-99290000D01*
X191682775Y-100046000D02*
X191682775Y-100614000D01*
X189281775Y-97757000D02*
X189281775Y-99290000D01*
X189962775Y-97902000D02*
X189962775Y-99290000D01*
X189441775Y-97774000D02*
X189441775Y-99290000D01*
X189641775Y-97810000D02*
X189641775Y-99290000D01*
X189601775Y-97802000D02*
X189601775Y-99290000D01*
X189121775Y-101370000D02*
X189121775Y-102910000D01*
X191242775Y-98887000D02*
X191242775Y-101773000D01*
X191202775Y-98830000D02*
X191202775Y-101830000D01*
X190602775Y-101370000D02*
X190602775Y-102425000D01*
X190482775Y-98155000D02*
X190482775Y-99290000D01*
X189842775Y-97862000D02*
X189842775Y-99290000D01*
X190122775Y-97965000D02*
X190122775Y-99290000D01*
X190842775Y-101370000D02*
X190842775Y-102231000D01*
X191602775Y-99653000D02*
X191602775Y-101007000D01*
X190642775Y-98265000D02*
X190642775Y-99290000D01*
X191002775Y-101370000D02*
X191002775Y-102073000D01*
X191322775Y-99011000D02*
X191322775Y-101649000D01*
X189441775Y-101370000D02*
X189441775Y-102886000D01*
X189401775Y-101370000D02*
X189401775Y-102891000D01*
X190522775Y-98181000D02*
X190522775Y-99290000D01*
X191362775Y-99079000D02*
X191362775Y-101581000D01*
X190962775Y-98545000D02*
X190962775Y-99290000D01*
X190722775Y-98326000D02*
X190722775Y-99290000D01*
X189481775Y-101370000D02*
X189481775Y-102880000D01*
X190562775Y-98208000D02*
X190562775Y-99290000D01*
X190442775Y-101370000D02*
X190442775Y-102530000D01*
X191442775Y-99232000D02*
X191442775Y-101428000D01*
X191701775Y-100330000D02*
G75*
G03*
X191701775Y-100330000I-2620000J0D01*
G01*
%TO.C,R1*%
X155970500Y-54880742D02*
X155970500Y-55355258D01*
X154925500Y-54880742D02*
X154925500Y-55355258D01*
%TO.C,D1*%
X181963888Y-81561000D02*
X181963888Y-83031000D01*
X184248888Y-81561000D02*
X181963888Y-81561000D01*
X181963888Y-83031000D02*
X184248888Y-83031000D01*
%TO.C,R9*%
X179055500Y-74151258D02*
X179055500Y-73676742D01*
X180100500Y-74151258D02*
X180100500Y-73676742D01*
%TO.C,R3*%
X148477500Y-106282258D02*
X148477500Y-105807742D01*
X147432500Y-106282258D02*
X147432500Y-105807742D01*
%TO.C,R2*%
X145654500Y-106282258D02*
X145654500Y-105807742D01*
X146699500Y-106282258D02*
X146699500Y-105807742D01*
%TO.C,J5*%
X171844000Y-116143500D02*
X171844000Y-116143500D01*
X177544000Y-117453500D02*
X162044000Y-117453500D01*
X163344000Y-109643500D02*
X176244000Y-109643500D01*
X171844000Y-116143500D02*
X171844000Y-117453500D01*
X167754000Y-118843500D02*
X167254000Y-117843500D01*
X167744000Y-116143500D02*
X163344000Y-116143500D01*
X167744000Y-117453500D02*
X167744000Y-116143500D01*
X166754000Y-118843500D02*
X167754000Y-118843500D01*
X162044000Y-117453500D02*
X162044000Y-108333500D01*
X176244000Y-109643500D02*
X176244000Y-116143500D01*
X177544000Y-108333500D02*
X177544000Y-117453500D01*
X176244000Y-116143500D02*
X171844000Y-116143500D01*
X163344000Y-116143500D02*
X163344000Y-109643500D01*
X162044000Y-108333500D02*
X177544000Y-108333500D01*
X167254000Y-117843500D02*
X166754000Y-118843500D01*
%TO.C,J2*%
X170606000Y-102937000D02*
X170606000Y-104267000D01*
X168006000Y-105597000D02*
X162866000Y-105597000D01*
X169276000Y-102937000D02*
X170606000Y-102937000D01*
X168006000Y-102937000D02*
X162866000Y-102937000D01*
X168006000Y-102937000D02*
X168006000Y-105597000D01*
X162866000Y-102937000D02*
X162866000Y-105597000D01*
%TO.C,R4*%
X187242146Y-81773500D02*
X186767630Y-81773500D01*
X187242146Y-82818500D02*
X186767630Y-82818500D01*
%TO.C,R5*%
X180354500Y-70087258D02*
X180354500Y-69612742D01*
X179309500Y-70087258D02*
X179309500Y-69612742D01*
%TO.C,SW1*%
X172650000Y-88574000D02*
X175330000Y-88574000D01*
X175330000Y-94814000D02*
X172650000Y-94814000D01*
X170870000Y-88724000D02*
X170870000Y-94664000D01*
X177110000Y-88724000D02*
X177110000Y-94664000D01*
X175404214Y-91694000D02*
G75*
G03*
X175404214Y-91694000I-1414214J0D01*
G01*
%TO.C,J6*%
X125536000Y-117408000D02*
X124206000Y-117408000D01*
X125536000Y-51248000D02*
X122876000Y-51248000D01*
X125536000Y-116078000D02*
X125536000Y-117408000D01*
X125536000Y-114808000D02*
X125536000Y-51248000D01*
X125536000Y-114808000D02*
X122876000Y-114808000D01*
X122876000Y-114808000D02*
X122876000Y-51248000D01*
%TD*%
M02*
