%FSLAX45Y45*%
G04 Gerber Fmt 4.5, Leading zero omitted, Abs format (unit mm)*
G04 Created by KiCad (PCBNEW (6.0.0)) date 2022-01-24 17:46:20*
%MOMM*%
%LPD*%
G01*
G04 APERTURE LIST*
%TA.AperFunction,Profile*%
%ADD10C,0.100000*%
%TD*%
%ADD11C,0.200000*%
%ADD12C,0.320000*%
G04 APERTURE END LIST*
D10*
X18948400Y-11938000D02*
G75*
G03*
X19304000Y-11582400I0J355600D01*
G01*
X18948400Y-5080000D02*
X12192000Y-5080000D01*
X19304000Y-11582400D02*
X19304000Y-5435600D01*
X12192000Y-5080000D02*
X12192000Y-11938000D01*
X12192000Y-11938000D02*
X18948400Y-11938000D01*
X19304000Y-5435600D02*
G75*
G03*
X18948400Y-5080000I-355600J0D01*
G01*
D11*
D12*
X18788400Y-5275600D02*
X19108400Y-5595600D01*
X19108400Y-5275600D02*
X18788400Y-5595600D01*
X18788400Y-11422400D02*
X19108400Y-11742400D01*
X19108400Y-11422400D02*
X18788400Y-11742400D01*
D11*
X12444619Y-12253476D02*
X12444619Y-12053476D01*
X12492238Y-12053476D01*
X12520809Y-12063000D01*
X12539857Y-12082048D01*
X12549381Y-12101095D01*
X12558905Y-12139190D01*
X12558905Y-12167762D01*
X12549381Y-12205857D01*
X12539857Y-12224905D01*
X12520809Y-12243952D01*
X12492238Y-12253476D01*
X12444619Y-12253476D01*
X12644619Y-12253476D02*
X12644619Y-12120143D01*
X12644619Y-12158238D02*
X12654143Y-12139190D01*
X12663667Y-12129667D01*
X12682714Y-12120143D01*
X12701762Y-12120143D01*
X12768428Y-12253476D02*
X12768428Y-12120143D01*
X12768428Y-12053476D02*
X12758905Y-12063000D01*
X12768428Y-12072524D01*
X12777952Y-12063000D01*
X12768428Y-12053476D01*
X12768428Y-12072524D01*
X12892238Y-12253476D02*
X12873190Y-12243952D01*
X12863667Y-12224905D01*
X12863667Y-12053476D01*
X12997000Y-12253476D02*
X12977952Y-12243952D01*
X12968428Y-12224905D01*
X12968428Y-12053476D01*
X13225571Y-12253476D02*
X13225571Y-12053476D01*
X13292238Y-12196333D01*
X13358905Y-12053476D01*
X13358905Y-12253476D01*
X13539857Y-12253476D02*
X13539857Y-12148714D01*
X13530333Y-12129667D01*
X13511286Y-12120143D01*
X13473190Y-12120143D01*
X13454143Y-12129667D01*
X13539857Y-12243952D02*
X13520809Y-12253476D01*
X13473190Y-12253476D01*
X13454143Y-12243952D01*
X13444619Y-12224905D01*
X13444619Y-12205857D01*
X13454143Y-12186809D01*
X13473190Y-12177286D01*
X13520809Y-12177286D01*
X13539857Y-12167762D01*
X13635095Y-12120143D02*
X13635095Y-12320143D01*
X13635095Y-12129667D02*
X13654143Y-12120143D01*
X13692238Y-12120143D01*
X13711286Y-12129667D01*
X13720809Y-12139190D01*
X13730333Y-12158238D01*
X13730333Y-12215381D01*
X13720809Y-12234428D01*
X13711286Y-12243952D01*
X13692238Y-12253476D01*
X13654143Y-12253476D01*
X13635095Y-12243952D01*
X13816048Y-12234428D02*
X13825571Y-12243952D01*
X13816048Y-12253476D01*
X13806524Y-12243952D01*
X13816048Y-12234428D01*
X13816048Y-12253476D01*
X13816048Y-12129667D02*
X13825571Y-12139190D01*
X13816048Y-12148714D01*
X13806524Y-12139190D01*
X13816048Y-12129667D01*
X13816048Y-12148714D01*
X11987000Y-12483000D02*
X12187000Y-12683000D01*
X12187000Y-12483000D02*
X11987000Y-12683000D01*
X12425571Y-12473476D02*
X12549381Y-12473476D01*
X12482714Y-12549667D01*
X12511286Y-12549667D01*
X12530333Y-12559190D01*
X12539857Y-12568714D01*
X12549381Y-12587762D01*
X12549381Y-12635381D01*
X12539857Y-12654428D01*
X12530333Y-12663952D01*
X12511286Y-12673476D01*
X12454143Y-12673476D01*
X12435095Y-12663952D01*
X12425571Y-12654428D01*
X12635095Y-12654428D02*
X12644619Y-12663952D01*
X12635095Y-12673476D01*
X12625571Y-12663952D01*
X12635095Y-12654428D01*
X12635095Y-12673476D01*
X12720809Y-12492524D02*
X12730333Y-12483000D01*
X12749381Y-12473476D01*
X12797000Y-12473476D01*
X12816048Y-12483000D01*
X12825571Y-12492524D01*
X12835095Y-12511571D01*
X12835095Y-12530619D01*
X12825571Y-12559190D01*
X12711286Y-12673476D01*
X12835095Y-12673476D01*
X12958905Y-12473476D02*
X12977952Y-12473476D01*
X12997000Y-12483000D01*
X13006524Y-12492524D01*
X13016048Y-12511571D01*
X13025571Y-12549667D01*
X13025571Y-12597286D01*
X13016048Y-12635381D01*
X13006524Y-12654428D01*
X12997000Y-12663952D01*
X12977952Y-12673476D01*
X12958905Y-12673476D01*
X12939857Y-12663952D01*
X12930333Y-12654428D01*
X12920809Y-12635381D01*
X12911286Y-12597286D01*
X12911286Y-12549667D01*
X12920809Y-12511571D01*
X12930333Y-12492524D01*
X12939857Y-12483000D01*
X12958905Y-12473476D01*
X13149381Y-12473476D02*
X13168428Y-12473476D01*
X13187476Y-12483000D01*
X13197000Y-12492524D01*
X13206524Y-12511571D01*
X13216048Y-12549667D01*
X13216048Y-12597286D01*
X13206524Y-12635381D01*
X13197000Y-12654428D01*
X13187476Y-12663952D01*
X13168428Y-12673476D01*
X13149381Y-12673476D01*
X13130333Y-12663952D01*
X13120809Y-12654428D01*
X13111286Y-12635381D01*
X13101762Y-12597286D01*
X13101762Y-12549667D01*
X13111286Y-12511571D01*
X13120809Y-12492524D01*
X13130333Y-12483000D01*
X13149381Y-12473476D01*
X13301762Y-12673476D02*
X13301762Y-12540143D01*
X13301762Y-12559190D02*
X13311286Y-12549667D01*
X13330333Y-12540143D01*
X13358905Y-12540143D01*
X13377952Y-12549667D01*
X13387476Y-12568714D01*
X13387476Y-12673476D01*
X13387476Y-12568714D02*
X13397000Y-12549667D01*
X13416048Y-12540143D01*
X13444619Y-12540143D01*
X13463667Y-12549667D01*
X13473190Y-12568714D01*
X13473190Y-12673476D01*
X13568428Y-12673476D02*
X13568428Y-12540143D01*
X13568428Y-12559190D02*
X13577952Y-12549667D01*
X13597000Y-12540143D01*
X13625571Y-12540143D01*
X13644619Y-12549667D01*
X13654143Y-12568714D01*
X13654143Y-12673476D01*
X13654143Y-12568714D02*
X13663667Y-12549667D01*
X13682714Y-12540143D01*
X13711286Y-12540143D01*
X13730333Y-12549667D01*
X13739857Y-12568714D01*
X13739857Y-12673476D01*
X14130333Y-12463952D02*
X13958905Y-12721095D01*
X14387476Y-12473476D02*
X14406524Y-12473476D01*
X14425571Y-12483000D01*
X14435095Y-12492524D01*
X14444619Y-12511571D01*
X14454143Y-12549667D01*
X14454143Y-12597286D01*
X14444619Y-12635381D01*
X14435095Y-12654428D01*
X14425571Y-12663952D01*
X14406524Y-12673476D01*
X14387476Y-12673476D01*
X14368428Y-12663952D01*
X14358905Y-12654428D01*
X14349381Y-12635381D01*
X14339857Y-12597286D01*
X14339857Y-12549667D01*
X14349381Y-12511571D01*
X14358905Y-12492524D01*
X14368428Y-12483000D01*
X14387476Y-12473476D01*
X14539857Y-12654428D02*
X14549381Y-12663952D01*
X14539857Y-12673476D01*
X14530333Y-12663952D01*
X14539857Y-12654428D01*
X14539857Y-12673476D01*
X14739857Y-12673476D02*
X14625571Y-12673476D01*
X14682714Y-12673476D02*
X14682714Y-12473476D01*
X14663667Y-12502048D01*
X14644619Y-12521095D01*
X14625571Y-12530619D01*
X14816048Y-12492524D02*
X14825571Y-12483000D01*
X14844619Y-12473476D01*
X14892238Y-12473476D01*
X14911286Y-12483000D01*
X14920809Y-12492524D01*
X14930333Y-12511571D01*
X14930333Y-12530619D01*
X14920809Y-12559190D01*
X14806524Y-12673476D01*
X14930333Y-12673476D01*
X15101762Y-12473476D02*
X15063667Y-12473476D01*
X15044619Y-12483000D01*
X15035095Y-12492524D01*
X15016048Y-12521095D01*
X15006524Y-12559190D01*
X15006524Y-12635381D01*
X15016048Y-12654428D01*
X15025571Y-12663952D01*
X15044619Y-12673476D01*
X15082714Y-12673476D01*
X15101762Y-12663952D01*
X15111286Y-12654428D01*
X15120809Y-12635381D01*
X15120809Y-12587762D01*
X15111286Y-12568714D01*
X15101762Y-12559190D01*
X15082714Y-12549667D01*
X15044619Y-12549667D01*
X15025571Y-12559190D01*
X15016048Y-12568714D01*
X15006524Y-12587762D01*
X15244619Y-12473476D02*
X15263667Y-12473476D01*
X15282714Y-12483000D01*
X15292238Y-12492524D01*
X15301762Y-12511571D01*
X15311286Y-12549667D01*
X15311286Y-12597286D01*
X15301762Y-12635381D01*
X15292238Y-12654428D01*
X15282714Y-12663952D01*
X15263667Y-12673476D01*
X15244619Y-12673476D01*
X15225571Y-12663952D01*
X15216048Y-12654428D01*
X15206524Y-12635381D01*
X15197000Y-12597286D01*
X15197000Y-12549667D01*
X15206524Y-12511571D01*
X15216048Y-12492524D01*
X15225571Y-12483000D01*
X15244619Y-12473476D01*
X15387476Y-12473476D02*
X15387476Y-12511571D01*
X15463667Y-12473476D02*
X15463667Y-12511571D01*
X15758905Y-12749667D02*
X15749381Y-12740143D01*
X15730333Y-12711571D01*
X15720809Y-12692524D01*
X15711286Y-12663952D01*
X15701762Y-12616333D01*
X15701762Y-12578238D01*
X15711286Y-12530619D01*
X15720809Y-12502048D01*
X15730333Y-12483000D01*
X15749381Y-12454428D01*
X15758905Y-12444905D01*
X15825571Y-12492524D02*
X15835095Y-12483000D01*
X15854143Y-12473476D01*
X15901762Y-12473476D01*
X15920809Y-12483000D01*
X15930333Y-12492524D01*
X15939857Y-12511571D01*
X15939857Y-12530619D01*
X15930333Y-12559190D01*
X15816048Y-12673476D01*
X15939857Y-12673476D01*
X16177952Y-12673476D02*
X16177952Y-12473476D01*
X16263667Y-12673476D02*
X16263667Y-12568714D01*
X16254143Y-12549667D01*
X16235095Y-12540143D01*
X16206524Y-12540143D01*
X16187476Y-12549667D01*
X16177952Y-12559190D01*
X16387476Y-12673476D02*
X16368428Y-12663952D01*
X16358905Y-12654428D01*
X16349381Y-12635381D01*
X16349381Y-12578238D01*
X16358905Y-12559190D01*
X16368428Y-12549667D01*
X16387476Y-12540143D01*
X16416048Y-12540143D01*
X16435095Y-12549667D01*
X16444619Y-12559190D01*
X16454143Y-12578238D01*
X16454143Y-12635381D01*
X16444619Y-12654428D01*
X16435095Y-12663952D01*
X16416048Y-12673476D01*
X16387476Y-12673476D01*
X16568428Y-12673476D02*
X16549381Y-12663952D01*
X16539857Y-12644905D01*
X16539857Y-12473476D01*
X16720809Y-12663952D02*
X16701762Y-12673476D01*
X16663667Y-12673476D01*
X16644619Y-12663952D01*
X16635095Y-12644905D01*
X16635095Y-12568714D01*
X16644619Y-12549667D01*
X16663667Y-12540143D01*
X16701762Y-12540143D01*
X16720809Y-12549667D01*
X16730333Y-12568714D01*
X16730333Y-12587762D01*
X16635095Y-12606809D01*
X16806524Y-12663952D02*
X16825571Y-12673476D01*
X16863667Y-12673476D01*
X16882714Y-12663952D01*
X16892238Y-12644905D01*
X16892238Y-12635381D01*
X16882714Y-12616333D01*
X16863667Y-12606809D01*
X16835095Y-12606809D01*
X16816048Y-12597286D01*
X16806524Y-12578238D01*
X16806524Y-12568714D01*
X16816048Y-12549667D01*
X16835095Y-12540143D01*
X16863667Y-12540143D01*
X16882714Y-12549667D01*
X16958905Y-12749667D02*
X16968429Y-12740143D01*
X16987476Y-12711571D01*
X16997000Y-12692524D01*
X17006524Y-12663952D01*
X17016048Y-12616333D01*
X17016048Y-12578238D01*
X17006524Y-12530619D01*
X16997000Y-12502048D01*
X16987476Y-12483000D01*
X16968429Y-12454428D01*
X16958905Y-12444905D01*
X17320810Y-12749667D02*
X17311286Y-12740143D01*
X17292238Y-12711571D01*
X17282714Y-12692524D01*
X17273190Y-12663952D01*
X17263667Y-12616333D01*
X17263667Y-12578238D01*
X17273190Y-12530619D01*
X17282714Y-12502048D01*
X17292238Y-12483000D01*
X17311286Y-12454428D01*
X17320810Y-12444905D01*
X17397000Y-12540143D02*
X17397000Y-12673476D01*
X17397000Y-12559190D02*
X17406524Y-12549667D01*
X17425571Y-12540143D01*
X17454143Y-12540143D01*
X17473190Y-12549667D01*
X17482714Y-12568714D01*
X17482714Y-12673476D01*
X17606524Y-12673476D02*
X17587476Y-12663952D01*
X17577952Y-12654428D01*
X17568429Y-12635381D01*
X17568429Y-12578238D01*
X17577952Y-12559190D01*
X17587476Y-12549667D01*
X17606524Y-12540143D01*
X17635095Y-12540143D01*
X17654143Y-12549667D01*
X17663667Y-12559190D01*
X17673190Y-12578238D01*
X17673190Y-12635381D01*
X17663667Y-12654428D01*
X17654143Y-12663952D01*
X17635095Y-12673476D01*
X17606524Y-12673476D01*
X17730333Y-12540143D02*
X17806524Y-12540143D01*
X17758905Y-12473476D02*
X17758905Y-12644905D01*
X17768429Y-12663952D01*
X17787476Y-12673476D01*
X17806524Y-12673476D01*
X18025571Y-12540143D02*
X18025571Y-12740143D01*
X18025571Y-12549667D02*
X18044619Y-12540143D01*
X18082714Y-12540143D01*
X18101762Y-12549667D01*
X18111286Y-12559190D01*
X18120810Y-12578238D01*
X18120810Y-12635381D01*
X18111286Y-12654428D01*
X18101762Y-12663952D01*
X18082714Y-12673476D01*
X18044619Y-12673476D01*
X18025571Y-12663952D01*
X18235095Y-12673476D02*
X18216048Y-12663952D01*
X18206524Y-12644905D01*
X18206524Y-12473476D01*
X18397000Y-12673476D02*
X18397000Y-12568714D01*
X18387476Y-12549667D01*
X18368429Y-12540143D01*
X18330333Y-12540143D01*
X18311286Y-12549667D01*
X18397000Y-12663952D02*
X18377952Y-12673476D01*
X18330333Y-12673476D01*
X18311286Y-12663952D01*
X18301762Y-12644905D01*
X18301762Y-12625857D01*
X18311286Y-12606809D01*
X18330333Y-12597286D01*
X18377952Y-12597286D01*
X18397000Y-12587762D01*
X18463667Y-12540143D02*
X18539857Y-12540143D01*
X18492238Y-12473476D02*
X18492238Y-12644905D01*
X18501762Y-12663952D01*
X18520810Y-12673476D01*
X18539857Y-12673476D01*
X18682714Y-12663952D02*
X18663667Y-12673476D01*
X18625571Y-12673476D01*
X18606524Y-12663952D01*
X18597000Y-12644905D01*
X18597000Y-12568714D01*
X18606524Y-12549667D01*
X18625571Y-12540143D01*
X18663667Y-12540143D01*
X18682714Y-12549667D01*
X18692238Y-12568714D01*
X18692238Y-12587762D01*
X18597000Y-12606809D01*
X18863667Y-12673476D02*
X18863667Y-12473476D01*
X18863667Y-12663952D02*
X18844619Y-12673476D01*
X18806524Y-12673476D01*
X18787476Y-12663952D01*
X18777952Y-12654428D01*
X18768429Y-12635381D01*
X18768429Y-12578238D01*
X18777952Y-12559190D01*
X18787476Y-12549667D01*
X18806524Y-12540143D01*
X18844619Y-12540143D01*
X18863667Y-12549667D01*
X18939857Y-12749667D02*
X18949381Y-12740143D01*
X18968429Y-12711571D01*
X18977952Y-12692524D01*
X18987476Y-12663952D01*
X18997000Y-12616333D01*
X18997000Y-12578238D01*
X18987476Y-12530619D01*
X18977952Y-12502048D01*
X18968429Y-12483000D01*
X18949381Y-12454428D01*
X18939857Y-12444905D01*
M02*
